G04 EAGLE Gerber RS-274X export*
G75*
%MOMM*%
%FSLAX34Y34*%
%LPD*%
%INTop Copper*%
%IPPOS*%
%AMOC8*
5,1,8,0,0,1.08239X$1,22.5*%
G01*
%ADD10R,1.240000X1.500000*%
%ADD11R,1.000000X1.075000*%
%ADD12R,1.500000X1.240000*%
%ADD13R,0.800000X0.800000*%
%ADD14R,1.075000X1.000000*%
%ADD15R,0.550000X1.200000*%
%ADD16P,1.632244X8X67.500000*%
%ADD17R,0.600000X1.500000*%
%ADD18R,1.500000X0.600000*%
%ADD19R,1.000000X2.400000*%
%ADD20R,0.400000X1.200000*%
%ADD21C,1.308000*%
%ADD22C,2.348000*%
%ADD23P,1.632244X8X292.500000*%
%ADD24C,0.254000*%
%ADD25C,0.406400*%
%ADD26C,0.756400*%

G36*
X930111Y-53998D02*
X930111Y-53998D01*
X930166Y-53998D01*
X930394Y-53969D01*
X930623Y-53946D01*
X930676Y-53933D01*
X930731Y-53926D01*
X930953Y-53865D01*
X931176Y-53811D01*
X931227Y-53790D01*
X931280Y-53776D01*
X931492Y-53685D01*
X931705Y-53599D01*
X931753Y-53572D01*
X931804Y-53550D01*
X932000Y-53430D01*
X932200Y-53316D01*
X932234Y-53287D01*
X932290Y-53253D01*
X932730Y-52891D01*
X932774Y-52843D01*
X932809Y-52815D01*
X970662Y-14962D01*
X970737Y-14875D01*
X970820Y-14794D01*
X970924Y-14660D01*
X971035Y-14531D01*
X971098Y-14435D01*
X971169Y-14344D01*
X971253Y-14196D01*
X971345Y-14053D01*
X971394Y-13949D01*
X971451Y-13849D01*
X971514Y-13690D01*
X971585Y-13536D01*
X971618Y-13426D01*
X971661Y-13319D01*
X971701Y-13154D01*
X971750Y-12991D01*
X971768Y-12877D01*
X971795Y-12765D01*
X971812Y-12596D01*
X971838Y-12428D01*
X971839Y-12313D01*
X971850Y-12198D01*
X971843Y-12028D01*
X971845Y-11858D01*
X971831Y-11744D01*
X971826Y-11629D01*
X971795Y-11462D01*
X971773Y-11293D01*
X971743Y-11182D01*
X971722Y-11069D01*
X971668Y-10908D01*
X971623Y-10744D01*
X971577Y-10638D01*
X971540Y-10529D01*
X971464Y-10376D01*
X971397Y-10220D01*
X971337Y-10122D01*
X971285Y-10019D01*
X971189Y-9879D01*
X971100Y-9734D01*
X971027Y-9645D01*
X970961Y-9550D01*
X970846Y-9425D01*
X970738Y-9294D01*
X970653Y-9216D01*
X970575Y-9131D01*
X970444Y-9024D01*
X970318Y-8909D01*
X970223Y-8844D01*
X970134Y-8771D01*
X969989Y-8682D01*
X969849Y-8586D01*
X969746Y-8535D01*
X969647Y-8475D01*
X969491Y-8408D01*
X969338Y-8332D01*
X969229Y-8296D01*
X969123Y-8251D01*
X968959Y-8206D01*
X968798Y-8153D01*
X968684Y-8132D01*
X968573Y-8102D01*
X968459Y-8091D01*
X968237Y-8050D01*
X967906Y-8037D01*
X967789Y-8025D01*
X965285Y-8025D01*
X959975Y-2715D01*
X959975Y3391D01*
X959971Y3451D01*
X959973Y3512D01*
X959951Y3735D01*
X959935Y3959D01*
X959922Y4019D01*
X959916Y4079D01*
X959863Y4297D01*
X959816Y4517D01*
X959795Y4573D01*
X959781Y4632D01*
X959697Y4841D01*
X959620Y5052D01*
X959591Y5105D01*
X959569Y5161D01*
X959457Y5356D01*
X959351Y5554D01*
X959316Y5603D01*
X959285Y5655D01*
X959211Y5746D01*
X959015Y6014D01*
X958858Y6175D01*
X958785Y6264D01*
X955622Y9427D01*
X955576Y9467D01*
X955535Y9511D01*
X955361Y9653D01*
X955192Y9801D01*
X955141Y9834D01*
X955094Y9872D01*
X954902Y9989D01*
X954713Y10111D01*
X954659Y10136D01*
X954607Y10167D01*
X954401Y10256D01*
X954197Y10351D01*
X954139Y10368D01*
X954083Y10392D01*
X953867Y10450D01*
X953651Y10516D01*
X953592Y10525D01*
X953533Y10541D01*
X953416Y10552D01*
X953088Y10603D01*
X952863Y10606D01*
X952749Y10617D01*
X910223Y10617D01*
X908916Y11159D01*
X589431Y330643D01*
X589386Y330683D01*
X589345Y330727D01*
X589171Y330869D01*
X589001Y331017D01*
X588951Y331050D01*
X588904Y331088D01*
X588711Y331205D01*
X588523Y331327D01*
X588468Y331352D01*
X588417Y331383D01*
X588210Y331472D01*
X588006Y331567D01*
X587948Y331584D01*
X587893Y331608D01*
X587676Y331666D01*
X587461Y331732D01*
X587401Y331741D01*
X587343Y331757D01*
X587226Y331768D01*
X586898Y331819D01*
X586673Y331822D01*
X586558Y331833D01*
X519382Y331833D01*
X519153Y331817D01*
X518922Y331807D01*
X518868Y331797D01*
X518814Y331793D01*
X518588Y331745D01*
X518362Y331703D01*
X518310Y331686D01*
X518256Y331674D01*
X518040Y331595D01*
X517822Y331522D01*
X517773Y331497D01*
X517721Y331478D01*
X517518Y331370D01*
X517313Y331267D01*
X517267Y331236D01*
X517219Y331210D01*
X517033Y331074D01*
X516844Y330943D01*
X516803Y330906D01*
X516759Y330873D01*
X516594Y330713D01*
X516425Y330557D01*
X516390Y330514D01*
X516351Y330476D01*
X516210Y330294D01*
X516064Y330116D01*
X516036Y330068D01*
X516002Y330025D01*
X515888Y329825D01*
X515769Y329628D01*
X515747Y329578D01*
X515720Y329530D01*
X515635Y329316D01*
X515544Y329105D01*
X515530Y329052D01*
X515510Y329001D01*
X515455Y328776D01*
X515395Y328555D01*
X515391Y328511D01*
X515375Y328447D01*
X515371Y328397D01*
X506578Y328397D01*
X506349Y328381D01*
X506119Y328371D01*
X506065Y328361D01*
X506010Y328357D01*
X505785Y328309D01*
X505559Y328267D01*
X505506Y328250D01*
X505453Y328238D01*
X505237Y328159D01*
X505018Y328086D01*
X504969Y328061D01*
X504918Y328043D01*
X504715Y327934D01*
X504509Y327831D01*
X504464Y327800D01*
X504415Y327774D01*
X504230Y327638D01*
X504040Y327507D01*
X504000Y327470D01*
X503955Y327437D01*
X503790Y327277D01*
X503621Y327121D01*
X503621Y327120D01*
X503586Y327078D01*
X503547Y327039D01*
X503406Y326858D01*
X503260Y326679D01*
X503231Y326632D01*
X503198Y326589D01*
X503084Y326389D01*
X502964Y326192D01*
X502943Y326142D01*
X502916Y326094D01*
X502830Y325879D01*
X502740Y325668D01*
X502726Y325616D01*
X502705Y325564D01*
X502651Y325340D01*
X502591Y325118D01*
X502587Y325074D01*
X502571Y325010D01*
X502516Y324443D01*
X502519Y324378D01*
X502515Y324334D01*
X502515Y314293D01*
X500128Y314293D01*
X499637Y314391D01*
X499174Y314582D01*
X498655Y314929D01*
X498554Y314987D01*
X498458Y315053D01*
X498307Y315128D01*
X498160Y315212D01*
X498052Y315255D01*
X497948Y315307D01*
X497788Y315360D01*
X497631Y315423D01*
X497518Y315450D01*
X497407Y315487D01*
X497241Y315517D01*
X497077Y315557D01*
X496961Y315568D01*
X496846Y315589D01*
X496678Y315596D01*
X496510Y315613D01*
X496394Y315608D01*
X496277Y315613D01*
X496109Y315596D01*
X495941Y315589D01*
X495826Y315567D01*
X495710Y315556D01*
X495546Y315516D01*
X495381Y315485D01*
X495270Y315448D01*
X495157Y315420D01*
X495000Y315357D01*
X494856Y315309D01*
X490620Y315309D01*
X490391Y315293D01*
X490160Y315283D01*
X490106Y315273D01*
X490052Y315269D01*
X489826Y315221D01*
X489600Y315179D01*
X489548Y315162D01*
X489494Y315150D01*
X489278Y315071D01*
X489060Y314998D01*
X489011Y314973D01*
X488959Y314954D01*
X488756Y314846D01*
X488551Y314743D01*
X488505Y314712D01*
X488457Y314686D01*
X488271Y314550D01*
X488082Y314419D01*
X488041Y314382D01*
X487997Y314349D01*
X487832Y314189D01*
X487663Y314033D01*
X487628Y313990D01*
X487589Y313952D01*
X487448Y313770D01*
X487302Y313592D01*
X487274Y313544D01*
X487240Y313501D01*
X487126Y313301D01*
X487007Y313104D01*
X486985Y313054D01*
X486958Y313006D01*
X486873Y312792D01*
X486782Y312581D01*
X486768Y312528D01*
X486748Y312477D01*
X486693Y312252D01*
X486633Y312031D01*
X486629Y311987D01*
X486613Y311923D01*
X486558Y311356D01*
X486561Y311290D01*
X486557Y311246D01*
X486557Y307058D01*
X486573Y306829D01*
X486583Y306598D01*
X486593Y306544D01*
X486597Y306490D01*
X486645Y306264D01*
X486687Y306038D01*
X486704Y305986D01*
X486716Y305932D01*
X486795Y305716D01*
X486868Y305498D01*
X486893Y305449D01*
X486912Y305397D01*
X487020Y305194D01*
X487123Y304989D01*
X487154Y304943D01*
X487180Y304895D01*
X487316Y304709D01*
X487447Y304520D01*
X487484Y304479D01*
X487517Y304435D01*
X487677Y304270D01*
X487833Y304101D01*
X487876Y304066D01*
X487914Y304027D01*
X488096Y303886D01*
X488274Y303740D01*
X488322Y303712D01*
X488365Y303678D01*
X488565Y303564D01*
X488762Y303445D01*
X488812Y303423D01*
X488860Y303396D01*
X489074Y303311D01*
X489285Y303220D01*
X489338Y303206D01*
X489389Y303186D01*
X489614Y303131D01*
X489835Y303071D01*
X489879Y303067D01*
X489943Y303051D01*
X490510Y302996D01*
X490576Y302999D01*
X490620Y302995D01*
X492038Y302995D01*
X493946Y302204D01*
X494004Y302185D01*
X494059Y302160D01*
X494274Y302095D01*
X494487Y302023D01*
X494546Y302013D01*
X494604Y301995D01*
X494827Y301961D01*
X495047Y301920D01*
X495107Y301918D01*
X495167Y301908D01*
X495392Y301906D01*
X495616Y301896D01*
X495677Y301902D01*
X495737Y301902D01*
X495959Y301930D01*
X496184Y301952D01*
X496242Y301967D01*
X496302Y301974D01*
X496415Y302009D01*
X496737Y302087D01*
X496946Y302170D01*
X497056Y302204D01*
X499578Y303249D01*
X501690Y303249D01*
X503640Y302441D01*
X505133Y300948D01*
X505941Y298998D01*
X505941Y296886D01*
X505133Y294936D01*
X504619Y294422D01*
X504579Y294376D01*
X504535Y294335D01*
X504393Y294161D01*
X504245Y293992D01*
X504212Y293941D01*
X504174Y293894D01*
X504057Y293702D01*
X503935Y293514D01*
X503910Y293459D01*
X503879Y293407D01*
X503790Y293200D01*
X503695Y292997D01*
X503678Y292939D01*
X503654Y292884D01*
X503596Y292667D01*
X503530Y292451D01*
X503521Y292392D01*
X503505Y292334D01*
X503494Y292216D01*
X503443Y291888D01*
X503440Y291664D01*
X503429Y291549D01*
X503429Y287988D01*
X503003Y286961D01*
X499985Y283942D01*
X499945Y283897D01*
X499901Y283856D01*
X499759Y283682D01*
X499611Y283512D01*
X499578Y283462D01*
X499540Y283415D01*
X499423Y283223D01*
X499301Y283034D01*
X499276Y282979D01*
X499245Y282928D01*
X499156Y282721D01*
X499061Y282517D01*
X499044Y282459D01*
X499020Y282404D01*
X498962Y282187D01*
X498896Y281972D01*
X498887Y281912D01*
X498871Y281854D01*
X498860Y281737D01*
X498809Y281409D01*
X498806Y281184D01*
X498795Y281069D01*
X498795Y251138D01*
X498811Y250909D01*
X498821Y250678D01*
X498831Y250624D01*
X498835Y250570D01*
X498883Y250344D01*
X498925Y250118D01*
X498942Y250066D01*
X498954Y250012D01*
X499033Y249796D01*
X499106Y249578D01*
X499131Y249529D01*
X499150Y249477D01*
X499258Y249274D01*
X499361Y249069D01*
X499392Y249023D01*
X499418Y248975D01*
X499554Y248789D01*
X499685Y248600D01*
X499722Y248559D01*
X499755Y248515D01*
X499915Y248350D01*
X500071Y248181D01*
X500114Y248146D01*
X500152Y248107D01*
X500334Y247966D01*
X500512Y247820D01*
X500560Y247792D01*
X500603Y247758D01*
X500803Y247644D01*
X501000Y247525D01*
X501050Y247503D01*
X501098Y247476D01*
X501312Y247391D01*
X501523Y247300D01*
X501576Y247286D01*
X501627Y247266D01*
X501852Y247211D01*
X502073Y247151D01*
X502117Y247147D01*
X502181Y247131D01*
X502748Y247076D01*
X502814Y247079D01*
X502858Y247075D01*
X503476Y247075D01*
X503708Y247091D01*
X503939Y247101D01*
X503991Y247111D01*
X504045Y247115D01*
X504271Y247163D01*
X504499Y247205D01*
X504550Y247223D01*
X504602Y247234D01*
X504819Y247313D01*
X505039Y247387D01*
X505077Y247408D01*
X505137Y247430D01*
X505639Y247698D01*
X505693Y247738D01*
X505734Y247760D01*
X505797Y247802D01*
X506259Y247993D01*
X506750Y248091D01*
X508202Y248091D01*
X508263Y248095D01*
X508323Y248093D01*
X508546Y248115D01*
X508771Y248131D01*
X508830Y248143D01*
X508890Y248149D01*
X509108Y248203D01*
X509328Y248250D01*
X509385Y248270D01*
X509443Y248285D01*
X509652Y248368D01*
X509863Y248446D01*
X509916Y248474D01*
X509972Y248496D01*
X510167Y248608D01*
X510366Y248714D01*
X510414Y248750D01*
X510467Y248780D01*
X510558Y248855D01*
X510825Y249051D01*
X510987Y249208D01*
X511076Y249281D01*
X513682Y251887D01*
X516646Y253115D01*
X519854Y253115D01*
X522818Y251887D01*
X525087Y249618D01*
X526315Y246654D01*
X526315Y243446D01*
X526102Y242933D01*
X526048Y242769D01*
X525984Y242609D01*
X525957Y242499D01*
X525922Y242393D01*
X525890Y242223D01*
X525850Y242055D01*
X525839Y241943D01*
X525818Y241832D01*
X525811Y241660D01*
X525794Y241488D01*
X525799Y241375D01*
X525795Y241263D01*
X525812Y241091D01*
X525819Y240918D01*
X525840Y240808D01*
X525851Y240696D01*
X525892Y240528D01*
X525923Y240358D01*
X525959Y240252D01*
X525985Y240142D01*
X526049Y239982D01*
X526104Y239818D01*
X526155Y239717D01*
X526196Y239613D01*
X526282Y239463D01*
X526359Y239309D01*
X526423Y239216D01*
X526479Y239118D01*
X526585Y238982D01*
X526683Y238840D01*
X526760Y238757D01*
X526829Y238668D01*
X526952Y238548D01*
X527070Y238421D01*
X527157Y238350D01*
X527237Y238271D01*
X527377Y238170D01*
X527511Y238060D01*
X527607Y238002D01*
X527698Y237935D01*
X527850Y237854D01*
X527998Y237765D01*
X528101Y237720D01*
X528200Y237667D01*
X528363Y237608D01*
X528522Y237540D01*
X528630Y237511D01*
X528736Y237472D01*
X528905Y237436D01*
X529072Y237391D01*
X529156Y237383D01*
X529293Y237354D01*
X529843Y237316D01*
X529856Y237315D01*
X533639Y237315D01*
X538514Y235295D01*
X542245Y231564D01*
X544265Y226689D01*
X544265Y221411D01*
X542245Y216536D01*
X538514Y212805D01*
X533639Y210785D01*
X528361Y210785D01*
X523486Y212805D01*
X519755Y216536D01*
X518406Y219793D01*
X517735Y221411D01*
X517735Y227497D01*
X517735Y227505D01*
X517740Y227623D01*
X517728Y227739D01*
X517727Y227856D01*
X517701Y228023D01*
X517684Y228190D01*
X517657Y228304D01*
X517638Y228419D01*
X517590Y228580D01*
X517550Y228744D01*
X517507Y228852D01*
X517473Y228964D01*
X517402Y229117D01*
X517339Y229273D01*
X517281Y229375D01*
X517232Y229481D01*
X517140Y229622D01*
X517057Y229768D01*
X516985Y229860D01*
X516922Y229958D01*
X516811Y230085D01*
X516708Y230218D01*
X516624Y230300D01*
X516547Y230388D01*
X516420Y230498D01*
X516299Y230616D01*
X516205Y230685D01*
X516117Y230761D01*
X515975Y230853D01*
X515839Y230952D01*
X515736Y231007D01*
X515638Y231070D01*
X515485Y231141D01*
X515337Y231220D01*
X515227Y231260D01*
X515121Y231310D01*
X514960Y231358D01*
X514802Y231416D01*
X514687Y231440D01*
X514575Y231474D01*
X514409Y231500D01*
X514244Y231535D01*
X514128Y231543D01*
X514012Y231561D01*
X513844Y231563D01*
X513676Y231574D01*
X513559Y231566D01*
X513442Y231568D01*
X513276Y231546D01*
X513108Y231534D01*
X512993Y231510D01*
X512877Y231495D01*
X512829Y231480D01*
X512766Y231673D01*
X512734Y231739D01*
X512709Y231808D01*
X512609Y231995D01*
X512516Y232185D01*
X512474Y232246D01*
X512440Y232311D01*
X512315Y232481D01*
X512196Y232657D01*
X512147Y232711D01*
X512103Y232771D01*
X511956Y232922D01*
X511814Y233079D01*
X511757Y233126D01*
X511706Y233179D01*
X511539Y233308D01*
X511376Y233444D01*
X511313Y233483D01*
X511255Y233528D01*
X511072Y233632D01*
X510891Y233744D01*
X510824Y233773D01*
X510760Y233810D01*
X510563Y233888D01*
X510370Y233973D01*
X510299Y233993D01*
X510231Y234020D01*
X510025Y234070D01*
X509821Y234127D01*
X509748Y234137D01*
X509677Y234154D01*
X509466Y234175D01*
X509256Y234203D01*
X509183Y234202D01*
X509110Y234209D01*
X508898Y234200D01*
X508687Y234199D01*
X508614Y234188D01*
X508541Y234185D01*
X508332Y234146D01*
X508123Y234115D01*
X508052Y234094D01*
X507980Y234081D01*
X507780Y234013D01*
X507577Y233953D01*
X507510Y233923D01*
X507440Y233899D01*
X507251Y233805D01*
X507058Y233717D01*
X506996Y233677D01*
X506931Y233644D01*
X506756Y233524D01*
X506578Y233410D01*
X506535Y233371D01*
X506462Y233320D01*
X506043Y232934D01*
X506016Y232901D01*
X505994Y232881D01*
X505993Y232880D01*
X505840Y232685D01*
X505682Y232493D01*
X505663Y232462D01*
X505640Y232433D01*
X505515Y232218D01*
X505386Y232006D01*
X505372Y231972D01*
X505354Y231941D01*
X505260Y231710D01*
X505225Y231629D01*
X505024Y231709D01*
X504811Y231800D01*
X504759Y231814D01*
X504709Y231834D01*
X504484Y231888D01*
X504261Y231949D01*
X504218Y231953D01*
X504156Y231968D01*
X503589Y232024D01*
X503521Y232021D01*
X503476Y232025D01*
X480330Y232025D01*
X480189Y232148D01*
X480141Y232179D01*
X480096Y232216D01*
X479902Y232334D01*
X479711Y232458D01*
X479659Y232482D01*
X479609Y232512D01*
X479401Y232602D01*
X479194Y232698D01*
X479139Y232714D01*
X479086Y232737D01*
X478867Y232797D01*
X478649Y232863D01*
X478592Y232872D01*
X478536Y232887D01*
X478311Y232915D01*
X478086Y232950D01*
X478028Y232951D01*
X477971Y232958D01*
X477743Y232955D01*
X477516Y232958D01*
X477459Y232951D01*
X477401Y232950D01*
X477177Y232915D01*
X476951Y232886D01*
X476895Y232871D01*
X476838Y232862D01*
X476621Y232795D01*
X476401Y232735D01*
X476348Y232712D01*
X476293Y232696D01*
X476087Y232600D01*
X475878Y232510D01*
X475829Y232479D01*
X475777Y232455D01*
X475586Y232331D01*
X475392Y232213D01*
X475347Y232176D01*
X475299Y232145D01*
X475127Y231995D01*
X474952Y231851D01*
X474913Y231808D01*
X474869Y231770D01*
X474720Y231598D01*
X474567Y231431D01*
X474534Y231383D01*
X474496Y231340D01*
X474373Y231149D01*
X474244Y230961D01*
X474218Y230909D01*
X474187Y230861D01*
X474091Y230654D01*
X473990Y230451D01*
X473972Y230396D01*
X473948Y230344D01*
X473882Y230126D01*
X473810Y229910D01*
X473800Y229854D01*
X473783Y229798D01*
X473749Y229574D01*
X473708Y229350D01*
X473705Y229292D01*
X473697Y229235D01*
X473694Y229008D01*
X473685Y228781D01*
X473691Y228723D01*
X473690Y228665D01*
X473719Y228440D01*
X473742Y228214D01*
X473755Y228158D01*
X473763Y228100D01*
X473797Y227989D01*
X473877Y227660D01*
X473959Y227455D01*
X473992Y227346D01*
X474265Y226689D01*
X474265Y221411D01*
X472245Y216536D01*
X468514Y212805D01*
X463639Y210785D01*
X458361Y210785D01*
X453486Y212805D01*
X449755Y216536D01*
X448406Y219793D01*
X447735Y221411D01*
X447735Y226689D01*
X449755Y231564D01*
X453486Y235295D01*
X458361Y237315D01*
X462144Y237315D01*
X462316Y237327D01*
X462489Y237329D01*
X462600Y237347D01*
X462712Y237355D01*
X462881Y237391D01*
X463052Y237417D01*
X463159Y237450D01*
X463269Y237474D01*
X463431Y237533D01*
X463597Y237583D01*
X463699Y237631D01*
X463804Y237670D01*
X463957Y237751D01*
X464113Y237824D01*
X464208Y237885D01*
X464307Y237938D01*
X464446Y238040D01*
X464591Y238134D01*
X464676Y238208D01*
X464767Y238275D01*
X464891Y238395D01*
X465021Y238509D01*
X465094Y238594D01*
X465175Y238672D01*
X465281Y238809D01*
X465394Y238939D01*
X465455Y239034D01*
X465524Y239123D01*
X465609Y239273D01*
X465703Y239418D01*
X465750Y239520D01*
X465806Y239618D01*
X465870Y239779D01*
X465942Y239935D01*
X465975Y240043D01*
X466016Y240147D01*
X466057Y240316D01*
X466107Y240481D01*
X466124Y240592D01*
X466150Y240701D01*
X466167Y240873D01*
X466193Y241044D01*
X466195Y241156D01*
X466206Y241268D01*
X466198Y241441D01*
X466200Y241614D01*
X466186Y241725D01*
X466181Y241838D01*
X466149Y242008D01*
X466127Y242179D01*
X466102Y242260D01*
X466077Y242398D01*
X465901Y242921D01*
X465898Y242933D01*
X465685Y243446D01*
X465685Y246654D01*
X466913Y249618D01*
X469182Y251887D01*
X472146Y253115D01*
X475767Y253115D01*
X475772Y253114D01*
X475944Y253107D01*
X476116Y253090D01*
X476229Y253095D01*
X476341Y253090D01*
X476513Y253107D01*
X476686Y253114D01*
X476796Y253135D01*
X476908Y253146D01*
X477076Y253187D01*
X477246Y253218D01*
X477352Y253254D01*
X477462Y253281D01*
X477622Y253345D01*
X477786Y253400D01*
X477887Y253450D01*
X477991Y253492D01*
X478141Y253577D01*
X478295Y253655D01*
X478388Y253719D01*
X478486Y253775D01*
X478622Y253880D01*
X478764Y253979D01*
X478847Y254055D01*
X478936Y254124D01*
X479056Y254248D01*
X479183Y254365D01*
X479254Y254452D01*
X479333Y254533D01*
X479434Y254672D01*
X479544Y254806D01*
X479602Y254902D01*
X479668Y254993D01*
X479750Y255145D01*
X479839Y255293D01*
X479884Y255396D01*
X479937Y255496D01*
X479996Y255658D01*
X480064Y255817D01*
X480093Y255925D01*
X480132Y256031D01*
X480168Y256200D01*
X480213Y256367D01*
X480221Y256452D01*
X480250Y256589D01*
X480288Y257139D01*
X480289Y257152D01*
X480289Y259220D01*
X480281Y259338D01*
X480282Y259455D01*
X480261Y259621D01*
X480249Y259788D01*
X480225Y259903D01*
X480210Y260020D01*
X480176Y260130D01*
X480130Y260345D01*
X480014Y260663D01*
X479980Y260775D01*
X479443Y262070D01*
X479443Y320464D01*
X479544Y320707D01*
X479581Y320819D01*
X479628Y320927D01*
X479672Y321088D01*
X479725Y321247D01*
X479746Y321363D01*
X479777Y321477D01*
X479788Y321591D01*
X479828Y321807D01*
X479842Y322146D01*
X479853Y322262D01*
X479853Y332466D01*
X480746Y333359D01*
X490161Y333359D01*
X490221Y333363D01*
X490281Y333361D01*
X490505Y333383D01*
X490729Y333399D01*
X490788Y333411D01*
X490848Y333417D01*
X491067Y333471D01*
X491286Y333518D01*
X491343Y333538D01*
X491402Y333553D01*
X491610Y333636D01*
X491821Y333714D01*
X491875Y333742D01*
X491931Y333764D01*
X492126Y333876D01*
X492324Y333982D01*
X492373Y334018D01*
X492425Y334048D01*
X492516Y334123D01*
X492784Y334319D01*
X492945Y334476D01*
X493034Y334549D01*
X496015Y337530D01*
X496055Y337576D01*
X496099Y337617D01*
X496241Y337791D01*
X496389Y337960D01*
X496422Y338011D01*
X496460Y338058D01*
X496577Y338250D01*
X496699Y338438D01*
X496724Y338493D01*
X496755Y338545D01*
X496844Y338751D01*
X496939Y338955D01*
X496956Y339013D01*
X496980Y339069D01*
X497038Y339285D01*
X497104Y339501D01*
X497113Y339560D01*
X497129Y339619D01*
X497140Y339736D01*
X497191Y340064D01*
X497194Y340289D01*
X497205Y340403D01*
X497205Y354204D01*
X497201Y354265D01*
X497203Y354325D01*
X497181Y354548D01*
X497165Y354773D01*
X497153Y354832D01*
X497147Y354892D01*
X497093Y355110D01*
X497046Y355330D01*
X497026Y355387D01*
X497011Y355445D01*
X496928Y355654D01*
X496850Y355865D01*
X496822Y355918D01*
X496800Y355974D01*
X496688Y356169D01*
X496582Y356367D01*
X496546Y356416D01*
X496516Y356469D01*
X496441Y356559D01*
X496245Y356827D01*
X496088Y356988D01*
X496015Y357078D01*
X495725Y357367D01*
X495725Y370631D01*
X496618Y371524D01*
X503226Y371524D01*
X503457Y371540D01*
X503689Y371550D01*
X503741Y371560D01*
X503795Y371564D01*
X504021Y371612D01*
X504249Y371655D01*
X504299Y371672D01*
X504352Y371683D01*
X504570Y371762D01*
X504789Y371836D01*
X504827Y371857D01*
X504887Y371879D01*
X505389Y372147D01*
X505437Y372182D01*
X505437Y364198D01*
X505441Y364141D01*
X505438Y364088D01*
X505439Y364084D01*
X505438Y364077D01*
X505461Y363854D01*
X505477Y363629D01*
X505488Y363574D01*
X505494Y363521D01*
X505495Y363517D01*
X505495Y363510D01*
X505549Y363292D01*
X505596Y363072D01*
X505615Y363020D01*
X505628Y362967D01*
X505629Y362963D01*
X505631Y362957D01*
X505714Y362748D01*
X505791Y362537D01*
X505818Y362488D01*
X505838Y362438D01*
X505840Y362434D01*
X505842Y362428D01*
X505954Y362233D01*
X506060Y362035D01*
X506093Y361990D01*
X506120Y361943D01*
X506123Y361939D01*
X506126Y361934D01*
X506143Y361913D01*
X506260Y361762D01*
X506397Y361575D01*
X506435Y361535D01*
X506469Y361492D01*
X506571Y361392D01*
X506627Y361325D01*
X506627Y361324D01*
X506714Y361249D01*
X506794Y361167D01*
X506837Y361133D01*
X506877Y361094D01*
X506970Y361026D01*
X507057Y360951D01*
X507154Y360888D01*
X507245Y360818D01*
X507292Y360791D01*
X507337Y360758D01*
X507439Y360704D01*
X507535Y360641D01*
X507640Y360592D01*
X507740Y360536D01*
X507790Y360516D01*
X507839Y360489D01*
X507948Y360450D01*
X508052Y360401D01*
X508163Y360367D01*
X508269Y360325D01*
X508322Y360313D01*
X508374Y360293D01*
X508487Y360269D01*
X508597Y360236D01*
X508713Y360218D01*
X508823Y360191D01*
X508846Y360189D01*
X508877Y360186D01*
X508932Y360174D01*
X509046Y360166D01*
X509160Y360149D01*
X509277Y360147D01*
X509390Y360136D01*
X509444Y360138D01*
X509500Y360134D01*
X509615Y360142D01*
X509730Y360141D01*
X509846Y360156D01*
X509960Y360161D01*
X510012Y360170D01*
X510068Y360174D01*
X510181Y360198D01*
X510295Y360213D01*
X510408Y360244D01*
X510520Y360265D01*
X510571Y360282D01*
X510626Y360293D01*
X510734Y360333D01*
X510845Y360363D01*
X510952Y360410D01*
X511060Y360446D01*
X511108Y360470D01*
X511161Y360489D01*
X511262Y360544D01*
X511368Y360589D01*
X511467Y360650D01*
X511570Y360701D01*
X511614Y360732D01*
X511663Y360758D01*
X511756Y360826D01*
X511854Y360886D01*
X511944Y360960D01*
X512038Y361025D01*
X512078Y361062D01*
X512123Y361094D01*
X512184Y361157D01*
X512295Y361248D01*
X512373Y361333D01*
X512457Y361411D01*
X512565Y361543D01*
X512655Y361641D01*
X512673Y361659D01*
X512673Y361660D01*
X512676Y361664D01*
X512680Y361668D01*
X512745Y361763D01*
X512818Y361852D01*
X512903Y361993D01*
X512997Y362128D01*
X512999Y362133D01*
X513002Y362138D01*
X513053Y362240D01*
X513113Y362339D01*
X513178Y362491D01*
X513252Y362638D01*
X513254Y362643D01*
X513256Y362648D01*
X513292Y362757D01*
X513338Y362863D01*
X513381Y363022D01*
X513433Y363178D01*
X513434Y363184D01*
X513436Y363188D01*
X513456Y363301D01*
X513487Y363413D01*
X513498Y363526D01*
X513537Y363738D01*
X513538Y363744D01*
X513538Y363749D01*
X513548Y363990D01*
X513552Y364083D01*
X513563Y364198D01*
X513563Y372182D01*
X513717Y372094D01*
X513915Y371974D01*
X513965Y371953D01*
X514011Y371926D01*
X514226Y371840D01*
X514439Y371749D01*
X514491Y371735D01*
X514541Y371715D01*
X514766Y371661D01*
X514989Y371600D01*
X515032Y371596D01*
X515094Y371581D01*
X515661Y371525D01*
X515729Y371528D01*
X515774Y371524D01*
X521744Y371524D01*
X521973Y371540D01*
X522204Y371550D01*
X522258Y371560D01*
X522312Y371564D01*
X522538Y371612D01*
X522764Y371654D01*
X522816Y371671D01*
X522870Y371683D01*
X523086Y371762D01*
X523304Y371835D01*
X523353Y371860D01*
X523405Y371879D01*
X523608Y371987D01*
X523813Y372090D01*
X523859Y372121D01*
X523907Y372147D01*
X524093Y372283D01*
X524282Y372414D01*
X524323Y372451D01*
X524367Y372484D01*
X524531Y372644D01*
X524701Y372800D01*
X524736Y372843D01*
X524775Y372881D01*
X524916Y373063D01*
X525062Y373241D01*
X525090Y373289D01*
X525124Y373332D01*
X525238Y373532D01*
X525357Y373729D01*
X525379Y373779D01*
X525406Y373827D01*
X525491Y374041D01*
X525582Y374252D01*
X525596Y374305D01*
X525616Y374356D01*
X525671Y374581D01*
X525731Y374802D01*
X525735Y374846D01*
X525751Y374910D01*
X525806Y375477D01*
X525803Y375543D01*
X525807Y375587D01*
X525807Y378413D01*
X525791Y378642D01*
X525781Y378873D01*
X525771Y378927D01*
X525767Y378981D01*
X525719Y379207D01*
X525677Y379433D01*
X525660Y379485D01*
X525648Y379539D01*
X525569Y379755D01*
X525496Y379973D01*
X525471Y380022D01*
X525452Y380074D01*
X525344Y380277D01*
X525241Y380482D01*
X525210Y380528D01*
X525184Y380576D01*
X525048Y380762D01*
X524917Y380951D01*
X524880Y380992D01*
X524847Y381036D01*
X524687Y381201D01*
X524531Y381370D01*
X524488Y381405D01*
X524450Y381444D01*
X524268Y381585D01*
X524090Y381731D01*
X524042Y381759D01*
X523999Y381793D01*
X523799Y381907D01*
X523602Y382026D01*
X523552Y382048D01*
X523504Y382075D01*
X523290Y382160D01*
X523079Y382251D01*
X523026Y382265D01*
X522975Y382285D01*
X522750Y382340D01*
X522529Y382400D01*
X522485Y382404D01*
X522421Y382420D01*
X521854Y382475D01*
X521788Y382472D01*
X521744Y382476D01*
X515618Y382476D01*
X514725Y383369D01*
X514725Y396633D01*
X515618Y397526D01*
X523380Y397526D01*
X523465Y397505D01*
X523634Y397489D01*
X523802Y397463D01*
X523917Y397461D01*
X524032Y397450D01*
X524202Y397457D01*
X524371Y397455D01*
X524486Y397469D01*
X524602Y397474D01*
X524768Y397505D01*
X524937Y397527D01*
X525048Y397557D01*
X525162Y397578D01*
X525323Y397632D01*
X525486Y397677D01*
X525592Y397723D01*
X525702Y397760D01*
X525854Y397836D01*
X526009Y397903D01*
X526108Y397963D01*
X526211Y398015D01*
X526351Y398111D01*
X526496Y398200D01*
X526585Y398273D01*
X526680Y398339D01*
X526805Y398454D01*
X526936Y398561D01*
X527014Y398646D01*
X527099Y398725D01*
X527207Y398856D01*
X527321Y398981D01*
X527387Y399076D01*
X527460Y399166D01*
X527548Y399311D01*
X527644Y399451D01*
X527695Y399554D01*
X527755Y399653D01*
X527822Y399809D01*
X527898Y399961D01*
X527934Y400071D01*
X527980Y400177D01*
X528024Y400340D01*
X528078Y400502D01*
X528099Y400615D01*
X528129Y400727D01*
X528140Y400841D01*
X528180Y401062D01*
X528194Y401395D01*
X528205Y401512D01*
X528205Y408968D01*
X528189Y409197D01*
X528179Y409428D01*
X528169Y409482D01*
X528165Y409536D01*
X528117Y409761D01*
X528075Y409988D01*
X528058Y410040D01*
X528046Y410094D01*
X527967Y410310D01*
X527894Y410528D01*
X527869Y410577D01*
X527850Y410629D01*
X527742Y410832D01*
X527639Y411037D01*
X527608Y411083D01*
X527582Y411131D01*
X527446Y411317D01*
X527315Y411506D01*
X527278Y411547D01*
X527245Y411591D01*
X527085Y411756D01*
X526929Y411925D01*
X526886Y411960D01*
X526848Y411999D01*
X526666Y412140D01*
X526488Y412286D01*
X526440Y412314D01*
X526397Y412348D01*
X526197Y412462D01*
X526000Y412581D01*
X525950Y412603D01*
X525902Y412630D01*
X525688Y412715D01*
X525477Y412806D01*
X525424Y412820D01*
X525373Y412840D01*
X525148Y412895D01*
X524927Y412955D01*
X524883Y412959D01*
X524819Y412975D01*
X524252Y413030D01*
X524186Y413027D01*
X524142Y413031D01*
X521676Y413031D01*
X519726Y413839D01*
X518233Y415332D01*
X517425Y417282D01*
X517425Y419394D01*
X518233Y421344D01*
X518747Y421858D01*
X518787Y421904D01*
X518831Y421945D01*
X518973Y422119D01*
X519121Y422288D01*
X519154Y422339D01*
X519192Y422386D01*
X519309Y422578D01*
X519431Y422766D01*
X519456Y422821D01*
X519487Y422873D01*
X519576Y423079D01*
X519671Y423283D01*
X519688Y423341D01*
X519712Y423396D01*
X519770Y423613D01*
X519836Y423829D01*
X519845Y423888D01*
X519861Y423946D01*
X519872Y424064D01*
X519923Y424392D01*
X519926Y424616D01*
X519937Y424731D01*
X519937Y450412D01*
X519921Y450641D01*
X519911Y450872D01*
X519901Y450926D01*
X519897Y450980D01*
X519849Y451206D01*
X519807Y451432D01*
X519790Y451484D01*
X519778Y451538D01*
X519699Y451754D01*
X519626Y451972D01*
X519601Y452021D01*
X519582Y452073D01*
X519474Y452276D01*
X519371Y452481D01*
X519340Y452527D01*
X519314Y452575D01*
X519178Y452761D01*
X519047Y452950D01*
X519010Y452991D01*
X518977Y453035D01*
X518817Y453200D01*
X518661Y453369D01*
X518618Y453404D01*
X518580Y453443D01*
X518398Y453584D01*
X518220Y453730D01*
X518172Y453758D01*
X518129Y453792D01*
X517929Y453906D01*
X517732Y454025D01*
X517682Y454047D01*
X517634Y454074D01*
X517420Y454159D01*
X517209Y454250D01*
X517156Y454264D01*
X517105Y454284D01*
X516880Y454339D01*
X516659Y454399D01*
X516615Y454403D01*
X516551Y454419D01*
X515984Y454474D01*
X515918Y454471D01*
X515874Y454475D01*
X471368Y454475D01*
X470475Y455368D01*
X470475Y465348D01*
X470459Y465577D01*
X470449Y465808D01*
X470439Y465862D01*
X470435Y465916D01*
X470387Y466142D01*
X470345Y466368D01*
X470328Y466420D01*
X470316Y466474D01*
X470237Y466690D01*
X470164Y466908D01*
X470139Y466957D01*
X470120Y467009D01*
X470012Y467212D01*
X469909Y467417D01*
X469878Y467463D01*
X469852Y467511D01*
X469716Y467697D01*
X469585Y467886D01*
X469548Y467927D01*
X469515Y467971D01*
X469355Y468136D01*
X469199Y468305D01*
X469156Y468340D01*
X469118Y468379D01*
X468936Y468520D01*
X468758Y468666D01*
X468710Y468694D01*
X468667Y468728D01*
X468467Y468842D01*
X468270Y468961D01*
X468220Y468983D01*
X468172Y469010D01*
X467958Y469095D01*
X467747Y469186D01*
X467694Y469200D01*
X467643Y469220D01*
X467418Y469275D01*
X467197Y469335D01*
X467153Y469339D01*
X467089Y469355D01*
X466522Y469410D01*
X466456Y469407D01*
X466412Y469411D01*
X451287Y469411D01*
X450260Y469837D01*
X447837Y472260D01*
X447411Y473287D01*
X447411Y514713D01*
X447837Y515740D01*
X449750Y517653D01*
X449751Y517655D01*
X449754Y517657D01*
X449935Y517867D01*
X450123Y518083D01*
X450125Y518086D01*
X450127Y518088D01*
X450275Y518318D01*
X450433Y518562D01*
X450434Y518564D01*
X450436Y518566D01*
X450552Y518817D01*
X450673Y519078D01*
X450674Y519081D01*
X450675Y519084D01*
X450757Y519355D01*
X450838Y519624D01*
X450839Y519627D01*
X450839Y519629D01*
X450883Y519911D01*
X450926Y520187D01*
X450926Y520189D01*
X450926Y520192D01*
X450929Y520480D01*
X450933Y520757D01*
X450933Y520759D01*
X450933Y520762D01*
X450897Y521039D01*
X450861Y521322D01*
X450860Y521325D01*
X450860Y521327D01*
X450856Y521340D01*
X450711Y521871D01*
X450665Y521976D01*
X450666Y521977D01*
X450721Y521988D01*
X450774Y521994D01*
X450778Y521995D01*
X450785Y521995D01*
X451003Y522049D01*
X451223Y522096D01*
X451275Y522115D01*
X451328Y522128D01*
X451332Y522129D01*
X451338Y522131D01*
X451547Y522214D01*
X451758Y522291D01*
X451807Y522318D01*
X451858Y522338D01*
X451861Y522340D01*
X451867Y522342D01*
X452062Y522454D01*
X452260Y522560D01*
X452305Y522593D01*
X452353Y522620D01*
X452356Y522623D01*
X452361Y522626D01*
X452382Y522643D01*
X452533Y522760D01*
X452720Y522897D01*
X452760Y522935D01*
X452803Y522969D01*
X452903Y523071D01*
X452970Y523127D01*
X452971Y523127D01*
X453046Y523214D01*
X453128Y523294D01*
X453162Y523337D01*
X453201Y523377D01*
X453269Y523470D01*
X453344Y523557D01*
X453407Y523654D01*
X453477Y523745D01*
X453504Y523792D01*
X453537Y523837D01*
X453591Y523939D01*
X453654Y524035D01*
X453703Y524140D01*
X453759Y524240D01*
X453779Y524290D01*
X453806Y524339D01*
X453845Y524448D01*
X453894Y524552D01*
X453928Y524663D01*
X453970Y524769D01*
X453982Y524822D01*
X454002Y524874D01*
X454026Y524987D01*
X454059Y525097D01*
X454077Y525213D01*
X454104Y525323D01*
X454109Y525377D01*
X454121Y525432D01*
X454129Y525546D01*
X454146Y525660D01*
X454148Y525777D01*
X454159Y525890D01*
X454157Y525944D01*
X454161Y526000D01*
X454153Y526115D01*
X454154Y526230D01*
X454139Y526346D01*
X454134Y526460D01*
X454125Y526512D01*
X454121Y526568D01*
X454097Y526681D01*
X454082Y526795D01*
X454051Y526908D01*
X454030Y527020D01*
X454013Y527071D01*
X454002Y527126D01*
X453962Y527234D01*
X453932Y527345D01*
X453885Y527452D01*
X453849Y527560D01*
X453825Y527608D01*
X453806Y527661D01*
X453751Y527762D01*
X453706Y527868D01*
X453645Y527967D01*
X453594Y528070D01*
X453563Y528114D01*
X453537Y528163D01*
X453469Y528256D01*
X453409Y528354D01*
X453335Y528444D01*
X453270Y528538D01*
X453233Y528578D01*
X453201Y528623D01*
X453138Y528684D01*
X453047Y528795D01*
X452962Y528873D01*
X452884Y528957D01*
X452752Y529065D01*
X452654Y529155D01*
X452636Y529173D01*
X452631Y529176D01*
X452627Y529180D01*
X452532Y529245D01*
X452443Y529318D01*
X452302Y529403D01*
X452167Y529497D01*
X452162Y529499D01*
X452157Y529502D01*
X452055Y529553D01*
X451956Y529613D01*
X451804Y529678D01*
X451657Y529752D01*
X451652Y529754D01*
X451647Y529756D01*
X451539Y529792D01*
X451432Y529838D01*
X451273Y529881D01*
X451117Y529933D01*
X451111Y529934D01*
X451107Y529936D01*
X450994Y529956D01*
X450882Y529987D01*
X450769Y529998D01*
X450557Y530037D01*
X450551Y530038D01*
X450546Y530038D01*
X450305Y530048D01*
X450212Y530052D01*
X450097Y530063D01*
X449377Y530063D01*
X449356Y530085D01*
X449219Y530238D01*
X449158Y530289D01*
X449102Y530346D01*
X448939Y530472D01*
X448782Y530604D01*
X448714Y530646D01*
X448651Y530695D01*
X448473Y530797D01*
X448299Y530905D01*
X448226Y530938D01*
X448156Y530977D01*
X447965Y531053D01*
X447778Y531136D01*
X447701Y531158D01*
X447627Y531188D01*
X447427Y531236D01*
X447230Y531292D01*
X447167Y531299D01*
X447073Y531322D01*
X446506Y531377D01*
X446470Y531375D01*
X446446Y531378D01*
X431579Y531561D01*
X431451Y531554D01*
X431324Y531556D01*
X431168Y531537D01*
X431010Y531528D01*
X430885Y531503D01*
X430758Y531488D01*
X430606Y531447D01*
X430451Y531416D01*
X430331Y531374D01*
X430208Y531341D01*
X430063Y531279D01*
X429914Y531227D01*
X429801Y531168D01*
X429683Y531118D01*
X429548Y531037D01*
X429408Y530964D01*
X429304Y530890D01*
X429195Y530824D01*
X429072Y530725D01*
X428944Y530634D01*
X428852Y530546D01*
X428753Y530465D01*
X428645Y530349D01*
X428531Y530241D01*
X428452Y530141D01*
X428365Y530048D01*
X428275Y529918D01*
X428177Y529795D01*
X428112Y529685D01*
X428039Y529580D01*
X427992Y529480D01*
X427889Y529303D01*
X427750Y528967D01*
X427703Y528867D01*
X395755Y439566D01*
X395704Y439385D01*
X395645Y439206D01*
X395627Y439111D01*
X395601Y439017D01*
X395576Y438831D01*
X395542Y438646D01*
X395538Y438549D01*
X395525Y438452D01*
X395527Y438265D01*
X395519Y438077D01*
X395529Y437980D01*
X395529Y437883D01*
X395557Y437697D01*
X395576Y437510D01*
X395599Y437415D01*
X395613Y437319D01*
X395667Y437139D01*
X395711Y436956D01*
X395747Y436866D01*
X395775Y436773D01*
X395853Y436602D01*
X395923Y436427D01*
X395971Y436343D01*
X396012Y436254D01*
X396113Y436096D01*
X396207Y435933D01*
X396254Y435875D01*
X396300Y435804D01*
X396300Y428836D01*
X396304Y428775D01*
X396302Y428715D01*
X396324Y428491D01*
X396340Y428267D01*
X396352Y428208D01*
X396358Y428148D01*
X396412Y427930D01*
X396459Y427710D01*
X396479Y427653D01*
X396494Y427595D01*
X396577Y427386D01*
X396655Y427175D01*
X396683Y427122D01*
X396705Y427066D01*
X396817Y426871D01*
X396923Y426673D01*
X396959Y426624D01*
X396989Y426571D01*
X397064Y426480D01*
X397260Y426213D01*
X397417Y426052D01*
X397490Y425962D01*
X416112Y407341D01*
X417469Y405983D01*
X417895Y404956D01*
X417895Y400388D01*
X417911Y400159D01*
X417921Y399928D01*
X417931Y399874D01*
X417935Y399820D01*
X417983Y399594D01*
X418025Y399368D01*
X418042Y399316D01*
X418054Y399262D01*
X418133Y399046D01*
X418206Y398828D01*
X418231Y398779D01*
X418250Y398727D01*
X418358Y398524D01*
X418461Y398319D01*
X418492Y398273D01*
X418518Y398225D01*
X418654Y398039D01*
X418785Y397850D01*
X418822Y397809D01*
X418855Y397765D01*
X419015Y397600D01*
X419171Y397431D01*
X419214Y397396D01*
X419252Y397357D01*
X419434Y397216D01*
X419612Y397070D01*
X419660Y397042D01*
X419703Y397008D01*
X419903Y396894D01*
X420100Y396775D01*
X420150Y396753D01*
X420198Y396726D01*
X420412Y396641D01*
X420623Y396550D01*
X420676Y396536D01*
X420727Y396516D01*
X420952Y396461D01*
X421173Y396401D01*
X421217Y396397D01*
X421281Y396381D01*
X421848Y396326D01*
X421914Y396329D01*
X421958Y396325D01*
X423232Y396325D01*
X424127Y395430D01*
X424141Y395229D01*
X424151Y394998D01*
X424161Y394944D01*
X424165Y394890D01*
X424213Y394664D01*
X424255Y394438D01*
X424272Y394386D01*
X424284Y394332D01*
X424363Y394116D01*
X424436Y393898D01*
X424461Y393849D01*
X424480Y393797D01*
X424588Y393594D01*
X424691Y393389D01*
X424722Y393343D01*
X424748Y393295D01*
X424884Y393109D01*
X425015Y392920D01*
X425052Y392879D01*
X425085Y392835D01*
X425245Y392670D01*
X425401Y392501D01*
X425444Y392466D01*
X425482Y392427D01*
X425664Y392286D01*
X425842Y392140D01*
X425890Y392112D01*
X425933Y392078D01*
X426133Y391964D01*
X426330Y391845D01*
X426380Y391823D01*
X426428Y391796D01*
X426642Y391711D01*
X426853Y391620D01*
X426906Y391606D01*
X426957Y391586D01*
X427182Y391531D01*
X427403Y391471D01*
X427447Y391467D01*
X427511Y391451D01*
X428078Y391396D01*
X428144Y391399D01*
X428188Y391395D01*
X448280Y391395D01*
X448341Y391399D01*
X448401Y391397D01*
X448624Y391419D01*
X448849Y391435D01*
X448908Y391447D01*
X448968Y391453D01*
X449186Y391507D01*
X449406Y391554D01*
X449463Y391574D01*
X449521Y391589D01*
X449730Y391672D01*
X449941Y391750D01*
X449994Y391778D01*
X450050Y391800D01*
X450245Y391912D01*
X450443Y392018D01*
X450492Y392054D01*
X450545Y392084D01*
X450636Y392159D01*
X450903Y392355D01*
X451052Y392500D01*
X462332Y392500D01*
X463346Y391485D01*
X463355Y391438D01*
X463372Y391386D01*
X463384Y391332D01*
X463463Y391116D01*
X463536Y390898D01*
X463561Y390849D01*
X463580Y390797D01*
X463688Y390594D01*
X463791Y390389D01*
X463822Y390343D01*
X463848Y390295D01*
X463984Y390109D01*
X464115Y389920D01*
X464152Y389879D01*
X464185Y389835D01*
X464345Y389670D01*
X464501Y389501D01*
X464544Y389466D01*
X464582Y389427D01*
X464764Y389286D01*
X464942Y389140D01*
X464990Y389112D01*
X465033Y389078D01*
X465233Y388964D01*
X465430Y388845D01*
X465480Y388823D01*
X465528Y388796D01*
X465742Y388711D01*
X465953Y388620D01*
X466006Y388606D01*
X466057Y388586D01*
X466282Y388531D01*
X466503Y388471D01*
X466547Y388467D01*
X466611Y388451D01*
X467178Y388396D01*
X467244Y388399D01*
X467288Y388395D01*
X491662Y388395D01*
X491891Y388411D01*
X492122Y388421D01*
X492176Y388431D01*
X492230Y388435D01*
X492456Y388483D01*
X492682Y388525D01*
X492734Y388542D01*
X492788Y388554D01*
X493004Y388633D01*
X493222Y388706D01*
X493271Y388731D01*
X493323Y388750D01*
X493526Y388858D01*
X493731Y388961D01*
X493777Y388992D01*
X493825Y389018D01*
X494011Y389154D01*
X494200Y389285D01*
X494241Y389322D01*
X494285Y389355D01*
X494450Y389515D01*
X494619Y389671D01*
X494654Y389714D01*
X494693Y389752D01*
X494834Y389934D01*
X494980Y390112D01*
X495008Y390160D01*
X495042Y390203D01*
X495156Y390403D01*
X495275Y390600D01*
X495297Y390650D01*
X495324Y390698D01*
X495409Y390912D01*
X495500Y391123D01*
X495514Y391176D01*
X495534Y391227D01*
X495589Y391451D01*
X495649Y391673D01*
X495653Y391717D01*
X495669Y391781D01*
X495724Y392348D01*
X495721Y392414D01*
X495725Y392458D01*
X495725Y396633D01*
X496618Y397526D01*
X503382Y397526D01*
X504275Y396633D01*
X504275Y383369D01*
X503382Y382476D01*
X496188Y382476D01*
X496054Y382539D01*
X495996Y382556D01*
X495941Y382580D01*
X495724Y382638D01*
X495509Y382704D01*
X495449Y382713D01*
X495391Y382729D01*
X495274Y382740D01*
X494946Y382791D01*
X494721Y382794D01*
X494606Y382805D01*
X467288Y382805D01*
X467059Y382789D01*
X466828Y382779D01*
X466774Y382769D01*
X466720Y382765D01*
X466494Y382717D01*
X466268Y382675D01*
X466216Y382658D01*
X466162Y382646D01*
X465946Y382567D01*
X465728Y382494D01*
X465679Y382469D01*
X465627Y382450D01*
X465424Y382342D01*
X465219Y382239D01*
X465173Y382208D01*
X465125Y382182D01*
X464939Y382046D01*
X464750Y381915D01*
X464709Y381878D01*
X464665Y381845D01*
X464500Y381685D01*
X464331Y381529D01*
X464296Y381486D01*
X464257Y381448D01*
X464116Y381266D01*
X463970Y381088D01*
X463942Y381040D01*
X463908Y380997D01*
X463794Y380797D01*
X463675Y380600D01*
X463653Y380550D01*
X463626Y380502D01*
X463541Y380288D01*
X463450Y380077D01*
X463436Y380024D01*
X463416Y379973D01*
X463361Y379748D01*
X463301Y379527D01*
X463297Y379483D01*
X463281Y379419D01*
X463230Y378891D01*
X463210Y378810D01*
X463162Y378649D01*
X463144Y378533D01*
X463116Y378420D01*
X463100Y378252D01*
X463074Y378086D01*
X463073Y377969D01*
X463061Y377852D01*
X463069Y377684D01*
X463066Y377516D01*
X463081Y377400D01*
X463086Y377283D01*
X463117Y377118D01*
X463138Y376951D01*
X463169Y376838D01*
X463191Y376723D01*
X463244Y376564D01*
X463289Y376401D01*
X463335Y376294D01*
X463372Y376183D01*
X463426Y376082D01*
X463515Y375878D01*
X463690Y375591D01*
X463745Y375488D01*
X463952Y375178D01*
X464143Y374716D01*
X464241Y374225D01*
X464241Y372663D01*
X456700Y372663D01*
X449159Y372663D01*
X449159Y374225D01*
X449257Y374716D01*
X449448Y375178D01*
X449655Y375488D01*
X449713Y375590D01*
X449779Y375686D01*
X449854Y375836D01*
X449938Y375983D01*
X449981Y376091D01*
X450033Y376196D01*
X450086Y376355D01*
X450148Y376512D01*
X450176Y376626D01*
X450213Y376737D01*
X450243Y376902D01*
X450283Y377066D01*
X450294Y377182D01*
X450315Y377297D01*
X450322Y377465D01*
X450339Y377633D01*
X450334Y377750D01*
X450338Y377866D01*
X450322Y378034D01*
X450314Y378202D01*
X450293Y378317D01*
X450281Y378433D01*
X450241Y378597D01*
X450211Y378763D01*
X450175Y378869D01*
X450175Y381742D01*
X450159Y381971D01*
X450149Y382202D01*
X450139Y382256D01*
X450135Y382310D01*
X450087Y382536D01*
X450045Y382762D01*
X450028Y382814D01*
X450016Y382868D01*
X449937Y383084D01*
X449864Y383302D01*
X449839Y383351D01*
X449820Y383403D01*
X449712Y383606D01*
X449609Y383811D01*
X449578Y383857D01*
X449552Y383905D01*
X449416Y384091D01*
X449285Y384280D01*
X449248Y384321D01*
X449215Y384365D01*
X449055Y384530D01*
X448899Y384699D01*
X448856Y384734D01*
X448818Y384773D01*
X448636Y384914D01*
X448458Y385060D01*
X448410Y385088D01*
X448367Y385122D01*
X448167Y385236D01*
X447970Y385355D01*
X447920Y385377D01*
X447872Y385404D01*
X447658Y385489D01*
X447447Y385580D01*
X447394Y385594D01*
X447343Y385614D01*
X447118Y385669D01*
X446897Y385729D01*
X446853Y385733D01*
X446789Y385749D01*
X446222Y385804D01*
X446156Y385801D01*
X446112Y385805D01*
X428188Y385805D01*
X427959Y385789D01*
X427728Y385779D01*
X427674Y385769D01*
X427620Y385765D01*
X427394Y385717D01*
X427168Y385675D01*
X427116Y385658D01*
X427062Y385646D01*
X426846Y385567D01*
X426628Y385494D01*
X426579Y385469D01*
X426527Y385450D01*
X426324Y385342D01*
X426119Y385239D01*
X426073Y385208D01*
X426025Y385182D01*
X425839Y385046D01*
X425650Y384915D01*
X425609Y384878D01*
X425565Y384845D01*
X425400Y384685D01*
X425231Y384529D01*
X425196Y384486D01*
X425157Y384448D01*
X425016Y384266D01*
X424870Y384088D01*
X424842Y384040D01*
X424808Y383997D01*
X424694Y383797D01*
X424575Y383600D01*
X424553Y383550D01*
X424526Y383502D01*
X424441Y383288D01*
X424350Y383077D01*
X424336Y383024D01*
X424316Y382973D01*
X424261Y382748D01*
X424201Y382527D01*
X424197Y382483D01*
X424181Y382419D01*
X424126Y381852D01*
X424129Y381786D01*
X424125Y381742D01*
X424125Y381311D01*
X424086Y381228D01*
X424053Y381117D01*
X424010Y381008D01*
X423970Y380844D01*
X423921Y380683D01*
X423903Y380568D01*
X423876Y380454D01*
X423860Y380286D01*
X423834Y380120D01*
X423832Y380003D01*
X423821Y379887D01*
X423829Y379719D01*
X423826Y379550D01*
X423841Y379434D01*
X423846Y379318D01*
X423877Y379152D01*
X423898Y378985D01*
X423929Y378872D01*
X423950Y378758D01*
X424004Y378598D01*
X424049Y378435D01*
X424095Y378328D01*
X424132Y378218D01*
X424186Y378117D01*
X424275Y377912D01*
X424449Y377626D01*
X424505Y377523D01*
X424852Y377004D01*
X425043Y376541D01*
X425141Y376050D01*
X425141Y373663D01*
X415100Y373663D01*
X405059Y373663D01*
X405059Y376050D01*
X405157Y376541D01*
X405348Y377004D01*
X405695Y377523D01*
X405753Y377624D01*
X405819Y377720D01*
X405894Y377871D01*
X405978Y378018D01*
X406021Y378126D01*
X406073Y378230D01*
X406126Y378390D01*
X406189Y378547D01*
X406216Y378660D01*
X406253Y378771D01*
X406283Y378937D01*
X406323Y379101D01*
X406334Y379217D01*
X406355Y379332D01*
X406362Y379500D01*
X406379Y379668D01*
X406374Y379784D01*
X406379Y379901D01*
X406362Y380069D01*
X406355Y380237D01*
X406333Y380352D01*
X406322Y380468D01*
X406282Y380632D01*
X406251Y380797D01*
X406214Y380908D01*
X406186Y381021D01*
X406123Y381178D01*
X406075Y381322D01*
X406075Y395432D01*
X406968Y396325D01*
X408242Y396325D01*
X408471Y396341D01*
X408702Y396351D01*
X408756Y396361D01*
X408810Y396365D01*
X409036Y396413D01*
X409262Y396455D01*
X409314Y396472D01*
X409368Y396484D01*
X409584Y396563D01*
X409802Y396636D01*
X409851Y396661D01*
X409903Y396680D01*
X410106Y396788D01*
X410311Y396891D01*
X410357Y396922D01*
X410405Y396948D01*
X410591Y397084D01*
X410780Y397215D01*
X410821Y397252D01*
X410865Y397285D01*
X411030Y397445D01*
X411199Y397601D01*
X411234Y397644D01*
X411273Y397682D01*
X411414Y397864D01*
X411560Y398042D01*
X411588Y398090D01*
X411622Y398133D01*
X411736Y398333D01*
X411855Y398530D01*
X411877Y398580D01*
X411904Y398628D01*
X411989Y398842D01*
X412080Y399053D01*
X412094Y399106D01*
X412114Y399157D01*
X412169Y399382D01*
X412229Y399603D01*
X412233Y399647D01*
X412249Y399711D01*
X412304Y400278D01*
X412301Y400344D01*
X412305Y400388D01*
X412305Y401559D01*
X412301Y401619D01*
X412303Y401680D01*
X412281Y401903D01*
X412265Y402128D01*
X412253Y402187D01*
X412247Y402247D01*
X412193Y402465D01*
X412146Y402685D01*
X412126Y402741D01*
X412111Y402800D01*
X412028Y403009D01*
X411950Y403220D01*
X411922Y403273D01*
X411900Y403329D01*
X411788Y403524D01*
X411682Y403722D01*
X411646Y403771D01*
X411616Y403824D01*
X411541Y403915D01*
X411345Y404182D01*
X411188Y404343D01*
X411115Y404432D01*
X393163Y422385D01*
X393117Y422425D01*
X393076Y422469D01*
X392902Y422611D01*
X392732Y422759D01*
X392682Y422792D01*
X392635Y422830D01*
X392443Y422947D01*
X392254Y423069D01*
X392199Y423094D01*
X392148Y423125D01*
X391941Y423214D01*
X391737Y423309D01*
X391679Y423326D01*
X391624Y423350D01*
X391407Y423408D01*
X391192Y423474D01*
X391132Y423483D01*
X391074Y423499D01*
X390957Y423510D01*
X390629Y423561D01*
X390404Y423564D01*
X390289Y423575D01*
X383334Y423575D01*
X383150Y423695D01*
X382960Y423825D01*
X382911Y423849D01*
X382865Y423879D01*
X382656Y423976D01*
X382450Y424078D01*
X382398Y424096D01*
X382348Y424119D01*
X382128Y424186D01*
X381909Y424258D01*
X381855Y424268D01*
X381803Y424284D01*
X381575Y424319D01*
X381349Y424361D01*
X381294Y424363D01*
X381240Y424371D01*
X381010Y424375D01*
X380779Y424384D01*
X380725Y424378D01*
X380670Y424379D01*
X380442Y424350D01*
X380212Y424327D01*
X380159Y424314D01*
X380105Y424307D01*
X379882Y424246D01*
X379659Y424191D01*
X379608Y424171D01*
X379555Y424157D01*
X379343Y424065D01*
X379130Y423980D01*
X379082Y423953D01*
X379032Y423931D01*
X378836Y423811D01*
X378636Y423696D01*
X378601Y423668D01*
X378546Y423634D01*
X378339Y423464D01*
X378238Y423445D01*
X378186Y423428D01*
X378132Y423416D01*
X377916Y423337D01*
X377698Y423264D01*
X377649Y423239D01*
X377597Y423220D01*
X377394Y423112D01*
X377189Y423009D01*
X377143Y422978D01*
X377095Y422952D01*
X376909Y422816D01*
X376720Y422685D01*
X376679Y422648D01*
X376635Y422615D01*
X376470Y422455D01*
X376301Y422299D01*
X376266Y422256D01*
X376227Y422218D01*
X376086Y422036D01*
X375940Y421858D01*
X375912Y421810D01*
X375878Y421767D01*
X375764Y421567D01*
X375645Y421370D01*
X375623Y421320D01*
X375596Y421272D01*
X375511Y421058D01*
X375420Y420847D01*
X375406Y420794D01*
X375386Y420743D01*
X375331Y420518D01*
X375271Y420297D01*
X375267Y420253D01*
X375251Y420189D01*
X375196Y419622D01*
X375199Y419556D01*
X375195Y419512D01*
X375195Y395220D01*
X375211Y394991D01*
X375221Y394760D01*
X375231Y394706D01*
X375235Y394652D01*
X375283Y394426D01*
X375325Y394200D01*
X375342Y394148D01*
X375354Y394094D01*
X375433Y393878D01*
X375506Y393660D01*
X375531Y393611D01*
X375550Y393559D01*
X375658Y393356D01*
X375761Y393151D01*
X375792Y393105D01*
X375818Y393057D01*
X375954Y392871D01*
X376085Y392682D01*
X376122Y392641D01*
X376155Y392597D01*
X376315Y392432D01*
X376471Y392263D01*
X376514Y392228D01*
X376552Y392189D01*
X376734Y392048D01*
X376912Y391902D01*
X376960Y391874D01*
X377003Y391840D01*
X377202Y391727D01*
X378665Y390264D01*
X378665Y380730D01*
X378606Y380603D01*
X378502Y380393D01*
X378486Y380345D01*
X378465Y380298D01*
X378397Y380074D01*
X378323Y379853D01*
X378314Y379802D01*
X378299Y379753D01*
X378263Y379521D01*
X378222Y379292D01*
X378220Y379241D01*
X378212Y379190D01*
X378209Y378960D01*
X378208Y378949D01*
X378208Y378940D01*
X378200Y378722D01*
X378205Y378671D01*
X378204Y378620D01*
X378232Y378406D01*
X378233Y378379D01*
X378237Y378356D01*
X378258Y378156D01*
X378270Y378106D01*
X378276Y378055D01*
X378329Y377862D01*
X378337Y377819D01*
X378350Y377781D01*
X378394Y377602D01*
X378413Y377555D01*
X378427Y377505D01*
X378499Y377338D01*
X378519Y377279D01*
X378540Y377240D01*
X378607Y377074D01*
X378632Y377029D01*
X378653Y376982D01*
X378775Y376783D01*
X378891Y376580D01*
X378906Y376562D01*
X378941Y376510D01*
X378949Y376496D01*
X378954Y376491D01*
X379392Y375835D01*
X379583Y375373D01*
X379681Y374882D01*
X379681Y374695D01*
X373140Y374695D01*
X366599Y374695D01*
X366599Y374882D01*
X366697Y375373D01*
X366888Y375835D01*
X367389Y376584D01*
X367433Y376662D01*
X367521Y376790D01*
X367544Y376836D01*
X367572Y376879D01*
X367638Y377021D01*
X367671Y377079D01*
X367697Y377144D01*
X367775Y377300D01*
X367791Y377349D01*
X367813Y377396D01*
X367864Y377564D01*
X367882Y377609D01*
X367894Y377658D01*
X367955Y377841D01*
X367964Y377892D01*
X367979Y377941D01*
X368009Y378133D01*
X368016Y378162D01*
X368020Y378195D01*
X368057Y378402D01*
X368059Y378453D01*
X368067Y378503D01*
X368071Y378715D01*
X368072Y378729D01*
X368071Y378746D01*
X368080Y378971D01*
X368075Y379022D01*
X368076Y379073D01*
X368048Y379298D01*
X368048Y379299D01*
X368048Y379300D01*
X368047Y379305D01*
X368024Y379538D01*
X368011Y379588D01*
X368005Y379639D01*
X367944Y379865D01*
X367888Y380091D01*
X367869Y380139D01*
X367856Y380188D01*
X367764Y380403D01*
X367676Y380620D01*
X367651Y380665D01*
X367631Y380712D01*
X367615Y380737D01*
X367615Y390264D01*
X368415Y391063D01*
X368455Y391109D01*
X368499Y391150D01*
X368641Y391324D01*
X368789Y391494D01*
X368822Y391544D01*
X368860Y391591D01*
X368977Y391783D01*
X369099Y391972D01*
X369124Y392027D01*
X369155Y392078D01*
X369244Y392285D01*
X369339Y392489D01*
X369356Y392547D01*
X369380Y392602D01*
X369438Y392819D01*
X369504Y393034D01*
X369513Y393094D01*
X369529Y393152D01*
X369540Y393269D01*
X369591Y393597D01*
X369594Y393822D01*
X369605Y393937D01*
X369605Y419512D01*
X369589Y419741D01*
X369579Y419972D01*
X369569Y420026D01*
X369565Y420080D01*
X369517Y420306D01*
X369475Y420532D01*
X369458Y420584D01*
X369446Y420638D01*
X369367Y420853D01*
X369294Y421072D01*
X369269Y421121D01*
X369250Y421173D01*
X369142Y421376D01*
X369039Y421581D01*
X369008Y421627D01*
X368982Y421675D01*
X368846Y421861D01*
X368715Y422050D01*
X368678Y422091D01*
X368645Y422135D01*
X368485Y422300D01*
X368329Y422469D01*
X368286Y422504D01*
X368248Y422543D01*
X368066Y422684D01*
X367888Y422830D01*
X367840Y422858D01*
X367797Y422892D01*
X367597Y423006D01*
X367400Y423125D01*
X367350Y423147D01*
X367302Y423174D01*
X367088Y423259D01*
X366877Y423350D01*
X366824Y423364D01*
X366773Y423384D01*
X366548Y423439D01*
X366523Y423446D01*
X365500Y424468D01*
X365500Y435732D01*
X366393Y436625D01*
X378466Y436625D01*
X378650Y436506D01*
X378840Y436375D01*
X378889Y436351D01*
X378935Y436321D01*
X379144Y436224D01*
X379350Y436122D01*
X379402Y436104D01*
X379452Y436081D01*
X379672Y436014D01*
X379891Y435942D01*
X379945Y435932D01*
X379997Y435916D01*
X380225Y435881D01*
X380451Y435839D01*
X380506Y435837D01*
X380560Y435829D01*
X380790Y435825D01*
X381021Y435816D01*
X381075Y435822D01*
X381130Y435821D01*
X381358Y435850D01*
X381587Y435873D01*
X381641Y435886D01*
X381695Y435893D01*
X381917Y435954D01*
X382141Y436008D01*
X382192Y436029D01*
X382245Y436043D01*
X382456Y436134D01*
X382670Y436220D01*
X382718Y436247D01*
X382768Y436269D01*
X382964Y436389D01*
X383164Y436504D01*
X383198Y436532D01*
X383254Y436566D01*
X383326Y436625D01*
X385904Y436625D01*
X386007Y436632D01*
X386109Y436630D01*
X386290Y436652D01*
X386473Y436665D01*
X386573Y436686D01*
X386675Y436698D01*
X386851Y436746D01*
X387030Y436784D01*
X387126Y436819D01*
X387225Y436846D01*
X387393Y436917D01*
X387565Y436980D01*
X387656Y437028D01*
X387750Y437068D01*
X387906Y437162D01*
X388067Y437248D01*
X388150Y437309D01*
X388238Y437362D01*
X388380Y437477D01*
X388527Y437585D01*
X388601Y437656D01*
X388680Y437721D01*
X388805Y437855D01*
X388936Y437982D01*
X388998Y438063D01*
X389068Y438139D01*
X389172Y438288D01*
X389284Y438433D01*
X389335Y438522D01*
X389394Y438606D01*
X389444Y438714D01*
X389567Y438928D01*
X389679Y439210D01*
X389730Y439319D01*
X423702Y534278D01*
X423778Y534549D01*
X423854Y534813D01*
X423854Y534819D01*
X423856Y534827D01*
X423857Y534830D01*
X424068Y535324D01*
X424120Y535472D01*
X424160Y535556D01*
X424306Y535965D01*
X424617Y536269D01*
X424722Y536386D01*
X424791Y536449D01*
X425083Y536771D01*
X425487Y536933D01*
X425628Y537001D01*
X425716Y537033D01*
X426109Y537218D01*
X426544Y537213D01*
X426700Y537222D01*
X426793Y537218D01*
X427379Y537246D01*
X427695Y537204D01*
X427822Y537205D01*
X427901Y537196D01*
X449046Y536936D01*
X449131Y536941D01*
X449217Y536937D01*
X449416Y536957D01*
X449615Y536969D01*
X449699Y536986D01*
X449784Y536994D01*
X449977Y537042D01*
X450174Y537081D01*
X450255Y537110D01*
X450337Y537130D01*
X450522Y537204D01*
X450711Y537270D01*
X450787Y537310D01*
X450866Y537341D01*
X451040Y537441D01*
X451217Y537533D01*
X451286Y537583D01*
X451361Y537625D01*
X451455Y537702D01*
X451681Y537864D01*
X451876Y538049D01*
X451970Y538126D01*
X452368Y538525D01*
X466412Y538525D01*
X466641Y538541D01*
X466872Y538551D01*
X466926Y538561D01*
X466980Y538565D01*
X467206Y538613D01*
X467432Y538655D01*
X467484Y538672D01*
X467538Y538684D01*
X467754Y538763D01*
X467972Y538836D01*
X468021Y538861D01*
X468073Y538880D01*
X468276Y538988D01*
X468481Y539091D01*
X468527Y539122D01*
X468575Y539148D01*
X468761Y539284D01*
X468950Y539415D01*
X468991Y539452D01*
X469035Y539485D01*
X469200Y539645D01*
X469369Y539801D01*
X469404Y539844D01*
X469443Y539882D01*
X469584Y540064D01*
X469730Y540242D01*
X469758Y540290D01*
X469792Y540333D01*
X469906Y540533D01*
X470025Y540730D01*
X470047Y540780D01*
X470074Y540828D01*
X470159Y541042D01*
X470250Y541253D01*
X470264Y541306D01*
X470284Y541357D01*
X470339Y541582D01*
X470399Y541803D01*
X470403Y541847D01*
X470419Y541911D01*
X470474Y542478D01*
X470471Y542544D01*
X470475Y542588D01*
X470475Y556632D01*
X471368Y557525D01*
X534632Y557525D01*
X535525Y556632D01*
X535525Y542588D01*
X535541Y542359D01*
X535551Y542128D01*
X535561Y542074D01*
X535565Y542020D01*
X535613Y541794D01*
X535655Y541568D01*
X535672Y541516D01*
X535684Y541462D01*
X535763Y541246D01*
X535836Y541028D01*
X535861Y540979D01*
X535880Y540927D01*
X535988Y540724D01*
X536091Y540519D01*
X536122Y540473D01*
X536148Y540425D01*
X536284Y540239D01*
X536415Y540050D01*
X536452Y540009D01*
X536485Y539965D01*
X536645Y539800D01*
X536801Y539631D01*
X536844Y539596D01*
X536882Y539557D01*
X537064Y539416D01*
X537242Y539270D01*
X537290Y539242D01*
X537333Y539208D01*
X537533Y539094D01*
X537730Y538975D01*
X537780Y538953D01*
X537828Y538926D01*
X538042Y538841D01*
X538253Y538750D01*
X538306Y538736D01*
X538357Y538716D01*
X538582Y538661D01*
X538803Y538601D01*
X538847Y538597D01*
X538911Y538581D01*
X539478Y538526D01*
X539544Y538529D01*
X539588Y538525D01*
X553632Y538525D01*
X554171Y537985D01*
X554217Y537945D01*
X554258Y537901D01*
X554432Y537759D01*
X554602Y537611D01*
X554652Y537578D01*
X554699Y537540D01*
X554891Y537423D01*
X555080Y537301D01*
X555135Y537276D01*
X555186Y537245D01*
X555393Y537156D01*
X555597Y537061D01*
X555655Y537044D01*
X555710Y537020D01*
X555927Y536962D01*
X556142Y536896D01*
X556202Y536887D01*
X556260Y536871D01*
X556377Y536860D01*
X556705Y536809D01*
X556930Y536806D01*
X557045Y536795D01*
X771256Y536795D01*
X772283Y536369D01*
X781698Y526955D01*
X781743Y526915D01*
X781784Y526871D01*
X781958Y526729D01*
X782128Y526581D01*
X782178Y526548D01*
X782225Y526510D01*
X782417Y526393D01*
X782606Y526271D01*
X782661Y526246D01*
X782712Y526215D01*
X782919Y526126D01*
X783123Y526031D01*
X783181Y526014D01*
X783236Y525990D01*
X783453Y525932D01*
X783668Y525866D01*
X783728Y525857D01*
X783786Y525841D01*
X783903Y525830D01*
X784231Y525779D01*
X784456Y525776D01*
X784571Y525765D01*
X791755Y525765D01*
X792790Y524730D01*
X792998Y524549D01*
X793216Y524359D01*
X793218Y524358D01*
X793220Y524356D01*
X793458Y524202D01*
X793694Y524049D01*
X793696Y524048D01*
X793698Y524046D01*
X793965Y523922D01*
X794210Y523808D01*
X794213Y523807D01*
X794215Y523806D01*
X794489Y523723D01*
X794755Y523642D01*
X794758Y523642D01*
X794760Y523641D01*
X795034Y523599D01*
X795318Y523554D01*
X795321Y523554D01*
X795323Y523554D01*
X795600Y523550D01*
X795888Y523546D01*
X795891Y523546D01*
X795893Y523546D01*
X796170Y523581D01*
X796453Y523617D01*
X796456Y523618D01*
X796458Y523618D01*
X796731Y523693D01*
X797003Y523767D01*
X797005Y523768D01*
X797008Y523769D01*
X797262Y523878D01*
X797527Y523992D01*
X797529Y523993D01*
X797531Y523994D01*
X797758Y524133D01*
X798013Y524288D01*
X798015Y524290D01*
X798017Y524291D01*
X798226Y524462D01*
X798454Y524650D01*
X798456Y524652D01*
X798458Y524653D01*
X798647Y524860D01*
X798840Y525069D01*
X798841Y525071D01*
X798843Y525073D01*
X799002Y525304D01*
X799163Y525538D01*
X799164Y525541D01*
X799165Y525543D01*
X799292Y525798D01*
X799417Y526048D01*
X799418Y526050D01*
X799419Y526053D01*
X799513Y526336D01*
X799598Y526589D01*
X799598Y526591D01*
X799599Y526593D01*
X799701Y527154D01*
X799707Y527286D01*
X799719Y527368D01*
X799845Y529538D01*
X800068Y532192D01*
X800068Y532223D01*
X800072Y532245D01*
X800260Y534901D01*
X800518Y537559D01*
X800518Y537590D01*
X800522Y537611D01*
X800746Y540276D01*
X801036Y542921D01*
X801037Y542951D01*
X801042Y542973D01*
X801298Y545621D01*
X801624Y548274D01*
X801626Y548305D01*
X801630Y548326D01*
X801922Y550978D01*
X802281Y553618D01*
X802283Y553649D01*
X802287Y553670D01*
X802613Y556317D01*
X803006Y558954D01*
X803008Y558985D01*
X803013Y559006D01*
X803373Y561648D01*
X803800Y564280D01*
X803803Y564310D01*
X803808Y564332D01*
X804201Y566968D01*
X804662Y569595D01*
X804666Y569626D01*
X804671Y569647D01*
X805098Y572277D01*
X805593Y574899D01*
X805597Y574929D01*
X805603Y574950D01*
X806065Y577581D01*
X806592Y580190D01*
X806596Y580221D01*
X806602Y580241D01*
X807097Y582859D01*
X807659Y585467D01*
X807664Y585497D01*
X807670Y585518D01*
X808199Y588132D01*
X808794Y590730D01*
X808799Y590761D01*
X808806Y590781D01*
X809368Y593387D01*
X809997Y595980D01*
X810002Y596010D01*
X810009Y596031D01*
X810605Y598627D01*
X811267Y601212D01*
X811273Y601242D01*
X811280Y601262D01*
X811910Y603857D01*
X812605Y606430D01*
X812611Y606460D01*
X812619Y606480D01*
X813280Y609059D01*
X814009Y611626D01*
X814016Y611656D01*
X814023Y611676D01*
X814720Y614255D01*
X815482Y616809D01*
X815488Y616839D01*
X815496Y616859D01*
X816224Y619419D01*
X817019Y621966D01*
X817026Y621996D01*
X817034Y622016D01*
X817796Y624573D01*
X818623Y627106D01*
X818630Y627136D01*
X818639Y627156D01*
X819433Y629701D01*
X820294Y632229D01*
X820302Y632259D01*
X820311Y632279D01*
X821140Y634818D01*
X822030Y637325D01*
X822038Y637355D01*
X822047Y637374D01*
X822905Y639894D01*
X823832Y642401D01*
X823840Y642430D01*
X823849Y642450D01*
X824743Y644967D01*
X825699Y647452D01*
X825708Y647482D01*
X825717Y647501D01*
X826639Y649997D01*
X827629Y652477D01*
X827639Y652506D01*
X827648Y652525D01*
X828607Y655019D01*
X829625Y657476D01*
X829635Y657506D01*
X829644Y657525D01*
X830631Y659997D01*
X831686Y662454D01*
X831696Y662483D01*
X831706Y662502D01*
X832727Y664967D01*
X833810Y667401D01*
X833820Y667430D01*
X833831Y667449D01*
X834883Y669901D01*
X835999Y672325D01*
X836010Y672354D01*
X836020Y672373D01*
X837104Y674810D01*
X838249Y677217D01*
X838261Y677246D01*
X838272Y677264D01*
X839386Y679685D01*
X840563Y682079D01*
X840574Y682107D01*
X840585Y682126D01*
X841733Y684538D01*
X842940Y686913D01*
X842952Y686942D01*
X842963Y686960D01*
X844139Y689351D01*
X845378Y691716D01*
X845391Y691744D01*
X845402Y691762D01*
X846610Y694141D01*
X847879Y696487D01*
X847891Y696515D01*
X847903Y696533D01*
X849142Y698896D01*
X850439Y701223D01*
X850452Y701251D01*
X850464Y701269D01*
X851731Y703613D01*
X853060Y705927D01*
X853074Y705954D01*
X853086Y705972D01*
X854384Y708300D01*
X855742Y710596D01*
X855756Y710624D01*
X855769Y710641D01*
X857100Y712958D01*
X858485Y715232D01*
X858499Y715259D01*
X858512Y715277D01*
X859867Y717568D01*
X861286Y719831D01*
X861301Y719858D01*
X861314Y719875D01*
X862703Y722156D01*
X864147Y724395D01*
X864162Y724422D01*
X864175Y724439D01*
X865592Y726699D01*
X867067Y728922D01*
X867082Y728949D01*
X867096Y728966D01*
X868540Y731204D01*
X870044Y733409D01*
X870059Y733436D01*
X870073Y733453D01*
X871550Y735678D01*
X873079Y737859D01*
X873095Y737886D01*
X873109Y737902D01*
X874610Y740103D01*
X876172Y742270D01*
X876188Y742296D01*
X876202Y742312D01*
X877732Y744494D01*
X879319Y746637D01*
X879335Y746663D01*
X879349Y746679D01*
X880910Y748845D01*
X882524Y750967D01*
X882541Y750992D01*
X882555Y751009D01*
X884143Y753154D01*
X885783Y755253D01*
X885801Y755279D01*
X885815Y755295D01*
X887430Y757418D01*
X889100Y759500D01*
X889118Y759526D01*
X889133Y759541D01*
X890777Y761647D01*
X892469Y763702D01*
X892487Y763727D01*
X892502Y763743D01*
X894170Y765821D01*
X895894Y767861D01*
X895912Y767886D01*
X895927Y767901D01*
X897623Y769960D01*
X899370Y771974D01*
X899388Y771998D01*
X899404Y772013D01*
X901125Y774049D01*
X902900Y776043D01*
X902919Y776068D01*
X902934Y776082D01*
X904683Y778098D01*
X906481Y780065D01*
X906500Y780089D01*
X906516Y780104D01*
X908290Y782097D01*
X910114Y784042D01*
X910133Y784065D01*
X910149Y784080D01*
X911947Y786048D01*
X913797Y787971D01*
X913817Y787994D01*
X913833Y788008D01*
X915659Y789955D01*
X917532Y791853D01*
X917553Y791877D01*
X917569Y791891D01*
X919291Y793680D01*
X919365Y793751D01*
X919458Y793827D01*
X921299Y795668D01*
X921309Y795680D01*
X921317Y795687D01*
X923109Y797502D01*
X923207Y797594D01*
X923301Y797670D01*
X1052693Y927062D01*
X1052844Y927236D01*
X1052999Y927406D01*
X1053031Y927451D01*
X1053067Y927493D01*
X1053192Y927686D01*
X1053322Y927875D01*
X1053347Y927925D01*
X1053376Y927971D01*
X1053473Y928180D01*
X1053576Y928386D01*
X1053593Y928438D01*
X1053616Y928488D01*
X1053683Y928708D01*
X1053756Y928926D01*
X1053766Y928980D01*
X1053781Y929033D01*
X1053817Y929260D01*
X1053858Y929487D01*
X1053860Y929542D01*
X1053869Y929596D01*
X1053872Y929826D01*
X1053881Y930056D01*
X1053876Y930111D01*
X1053876Y930166D01*
X1053847Y930394D01*
X1053824Y930623D01*
X1053811Y930676D01*
X1053804Y930731D01*
X1053744Y930953D01*
X1053689Y931177D01*
X1053668Y931227D01*
X1053654Y931281D01*
X1053563Y931492D01*
X1053477Y931706D01*
X1053450Y931753D01*
X1053428Y931804D01*
X1053308Y932000D01*
X1053194Y932200D01*
X1053166Y932234D01*
X1053131Y932290D01*
X1052769Y932730D01*
X1052721Y932774D01*
X1052693Y932809D01*
X994752Y990750D01*
X932809Y1052693D01*
X932635Y1052844D01*
X932465Y1053000D01*
X932420Y1053031D01*
X932378Y1053067D01*
X932185Y1053192D01*
X931996Y1053322D01*
X931946Y1053347D01*
X931900Y1053377D01*
X931691Y1053474D01*
X931485Y1053576D01*
X931433Y1053593D01*
X931383Y1053616D01*
X931163Y1053683D01*
X930945Y1053756D01*
X930891Y1053766D01*
X930838Y1053782D01*
X930611Y1053817D01*
X930384Y1053858D01*
X930329Y1053861D01*
X930275Y1053869D01*
X930045Y1053872D01*
X929815Y1053881D01*
X929760Y1053876D01*
X929705Y1053877D01*
X929477Y1053848D01*
X929248Y1053825D01*
X929195Y1053812D01*
X929140Y1053805D01*
X928918Y1053744D01*
X928695Y1053689D01*
X928644Y1053669D01*
X928591Y1053654D01*
X928379Y1053563D01*
X928166Y1053477D01*
X928118Y1053450D01*
X928067Y1053428D01*
X927871Y1053308D01*
X927671Y1053194D01*
X927637Y1053166D01*
X927581Y1053132D01*
X927141Y1052770D01*
X927097Y1052721D01*
X927062Y1052693D01*
X797670Y923301D01*
X797600Y923221D01*
X797524Y923147D01*
X797470Y923078D01*
X795689Y921320D01*
X795679Y921309D01*
X795671Y921302D01*
X793828Y919459D01*
X793776Y919399D01*
X793718Y919345D01*
X793659Y919270D01*
X791890Y917569D01*
X791869Y917546D01*
X791852Y917532D01*
X789956Y915660D01*
X788008Y913833D01*
X787987Y913811D01*
X787970Y913797D01*
X786049Y911949D01*
X784079Y910149D01*
X784058Y910126D01*
X784041Y910113D01*
X782094Y908288D01*
X780103Y906515D01*
X780082Y906493D01*
X780065Y906480D01*
X778097Y904682D01*
X776083Y902935D01*
X776061Y902913D01*
X776044Y902901D01*
X774053Y901128D01*
X772016Y899406D01*
X771994Y899385D01*
X771976Y899372D01*
X769963Y897626D01*
X767904Y895930D01*
X767882Y895909D01*
X767864Y895897D01*
X765824Y894172D01*
X763747Y892506D01*
X763724Y892485D01*
X763706Y892473D01*
X761651Y890781D01*
X759546Y889136D01*
X759523Y889116D01*
X759505Y889104D01*
X757423Y887435D01*
X755302Y885821D01*
X755279Y885801D01*
X755261Y885789D01*
X753157Y884146D01*
X751014Y882560D01*
X750991Y882540D01*
X750972Y882528D01*
X748853Y880916D01*
X746689Y879357D01*
X746665Y879337D01*
X746647Y879326D01*
X744505Y877740D01*
X742321Y876209D01*
X742297Y876189D01*
X742278Y876178D01*
X740114Y874618D01*
X737911Y873116D01*
X737887Y873097D01*
X737868Y873086D01*
X735685Y871554D01*
X733463Y870081D01*
X733439Y870062D01*
X733420Y870051D01*
X731218Y868549D01*
X728977Y867104D01*
X728952Y867085D01*
X728933Y867075D01*
X726713Y865602D01*
X724454Y864185D01*
X724429Y864167D01*
X724410Y864157D01*
X722167Y862710D01*
X719890Y861323D01*
X719864Y861305D01*
X719845Y861295D01*
X717589Y859880D01*
X715294Y858522D01*
X715269Y858505D01*
X715249Y858495D01*
X712969Y857106D01*
X710659Y855779D01*
X710633Y855762D01*
X710613Y855753D01*
X708321Y854396D01*
X705990Y853096D01*
X705964Y853079D01*
X705944Y853071D01*
X703630Y851741D01*
X701285Y850473D01*
X701259Y850457D01*
X701239Y850448D01*
X698913Y849151D01*
X696550Y847913D01*
X696524Y847897D01*
X696504Y847888D01*
X694156Y846618D01*
X691781Y845412D01*
X691755Y845396D01*
X691734Y845388D01*
X689375Y844151D01*
X686979Y842973D01*
X686952Y842957D01*
X686932Y842949D01*
X684551Y841740D01*
X682147Y840596D01*
X682120Y840581D01*
X682100Y840573D01*
X679709Y839397D01*
X677283Y838281D01*
X677256Y838266D01*
X677235Y838258D01*
X674830Y837114D01*
X672393Y836030D01*
X672366Y836016D01*
X672346Y836008D01*
X669925Y834894D01*
X667473Y833841D01*
X667446Y833827D01*
X667425Y833821D01*
X664983Y832734D01*
X662526Y831716D01*
X662498Y831703D01*
X662477Y831696D01*
X660034Y830647D01*
X657551Y829655D01*
X657523Y829642D01*
X657503Y829636D01*
X655036Y828614D01*
X652550Y827658D01*
X652522Y827645D01*
X652501Y827639D01*
X650023Y826650D01*
X647519Y825724D01*
X647491Y825711D01*
X647470Y825706D01*
X644984Y824750D01*
X642470Y823857D01*
X642442Y823845D01*
X642421Y823839D01*
X639919Y822915D01*
X637396Y822055D01*
X637367Y822043D01*
X637346Y822037D01*
X634831Y821144D01*
X632297Y820317D01*
X632269Y820306D01*
X632248Y820301D01*
X629724Y819441D01*
X627176Y818645D01*
X627148Y818634D01*
X627127Y818630D01*
X624592Y817802D01*
X622034Y817040D01*
X622005Y817029D01*
X621984Y817024D01*
X619437Y816229D01*
X616876Y815501D01*
X616847Y815491D01*
X616826Y815487D01*
X614269Y814724D01*
X611694Y814029D01*
X611665Y814018D01*
X611644Y814015D01*
X609081Y813286D01*
X606498Y812624D01*
X606469Y812614D01*
X606447Y812610D01*
X603876Y811915D01*
X601281Y811285D01*
X601252Y811276D01*
X601230Y811272D01*
X598641Y810608D01*
X596048Y810014D01*
X596019Y810005D01*
X595997Y810002D01*
X593408Y809373D01*
X590798Y808810D01*
X590768Y808801D01*
X590747Y808798D01*
X588148Y808203D01*
X585531Y807673D01*
X585501Y807665D01*
X585480Y807662D01*
X582870Y807099D01*
X580254Y806605D01*
X580224Y806597D01*
X580202Y806595D01*
X577591Y806067D01*
X574961Y805605D01*
X574931Y805597D01*
X574910Y805596D01*
X572289Y805100D01*
X569658Y804673D01*
X569628Y804666D01*
X569606Y804664D01*
X566977Y804203D01*
X564342Y803810D01*
X564312Y803803D01*
X564290Y803802D01*
X561661Y803375D01*
X559013Y803015D01*
X558982Y803008D01*
X558961Y803007D01*
X556323Y802614D01*
X553678Y802289D01*
X553648Y802283D01*
X553626Y802282D01*
X550981Y801922D01*
X548331Y801631D01*
X548300Y801625D01*
X548279Y801625D01*
X545634Y801300D01*
X542975Y801042D01*
X542945Y801037D01*
X542923Y801037D01*
X540270Y800745D01*
X537614Y800523D01*
X537584Y800518D01*
X537562Y800518D01*
X534908Y800261D01*
X532247Y800072D01*
X532217Y800068D01*
X532195Y800068D01*
X529539Y799846D01*
X526876Y799691D01*
X526845Y799687D01*
X526823Y799688D01*
X524163Y799499D01*
X521499Y799379D01*
X521469Y799376D01*
X521447Y799376D01*
X518787Y799222D01*
X516118Y799136D01*
X516087Y799133D01*
X516066Y799134D01*
X513397Y799014D01*
X510734Y798963D01*
X510703Y798960D01*
X510681Y798961D01*
X508020Y798876D01*
X505349Y798859D01*
X505319Y798856D01*
X505297Y798858D01*
X502628Y798806D01*
X499963Y798824D01*
X499933Y798822D01*
X499911Y798824D01*
X497249Y798806D01*
X494582Y798858D01*
X494551Y798856D01*
X494530Y798859D01*
X491863Y798876D01*
X489196Y798961D01*
X489165Y798960D01*
X489144Y798963D01*
X486474Y799014D01*
X483812Y799134D01*
X483781Y799134D01*
X483759Y799136D01*
X481096Y799222D01*
X478432Y799376D01*
X478401Y799376D01*
X478379Y799379D01*
X475711Y799499D01*
X473055Y799688D01*
X473024Y799688D01*
X473003Y799691D01*
X470345Y799845D01*
X467684Y800068D01*
X467654Y800069D01*
X467632Y800072D01*
X464969Y800261D01*
X462319Y800518D01*
X462289Y800518D01*
X462267Y800522D01*
X459613Y800745D01*
X456959Y801036D01*
X456928Y801038D01*
X456907Y801042D01*
X454251Y801299D01*
X451606Y801624D01*
X451575Y801626D01*
X451554Y801630D01*
X448902Y801921D01*
X446261Y802281D01*
X446230Y802283D01*
X446209Y802287D01*
X443561Y802613D01*
X440924Y803006D01*
X440894Y803008D01*
X440873Y803013D01*
X438232Y803373D01*
X435598Y803800D01*
X435567Y803803D01*
X435546Y803808D01*
X432907Y804202D01*
X430285Y804662D01*
X430254Y804666D01*
X430233Y804671D01*
X427599Y805099D01*
X424978Y805594D01*
X424947Y805597D01*
X424926Y805603D01*
X422304Y806064D01*
X419688Y806593D01*
X419657Y806597D01*
X419637Y806603D01*
X417015Y807098D01*
X414412Y807659D01*
X414382Y807664D01*
X414361Y807670D01*
X411747Y808199D01*
X409147Y808795D01*
X409116Y808800D01*
X409096Y808806D01*
X406491Y809368D01*
X403901Y809997D01*
X403870Y810002D01*
X403850Y810009D01*
X401245Y810606D01*
X398668Y811267D01*
X398638Y811273D01*
X398617Y811280D01*
X396030Y811908D01*
X393448Y812606D01*
X393418Y812612D01*
X393398Y812619D01*
X390815Y813282D01*
X388250Y814010D01*
X388220Y814017D01*
X388200Y814024D01*
X385626Y814720D01*
X383071Y815481D01*
X383041Y815488D01*
X383021Y815496D01*
X380452Y816226D01*
X377913Y817019D01*
X377883Y817026D01*
X377863Y817034D01*
X375312Y817794D01*
X372771Y818623D01*
X372742Y818631D01*
X372722Y818639D01*
X370174Y819434D01*
X367651Y820294D01*
X367622Y820302D01*
X367602Y820310D01*
X365067Y821137D01*
X362552Y822031D01*
X362522Y822039D01*
X362502Y822048D01*
X359977Y822908D01*
X357478Y823832D01*
X357448Y823841D01*
X357428Y823850D01*
X354920Y824740D01*
X352427Y825699D01*
X352397Y825707D01*
X352378Y825717D01*
X349874Y826643D01*
X347402Y827629D01*
X347373Y827639D01*
X347354Y827648D01*
X344868Y828604D01*
X342400Y829626D01*
X342371Y829635D01*
X342352Y829645D01*
X339867Y830637D01*
X337425Y831686D01*
X337396Y831696D01*
X337376Y831706D01*
X334918Y832724D01*
X332477Y833810D01*
X332448Y833820D01*
X332429Y833831D01*
X329977Y834884D01*
X327553Y835999D01*
X327524Y836010D01*
X327505Y836021D01*
X325063Y837107D01*
X322660Y838250D01*
X322631Y838261D01*
X322613Y838272D01*
X320197Y839384D01*
X317801Y840562D01*
X317772Y840574D01*
X317754Y840585D01*
X315340Y841734D01*
X312964Y842940D01*
X312936Y842952D01*
X312917Y842964D01*
X310526Y844139D01*
X308162Y845379D01*
X308133Y845391D01*
X308115Y845403D01*
X305738Y846610D01*
X303391Y847879D01*
X303363Y847892D01*
X303345Y847903D01*
X300984Y849141D01*
X298655Y850439D01*
X298627Y850452D01*
X298609Y850464D01*
X296266Y851731D01*
X293951Y853061D01*
X293923Y853075D01*
X293905Y853087D01*
X291577Y854385D01*
X289282Y855743D01*
X289254Y855756D01*
X289237Y855769D01*
X286922Y857099D01*
X284648Y858484D01*
X284620Y858498D01*
X284603Y858511D01*
X282308Y859869D01*
X280047Y861286D01*
X280020Y861301D01*
X280002Y861314D01*
X277724Y862702D01*
X275484Y864147D01*
X275457Y864162D01*
X275440Y864175D01*
X273179Y865592D01*
X270956Y867067D01*
X270929Y867083D01*
X270912Y867096D01*
X268672Y868542D01*
X266469Y870044D01*
X266442Y870060D01*
X266425Y870073D01*
X264205Y871547D01*
X262019Y873079D01*
X261993Y873095D01*
X261976Y873109D01*
X259770Y874614D01*
X257609Y876172D01*
X257582Y876188D01*
X257566Y876202D01*
X255384Y877732D01*
X253241Y879319D01*
X253215Y879336D01*
X253198Y879350D01*
X251036Y880908D01*
X248911Y882524D01*
X248886Y882541D01*
X248870Y882556D01*
X246723Y884145D01*
X244625Y885784D01*
X244599Y885801D01*
X244583Y885816D01*
X242461Y887430D01*
X240378Y889100D01*
X240353Y889118D01*
X240337Y889133D01*
X238235Y890775D01*
X236175Y892471D01*
X236150Y892488D01*
X236135Y892504D01*
X234052Y894174D01*
X232017Y895894D01*
X231992Y895912D01*
X231977Y895928D01*
X229922Y897620D01*
X227905Y899370D01*
X227880Y899388D01*
X227865Y899404D01*
X225827Y901126D01*
X223836Y902899D01*
X223811Y902918D01*
X223796Y902934D01*
X221781Y904682D01*
X219815Y906479D01*
X219791Y906499D01*
X219776Y906515D01*
X217782Y908290D01*
X215837Y910114D01*
X215813Y910133D01*
X215798Y910150D01*
X213832Y911946D01*
X211907Y913798D01*
X211883Y913818D01*
X211869Y913834D01*
X209923Y915659D01*
X208026Y917532D01*
X208003Y917552D01*
X207989Y917568D01*
X206198Y919291D01*
X206127Y919365D01*
X206051Y919458D01*
X204207Y921302D01*
X204196Y921312D01*
X204189Y921320D01*
X202376Y923110D01*
X202285Y923208D01*
X202208Y923301D01*
X72816Y1052693D01*
X72642Y1052844D01*
X72472Y1053000D01*
X72427Y1053031D01*
X72386Y1053067D01*
X72192Y1053192D01*
X72003Y1053322D01*
X71953Y1053347D01*
X71907Y1053377D01*
X71699Y1053474D01*
X71493Y1053576D01*
X71440Y1053593D01*
X71391Y1053616D01*
X71170Y1053683D01*
X70952Y1053756D01*
X70898Y1053766D01*
X70845Y1053782D01*
X70618Y1053817D01*
X70391Y1053858D01*
X70336Y1053861D01*
X70282Y1053869D01*
X70053Y1053872D01*
X69822Y1053881D01*
X69767Y1053876D01*
X69712Y1053877D01*
X69484Y1053848D01*
X69255Y1053825D01*
X69202Y1053812D01*
X69147Y1053805D01*
X68925Y1053744D01*
X68702Y1053689D01*
X68651Y1053669D01*
X68598Y1053654D01*
X68386Y1053563D01*
X68173Y1053477D01*
X68125Y1053450D01*
X68075Y1053428D01*
X67878Y1053308D01*
X67678Y1053194D01*
X67644Y1053166D01*
X67588Y1053132D01*
X67148Y1052770D01*
X67104Y1052721D01*
X67069Y1052693D01*
X9129Y994752D01*
X9128Y994752D01*
X6499Y992123D01*
X6499Y992122D01*
X5126Y990750D01*
X-52815Y932809D01*
X-52966Y932635D01*
X-53121Y932465D01*
X-53153Y932420D01*
X-53189Y932379D01*
X-53314Y932185D01*
X-53444Y931996D01*
X-53469Y931946D01*
X-53498Y931900D01*
X-53595Y931692D01*
X-53698Y931485D01*
X-53715Y931433D01*
X-53738Y931384D01*
X-53805Y931163D01*
X-53878Y930945D01*
X-53888Y930891D01*
X-53903Y930838D01*
X-53939Y930611D01*
X-53980Y930384D01*
X-53982Y930329D01*
X-53991Y930275D01*
X-53994Y930046D01*
X-54003Y929815D01*
X-53998Y929760D01*
X-53998Y929705D01*
X-53969Y929477D01*
X-53946Y929248D01*
X-53933Y929195D01*
X-53926Y929140D01*
X-53866Y928918D01*
X-53811Y928695D01*
X-53790Y928644D01*
X-53776Y928591D01*
X-53685Y928379D01*
X-53599Y928166D01*
X-53572Y928118D01*
X-53550Y928068D01*
X-53430Y927871D01*
X-53316Y927671D01*
X-53288Y927637D01*
X-53253Y927581D01*
X-52891Y927141D01*
X-52843Y927097D01*
X-52815Y927062D01*
X76577Y797670D01*
X76657Y797601D01*
X76730Y797525D01*
X76800Y797471D01*
X78561Y795687D01*
X78573Y795677D01*
X78580Y795668D01*
X80420Y793828D01*
X80480Y793776D01*
X80534Y793718D01*
X80608Y793659D01*
X82309Y791891D01*
X82332Y791870D01*
X82346Y791853D01*
X84219Y789955D01*
X86044Y788009D01*
X86067Y787988D01*
X86080Y787971D01*
X87931Y786048D01*
X89729Y784080D01*
X89751Y784059D01*
X89764Y784041D01*
X91588Y782097D01*
X93363Y780104D01*
X93385Y780082D01*
X93398Y780065D01*
X95195Y778098D01*
X96944Y776082D01*
X96965Y776061D01*
X96978Y776043D01*
X98754Y774049D01*
X100473Y772015D01*
X100494Y771993D01*
X100507Y771976D01*
X102251Y769965D01*
X103948Y767904D01*
X103970Y767882D01*
X103982Y767864D01*
X105706Y765824D01*
X107372Y763747D01*
X107393Y763724D01*
X107405Y763706D01*
X109098Y761650D01*
X110741Y759546D01*
X110762Y759524D01*
X110774Y759505D01*
X112444Y757424D01*
X114057Y755302D01*
X114078Y755278D01*
X114089Y755260D01*
X115730Y753159D01*
X117319Y751014D01*
X117339Y750991D01*
X117350Y750973D01*
X118963Y748852D01*
X120522Y746689D01*
X120541Y746665D01*
X120553Y746647D01*
X122140Y744503D01*
X123669Y742322D01*
X123689Y742298D01*
X123700Y742279D01*
X125261Y740113D01*
X126763Y737911D01*
X126782Y737887D01*
X126793Y737868D01*
X128323Y735685D01*
X129798Y733463D01*
X129817Y733438D01*
X129827Y733419D01*
X131328Y731220D01*
X132774Y728978D01*
X132793Y728953D01*
X132803Y728934D01*
X134279Y726710D01*
X135695Y724452D01*
X135713Y724427D01*
X135723Y724408D01*
X137169Y722167D01*
X138554Y719892D01*
X138572Y719867D01*
X138582Y719848D01*
X139996Y717592D01*
X141356Y715294D01*
X141373Y715269D01*
X141383Y715249D01*
X142771Y712970D01*
X144100Y710658D01*
X144117Y710633D01*
X144126Y710613D01*
X145486Y708315D01*
X146782Y705990D01*
X146799Y705964D01*
X146808Y705944D01*
X148134Y703635D01*
X149405Y701286D01*
X149421Y701260D01*
X149430Y701240D01*
X150729Y698910D01*
X151965Y696551D01*
X151981Y696525D01*
X151990Y696505D01*
X153257Y694161D01*
X154466Y691781D01*
X154482Y691754D01*
X154490Y691734D01*
X155730Y689370D01*
X156906Y686978D01*
X156922Y686951D01*
X156929Y686931D01*
X158135Y684557D01*
X159282Y682147D01*
X159297Y682120D01*
X159305Y682100D01*
X160483Y679704D01*
X161597Y677285D01*
X161612Y677258D01*
X161619Y677237D01*
X162765Y674830D01*
X163849Y672392D01*
X163863Y672365D01*
X163870Y672345D01*
X164986Y669921D01*
X166037Y667473D01*
X166051Y667445D01*
X166058Y667425D01*
X167140Y664992D01*
X168162Y662526D01*
X168175Y662499D01*
X168182Y662478D01*
X169235Y660025D01*
X170224Y657550D01*
X170237Y657522D01*
X170243Y657501D01*
X171071Y655504D01*
X171263Y655039D01*
X172221Y652549D01*
X172234Y652521D01*
X172240Y652500D01*
X173229Y650022D01*
X174154Y647520D01*
X174167Y647492D01*
X174172Y647471D01*
X175129Y644982D01*
X176021Y642471D01*
X176033Y642442D01*
X176039Y642421D01*
X176963Y639922D01*
X177823Y637397D01*
X177835Y637369D01*
X177840Y637348D01*
X178734Y634831D01*
X179562Y632296D01*
X179573Y632267D01*
X179578Y632246D01*
X180439Y629720D01*
X181233Y627175D01*
X181245Y627147D01*
X181249Y627125D01*
X182077Y624589D01*
X182839Y622034D01*
X182850Y622005D01*
X182854Y621984D01*
X183648Y619441D01*
X184377Y616876D01*
X184387Y616847D01*
X184391Y616826D01*
X185152Y614273D01*
X185849Y611696D01*
X185859Y611667D01*
X185863Y611646D01*
X186594Y609075D01*
X187255Y606497D01*
X187265Y606468D01*
X187268Y606446D01*
X187963Y603876D01*
X188594Y601280D01*
X188603Y601251D01*
X188606Y601230D01*
X189269Y598648D01*
X189864Y596049D01*
X189873Y596020D01*
X189876Y595998D01*
X190507Y593401D01*
X191069Y590798D01*
X191077Y590769D01*
X191080Y590747D01*
X191676Y588149D01*
X192205Y585532D01*
X192213Y585503D01*
X192216Y585481D01*
X192778Y582876D01*
X193273Y580254D01*
X193281Y580224D01*
X193283Y580203D01*
X193813Y577585D01*
X194273Y574961D01*
X194281Y574931D01*
X194283Y574909D01*
X194777Y572294D01*
X195205Y569658D01*
X195212Y569628D01*
X195214Y569607D01*
X195675Y566978D01*
X196068Y564342D01*
X196075Y564312D01*
X196077Y564290D01*
X196504Y561658D01*
X196864Y559015D01*
X196870Y558984D01*
X196871Y558963D01*
X197264Y556326D01*
X197590Y553678D01*
X197596Y553647D01*
X197596Y553626D01*
X197956Y550984D01*
X198248Y548329D01*
X198253Y548299D01*
X198254Y548277D01*
X198579Y545628D01*
X198836Y542976D01*
X198841Y542946D01*
X198841Y542924D01*
X199132Y540275D01*
X199355Y537615D01*
X199360Y537585D01*
X199360Y537563D01*
X199617Y534908D01*
X199806Y532248D01*
X199810Y532217D01*
X199810Y532196D01*
X200033Y529537D01*
X200187Y526877D01*
X200191Y526846D01*
X200190Y526825D01*
X200379Y524165D01*
X200499Y521499D01*
X200503Y521469D01*
X200502Y521447D01*
X200656Y518785D01*
X200742Y516118D01*
X200745Y516088D01*
X200744Y516066D01*
X200864Y513404D01*
X200915Y510733D01*
X200918Y510703D01*
X200917Y510681D01*
X201003Y508011D01*
X201020Y505349D01*
X201022Y505318D01*
X201020Y505297D01*
X201072Y502637D01*
X201055Y499964D01*
X201057Y499934D01*
X201055Y499912D01*
X201072Y497240D01*
X201020Y494581D01*
X201022Y494550D01*
X201020Y494529D01*
X201003Y491864D01*
X200917Y489197D01*
X200918Y489166D01*
X200916Y489145D01*
X200864Y486480D01*
X200744Y483813D01*
X200745Y483782D01*
X200742Y483761D01*
X200656Y481089D01*
X200502Y478431D01*
X200502Y478400D01*
X200499Y478379D01*
X200379Y475721D01*
X200191Y473056D01*
X200191Y473026D01*
X200187Y473004D01*
X200033Y470341D01*
X199810Y467686D01*
X199810Y467656D01*
X199806Y467634D01*
X199618Y464974D01*
X199361Y462320D01*
X199360Y462289D01*
X199356Y462268D01*
X199133Y459607D01*
X198842Y456958D01*
X198841Y456927D01*
X198836Y456906D01*
X198580Y454255D01*
X198254Y451605D01*
X198252Y451574D01*
X198248Y451553D01*
X197957Y448900D01*
X197597Y446259D01*
X197595Y446228D01*
X197591Y446207D01*
X197265Y443561D01*
X196872Y440924D01*
X196870Y440893D01*
X196865Y440872D01*
X196506Y438232D01*
X196078Y435598D01*
X196075Y435568D01*
X196070Y435547D01*
X195676Y432908D01*
X195216Y430284D01*
X195213Y430254D01*
X195207Y430233D01*
X194780Y427599D01*
X194285Y424979D01*
X194281Y424948D01*
X194275Y424927D01*
X193815Y422304D01*
X193286Y419688D01*
X193282Y419658D01*
X193276Y419637D01*
X192781Y417018D01*
X192219Y414412D01*
X192214Y414382D01*
X192208Y414361D01*
X191679Y411746D01*
X191084Y409149D01*
X191079Y409118D01*
X191072Y409098D01*
X190510Y406490D01*
X189881Y403899D01*
X189876Y403868D01*
X189869Y403848D01*
X189274Y401252D01*
X188611Y398668D01*
X188605Y398637D01*
X188598Y398617D01*
X187968Y396022D01*
X187273Y393450D01*
X187267Y393419D01*
X187260Y393399D01*
X186598Y390820D01*
X185869Y388253D01*
X185862Y388223D01*
X185855Y388202D01*
X185158Y385625D01*
X184396Y383070D01*
X184390Y383040D01*
X184382Y383019D01*
X183655Y380460D01*
X182859Y377912D01*
X182852Y377882D01*
X182844Y377862D01*
X182082Y375304D01*
X181255Y372771D01*
X181247Y372741D01*
X181239Y372721D01*
X180444Y370175D01*
X179584Y367650D01*
X179576Y367621D01*
X179568Y367601D01*
X178739Y365062D01*
X177849Y362554D01*
X177840Y362524D01*
X177831Y362505D01*
X176973Y359985D01*
X176046Y357477D01*
X176038Y357448D01*
X176028Y357428D01*
X175135Y354912D01*
X174180Y352427D01*
X174171Y352398D01*
X174161Y352378D01*
X173237Y349877D01*
X172249Y347402D01*
X172240Y347373D01*
X172230Y347353D01*
X171274Y344865D01*
X170253Y342401D01*
X170243Y342371D01*
X170233Y342352D01*
X169245Y339877D01*
X168192Y337425D01*
X168182Y337396D01*
X168172Y337377D01*
X167150Y334910D01*
X166068Y332476D01*
X166057Y332447D01*
X166047Y332428D01*
X164996Y329979D01*
X163879Y327553D01*
X163868Y327524D01*
X163858Y327505D01*
X162775Y325070D01*
X161629Y322663D01*
X161618Y322634D01*
X161607Y322616D01*
X160490Y320188D01*
X159316Y317800D01*
X159304Y317772D01*
X159293Y317753D01*
X158149Y315349D01*
X156938Y312964D01*
X156926Y312936D01*
X156915Y312917D01*
X155734Y310517D01*
X154499Y308162D01*
X154487Y308133D01*
X154475Y308115D01*
X153270Y305742D01*
X151998Y303390D01*
X151986Y303362D01*
X151974Y303344D01*
X150736Y300982D01*
X149439Y298655D01*
X149426Y298627D01*
X149414Y298609D01*
X148145Y296262D01*
X146817Y293950D01*
X146803Y293922D01*
X146791Y293905D01*
X145492Y291573D01*
X144135Y289281D01*
X144121Y289253D01*
X144109Y289235D01*
X142782Y286927D01*
X141394Y284647D01*
X141380Y284620D01*
X141367Y284602D01*
X140008Y282306D01*
X138593Y280048D01*
X138578Y280021D01*
X138565Y280004D01*
X137176Y277724D01*
X135731Y275484D01*
X135717Y275457D01*
X135703Y275440D01*
X134287Y273182D01*
X132811Y270957D01*
X132796Y270930D01*
X132782Y270913D01*
X131336Y268670D01*
X129834Y266468D01*
X129818Y266442D01*
X129804Y266425D01*
X128330Y264202D01*
X126800Y262020D01*
X126784Y261994D01*
X126770Y261977D01*
X125268Y259776D01*
X123707Y257609D01*
X123690Y257583D01*
X123676Y257567D01*
X122143Y255379D01*
X120559Y253240D01*
X120542Y253214D01*
X120528Y253198D01*
X118971Y251037D01*
X117355Y248912D01*
X117338Y248886D01*
X117323Y248870D01*
X115737Y246728D01*
X114095Y244625D01*
X114078Y244600D01*
X114063Y244584D01*
X112445Y242457D01*
X110778Y240378D01*
X110761Y240353D01*
X110746Y240337D01*
X109105Y238237D01*
X107407Y236174D01*
X107389Y236149D01*
X107374Y236134D01*
X105706Y234055D01*
X103985Y232018D01*
X103967Y231994D01*
X103952Y231978D01*
X102252Y229914D01*
X100508Y227904D01*
X100489Y227879D01*
X100473Y227864D01*
X98756Y225832D01*
X98017Y225002D01*
X96979Y223836D01*
X96960Y223812D01*
X96945Y223797D01*
X95194Y221779D01*
X93398Y219814D01*
X93379Y219789D01*
X93363Y219775D01*
X91590Y217784D01*
X89765Y215838D01*
X89746Y215814D01*
X89730Y215799D01*
X87929Y213829D01*
X86080Y211907D01*
X86060Y211883D01*
X86044Y211869D01*
X84221Y209924D01*
X82346Y208026D01*
X82326Y208003D01*
X82310Y207989D01*
X80587Y206198D01*
X80513Y206127D01*
X80420Y206051D01*
X78576Y204207D01*
X78566Y204195D01*
X78558Y204188D01*
X76768Y202376D01*
X76670Y202285D01*
X76577Y202208D01*
X-52815Y72816D01*
X-52966Y72642D01*
X-53121Y72472D01*
X-53153Y72427D01*
X-53189Y72386D01*
X-53314Y72193D01*
X-53444Y72003D01*
X-53469Y71954D01*
X-53498Y71907D01*
X-53595Y71699D01*
X-53698Y71493D01*
X-53715Y71440D01*
X-53738Y71391D01*
X-53805Y71170D01*
X-53878Y70952D01*
X-53888Y70898D01*
X-53903Y70845D01*
X-53939Y70618D01*
X-53980Y70391D01*
X-53982Y70336D01*
X-53991Y70282D01*
X-53994Y70053D01*
X-54003Y69822D01*
X-53998Y69767D01*
X-53998Y69713D01*
X-53969Y69484D01*
X-53946Y69255D01*
X-53933Y69202D01*
X-53926Y69147D01*
X-53866Y68925D01*
X-53811Y68702D01*
X-53790Y68651D01*
X-53776Y68598D01*
X-53685Y68387D01*
X-53599Y68173D01*
X-53572Y68125D01*
X-53550Y68075D01*
X-53430Y67878D01*
X-53316Y67679D01*
X-53288Y67644D01*
X-53253Y67588D01*
X-52891Y67148D01*
X-52843Y67104D01*
X-52815Y67070D01*
X5126Y9129D01*
X9128Y5126D01*
X9129Y5126D01*
X67069Y-52815D01*
X67243Y-52966D01*
X67413Y-53121D01*
X67458Y-53152D01*
X67500Y-53188D01*
X67693Y-53314D01*
X67883Y-53444D01*
X67932Y-53468D01*
X67978Y-53498D01*
X68187Y-53595D01*
X68393Y-53698D01*
X68445Y-53715D01*
X68495Y-53738D01*
X68715Y-53805D01*
X68933Y-53878D01*
X68987Y-53887D01*
X69040Y-53903D01*
X69267Y-53939D01*
X69494Y-53980D01*
X69549Y-53982D01*
X69603Y-53991D01*
X69833Y-53994D01*
X70063Y-54003D01*
X70118Y-53998D01*
X70173Y-53998D01*
X70401Y-53969D01*
X70630Y-53946D01*
X70683Y-53933D01*
X70738Y-53926D01*
X70960Y-53865D01*
X71184Y-53811D01*
X71235Y-53790D01*
X71288Y-53776D01*
X71499Y-53685D01*
X71713Y-53599D01*
X71760Y-53572D01*
X71811Y-53550D01*
X72007Y-53430D01*
X72207Y-53316D01*
X72241Y-53287D01*
X72297Y-53253D01*
X72737Y-52891D01*
X72781Y-52843D01*
X72816Y-52815D01*
X202208Y76577D01*
X202277Y76657D01*
X202352Y76729D01*
X202407Y76799D01*
X204189Y78558D01*
X204199Y78570D01*
X204207Y78577D01*
X206050Y80420D01*
X206102Y80480D01*
X206160Y80534D01*
X206220Y80608D01*
X207988Y82309D01*
X208008Y82332D01*
X208025Y82346D01*
X209925Y84221D01*
X211870Y86045D01*
X211890Y86067D01*
X211908Y86081D01*
X213830Y87931D01*
X215798Y89729D01*
X215820Y89751D01*
X215837Y89764D01*
X217781Y91588D01*
X219775Y93363D01*
X219796Y93385D01*
X219813Y93398D01*
X221781Y95196D01*
X223796Y96943D01*
X223817Y96965D01*
X223835Y96978D01*
X225829Y98754D01*
X227863Y100473D01*
X227885Y100494D01*
X227903Y100507D01*
X229915Y102253D01*
X231974Y103948D01*
X231997Y103970D01*
X232014Y103982D01*
X233718Y105422D01*
X234050Y105702D01*
X236130Y107371D01*
X236153Y107392D01*
X236171Y107404D01*
X238234Y109103D01*
X240333Y110743D01*
X240356Y110763D01*
X240374Y110775D01*
X242451Y112441D01*
X244576Y114057D01*
X244599Y114078D01*
X244618Y114089D01*
X246724Y115734D01*
X248864Y117319D01*
X248888Y117339D01*
X248906Y117351D01*
X251025Y118962D01*
X253189Y120522D01*
X253213Y120542D01*
X253232Y120553D01*
X255377Y122141D01*
X257557Y123670D01*
X257581Y123689D01*
X257600Y123700D01*
X259765Y125261D01*
X261967Y126763D01*
X261992Y126782D01*
X262010Y126793D01*
X264192Y128323D01*
X266414Y129797D01*
X266439Y129816D01*
X266458Y129827D01*
X268658Y131328D01*
X270901Y132775D01*
X270926Y132793D01*
X270945Y132804D01*
X273171Y134281D01*
X275426Y135694D01*
X275451Y135713D01*
X275470Y135723D01*
X277705Y137165D01*
X279986Y138554D01*
X280011Y138572D01*
X280030Y138582D01*
X282290Y139998D01*
X284585Y141356D01*
X284610Y141374D01*
X284630Y141383D01*
X286910Y142773D01*
X289220Y144100D01*
X289246Y144117D01*
X289266Y144126D01*
X291557Y145482D01*
X293888Y146782D01*
X293913Y146798D01*
X293933Y146807D01*
X296247Y148137D01*
X298594Y149406D01*
X298620Y149422D01*
X298640Y149431D01*
X300968Y150729D01*
X303328Y151966D01*
X303354Y151982D01*
X303374Y151990D01*
X305719Y153258D01*
X308098Y154467D01*
X308124Y154483D01*
X308144Y154491D01*
X310506Y155729D01*
X312899Y156906D01*
X312926Y156921D01*
X312946Y156929D01*
X315322Y158136D01*
X317730Y159282D01*
X317757Y159297D01*
X317778Y159305D01*
X320170Y160482D01*
X322596Y161598D01*
X322622Y161613D01*
X322643Y161620D01*
X325051Y162766D01*
X327485Y163849D01*
X327512Y163863D01*
X327533Y163870D01*
X329953Y164984D01*
X332406Y166038D01*
X332433Y166052D01*
X332454Y166058D01*
X334891Y167142D01*
X337351Y168161D01*
X337379Y168175D01*
X337400Y168182D01*
X339850Y169234D01*
X342328Y170223D01*
X342356Y170237D01*
X342377Y170243D01*
X344841Y171264D01*
X347330Y172221D01*
X347357Y172234D01*
X347378Y172240D01*
X349855Y173229D01*
X352358Y174154D01*
X352386Y174167D01*
X352407Y174172D01*
X354896Y175129D01*
X357408Y176021D01*
X357436Y176034D01*
X357457Y176039D01*
X359957Y176963D01*
X362481Y177823D01*
X362510Y177835D01*
X362531Y177841D01*
X365047Y178734D01*
X367581Y179561D01*
X367610Y179573D01*
X367631Y179578D01*
X370154Y180437D01*
X372702Y181233D01*
X372731Y181244D01*
X372752Y181249D01*
X375288Y182077D01*
X377844Y182839D01*
X377873Y182850D01*
X377894Y182854D01*
X380436Y183648D01*
X383002Y184377D01*
X383031Y184387D01*
X383052Y184391D01*
X385610Y185154D01*
X388183Y185850D01*
X388213Y185860D01*
X388234Y185864D01*
X390796Y186592D01*
X393381Y187255D01*
X393410Y187265D01*
X393432Y187268D01*
X396007Y187964D01*
X398597Y188593D01*
X398626Y188603D01*
X398648Y188606D01*
X401228Y189268D01*
X403829Y189864D01*
X403858Y189873D01*
X403880Y189876D01*
X406477Y190507D01*
X409080Y191069D01*
X409110Y191077D01*
X409131Y191080D01*
X411729Y191676D01*
X414347Y192205D01*
X414376Y192213D01*
X414398Y192216D01*
X417006Y192779D01*
X419625Y193273D01*
X419655Y193281D01*
X419677Y193283D01*
X422287Y193812D01*
X424917Y194273D01*
X424947Y194281D01*
X424969Y194283D01*
X427590Y194778D01*
X430220Y195205D01*
X430250Y195212D01*
X430272Y195214D01*
X432899Y195675D01*
X435536Y196069D01*
X435566Y196075D01*
X435588Y196077D01*
X438220Y196504D01*
X440863Y196864D01*
X440893Y196870D01*
X440915Y196871D01*
X443551Y197264D01*
X446200Y197590D01*
X446231Y197596D01*
X446252Y197597D01*
X448899Y197957D01*
X451549Y198248D01*
X451579Y198253D01*
X451601Y198254D01*
X454246Y198579D01*
X456903Y198836D01*
X456933Y198841D01*
X456955Y198842D01*
X459607Y199133D01*
X462263Y199356D01*
X462293Y199360D01*
X462315Y199360D01*
X464970Y199617D01*
X467630Y199806D01*
X467661Y199810D01*
X467683Y199810D01*
X470341Y200033D01*
X473001Y200187D01*
X473032Y200191D01*
X473053Y200191D01*
X475713Y200379D01*
X478379Y200499D01*
X478409Y200503D01*
X478431Y200502D01*
X481093Y200656D01*
X483760Y200742D01*
X483791Y200745D01*
X483812Y200744D01*
X486475Y200864D01*
X489145Y200916D01*
X489175Y200918D01*
X489197Y200917D01*
X491867Y201003D01*
X494529Y201020D01*
X494560Y201022D01*
X494582Y201021D01*
X497240Y201072D01*
X499913Y201055D01*
X499943Y201057D01*
X499965Y201055D01*
X502637Y201072D01*
X505297Y201020D01*
X505328Y201022D01*
X505349Y201020D01*
X508014Y201003D01*
X510681Y200917D01*
X510712Y200918D01*
X510734Y200916D01*
X513398Y200864D01*
X516065Y200744D01*
X516096Y200745D01*
X516118Y200742D01*
X518789Y200656D01*
X521447Y200502D01*
X521478Y200502D01*
X521499Y200499D01*
X524157Y200380D01*
X526822Y200191D01*
X526853Y200191D01*
X526874Y200187D01*
X529539Y200033D01*
X532192Y199810D01*
X532223Y199810D01*
X532244Y199806D01*
X534899Y199618D01*
X537559Y199361D01*
X537590Y199360D01*
X537611Y199356D01*
X540272Y199133D01*
X542920Y198842D01*
X542951Y198841D01*
X542972Y198837D01*
X545628Y198579D01*
X548274Y198254D01*
X548305Y198253D01*
X548326Y198248D01*
X550972Y197957D01*
X553619Y197597D01*
X553649Y197595D01*
X553671Y197591D01*
X556320Y197265D01*
X558954Y196872D01*
X558985Y196870D01*
X559006Y196865D01*
X561648Y196506D01*
X564280Y196078D01*
X564310Y196075D01*
X564332Y196070D01*
X566966Y195677D01*
X569593Y195216D01*
X569624Y195213D01*
X569645Y195207D01*
X572284Y194779D01*
X574899Y194285D01*
X574930Y194281D01*
X574950Y194275D01*
X577572Y193815D01*
X580190Y193286D01*
X580220Y193282D01*
X580241Y193276D01*
X582861Y192781D01*
X585466Y192219D01*
X585497Y192214D01*
X585518Y192208D01*
X588131Y191680D01*
X590731Y191084D01*
X590761Y191079D01*
X590782Y191072D01*
X593390Y190510D01*
X595978Y189881D01*
X596008Y189876D01*
X596029Y189869D01*
X598625Y189274D01*
X601210Y188611D01*
X601240Y188606D01*
X601261Y188599D01*
X603855Y187968D01*
X606429Y187273D01*
X606459Y187267D01*
X606479Y187260D01*
X609062Y186597D01*
X611627Y185868D01*
X611657Y185862D01*
X611678Y185854D01*
X614252Y185159D01*
X616808Y184397D01*
X616838Y184390D01*
X616858Y184382D01*
X619422Y183654D01*
X621967Y182859D01*
X621996Y182852D01*
X622017Y182844D01*
X624574Y182082D01*
X627108Y181255D01*
X627138Y181247D01*
X627157Y181239D01*
X629702Y180445D01*
X632226Y179585D01*
X632256Y179577D01*
X632276Y179568D01*
X634813Y178740D01*
X637325Y177848D01*
X637355Y177840D01*
X637375Y177831D01*
X639898Y176972D01*
X642400Y176047D01*
X642430Y176038D01*
X642449Y176029D01*
X644961Y175137D01*
X647451Y174180D01*
X647480Y174171D01*
X647500Y174162D01*
X650001Y173237D01*
X652477Y172249D01*
X652506Y172239D01*
X652525Y172230D01*
X655016Y171273D01*
X657477Y170253D01*
X657506Y170243D01*
X657525Y170234D01*
X660001Y169245D01*
X662455Y168192D01*
X662484Y168182D01*
X662503Y168172D01*
X664968Y167150D01*
X667401Y166069D01*
X667430Y166058D01*
X667449Y166048D01*
X669899Y164996D01*
X672326Y163879D01*
X672355Y163868D01*
X672374Y163857D01*
X674809Y162774D01*
X677214Y161630D01*
X677243Y161619D01*
X677262Y161608D01*
X679686Y160492D01*
X682080Y159315D01*
X682108Y159303D01*
X682127Y159292D01*
X684533Y158147D01*
X686912Y156939D01*
X686941Y156927D01*
X686959Y156915D01*
X689356Y155737D01*
X691717Y154499D01*
X691745Y154487D01*
X691763Y154475D01*
X694140Y153268D01*
X696490Y151998D01*
X696517Y151985D01*
X696536Y151973D01*
X698896Y150737D01*
X701222Y149440D01*
X701249Y149427D01*
X701267Y149415D01*
X703614Y148146D01*
X705928Y146817D01*
X705956Y146803D01*
X705974Y146791D01*
X708304Y145492D01*
X710597Y144135D01*
X710624Y144122D01*
X710642Y144109D01*
X712950Y142783D01*
X715232Y141393D01*
X715259Y141379D01*
X715276Y141367D01*
X717575Y140007D01*
X719832Y138592D01*
X719859Y138577D01*
X719876Y138564D01*
X722150Y137179D01*
X724394Y135731D01*
X724421Y135716D01*
X724438Y135703D01*
X726701Y134285D01*
X728923Y132810D01*
X728950Y132795D01*
X728967Y132782D01*
X731206Y131337D01*
X733409Y129834D01*
X733436Y129818D01*
X733453Y129805D01*
X735676Y128330D01*
X737858Y126800D01*
X737884Y126784D01*
X737901Y126770D01*
X740104Y125267D01*
X742270Y123706D01*
X742296Y123690D01*
X742312Y123676D01*
X744494Y122146D01*
X746637Y120560D01*
X746663Y120543D01*
X746679Y120529D01*
X748847Y118967D01*
X750968Y117353D01*
X750994Y117337D01*
X751010Y117322D01*
X753150Y115738D01*
X755254Y114094D01*
X755280Y114077D01*
X755296Y114062D01*
X757421Y112445D01*
X759500Y110778D01*
X759525Y110761D01*
X759541Y110746D01*
X761642Y109105D01*
X763702Y107408D01*
X763728Y107390D01*
X763743Y107375D01*
X765823Y105707D01*
X767860Y103985D01*
X767885Y103967D01*
X767900Y103951D01*
X769959Y102256D01*
X771974Y100508D01*
X771998Y100490D01*
X772013Y100474D01*
X774053Y98750D01*
X776044Y96978D01*
X776068Y96959D01*
X776083Y96943D01*
X778091Y95201D01*
X780063Y93399D01*
X780086Y93381D01*
X780088Y93378D01*
X780090Y93377D01*
X780102Y93364D01*
X782097Y91587D01*
X784041Y89764D01*
X784065Y89745D01*
X784080Y89729D01*
X786051Y87928D01*
X787971Y86080D01*
X787995Y86061D01*
X788009Y86044D01*
X789953Y84222D01*
X791852Y82346D01*
X791876Y82326D01*
X791890Y82310D01*
X793680Y80587D01*
X793751Y80513D01*
X793827Y80420D01*
X795670Y78577D01*
X795682Y78567D01*
X795689Y78559D01*
X797503Y76768D01*
X797593Y76671D01*
X797670Y76577D01*
X927062Y-52815D01*
X927236Y-52966D01*
X927406Y-53121D01*
X927451Y-53152D01*
X927492Y-53188D01*
X927686Y-53314D01*
X927875Y-53444D01*
X927925Y-53468D01*
X927971Y-53498D01*
X928180Y-53595D01*
X928386Y-53698D01*
X928438Y-53715D01*
X928488Y-53738D01*
X928708Y-53805D01*
X928926Y-53878D01*
X928980Y-53887D01*
X929033Y-53903D01*
X929260Y-53939D01*
X929487Y-53980D01*
X929542Y-53982D01*
X929596Y-53991D01*
X929825Y-53994D01*
X930056Y-54003D01*
X930111Y-53998D01*
G37*
G36*
X975352Y21799D02*
X975352Y21799D01*
X975413Y21797D01*
X975636Y21819D01*
X975861Y21835D01*
X975920Y21847D01*
X975980Y21853D01*
X976198Y21907D01*
X976418Y21954D01*
X976474Y21974D01*
X976533Y21989D01*
X976742Y22072D01*
X976953Y22150D01*
X977006Y22178D01*
X977062Y22200D01*
X977257Y22312D01*
X977455Y22418D01*
X977504Y22454D01*
X977556Y22484D01*
X977647Y22559D01*
X977915Y22755D01*
X978076Y22912D01*
X978165Y22985D01*
X983245Y28065D01*
X990817Y28065D01*
X991046Y28081D01*
X991276Y28091D01*
X991330Y28101D01*
X991385Y28105D01*
X991610Y28153D01*
X991836Y28195D01*
X991888Y28212D01*
X991942Y28224D01*
X992158Y28303D01*
X992377Y28376D01*
X992426Y28401D01*
X992477Y28420D01*
X992680Y28528D01*
X992886Y28631D01*
X992931Y28662D01*
X992980Y28688D01*
X993165Y28824D01*
X993355Y28955D01*
X993395Y28992D01*
X993440Y29025D01*
X993604Y29185D01*
X993774Y29341D01*
X993808Y29384D01*
X993848Y29422D01*
X993989Y29604D01*
X994134Y29782D01*
X994163Y29829D01*
X994197Y29873D01*
X994311Y30073D01*
X994430Y30270D01*
X994451Y30320D01*
X994479Y30368D01*
X994564Y30582D01*
X994654Y30793D01*
X994669Y30846D01*
X994689Y30897D01*
X994743Y31122D01*
X994803Y31343D01*
X994808Y31387D01*
X994823Y31451D01*
X994878Y32018D01*
X994875Y32084D01*
X994880Y32128D01*
X994880Y41136D01*
X994959Y41215D01*
X1002087Y34087D01*
X1002261Y33936D01*
X1002430Y33781D01*
X1002476Y33750D01*
X1002517Y33714D01*
X1002711Y33589D01*
X1002900Y33458D01*
X1002949Y33434D01*
X1002995Y33404D01*
X1003204Y33307D01*
X1003410Y33205D01*
X1003462Y33187D01*
X1003512Y33164D01*
X1003733Y33097D01*
X1003951Y33025D01*
X1004005Y33015D01*
X1004057Y32999D01*
X1004285Y32964D01*
X1004511Y32922D01*
X1004566Y32920D01*
X1004621Y32912D01*
X1004850Y32908D01*
X1005081Y32899D01*
X1005136Y32905D01*
X1005190Y32904D01*
X1005191Y32904D01*
X1005419Y32933D01*
X1005648Y32956D01*
X1005702Y32969D01*
X1005756Y32976D01*
X1005979Y33037D01*
X1006202Y33091D01*
X1006253Y33112D01*
X1006306Y33126D01*
X1006518Y33218D01*
X1006731Y33303D01*
X1006778Y33330D01*
X1006829Y33352D01*
X1007026Y33472D01*
X1007225Y33587D01*
X1007259Y33615D01*
X1007315Y33649D01*
X1007755Y34011D01*
X1007800Y34059D01*
X1007834Y34087D01*
X1014962Y41215D01*
X1015041Y41136D01*
X1015041Y39227D01*
X1015049Y39112D01*
X1015048Y38997D01*
X1015069Y38829D01*
X1015081Y38659D01*
X1015105Y38546D01*
X1015120Y38432D01*
X1015165Y38268D01*
X1015200Y38102D01*
X1015240Y37994D01*
X1015270Y37882D01*
X1015338Y37726D01*
X1015396Y37567D01*
X1015450Y37465D01*
X1015496Y37359D01*
X1015585Y37214D01*
X1015665Y37064D01*
X1015733Y36971D01*
X1015793Y36873D01*
X1015901Y36742D01*
X1016001Y36604D01*
X1016082Y36522D01*
X1016155Y36433D01*
X1016280Y36318D01*
X1016399Y36196D01*
X1016490Y36126D01*
X1016575Y36048D01*
X1016715Y35951D01*
X1016849Y35847D01*
X1016949Y35790D01*
X1017044Y35725D01*
X1017196Y35649D01*
X1017344Y35565D01*
X1017452Y35523D01*
X1017555Y35471D01*
X1017716Y35418D01*
X1017874Y35355D01*
X1017986Y35328D01*
X1018095Y35291D01*
X1018262Y35261D01*
X1018428Y35221D01*
X1018542Y35210D01*
X1018656Y35189D01*
X1018826Y35182D01*
X1018995Y35166D01*
X1019110Y35171D01*
X1019225Y35166D01*
X1019394Y35183D01*
X1019564Y35190D01*
X1019677Y35211D01*
X1019792Y35223D01*
X1019957Y35263D01*
X1020124Y35294D01*
X1020233Y35331D01*
X1020345Y35358D01*
X1020503Y35421D01*
X1020664Y35476D01*
X1020767Y35527D01*
X1020874Y35570D01*
X1021022Y35655D01*
X1021174Y35731D01*
X1021269Y35796D01*
X1021369Y35853D01*
X1021458Y35927D01*
X1021643Y36054D01*
X1021887Y36279D01*
X1021978Y36354D01*
X1052693Y67070D01*
X1052844Y67244D01*
X1052999Y67413D01*
X1053031Y67458D01*
X1053067Y67500D01*
X1053192Y67693D01*
X1053322Y67883D01*
X1053347Y67932D01*
X1053376Y67978D01*
X1053473Y68187D01*
X1053576Y68393D01*
X1053593Y68445D01*
X1053616Y68495D01*
X1053683Y68715D01*
X1053756Y68933D01*
X1053766Y68987D01*
X1053781Y69040D01*
X1053817Y69267D01*
X1053858Y69494D01*
X1053860Y69549D01*
X1053869Y69603D01*
X1053872Y69833D01*
X1053881Y70063D01*
X1053876Y70118D01*
X1053876Y70173D01*
X1053847Y70401D01*
X1053824Y70630D01*
X1053811Y70683D01*
X1053804Y70738D01*
X1053744Y70961D01*
X1053689Y71184D01*
X1053668Y71235D01*
X1053654Y71288D01*
X1053563Y71499D01*
X1053477Y71713D01*
X1053450Y71760D01*
X1053428Y71811D01*
X1053308Y72007D01*
X1053194Y72207D01*
X1053166Y72241D01*
X1053131Y72297D01*
X1052769Y72737D01*
X1052721Y72781D01*
X1052693Y72816D01*
X923301Y202208D01*
X923221Y202277D01*
X923148Y202353D01*
X923078Y202407D01*
X921319Y204189D01*
X921308Y204199D01*
X921301Y204208D01*
X919458Y206050D01*
X919399Y206102D01*
X919345Y206160D01*
X919270Y206220D01*
X917568Y207989D01*
X917545Y208009D01*
X917531Y208026D01*
X915658Y209924D01*
X913834Y211869D01*
X913811Y211890D01*
X913798Y211907D01*
X911947Y213831D01*
X910149Y215798D01*
X910127Y215819D01*
X910114Y215837D01*
X908291Y217781D01*
X906515Y219775D01*
X906493Y219796D01*
X906480Y219814D01*
X904682Y221782D01*
X902935Y223795D01*
X902913Y223817D01*
X902900Y223834D01*
X901128Y225825D01*
X899406Y227862D01*
X899385Y227884D01*
X899372Y227902D01*
X897621Y229920D01*
X895929Y231975D01*
X895908Y231997D01*
X895896Y232015D01*
X894179Y234046D01*
X892507Y236131D01*
X892486Y236154D01*
X892474Y236171D01*
X890775Y238234D01*
X889136Y240333D01*
X889116Y240355D01*
X889104Y240374D01*
X887437Y242451D01*
X885821Y244577D01*
X885800Y244600D01*
X885789Y244618D01*
X884145Y246723D01*
X882559Y248864D01*
X882539Y248888D01*
X882528Y248906D01*
X880917Y251024D01*
X879356Y253189D01*
X879337Y253213D01*
X879326Y253232D01*
X877737Y255378D01*
X876208Y257557D01*
X876189Y257581D01*
X876178Y257600D01*
X874620Y259761D01*
X873115Y261967D01*
X873096Y261992D01*
X873085Y262010D01*
X871554Y264194D01*
X870080Y266416D01*
X870061Y266440D01*
X870051Y266459D01*
X868549Y268661D01*
X867104Y270900D01*
X867085Y270925D01*
X867075Y270944D01*
X865600Y273167D01*
X864184Y275425D01*
X864166Y275450D01*
X864156Y275469D01*
X862712Y277707D01*
X861323Y279988D01*
X861305Y280013D01*
X861295Y280032D01*
X859877Y282294D01*
X858523Y284583D01*
X858505Y284608D01*
X858496Y284628D01*
X857108Y286906D01*
X855778Y289221D01*
X855761Y289246D01*
X855752Y289266D01*
X854395Y291558D01*
X853097Y293888D01*
X853080Y293914D01*
X853071Y293933D01*
X851742Y296247D01*
X850473Y298593D01*
X850456Y298619D01*
X850448Y298639D01*
X849150Y300966D01*
X847913Y303327D01*
X847897Y303353D01*
X847888Y303373D01*
X846617Y305724D01*
X845412Y308098D01*
X845396Y308124D01*
X845388Y308144D01*
X844151Y310504D01*
X842973Y312898D01*
X842958Y312925D01*
X842950Y312945D01*
X841742Y315324D01*
X840595Y317732D01*
X840580Y317759D01*
X840572Y317779D01*
X839396Y320171D01*
X838281Y322594D01*
X838266Y322621D01*
X838259Y322641D01*
X837112Y325052D01*
X836030Y327485D01*
X836015Y327512D01*
X836008Y327533D01*
X834893Y329955D01*
X833841Y332406D01*
X833826Y332434D01*
X833820Y332454D01*
X832737Y334889D01*
X831717Y337351D01*
X831703Y337379D01*
X831696Y337399D01*
X830643Y339852D01*
X829654Y342329D01*
X829641Y342357D01*
X829634Y342378D01*
X828614Y344841D01*
X827658Y347329D01*
X827645Y347357D01*
X827639Y347378D01*
X826651Y349851D01*
X825724Y352358D01*
X825711Y352386D01*
X825706Y352407D01*
X824747Y354900D01*
X823857Y357408D01*
X823845Y357436D01*
X823839Y357457D01*
X822915Y359955D01*
X822055Y362481D01*
X822043Y362510D01*
X822038Y362531D01*
X821144Y365048D01*
X820316Y367583D01*
X820305Y367612D01*
X820300Y367633D01*
X819441Y370154D01*
X818645Y372702D01*
X818634Y372731D01*
X818629Y372752D01*
X817802Y375286D01*
X817039Y377844D01*
X817029Y377873D01*
X817024Y377894D01*
X816229Y380442D01*
X815501Y383002D01*
X815491Y383031D01*
X815486Y383053D01*
X814725Y385608D01*
X814029Y388183D01*
X814019Y388212D01*
X814015Y388233D01*
X813287Y390796D01*
X812623Y393382D01*
X812613Y393411D01*
X812610Y393432D01*
X811913Y396010D01*
X811285Y398597D01*
X811275Y398626D01*
X811272Y398647D01*
X810610Y401227D01*
X810014Y403829D01*
X810005Y403859D01*
X810002Y403880D01*
X809371Y406475D01*
X808809Y409081D01*
X808801Y409111D01*
X808798Y409132D01*
X808202Y411730D01*
X807673Y414346D01*
X807665Y414376D01*
X807662Y414398D01*
X807100Y417003D01*
X806605Y419625D01*
X806597Y419655D01*
X806595Y419677D01*
X806066Y422290D01*
X805605Y424917D01*
X805597Y424946D01*
X805595Y424968D01*
X805100Y427590D01*
X804673Y430221D01*
X804666Y430251D01*
X804664Y430272D01*
X804203Y432899D01*
X803810Y435535D01*
X803803Y435566D01*
X803802Y435587D01*
X803374Y438221D01*
X803014Y440865D01*
X803008Y440895D01*
X803007Y440917D01*
X802613Y443554D01*
X802288Y446202D01*
X802283Y446226D01*
X802283Y446234D01*
X802282Y446241D01*
X802281Y446254D01*
X801922Y448894D01*
X801631Y451548D01*
X801625Y451579D01*
X801625Y451600D01*
X801299Y454250D01*
X801042Y456903D01*
X801037Y456933D01*
X801037Y456955D01*
X800746Y459603D01*
X800523Y462263D01*
X800518Y462293D01*
X800518Y462315D01*
X800261Y464972D01*
X800072Y467631D01*
X800068Y467661D01*
X800068Y467683D01*
X799846Y470334D01*
X799691Y473004D01*
X799687Y473035D01*
X799688Y473057D01*
X799499Y475722D01*
X799379Y478377D01*
X799375Y478408D01*
X799376Y478430D01*
X799274Y480187D01*
X799237Y480479D01*
X799202Y480748D01*
X799202Y480750D01*
X799202Y480752D01*
X799126Y481026D01*
X799052Y481297D01*
X799051Y481299D01*
X799050Y481302D01*
X798939Y481558D01*
X798826Y481820D01*
X798825Y481822D01*
X798824Y481825D01*
X798670Y482076D01*
X798529Y482307D01*
X798528Y482308D01*
X798526Y482311D01*
X798343Y482533D01*
X798168Y482747D01*
X798166Y482748D01*
X798164Y482750D01*
X797966Y482931D01*
X797748Y483132D01*
X797745Y483133D01*
X797744Y483135D01*
X797512Y483294D01*
X797278Y483454D01*
X797276Y483456D01*
X797274Y483457D01*
X797021Y483582D01*
X796768Y483708D01*
X796765Y483709D01*
X796763Y483710D01*
X796487Y483802D01*
X796227Y483888D01*
X796225Y483888D01*
X796222Y483889D01*
X795948Y483939D01*
X795667Y483991D01*
X795664Y483991D01*
X795662Y483991D01*
X795391Y484002D01*
X795097Y484014D01*
X795095Y484013D01*
X795092Y484013D01*
X794805Y483984D01*
X794530Y483957D01*
X794528Y483956D01*
X794525Y483956D01*
X794235Y483884D01*
X793977Y483821D01*
X793975Y483820D01*
X793972Y483820D01*
X793699Y483710D01*
X793448Y483610D01*
X793446Y483608D01*
X793443Y483607D01*
X793192Y483463D01*
X792954Y483326D01*
X792952Y483325D01*
X792949Y483323D01*
X792500Y482973D01*
X792408Y482877D01*
X792345Y482825D01*
X791755Y482235D01*
X784245Y482235D01*
X779165Y487315D01*
X779120Y487355D01*
X779079Y487399D01*
X778905Y487541D01*
X778735Y487689D01*
X778685Y487722D01*
X778638Y487760D01*
X778446Y487876D01*
X778257Y487999D01*
X778202Y488024D01*
X778151Y488055D01*
X777944Y488144D01*
X777740Y488239D01*
X777682Y488256D01*
X777627Y488280D01*
X777410Y488338D01*
X777195Y488404D01*
X777135Y488413D01*
X777077Y488429D01*
X776960Y488440D01*
X776632Y488491D01*
X776407Y488494D01*
X776292Y488505D01*
X587208Y488505D01*
X587093Y488497D01*
X586978Y488499D01*
X586809Y488477D01*
X586640Y488465D01*
X586527Y488441D01*
X586413Y488427D01*
X586249Y488382D01*
X586082Y488346D01*
X585974Y488307D01*
X585863Y488276D01*
X585707Y488209D01*
X585547Y488150D01*
X585445Y488096D01*
X585340Y488050D01*
X585195Y487962D01*
X585045Y487882D01*
X584952Y487814D01*
X584853Y487754D01*
X584722Y487646D01*
X584585Y487545D01*
X584502Y487465D01*
X584413Y487392D01*
X584299Y487266D01*
X584177Y487148D01*
X584106Y487057D01*
X584028Y486972D01*
X583932Y486832D01*
X583828Y486697D01*
X583771Y486597D01*
X583706Y486502D01*
X583630Y486350D01*
X583546Y486202D01*
X583503Y486095D01*
X583452Y485992D01*
X583398Y485831D01*
X583335Y485673D01*
X583308Y485560D01*
X583272Y485451D01*
X583241Y485284D01*
X583201Y485119D01*
X583190Y485004D01*
X583170Y484891D01*
X583163Y484721D01*
X583146Y484552D01*
X583151Y484437D01*
X583146Y484321D01*
X583163Y484152D01*
X583171Y483982D01*
X583192Y483869D01*
X583203Y483754D01*
X583244Y483589D01*
X583275Y483422D01*
X583311Y483313D01*
X583339Y483201D01*
X583402Y483043D01*
X583456Y482882D01*
X583508Y482779D01*
X583550Y482672D01*
X583635Y482525D01*
X583711Y482373D01*
X583777Y482278D01*
X583834Y482178D01*
X583907Y482089D01*
X584035Y481904D01*
X584260Y481660D01*
X584335Y481569D01*
X585357Y480546D01*
X585783Y479519D01*
X585783Y390919D01*
X585799Y390690D01*
X585809Y390459D01*
X585819Y390405D01*
X585823Y390351D01*
X585871Y390125D01*
X585913Y389899D01*
X585930Y389847D01*
X585942Y389793D01*
X586021Y389577D01*
X586094Y389359D01*
X586119Y389310D01*
X586138Y389258D01*
X586246Y389055D01*
X586349Y388850D01*
X586380Y388804D01*
X586406Y388756D01*
X586542Y388570D01*
X586673Y388381D01*
X586710Y388340D01*
X586743Y388296D01*
X586903Y388131D01*
X587059Y387962D01*
X587102Y387927D01*
X587140Y387888D01*
X587322Y387747D01*
X587500Y387601D01*
X587548Y387573D01*
X587591Y387539D01*
X587791Y387425D01*
X587988Y387306D01*
X588038Y387284D01*
X588086Y387257D01*
X588300Y387172D01*
X588306Y387169D01*
X589513Y385963D01*
X589513Y373225D01*
X589498Y373166D01*
X589450Y373005D01*
X589432Y372889D01*
X589404Y372776D01*
X589388Y372608D01*
X589362Y372442D01*
X589361Y372325D01*
X589349Y372208D01*
X589357Y372040D01*
X589354Y371872D01*
X589369Y371756D01*
X589374Y371639D01*
X589405Y371473D01*
X589426Y371307D01*
X589457Y371194D01*
X589479Y371079D01*
X589532Y370920D01*
X589577Y370757D01*
X589623Y370650D01*
X589660Y370539D01*
X589714Y370438D01*
X589803Y370234D01*
X589977Y369947D01*
X590033Y369844D01*
X590240Y369534D01*
X590431Y369072D01*
X590529Y368581D01*
X590529Y367019D01*
X582988Y367019D01*
X575447Y367019D01*
X575447Y368581D01*
X575545Y369072D01*
X575736Y369534D01*
X575943Y369844D01*
X576001Y369946D01*
X576067Y370042D01*
X576142Y370192D01*
X576226Y370339D01*
X576269Y370447D01*
X576321Y370552D01*
X576374Y370711D01*
X576436Y370868D01*
X576464Y370982D01*
X576501Y371093D01*
X576531Y371258D01*
X576571Y371422D01*
X576582Y371538D01*
X576603Y371653D01*
X576610Y371822D01*
X576627Y371989D01*
X576622Y372106D01*
X576626Y372222D01*
X576610Y372390D01*
X576602Y372558D01*
X576581Y372673D01*
X576569Y372789D01*
X576529Y372953D01*
X576499Y373119D01*
X576463Y373225D01*
X576463Y385963D01*
X577657Y387156D01*
X577690Y387167D01*
X577739Y387192D01*
X577791Y387211D01*
X577994Y387319D01*
X578199Y387422D01*
X578245Y387453D01*
X578293Y387479D01*
X578479Y387615D01*
X578668Y387746D01*
X578709Y387783D01*
X578753Y387816D01*
X578918Y387976D01*
X579087Y388132D01*
X579122Y388175D01*
X579161Y388213D01*
X579302Y388395D01*
X579448Y388573D01*
X579476Y388621D01*
X579510Y388664D01*
X579624Y388864D01*
X579743Y389061D01*
X579765Y389111D01*
X579792Y389159D01*
X579877Y389373D01*
X579968Y389584D01*
X579982Y389637D01*
X580002Y389688D01*
X580057Y389913D01*
X580117Y390134D01*
X580121Y390178D01*
X580137Y390242D01*
X580192Y390809D01*
X580189Y390875D01*
X580193Y390919D01*
X580193Y476123D01*
X580189Y476183D01*
X580191Y476243D01*
X580169Y476467D01*
X580153Y476691D01*
X580141Y476750D01*
X580135Y476810D01*
X580081Y477028D01*
X580034Y477248D01*
X580014Y477305D01*
X579999Y477364D01*
X579916Y477572D01*
X579838Y477783D01*
X579810Y477837D01*
X579788Y477893D01*
X579676Y478087D01*
X579570Y478286D01*
X579534Y478334D01*
X579504Y478387D01*
X579429Y478478D01*
X579233Y478746D01*
X579076Y478907D01*
X579003Y478996D01*
X574946Y483053D01*
X574816Y483166D01*
X574692Y483287D01*
X574601Y483353D01*
X574516Y483427D01*
X574371Y483521D01*
X574231Y483622D01*
X574132Y483675D01*
X574038Y483737D01*
X573881Y483809D01*
X573728Y483891D01*
X573623Y483929D01*
X573521Y483976D01*
X573355Y484027D01*
X573193Y484086D01*
X573083Y484109D01*
X572975Y484142D01*
X572805Y484168D01*
X572636Y484204D01*
X572523Y484212D01*
X572412Y484229D01*
X572240Y484231D01*
X572067Y484243D01*
X571955Y484235D01*
X571843Y484237D01*
X571671Y484215D01*
X571499Y484203D01*
X571389Y484179D01*
X571277Y484165D01*
X571110Y484119D01*
X570942Y484083D01*
X570836Y484044D01*
X570728Y484014D01*
X570569Y483946D01*
X570407Y483886D01*
X570308Y483833D01*
X570205Y483788D01*
X570057Y483698D01*
X569905Y483617D01*
X569814Y483550D01*
X569718Y483492D01*
X569585Y483382D01*
X569446Y483280D01*
X569365Y483201D01*
X569278Y483130D01*
X569161Y483002D01*
X569038Y482882D01*
X568969Y482793D01*
X568893Y482710D01*
X568795Y482567D01*
X568690Y482431D01*
X568650Y482355D01*
X568570Y482240D01*
X568404Y481905D01*
X566886Y480387D01*
X564936Y479579D01*
X562824Y479579D01*
X560143Y480690D01*
X560031Y480727D01*
X559923Y480774D01*
X559870Y480788D01*
X559819Y480808D01*
X559709Y480835D01*
X559603Y480871D01*
X559486Y480892D01*
X559373Y480923D01*
X559329Y480927D01*
X559265Y480943D01*
X559153Y480953D01*
X559042Y480974D01*
X558870Y480981D01*
X558698Y480998D01*
X558632Y480995D01*
X558588Y480999D01*
X558531Y480995D01*
X558473Y480998D01*
X558301Y480981D01*
X558128Y480973D01*
X558074Y480963D01*
X558020Y480959D01*
X557963Y480947D01*
X557906Y480942D01*
X557738Y480901D01*
X557568Y480869D01*
X557516Y480852D01*
X557462Y480840D01*
X557408Y480820D01*
X557352Y480807D01*
X557192Y480743D01*
X557028Y480688D01*
X556979Y480663D01*
X556927Y480644D01*
X556876Y480617D01*
X556823Y480596D01*
X556673Y480510D01*
X556519Y480433D01*
X556473Y480402D01*
X556425Y480376D01*
X556378Y480341D01*
X556328Y480313D01*
X556193Y480208D01*
X556050Y480109D01*
X556009Y480072D01*
X555965Y480039D01*
X555923Y479999D01*
X555878Y479964D01*
X555759Y479840D01*
X555631Y479723D01*
X555596Y479680D01*
X555557Y479642D01*
X555521Y479596D01*
X555481Y479555D01*
X555380Y479416D01*
X555270Y479282D01*
X555242Y479234D01*
X555208Y479191D01*
X555179Y479141D01*
X555146Y479095D01*
X555065Y478943D01*
X554975Y478794D01*
X554953Y478744D01*
X554926Y478696D01*
X554904Y478642D01*
X554877Y478592D01*
X554819Y478430D01*
X554750Y478271D01*
X554736Y478218D01*
X554716Y478167D01*
X554702Y478110D01*
X554682Y478056D01*
X554647Y477888D01*
X554601Y477721D01*
X554597Y477677D01*
X554581Y477613D01*
X554576Y477555D01*
X554564Y477499D01*
X554548Y477274D01*
X554526Y477046D01*
X554529Y476987D01*
X554526Y476951D01*
X554525Y476936D01*
X554525Y474368D01*
X553632Y473475D01*
X549238Y473475D01*
X549123Y473467D01*
X549008Y473469D01*
X548839Y473447D01*
X548670Y473435D01*
X548557Y473411D01*
X548443Y473397D01*
X548278Y473352D01*
X548112Y473316D01*
X548004Y473277D01*
X547893Y473246D01*
X547737Y473179D01*
X547577Y473120D01*
X547476Y473066D01*
X547370Y473020D01*
X547225Y472932D01*
X547075Y472852D01*
X546982Y472784D01*
X546883Y472724D01*
X546752Y472616D01*
X546615Y472515D01*
X546532Y472435D01*
X546443Y472362D01*
X546329Y472237D01*
X546207Y472118D01*
X546136Y472027D01*
X546058Y471942D01*
X545962Y471802D01*
X545858Y471667D01*
X545801Y471567D01*
X545736Y471472D01*
X545660Y471320D01*
X545576Y471172D01*
X545533Y471065D01*
X545482Y470962D01*
X545428Y470801D01*
X545365Y470643D01*
X545338Y470530D01*
X545302Y470421D01*
X545271Y470254D01*
X545231Y470089D01*
X545220Y469974D01*
X545200Y469861D01*
X545193Y469691D01*
X545176Y469522D01*
X545181Y469407D01*
X545176Y469291D01*
X545193Y469122D01*
X545201Y468952D01*
X545222Y468839D01*
X545233Y468725D01*
X545274Y468559D01*
X545305Y468392D01*
X545341Y468283D01*
X545369Y468171D01*
X545432Y468013D01*
X545486Y467852D01*
X545538Y467749D01*
X545580Y467642D01*
X545665Y467495D01*
X545741Y467343D01*
X545807Y467248D01*
X545864Y467148D01*
X545937Y467059D01*
X546065Y466874D01*
X546290Y466630D01*
X546365Y466539D01*
X552742Y460162D01*
X554099Y458804D01*
X554525Y457777D01*
X554525Y390016D01*
X554529Y389956D01*
X554527Y389895D01*
X554549Y389671D01*
X554565Y389447D01*
X554577Y389388D01*
X554583Y389328D01*
X554637Y389110D01*
X554684Y388890D01*
X554704Y388834D01*
X554719Y388775D01*
X554802Y388566D01*
X554880Y388355D01*
X554908Y388302D01*
X554930Y388246D01*
X555042Y388051D01*
X555148Y387853D01*
X555184Y387804D01*
X555214Y387752D01*
X555289Y387661D01*
X555485Y387393D01*
X555642Y387232D01*
X555715Y387143D01*
X556229Y386629D01*
X557037Y384678D01*
X557037Y382567D01*
X556229Y380617D01*
X554736Y379124D01*
X552786Y378316D01*
X550674Y378316D01*
X548724Y379124D01*
X547231Y380617D01*
X546524Y382323D01*
X546423Y382567D01*
X546423Y384678D01*
X547231Y386629D01*
X547745Y387143D01*
X547785Y387188D01*
X547829Y387229D01*
X547971Y387403D01*
X548119Y387573D01*
X548152Y387623D01*
X548190Y387670D01*
X548306Y387862D01*
X548429Y388051D01*
X548454Y388106D01*
X548485Y388157D01*
X548574Y388364D01*
X548669Y388568D01*
X548686Y388626D01*
X548710Y388681D01*
X548768Y388898D01*
X548834Y389113D01*
X548843Y389173D01*
X548859Y389231D01*
X548870Y389348D01*
X548921Y389676D01*
X548924Y389901D01*
X548935Y390016D01*
X548935Y454381D01*
X548931Y454441D01*
X548933Y454501D01*
X548911Y454725D01*
X548895Y454949D01*
X548883Y455008D01*
X548877Y455068D01*
X548823Y455286D01*
X548776Y455506D01*
X548756Y455563D01*
X548741Y455622D01*
X548658Y455830D01*
X548580Y456041D01*
X548552Y456095D01*
X548530Y456151D01*
X548418Y456345D01*
X548312Y456544D01*
X548276Y456592D01*
X548246Y456645D01*
X548171Y456736D01*
X547975Y457004D01*
X547818Y457165D01*
X547745Y457254D01*
X542461Y462538D01*
X542374Y462613D01*
X542294Y462696D01*
X542159Y462800D01*
X542031Y462912D01*
X541934Y462974D01*
X541843Y463045D01*
X541696Y463129D01*
X541553Y463221D01*
X541448Y463270D01*
X541348Y463327D01*
X541190Y463390D01*
X541036Y463461D01*
X540926Y463495D01*
X540819Y463537D01*
X540653Y463577D01*
X540491Y463626D01*
X540377Y463644D01*
X540265Y463671D01*
X540095Y463688D01*
X539928Y463714D01*
X539813Y463715D01*
X539698Y463726D01*
X539528Y463719D01*
X539358Y463721D01*
X539244Y463707D01*
X539128Y463702D01*
X538961Y463671D01*
X538793Y463649D01*
X538681Y463619D01*
X538568Y463598D01*
X538407Y463544D01*
X538243Y463499D01*
X538137Y463453D01*
X538028Y463417D01*
X537876Y463340D01*
X537720Y463273D01*
X537622Y463213D01*
X537519Y463161D01*
X537379Y463065D01*
X537234Y462976D01*
X537145Y462903D01*
X537050Y462838D01*
X536925Y462722D01*
X536793Y462614D01*
X536716Y462529D01*
X536631Y462451D01*
X536523Y462320D01*
X536408Y462194D01*
X536343Y462100D01*
X536270Y462010D01*
X536182Y461865D01*
X536086Y461725D01*
X536034Y461622D01*
X535975Y461523D01*
X535908Y461367D01*
X535832Y461215D01*
X535796Y461105D01*
X535750Y460999D01*
X535706Y460835D01*
X535652Y460674D01*
X535631Y460561D01*
X535601Y460449D01*
X535590Y460335D01*
X535550Y460113D01*
X535536Y459782D01*
X535525Y459665D01*
X535525Y455368D01*
X534985Y454829D01*
X534945Y454783D01*
X534901Y454742D01*
X534759Y454568D01*
X534611Y454398D01*
X534578Y454348D01*
X534540Y454301D01*
X534423Y454109D01*
X534301Y453920D01*
X534276Y453865D01*
X534245Y453814D01*
X534156Y453607D01*
X534061Y453403D01*
X534044Y453345D01*
X534020Y453290D01*
X533962Y453073D01*
X533896Y452858D01*
X533887Y452798D01*
X533871Y452740D01*
X533860Y452623D01*
X533809Y452295D01*
X533806Y452070D01*
X533795Y451955D01*
X533795Y383189D01*
X533799Y383129D01*
X533797Y383069D01*
X533819Y382845D01*
X533835Y382621D01*
X533847Y382562D01*
X533853Y382502D01*
X533907Y382283D01*
X533954Y382064D01*
X533974Y382007D01*
X533989Y381948D01*
X534072Y381739D01*
X534150Y381528D01*
X534178Y381475D01*
X534200Y381419D01*
X534312Y381224D01*
X534418Y381026D01*
X534454Y380977D01*
X534484Y380925D01*
X534559Y380834D01*
X534755Y380566D01*
X534912Y380405D01*
X534985Y380316D01*
X535613Y379688D01*
X536421Y377738D01*
X536421Y375626D01*
X535613Y373676D01*
X534120Y372183D01*
X532170Y371375D01*
X530058Y371375D01*
X528893Y371858D01*
X528729Y371913D01*
X528569Y371977D01*
X528459Y372003D01*
X528353Y372039D01*
X528183Y372070D01*
X528015Y372111D01*
X527903Y372122D01*
X527792Y372142D01*
X527620Y372149D01*
X527448Y372166D01*
X527335Y372161D01*
X527223Y372166D01*
X527051Y372149D01*
X526878Y372141D01*
X526768Y372121D01*
X526656Y372110D01*
X526488Y372069D01*
X526318Y372037D01*
X526212Y372001D01*
X526102Y371975D01*
X525942Y371911D01*
X525778Y371856D01*
X525677Y371806D01*
X525573Y371764D01*
X525423Y371678D01*
X525269Y371601D01*
X525176Y371537D01*
X525078Y371481D01*
X524942Y371375D01*
X524800Y371277D01*
X524717Y371201D01*
X524628Y371132D01*
X524508Y371008D01*
X524381Y370891D01*
X524310Y370804D01*
X524231Y370723D01*
X524130Y370584D01*
X524020Y370450D01*
X523962Y370353D01*
X523896Y370263D01*
X523814Y370110D01*
X523725Y369963D01*
X523680Y369859D01*
X523627Y369760D01*
X523568Y369598D01*
X523500Y369439D01*
X523471Y369330D01*
X523432Y369225D01*
X523396Y369056D01*
X523351Y368889D01*
X523343Y368804D01*
X523314Y368667D01*
X523276Y368117D01*
X523275Y368104D01*
X523275Y357367D01*
X522382Y356474D01*
X520312Y356474D01*
X520252Y356470D01*
X520191Y356472D01*
X519968Y356450D01*
X519744Y356434D01*
X519684Y356422D01*
X519624Y356416D01*
X519406Y356362D01*
X519186Y356315D01*
X519130Y356295D01*
X519071Y356280D01*
X518862Y356197D01*
X518651Y356119D01*
X518598Y356091D01*
X518542Y356069D01*
X518347Y355957D01*
X518149Y355851D01*
X518100Y355815D01*
X518048Y355785D01*
X517957Y355710D01*
X517689Y355514D01*
X517528Y355357D01*
X517439Y355284D01*
X514990Y352836D01*
X513963Y352410D01*
X506858Y352410D01*
X506629Y352394D01*
X506398Y352384D01*
X506344Y352374D01*
X506290Y352370D01*
X506064Y352322D01*
X505838Y352280D01*
X505786Y352263D01*
X505732Y352251D01*
X505516Y352172D01*
X505298Y352099D01*
X505249Y352074D01*
X505197Y352055D01*
X504994Y351947D01*
X504789Y351844D01*
X504743Y351813D01*
X504695Y351787D01*
X504509Y351651D01*
X504320Y351520D01*
X504279Y351483D01*
X504235Y351450D01*
X504070Y351290D01*
X503901Y351134D01*
X503866Y351091D01*
X503827Y351053D01*
X503686Y350870D01*
X503540Y350693D01*
X503512Y350645D01*
X503478Y350602D01*
X503364Y350402D01*
X503245Y350205D01*
X503223Y350155D01*
X503196Y350107D01*
X503111Y349893D01*
X503020Y349682D01*
X503006Y349629D01*
X502986Y349578D01*
X502931Y349353D01*
X502871Y349132D01*
X502867Y349088D01*
X502851Y349024D01*
X502796Y348457D01*
X502799Y348394D01*
X502796Y348367D01*
X502796Y348363D01*
X502795Y348347D01*
X502795Y343010D01*
X502811Y342781D01*
X502821Y342550D01*
X502831Y342496D01*
X502835Y342442D01*
X502883Y342216D01*
X502925Y341990D01*
X502942Y341938D01*
X502954Y341884D01*
X503033Y341668D01*
X503106Y341450D01*
X503131Y341401D01*
X503150Y341349D01*
X503258Y341146D01*
X503361Y340941D01*
X503392Y340895D01*
X503418Y340847D01*
X503554Y340661D01*
X503685Y340472D01*
X503722Y340431D01*
X503755Y340387D01*
X503915Y340222D01*
X504071Y340053D01*
X504114Y340018D01*
X504152Y339979D01*
X504334Y339838D01*
X504512Y339692D01*
X504560Y339664D01*
X504603Y339630D01*
X504803Y339516D01*
X505000Y339397D01*
X505050Y339375D01*
X505098Y339348D01*
X505312Y339263D01*
X505523Y339172D01*
X505576Y339158D01*
X505627Y339138D01*
X505852Y339083D01*
X506073Y339023D01*
X506117Y339019D01*
X506181Y339003D01*
X506748Y338948D01*
X506814Y338951D01*
X506858Y338947D01*
X590422Y338947D01*
X591729Y338405D01*
X842363Y87772D01*
X842536Y87621D01*
X842706Y87465D01*
X842751Y87434D01*
X842793Y87398D01*
X842986Y87273D01*
X843176Y87143D01*
X843225Y87118D01*
X843271Y87088D01*
X843480Y86992D01*
X843686Y86889D01*
X843738Y86872D01*
X843788Y86848D01*
X844008Y86782D01*
X844227Y86709D01*
X844281Y86699D01*
X844333Y86683D01*
X844560Y86648D01*
X844787Y86607D01*
X844842Y86604D01*
X844896Y86596D01*
X845126Y86593D01*
X845356Y86583D01*
X845411Y86589D01*
X845466Y86588D01*
X845694Y86617D01*
X845923Y86640D01*
X845977Y86653D01*
X846031Y86660D01*
X846254Y86721D01*
X846477Y86776D01*
X846528Y86796D01*
X846581Y86811D01*
X846792Y86902D01*
X847006Y86987D01*
X847053Y87015D01*
X847104Y87037D01*
X847300Y87156D01*
X847500Y87271D01*
X847534Y87299D01*
X847590Y87333D01*
X848030Y87695D01*
X848075Y87744D01*
X848109Y87772D01*
X848656Y88319D01*
X850606Y89127D01*
X852718Y89127D01*
X854668Y88319D01*
X856161Y86826D01*
X856234Y86649D01*
X856969Y84876D01*
X856969Y84149D01*
X856973Y84089D01*
X856971Y84028D01*
X856993Y83808D01*
X856998Y83686D01*
X857003Y83657D01*
X857009Y83580D01*
X857021Y83521D01*
X857027Y83461D01*
X857078Y83254D01*
X857102Y83126D01*
X857113Y83093D01*
X857128Y83023D01*
X857148Y82967D01*
X857163Y82908D01*
X857239Y82718D01*
X857283Y82586D01*
X857301Y82551D01*
X857324Y82488D01*
X857352Y82435D01*
X857374Y82379D01*
X857471Y82210D01*
X857538Y82076D01*
X857563Y82040D01*
X857592Y81986D01*
X857628Y81937D01*
X857658Y81884D01*
X857733Y81793D01*
X857745Y81777D01*
X857862Y81607D01*
X857895Y81571D01*
X857929Y81526D01*
X858086Y81365D01*
X858159Y81276D01*
X916450Y22985D01*
X916495Y22945D01*
X916536Y22901D01*
X916710Y22759D01*
X916880Y22611D01*
X916930Y22578D01*
X916977Y22540D01*
X917169Y22423D01*
X917358Y22301D01*
X917413Y22276D01*
X917464Y22245D01*
X917671Y22156D01*
X917875Y22061D01*
X917933Y22044D01*
X917988Y22020D01*
X918205Y21962D01*
X918420Y21896D01*
X918480Y21887D01*
X918538Y21871D01*
X918655Y21860D01*
X918983Y21809D01*
X919208Y21806D01*
X919323Y21795D01*
X975292Y21795D01*
X975352Y21799D01*
G37*
G36*
X532641Y476605D02*
X532641Y476605D01*
X532872Y476615D01*
X532926Y476625D01*
X532980Y476629D01*
X533206Y476677D01*
X533432Y476719D01*
X533484Y476736D01*
X533538Y476748D01*
X533754Y476827D01*
X533972Y476900D01*
X534021Y476925D01*
X534073Y476944D01*
X534276Y477052D01*
X534481Y477155D01*
X534527Y477186D01*
X534575Y477212D01*
X534761Y477348D01*
X534950Y477479D01*
X534991Y477516D01*
X535035Y477549D01*
X535200Y477709D01*
X535369Y477865D01*
X535404Y477908D01*
X535443Y477946D01*
X535584Y478128D01*
X535730Y478306D01*
X535758Y478354D01*
X535792Y478397D01*
X535906Y478597D01*
X536025Y478794D01*
X536047Y478844D01*
X536074Y478892D01*
X536159Y479106D01*
X536250Y479317D01*
X536264Y479370D01*
X536284Y479421D01*
X536339Y479646D01*
X536399Y479867D01*
X536403Y479911D01*
X536419Y479975D01*
X536474Y480542D01*
X536471Y480608D01*
X536475Y480652D01*
X536475Y495476D01*
X536459Y495708D01*
X536449Y495939D01*
X536439Y495991D01*
X536435Y496045D01*
X536387Y496271D01*
X536345Y496499D01*
X536327Y496550D01*
X536316Y496602D01*
X536237Y496819D01*
X536163Y497039D01*
X536142Y497077D01*
X536120Y497137D01*
X535852Y497639D01*
X535812Y497693D01*
X535790Y497734D01*
X535748Y497797D01*
X535673Y497978D01*
X535780Y498001D01*
X535893Y498015D01*
X535936Y498027D01*
X535983Y498034D01*
X536102Y498070D01*
X536223Y498096D01*
X536332Y498136D01*
X536442Y498166D01*
X536484Y498184D01*
X536529Y498197D01*
X536641Y498249D01*
X536758Y498291D01*
X536860Y498346D01*
X536965Y498392D01*
X537004Y498415D01*
X537047Y498435D01*
X537123Y498487D01*
X537260Y498560D01*
X537354Y498628D01*
X537452Y498688D01*
X537583Y498796D01*
X537652Y498847D01*
X537698Y498878D01*
X537699Y498879D01*
X537709Y498888D01*
X537720Y498897D01*
X537803Y498977D01*
X537892Y499050D01*
X537997Y499165D01*
X538110Y499273D01*
X538119Y499284D01*
X538128Y499294D01*
X538199Y499385D01*
X538277Y499470D01*
X538365Y499599D01*
X538462Y499721D01*
X538469Y499734D01*
X538477Y499745D01*
X538534Y499844D01*
X538600Y499940D01*
X538669Y500080D01*
X538747Y500214D01*
X538753Y500228D01*
X538759Y500240D01*
X538802Y500346D01*
X538853Y500450D01*
X538903Y500598D01*
X538961Y500742D01*
X538965Y500757D01*
X538970Y500769D01*
X538996Y500880D01*
X539033Y500991D01*
X539061Y501144D01*
X539099Y501295D01*
X539101Y501310D01*
X539104Y501323D01*
X539115Y501436D01*
X539136Y501551D01*
X539142Y501707D01*
X539158Y501862D01*
X539158Y501877D01*
X539159Y501890D01*
X539154Y502004D01*
X539159Y502121D01*
X539143Y502276D01*
X539138Y502431D01*
X539135Y502446D01*
X539134Y502460D01*
X539114Y502571D01*
X539102Y502687D01*
X539065Y502839D01*
X539038Y502992D01*
X539033Y503007D01*
X539030Y503020D01*
X538994Y503128D01*
X538967Y503241D01*
X538909Y503386D01*
X538860Y503534D01*
X538853Y503547D01*
X538849Y503560D01*
X538798Y503662D01*
X538755Y503770D01*
X538677Y503905D01*
X538609Y504045D01*
X538600Y504057D01*
X538594Y504070D01*
X538529Y504164D01*
X538471Y504264D01*
X538402Y504349D01*
X538288Y504516D01*
X538278Y504527D01*
X538270Y504538D01*
X538087Y504737D01*
X538040Y504789D01*
X537971Y504873D01*
X537970Y504873D01*
X537936Y504903D01*
X537905Y504938D01*
X537894Y504947D01*
X537884Y504957D01*
X537710Y505100D01*
X537540Y505247D01*
X537501Y505272D01*
X537466Y505301D01*
X537454Y505309D01*
X537443Y505318D01*
X537250Y505435D01*
X537062Y505557D01*
X537020Y505576D01*
X536981Y505600D01*
X536968Y505606D01*
X536956Y505613D01*
X536749Y505702D01*
X536545Y505797D01*
X536500Y505810D01*
X536459Y505828D01*
X536446Y505832D01*
X536432Y505838D01*
X536215Y505897D01*
X536000Y505962D01*
X535953Y505969D01*
X535910Y505981D01*
X535897Y505983D01*
X535882Y505987D01*
X535823Y505993D01*
X535679Y506012D01*
X535670Y506013D01*
X535748Y506203D01*
X535790Y506266D01*
X535905Y506467D01*
X536025Y506665D01*
X536046Y506715D01*
X536073Y506761D01*
X536159Y506976D01*
X536250Y507189D01*
X536264Y507241D01*
X536284Y507291D01*
X536338Y507516D01*
X536399Y507739D01*
X536403Y507782D01*
X536418Y507844D01*
X536474Y508411D01*
X536471Y508479D01*
X536475Y508524D01*
X536475Y511142D01*
X536459Y511371D01*
X536449Y511602D01*
X536439Y511656D01*
X536435Y511710D01*
X536387Y511936D01*
X536345Y512162D01*
X536328Y512214D01*
X536316Y512268D01*
X536237Y512484D01*
X536164Y512702D01*
X536139Y512751D01*
X536120Y512803D01*
X536012Y513006D01*
X535909Y513211D01*
X535878Y513257D01*
X535852Y513305D01*
X535716Y513491D01*
X535585Y513680D01*
X535548Y513721D01*
X535515Y513765D01*
X535355Y513930D01*
X535199Y514099D01*
X535156Y514134D01*
X535118Y514173D01*
X534936Y514314D01*
X534758Y514460D01*
X534710Y514488D01*
X534667Y514522D01*
X534467Y514636D01*
X534270Y514755D01*
X534220Y514777D01*
X534172Y514804D01*
X533958Y514889D01*
X533747Y514980D01*
X533694Y514994D01*
X533643Y515014D01*
X533418Y515069D01*
X533197Y515129D01*
X533153Y515133D01*
X533089Y515149D01*
X532522Y515204D01*
X532456Y515201D01*
X532412Y515205D01*
X475944Y515205D01*
X475143Y515537D01*
X474980Y515592D01*
X474819Y515656D01*
X474709Y515682D01*
X474603Y515718D01*
X474433Y515749D01*
X474265Y515790D01*
X474153Y515801D01*
X474042Y515821D01*
X473870Y515828D01*
X473698Y515845D01*
X473585Y515840D01*
X473473Y515845D01*
X473301Y515828D01*
X473128Y515820D01*
X473018Y515800D01*
X472906Y515789D01*
X472738Y515748D01*
X472568Y515716D01*
X472462Y515681D01*
X472352Y515654D01*
X472192Y515590D01*
X472028Y515535D01*
X471927Y515485D01*
X471823Y515443D01*
X471673Y515357D01*
X471519Y515280D01*
X471426Y515216D01*
X471328Y515160D01*
X471192Y515054D01*
X471050Y514956D01*
X470967Y514880D01*
X470878Y514811D01*
X470758Y514687D01*
X470631Y514570D01*
X470560Y514483D01*
X470481Y514402D01*
X470380Y514263D01*
X470270Y514129D01*
X470212Y514032D01*
X470145Y513942D01*
X470064Y513789D01*
X469975Y513642D01*
X469930Y513538D01*
X469877Y513439D01*
X469818Y513277D01*
X469750Y513118D01*
X469721Y513009D01*
X469682Y512904D01*
X469646Y512735D01*
X469601Y512568D01*
X469593Y512483D01*
X469564Y512346D01*
X469526Y511796D01*
X469525Y511783D01*
X469525Y480652D01*
X469541Y480423D01*
X469551Y480192D01*
X469561Y480138D01*
X469565Y480084D01*
X469613Y479858D01*
X469655Y479632D01*
X469672Y479580D01*
X469684Y479526D01*
X469763Y479310D01*
X469836Y479092D01*
X469861Y479043D01*
X469880Y478991D01*
X469988Y478788D01*
X470091Y478583D01*
X470122Y478537D01*
X470148Y478489D01*
X470284Y478303D01*
X470415Y478114D01*
X470452Y478073D01*
X470485Y478029D01*
X470645Y477864D01*
X470801Y477695D01*
X470844Y477660D01*
X470882Y477621D01*
X471064Y477480D01*
X471242Y477334D01*
X471290Y477306D01*
X471333Y477272D01*
X471533Y477158D01*
X471730Y477039D01*
X471780Y477017D01*
X471828Y476990D01*
X472042Y476905D01*
X472253Y476814D01*
X472306Y476800D01*
X472357Y476780D01*
X472582Y476725D01*
X472803Y476665D01*
X472847Y476661D01*
X472911Y476645D01*
X473478Y476590D01*
X473544Y476593D01*
X473588Y476589D01*
X532412Y476589D01*
X532641Y476605D01*
G37*
%LPC*%
G36*
X936076Y926373D02*
X936076Y926373D01*
X929745Y931155D01*
X925568Y937901D01*
X924110Y945700D01*
X925568Y953499D01*
X929745Y960245D01*
X936076Y965027D01*
X943708Y967198D01*
X951608Y966466D01*
X958711Y962929D01*
X964056Y957066D01*
X966923Y949667D01*
X966923Y941733D01*
X964056Y934334D01*
X958711Y928471D01*
X951608Y924934D01*
X943708Y924202D01*
X936076Y926373D01*
G37*
%LPD*%
%LPC*%
G36*
X44676Y926373D02*
X44676Y926373D01*
X38345Y931155D01*
X34168Y937901D01*
X32710Y945700D01*
X34168Y953499D01*
X38345Y960245D01*
X44676Y965027D01*
X52308Y967198D01*
X60208Y966466D01*
X67311Y962929D01*
X72656Y957066D01*
X75523Y949667D01*
X75523Y941733D01*
X72656Y934334D01*
X67311Y928471D01*
X60208Y924934D01*
X52308Y924202D01*
X44676Y926373D01*
G37*
%LPD*%
%LPC*%
G36*
X44676Y34973D02*
X44676Y34973D01*
X38345Y39755D01*
X34168Y46501D01*
X32710Y54300D01*
X34168Y62099D01*
X38345Y68845D01*
X44676Y73627D01*
X52308Y75798D01*
X60208Y75066D01*
X67311Y71529D01*
X72656Y65666D01*
X75523Y58267D01*
X75523Y50333D01*
X72656Y42934D01*
X67311Y37071D01*
X60208Y33534D01*
X52308Y32802D01*
X44676Y34973D01*
G37*
%LPD*%
%LPC*%
G36*
X936076Y34973D02*
X936076Y34973D01*
X929745Y39755D01*
X925568Y46501D01*
X924110Y54300D01*
X925568Y62099D01*
X929745Y68845D01*
X936076Y73627D01*
X943708Y75798D01*
X951608Y75066D01*
X958711Y71529D01*
X964056Y65666D01*
X966923Y58267D01*
X966923Y50333D01*
X964056Y42934D01*
X958711Y37071D01*
X951608Y33534D01*
X943708Y32802D01*
X936076Y34973D01*
G37*
%LPD*%
%LPC*%
G36*
X375118Y480341D02*
X375118Y480341D01*
X373168Y481149D01*
X372654Y481663D01*
X372608Y481703D01*
X372567Y481747D01*
X372393Y481889D01*
X372224Y482037D01*
X372173Y482070D01*
X372126Y482108D01*
X371934Y482225D01*
X371746Y482347D01*
X371691Y482372D01*
X371639Y482403D01*
X371433Y482492D01*
X371229Y482587D01*
X371171Y482604D01*
X371116Y482628D01*
X370899Y482686D01*
X370683Y482752D01*
X370624Y482761D01*
X370566Y482777D01*
X370448Y482788D01*
X370120Y482839D01*
X369896Y482842D01*
X369781Y482853D01*
X278796Y482853D01*
X277769Y483279D01*
X276411Y484636D01*
X244475Y516573D01*
X244301Y516724D01*
X244132Y516879D01*
X244086Y516910D01*
X244045Y516946D01*
X243852Y517071D01*
X243662Y517202D01*
X243613Y517226D01*
X243567Y517256D01*
X243358Y517353D01*
X243152Y517456D01*
X243100Y517473D01*
X243050Y517496D01*
X242830Y517563D01*
X242611Y517635D01*
X242557Y517645D01*
X242505Y517661D01*
X242277Y517696D01*
X242051Y517738D01*
X241996Y517740D01*
X241942Y517748D01*
X241712Y517752D01*
X241481Y517761D01*
X241426Y517755D01*
X241372Y517756D01*
X241144Y517727D01*
X240914Y517704D01*
X240861Y517691D01*
X240807Y517684D01*
X240584Y517623D01*
X240361Y517568D01*
X240310Y517548D01*
X240257Y517534D01*
X240122Y517475D01*
X228368Y517475D01*
X227475Y518368D01*
X227475Y543632D01*
X228368Y544525D01*
X239632Y544525D01*
X240525Y543632D01*
X240525Y530111D01*
X240529Y530050D01*
X240527Y529990D01*
X240549Y529767D01*
X240565Y529542D01*
X240577Y529483D01*
X240583Y529423D01*
X240637Y529205D01*
X240684Y528985D01*
X240704Y528928D01*
X240719Y528870D01*
X240802Y528661D01*
X240880Y528450D01*
X240908Y528397D01*
X240930Y528341D01*
X241042Y528146D01*
X241148Y527948D01*
X241184Y527899D01*
X241214Y527846D01*
X241289Y527755D01*
X241485Y527488D01*
X241642Y527327D01*
X241715Y527237D01*
X279320Y489633D01*
X279365Y489593D01*
X279406Y489549D01*
X279580Y489407D01*
X279750Y489259D01*
X279800Y489226D01*
X279847Y489188D01*
X280039Y489071D01*
X280228Y488949D01*
X280283Y488924D01*
X280334Y488893D01*
X280541Y488804D01*
X280745Y488709D01*
X280803Y488692D01*
X280858Y488668D01*
X281075Y488610D01*
X281290Y488544D01*
X281350Y488535D01*
X281408Y488519D01*
X281525Y488508D01*
X281853Y488457D01*
X282078Y488454D01*
X282193Y488443D01*
X369781Y488443D01*
X369841Y488447D01*
X369901Y488445D01*
X370125Y488467D01*
X370349Y488483D01*
X370408Y488495D01*
X370468Y488501D01*
X370687Y488555D01*
X370906Y488602D01*
X370963Y488622D01*
X371022Y488637D01*
X371231Y488720D01*
X371442Y488798D01*
X371495Y488826D01*
X371551Y488848D01*
X371746Y488960D01*
X371944Y489066D01*
X371993Y489102D01*
X372045Y489132D01*
X372136Y489207D01*
X372404Y489403D01*
X372565Y489560D01*
X372654Y489633D01*
X373168Y490147D01*
X375118Y490955D01*
X377230Y490955D01*
X379180Y490147D01*
X380673Y488654D01*
X381481Y486704D01*
X381481Y484592D01*
X380673Y482642D01*
X379180Y481149D01*
X377230Y480341D01*
X375118Y480341D01*
G37*
%LPD*%
%LPC*%
G36*
X238063Y469063D02*
X238063Y469063D01*
X238063Y479541D01*
X239250Y479541D01*
X239741Y479443D01*
X240203Y479252D01*
X240620Y478973D01*
X240973Y478620D01*
X241252Y478203D01*
X241443Y477741D01*
X241541Y477250D01*
X241541Y469063D01*
X238063Y469063D01*
G37*
%LPD*%
%LPC*%
G36*
X238063Y450459D02*
X238063Y450459D01*
X238063Y460937D01*
X241541Y460937D01*
X241541Y452750D01*
X241443Y452259D01*
X241252Y451797D01*
X240973Y451380D01*
X240620Y451027D01*
X240203Y450748D01*
X239741Y450557D01*
X239250Y450459D01*
X238063Y450459D01*
G37*
%LPD*%
%LPC*%
G36*
X226459Y469063D02*
X226459Y469063D01*
X226459Y477250D01*
X226557Y477741D01*
X226748Y478203D01*
X227027Y478620D01*
X227380Y478973D01*
X227797Y479252D01*
X228259Y479443D01*
X228750Y479541D01*
X229937Y479541D01*
X229937Y469063D01*
X226459Y469063D01*
G37*
%LPD*%
%LPC*%
G36*
X228750Y450459D02*
X228750Y450459D01*
X228259Y450557D01*
X227797Y450748D01*
X227380Y451027D01*
X227027Y451380D01*
X226748Y451797D01*
X226557Y452259D01*
X226459Y452750D01*
X226459Y460937D01*
X229937Y460937D01*
X229937Y450459D01*
X228750Y450459D01*
G37*
%LPD*%
%LPC*%
G36*
X419163Y360859D02*
X419163Y360859D01*
X419163Y365537D01*
X425141Y365537D01*
X425141Y363150D01*
X425043Y362659D01*
X424852Y362197D01*
X424573Y361780D01*
X424220Y361427D01*
X423803Y361148D01*
X423341Y360957D01*
X422850Y360859D01*
X419163Y360859D01*
G37*
%LPD*%
%LPC*%
G36*
X510641Y314293D02*
X510641Y314293D01*
X510641Y320271D01*
X515319Y320271D01*
X515319Y316584D01*
X515221Y316093D01*
X515030Y315631D01*
X514751Y315214D01*
X514398Y314861D01*
X513981Y314582D01*
X513519Y314391D01*
X513028Y314293D01*
X510641Y314293D01*
G37*
%LPD*%
%LPC*%
G36*
X407350Y360859D02*
X407350Y360859D01*
X406859Y360957D01*
X406397Y361148D01*
X405980Y361427D01*
X405627Y361780D01*
X405348Y362197D01*
X405157Y362659D01*
X405059Y363150D01*
X405059Y365537D01*
X411037Y365537D01*
X411037Y360859D01*
X407350Y360859D01*
G37*
%LPD*%
%LPC*%
G36*
X1000706Y46962D02*
X1000706Y46962D01*
X1000785Y47041D01*
X1009136Y47041D01*
X1009215Y46962D01*
X1004960Y42707D01*
X1000706Y46962D01*
G37*
%LPD*%
%LPC*%
G36*
X460763Y360684D02*
X460763Y360684D01*
X460763Y364537D01*
X464241Y364537D01*
X464241Y362975D01*
X464143Y362484D01*
X463952Y362022D01*
X463673Y361605D01*
X463320Y361252D01*
X462903Y360973D01*
X462441Y360782D01*
X461950Y360684D01*
X460763Y360684D01*
G37*
%LPD*%
%LPC*%
G36*
X587051Y355040D02*
X587051Y355040D01*
X587051Y358893D01*
X590529Y358893D01*
X590529Y357331D01*
X590431Y356840D01*
X590240Y356378D01*
X589961Y355961D01*
X589608Y355608D01*
X589191Y355329D01*
X588729Y355138D01*
X588238Y355040D01*
X587051Y355040D01*
G37*
%LPD*%
%LPC*%
G36*
X451450Y360684D02*
X451450Y360684D01*
X450959Y360782D01*
X450497Y360973D01*
X450080Y361252D01*
X449727Y361605D01*
X449448Y362022D01*
X449257Y362484D01*
X449159Y362975D01*
X449159Y364537D01*
X452637Y364537D01*
X452637Y360684D01*
X451450Y360684D01*
G37*
%LPD*%
%LPC*%
G36*
X577738Y355040D02*
X577738Y355040D01*
X577247Y355138D01*
X576785Y355329D01*
X576368Y355608D01*
X576015Y355961D01*
X575736Y356378D01*
X575545Y356840D01*
X575447Y357331D01*
X575447Y358893D01*
X578925Y358893D01*
X578925Y355040D01*
X577738Y355040D01*
G37*
%LPD*%
%LPC*%
G36*
X377203Y364091D02*
X377203Y364091D01*
X377203Y366569D01*
X379681Y366569D01*
X379681Y366382D01*
X379583Y365891D01*
X379392Y365429D01*
X379113Y365012D01*
X378760Y364659D01*
X378343Y364380D01*
X377881Y364189D01*
X377390Y364091D01*
X377203Y364091D01*
G37*
%LPD*%
%LPC*%
G36*
X368890Y364091D02*
X368890Y364091D01*
X368399Y364189D01*
X367937Y364380D01*
X367520Y364659D01*
X367167Y365012D01*
X366888Y365429D01*
X366697Y365891D01*
X366599Y366382D01*
X366599Y366569D01*
X369077Y366569D01*
X369077Y364091D01*
X368890Y364091D01*
G37*
%LPD*%
D10*
X487578Y324334D03*
X506578Y324334D03*
D11*
X456700Y385600D03*
X456700Y368600D03*
X582988Y379956D03*
X582988Y362956D03*
D12*
X415100Y388600D03*
X415100Y369600D03*
D13*
X373140Y370632D03*
X373140Y385632D03*
D14*
X372400Y430100D03*
X389400Y430100D03*
D15*
X500000Y363999D03*
X509500Y363999D03*
X519000Y363999D03*
X519000Y390001D03*
X500000Y390001D03*
D16*
X969039Y1039D03*
X987000Y19000D03*
X1004961Y36961D03*
D17*
X531000Y548500D03*
X523000Y548500D03*
X515000Y548500D03*
X507000Y548500D03*
X499000Y548500D03*
X491000Y548500D03*
X483000Y548500D03*
X475000Y548500D03*
D18*
X460500Y534000D03*
X460500Y526000D03*
X460500Y518000D03*
X460500Y510000D03*
X460500Y502000D03*
X460500Y494000D03*
X460500Y486000D03*
X460500Y478000D03*
D17*
X475000Y463500D03*
X483000Y463500D03*
X491000Y463500D03*
X499000Y463500D03*
X507000Y463500D03*
X515000Y463500D03*
X523000Y463500D03*
X531000Y463500D03*
D18*
X545500Y478000D03*
X545500Y486000D03*
X545500Y494000D03*
X545500Y502000D03*
X545500Y510000D03*
X545500Y518000D03*
X545500Y526000D03*
X545500Y534000D03*
D19*
X234000Y531000D03*
X234000Y465000D03*
D20*
X483000Y239550D03*
X489500Y239550D03*
X496000Y239550D03*
X502500Y239550D03*
X509000Y239550D03*
D21*
X473750Y245050D03*
X518250Y245050D03*
D22*
X531000Y224050D03*
X461000Y224050D03*
D23*
X788000Y516700D03*
X788000Y491300D03*
D24*
X415100Y369600D02*
X374341Y369600D01*
X373140Y370632D01*
X415100Y369600D02*
X455700Y369600D01*
X456700Y368600D01*
X496093Y372793D02*
X503907Y372793D01*
X505544Y371156D01*
X491900Y368600D02*
X456700Y368600D01*
X491900Y368600D02*
X496093Y372793D01*
X278772Y465000D02*
X234000Y465000D01*
X278772Y465000D02*
X373140Y370632D01*
X505544Y371156D02*
X505544Y367955D01*
X509500Y363999D01*
X484500Y502000D02*
X545500Y502000D01*
X469157Y523794D02*
X462706Y523794D01*
X460500Y526000D01*
X469157Y523794D02*
X470794Y522157D01*
X462706Y523794D02*
X451843Y523794D01*
X509500Y408801D02*
X509500Y363999D01*
X509500Y408801D02*
X446142Y472159D01*
X446142Y518093D02*
X451843Y523794D01*
X446142Y518093D02*
X446142Y472159D01*
X484500Y502000D02*
X470794Y515706D01*
X470794Y522157D01*
X961934Y31370D02*
X967525Y36961D01*
X961934Y31370D02*
X914574Y31370D01*
X582988Y362956D01*
X581945Y363999D01*
X515093Y372793D02*
X513456Y371156D01*
X515093Y372793D02*
X522907Y372793D01*
X531701Y363999D02*
X581945Y363999D01*
X531701Y363999D02*
X522907Y372793D01*
X513456Y367955D02*
X509500Y363999D01*
X513456Y367955D02*
X513456Y371156D01*
D25*
X506578Y324334D02*
X509000Y321912D01*
X509000Y252722D02*
X509000Y239550D01*
X509000Y252722D02*
X508154Y253568D01*
X508154Y261932D01*
X509000Y262778D01*
X509000Y321912D01*
D24*
X531000Y376796D02*
X531000Y463500D01*
X531000Y376796D02*
X531114Y376682D01*
D26*
X531114Y376682D03*
X500634Y297942D03*
D24*
X500634Y288544D01*
X496000Y283910D01*
X496000Y239550D01*
X489500Y239550D02*
X489500Y296206D01*
X490982Y297688D01*
D26*
X490982Y297688D03*
X522732Y418338D03*
D24*
X522732Y463232D01*
X523000Y463500D01*
X503956Y356842D02*
X505593Y355205D01*
X513407Y355205D01*
X515044Y356842D01*
X515044Y360043D01*
X519000Y363999D01*
X503956Y360043D02*
X500000Y363999D01*
X503956Y360043D02*
X503956Y356842D01*
D25*
X955905Y14174D02*
X969039Y1039D01*
X955905Y14174D02*
X910931Y14174D01*
X487578Y324334D02*
X483000Y319756D01*
X483000Y262778D01*
X487578Y324334D02*
X487849Y324334D01*
X498905Y335390D01*
X589715Y335390D01*
X910931Y14174D01*
D24*
X500000Y336756D02*
X487578Y324334D01*
X500000Y336756D02*
X500000Y363999D01*
D25*
X483000Y262778D02*
X483846Y261932D01*
X483846Y253568D01*
X483000Y252722D01*
X483000Y239550D01*
D24*
X373140Y385632D02*
X372400Y385646D01*
X372400Y430100D01*
X389400Y430100D02*
X426720Y534416D01*
X460500Y534000D01*
X453700Y388600D02*
X415100Y388600D01*
X453700Y388600D02*
X456700Y385600D01*
X495599Y385600D01*
X500000Y390001D01*
X415100Y404400D02*
X389400Y430100D01*
X415100Y404400D02*
X415100Y388600D01*
X462706Y531794D02*
X460500Y534000D01*
X476500Y518000D02*
X545500Y518000D01*
X476500Y518000D02*
X474858Y519642D01*
X469157Y531794D02*
X462706Y531794D01*
X474858Y526093D02*
X474858Y519642D01*
X474858Y526093D02*
X469157Y531794D01*
X450206Y473843D02*
X451843Y472206D01*
X469157Y472206D01*
X450206Y473843D02*
X450206Y514157D01*
X470745Y473794D02*
X469157Y472206D01*
X470745Y473794D02*
X535157Y473794D01*
X551730Y457221D01*
X551730Y383623D01*
X916482Y19000D02*
X987000Y19000D01*
D26*
X551730Y383623D03*
X851662Y83820D03*
D24*
X916482Y19000D01*
X460500Y518000D02*
X454049Y518000D01*
X450206Y514157D01*
X580200Y491300D02*
X788000Y491300D01*
X580200Y491300D02*
X555794Y515706D01*
X555794Y522157D01*
X554157Y523794D01*
X547706Y523794D01*
X545500Y526000D01*
X545500Y534000D02*
X770700Y534000D01*
X788000Y516700D01*
X547706Y507794D02*
X545500Y510000D01*
X547706Y507794D02*
X554157Y507794D01*
X582988Y478963D01*
X582988Y379956D01*
X279352Y485648D02*
X234000Y531000D01*
X279352Y485648D02*
X376174Y485648D01*
D26*
X376174Y485648D03*
X563880Y484886D03*
D24*
X562788Y483794D01*
X547706Y483794D01*
X545500Y486000D01*
M02*
