G04 EAGLE Gerber RS-274X export*
G75*
%MOMM*%
%FSLAX34Y34*%
%LPD*%
%INSilkscreen Top*%
%IPPOS*%
%AMOC8*
5,1,8,0,0,1.08239X$1,22.5*%
G01*
%ADD10C,0.101600*%
%ADD11C,0.050800*%
%ADD12C,0.152400*%
%ADD13C,0.304800*%
%ADD14R,0.762000X0.127000*%
%ADD15C,0.203200*%
%ADD16C,0.076200*%
%ADD17C,0.200000*%
%ADD18C,0.400000*%
%ADD19C,0.100000*%
%ADD20C,0.100000*%
%ADD21C,0.200000*%

G36*
X373179Y375978D02*
X373179Y375978D01*
X373199Y375976D01*
X373300Y376001D01*
X373402Y376020D01*
X373419Y376030D01*
X373438Y376034D01*
X373526Y376090D01*
X373616Y376141D01*
X373633Y376158D01*
X373646Y376166D01*
X373666Y376191D01*
X373734Y376259D01*
X376274Y379434D01*
X376289Y379460D01*
X376310Y379482D01*
X376349Y379567D01*
X376395Y379649D01*
X376401Y379678D01*
X376413Y379705D01*
X376423Y379798D01*
X376441Y379890D01*
X376437Y379920D01*
X376440Y379949D01*
X376420Y380041D01*
X376408Y380134D01*
X376394Y380161D01*
X376388Y380190D01*
X376340Y380270D01*
X376298Y380354D01*
X376277Y380375D01*
X376262Y380401D01*
X376190Y380462D01*
X376124Y380528D01*
X376098Y380541D01*
X376075Y380561D01*
X375988Y380596D01*
X375904Y380638D01*
X375874Y380642D01*
X375847Y380653D01*
X375680Y380671D01*
X370600Y380671D01*
X370571Y380666D01*
X370541Y380669D01*
X370450Y380647D01*
X370357Y380632D01*
X370331Y380618D01*
X370302Y380611D01*
X370223Y380560D01*
X370140Y380516D01*
X370119Y380495D01*
X370094Y380479D01*
X370035Y380406D01*
X369971Y380338D01*
X369958Y380311D01*
X369939Y380288D01*
X369906Y380200D01*
X369867Y380115D01*
X369864Y380085D01*
X369853Y380058D01*
X369850Y379964D01*
X369840Y379871D01*
X369846Y379841D01*
X369845Y379812D01*
X369872Y379722D01*
X369892Y379630D01*
X369907Y379605D01*
X369916Y379576D01*
X370006Y379434D01*
X372546Y376259D01*
X372623Y376190D01*
X372696Y376117D01*
X372714Y376108D01*
X372728Y376095D01*
X372824Y376053D01*
X372916Y376007D01*
X372936Y376005D01*
X372954Y375997D01*
X373057Y375988D01*
X373160Y375974D01*
X373179Y375978D01*
G37*
D10*
X934635Y28577D02*
X929127Y17561D01*
X940143Y23069D01*
X936727Y9961D02*
X938562Y8125D01*
X936726Y9961D02*
X936657Y10033D01*
X936591Y10107D01*
X936528Y10184D01*
X936468Y10263D01*
X936410Y10344D01*
X936356Y10428D01*
X936306Y10513D01*
X936258Y10601D01*
X936214Y10690D01*
X936173Y10781D01*
X936136Y10873D01*
X936102Y10966D01*
X936072Y11061D01*
X936046Y11157D01*
X936023Y11254D01*
X936004Y11352D01*
X935989Y11450D01*
X935978Y11549D01*
X935970Y11648D01*
X935966Y11747D01*
X935966Y11847D01*
X935970Y11946D01*
X935978Y12045D01*
X935989Y12144D01*
X936004Y12242D01*
X936023Y12340D01*
X936046Y12437D01*
X936072Y12533D01*
X936102Y12628D01*
X936136Y12721D01*
X936173Y12813D01*
X936214Y12904D01*
X936258Y12993D01*
X936306Y13081D01*
X936356Y13166D01*
X936410Y13250D01*
X936468Y13331D01*
X936528Y13410D01*
X936591Y13487D01*
X936657Y13561D01*
X936726Y13633D01*
X936727Y13633D02*
X941316Y18223D01*
X941387Y18292D01*
X941462Y18359D01*
X941538Y18422D01*
X941617Y18482D01*
X941699Y18539D01*
X941782Y18593D01*
X941868Y18644D01*
X941955Y18692D01*
X942044Y18736D01*
X942135Y18777D01*
X942227Y18814D01*
X942321Y18848D01*
X942416Y18878D01*
X942512Y18904D01*
X942609Y18927D01*
X942706Y18945D01*
X942805Y18961D01*
X942904Y18972D01*
X943003Y18980D01*
X943102Y18984D01*
X943202Y18984D01*
X943301Y18980D01*
X943400Y18972D01*
X943499Y18961D01*
X943597Y18946D01*
X943695Y18927D01*
X943792Y18904D01*
X943888Y18878D01*
X943983Y18848D01*
X944076Y18814D01*
X944169Y18777D01*
X944260Y18736D01*
X944349Y18692D01*
X944436Y18644D01*
X944522Y18594D01*
X944605Y18539D01*
X944686Y18482D01*
X944766Y18422D01*
X944842Y18359D01*
X944917Y18292D01*
X944988Y18223D01*
X946824Y16387D01*
X943462Y3226D02*
X945298Y1390D01*
X943462Y3226D02*
X943393Y3298D01*
X943327Y3372D01*
X943264Y3449D01*
X943204Y3528D01*
X943146Y3609D01*
X943092Y3693D01*
X943042Y3778D01*
X942994Y3866D01*
X942950Y3955D01*
X942909Y4046D01*
X942872Y4138D01*
X942838Y4231D01*
X942808Y4326D01*
X942782Y4422D01*
X942759Y4519D01*
X942740Y4617D01*
X942725Y4715D01*
X942714Y4814D01*
X942706Y4913D01*
X942702Y5012D01*
X942702Y5112D01*
X942706Y5211D01*
X942714Y5310D01*
X942725Y5409D01*
X942740Y5507D01*
X942759Y5605D01*
X942782Y5702D01*
X942808Y5798D01*
X942838Y5893D01*
X942872Y5986D01*
X942909Y6078D01*
X942950Y6169D01*
X942994Y6258D01*
X943042Y6346D01*
X943092Y6431D01*
X943146Y6515D01*
X943204Y6596D01*
X943264Y6675D01*
X943327Y6752D01*
X943393Y6826D01*
X943462Y6898D01*
X948052Y11488D01*
X948123Y11557D01*
X948198Y11624D01*
X948274Y11687D01*
X948353Y11747D01*
X948435Y11804D01*
X948518Y11858D01*
X948604Y11909D01*
X948691Y11957D01*
X948780Y12001D01*
X948871Y12042D01*
X948963Y12079D01*
X949057Y12113D01*
X949152Y12143D01*
X949248Y12169D01*
X949345Y12192D01*
X949442Y12210D01*
X949541Y12226D01*
X949640Y12237D01*
X949739Y12245D01*
X949838Y12249D01*
X949938Y12249D01*
X950037Y12245D01*
X950136Y12237D01*
X950235Y12226D01*
X950333Y12211D01*
X950431Y12192D01*
X950528Y12169D01*
X950624Y12143D01*
X950719Y12113D01*
X950812Y12079D01*
X950905Y12042D01*
X950996Y12001D01*
X951085Y11957D01*
X951172Y11909D01*
X951258Y11859D01*
X951341Y11804D01*
X951422Y11747D01*
X951502Y11687D01*
X951578Y11624D01*
X951653Y11557D01*
X951724Y11488D01*
X953560Y9652D01*
X976588Y68434D02*
X975211Y69811D01*
X976588Y68434D02*
X971998Y63844D01*
X969244Y66598D01*
X969175Y66670D01*
X969109Y66744D01*
X969046Y66821D01*
X968986Y66900D01*
X968928Y66981D01*
X968874Y67065D01*
X968824Y67150D01*
X968776Y67238D01*
X968732Y67327D01*
X968691Y67418D01*
X968654Y67510D01*
X968620Y67603D01*
X968590Y67698D01*
X968564Y67794D01*
X968541Y67891D01*
X968522Y67989D01*
X968507Y68087D01*
X968496Y68186D01*
X968488Y68285D01*
X968484Y68384D01*
X968484Y68484D01*
X968488Y68583D01*
X968496Y68682D01*
X968507Y68781D01*
X968522Y68879D01*
X968541Y68977D01*
X968564Y69074D01*
X968590Y69170D01*
X968620Y69265D01*
X968654Y69358D01*
X968691Y69450D01*
X968732Y69541D01*
X968776Y69630D01*
X968824Y69718D01*
X968874Y69803D01*
X968928Y69887D01*
X968986Y69968D01*
X969046Y70047D01*
X969109Y70124D01*
X969175Y70198D01*
X969244Y70270D01*
X973834Y74860D01*
X973905Y74929D01*
X973980Y74996D01*
X974056Y75059D01*
X974135Y75119D01*
X974217Y75176D01*
X974300Y75230D01*
X974386Y75281D01*
X974473Y75329D01*
X974562Y75373D01*
X974653Y75414D01*
X974745Y75451D01*
X974839Y75485D01*
X974934Y75515D01*
X975030Y75541D01*
X975127Y75564D01*
X975224Y75582D01*
X975323Y75598D01*
X975422Y75609D01*
X975521Y75617D01*
X975620Y75621D01*
X975720Y75621D01*
X975819Y75617D01*
X975918Y75609D01*
X976017Y75598D01*
X976115Y75583D01*
X976213Y75564D01*
X976310Y75541D01*
X976406Y75515D01*
X976501Y75485D01*
X976594Y75451D01*
X976687Y75414D01*
X976778Y75373D01*
X976867Y75329D01*
X976954Y75281D01*
X977040Y75231D01*
X977123Y75176D01*
X977204Y75119D01*
X977284Y75059D01*
X977360Y74996D01*
X977435Y74929D01*
X977506Y74860D01*
X980259Y72106D01*
X984291Y68075D02*
X976029Y59813D01*
X980619Y55223D02*
X984291Y68075D01*
X988880Y63485D02*
X980619Y55223D01*
X984650Y51192D02*
X992912Y59454D01*
X995207Y57159D01*
X995286Y57078D01*
X995362Y56994D01*
X995435Y56907D01*
X995504Y56817D01*
X995571Y56726D01*
X995634Y56632D01*
X995694Y56536D01*
X995751Y56438D01*
X995804Y56338D01*
X995854Y56236D01*
X995900Y56132D01*
X995942Y56027D01*
X995981Y55921D01*
X996016Y55813D01*
X996047Y55704D01*
X996075Y55594D01*
X996098Y55483D01*
X996118Y55372D01*
X996134Y55260D01*
X996146Y55147D01*
X996154Y55034D01*
X996158Y54921D01*
X996158Y54807D01*
X996154Y54694D01*
X996146Y54581D01*
X996134Y54468D01*
X996118Y54356D01*
X996098Y54245D01*
X996075Y54134D01*
X996047Y54024D01*
X996016Y53915D01*
X995981Y53807D01*
X995942Y53701D01*
X995900Y53596D01*
X995854Y53492D01*
X995804Y53390D01*
X995751Y53290D01*
X995694Y53192D01*
X995634Y53096D01*
X995571Y53002D01*
X995504Y52911D01*
X995435Y52821D01*
X995362Y52734D01*
X995286Y52650D01*
X995207Y52569D01*
X991535Y48897D01*
X991454Y48818D01*
X991370Y48742D01*
X991283Y48669D01*
X991193Y48600D01*
X991102Y48533D01*
X991008Y48470D01*
X990912Y48410D01*
X990814Y48353D01*
X990714Y48300D01*
X990612Y48250D01*
X990508Y48204D01*
X990403Y48162D01*
X990297Y48123D01*
X990189Y48088D01*
X990080Y48057D01*
X989970Y48029D01*
X989859Y48006D01*
X989748Y47986D01*
X989636Y47970D01*
X989523Y47958D01*
X989410Y47950D01*
X989297Y47946D01*
X989183Y47946D01*
X989070Y47950D01*
X988957Y47958D01*
X988844Y47970D01*
X988732Y47986D01*
X988621Y48006D01*
X988510Y48029D01*
X988400Y48057D01*
X988291Y48088D01*
X988183Y48123D01*
X988077Y48162D01*
X987972Y48204D01*
X987868Y48250D01*
X987766Y48300D01*
X987666Y48353D01*
X987568Y48410D01*
X987472Y48470D01*
X987378Y48533D01*
X987286Y48600D01*
X987197Y48669D01*
X987110Y48742D01*
X987026Y48818D01*
X986945Y48897D01*
X984650Y51192D01*
X965746Y46996D02*
X957484Y38734D01*
X965746Y46996D02*
X968041Y44701D01*
X968120Y44620D01*
X968196Y44536D01*
X968269Y44449D01*
X968338Y44359D01*
X968405Y44268D01*
X968468Y44174D01*
X968528Y44078D01*
X968585Y43980D01*
X968638Y43880D01*
X968688Y43778D01*
X968734Y43674D01*
X968776Y43569D01*
X968815Y43463D01*
X968850Y43355D01*
X968881Y43246D01*
X968909Y43136D01*
X968932Y43025D01*
X968952Y42914D01*
X968968Y42802D01*
X968980Y42689D01*
X968988Y42576D01*
X968992Y42463D01*
X968992Y42349D01*
X968988Y42236D01*
X968980Y42123D01*
X968968Y42010D01*
X968952Y41898D01*
X968932Y41787D01*
X968909Y41676D01*
X968881Y41566D01*
X968850Y41457D01*
X968815Y41349D01*
X968776Y41243D01*
X968734Y41138D01*
X968688Y41034D01*
X968638Y40932D01*
X968585Y40832D01*
X968528Y40734D01*
X968468Y40638D01*
X968405Y40544D01*
X968338Y40453D01*
X968269Y40363D01*
X968196Y40276D01*
X968120Y40192D01*
X968041Y40111D01*
X964369Y36439D01*
X964288Y36360D01*
X964204Y36284D01*
X964117Y36211D01*
X964027Y36142D01*
X963936Y36075D01*
X963842Y36012D01*
X963746Y35952D01*
X963648Y35895D01*
X963548Y35842D01*
X963446Y35792D01*
X963342Y35746D01*
X963237Y35704D01*
X963131Y35665D01*
X963023Y35630D01*
X962914Y35599D01*
X962804Y35571D01*
X962693Y35548D01*
X962582Y35528D01*
X962470Y35512D01*
X962357Y35500D01*
X962244Y35492D01*
X962131Y35488D01*
X962017Y35488D01*
X961904Y35492D01*
X961791Y35500D01*
X961678Y35512D01*
X961566Y35528D01*
X961455Y35548D01*
X961344Y35571D01*
X961234Y35599D01*
X961125Y35630D01*
X961017Y35665D01*
X960911Y35704D01*
X960806Y35746D01*
X960702Y35792D01*
X960600Y35842D01*
X960500Y35895D01*
X960402Y35952D01*
X960306Y36012D01*
X960212Y36075D01*
X960120Y36142D01*
X960031Y36211D01*
X959944Y36284D01*
X959860Y36360D01*
X959779Y36439D01*
X957484Y38734D01*
X967592Y32298D02*
X969428Y34134D01*
X969501Y34203D01*
X969576Y34270D01*
X969654Y34334D01*
X969734Y34395D01*
X969817Y34453D01*
X969901Y34507D01*
X969988Y34559D01*
X970076Y34606D01*
X970167Y34651D01*
X970259Y34692D01*
X970353Y34729D01*
X970447Y34762D01*
X970544Y34792D01*
X970641Y34818D01*
X970739Y34840D01*
X970838Y34859D01*
X970938Y34873D01*
X971038Y34884D01*
X971138Y34891D01*
X971239Y34894D01*
X971340Y34893D01*
X971440Y34888D01*
X971540Y34879D01*
X971640Y34867D01*
X971740Y34850D01*
X971838Y34830D01*
X971936Y34806D01*
X972033Y34778D01*
X972128Y34746D01*
X972222Y34711D01*
X972315Y34672D01*
X972407Y34629D01*
X972496Y34583D01*
X972584Y34534D01*
X972669Y34481D01*
X972753Y34425D01*
X972834Y34365D01*
X972913Y34303D01*
X972990Y34237D01*
X973064Y34169D01*
X973135Y34098D01*
X973203Y34024D01*
X973269Y33947D01*
X973331Y33868D01*
X973391Y33787D01*
X973447Y33703D01*
X973500Y33618D01*
X973549Y33530D01*
X973595Y33441D01*
X973638Y33349D01*
X973677Y33256D01*
X973712Y33162D01*
X973744Y33067D01*
X973772Y32970D01*
X973796Y32872D01*
X973816Y32774D01*
X973833Y32674D01*
X973845Y32574D01*
X973854Y32474D01*
X973859Y32374D01*
X973860Y32273D01*
X973857Y32172D01*
X973850Y32072D01*
X973839Y31972D01*
X973825Y31872D01*
X973806Y31773D01*
X973784Y31675D01*
X973758Y31578D01*
X973728Y31481D01*
X973695Y31387D01*
X973658Y31293D01*
X973617Y31201D01*
X973572Y31110D01*
X973525Y31022D01*
X973473Y30935D01*
X973419Y30851D01*
X973361Y30768D01*
X973300Y30688D01*
X973236Y30610D01*
X973169Y30535D01*
X973100Y30462D01*
X971264Y28626D01*
X971191Y28557D01*
X971116Y28490D01*
X971038Y28426D01*
X970958Y28365D01*
X970876Y28307D01*
X970791Y28253D01*
X970704Y28201D01*
X970616Y28154D01*
X970525Y28109D01*
X970433Y28068D01*
X970340Y28031D01*
X970245Y27998D01*
X970148Y27968D01*
X970051Y27942D01*
X969953Y27920D01*
X969854Y27901D01*
X969754Y27887D01*
X969654Y27876D01*
X969554Y27869D01*
X969453Y27866D01*
X969353Y27867D01*
X969252Y27872D01*
X969152Y27881D01*
X969052Y27893D01*
X968952Y27910D01*
X968854Y27930D01*
X968756Y27954D01*
X968659Y27982D01*
X968564Y28014D01*
X968470Y28049D01*
X968377Y28088D01*
X968285Y28131D01*
X968196Y28177D01*
X968108Y28226D01*
X968023Y28279D01*
X967939Y28335D01*
X967858Y28395D01*
X967779Y28457D01*
X967702Y28523D01*
X967628Y28591D01*
X967557Y28662D01*
X967489Y28736D01*
X967423Y28813D01*
X967361Y28892D01*
X967301Y28973D01*
X967245Y29057D01*
X967192Y29142D01*
X967143Y29230D01*
X967097Y29319D01*
X967054Y29411D01*
X967015Y29504D01*
X966980Y29598D01*
X966948Y29693D01*
X966920Y29790D01*
X966896Y29888D01*
X966876Y29986D01*
X966859Y30086D01*
X966847Y30186D01*
X966838Y30286D01*
X966833Y30386D01*
X966832Y30487D01*
X966835Y30588D01*
X966842Y30688D01*
X966853Y30788D01*
X966867Y30888D01*
X966886Y30987D01*
X966908Y31085D01*
X966934Y31182D01*
X966964Y31279D01*
X966997Y31373D01*
X967034Y31467D01*
X967075Y31559D01*
X967120Y31650D01*
X967167Y31738D01*
X967219Y31825D01*
X967273Y31909D01*
X967331Y31992D01*
X967392Y32072D01*
X967456Y32150D01*
X967523Y32225D01*
X967592Y32298D01*
X742273Y483362D02*
X742372Y483364D01*
X742472Y483370D01*
X742571Y483379D01*
X742669Y483392D01*
X742767Y483409D01*
X742865Y483430D01*
X742961Y483455D01*
X743056Y483483D01*
X743150Y483515D01*
X743243Y483550D01*
X743335Y483589D01*
X743425Y483632D01*
X743513Y483677D01*
X743600Y483727D01*
X743684Y483779D01*
X743767Y483835D01*
X743847Y483893D01*
X743925Y483955D01*
X744000Y484020D01*
X744073Y484088D01*
X744143Y484158D01*
X744211Y484231D01*
X744276Y484306D01*
X744338Y484384D01*
X744396Y484464D01*
X744452Y484547D01*
X744504Y484631D01*
X744554Y484718D01*
X744599Y484806D01*
X744642Y484896D01*
X744681Y484988D01*
X744716Y485081D01*
X744748Y485175D01*
X744776Y485270D01*
X744801Y485366D01*
X744822Y485464D01*
X744839Y485562D01*
X744852Y485660D01*
X744861Y485759D01*
X744867Y485859D01*
X744869Y485958D01*
X742273Y483362D02*
X742129Y483364D01*
X741984Y483370D01*
X741840Y483379D01*
X741697Y483392D01*
X741553Y483409D01*
X741410Y483430D01*
X741268Y483455D01*
X741127Y483483D01*
X740986Y483515D01*
X740846Y483551D01*
X740707Y483590D01*
X740569Y483633D01*
X740433Y483680D01*
X740297Y483730D01*
X740163Y483784D01*
X740031Y483841D01*
X739900Y483902D01*
X739771Y483966D01*
X739643Y484034D01*
X739517Y484104D01*
X739393Y484179D01*
X739272Y484256D01*
X739152Y484337D01*
X739034Y484420D01*
X738919Y484507D01*
X738806Y484597D01*
X738695Y484690D01*
X738587Y484785D01*
X738481Y484884D01*
X738378Y484985D01*
X738703Y492450D02*
X738705Y492549D01*
X738711Y492649D01*
X738720Y492748D01*
X738733Y492846D01*
X738750Y492944D01*
X738771Y493042D01*
X738796Y493138D01*
X738824Y493233D01*
X738856Y493327D01*
X738891Y493420D01*
X738930Y493512D01*
X738973Y493602D01*
X739018Y493690D01*
X739068Y493777D01*
X739120Y493861D01*
X739176Y493944D01*
X739234Y494024D01*
X739296Y494102D01*
X739361Y494177D01*
X739429Y494250D01*
X739499Y494320D01*
X739572Y494388D01*
X739647Y494453D01*
X739725Y494515D01*
X739805Y494573D01*
X739888Y494629D01*
X739972Y494681D01*
X740059Y494731D01*
X740147Y494776D01*
X740237Y494819D01*
X740329Y494858D01*
X740422Y494893D01*
X740516Y494925D01*
X740611Y494953D01*
X740708Y494978D01*
X740805Y494999D01*
X740903Y495016D01*
X741001Y495029D01*
X741100Y495038D01*
X741200Y495044D01*
X741299Y495046D01*
X741435Y495044D01*
X741571Y495038D01*
X741707Y495029D01*
X741843Y495016D01*
X741978Y494998D01*
X742112Y494978D01*
X742246Y494953D01*
X742380Y494925D01*
X742512Y494892D01*
X742643Y494857D01*
X742774Y494817D01*
X742903Y494774D01*
X743031Y494728D01*
X743157Y494677D01*
X743283Y494624D01*
X743406Y494566D01*
X743528Y494506D01*
X743648Y494442D01*
X743767Y494374D01*
X743883Y494304D01*
X743997Y494230D01*
X744110Y494153D01*
X744220Y494072D01*
X740001Y490178D02*
X739915Y490231D01*
X739831Y490288D01*
X739749Y490347D01*
X739669Y490410D01*
X739592Y490476D01*
X739517Y490544D01*
X739445Y490616D01*
X739376Y490690D01*
X739310Y490767D01*
X739247Y490846D01*
X739187Y490928D01*
X739130Y491012D01*
X739076Y491098D01*
X739026Y491186D01*
X738979Y491276D01*
X738935Y491367D01*
X738896Y491461D01*
X738859Y491555D01*
X738827Y491651D01*
X738798Y491749D01*
X738773Y491847D01*
X738752Y491946D01*
X738734Y492046D01*
X738721Y492146D01*
X738711Y492247D01*
X738705Y492349D01*
X738703Y492450D01*
X743571Y488230D02*
X743657Y488177D01*
X743741Y488120D01*
X743823Y488061D01*
X743903Y487998D01*
X743980Y487932D01*
X744055Y487864D01*
X744127Y487792D01*
X744196Y487718D01*
X744262Y487641D01*
X744325Y487562D01*
X744385Y487480D01*
X744442Y487396D01*
X744496Y487310D01*
X744546Y487222D01*
X744593Y487132D01*
X744637Y487041D01*
X744676Y486947D01*
X744713Y486853D01*
X744745Y486757D01*
X744774Y486659D01*
X744799Y486561D01*
X744820Y486462D01*
X744838Y486362D01*
X744851Y486262D01*
X744861Y486161D01*
X744867Y486059D01*
X744869Y485958D01*
X743571Y488230D02*
X740001Y490178D01*
X749004Y495046D02*
X751600Y483362D01*
X754197Y491151D01*
X756793Y483362D01*
X759389Y495046D01*
X766468Y483362D02*
X769065Y483362D01*
X766468Y483362D02*
X766369Y483364D01*
X766269Y483370D01*
X766170Y483379D01*
X766072Y483392D01*
X765974Y483409D01*
X765876Y483430D01*
X765780Y483455D01*
X765685Y483483D01*
X765591Y483515D01*
X765498Y483550D01*
X765406Y483589D01*
X765316Y483632D01*
X765228Y483677D01*
X765141Y483727D01*
X765057Y483779D01*
X764974Y483835D01*
X764894Y483893D01*
X764816Y483955D01*
X764741Y484020D01*
X764668Y484088D01*
X764598Y484158D01*
X764530Y484231D01*
X764465Y484306D01*
X764403Y484384D01*
X764345Y484464D01*
X764289Y484547D01*
X764237Y484631D01*
X764187Y484718D01*
X764142Y484806D01*
X764099Y484896D01*
X764060Y484988D01*
X764025Y485081D01*
X763993Y485175D01*
X763965Y485270D01*
X763940Y485366D01*
X763919Y485464D01*
X763902Y485562D01*
X763889Y485660D01*
X763880Y485759D01*
X763874Y485859D01*
X763872Y485958D01*
X763872Y492450D01*
X763874Y492549D01*
X763880Y492649D01*
X763889Y492748D01*
X763902Y492846D01*
X763919Y492944D01*
X763940Y493042D01*
X763965Y493138D01*
X763993Y493233D01*
X764025Y493327D01*
X764060Y493420D01*
X764099Y493512D01*
X764142Y493602D01*
X764187Y493690D01*
X764237Y493777D01*
X764289Y493861D01*
X764345Y493944D01*
X764403Y494024D01*
X764465Y494102D01*
X764530Y494177D01*
X764598Y494250D01*
X764668Y494320D01*
X764741Y494388D01*
X764816Y494453D01*
X764894Y494515D01*
X764974Y494573D01*
X765057Y494629D01*
X765141Y494681D01*
X765228Y494731D01*
X765316Y494776D01*
X765406Y494819D01*
X765498Y494858D01*
X765590Y494893D01*
X765685Y494925D01*
X765780Y494953D01*
X765876Y494978D01*
X765974Y494999D01*
X766072Y495016D01*
X766170Y495029D01*
X766269Y495038D01*
X766369Y495044D01*
X766468Y495046D01*
X769065Y495046D01*
X743599Y514152D02*
X743597Y514053D01*
X743591Y513953D01*
X743582Y513854D01*
X743569Y513756D01*
X743552Y513658D01*
X743531Y513560D01*
X743506Y513464D01*
X743478Y513369D01*
X743446Y513275D01*
X743411Y513182D01*
X743372Y513090D01*
X743329Y513000D01*
X743284Y512912D01*
X743234Y512825D01*
X743182Y512741D01*
X743126Y512658D01*
X743068Y512578D01*
X743006Y512500D01*
X742941Y512425D01*
X742873Y512352D01*
X742803Y512282D01*
X742730Y512214D01*
X742655Y512149D01*
X742577Y512087D01*
X742497Y512029D01*
X742414Y511973D01*
X742330Y511921D01*
X742243Y511871D01*
X742155Y511826D01*
X742065Y511783D01*
X741973Y511744D01*
X741880Y511709D01*
X741786Y511677D01*
X741691Y511649D01*
X741595Y511624D01*
X741497Y511603D01*
X741399Y511586D01*
X741301Y511573D01*
X741202Y511564D01*
X741102Y511558D01*
X741003Y511556D01*
X740859Y511558D01*
X740714Y511564D01*
X740570Y511573D01*
X740427Y511586D01*
X740283Y511603D01*
X740140Y511624D01*
X739998Y511649D01*
X739857Y511677D01*
X739716Y511709D01*
X739576Y511745D01*
X739437Y511784D01*
X739299Y511827D01*
X739163Y511874D01*
X739027Y511924D01*
X738893Y511978D01*
X738761Y512035D01*
X738630Y512096D01*
X738501Y512160D01*
X738373Y512228D01*
X738247Y512298D01*
X738123Y512373D01*
X738002Y512450D01*
X737882Y512531D01*
X737764Y512614D01*
X737649Y512701D01*
X737536Y512791D01*
X737425Y512884D01*
X737317Y512979D01*
X737211Y513078D01*
X737108Y513179D01*
X737433Y520644D02*
X737435Y520743D01*
X737441Y520843D01*
X737450Y520942D01*
X737463Y521040D01*
X737480Y521138D01*
X737501Y521236D01*
X737526Y521332D01*
X737554Y521427D01*
X737586Y521521D01*
X737621Y521614D01*
X737660Y521706D01*
X737703Y521796D01*
X737748Y521884D01*
X737798Y521971D01*
X737850Y522055D01*
X737906Y522138D01*
X737964Y522218D01*
X738026Y522296D01*
X738091Y522371D01*
X738159Y522444D01*
X738229Y522514D01*
X738302Y522582D01*
X738377Y522647D01*
X738455Y522709D01*
X738535Y522767D01*
X738618Y522823D01*
X738702Y522875D01*
X738789Y522925D01*
X738877Y522970D01*
X738967Y523013D01*
X739059Y523052D01*
X739152Y523087D01*
X739246Y523119D01*
X739341Y523147D01*
X739438Y523172D01*
X739535Y523193D01*
X739633Y523210D01*
X739731Y523223D01*
X739830Y523232D01*
X739930Y523238D01*
X740029Y523240D01*
X740165Y523238D01*
X740301Y523232D01*
X740437Y523223D01*
X740573Y523210D01*
X740708Y523192D01*
X740842Y523172D01*
X740976Y523147D01*
X741110Y523119D01*
X741242Y523086D01*
X741373Y523051D01*
X741504Y523011D01*
X741633Y522968D01*
X741761Y522922D01*
X741887Y522871D01*
X742013Y522818D01*
X742136Y522760D01*
X742258Y522700D01*
X742378Y522636D01*
X742497Y522568D01*
X742613Y522498D01*
X742727Y522424D01*
X742840Y522347D01*
X742950Y522266D01*
X738731Y518372D02*
X738645Y518425D01*
X738561Y518482D01*
X738479Y518541D01*
X738399Y518604D01*
X738322Y518670D01*
X738247Y518738D01*
X738175Y518810D01*
X738106Y518884D01*
X738040Y518961D01*
X737977Y519040D01*
X737917Y519122D01*
X737860Y519206D01*
X737806Y519292D01*
X737756Y519380D01*
X737709Y519470D01*
X737665Y519561D01*
X737626Y519655D01*
X737589Y519749D01*
X737557Y519845D01*
X737528Y519943D01*
X737503Y520041D01*
X737482Y520140D01*
X737464Y520240D01*
X737451Y520340D01*
X737441Y520441D01*
X737435Y520543D01*
X737433Y520644D01*
X742301Y516424D02*
X742387Y516371D01*
X742471Y516314D01*
X742553Y516255D01*
X742633Y516192D01*
X742710Y516126D01*
X742785Y516058D01*
X742857Y515986D01*
X742926Y515912D01*
X742992Y515835D01*
X743055Y515756D01*
X743115Y515674D01*
X743172Y515590D01*
X743226Y515504D01*
X743276Y515416D01*
X743323Y515326D01*
X743367Y515235D01*
X743406Y515141D01*
X743443Y515047D01*
X743475Y514951D01*
X743504Y514853D01*
X743529Y514755D01*
X743550Y514656D01*
X743568Y514556D01*
X743581Y514456D01*
X743591Y514355D01*
X743597Y514253D01*
X743599Y514152D01*
X742301Y516424D02*
X738731Y518372D01*
X747734Y523240D02*
X750330Y511556D01*
X752927Y519345D01*
X755523Y511556D01*
X758119Y523240D01*
X763016Y523240D02*
X763016Y511556D01*
X763016Y523240D02*
X766262Y523240D01*
X766375Y523238D01*
X766488Y523232D01*
X766601Y523222D01*
X766714Y523208D01*
X766826Y523191D01*
X766937Y523169D01*
X767047Y523144D01*
X767157Y523114D01*
X767265Y523081D01*
X767372Y523044D01*
X767478Y523004D01*
X767582Y522959D01*
X767685Y522911D01*
X767786Y522860D01*
X767885Y522805D01*
X767982Y522747D01*
X768077Y522685D01*
X768170Y522620D01*
X768260Y522552D01*
X768348Y522481D01*
X768434Y522406D01*
X768517Y522329D01*
X768597Y522249D01*
X768674Y522166D01*
X768749Y522080D01*
X768820Y521992D01*
X768888Y521902D01*
X768953Y521809D01*
X769015Y521714D01*
X769073Y521617D01*
X769128Y521518D01*
X769179Y521417D01*
X769227Y521314D01*
X769272Y521210D01*
X769312Y521104D01*
X769349Y520997D01*
X769382Y520889D01*
X769412Y520779D01*
X769437Y520669D01*
X769459Y520558D01*
X769476Y520446D01*
X769490Y520333D01*
X769500Y520220D01*
X769506Y520107D01*
X769508Y519994D01*
X769507Y519994D02*
X769507Y514802D01*
X769508Y514802D02*
X769506Y514689D01*
X769500Y514576D01*
X769490Y514463D01*
X769476Y514350D01*
X769459Y514238D01*
X769437Y514127D01*
X769412Y514017D01*
X769382Y513907D01*
X769349Y513799D01*
X769312Y513692D01*
X769272Y513586D01*
X769227Y513482D01*
X769179Y513379D01*
X769128Y513278D01*
X769073Y513179D01*
X769015Y513082D01*
X768953Y512987D01*
X768888Y512894D01*
X768820Y512804D01*
X768749Y512716D01*
X768674Y512630D01*
X768597Y512547D01*
X768517Y512467D01*
X768434Y512390D01*
X768348Y512315D01*
X768260Y512244D01*
X768170Y512176D01*
X768077Y512111D01*
X767982Y512049D01*
X767885Y511991D01*
X767786Y511936D01*
X767685Y511885D01*
X767582Y511837D01*
X767478Y511792D01*
X767372Y511752D01*
X767265Y511715D01*
X767157Y511682D01*
X767047Y511652D01*
X766937Y511627D01*
X766826Y511605D01*
X766714Y511588D01*
X766601Y511574D01*
X766488Y511564D01*
X766375Y511558D01*
X766262Y511556D01*
X763016Y511556D01*
D11*
X488640Y340360D02*
X486664Y338780D01*
X488640Y340360D02*
X488640Y333248D01*
X490615Y333248D02*
X486664Y333248D01*
X493522Y336804D02*
X493524Y336952D01*
X493529Y337099D01*
X493539Y337247D01*
X493552Y337394D01*
X493568Y337541D01*
X493589Y337687D01*
X493613Y337833D01*
X493641Y337978D01*
X493672Y338122D01*
X493707Y338265D01*
X493746Y338408D01*
X493788Y338549D01*
X493834Y338690D01*
X493883Y338829D01*
X493936Y338967D01*
X493992Y339104D01*
X494052Y339239D01*
X494115Y339372D01*
X494141Y339443D01*
X494171Y339512D01*
X494205Y339580D01*
X494242Y339646D01*
X494282Y339710D01*
X494326Y339772D01*
X494372Y339831D01*
X494422Y339888D01*
X494475Y339942D01*
X494530Y339994D01*
X494588Y340042D01*
X494648Y340088D01*
X494711Y340130D01*
X494776Y340169D01*
X494842Y340205D01*
X494911Y340237D01*
X494980Y340265D01*
X495052Y340290D01*
X495124Y340311D01*
X495198Y340329D01*
X495272Y340342D01*
X495347Y340352D01*
X495422Y340358D01*
X495498Y340360D01*
X495574Y340358D01*
X495649Y340352D01*
X495724Y340342D01*
X495798Y340329D01*
X495872Y340311D01*
X495944Y340290D01*
X496015Y340265D01*
X496085Y340237D01*
X496154Y340205D01*
X496220Y340169D01*
X496285Y340130D01*
X496348Y340088D01*
X496408Y340042D01*
X496466Y339994D01*
X496521Y339942D01*
X496574Y339888D01*
X496624Y339831D01*
X496670Y339772D01*
X496714Y339710D01*
X496754Y339646D01*
X496791Y339580D01*
X496825Y339512D01*
X496855Y339443D01*
X496881Y339372D01*
X496880Y339372D02*
X496943Y339239D01*
X497003Y339104D01*
X497059Y338967D01*
X497112Y338829D01*
X497161Y338690D01*
X497207Y338549D01*
X497249Y338408D01*
X497288Y338265D01*
X497323Y338122D01*
X497354Y337978D01*
X497382Y337833D01*
X497406Y337687D01*
X497427Y337541D01*
X497443Y337394D01*
X497456Y337247D01*
X497466Y337099D01*
X497471Y336952D01*
X497473Y336804D01*
X493522Y336804D02*
X493524Y336656D01*
X493529Y336509D01*
X493539Y336361D01*
X493552Y336214D01*
X493568Y336067D01*
X493589Y335921D01*
X493613Y335776D01*
X493641Y335630D01*
X493672Y335486D01*
X493707Y335343D01*
X493746Y335200D01*
X493788Y335059D01*
X493834Y334918D01*
X493883Y334779D01*
X493936Y334641D01*
X493992Y334504D01*
X494052Y334369D01*
X494115Y334236D01*
X494141Y334165D01*
X494171Y334096D01*
X494205Y334028D01*
X494242Y333962D01*
X494282Y333898D01*
X494326Y333836D01*
X494372Y333777D01*
X494422Y333720D01*
X494475Y333666D01*
X494530Y333614D01*
X494588Y333566D01*
X494648Y333520D01*
X494711Y333478D01*
X494776Y333439D01*
X494842Y333403D01*
X494911Y333371D01*
X494981Y333343D01*
X495052Y333318D01*
X495124Y333297D01*
X495198Y333279D01*
X495272Y333266D01*
X495347Y333256D01*
X495422Y333250D01*
X495498Y333248D01*
X496880Y334236D02*
X496943Y334369D01*
X497003Y334504D01*
X497059Y334641D01*
X497112Y334779D01*
X497161Y334918D01*
X497207Y335059D01*
X497249Y335200D01*
X497288Y335343D01*
X497323Y335486D01*
X497354Y335630D01*
X497382Y335776D01*
X497406Y335921D01*
X497427Y336067D01*
X497443Y336214D01*
X497456Y336361D01*
X497466Y336509D01*
X497471Y336656D01*
X497473Y336804D01*
X496881Y334236D02*
X496855Y334165D01*
X496825Y334096D01*
X496791Y334028D01*
X496754Y333962D01*
X496714Y333898D01*
X496670Y333836D01*
X496624Y333777D01*
X496574Y333720D01*
X496521Y333666D01*
X496466Y333614D01*
X496408Y333566D01*
X496348Y333520D01*
X496285Y333478D01*
X496220Y333439D01*
X496154Y333403D01*
X496085Y333371D01*
X496015Y333343D01*
X495944Y333318D01*
X495872Y333297D01*
X495798Y333279D01*
X495724Y333266D01*
X495649Y333256D01*
X495574Y333250D01*
X495498Y333248D01*
X493917Y334828D02*
X497078Y338780D01*
X500546Y337989D02*
X500546Y334433D01*
X500547Y334433D02*
X500549Y334367D01*
X500554Y334300D01*
X500564Y334235D01*
X500577Y334169D01*
X500593Y334105D01*
X500613Y334042D01*
X500637Y333980D01*
X500664Y333919D01*
X500695Y333860D01*
X500729Y333803D01*
X500766Y333747D01*
X500806Y333694D01*
X500848Y333643D01*
X500894Y333595D01*
X500942Y333549D01*
X500993Y333507D01*
X501046Y333467D01*
X501102Y333430D01*
X501159Y333396D01*
X501218Y333365D01*
X501279Y333338D01*
X501341Y333314D01*
X501404Y333294D01*
X501468Y333278D01*
X501534Y333265D01*
X501599Y333255D01*
X501666Y333250D01*
X501732Y333248D01*
X503707Y333248D01*
X503707Y337989D01*
X507022Y340360D02*
X507022Y333248D01*
X507022Y340360D02*
X510183Y340360D01*
X510183Y337199D02*
X507022Y337199D01*
X399852Y366522D02*
X398272Y368498D01*
X405384Y368498D01*
X405384Y370473D02*
X405384Y366522D01*
X401828Y373380D02*
X401680Y373382D01*
X401533Y373387D01*
X401385Y373397D01*
X401238Y373410D01*
X401091Y373426D01*
X400945Y373447D01*
X400800Y373471D01*
X400654Y373499D01*
X400510Y373530D01*
X400367Y373565D01*
X400224Y373604D01*
X400083Y373646D01*
X399942Y373692D01*
X399803Y373741D01*
X399665Y373794D01*
X399528Y373850D01*
X399393Y373910D01*
X399260Y373973D01*
X399189Y373999D01*
X399120Y374029D01*
X399052Y374063D01*
X398986Y374100D01*
X398922Y374140D01*
X398860Y374184D01*
X398801Y374230D01*
X398744Y374280D01*
X398690Y374333D01*
X398638Y374388D01*
X398590Y374446D01*
X398544Y374506D01*
X398502Y374569D01*
X398463Y374634D01*
X398427Y374700D01*
X398395Y374769D01*
X398367Y374838D01*
X398342Y374910D01*
X398321Y374982D01*
X398303Y375056D01*
X398290Y375130D01*
X398280Y375205D01*
X398274Y375280D01*
X398272Y375356D01*
X398274Y375432D01*
X398280Y375507D01*
X398290Y375582D01*
X398303Y375656D01*
X398321Y375730D01*
X398342Y375802D01*
X398367Y375874D01*
X398395Y375943D01*
X398427Y376012D01*
X398463Y376078D01*
X398502Y376143D01*
X398544Y376206D01*
X398590Y376266D01*
X398638Y376324D01*
X398690Y376379D01*
X398744Y376432D01*
X398801Y376482D01*
X398860Y376528D01*
X398922Y376572D01*
X398986Y376612D01*
X399052Y376649D01*
X399120Y376683D01*
X399189Y376713D01*
X399260Y376739D01*
X399260Y376738D02*
X399393Y376801D01*
X399528Y376861D01*
X399665Y376917D01*
X399803Y376970D01*
X399942Y377019D01*
X400083Y377065D01*
X400224Y377107D01*
X400367Y377146D01*
X400510Y377181D01*
X400654Y377212D01*
X400800Y377240D01*
X400945Y377264D01*
X401091Y377285D01*
X401238Y377301D01*
X401385Y377314D01*
X401533Y377324D01*
X401680Y377329D01*
X401828Y377331D01*
X401828Y373380D02*
X401976Y373382D01*
X402123Y373387D01*
X402271Y373397D01*
X402418Y373410D01*
X402565Y373426D01*
X402711Y373447D01*
X402856Y373471D01*
X403002Y373499D01*
X403146Y373530D01*
X403289Y373565D01*
X403432Y373604D01*
X403573Y373646D01*
X403714Y373692D01*
X403853Y373741D01*
X403991Y373794D01*
X404128Y373850D01*
X404263Y373910D01*
X404396Y373973D01*
X404467Y373999D01*
X404536Y374029D01*
X404604Y374063D01*
X404670Y374100D01*
X404734Y374140D01*
X404796Y374184D01*
X404855Y374230D01*
X404912Y374280D01*
X404966Y374333D01*
X405018Y374388D01*
X405066Y374446D01*
X405112Y374506D01*
X405154Y374569D01*
X405193Y374634D01*
X405229Y374700D01*
X405261Y374769D01*
X405289Y374839D01*
X405314Y374910D01*
X405335Y374982D01*
X405353Y375056D01*
X405366Y375130D01*
X405376Y375205D01*
X405382Y375280D01*
X405384Y375356D01*
X404396Y376738D02*
X404263Y376801D01*
X404128Y376861D01*
X403991Y376917D01*
X403853Y376970D01*
X403714Y377019D01*
X403573Y377065D01*
X403432Y377107D01*
X403289Y377146D01*
X403146Y377181D01*
X403002Y377212D01*
X402856Y377240D01*
X402711Y377264D01*
X402565Y377285D01*
X402418Y377301D01*
X402271Y377314D01*
X402123Y377324D01*
X401976Y377329D01*
X401828Y377331D01*
X404396Y376739D02*
X404467Y376713D01*
X404536Y376683D01*
X404604Y376649D01*
X404670Y376612D01*
X404734Y376572D01*
X404796Y376528D01*
X404855Y376482D01*
X404912Y376432D01*
X404966Y376379D01*
X405018Y376324D01*
X405066Y376266D01*
X405112Y376206D01*
X405154Y376143D01*
X405193Y376078D01*
X405229Y376012D01*
X405261Y375943D01*
X405289Y375873D01*
X405314Y375802D01*
X405335Y375730D01*
X405353Y375656D01*
X405366Y375582D01*
X405376Y375507D01*
X405382Y375432D01*
X405384Y375356D01*
X403804Y373775D02*
X399852Y376936D01*
X400643Y380404D02*
X404199Y380404D01*
X404199Y380405D02*
X404265Y380407D01*
X404332Y380412D01*
X404397Y380422D01*
X404463Y380435D01*
X404527Y380451D01*
X404590Y380471D01*
X404652Y380495D01*
X404713Y380522D01*
X404772Y380553D01*
X404829Y380587D01*
X404885Y380624D01*
X404938Y380664D01*
X404989Y380706D01*
X405037Y380752D01*
X405083Y380800D01*
X405125Y380851D01*
X405165Y380904D01*
X405202Y380960D01*
X405236Y381017D01*
X405267Y381076D01*
X405294Y381137D01*
X405318Y381199D01*
X405338Y381262D01*
X405354Y381326D01*
X405367Y381392D01*
X405377Y381457D01*
X405382Y381524D01*
X405384Y381590D01*
X405384Y383565D01*
X400643Y383565D01*
X398272Y386880D02*
X405384Y386880D01*
X398272Y386880D02*
X398272Y390041D01*
X401433Y390041D02*
X401433Y386880D01*
X567436Y362656D02*
X569016Y360680D01*
X567436Y362656D02*
X574548Y362656D01*
X574548Y364631D02*
X574548Y360680D01*
X573363Y367704D02*
X569807Y367704D01*
X573363Y367705D02*
X573429Y367707D01*
X573496Y367712D01*
X573561Y367722D01*
X573627Y367735D01*
X573691Y367751D01*
X573754Y367771D01*
X573816Y367795D01*
X573877Y367822D01*
X573936Y367853D01*
X573993Y367887D01*
X574049Y367924D01*
X574102Y367964D01*
X574153Y368006D01*
X574201Y368052D01*
X574247Y368100D01*
X574289Y368151D01*
X574329Y368204D01*
X574366Y368260D01*
X574400Y368317D01*
X574431Y368376D01*
X574458Y368437D01*
X574482Y368499D01*
X574502Y368562D01*
X574518Y368626D01*
X574531Y368692D01*
X574541Y368757D01*
X574546Y368824D01*
X574548Y368890D01*
X574548Y370865D01*
X569807Y370865D01*
X567436Y374180D02*
X574548Y374180D01*
X567436Y374180D02*
X567436Y377341D01*
X570597Y377341D02*
X570597Y374180D01*
X443032Y368300D02*
X441452Y370276D01*
X448564Y370276D01*
X448564Y372251D02*
X448564Y368300D01*
X447379Y375324D02*
X443823Y375324D01*
X447379Y375325D02*
X447445Y375327D01*
X447512Y375332D01*
X447577Y375342D01*
X447643Y375355D01*
X447707Y375371D01*
X447770Y375391D01*
X447832Y375415D01*
X447893Y375442D01*
X447952Y375473D01*
X448009Y375507D01*
X448065Y375544D01*
X448118Y375584D01*
X448169Y375626D01*
X448217Y375672D01*
X448263Y375720D01*
X448305Y375771D01*
X448345Y375824D01*
X448382Y375880D01*
X448416Y375937D01*
X448447Y375996D01*
X448474Y376057D01*
X448498Y376119D01*
X448518Y376182D01*
X448534Y376246D01*
X448547Y376312D01*
X448557Y376377D01*
X448562Y376444D01*
X448564Y376510D01*
X448564Y378485D01*
X443823Y378485D01*
X441452Y381800D02*
X448564Y381800D01*
X441452Y381800D02*
X441452Y384961D01*
X444613Y384961D02*
X444613Y381800D01*
X373832Y446786D02*
X371856Y445206D01*
X373832Y446786D02*
X373832Y439674D01*
X375807Y439674D02*
X371856Y439674D01*
X378714Y443230D02*
X378716Y443378D01*
X378721Y443525D01*
X378731Y443673D01*
X378744Y443820D01*
X378760Y443967D01*
X378781Y444113D01*
X378805Y444259D01*
X378833Y444404D01*
X378864Y444548D01*
X378899Y444691D01*
X378938Y444834D01*
X378980Y444975D01*
X379026Y445116D01*
X379075Y445255D01*
X379128Y445393D01*
X379184Y445530D01*
X379244Y445665D01*
X379307Y445798D01*
X379333Y445869D01*
X379363Y445938D01*
X379397Y446006D01*
X379434Y446072D01*
X379474Y446136D01*
X379518Y446198D01*
X379564Y446257D01*
X379614Y446314D01*
X379667Y446368D01*
X379722Y446420D01*
X379780Y446468D01*
X379840Y446514D01*
X379903Y446556D01*
X379968Y446595D01*
X380034Y446631D01*
X380103Y446663D01*
X380172Y446691D01*
X380244Y446716D01*
X380316Y446737D01*
X380390Y446755D01*
X380464Y446768D01*
X380539Y446778D01*
X380614Y446784D01*
X380690Y446786D01*
X380766Y446784D01*
X380841Y446778D01*
X380916Y446768D01*
X380990Y446755D01*
X381064Y446737D01*
X381136Y446716D01*
X381207Y446691D01*
X381277Y446663D01*
X381346Y446631D01*
X381412Y446595D01*
X381477Y446556D01*
X381540Y446514D01*
X381600Y446468D01*
X381658Y446420D01*
X381713Y446368D01*
X381766Y446314D01*
X381816Y446257D01*
X381862Y446198D01*
X381906Y446136D01*
X381946Y446072D01*
X381983Y446006D01*
X382017Y445938D01*
X382047Y445869D01*
X382073Y445798D01*
X382072Y445798D02*
X382135Y445665D01*
X382195Y445530D01*
X382251Y445393D01*
X382304Y445255D01*
X382353Y445116D01*
X382399Y444975D01*
X382441Y444834D01*
X382480Y444691D01*
X382515Y444548D01*
X382546Y444404D01*
X382574Y444259D01*
X382598Y444113D01*
X382619Y443967D01*
X382635Y443820D01*
X382648Y443673D01*
X382658Y443525D01*
X382663Y443378D01*
X382665Y443230D01*
X378714Y443230D02*
X378716Y443082D01*
X378721Y442935D01*
X378731Y442787D01*
X378744Y442640D01*
X378760Y442493D01*
X378781Y442347D01*
X378805Y442202D01*
X378833Y442056D01*
X378864Y441912D01*
X378899Y441769D01*
X378938Y441626D01*
X378980Y441485D01*
X379026Y441344D01*
X379075Y441205D01*
X379128Y441067D01*
X379184Y440930D01*
X379244Y440795D01*
X379307Y440662D01*
X379333Y440591D01*
X379363Y440522D01*
X379397Y440454D01*
X379434Y440388D01*
X379474Y440324D01*
X379518Y440262D01*
X379564Y440203D01*
X379614Y440146D01*
X379667Y440092D01*
X379722Y440040D01*
X379780Y439992D01*
X379840Y439946D01*
X379903Y439904D01*
X379968Y439865D01*
X380034Y439829D01*
X380103Y439797D01*
X380173Y439769D01*
X380244Y439744D01*
X380316Y439723D01*
X380390Y439705D01*
X380464Y439692D01*
X380539Y439682D01*
X380614Y439676D01*
X380690Y439674D01*
X382072Y440662D02*
X382135Y440795D01*
X382195Y440930D01*
X382251Y441067D01*
X382304Y441205D01*
X382353Y441344D01*
X382399Y441485D01*
X382441Y441626D01*
X382480Y441769D01*
X382515Y441912D01*
X382546Y442056D01*
X382574Y442202D01*
X382598Y442347D01*
X382619Y442493D01*
X382635Y442640D01*
X382648Y442787D01*
X382658Y442935D01*
X382663Y443082D01*
X382665Y443230D01*
X382073Y440662D02*
X382047Y440591D01*
X382017Y440522D01*
X381983Y440454D01*
X381946Y440388D01*
X381906Y440324D01*
X381862Y440262D01*
X381816Y440203D01*
X381766Y440146D01*
X381713Y440092D01*
X381658Y440040D01*
X381600Y439992D01*
X381540Y439946D01*
X381477Y439904D01*
X381412Y439865D01*
X381346Y439829D01*
X381277Y439797D01*
X381207Y439769D01*
X381136Y439744D01*
X381064Y439723D01*
X380990Y439705D01*
X380916Y439692D01*
X380841Y439682D01*
X380766Y439676D01*
X380690Y439674D01*
X379109Y441254D02*
X382270Y445206D01*
X385813Y446786D02*
X385813Y439674D01*
X385813Y442045D02*
X388974Y444415D01*
X387196Y443032D02*
X388974Y439674D01*
D10*
X278638Y475996D02*
X270849Y475996D01*
X270849Y479891D01*
X272147Y479891D01*
X278638Y485497D02*
X278638Y488742D01*
X278638Y485497D02*
X278636Y485410D01*
X278630Y485322D01*
X278620Y485236D01*
X278607Y485149D01*
X278589Y485064D01*
X278568Y484979D01*
X278543Y484895D01*
X278514Y484813D01*
X278481Y484732D01*
X278445Y484652D01*
X278406Y484574D01*
X278362Y484498D01*
X278316Y484424D01*
X278266Y484353D01*
X278213Y484283D01*
X278157Y484216D01*
X278098Y484152D01*
X278036Y484090D01*
X277972Y484031D01*
X277905Y483975D01*
X277835Y483922D01*
X277764Y483872D01*
X277690Y483826D01*
X277614Y483782D01*
X277536Y483743D01*
X277456Y483707D01*
X277375Y483674D01*
X277293Y483645D01*
X277209Y483620D01*
X277124Y483599D01*
X277039Y483581D01*
X276952Y483568D01*
X276866Y483558D01*
X276778Y483552D01*
X276691Y483550D01*
X273445Y483550D01*
X273344Y483552D01*
X273244Y483558D01*
X273144Y483568D01*
X273044Y483581D01*
X272945Y483599D01*
X272846Y483620D01*
X272749Y483645D01*
X272652Y483674D01*
X272557Y483707D01*
X272463Y483743D01*
X272371Y483783D01*
X272280Y483826D01*
X272191Y483873D01*
X272104Y483923D01*
X272018Y483977D01*
X271935Y484034D01*
X271855Y484094D01*
X271776Y484157D01*
X271700Y484224D01*
X271627Y484293D01*
X271557Y484365D01*
X271489Y484439D01*
X271424Y484516D01*
X271363Y484596D01*
X271304Y484678D01*
X271249Y484762D01*
X271197Y484848D01*
X271148Y484936D01*
X271103Y485026D01*
X271061Y485118D01*
X271023Y485211D01*
X270989Y485306D01*
X270958Y485401D01*
X270931Y485498D01*
X270908Y485596D01*
X270888Y485695D01*
X270873Y485795D01*
X270861Y485895D01*
X270853Y485995D01*
X270849Y486096D01*
X270849Y486196D01*
X270853Y486297D01*
X270861Y486397D01*
X270873Y486497D01*
X270888Y486597D01*
X270908Y486696D01*
X270931Y486794D01*
X270958Y486891D01*
X270989Y486986D01*
X271023Y487081D01*
X271061Y487174D01*
X271103Y487266D01*
X271148Y487356D01*
X271197Y487444D01*
X271249Y487530D01*
X271304Y487614D01*
X271363Y487696D01*
X271424Y487776D01*
X271489Y487853D01*
X271557Y487927D01*
X271627Y487999D01*
X271700Y488068D01*
X271776Y488135D01*
X271855Y488198D01*
X271935Y488258D01*
X272018Y488315D01*
X272104Y488369D01*
X272191Y488419D01*
X272280Y488466D01*
X272371Y488509D01*
X272463Y488549D01*
X272557Y488585D01*
X272652Y488618D01*
X272749Y488647D01*
X272846Y488672D01*
X272945Y488693D01*
X273044Y488711D01*
X273144Y488724D01*
X273244Y488734D01*
X273344Y488740D01*
X273445Y488742D01*
X274743Y488742D01*
X274743Y483550D01*
X274094Y494429D02*
X275392Y497675D01*
X274095Y494429D02*
X274062Y494354D01*
X274026Y494280D01*
X273987Y494208D01*
X273944Y494138D01*
X273898Y494071D01*
X273848Y494005D01*
X273796Y493943D01*
X273740Y493882D01*
X273682Y493825D01*
X273621Y493770D01*
X273557Y493719D01*
X273491Y493671D01*
X273422Y493626D01*
X273352Y493584D01*
X273279Y493546D01*
X273205Y493511D01*
X273129Y493480D01*
X273052Y493453D01*
X272973Y493430D01*
X272894Y493410D01*
X272813Y493395D01*
X272732Y493383D01*
X272650Y493375D01*
X272569Y493371D01*
X272487Y493372D01*
X272405Y493376D01*
X272323Y493384D01*
X272242Y493396D01*
X272162Y493412D01*
X272082Y493432D01*
X272004Y493456D01*
X271927Y493484D01*
X271851Y493515D01*
X271777Y493550D01*
X271705Y493588D01*
X271634Y493630D01*
X271566Y493676D01*
X271500Y493724D01*
X271437Y493776D01*
X271376Y493831D01*
X271318Y493889D01*
X271262Y493949D01*
X271210Y494012D01*
X271161Y494078D01*
X271115Y494146D01*
X271073Y494216D01*
X271033Y494288D01*
X270998Y494362D01*
X270966Y494437D01*
X270938Y494514D01*
X270914Y494592D01*
X270893Y494672D01*
X270876Y494752D01*
X270864Y494833D01*
X270855Y494914D01*
X270850Y494996D01*
X270849Y495078D01*
X270853Y495255D01*
X270862Y495432D01*
X270876Y495609D01*
X270893Y495786D01*
X270915Y495961D01*
X270940Y496137D01*
X270971Y496311D01*
X271005Y496485D01*
X271043Y496658D01*
X271086Y496830D01*
X271133Y497001D01*
X271183Y497171D01*
X271238Y497340D01*
X271297Y497507D01*
X271360Y497673D01*
X271427Y497837D01*
X271498Y497999D01*
X275392Y497675D02*
X275425Y497750D01*
X275461Y497824D01*
X275500Y497896D01*
X275543Y497966D01*
X275589Y498033D01*
X275639Y498099D01*
X275691Y498161D01*
X275747Y498222D01*
X275805Y498279D01*
X275866Y498334D01*
X275930Y498385D01*
X275996Y498433D01*
X276065Y498478D01*
X276135Y498520D01*
X276208Y498558D01*
X276282Y498593D01*
X276358Y498624D01*
X276435Y498651D01*
X276514Y498674D01*
X276594Y498694D01*
X276674Y498709D01*
X276755Y498721D01*
X276837Y498729D01*
X276918Y498733D01*
X277000Y498732D01*
X277082Y498728D01*
X277164Y498720D01*
X277245Y498708D01*
X277325Y498692D01*
X277405Y498672D01*
X277483Y498648D01*
X277560Y498620D01*
X277636Y498589D01*
X277710Y498554D01*
X277782Y498516D01*
X277853Y498474D01*
X277921Y498428D01*
X277987Y498380D01*
X278050Y498328D01*
X278111Y498273D01*
X278169Y498215D01*
X278225Y498155D01*
X278277Y498092D01*
X278326Y498026D01*
X278372Y497958D01*
X278414Y497888D01*
X278454Y497816D01*
X278489Y497742D01*
X278521Y497667D01*
X278549Y497590D01*
X278573Y497512D01*
X278594Y497432D01*
X278611Y497352D01*
X278623Y497271D01*
X278632Y497190D01*
X278637Y497108D01*
X278638Y497026D01*
X278631Y496766D01*
X278618Y496506D01*
X278599Y496246D01*
X278574Y495987D01*
X278542Y495728D01*
X278505Y495471D01*
X278461Y495214D01*
X278412Y494958D01*
X278356Y494704D01*
X278295Y494451D01*
X278227Y494200D01*
X278153Y493950D01*
X278074Y493702D01*
X277989Y493456D01*
X278638Y505309D02*
X278638Y508554D01*
X278638Y505309D02*
X278636Y505222D01*
X278630Y505134D01*
X278620Y505048D01*
X278607Y504961D01*
X278589Y504876D01*
X278568Y504791D01*
X278543Y504707D01*
X278514Y504625D01*
X278481Y504544D01*
X278445Y504464D01*
X278406Y504386D01*
X278362Y504310D01*
X278316Y504236D01*
X278266Y504165D01*
X278213Y504095D01*
X278157Y504028D01*
X278098Y503964D01*
X278036Y503902D01*
X277972Y503843D01*
X277905Y503787D01*
X277835Y503734D01*
X277764Y503684D01*
X277690Y503638D01*
X277614Y503594D01*
X277536Y503555D01*
X277456Y503519D01*
X277375Y503486D01*
X277293Y503457D01*
X277209Y503432D01*
X277124Y503411D01*
X277039Y503393D01*
X276952Y503380D01*
X276866Y503370D01*
X276778Y503364D01*
X276691Y503362D01*
X273445Y503362D01*
X273344Y503364D01*
X273244Y503370D01*
X273144Y503380D01*
X273044Y503393D01*
X272945Y503411D01*
X272846Y503432D01*
X272749Y503457D01*
X272652Y503486D01*
X272557Y503519D01*
X272463Y503555D01*
X272371Y503595D01*
X272280Y503638D01*
X272191Y503685D01*
X272104Y503735D01*
X272018Y503789D01*
X271935Y503846D01*
X271855Y503906D01*
X271776Y503969D01*
X271700Y504036D01*
X271627Y504105D01*
X271557Y504177D01*
X271489Y504251D01*
X271424Y504328D01*
X271363Y504408D01*
X271304Y504490D01*
X271249Y504574D01*
X271197Y504660D01*
X271148Y504748D01*
X271103Y504838D01*
X271061Y504930D01*
X271023Y505023D01*
X270989Y505118D01*
X270958Y505213D01*
X270931Y505310D01*
X270908Y505408D01*
X270888Y505507D01*
X270873Y505607D01*
X270861Y505707D01*
X270853Y505807D01*
X270849Y505908D01*
X270849Y506008D01*
X270853Y506109D01*
X270861Y506209D01*
X270873Y506309D01*
X270888Y506409D01*
X270908Y506508D01*
X270931Y506606D01*
X270958Y506703D01*
X270989Y506798D01*
X271023Y506893D01*
X271061Y506986D01*
X271103Y507078D01*
X271148Y507168D01*
X271197Y507256D01*
X271249Y507342D01*
X271304Y507426D01*
X271363Y507508D01*
X271424Y507588D01*
X271489Y507665D01*
X271557Y507739D01*
X271627Y507811D01*
X271700Y507880D01*
X271776Y507947D01*
X271855Y508010D01*
X271935Y508070D01*
X272018Y508127D01*
X272104Y508181D01*
X272191Y508231D01*
X272280Y508278D01*
X272371Y508321D01*
X272463Y508361D01*
X272557Y508397D01*
X272652Y508430D01*
X272749Y508459D01*
X272846Y508484D01*
X272945Y508505D01*
X273044Y508523D01*
X273144Y508536D01*
X273244Y508546D01*
X273344Y508552D01*
X273445Y508554D01*
X274743Y508554D01*
X274743Y503362D01*
X270849Y512300D02*
X270849Y516195D01*
X266954Y513599D02*
X276691Y513599D01*
X276778Y513601D01*
X276866Y513607D01*
X276952Y513617D01*
X277039Y513630D01*
X277124Y513648D01*
X277209Y513669D01*
X277293Y513694D01*
X277375Y513723D01*
X277456Y513756D01*
X277536Y513792D01*
X277614Y513831D01*
X277690Y513875D01*
X277764Y513921D01*
X277835Y513971D01*
X277905Y514024D01*
X277972Y514080D01*
X278036Y514139D01*
X278098Y514201D01*
X278157Y514265D01*
X278213Y514332D01*
X278266Y514402D01*
X278316Y514473D01*
X278362Y514547D01*
X278406Y514623D01*
X278445Y514701D01*
X278481Y514781D01*
X278514Y514862D01*
X278543Y514944D01*
X278568Y515028D01*
X278589Y515113D01*
X278607Y515198D01*
X278620Y515285D01*
X278630Y515371D01*
X278636Y515459D01*
X278638Y515546D01*
X278638Y516195D01*
D12*
X420850Y785255D02*
X423559Y785255D01*
X423559Y776224D01*
X418140Y776224D01*
X418022Y776226D01*
X417904Y776232D01*
X417786Y776241D01*
X417669Y776255D01*
X417552Y776272D01*
X417435Y776293D01*
X417320Y776318D01*
X417205Y776347D01*
X417091Y776380D01*
X416979Y776416D01*
X416868Y776456D01*
X416758Y776499D01*
X416649Y776546D01*
X416542Y776596D01*
X416437Y776651D01*
X416334Y776708D01*
X416233Y776769D01*
X416133Y776833D01*
X416036Y776900D01*
X415941Y776970D01*
X415849Y777044D01*
X415758Y777120D01*
X415671Y777200D01*
X415586Y777282D01*
X415504Y777367D01*
X415424Y777454D01*
X415348Y777545D01*
X415274Y777637D01*
X415204Y777732D01*
X415137Y777829D01*
X415073Y777929D01*
X415012Y778030D01*
X414955Y778133D01*
X414900Y778238D01*
X414850Y778345D01*
X414803Y778454D01*
X414760Y778564D01*
X414720Y778675D01*
X414684Y778787D01*
X414651Y778901D01*
X414622Y779016D01*
X414597Y779131D01*
X414576Y779248D01*
X414559Y779365D01*
X414545Y779482D01*
X414536Y779600D01*
X414530Y779718D01*
X414528Y779836D01*
X414528Y788868D01*
X414530Y788986D01*
X414536Y789104D01*
X414545Y789222D01*
X414559Y789339D01*
X414576Y789456D01*
X414597Y789573D01*
X414622Y789688D01*
X414651Y789803D01*
X414684Y789917D01*
X414720Y790029D01*
X414760Y790140D01*
X414803Y790250D01*
X414850Y790359D01*
X414900Y790466D01*
X414954Y790571D01*
X415012Y790674D01*
X415073Y790775D01*
X415137Y790875D01*
X415204Y790972D01*
X415274Y791067D01*
X415348Y791159D01*
X415424Y791250D01*
X415504Y791337D01*
X415586Y791422D01*
X415671Y791504D01*
X415758Y791584D01*
X415849Y791660D01*
X415941Y791734D01*
X416036Y791804D01*
X416133Y791871D01*
X416233Y791935D01*
X416334Y791996D01*
X416437Y792053D01*
X416542Y792107D01*
X416649Y792158D01*
X416758Y792205D01*
X416868Y792248D01*
X416979Y792288D01*
X417091Y792324D01*
X417205Y792357D01*
X417320Y792386D01*
X417435Y792411D01*
X417552Y792432D01*
X417669Y792449D01*
X417786Y792463D01*
X417904Y792472D01*
X418022Y792478D01*
X418140Y792480D01*
X423559Y792480D01*
X430778Y792480D02*
X430778Y778933D01*
X430779Y778933D02*
X430781Y778832D01*
X430787Y778731D01*
X430796Y778630D01*
X430809Y778529D01*
X430826Y778429D01*
X430847Y778330D01*
X430871Y778232D01*
X430899Y778135D01*
X430931Y778038D01*
X430966Y777943D01*
X431005Y777850D01*
X431047Y777758D01*
X431093Y777667D01*
X431142Y777579D01*
X431194Y777492D01*
X431250Y777407D01*
X431308Y777324D01*
X431370Y777244D01*
X431435Y777166D01*
X431502Y777090D01*
X431572Y777017D01*
X431645Y776947D01*
X431721Y776880D01*
X431799Y776815D01*
X431879Y776753D01*
X431962Y776695D01*
X432047Y776639D01*
X432134Y776587D01*
X432222Y776538D01*
X432313Y776492D01*
X432405Y776450D01*
X432498Y776411D01*
X432593Y776376D01*
X432690Y776344D01*
X432787Y776316D01*
X432885Y776292D01*
X432984Y776271D01*
X433084Y776254D01*
X433185Y776241D01*
X433286Y776232D01*
X433387Y776226D01*
X433488Y776224D01*
X441966Y782546D02*
X446030Y782546D01*
X441966Y782546D02*
X441854Y782544D01*
X441743Y782538D01*
X441632Y782528D01*
X441521Y782515D01*
X441411Y782497D01*
X441302Y782475D01*
X441193Y782450D01*
X441085Y782421D01*
X440979Y782388D01*
X440873Y782351D01*
X440769Y782311D01*
X440667Y782267D01*
X440566Y782219D01*
X440467Y782168D01*
X440369Y782113D01*
X440274Y782055D01*
X440181Y781994D01*
X440090Y781929D01*
X440001Y781861D01*
X439915Y781790D01*
X439832Y781717D01*
X439751Y781640D01*
X439672Y781560D01*
X439597Y781478D01*
X439525Y781393D01*
X439455Y781306D01*
X439389Y781216D01*
X439326Y781124D01*
X439266Y781029D01*
X439210Y780933D01*
X439157Y780835D01*
X439108Y780735D01*
X439062Y780633D01*
X439020Y780530D01*
X438981Y780425D01*
X438946Y780319D01*
X438915Y780212D01*
X438888Y780104D01*
X438864Y779995D01*
X438845Y779885D01*
X438829Y779775D01*
X438817Y779664D01*
X438809Y779552D01*
X438805Y779441D01*
X438805Y779329D01*
X438809Y779218D01*
X438817Y779106D01*
X438829Y778995D01*
X438845Y778885D01*
X438864Y778775D01*
X438888Y778666D01*
X438915Y778558D01*
X438946Y778451D01*
X438981Y778345D01*
X439020Y778240D01*
X439062Y778137D01*
X439108Y778035D01*
X439157Y777935D01*
X439210Y777837D01*
X439266Y777741D01*
X439326Y777646D01*
X439389Y777554D01*
X439455Y777464D01*
X439525Y777377D01*
X439597Y777292D01*
X439672Y777210D01*
X439751Y777130D01*
X439832Y777053D01*
X439915Y776980D01*
X440001Y776909D01*
X440090Y776841D01*
X440181Y776776D01*
X440274Y776715D01*
X440369Y776657D01*
X440467Y776602D01*
X440566Y776551D01*
X440667Y776503D01*
X440769Y776459D01*
X440873Y776419D01*
X440979Y776382D01*
X441085Y776349D01*
X441193Y776320D01*
X441302Y776295D01*
X441411Y776273D01*
X441521Y776255D01*
X441632Y776242D01*
X441743Y776232D01*
X441854Y776226D01*
X441966Y776224D01*
X446030Y776224D01*
X446030Y784352D01*
X446029Y784352D02*
X446027Y784453D01*
X446021Y784554D01*
X446012Y784655D01*
X445999Y784756D01*
X445982Y784856D01*
X445961Y784955D01*
X445937Y785053D01*
X445909Y785150D01*
X445877Y785247D01*
X445842Y785342D01*
X445803Y785435D01*
X445761Y785527D01*
X445715Y785618D01*
X445666Y785707D01*
X445614Y785793D01*
X445558Y785878D01*
X445500Y785961D01*
X445438Y786041D01*
X445373Y786119D01*
X445306Y786195D01*
X445236Y786268D01*
X445163Y786338D01*
X445087Y786405D01*
X445009Y786470D01*
X444929Y786532D01*
X444846Y786590D01*
X444761Y786646D01*
X444675Y786698D01*
X444586Y786747D01*
X444495Y786793D01*
X444403Y786835D01*
X444310Y786874D01*
X444215Y786909D01*
X444118Y786941D01*
X444021Y786969D01*
X443923Y786993D01*
X443824Y787014D01*
X443724Y787031D01*
X443623Y787044D01*
X443522Y787053D01*
X443421Y787059D01*
X443320Y787061D01*
X439708Y787061D01*
X454301Y782546D02*
X458816Y780740D01*
X454300Y782546D02*
X454212Y782583D01*
X454126Y782624D01*
X454041Y782668D01*
X453958Y782716D01*
X453878Y782767D01*
X453799Y782821D01*
X453723Y782879D01*
X453649Y782939D01*
X453577Y783003D01*
X453509Y783069D01*
X453443Y783139D01*
X453380Y783210D01*
X453319Y783285D01*
X453262Y783361D01*
X453209Y783440D01*
X453158Y783521D01*
X453111Y783604D01*
X453067Y783689D01*
X453027Y783776D01*
X452990Y783864D01*
X452957Y783954D01*
X452927Y784045D01*
X452902Y784137D01*
X452880Y784230D01*
X452862Y784324D01*
X452847Y784418D01*
X452837Y784513D01*
X452831Y784609D01*
X452828Y784704D01*
X452829Y784800D01*
X452835Y784895D01*
X452844Y784991D01*
X452857Y785085D01*
X452873Y785179D01*
X452894Y785273D01*
X452919Y785365D01*
X452947Y785456D01*
X452979Y785546D01*
X453014Y785635D01*
X453053Y785722D01*
X453096Y785808D01*
X453142Y785892D01*
X453192Y785973D01*
X453244Y786053D01*
X453300Y786131D01*
X453360Y786206D01*
X453422Y786278D01*
X453487Y786348D01*
X453555Y786416D01*
X453625Y786480D01*
X453698Y786542D01*
X453774Y786600D01*
X453852Y786656D01*
X453932Y786708D01*
X454014Y786757D01*
X454098Y786802D01*
X454184Y786844D01*
X454271Y786883D01*
X454360Y786918D01*
X454451Y786949D01*
X454542Y786976D01*
X454635Y787000D01*
X454728Y787020D01*
X454822Y787036D01*
X454917Y787048D01*
X455012Y787057D01*
X455108Y787061D01*
X455203Y787062D01*
X455450Y787055D01*
X455696Y787043D01*
X455942Y787025D01*
X456188Y787000D01*
X456432Y786970D01*
X456676Y786934D01*
X456919Y786893D01*
X457161Y786845D01*
X457402Y786791D01*
X457641Y786732D01*
X457879Y786667D01*
X458115Y786596D01*
X458350Y786520D01*
X458583Y786438D01*
X458813Y786350D01*
X459041Y786257D01*
X459268Y786159D01*
X458817Y780739D02*
X458905Y780702D01*
X458991Y780661D01*
X459076Y780617D01*
X459159Y780569D01*
X459239Y780518D01*
X459318Y780464D01*
X459394Y780406D01*
X459468Y780346D01*
X459540Y780282D01*
X459608Y780216D01*
X459674Y780146D01*
X459737Y780075D01*
X459798Y780000D01*
X459855Y779924D01*
X459908Y779845D01*
X459959Y779764D01*
X460006Y779681D01*
X460050Y779596D01*
X460090Y779509D01*
X460127Y779421D01*
X460160Y779331D01*
X460190Y779240D01*
X460215Y779148D01*
X460237Y779055D01*
X460255Y778961D01*
X460270Y778867D01*
X460280Y778772D01*
X460286Y778676D01*
X460289Y778581D01*
X460288Y778485D01*
X460282Y778390D01*
X460273Y778294D01*
X460260Y778200D01*
X460244Y778106D01*
X460223Y778012D01*
X460198Y777920D01*
X460170Y777829D01*
X460138Y777739D01*
X460103Y777650D01*
X460064Y777563D01*
X460021Y777477D01*
X459975Y777393D01*
X459925Y777312D01*
X459873Y777232D01*
X459817Y777154D01*
X459757Y777079D01*
X459695Y777007D01*
X459630Y776937D01*
X459562Y776869D01*
X459492Y776805D01*
X459419Y776743D01*
X459343Y776685D01*
X459265Y776629D01*
X459185Y776577D01*
X459103Y776528D01*
X459019Y776483D01*
X458933Y776441D01*
X458846Y776402D01*
X458757Y776367D01*
X458666Y776336D01*
X458575Y776309D01*
X458482Y776285D01*
X458389Y776265D01*
X458295Y776249D01*
X458200Y776237D01*
X458105Y776228D01*
X458009Y776224D01*
X457914Y776223D01*
X457913Y776224D02*
X457551Y776233D01*
X457189Y776251D01*
X456828Y776278D01*
X456468Y776313D01*
X456108Y776356D01*
X455749Y776408D01*
X455392Y776469D01*
X455037Y776538D01*
X454683Y776615D01*
X454331Y776701D01*
X453981Y776795D01*
X453633Y776898D01*
X453288Y777008D01*
X452946Y777127D01*
X467848Y782546D02*
X472363Y780740D01*
X467847Y782546D02*
X467759Y782583D01*
X467673Y782624D01*
X467588Y782668D01*
X467505Y782716D01*
X467425Y782767D01*
X467346Y782821D01*
X467270Y782879D01*
X467196Y782939D01*
X467124Y783003D01*
X467056Y783069D01*
X466990Y783139D01*
X466927Y783210D01*
X466866Y783285D01*
X466809Y783361D01*
X466756Y783440D01*
X466705Y783521D01*
X466658Y783604D01*
X466614Y783689D01*
X466574Y783776D01*
X466537Y783864D01*
X466504Y783954D01*
X466474Y784045D01*
X466449Y784137D01*
X466427Y784230D01*
X466409Y784324D01*
X466394Y784418D01*
X466384Y784513D01*
X466378Y784609D01*
X466375Y784704D01*
X466376Y784800D01*
X466382Y784895D01*
X466391Y784991D01*
X466404Y785085D01*
X466420Y785179D01*
X466441Y785273D01*
X466466Y785365D01*
X466494Y785456D01*
X466526Y785546D01*
X466561Y785635D01*
X466600Y785722D01*
X466643Y785808D01*
X466689Y785892D01*
X466739Y785973D01*
X466791Y786053D01*
X466847Y786131D01*
X466907Y786206D01*
X466969Y786278D01*
X467034Y786348D01*
X467102Y786416D01*
X467172Y786480D01*
X467245Y786542D01*
X467321Y786600D01*
X467399Y786656D01*
X467479Y786708D01*
X467561Y786757D01*
X467645Y786802D01*
X467731Y786844D01*
X467818Y786883D01*
X467907Y786918D01*
X467998Y786949D01*
X468089Y786976D01*
X468182Y787000D01*
X468275Y787020D01*
X468369Y787036D01*
X468464Y787048D01*
X468559Y787057D01*
X468655Y787061D01*
X468750Y787062D01*
X468997Y787055D01*
X469243Y787043D01*
X469489Y787025D01*
X469735Y787000D01*
X469979Y786970D01*
X470223Y786934D01*
X470466Y786893D01*
X470708Y786845D01*
X470949Y786791D01*
X471188Y786732D01*
X471426Y786667D01*
X471662Y786596D01*
X471897Y786520D01*
X472130Y786438D01*
X472360Y786350D01*
X472588Y786257D01*
X472815Y786159D01*
X472364Y780739D02*
X472452Y780702D01*
X472538Y780661D01*
X472623Y780617D01*
X472706Y780569D01*
X472786Y780518D01*
X472865Y780464D01*
X472941Y780406D01*
X473015Y780346D01*
X473087Y780282D01*
X473155Y780216D01*
X473221Y780146D01*
X473284Y780075D01*
X473345Y780000D01*
X473402Y779924D01*
X473455Y779845D01*
X473506Y779764D01*
X473553Y779681D01*
X473597Y779596D01*
X473637Y779509D01*
X473674Y779421D01*
X473707Y779331D01*
X473737Y779240D01*
X473762Y779148D01*
X473784Y779055D01*
X473802Y778961D01*
X473817Y778867D01*
X473827Y778772D01*
X473833Y778676D01*
X473836Y778581D01*
X473835Y778485D01*
X473829Y778390D01*
X473820Y778294D01*
X473807Y778200D01*
X473791Y778106D01*
X473770Y778012D01*
X473745Y777920D01*
X473717Y777829D01*
X473685Y777739D01*
X473650Y777650D01*
X473611Y777563D01*
X473568Y777477D01*
X473522Y777393D01*
X473472Y777312D01*
X473420Y777232D01*
X473364Y777154D01*
X473304Y777079D01*
X473242Y777007D01*
X473177Y776937D01*
X473109Y776869D01*
X473039Y776805D01*
X472966Y776743D01*
X472890Y776685D01*
X472812Y776629D01*
X472732Y776577D01*
X472650Y776528D01*
X472566Y776483D01*
X472480Y776441D01*
X472393Y776402D01*
X472304Y776367D01*
X472213Y776336D01*
X472122Y776309D01*
X472029Y776285D01*
X471936Y776265D01*
X471842Y776249D01*
X471747Y776237D01*
X471652Y776228D01*
X471556Y776224D01*
X471461Y776223D01*
X471460Y776224D02*
X471098Y776233D01*
X470736Y776251D01*
X470375Y776278D01*
X470015Y776313D01*
X469655Y776356D01*
X469296Y776408D01*
X468939Y776469D01*
X468584Y776538D01*
X468230Y776615D01*
X467878Y776701D01*
X467528Y776795D01*
X467180Y776898D01*
X466835Y777008D01*
X466493Y777127D01*
X483752Y776224D02*
X487365Y776224D01*
X483752Y776224D02*
X483634Y776226D01*
X483516Y776232D01*
X483398Y776241D01*
X483281Y776255D01*
X483164Y776272D01*
X483047Y776293D01*
X482932Y776318D01*
X482817Y776347D01*
X482703Y776380D01*
X482591Y776416D01*
X482480Y776456D01*
X482370Y776499D01*
X482261Y776546D01*
X482154Y776596D01*
X482049Y776651D01*
X481946Y776708D01*
X481845Y776769D01*
X481745Y776833D01*
X481648Y776900D01*
X481553Y776970D01*
X481461Y777044D01*
X481370Y777120D01*
X481283Y777200D01*
X481198Y777282D01*
X481116Y777367D01*
X481036Y777454D01*
X480960Y777545D01*
X480886Y777637D01*
X480816Y777732D01*
X480749Y777829D01*
X480685Y777929D01*
X480624Y778030D01*
X480567Y778133D01*
X480512Y778238D01*
X480462Y778345D01*
X480415Y778454D01*
X480372Y778564D01*
X480332Y778675D01*
X480296Y778787D01*
X480263Y778901D01*
X480234Y779016D01*
X480209Y779131D01*
X480188Y779248D01*
X480171Y779365D01*
X480157Y779482D01*
X480148Y779600D01*
X480142Y779718D01*
X480140Y779836D01*
X480140Y788868D01*
X480142Y788986D01*
X480148Y789104D01*
X480157Y789222D01*
X480171Y789339D01*
X480188Y789456D01*
X480209Y789573D01*
X480234Y789688D01*
X480263Y789803D01*
X480296Y789917D01*
X480332Y790029D01*
X480372Y790140D01*
X480415Y790250D01*
X480462Y790359D01*
X480512Y790466D01*
X480566Y790571D01*
X480624Y790674D01*
X480685Y790775D01*
X480749Y790875D01*
X480816Y790972D01*
X480886Y791067D01*
X480960Y791159D01*
X481036Y791250D01*
X481116Y791337D01*
X481198Y791422D01*
X481283Y791504D01*
X481370Y791584D01*
X481461Y791660D01*
X481553Y791734D01*
X481648Y791804D01*
X481745Y791871D01*
X481845Y791935D01*
X481946Y791996D01*
X482049Y792053D01*
X482154Y792107D01*
X482261Y792158D01*
X482370Y792205D01*
X482480Y792248D01*
X482591Y792288D01*
X482703Y792324D01*
X482817Y792357D01*
X482932Y792386D01*
X483047Y792411D01*
X483164Y792432D01*
X483281Y792449D01*
X483398Y792463D01*
X483516Y792472D01*
X483634Y792478D01*
X483752Y792480D01*
X487365Y792480D01*
X493587Y787061D02*
X493587Y778933D01*
X493588Y778933D02*
X493590Y778832D01*
X493596Y778731D01*
X493605Y778630D01*
X493618Y778529D01*
X493635Y778429D01*
X493656Y778330D01*
X493680Y778232D01*
X493708Y778135D01*
X493740Y778038D01*
X493775Y777943D01*
X493814Y777850D01*
X493856Y777758D01*
X493902Y777667D01*
X493951Y777579D01*
X494003Y777492D01*
X494059Y777407D01*
X494117Y777324D01*
X494179Y777244D01*
X494244Y777166D01*
X494311Y777090D01*
X494381Y777017D01*
X494454Y776947D01*
X494530Y776880D01*
X494608Y776815D01*
X494688Y776753D01*
X494771Y776695D01*
X494856Y776639D01*
X494943Y776587D01*
X495031Y776538D01*
X495122Y776492D01*
X495214Y776450D01*
X495307Y776411D01*
X495402Y776376D01*
X495499Y776344D01*
X495596Y776316D01*
X495694Y776292D01*
X495793Y776271D01*
X495893Y776254D01*
X495994Y776241D01*
X496095Y776232D01*
X496196Y776226D01*
X496297Y776224D01*
X500812Y776224D01*
X500812Y787061D01*
X508250Y792480D02*
X508250Y776224D01*
X512765Y776224D01*
X512869Y776226D01*
X512972Y776232D01*
X513076Y776242D01*
X513179Y776256D01*
X513281Y776274D01*
X513382Y776295D01*
X513483Y776321D01*
X513582Y776350D01*
X513681Y776383D01*
X513778Y776420D01*
X513873Y776461D01*
X513967Y776505D01*
X514059Y776553D01*
X514149Y776604D01*
X514238Y776659D01*
X514324Y776717D01*
X514407Y776779D01*
X514489Y776843D01*
X514567Y776911D01*
X514643Y776981D01*
X514717Y777054D01*
X514787Y777131D01*
X514855Y777209D01*
X514919Y777291D01*
X514981Y777374D01*
X515039Y777460D01*
X515094Y777549D01*
X515145Y777639D01*
X515193Y777731D01*
X515237Y777825D01*
X515278Y777920D01*
X515315Y778017D01*
X515348Y778116D01*
X515377Y778215D01*
X515403Y778316D01*
X515424Y778417D01*
X515442Y778519D01*
X515456Y778622D01*
X515466Y778726D01*
X515472Y778829D01*
X515474Y778933D01*
X515475Y778933D02*
X515475Y784352D01*
X515474Y784352D02*
X515472Y784453D01*
X515466Y784554D01*
X515457Y784655D01*
X515444Y784756D01*
X515427Y784856D01*
X515406Y784955D01*
X515382Y785053D01*
X515354Y785150D01*
X515322Y785247D01*
X515287Y785342D01*
X515248Y785435D01*
X515206Y785527D01*
X515160Y785618D01*
X515111Y785707D01*
X515059Y785793D01*
X515003Y785878D01*
X514945Y785961D01*
X514883Y786041D01*
X514818Y786119D01*
X514751Y786195D01*
X514681Y786268D01*
X514608Y786338D01*
X514532Y786405D01*
X514454Y786470D01*
X514374Y786532D01*
X514291Y786590D01*
X514206Y786646D01*
X514120Y786698D01*
X514031Y786747D01*
X513940Y786793D01*
X513848Y786835D01*
X513755Y786874D01*
X513660Y786909D01*
X513563Y786941D01*
X513466Y786969D01*
X513368Y786993D01*
X513269Y787014D01*
X513169Y787031D01*
X513068Y787044D01*
X512967Y787053D01*
X512866Y787059D01*
X512765Y787061D01*
X508250Y787061D01*
X524433Y776224D02*
X528948Y776224D01*
X524433Y776224D02*
X524332Y776226D01*
X524231Y776232D01*
X524130Y776241D01*
X524029Y776254D01*
X523929Y776271D01*
X523830Y776292D01*
X523732Y776316D01*
X523635Y776344D01*
X523538Y776376D01*
X523443Y776411D01*
X523350Y776450D01*
X523258Y776492D01*
X523167Y776538D01*
X523079Y776587D01*
X522992Y776639D01*
X522907Y776695D01*
X522824Y776753D01*
X522744Y776815D01*
X522666Y776880D01*
X522590Y776947D01*
X522517Y777017D01*
X522447Y777090D01*
X522380Y777166D01*
X522315Y777244D01*
X522253Y777324D01*
X522195Y777407D01*
X522139Y777492D01*
X522087Y777579D01*
X522038Y777667D01*
X521992Y777758D01*
X521950Y777850D01*
X521911Y777943D01*
X521876Y778038D01*
X521844Y778135D01*
X521816Y778232D01*
X521792Y778330D01*
X521771Y778429D01*
X521754Y778529D01*
X521741Y778630D01*
X521732Y778731D01*
X521726Y778832D01*
X521724Y778933D01*
X521723Y778933D02*
X521723Y783449D01*
X521724Y783449D02*
X521726Y783568D01*
X521732Y783688D01*
X521742Y783807D01*
X521756Y783925D01*
X521773Y784044D01*
X521795Y784161D01*
X521820Y784278D01*
X521850Y784393D01*
X521883Y784508D01*
X521920Y784622D01*
X521960Y784734D01*
X522005Y784845D01*
X522053Y784954D01*
X522104Y785062D01*
X522159Y785168D01*
X522218Y785272D01*
X522280Y785374D01*
X522345Y785474D01*
X522414Y785572D01*
X522486Y785668D01*
X522561Y785761D01*
X522638Y785851D01*
X522719Y785939D01*
X522803Y786024D01*
X522890Y786106D01*
X522979Y786186D01*
X523071Y786262D01*
X523165Y786336D01*
X523262Y786406D01*
X523360Y786473D01*
X523461Y786537D01*
X523565Y786597D01*
X523670Y786654D01*
X523777Y786707D01*
X523885Y786757D01*
X523995Y786803D01*
X524107Y786845D01*
X524220Y786884D01*
X524334Y786919D01*
X524449Y786950D01*
X524566Y786978D01*
X524683Y787001D01*
X524800Y787021D01*
X524919Y787037D01*
X525038Y787049D01*
X525157Y787057D01*
X525276Y787061D01*
X525396Y787061D01*
X525515Y787057D01*
X525634Y787049D01*
X525753Y787037D01*
X525872Y787021D01*
X525989Y787001D01*
X526106Y786978D01*
X526223Y786950D01*
X526338Y786919D01*
X526452Y786884D01*
X526565Y786845D01*
X526677Y786803D01*
X526787Y786757D01*
X526895Y786707D01*
X527002Y786654D01*
X527107Y786597D01*
X527211Y786537D01*
X527312Y786473D01*
X527410Y786406D01*
X527507Y786336D01*
X527601Y786262D01*
X527693Y786186D01*
X527782Y786106D01*
X527869Y786024D01*
X527953Y785939D01*
X528034Y785851D01*
X528111Y785761D01*
X528186Y785668D01*
X528258Y785572D01*
X528327Y785474D01*
X528392Y785374D01*
X528454Y785272D01*
X528513Y785168D01*
X528568Y785062D01*
X528619Y784954D01*
X528667Y784845D01*
X528712Y784734D01*
X528752Y784622D01*
X528789Y784508D01*
X528822Y784393D01*
X528852Y784278D01*
X528877Y784161D01*
X528899Y784044D01*
X528916Y783925D01*
X528930Y783807D01*
X528940Y783688D01*
X528946Y783568D01*
X528948Y783449D01*
X528948Y781643D01*
X521723Y781643D01*
X544478Y776224D02*
X544478Y792480D01*
X548994Y792480D01*
X549127Y792478D01*
X549259Y792472D01*
X549391Y792462D01*
X549523Y792449D01*
X549655Y792431D01*
X549785Y792410D01*
X549916Y792385D01*
X550045Y792356D01*
X550173Y792323D01*
X550301Y792287D01*
X550427Y792247D01*
X550552Y792203D01*
X550676Y792155D01*
X550798Y792104D01*
X550919Y792049D01*
X551038Y791991D01*
X551156Y791929D01*
X551271Y791864D01*
X551385Y791795D01*
X551496Y791724D01*
X551605Y791648D01*
X551712Y791570D01*
X551817Y791489D01*
X551919Y791404D01*
X552019Y791317D01*
X552116Y791227D01*
X552211Y791134D01*
X552302Y791038D01*
X552391Y790940D01*
X552477Y790839D01*
X552560Y790735D01*
X552640Y790629D01*
X552716Y790521D01*
X552790Y790411D01*
X552860Y790298D01*
X552927Y790184D01*
X552990Y790067D01*
X553050Y789949D01*
X553107Y789829D01*
X553160Y789707D01*
X553209Y789584D01*
X553255Y789460D01*
X553297Y789334D01*
X553335Y789207D01*
X553370Y789079D01*
X553401Y788950D01*
X553428Y788821D01*
X553451Y788690D01*
X553471Y788559D01*
X553486Y788427D01*
X553498Y788295D01*
X553506Y788163D01*
X553510Y788030D01*
X553510Y787898D01*
X553506Y787765D01*
X553498Y787633D01*
X553486Y787501D01*
X553471Y787369D01*
X553451Y787238D01*
X553428Y787107D01*
X553401Y786978D01*
X553370Y786849D01*
X553335Y786721D01*
X553297Y786594D01*
X553255Y786468D01*
X553209Y786344D01*
X553160Y786221D01*
X553107Y786099D01*
X553050Y785979D01*
X552990Y785861D01*
X552927Y785744D01*
X552860Y785630D01*
X552790Y785517D01*
X552716Y785407D01*
X552640Y785299D01*
X552560Y785193D01*
X552477Y785089D01*
X552391Y784988D01*
X552302Y784890D01*
X552211Y784794D01*
X552116Y784701D01*
X552019Y784611D01*
X551919Y784524D01*
X551817Y784439D01*
X551712Y784358D01*
X551605Y784280D01*
X551496Y784204D01*
X551385Y784133D01*
X551271Y784064D01*
X551156Y783999D01*
X551038Y783937D01*
X550919Y783879D01*
X550798Y783824D01*
X550676Y783773D01*
X550552Y783725D01*
X550427Y783681D01*
X550301Y783641D01*
X550173Y783605D01*
X550045Y783572D01*
X549916Y783543D01*
X549785Y783518D01*
X549655Y783497D01*
X549523Y783479D01*
X549391Y783466D01*
X549259Y783456D01*
X549127Y783450D01*
X548994Y783448D01*
X548994Y783449D02*
X544478Y783449D01*
X562950Y776224D02*
X566563Y776224D01*
X562950Y776224D02*
X562832Y776226D01*
X562714Y776232D01*
X562596Y776241D01*
X562479Y776255D01*
X562362Y776272D01*
X562245Y776293D01*
X562130Y776318D01*
X562015Y776347D01*
X561901Y776380D01*
X561789Y776416D01*
X561678Y776456D01*
X561568Y776499D01*
X561459Y776546D01*
X561352Y776596D01*
X561247Y776651D01*
X561144Y776708D01*
X561043Y776769D01*
X560943Y776833D01*
X560846Y776900D01*
X560751Y776970D01*
X560659Y777044D01*
X560568Y777120D01*
X560481Y777200D01*
X560396Y777282D01*
X560314Y777367D01*
X560234Y777454D01*
X560158Y777545D01*
X560084Y777637D01*
X560014Y777732D01*
X559947Y777829D01*
X559883Y777929D01*
X559822Y778030D01*
X559765Y778133D01*
X559710Y778238D01*
X559660Y778345D01*
X559613Y778454D01*
X559570Y778564D01*
X559530Y778675D01*
X559494Y778787D01*
X559461Y778901D01*
X559432Y779016D01*
X559407Y779131D01*
X559386Y779248D01*
X559369Y779365D01*
X559355Y779482D01*
X559346Y779600D01*
X559340Y779718D01*
X559338Y779836D01*
X559338Y788868D01*
X559340Y788986D01*
X559346Y789104D01*
X559355Y789222D01*
X559369Y789339D01*
X559386Y789456D01*
X559407Y789573D01*
X559432Y789688D01*
X559461Y789803D01*
X559494Y789917D01*
X559530Y790029D01*
X559570Y790140D01*
X559613Y790250D01*
X559660Y790359D01*
X559710Y790466D01*
X559764Y790571D01*
X559822Y790674D01*
X559883Y790775D01*
X559947Y790875D01*
X560014Y790972D01*
X560084Y791067D01*
X560158Y791159D01*
X560234Y791250D01*
X560314Y791337D01*
X560396Y791422D01*
X560481Y791504D01*
X560568Y791584D01*
X560659Y791660D01*
X560751Y791734D01*
X560846Y791804D01*
X560943Y791871D01*
X561043Y791935D01*
X561144Y791996D01*
X561247Y792053D01*
X561352Y792107D01*
X561459Y792158D01*
X561568Y792205D01*
X561678Y792248D01*
X561789Y792288D01*
X561901Y792324D01*
X562015Y792357D01*
X562130Y792386D01*
X562245Y792411D01*
X562362Y792432D01*
X562479Y792449D01*
X562596Y792463D01*
X562714Y792472D01*
X562832Y792478D01*
X562950Y792480D01*
X566563Y792480D01*
X573135Y785255D02*
X577651Y785255D01*
X577651Y785256D02*
X577784Y785254D01*
X577916Y785248D01*
X578048Y785238D01*
X578180Y785225D01*
X578312Y785207D01*
X578442Y785186D01*
X578573Y785161D01*
X578702Y785132D01*
X578830Y785099D01*
X578958Y785063D01*
X579084Y785023D01*
X579209Y784979D01*
X579333Y784931D01*
X579455Y784880D01*
X579576Y784825D01*
X579695Y784767D01*
X579813Y784705D01*
X579928Y784640D01*
X580042Y784571D01*
X580153Y784500D01*
X580262Y784424D01*
X580369Y784346D01*
X580474Y784265D01*
X580576Y784180D01*
X580676Y784093D01*
X580773Y784003D01*
X580868Y783910D01*
X580959Y783814D01*
X581048Y783716D01*
X581134Y783615D01*
X581217Y783511D01*
X581297Y783405D01*
X581373Y783297D01*
X581447Y783187D01*
X581517Y783074D01*
X581584Y782960D01*
X581647Y782843D01*
X581707Y782725D01*
X581764Y782605D01*
X581817Y782483D01*
X581866Y782360D01*
X581912Y782236D01*
X581954Y782110D01*
X581992Y781983D01*
X582027Y781855D01*
X582058Y781726D01*
X582085Y781597D01*
X582108Y781466D01*
X582128Y781335D01*
X582143Y781203D01*
X582155Y781071D01*
X582163Y780939D01*
X582167Y780806D01*
X582167Y780674D01*
X582163Y780541D01*
X582155Y780409D01*
X582143Y780277D01*
X582128Y780145D01*
X582108Y780014D01*
X582085Y779883D01*
X582058Y779754D01*
X582027Y779625D01*
X581992Y779497D01*
X581954Y779370D01*
X581912Y779244D01*
X581866Y779120D01*
X581817Y778997D01*
X581764Y778875D01*
X581707Y778755D01*
X581647Y778637D01*
X581584Y778520D01*
X581517Y778406D01*
X581447Y778293D01*
X581373Y778183D01*
X581297Y778075D01*
X581217Y777969D01*
X581134Y777865D01*
X581048Y777764D01*
X580959Y777666D01*
X580868Y777570D01*
X580773Y777477D01*
X580676Y777387D01*
X580576Y777300D01*
X580474Y777215D01*
X580369Y777134D01*
X580262Y777056D01*
X580153Y776980D01*
X580042Y776909D01*
X579928Y776840D01*
X579813Y776775D01*
X579695Y776713D01*
X579576Y776655D01*
X579455Y776600D01*
X579333Y776549D01*
X579209Y776501D01*
X579084Y776457D01*
X578958Y776417D01*
X578830Y776381D01*
X578702Y776348D01*
X578573Y776319D01*
X578442Y776294D01*
X578312Y776273D01*
X578180Y776255D01*
X578048Y776242D01*
X577916Y776232D01*
X577784Y776226D01*
X577651Y776224D01*
X573135Y776224D01*
X573135Y792480D01*
X577651Y792480D01*
X577770Y792478D01*
X577890Y792472D01*
X578009Y792462D01*
X578127Y792448D01*
X578246Y792431D01*
X578363Y792409D01*
X578480Y792384D01*
X578595Y792354D01*
X578710Y792321D01*
X578824Y792284D01*
X578936Y792244D01*
X579047Y792199D01*
X579156Y792151D01*
X579264Y792100D01*
X579370Y792045D01*
X579474Y791986D01*
X579576Y791924D01*
X579676Y791859D01*
X579774Y791790D01*
X579870Y791718D01*
X579963Y791643D01*
X580053Y791566D01*
X580141Y791485D01*
X580226Y791401D01*
X580308Y791314D01*
X580388Y791225D01*
X580464Y791133D01*
X580538Y791039D01*
X580608Y790942D01*
X580675Y790844D01*
X580739Y790743D01*
X580799Y790639D01*
X580856Y790534D01*
X580909Y790427D01*
X580959Y790319D01*
X581005Y790209D01*
X581047Y790097D01*
X581086Y789984D01*
X581121Y789870D01*
X581152Y789755D01*
X581180Y789638D01*
X581203Y789521D01*
X581223Y789404D01*
X581239Y789285D01*
X581251Y789166D01*
X581259Y789047D01*
X581263Y788928D01*
X581263Y788808D01*
X581259Y788689D01*
X581251Y788570D01*
X581239Y788451D01*
X581223Y788332D01*
X581203Y788215D01*
X581180Y788098D01*
X581152Y787981D01*
X581121Y787866D01*
X581086Y787752D01*
X581047Y787639D01*
X581005Y787527D01*
X580959Y787417D01*
X580909Y787309D01*
X580856Y787202D01*
X580799Y787097D01*
X580739Y786993D01*
X580675Y786892D01*
X580608Y786794D01*
X580538Y786697D01*
X580464Y786603D01*
X580388Y786511D01*
X580308Y786422D01*
X580226Y786335D01*
X580141Y786251D01*
X580053Y786170D01*
X579963Y786093D01*
X579870Y786018D01*
X579774Y785946D01*
X579676Y785877D01*
X579576Y785812D01*
X579474Y785750D01*
X579370Y785691D01*
X579264Y785636D01*
X579156Y785585D01*
X579047Y785537D01*
X578936Y785492D01*
X578824Y785452D01*
X578710Y785415D01*
X578595Y785382D01*
X578480Y785352D01*
X578363Y785327D01*
X578246Y785305D01*
X578127Y785288D01*
X578009Y785274D01*
X577890Y785264D01*
X577770Y785258D01*
X577651Y785256D01*
X595711Y787061D02*
X599324Y776224D01*
X602936Y787061D01*
X608876Y788868D02*
X613392Y792480D01*
X613392Y776224D01*
X617907Y776224D02*
X608876Y776224D01*
D13*
X497078Y329414D02*
X497078Y319254D01*
D12*
X519628Y323826D02*
X521095Y323826D01*
X519628Y323826D02*
X519554Y323828D01*
X519479Y323834D01*
X519406Y323843D01*
X519332Y323856D01*
X519260Y323873D01*
X519189Y323893D01*
X519118Y323917D01*
X519049Y323945D01*
X518982Y323976D01*
X518916Y324010D01*
X518851Y324048D01*
X518789Y324089D01*
X518729Y324133D01*
X518672Y324180D01*
X518617Y324230D01*
X518564Y324283D01*
X518514Y324338D01*
X518467Y324395D01*
X518423Y324455D01*
X518382Y324517D01*
X518344Y324582D01*
X518310Y324648D01*
X518279Y324715D01*
X518251Y324784D01*
X518227Y324855D01*
X518207Y324926D01*
X518190Y324998D01*
X518177Y325072D01*
X518168Y325145D01*
X518162Y325220D01*
X518160Y325294D01*
X518160Y328962D01*
X518162Y329036D01*
X518168Y329111D01*
X518177Y329184D01*
X518190Y329258D01*
X518207Y329330D01*
X518227Y329401D01*
X518251Y329472D01*
X518279Y329541D01*
X518310Y329608D01*
X518344Y329674D01*
X518382Y329739D01*
X518423Y329801D01*
X518467Y329861D01*
X518514Y329918D01*
X518564Y329973D01*
X518617Y330026D01*
X518672Y330076D01*
X518729Y330123D01*
X518789Y330167D01*
X518851Y330208D01*
X518916Y330246D01*
X518981Y330280D01*
X519049Y330311D01*
X519118Y330339D01*
X519189Y330363D01*
X519260Y330383D01*
X519332Y330400D01*
X519406Y330413D01*
X519479Y330422D01*
X519554Y330428D01*
X519628Y330430D01*
X521095Y330430D01*
X524292Y328962D02*
X526126Y330430D01*
X526126Y323826D01*
X524292Y323826D02*
X527960Y323826D01*
D13*
X460700Y377100D02*
X452700Y377100D01*
D12*
X462796Y351693D02*
X462796Y350225D01*
X462794Y350151D01*
X462788Y350076D01*
X462779Y350003D01*
X462766Y349929D01*
X462749Y349857D01*
X462729Y349786D01*
X462705Y349715D01*
X462677Y349646D01*
X462646Y349579D01*
X462612Y349513D01*
X462574Y349448D01*
X462533Y349386D01*
X462489Y349326D01*
X462442Y349269D01*
X462392Y349214D01*
X462339Y349161D01*
X462284Y349111D01*
X462227Y349064D01*
X462167Y349020D01*
X462105Y348979D01*
X462040Y348941D01*
X461975Y348907D01*
X461907Y348876D01*
X461838Y348848D01*
X461767Y348824D01*
X461696Y348804D01*
X461624Y348787D01*
X461550Y348774D01*
X461477Y348765D01*
X461402Y348759D01*
X461328Y348757D01*
X461328Y348758D02*
X457660Y348758D01*
X457660Y348757D02*
X457586Y348759D01*
X457511Y348765D01*
X457438Y348774D01*
X457364Y348787D01*
X457292Y348804D01*
X457221Y348824D01*
X457150Y348848D01*
X457081Y348876D01*
X457014Y348907D01*
X456948Y348941D01*
X456883Y348979D01*
X456821Y349020D01*
X456761Y349064D01*
X456704Y349111D01*
X456649Y349161D01*
X456596Y349214D01*
X456546Y349269D01*
X456499Y349326D01*
X456455Y349386D01*
X456414Y349448D01*
X456376Y349513D01*
X456342Y349578D01*
X456311Y349646D01*
X456283Y349715D01*
X456259Y349786D01*
X456239Y349857D01*
X456222Y349929D01*
X456209Y350003D01*
X456200Y350076D01*
X456194Y350151D01*
X456192Y350225D01*
X456192Y351693D01*
X456192Y356907D02*
X456194Y356986D01*
X456199Y357064D01*
X456209Y357142D01*
X456222Y357219D01*
X456239Y357296D01*
X456259Y357372D01*
X456283Y357447D01*
X456310Y357521D01*
X456341Y357593D01*
X456376Y357664D01*
X456413Y357733D01*
X456454Y357800D01*
X456498Y357865D01*
X456545Y357928D01*
X456595Y357988D01*
X456648Y358046D01*
X456704Y358102D01*
X456762Y358155D01*
X456822Y358205D01*
X456885Y358252D01*
X456950Y358296D01*
X457018Y358337D01*
X457086Y358374D01*
X457157Y358409D01*
X457229Y358440D01*
X457303Y358467D01*
X457378Y358491D01*
X457454Y358511D01*
X457531Y358528D01*
X457608Y358541D01*
X457686Y358551D01*
X457764Y358556D01*
X457843Y358558D01*
X456192Y356907D02*
X456194Y356818D01*
X456199Y356729D01*
X456209Y356641D01*
X456222Y356553D01*
X456238Y356466D01*
X456259Y356379D01*
X456283Y356294D01*
X456310Y356209D01*
X456341Y356126D01*
X456376Y356044D01*
X456414Y355963D01*
X456455Y355884D01*
X456499Y355808D01*
X456547Y355732D01*
X456598Y355659D01*
X456651Y355589D01*
X456708Y355520D01*
X456768Y355454D01*
X456830Y355391D01*
X456895Y355330D01*
X456962Y355272D01*
X457032Y355217D01*
X457104Y355164D01*
X457178Y355115D01*
X457254Y355069D01*
X457332Y355027D01*
X457412Y354987D01*
X457493Y354951D01*
X457576Y354918D01*
X457660Y354889D01*
X459127Y358008D02*
X459071Y358064D01*
X459012Y358118D01*
X458951Y358169D01*
X458887Y358218D01*
X458822Y358263D01*
X458754Y358306D01*
X458685Y358345D01*
X458614Y358382D01*
X458541Y358415D01*
X458467Y358444D01*
X458392Y358471D01*
X458316Y358494D01*
X458238Y358513D01*
X458160Y358529D01*
X458082Y358542D01*
X458002Y358551D01*
X457923Y358556D01*
X457843Y358558D01*
X459127Y358008D02*
X462796Y354889D01*
X462796Y358558D01*
D13*
X578988Y371456D02*
X586988Y371456D01*
D12*
X589084Y346049D02*
X589084Y344581D01*
X589082Y344507D01*
X589076Y344432D01*
X589067Y344359D01*
X589054Y344285D01*
X589037Y344213D01*
X589017Y344142D01*
X588993Y344071D01*
X588965Y344002D01*
X588934Y343935D01*
X588900Y343869D01*
X588862Y343804D01*
X588821Y343742D01*
X588777Y343682D01*
X588730Y343625D01*
X588680Y343570D01*
X588627Y343517D01*
X588572Y343467D01*
X588515Y343420D01*
X588455Y343376D01*
X588393Y343335D01*
X588328Y343297D01*
X588263Y343263D01*
X588195Y343232D01*
X588126Y343204D01*
X588055Y343180D01*
X587984Y343160D01*
X587912Y343143D01*
X587838Y343130D01*
X587765Y343121D01*
X587690Y343115D01*
X587616Y343113D01*
X587616Y343114D02*
X583948Y343114D01*
X583948Y343113D02*
X583874Y343115D01*
X583799Y343121D01*
X583726Y343130D01*
X583652Y343143D01*
X583580Y343160D01*
X583509Y343180D01*
X583438Y343204D01*
X583369Y343232D01*
X583302Y343263D01*
X583236Y343297D01*
X583171Y343335D01*
X583109Y343376D01*
X583049Y343420D01*
X582992Y343467D01*
X582937Y343517D01*
X582884Y343570D01*
X582834Y343625D01*
X582787Y343682D01*
X582743Y343742D01*
X582702Y343804D01*
X582664Y343869D01*
X582630Y343934D01*
X582599Y344002D01*
X582571Y344071D01*
X582547Y344142D01*
X582527Y344213D01*
X582510Y344285D01*
X582497Y344359D01*
X582488Y344432D01*
X582482Y344507D01*
X582480Y344581D01*
X582480Y346049D01*
X589084Y349245D02*
X589084Y351080D01*
X589082Y351165D01*
X589076Y351249D01*
X589066Y351333D01*
X589053Y351417D01*
X589035Y351500D01*
X589014Y351582D01*
X588989Y351663D01*
X588960Y351743D01*
X588928Y351821D01*
X588892Y351897D01*
X588852Y351972D01*
X588809Y352045D01*
X588763Y352116D01*
X588714Y352185D01*
X588661Y352252D01*
X588605Y352316D01*
X588547Y352377D01*
X588486Y352435D01*
X588422Y352491D01*
X588355Y352544D01*
X588286Y352593D01*
X588215Y352639D01*
X588142Y352682D01*
X588067Y352722D01*
X587991Y352758D01*
X587913Y352790D01*
X587833Y352819D01*
X587752Y352844D01*
X587670Y352865D01*
X587587Y352883D01*
X587503Y352896D01*
X587419Y352906D01*
X587335Y352912D01*
X587250Y352914D01*
X587165Y352912D01*
X587081Y352906D01*
X586997Y352896D01*
X586913Y352883D01*
X586830Y352865D01*
X586748Y352844D01*
X586667Y352819D01*
X586587Y352790D01*
X586509Y352758D01*
X586433Y352722D01*
X586358Y352682D01*
X586285Y352639D01*
X586214Y352593D01*
X586145Y352544D01*
X586078Y352491D01*
X586014Y352435D01*
X585953Y352377D01*
X585895Y352316D01*
X585839Y352252D01*
X585786Y352185D01*
X585737Y352116D01*
X585691Y352045D01*
X585648Y351972D01*
X585608Y351897D01*
X585572Y351821D01*
X585540Y351743D01*
X585511Y351663D01*
X585486Y351582D01*
X585465Y351500D01*
X585447Y351417D01*
X585434Y351333D01*
X585424Y351249D01*
X585418Y351165D01*
X585416Y351080D01*
X582480Y351446D02*
X582480Y349245D01*
X582480Y351446D02*
X582482Y351522D01*
X582488Y351597D01*
X582497Y351672D01*
X582511Y351746D01*
X582528Y351820D01*
X582550Y351892D01*
X582574Y351964D01*
X582603Y352034D01*
X582635Y352102D01*
X582670Y352169D01*
X582709Y352234D01*
X582752Y352297D01*
X582797Y352357D01*
X582845Y352415D01*
X582897Y352471D01*
X582951Y352523D01*
X583008Y352573D01*
X583067Y352620D01*
X583128Y352664D01*
X583192Y352705D01*
X583258Y352742D01*
X583326Y352776D01*
X583395Y352806D01*
X583466Y352833D01*
X583538Y352856D01*
X583611Y352875D01*
X583685Y352890D01*
X583760Y352902D01*
X583835Y352910D01*
X583910Y352914D01*
X583986Y352914D01*
X584061Y352910D01*
X584136Y352902D01*
X584211Y352890D01*
X584285Y352875D01*
X584358Y352856D01*
X584430Y352833D01*
X584501Y352806D01*
X584570Y352776D01*
X584638Y352742D01*
X584704Y352705D01*
X584768Y352664D01*
X584829Y352620D01*
X584888Y352573D01*
X584945Y352523D01*
X584999Y352471D01*
X585051Y352415D01*
X585099Y352357D01*
X585144Y352297D01*
X585187Y352234D01*
X585226Y352169D01*
X585261Y352102D01*
X585293Y352034D01*
X585322Y351964D01*
X585346Y351892D01*
X585368Y351820D01*
X585385Y351746D01*
X585399Y351672D01*
X585408Y351597D01*
X585414Y351522D01*
X585416Y351446D01*
X585415Y351446D02*
X585415Y349979D01*
D13*
X420180Y379100D02*
X410020Y379100D01*
D12*
X421196Y351153D02*
X421196Y349685D01*
X421194Y349611D01*
X421188Y349536D01*
X421179Y349463D01*
X421166Y349389D01*
X421149Y349317D01*
X421129Y349246D01*
X421105Y349175D01*
X421077Y349106D01*
X421046Y349039D01*
X421012Y348973D01*
X420974Y348908D01*
X420933Y348846D01*
X420889Y348786D01*
X420842Y348729D01*
X420792Y348674D01*
X420739Y348621D01*
X420684Y348571D01*
X420627Y348524D01*
X420567Y348480D01*
X420505Y348439D01*
X420440Y348401D01*
X420375Y348367D01*
X420307Y348336D01*
X420238Y348308D01*
X420167Y348284D01*
X420096Y348264D01*
X420024Y348247D01*
X419950Y348234D01*
X419877Y348225D01*
X419802Y348219D01*
X419728Y348217D01*
X419728Y348218D02*
X416060Y348218D01*
X416060Y348217D02*
X415986Y348219D01*
X415911Y348225D01*
X415838Y348234D01*
X415764Y348247D01*
X415692Y348264D01*
X415621Y348284D01*
X415550Y348308D01*
X415481Y348336D01*
X415414Y348367D01*
X415348Y348401D01*
X415283Y348439D01*
X415221Y348480D01*
X415161Y348524D01*
X415104Y348571D01*
X415049Y348621D01*
X414996Y348674D01*
X414946Y348729D01*
X414899Y348786D01*
X414855Y348846D01*
X414814Y348908D01*
X414776Y348973D01*
X414742Y349038D01*
X414711Y349106D01*
X414683Y349175D01*
X414659Y349246D01*
X414639Y349317D01*
X414622Y349389D01*
X414609Y349463D01*
X414600Y349536D01*
X414594Y349611D01*
X414592Y349685D01*
X414592Y351153D01*
X419362Y354350D02*
X419277Y354352D01*
X419193Y354358D01*
X419109Y354368D01*
X419025Y354381D01*
X418942Y354399D01*
X418860Y354420D01*
X418779Y354445D01*
X418699Y354474D01*
X418621Y354506D01*
X418545Y354542D01*
X418470Y354582D01*
X418397Y354625D01*
X418326Y354671D01*
X418257Y354720D01*
X418190Y354773D01*
X418126Y354829D01*
X418065Y354887D01*
X418007Y354948D01*
X417951Y355012D01*
X417898Y355079D01*
X417849Y355148D01*
X417803Y355219D01*
X417760Y355292D01*
X417720Y355367D01*
X417684Y355443D01*
X417652Y355521D01*
X417623Y355601D01*
X417598Y355682D01*
X417577Y355764D01*
X417559Y355847D01*
X417546Y355931D01*
X417536Y356015D01*
X417530Y356099D01*
X417528Y356184D01*
X417530Y356269D01*
X417536Y356353D01*
X417546Y356437D01*
X417559Y356521D01*
X417577Y356604D01*
X417598Y356686D01*
X417623Y356767D01*
X417652Y356847D01*
X417684Y356925D01*
X417720Y357001D01*
X417760Y357076D01*
X417803Y357149D01*
X417849Y357220D01*
X417898Y357289D01*
X417951Y357356D01*
X418007Y357420D01*
X418065Y357481D01*
X418126Y357539D01*
X418190Y357595D01*
X418257Y357648D01*
X418326Y357697D01*
X418397Y357743D01*
X418470Y357786D01*
X418545Y357826D01*
X418621Y357862D01*
X418699Y357894D01*
X418779Y357923D01*
X418860Y357948D01*
X418942Y357969D01*
X419025Y357987D01*
X419109Y358000D01*
X419193Y358010D01*
X419277Y358016D01*
X419362Y358018D01*
X419447Y358016D01*
X419531Y358010D01*
X419615Y358000D01*
X419699Y357987D01*
X419782Y357969D01*
X419864Y357948D01*
X419945Y357923D01*
X420025Y357894D01*
X420103Y357862D01*
X420179Y357826D01*
X420254Y357786D01*
X420327Y357743D01*
X420398Y357697D01*
X420467Y357648D01*
X420534Y357595D01*
X420598Y357539D01*
X420659Y357481D01*
X420717Y357420D01*
X420773Y357356D01*
X420826Y357289D01*
X420875Y357220D01*
X420921Y357149D01*
X420964Y357076D01*
X421004Y357001D01*
X421040Y356925D01*
X421072Y356847D01*
X421101Y356767D01*
X421126Y356686D01*
X421147Y356604D01*
X421165Y356521D01*
X421178Y356437D01*
X421188Y356353D01*
X421194Y356269D01*
X421196Y356184D01*
X421194Y356099D01*
X421188Y356015D01*
X421178Y355931D01*
X421165Y355847D01*
X421147Y355764D01*
X421126Y355682D01*
X421101Y355601D01*
X421072Y355521D01*
X421040Y355443D01*
X421004Y355367D01*
X420964Y355292D01*
X420921Y355219D01*
X420875Y355148D01*
X420826Y355079D01*
X420773Y355012D01*
X420717Y354948D01*
X420659Y354887D01*
X420598Y354829D01*
X420534Y354773D01*
X420467Y354720D01*
X420398Y354671D01*
X420327Y354625D01*
X420254Y354582D01*
X420179Y354542D01*
X420103Y354506D01*
X420025Y354474D01*
X419945Y354445D01*
X419864Y354420D01*
X419782Y354399D01*
X419699Y354381D01*
X419615Y354368D01*
X419531Y354358D01*
X419447Y354352D01*
X419362Y354350D01*
X416060Y354716D02*
X415984Y354718D01*
X415909Y354724D01*
X415834Y354733D01*
X415760Y354747D01*
X415686Y354764D01*
X415614Y354786D01*
X415542Y354810D01*
X415472Y354839D01*
X415404Y354871D01*
X415337Y354906D01*
X415272Y354945D01*
X415209Y354988D01*
X415149Y355033D01*
X415091Y355081D01*
X415035Y355133D01*
X414983Y355187D01*
X414933Y355244D01*
X414886Y355303D01*
X414842Y355364D01*
X414801Y355428D01*
X414764Y355494D01*
X414730Y355562D01*
X414700Y355631D01*
X414673Y355702D01*
X414650Y355774D01*
X414631Y355847D01*
X414616Y355921D01*
X414604Y355996D01*
X414596Y356071D01*
X414592Y356146D01*
X414592Y356222D01*
X414596Y356297D01*
X414604Y356372D01*
X414616Y356447D01*
X414631Y356521D01*
X414650Y356594D01*
X414673Y356666D01*
X414700Y356737D01*
X414730Y356806D01*
X414764Y356874D01*
X414801Y356940D01*
X414842Y357004D01*
X414886Y357065D01*
X414933Y357124D01*
X414983Y357181D01*
X415035Y357235D01*
X415091Y357287D01*
X415149Y357335D01*
X415209Y357380D01*
X415272Y357423D01*
X415337Y357462D01*
X415404Y357497D01*
X415472Y357529D01*
X415542Y357558D01*
X415614Y357582D01*
X415686Y357604D01*
X415760Y357621D01*
X415834Y357635D01*
X415909Y357644D01*
X415984Y357650D01*
X416060Y357652D01*
X416136Y357650D01*
X416211Y357644D01*
X416286Y357635D01*
X416360Y357621D01*
X416434Y357604D01*
X416506Y357582D01*
X416578Y357558D01*
X416648Y357529D01*
X416716Y357497D01*
X416783Y357462D01*
X416848Y357423D01*
X416911Y357380D01*
X416971Y357335D01*
X417029Y357287D01*
X417085Y357235D01*
X417137Y357181D01*
X417187Y357124D01*
X417234Y357065D01*
X417278Y357004D01*
X417319Y356940D01*
X417356Y356874D01*
X417390Y356806D01*
X417420Y356737D01*
X417447Y356666D01*
X417470Y356594D01*
X417489Y356521D01*
X417504Y356447D01*
X417516Y356372D01*
X417524Y356297D01*
X417528Y356222D01*
X417528Y356146D01*
X417524Y356071D01*
X417516Y355996D01*
X417504Y355921D01*
X417489Y355847D01*
X417470Y355774D01*
X417447Y355702D01*
X417420Y355631D01*
X417390Y355562D01*
X417356Y355494D01*
X417319Y355428D01*
X417278Y355364D01*
X417234Y355303D01*
X417187Y355244D01*
X417137Y355187D01*
X417085Y355133D01*
X417029Y355081D01*
X416971Y355033D01*
X416911Y354988D01*
X416848Y354945D01*
X416783Y354906D01*
X416716Y354871D01*
X416648Y354839D01*
X416578Y354810D01*
X416506Y354786D01*
X416434Y354764D01*
X416360Y354747D01*
X416286Y354733D01*
X416211Y354724D01*
X416136Y354718D01*
X416060Y354716D01*
D14*
X373140Y376100D03*
D12*
X381522Y369922D02*
X388126Y369922D01*
X381522Y369922D02*
X381522Y371757D01*
X381524Y371842D01*
X381530Y371926D01*
X381540Y372010D01*
X381553Y372094D01*
X381571Y372177D01*
X381592Y372259D01*
X381617Y372340D01*
X381646Y372420D01*
X381678Y372498D01*
X381714Y372574D01*
X381754Y372649D01*
X381797Y372722D01*
X381843Y372793D01*
X381892Y372862D01*
X381945Y372929D01*
X382001Y372993D01*
X382059Y373054D01*
X382120Y373112D01*
X382184Y373168D01*
X382251Y373221D01*
X382320Y373270D01*
X382391Y373316D01*
X382464Y373359D01*
X382539Y373399D01*
X382615Y373435D01*
X382693Y373467D01*
X382773Y373496D01*
X382854Y373521D01*
X382936Y373542D01*
X383019Y373560D01*
X383103Y373573D01*
X383187Y373583D01*
X383271Y373589D01*
X383356Y373591D01*
X383441Y373589D01*
X383525Y373583D01*
X383609Y373573D01*
X383693Y373560D01*
X383776Y373542D01*
X383858Y373521D01*
X383939Y373496D01*
X384019Y373467D01*
X384097Y373435D01*
X384173Y373399D01*
X384248Y373359D01*
X384321Y373316D01*
X384392Y373270D01*
X384461Y373221D01*
X384528Y373168D01*
X384592Y373112D01*
X384653Y373054D01*
X384711Y372993D01*
X384767Y372929D01*
X384820Y372862D01*
X384869Y372793D01*
X384915Y372722D01*
X384958Y372649D01*
X384998Y372574D01*
X385034Y372498D01*
X385066Y372420D01*
X385095Y372340D01*
X385120Y372259D01*
X385141Y372177D01*
X385159Y372094D01*
X385172Y372010D01*
X385182Y371926D01*
X385188Y371842D01*
X385190Y371757D01*
X385191Y371757D02*
X385191Y369922D01*
X381522Y376687D02*
X388126Y378155D01*
X383723Y379622D01*
X388126Y381090D01*
X381522Y382558D01*
X381522Y386401D02*
X388126Y386401D01*
X381522Y386401D02*
X381522Y388236D01*
X381524Y388321D01*
X381530Y388405D01*
X381540Y388489D01*
X381553Y388573D01*
X381571Y388656D01*
X381592Y388738D01*
X381617Y388819D01*
X381646Y388899D01*
X381678Y388977D01*
X381714Y389053D01*
X381754Y389128D01*
X381797Y389201D01*
X381843Y389272D01*
X381892Y389341D01*
X381945Y389408D01*
X382001Y389472D01*
X382059Y389533D01*
X382120Y389591D01*
X382184Y389647D01*
X382251Y389700D01*
X382320Y389749D01*
X382391Y389795D01*
X382464Y389838D01*
X382539Y389878D01*
X382615Y389914D01*
X382693Y389946D01*
X382773Y389975D01*
X382854Y390000D01*
X382936Y390021D01*
X383019Y390039D01*
X383103Y390052D01*
X383187Y390062D01*
X383271Y390068D01*
X383356Y390070D01*
X383441Y390068D01*
X383525Y390062D01*
X383609Y390052D01*
X383693Y390039D01*
X383776Y390021D01*
X383858Y390000D01*
X383939Y389975D01*
X384019Y389946D01*
X384097Y389914D01*
X384173Y389878D01*
X384248Y389838D01*
X384321Y389795D01*
X384392Y389749D01*
X384461Y389700D01*
X384528Y389647D01*
X384592Y389591D01*
X384653Y389533D01*
X384711Y389472D01*
X384767Y389408D01*
X384820Y389341D01*
X384869Y389272D01*
X384915Y389201D01*
X384958Y389128D01*
X384998Y389053D01*
X385034Y388977D01*
X385066Y388899D01*
X385095Y388819D01*
X385120Y388738D01*
X385141Y388656D01*
X385159Y388573D01*
X385172Y388489D01*
X385182Y388405D01*
X385188Y388321D01*
X385190Y388236D01*
X385191Y388236D02*
X385191Y386401D01*
X385191Y388602D02*
X388126Y390070D01*
D13*
X380900Y426100D02*
X380900Y434100D01*
D12*
X399442Y436196D02*
X399442Y429592D01*
X399442Y436196D02*
X401276Y436196D01*
X401361Y436194D01*
X401445Y436188D01*
X401529Y436178D01*
X401613Y436165D01*
X401696Y436147D01*
X401778Y436126D01*
X401859Y436101D01*
X401939Y436072D01*
X402017Y436040D01*
X402093Y436004D01*
X402168Y435964D01*
X402241Y435921D01*
X402312Y435875D01*
X402381Y435826D01*
X402448Y435773D01*
X402512Y435717D01*
X402573Y435659D01*
X402631Y435598D01*
X402687Y435534D01*
X402740Y435467D01*
X402789Y435398D01*
X402835Y435327D01*
X402878Y435254D01*
X402918Y435179D01*
X402954Y435103D01*
X402986Y435025D01*
X403015Y434945D01*
X403040Y434864D01*
X403061Y434782D01*
X403079Y434699D01*
X403092Y434615D01*
X403102Y434531D01*
X403108Y434447D01*
X403110Y434362D01*
X403108Y434277D01*
X403102Y434193D01*
X403092Y434109D01*
X403079Y434025D01*
X403061Y433942D01*
X403040Y433860D01*
X403015Y433779D01*
X402986Y433699D01*
X402954Y433621D01*
X402918Y433545D01*
X402878Y433470D01*
X402835Y433397D01*
X402789Y433326D01*
X402740Y433257D01*
X402687Y433190D01*
X402631Y433126D01*
X402573Y433065D01*
X402512Y433007D01*
X402448Y432951D01*
X402381Y432898D01*
X402312Y432849D01*
X402241Y432803D01*
X402168Y432760D01*
X402093Y432720D01*
X402017Y432684D01*
X401939Y432652D01*
X401859Y432623D01*
X401778Y432598D01*
X401696Y432577D01*
X401613Y432559D01*
X401529Y432546D01*
X401445Y432536D01*
X401361Y432530D01*
X401276Y432528D01*
X401276Y432527D02*
X399442Y432527D01*
X401643Y432527D02*
X403111Y429592D01*
X406678Y431060D02*
X408146Y436196D01*
X406678Y431060D02*
X410347Y431060D01*
X409247Y432527D02*
X409247Y429592D01*
D15*
X493000Y385000D02*
X493000Y369000D01*
X526000Y369000D02*
X526000Y385000D01*
X513500Y387500D02*
X505500Y387500D01*
D12*
X530042Y384366D02*
X530042Y379596D01*
X530044Y379511D01*
X530050Y379427D01*
X530060Y379343D01*
X530073Y379259D01*
X530091Y379176D01*
X530112Y379094D01*
X530137Y379013D01*
X530166Y378933D01*
X530198Y378855D01*
X530234Y378779D01*
X530274Y378704D01*
X530317Y378631D01*
X530363Y378560D01*
X530412Y378491D01*
X530465Y378424D01*
X530521Y378360D01*
X530579Y378299D01*
X530640Y378241D01*
X530704Y378185D01*
X530771Y378132D01*
X530840Y378083D01*
X530911Y378037D01*
X530984Y377994D01*
X531059Y377954D01*
X531135Y377918D01*
X531213Y377886D01*
X531293Y377857D01*
X531374Y377832D01*
X531456Y377811D01*
X531539Y377793D01*
X531623Y377780D01*
X531707Y377770D01*
X531791Y377764D01*
X531876Y377762D01*
X531961Y377764D01*
X532045Y377770D01*
X532129Y377780D01*
X532213Y377793D01*
X532296Y377811D01*
X532378Y377832D01*
X532459Y377857D01*
X532539Y377886D01*
X532617Y377918D01*
X532693Y377954D01*
X532768Y377994D01*
X532841Y378037D01*
X532912Y378083D01*
X532981Y378132D01*
X533048Y378185D01*
X533112Y378241D01*
X533173Y378299D01*
X533231Y378360D01*
X533287Y378424D01*
X533340Y378491D01*
X533389Y378560D01*
X533435Y378631D01*
X533478Y378704D01*
X533518Y378779D01*
X533554Y378855D01*
X533586Y378933D01*
X533615Y379013D01*
X533640Y379094D01*
X533661Y379176D01*
X533679Y379259D01*
X533692Y379343D01*
X533702Y379427D01*
X533708Y379511D01*
X533710Y379596D01*
X533711Y379596D02*
X533711Y384366D01*
X537601Y382898D02*
X539435Y384366D01*
X539435Y377762D01*
X537601Y377762D02*
X541270Y377762D01*
D15*
X967314Y-17020D02*
X1023020Y38686D01*
X967314Y-17020D02*
X950980Y-686D01*
X1006686Y55020D01*
X1023020Y38686D01*
D16*
X958831Y14358D02*
X958429Y10738D01*
X951189Y17978D01*
X953200Y19988D02*
X949178Y15967D01*
D10*
X1010169Y59411D02*
X1023939Y62165D01*
X1018431Y67673D02*
X1015677Y53903D01*
X1025136Y57296D02*
X1029267Y56837D01*
X1021005Y48575D01*
X1018710Y50870D02*
X1023300Y46280D01*
D17*
X534500Y474500D02*
X534500Y537500D01*
X534500Y474500D02*
X471500Y474500D01*
X471500Y537500D01*
X534500Y537500D01*
D18*
X541000Y552000D02*
X541002Y552089D01*
X541008Y552178D01*
X541018Y552267D01*
X541032Y552355D01*
X541049Y552442D01*
X541071Y552528D01*
X541097Y552614D01*
X541126Y552698D01*
X541159Y552781D01*
X541195Y552862D01*
X541236Y552942D01*
X541279Y553019D01*
X541326Y553095D01*
X541377Y553168D01*
X541430Y553239D01*
X541487Y553308D01*
X541547Y553374D01*
X541610Y553438D01*
X541675Y553498D01*
X541743Y553556D01*
X541814Y553610D01*
X541887Y553661D01*
X541962Y553709D01*
X542039Y553754D01*
X542118Y553795D01*
X542199Y553832D01*
X542281Y553866D01*
X542365Y553897D01*
X542450Y553923D01*
X542536Y553946D01*
X542623Y553964D01*
X542711Y553979D01*
X542800Y553990D01*
X542889Y553997D01*
X542978Y554000D01*
X543067Y553999D01*
X543156Y553994D01*
X543244Y553985D01*
X543333Y553972D01*
X543420Y553955D01*
X543507Y553935D01*
X543593Y553910D01*
X543677Y553882D01*
X543760Y553850D01*
X543842Y553814D01*
X543922Y553775D01*
X544000Y553732D01*
X544076Y553686D01*
X544150Y553636D01*
X544222Y553583D01*
X544291Y553527D01*
X544358Y553468D01*
X544422Y553406D01*
X544483Y553342D01*
X544542Y553274D01*
X544597Y553204D01*
X544649Y553132D01*
X544698Y553057D01*
X544743Y552981D01*
X544785Y552902D01*
X544823Y552822D01*
X544858Y552740D01*
X544889Y552656D01*
X544917Y552571D01*
X544940Y552485D01*
X544960Y552398D01*
X544976Y552311D01*
X544988Y552222D01*
X544996Y552134D01*
X545000Y552045D01*
X545000Y551955D01*
X544996Y551866D01*
X544988Y551778D01*
X544976Y551689D01*
X544960Y551602D01*
X544940Y551515D01*
X544917Y551429D01*
X544889Y551344D01*
X544858Y551260D01*
X544823Y551178D01*
X544785Y551098D01*
X544743Y551019D01*
X544698Y550943D01*
X544649Y550868D01*
X544597Y550796D01*
X544542Y550726D01*
X544483Y550658D01*
X544422Y550594D01*
X544358Y550532D01*
X544291Y550473D01*
X544222Y550417D01*
X544150Y550364D01*
X544076Y550314D01*
X544000Y550268D01*
X543922Y550225D01*
X543842Y550186D01*
X543760Y550150D01*
X543677Y550118D01*
X543593Y550090D01*
X543507Y550065D01*
X543420Y550045D01*
X543333Y550028D01*
X543244Y550015D01*
X543156Y550006D01*
X543067Y550001D01*
X542978Y550000D01*
X542889Y550003D01*
X542800Y550010D01*
X542711Y550021D01*
X542623Y550036D01*
X542536Y550054D01*
X542450Y550077D01*
X542365Y550103D01*
X542281Y550134D01*
X542199Y550168D01*
X542118Y550205D01*
X542039Y550246D01*
X541962Y550291D01*
X541887Y550339D01*
X541814Y550390D01*
X541743Y550444D01*
X541675Y550502D01*
X541610Y550562D01*
X541547Y550626D01*
X541487Y550692D01*
X541430Y550761D01*
X541377Y550832D01*
X541326Y550905D01*
X541279Y550981D01*
X541236Y551058D01*
X541195Y551138D01*
X541159Y551219D01*
X541126Y551302D01*
X541097Y551386D01*
X541071Y551472D01*
X541049Y551558D01*
X541032Y551645D01*
X541018Y551733D01*
X541008Y551822D01*
X541002Y551911D01*
X541000Y552000D01*
D10*
X528842Y478692D02*
X517158Y478692D01*
X528842Y477394D02*
X528842Y479990D01*
X517158Y479990D02*
X517158Y477394D01*
X528842Y487154D02*
X528842Y489750D01*
X528842Y487154D02*
X528840Y487055D01*
X528834Y486955D01*
X528825Y486856D01*
X528812Y486758D01*
X528795Y486660D01*
X528774Y486562D01*
X528749Y486466D01*
X528721Y486371D01*
X528689Y486277D01*
X528654Y486184D01*
X528615Y486092D01*
X528572Y486002D01*
X528527Y485914D01*
X528477Y485827D01*
X528425Y485743D01*
X528369Y485660D01*
X528311Y485580D01*
X528249Y485502D01*
X528184Y485427D01*
X528116Y485354D01*
X528046Y485284D01*
X527973Y485216D01*
X527898Y485151D01*
X527820Y485089D01*
X527740Y485031D01*
X527657Y484975D01*
X527573Y484923D01*
X527486Y484873D01*
X527398Y484828D01*
X527308Y484785D01*
X527216Y484746D01*
X527123Y484711D01*
X527029Y484679D01*
X526934Y484651D01*
X526838Y484626D01*
X526740Y484605D01*
X526642Y484588D01*
X526544Y484575D01*
X526445Y484566D01*
X526345Y484560D01*
X526246Y484558D01*
X526246Y484557D02*
X519754Y484557D01*
X519655Y484559D01*
X519555Y484565D01*
X519456Y484574D01*
X519358Y484587D01*
X519260Y484605D01*
X519162Y484625D01*
X519066Y484650D01*
X518970Y484678D01*
X518876Y484710D01*
X518783Y484745D01*
X518692Y484784D01*
X518602Y484827D01*
X518513Y484872D01*
X518427Y484922D01*
X518342Y484974D01*
X518260Y485030D01*
X518180Y485089D01*
X518102Y485150D01*
X518026Y485215D01*
X517953Y485283D01*
X517883Y485353D01*
X517815Y485426D01*
X517750Y485502D01*
X517689Y485580D01*
X517630Y485660D01*
X517574Y485742D01*
X517522Y485827D01*
X517473Y485913D01*
X517427Y486002D01*
X517384Y486092D01*
X517345Y486183D01*
X517310Y486276D01*
X517278Y486370D01*
X517250Y486466D01*
X517225Y486562D01*
X517205Y486660D01*
X517187Y486758D01*
X517174Y486856D01*
X517165Y486955D01*
X517159Y487054D01*
X517157Y487154D01*
X517158Y487154D02*
X517158Y489750D01*
X519754Y494115D02*
X517158Y497361D01*
X528842Y497361D01*
X528842Y500606D02*
X528842Y494115D01*
D19*
X252500Y528500D02*
X243000Y528500D01*
X252500Y528500D02*
X252500Y467500D01*
X243000Y467500D01*
X225000Y528500D02*
X215500Y528500D01*
X215500Y467500D01*
X225000Y467500D01*
D20*
X249000Y534000D03*
D19*
X249044Y534002D01*
X249087Y534008D01*
X249129Y534017D01*
X249171Y534030D01*
X249211Y534047D01*
X249250Y534067D01*
X249287Y534090D01*
X249321Y534117D01*
X249354Y534146D01*
X249383Y534179D01*
X249410Y534213D01*
X249433Y534250D01*
X249453Y534289D01*
X249470Y534329D01*
X249483Y534371D01*
X249492Y534413D01*
X249498Y534456D01*
X249500Y534500D01*
X249498Y534544D01*
X249492Y534587D01*
X249483Y534629D01*
X249470Y534671D01*
X249453Y534711D01*
X249433Y534750D01*
X249410Y534787D01*
X249383Y534821D01*
X249354Y534854D01*
X249321Y534883D01*
X249287Y534910D01*
X249250Y534933D01*
X249211Y534953D01*
X249171Y534970D01*
X249129Y534983D01*
X249087Y534992D01*
X249044Y534998D01*
X249000Y535000D01*
D20*
X249000Y535000D03*
D19*
X248956Y534998D01*
X248913Y534992D01*
X248871Y534983D01*
X248829Y534970D01*
X248789Y534953D01*
X248750Y534933D01*
X248713Y534910D01*
X248679Y534883D01*
X248646Y534854D01*
X248617Y534821D01*
X248590Y534787D01*
X248567Y534750D01*
X248547Y534711D01*
X248530Y534671D01*
X248517Y534629D01*
X248508Y534587D01*
X248502Y534544D01*
X248500Y534500D01*
X248502Y534456D01*
X248508Y534413D01*
X248517Y534371D01*
X248530Y534329D01*
X248547Y534289D01*
X248567Y534250D01*
X248590Y534213D01*
X248617Y534179D01*
X248646Y534146D01*
X248679Y534117D01*
X248713Y534090D01*
X248750Y534067D01*
X248789Y534047D01*
X248829Y534030D01*
X248871Y534017D01*
X248913Y534008D01*
X248956Y534002D01*
X249000Y534000D01*
X533500Y203550D02*
X533500Y193550D01*
X458500Y193550D01*
X458500Y208550D01*
X458500Y239550D02*
X458500Y243550D01*
D20*
X458500Y243550D03*
D19*
X533500Y243550D02*
X533500Y239550D01*
D20*
X533500Y243550D03*
D21*
X483000Y253300D03*
D17*
X483062Y253302D01*
X483123Y253308D01*
X483184Y253317D01*
X483244Y253330D01*
X483303Y253347D01*
X483361Y253368D01*
X483418Y253392D01*
X483473Y253419D01*
X483526Y253450D01*
X483578Y253484D01*
X483627Y253521D01*
X483674Y253561D01*
X483718Y253604D01*
X483759Y253649D01*
X483798Y253697D01*
X483834Y253748D01*
X483866Y253800D01*
X483895Y253854D01*
X483921Y253910D01*
X483943Y253968D01*
X483962Y254026D01*
X483977Y254086D01*
X483988Y254147D01*
X483996Y254208D01*
X484000Y254269D01*
X484000Y254331D01*
X483996Y254392D01*
X483988Y254453D01*
X483977Y254514D01*
X483962Y254574D01*
X483943Y254632D01*
X483921Y254690D01*
X483895Y254746D01*
X483866Y254800D01*
X483834Y254852D01*
X483798Y254903D01*
X483759Y254951D01*
X483718Y254996D01*
X483674Y255039D01*
X483627Y255079D01*
X483578Y255116D01*
X483526Y255150D01*
X483473Y255181D01*
X483418Y255208D01*
X483361Y255232D01*
X483303Y255253D01*
X483244Y255270D01*
X483184Y255283D01*
X483123Y255292D01*
X483062Y255298D01*
X483000Y255300D01*
D21*
X483000Y255300D03*
D17*
X482938Y255298D01*
X482877Y255292D01*
X482816Y255283D01*
X482756Y255270D01*
X482697Y255253D01*
X482639Y255232D01*
X482582Y255208D01*
X482527Y255181D01*
X482474Y255150D01*
X482422Y255116D01*
X482373Y255079D01*
X482326Y255039D01*
X482282Y254996D01*
X482241Y254951D01*
X482202Y254903D01*
X482166Y254852D01*
X482134Y254800D01*
X482105Y254746D01*
X482079Y254690D01*
X482057Y254632D01*
X482038Y254574D01*
X482023Y254514D01*
X482012Y254453D01*
X482004Y254392D01*
X482000Y254331D01*
X482000Y254269D01*
X482004Y254208D01*
X482012Y254147D01*
X482023Y254086D01*
X482038Y254026D01*
X482057Y253968D01*
X482079Y253910D01*
X482105Y253854D01*
X482134Y253800D01*
X482166Y253748D01*
X482202Y253697D01*
X482241Y253649D01*
X482282Y253604D01*
X482326Y253561D01*
X482373Y253521D01*
X482422Y253484D01*
X482474Y253450D01*
X482527Y253419D01*
X482582Y253392D01*
X482639Y253368D01*
X482697Y253347D01*
X482756Y253330D01*
X482816Y253317D01*
X482877Y253308D01*
X482938Y253302D01*
X483000Y253300D01*
D15*
X776450Y477310D02*
X776450Y530690D01*
X799550Y530690D01*
X799550Y477310D01*
X776450Y477310D01*
D16*
X804636Y514501D02*
X802361Y517345D01*
X812599Y517345D01*
X812599Y514501D02*
X812599Y520189D01*
D10*
X789411Y471742D02*
X781622Y460058D01*
X789411Y460058D02*
X781622Y471742D01*
X793701Y460058D02*
X796946Y460058D01*
X797059Y460060D01*
X797172Y460066D01*
X797285Y460076D01*
X797398Y460090D01*
X797510Y460107D01*
X797621Y460129D01*
X797731Y460154D01*
X797841Y460184D01*
X797949Y460217D01*
X798056Y460254D01*
X798162Y460294D01*
X798266Y460339D01*
X798369Y460387D01*
X798470Y460438D01*
X798569Y460493D01*
X798666Y460551D01*
X798761Y460613D01*
X798854Y460678D01*
X798944Y460746D01*
X799032Y460817D01*
X799118Y460892D01*
X799201Y460969D01*
X799281Y461049D01*
X799358Y461132D01*
X799433Y461218D01*
X799504Y461306D01*
X799572Y461396D01*
X799637Y461489D01*
X799699Y461584D01*
X799757Y461681D01*
X799812Y461780D01*
X799863Y461881D01*
X799911Y461984D01*
X799956Y462088D01*
X799996Y462194D01*
X800033Y462301D01*
X800066Y462409D01*
X800096Y462519D01*
X800121Y462629D01*
X800143Y462740D01*
X800160Y462852D01*
X800174Y462965D01*
X800184Y463078D01*
X800190Y463191D01*
X800192Y463304D01*
X800190Y463417D01*
X800184Y463530D01*
X800174Y463643D01*
X800160Y463756D01*
X800143Y463868D01*
X800121Y463979D01*
X800096Y464089D01*
X800066Y464199D01*
X800033Y464307D01*
X799996Y464414D01*
X799956Y464520D01*
X799911Y464624D01*
X799863Y464727D01*
X799812Y464828D01*
X799757Y464927D01*
X799699Y465024D01*
X799637Y465119D01*
X799572Y465212D01*
X799504Y465302D01*
X799433Y465390D01*
X799358Y465476D01*
X799281Y465559D01*
X799201Y465639D01*
X799118Y465716D01*
X799032Y465791D01*
X798944Y465862D01*
X798854Y465930D01*
X798761Y465995D01*
X798666Y466057D01*
X798569Y466115D01*
X798470Y466170D01*
X798369Y466221D01*
X798266Y466269D01*
X798162Y466314D01*
X798056Y466354D01*
X797949Y466391D01*
X797841Y466424D01*
X797731Y466454D01*
X797621Y466479D01*
X797510Y466501D01*
X797398Y466518D01*
X797285Y466532D01*
X797172Y466542D01*
X797059Y466548D01*
X796946Y466550D01*
X797596Y471742D02*
X793701Y471742D01*
X797596Y471742D02*
X797697Y471740D01*
X797797Y471734D01*
X797897Y471724D01*
X797997Y471711D01*
X798096Y471693D01*
X798195Y471672D01*
X798292Y471647D01*
X798389Y471618D01*
X798484Y471585D01*
X798578Y471549D01*
X798670Y471509D01*
X798761Y471466D01*
X798850Y471419D01*
X798937Y471369D01*
X799023Y471315D01*
X799106Y471258D01*
X799186Y471198D01*
X799265Y471135D01*
X799341Y471068D01*
X799414Y470999D01*
X799484Y470927D01*
X799552Y470853D01*
X799617Y470776D01*
X799678Y470696D01*
X799737Y470614D01*
X799792Y470530D01*
X799844Y470444D01*
X799893Y470356D01*
X799938Y470266D01*
X799980Y470174D01*
X800018Y470081D01*
X800052Y469986D01*
X800083Y469891D01*
X800110Y469794D01*
X800133Y469696D01*
X800153Y469597D01*
X800168Y469497D01*
X800180Y469397D01*
X800188Y469297D01*
X800192Y469196D01*
X800192Y469096D01*
X800188Y468995D01*
X800180Y468895D01*
X800168Y468795D01*
X800153Y468695D01*
X800133Y468596D01*
X800110Y468498D01*
X800083Y468401D01*
X800052Y468306D01*
X800018Y468211D01*
X799980Y468118D01*
X799938Y468026D01*
X799893Y467936D01*
X799844Y467848D01*
X799792Y467762D01*
X799737Y467678D01*
X799678Y467596D01*
X799617Y467516D01*
X799552Y467439D01*
X799484Y467365D01*
X799414Y467293D01*
X799341Y467224D01*
X799265Y467157D01*
X799186Y467094D01*
X799106Y467034D01*
X799023Y466977D01*
X798937Y466923D01*
X798850Y466873D01*
X798761Y466826D01*
X798670Y466783D01*
X798578Y466743D01*
X798484Y466707D01*
X798389Y466674D01*
X798292Y466645D01*
X798195Y466620D01*
X798096Y466599D01*
X797997Y466581D01*
X797897Y466568D01*
X797797Y466558D01*
X797697Y466552D01*
X797596Y466550D01*
X797596Y466549D02*
X794999Y466549D01*
M02*
