G04 EAGLE Gerber RS-274X export*
G75*
%MOMM*%
%FSLAX34Y34*%
%LPD*%
%INSilkscreen Bottom*%
%IPPOS*%
%AMOC8*
5,1,8,0,0,1.08239X$1,22.5*%
G01*
%ADD10C,0.101600*%


D10*
X230754Y495721D02*
X230655Y495719D01*
X230555Y495713D01*
X230456Y495704D01*
X230358Y495691D01*
X230260Y495674D01*
X230162Y495653D01*
X230066Y495628D01*
X229971Y495600D01*
X229877Y495568D01*
X229784Y495533D01*
X229692Y495494D01*
X229602Y495451D01*
X229514Y495406D01*
X229427Y495356D01*
X229343Y495304D01*
X229260Y495248D01*
X229180Y495190D01*
X229102Y495128D01*
X229027Y495063D01*
X228954Y494995D01*
X228884Y494925D01*
X228816Y494852D01*
X228751Y494777D01*
X228689Y494699D01*
X228631Y494619D01*
X228575Y494536D01*
X228523Y494452D01*
X228473Y494365D01*
X228428Y494277D01*
X228385Y494187D01*
X228346Y494095D01*
X228311Y494002D01*
X228279Y493908D01*
X228251Y493813D01*
X228226Y493717D01*
X228205Y493619D01*
X228188Y493521D01*
X228175Y493423D01*
X228166Y493324D01*
X228160Y493224D01*
X228158Y493125D01*
X228160Y492981D01*
X228166Y492836D01*
X228175Y492692D01*
X228188Y492549D01*
X228205Y492405D01*
X228226Y492262D01*
X228251Y492120D01*
X228279Y491979D01*
X228311Y491838D01*
X228347Y491698D01*
X228386Y491559D01*
X228429Y491421D01*
X228476Y491285D01*
X228526Y491149D01*
X228580Y491015D01*
X228637Y490883D01*
X228698Y490752D01*
X228762Y490623D01*
X228830Y490495D01*
X228900Y490369D01*
X228975Y490245D01*
X229052Y490124D01*
X229133Y490004D01*
X229216Y489886D01*
X229303Y489771D01*
X229393Y489658D01*
X229486Y489547D01*
X229581Y489439D01*
X229680Y489333D01*
X229781Y489230D01*
X237246Y489555D02*
X237345Y489557D01*
X237445Y489563D01*
X237544Y489572D01*
X237642Y489585D01*
X237740Y489602D01*
X237838Y489623D01*
X237934Y489648D01*
X238029Y489676D01*
X238123Y489708D01*
X238216Y489743D01*
X238308Y489782D01*
X238398Y489825D01*
X238486Y489870D01*
X238573Y489920D01*
X238657Y489972D01*
X238740Y490028D01*
X238820Y490086D01*
X238898Y490148D01*
X238973Y490213D01*
X239046Y490281D01*
X239116Y490351D01*
X239184Y490424D01*
X239249Y490499D01*
X239311Y490577D01*
X239369Y490657D01*
X239425Y490740D01*
X239477Y490824D01*
X239527Y490911D01*
X239572Y490999D01*
X239615Y491089D01*
X239654Y491181D01*
X239689Y491274D01*
X239721Y491368D01*
X239749Y491463D01*
X239774Y491560D01*
X239795Y491657D01*
X239812Y491755D01*
X239825Y491853D01*
X239834Y491952D01*
X239840Y492052D01*
X239842Y492151D01*
X239840Y492287D01*
X239834Y492423D01*
X239825Y492559D01*
X239812Y492695D01*
X239794Y492830D01*
X239774Y492964D01*
X239749Y493098D01*
X239721Y493232D01*
X239688Y493364D01*
X239653Y493495D01*
X239613Y493626D01*
X239570Y493755D01*
X239524Y493883D01*
X239473Y494009D01*
X239420Y494135D01*
X239362Y494258D01*
X239302Y494380D01*
X239238Y494500D01*
X239170Y494619D01*
X239100Y494735D01*
X239026Y494849D01*
X238949Y494962D01*
X238868Y495072D01*
X234974Y490852D02*
X235027Y490766D01*
X235084Y490682D01*
X235143Y490600D01*
X235206Y490520D01*
X235272Y490443D01*
X235340Y490368D01*
X235412Y490296D01*
X235486Y490227D01*
X235563Y490161D01*
X235642Y490098D01*
X235724Y490038D01*
X235808Y489981D01*
X235894Y489927D01*
X235982Y489877D01*
X236072Y489830D01*
X236163Y489786D01*
X236257Y489747D01*
X236351Y489710D01*
X236447Y489678D01*
X236545Y489649D01*
X236643Y489624D01*
X236742Y489603D01*
X236842Y489585D01*
X236942Y489572D01*
X237043Y489562D01*
X237145Y489556D01*
X237246Y489554D01*
X233026Y494423D02*
X232973Y494509D01*
X232916Y494593D01*
X232857Y494675D01*
X232794Y494755D01*
X232728Y494832D01*
X232660Y494907D01*
X232588Y494979D01*
X232514Y495048D01*
X232437Y495114D01*
X232358Y495177D01*
X232276Y495237D01*
X232192Y495294D01*
X232106Y495348D01*
X232018Y495398D01*
X231928Y495445D01*
X231837Y495489D01*
X231743Y495528D01*
X231649Y495565D01*
X231553Y495597D01*
X231455Y495626D01*
X231357Y495651D01*
X231258Y495672D01*
X231158Y495690D01*
X231058Y495703D01*
X230957Y495713D01*
X230855Y495719D01*
X230754Y495721D01*
X233026Y494423D02*
X234974Y490853D01*
X237246Y500279D02*
X239842Y503524D01*
X228158Y503524D01*
X228158Y500279D02*
X228158Y506770D01*
X492754Y220485D02*
X501842Y220485D01*
X492754Y220485D02*
X492655Y220483D01*
X492555Y220477D01*
X492456Y220468D01*
X492358Y220455D01*
X492260Y220438D01*
X492162Y220417D01*
X492066Y220392D01*
X491971Y220364D01*
X491877Y220332D01*
X491784Y220297D01*
X491692Y220258D01*
X491602Y220215D01*
X491514Y220170D01*
X491427Y220120D01*
X491343Y220068D01*
X491260Y220012D01*
X491180Y219954D01*
X491102Y219892D01*
X491027Y219827D01*
X490954Y219759D01*
X490884Y219689D01*
X490816Y219616D01*
X490751Y219541D01*
X490689Y219463D01*
X490631Y219383D01*
X490575Y219300D01*
X490523Y219216D01*
X490473Y219129D01*
X490428Y219041D01*
X490385Y218951D01*
X490346Y218859D01*
X490311Y218766D01*
X490279Y218672D01*
X490251Y218577D01*
X490226Y218481D01*
X490205Y218383D01*
X490188Y218285D01*
X490175Y218187D01*
X490166Y218088D01*
X490160Y217988D01*
X490158Y217889D01*
X490158Y216590D01*
X499246Y225759D02*
X501842Y229004D01*
X490158Y229004D01*
X490158Y225759D02*
X490158Y232250D01*
M02*
