G04 EAGLE Gerber RS-274X export*
G75*
%MOMM*%
%FSLAX34Y34*%
%LPD*%
%INSolderpaste Top*%
%IPPOS*%
%AMOC8*
5,1,8,0,0,1.08239X$1,22.5*%
G01*
%ADD10R,1.240000X1.500000*%
%ADD11R,1.000000X1.075000*%
%ADD12R,1.500000X1.240000*%
%ADD13R,0.800000X0.800000*%
%ADD14R,1.075000X1.000000*%
%ADD15R,0.550000X1.200000*%
%ADD16R,0.600000X1.500000*%
%ADD17R,1.500000X0.600000*%
%ADD18R,1.000000X2.400000*%
%ADD19R,0.400000X1.200000*%


D10*
X487578Y324334D03*
X506578Y324334D03*
D11*
X456700Y385600D03*
X456700Y368600D03*
X582988Y379956D03*
X582988Y362956D03*
D12*
X415100Y388600D03*
X415100Y369600D03*
D13*
X373140Y370632D03*
X373140Y385632D03*
D14*
X372400Y430100D03*
X389400Y430100D03*
D15*
X500000Y363999D03*
X509500Y363999D03*
X519000Y363999D03*
X519000Y390001D03*
X500000Y390001D03*
D16*
X531000Y548500D03*
X523000Y548500D03*
X515000Y548500D03*
X507000Y548500D03*
X499000Y548500D03*
X491000Y548500D03*
X483000Y548500D03*
X475000Y548500D03*
D17*
X460500Y534000D03*
X460500Y526000D03*
X460500Y518000D03*
X460500Y510000D03*
X460500Y502000D03*
X460500Y494000D03*
X460500Y486000D03*
X460500Y478000D03*
D16*
X475000Y463500D03*
X483000Y463500D03*
X491000Y463500D03*
X499000Y463500D03*
X507000Y463500D03*
X515000Y463500D03*
X523000Y463500D03*
X531000Y463500D03*
D17*
X545500Y478000D03*
X545500Y486000D03*
X545500Y494000D03*
X545500Y502000D03*
X545500Y510000D03*
X545500Y518000D03*
X545500Y526000D03*
X545500Y534000D03*
D18*
X234000Y531000D03*
X234000Y465000D03*
D19*
X483000Y239550D03*
X489500Y239550D03*
X496000Y239550D03*
X502500Y239550D03*
X509000Y239550D03*
M02*
