G04 EAGLE Gerber RS-274X export*
G75*
%MOMM*%
%FSLAX34Y34*%
%LPD*%
%INSoldermask Top*%
%IPPOS*%
%AMOC8*
5,1,8,0,0,1.08239X$1,22.5*%
G01*
%ADD10R,1.443200X1.703200*%
%ADD11R,1.203200X1.278200*%
%ADD12R,1.703200X1.443200*%
%ADD13R,1.003200X1.003200*%
%ADD14R,1.278200X1.203200*%
%ADD15R,0.753200X1.403200*%
%ADD16P,1.852186X8X67.500000*%
%ADD17R,0.803200X1.703200*%
%ADD18R,1.703200X0.803200*%
%ADD19R,1.203200X2.603200*%
%ADD20R,0.603200X1.403200*%
%ADD21C,1.511200*%
%ADD22C,2.551200*%
%ADD23P,1.852186X8X292.500000*%
%ADD24C,0.959600*%


D10*
X487578Y324334D03*
X506578Y324334D03*
D11*
X456700Y385600D03*
X456700Y368600D03*
X582988Y379956D03*
X582988Y362956D03*
D12*
X415100Y388600D03*
X415100Y369600D03*
D13*
X373140Y370632D03*
X373140Y385632D03*
D14*
X372400Y430100D03*
X389400Y430100D03*
D15*
X500000Y363999D03*
X509500Y363999D03*
X519000Y363999D03*
X519000Y390001D03*
X500000Y390001D03*
D16*
X969039Y1039D03*
X987000Y19000D03*
X1004961Y36961D03*
D17*
X531000Y548500D03*
X523000Y548500D03*
X515000Y548500D03*
X507000Y548500D03*
X499000Y548500D03*
X491000Y548500D03*
X483000Y548500D03*
X475000Y548500D03*
D18*
X460500Y534000D03*
X460500Y526000D03*
X460500Y518000D03*
X460500Y510000D03*
X460500Y502000D03*
X460500Y494000D03*
X460500Y486000D03*
X460500Y478000D03*
D17*
X475000Y463500D03*
X483000Y463500D03*
X491000Y463500D03*
X499000Y463500D03*
X507000Y463500D03*
X515000Y463500D03*
X523000Y463500D03*
X531000Y463500D03*
D18*
X545500Y478000D03*
X545500Y486000D03*
X545500Y494000D03*
X545500Y502000D03*
X545500Y510000D03*
X545500Y518000D03*
X545500Y526000D03*
X545500Y534000D03*
D19*
X234000Y531000D03*
X234000Y465000D03*
D20*
X483000Y239550D03*
X489500Y239550D03*
X496000Y239550D03*
X502500Y239550D03*
X509000Y239550D03*
D21*
X473750Y245050D03*
X518250Y245050D03*
D22*
X531000Y224050D03*
X461000Y224050D03*
D23*
X788000Y516700D03*
X788000Y491300D03*
D24*
X531114Y376682D03*
X500634Y297942D03*
X490982Y297688D03*
X522732Y418338D03*
X551730Y383623D03*
X851662Y83820D03*
X376174Y485648D03*
X563880Y484886D03*
M02*
