  0
SECTION
  2
HEADER
  9
$ACADVER
  1
AC1014
  9
$HANDSEED
  5
FFFF
  9
$MEASUREMENT
 70
     1
  0
ENDSEC
  0
SECTION
  2
TABLES
  0
TABLE
  2
VPORT
  5
8
330
0
100
AcDbSymbolTable
 70
     4
  0
VPORT
  5
2E
330
8
100
AcDbSymbolTableRecord
100
AcDbViewportTableRecord
  2
*ACTIVE
 70
     0
 10
0.0
 20
0.0
 11
1.0
 21
1.0
 12
210.0
 22
148.5
 13
0.0
 23
0.0
 14
10.0
 24
10.0
 15
10.0
 25
10.0
 16
0.0
 26
0.0
 36
1.0
 17
0.0
 27
0.0
 37
0.0
 40
341.0
 41
1.24
 42
50.0
 43
0.0
 44
0.0
 50
0.0
 51
0.0
 71
     0
 72
   100
 73
     1
 74
     3
 75
     0
 76
     0
 77
     0
 78
     0
  0
ENDTAB
  0
TABLE
  2
LTYPE
  5
5
330
0
100
AcDbSymbolTable
 70
     1
  0
LTYPE
  5
14
330
5
100
AcDbSymbolTableRecord
100
AcDbLinetypeTableRecord
  2
BYBLOCK
 70
     0
  3

 72
    65
 73
     0
 40
0.0
  0
LTYPE
  5
15
330
5
100
AcDbSymbolTableRecord
100
AcDbLinetypeTableRecord
  2
BYLAYER
 70
     0
  3

 72
    65
 73
     0
 40
0.0
  0
LTYPE
  5
16
330
5
100
AcDbSymbolTableRecord
100
AcDbLinetypeTableRecord
  2
CONTINUOUS
 70
     0
  3
Solid line
 72
    65
 73
     0
 40
0.0
  0
ENDTAB
  0
TABLE
  2
LAYER
  5
2
100
AcDbSymbolTable
 70
3
  0
LAYER
  5
50
100
AcDbSymbolTableRecord
100
AcDbLayerTableRecord
  2
0
 70
0
  6
CONTINUOUS
  0
LAYER
  5
51
100
AcDbSymbolTableRecord
100
AcDbLayerTableRecord
  2
cutting
 70
0
  6
CONTINUOUS
  0
LAYER
  5
52
100
AcDbSymbolTableRecord
100
AcDbLayerTableRecord
  2
area_engraving
 70
0
  6
CONTINUOUS
  0
ENDTAB
  0
TABLE
  2
STYLE
  5
3
330
0
100
AcDbSymbolTable
 70
     1
  0
STYLE
  5
11
330
3
100
AcDbSymbolTableRecord
100
AcDbTextStyleTableRecord
  2
STANDARD
 70
     0
 40
0.0
 41
1.0
 50
0.0
 71
     0
 42
2.5
  3
txt
  4

  0
ENDTAB
  0
TABLE
  2
VIEW
  5
6
330
0
100
AcDbSymbolTable
 70
     0
  0
ENDTAB
  0
TABLE
  2
UCS
  5
7
330
0
100
AcDbSymbolTable
 70
     0
  0
ENDTAB
  0
TABLE
  2
APPID
  5
9
330
0
100
AcDbSymbolTable
 70
     2
  0
APPID
  5
12
330
9
100
AcDbSymbolTableRecord
100
AcDbRegAppTableRecord
  2
ACAD
 70
     0
  0
ENDTAB
  0
TABLE
  2
DIMSTYLE
  5
A
330
0
100
AcDbSymbolTable
 70
     1
  0
DIMSTYLE
105
27
330
A
100
AcDbSymbolTableRecord
100
AcDbDimStyleTableRecord
  2
ISO-25
 70
     0
  3

  4

  5

  6

  7

 40
1.0
 41
2.5
 42
0.625
 43
3.75
 44
1.25
 45
0.0
 46
0.0
 47
0.0
 48
0.0
140
2.5
141
2.5
142
0.0
143
0.03937007874016
144
1.0
145
0.0
146
1.0
147
0.625
 71
     0
 72
     0
 73
     0
 74
     0
 75
     0
 76
     0
 77
     1
 78
     8
170
     0
171
     3
172
     1
173
     0
174
     0
175
     0
176
     0
177
     0
178
     0
270
     2
271
     2
272
     2
273
     2
274
     3
340
11
275
     0
280
     0
281
     0
282
     0
283
     0
284
     8
285
     0
286
     0
287
     3
288
     0
  0
ENDTAB
  0
TABLE
  2
BLOCK_RECORD
  5
1
330
0
100
AcDbSymbolTable
 70
     1
  0
BLOCK_RECORD
  5
1F
330
1
100
AcDbSymbolTableRecord
100
AcDbBlockTableRecord
  2
*MODEL_SPACE
  0
BLOCK_RECORD
  5
1B
330
1
100
AcDbSymbolTableRecord
100
AcDbBlockTableRecord
  2
*PAPER_SPACE
  0
ENDTAB
  0
ENDSEC
  0
SECTION
  2
BLOCKS
  0
BLOCK
  5
20
330
1F
100
AcDbEntity
  8
0
100
AcDbBlockBegin
  2
*MODEL_SPACE
 70
     0
 10
0.0
 20
0.0
 30
0.0
  3
*MODEL_SPACE
  1

  0
ENDBLK
  5
21
330
1F
100
AcDbEntity
  8
0
100
AcDbBlockEnd
  0
BLOCK
  5
1C
330
1B
100
AcDbEntity
 67
     1
  8
0
100
AcDbBlockBegin
  2
*PAPER_SPACE
  1

  0
ENDBLK
  5
1D
330
1B
100
AcDbEntity
 67
     1
  8
0
100
AcDbBlockEnd
  0
ENDSEC
  0
SECTION
  2
ENTITIES
  0
LWPOLYLINE
  5
100
100
AcDbEntity
  8
cutting
 62
7
100
AcDbPolyline
 90
4
 70
1
 10
100.000001
 20
-0.000004
 30
0.0
 10
0.000000
 20
-0.000004
 30
0.0
 10
0.000000
 20
-99.999989
 30
0.0
 10
100.000001
 20
-99.999989
 30
0.0
  0
LWPOLYLINE
  5
101
100
AcDbEntity
  8
cutting
 62
7
100
AcDbPolyline
 90
4
 70
1
 10
95.419606
 20
-91.175712
 30
0.0
 10
91.174895
 20
-95.416295
 30
0.0
 10
93.719232
 20
-97.963121
 30
0.0
 10
97.963948
 20
-93.722538
 30
0.0
  0
LWPOLYLINE
  5
102
100
AcDbEntity
  8
cutting
 62
7
100
AcDbPolyline
 90
4
 70
1
 10
8.825108
 20
-95.416295
 30
0.0
 10
4.580393
 20
-91.175712
 30
0.0
 10
2.036053
 20
-93.722538
 30
0.0
 10
6.280766
 20
-97.963121
 30
0.0
  0
LWPOLYLINE
  5
103
100
AcDbEntity
  8
cutting
 62
7
100
AcDbPolyline
 90
4
 70
1
 10
91.174895
 20
-4.583699
 30
0.0
 10
95.419606
 20
-8.824281
 30
0.0
 10
97.963948
 20
-6.277455
 30
0.0
 10
93.719232
 20
-2.036872
 30
0.0
  0
SPLINE
  5
104
100
AcDbEntity
  8
area_engraving
 62
7
100
AcDbSpline
 70
8
 71
3
 72
8
 73
4
 74
0
 40
0
 40
0
 40
0
 40
0
 40
1
 40
1
 40
1
 40
1
 10
26.026846
 20
-79.572426
 30
0.0
 10
27.102431
 20
-80.668916
 30
0.0
 10
27.102435
 20
-81.765402
 30
0.0
 10
26.026859
 20
-82.861884
 30
0.0
  0
SPLINE
  5
105
100
AcDbEntity
  8
area_engraving
 62
7
100
AcDbSpline
 70
8
 71
3
 72
8
 73
4
 74
0
 40
0
 40
0
 40
0
 40
0
 40
1
 40
1
 40
1
 40
1
 10
21.186767
 20
-87.796052
 30
0.0
 10
20.186480
 20
-88.815781
 30
0.0
 10
19.110900
 20
-88.815777
 30
0.0
 10
17.960026
 20
-87.796039
 30
0.0
  0
LWPOLYLINE
  5
106
100
AcDbEntity
  8
cutting
 62
7
100
AcDbPolyline
 90
4
 70
1
 10
8.825108
 20
-4.583699
 30
0.0
 10
4.580393
 20
-8.824281
 30
0.0
 10
2.036053
 20
-6.277455
 30
0.0
 10
6.280766
 20
-2.036872
 30
0.0
  0
SPLINE
  5
107
100
AcDbEntity
  8
area_engraving
 62
7
100
AcDbSpline
 70
8
 71
3
 72
8
 73
4
 74
0
 40
0
 40
0
 40
0
 40
0
 40
1
 40
1
 40
1
 40
1
 10
9.893214
 20
-79.572435
 30
0.0
 10
8.892932
 20
-78.399204
 30
0.0
 10
8.892934
 20
-77.302724
 30
0.0
 10
9.893220
 20
-76.282995
 30
0.0
  0
LWPOLYLINE
  5
108
100
AcDbEntity
  8
area_engraving
 62
7
100
AcDbPolyline
 90
2
 70
0
 10
26.026859
 20
-82.861884
 30
0.0
 10
21.186767
 20
-87.796052
 30
0.0
  0
SPLINE
  5
109
100
AcDbEntity
  8
area_engraving
 62
7
100
AcDbSpline
 70
8
 71
3
 72
8
 73
4
 74
0
 40
0
 40
0
 40
0
 40
0
 40
1
 40
1
 40
1
 40
1
 10
14.733312
 20
-71.348827
 30
0.0
 10
15.733599
 20
-70.329098
 30
0.0
 10
16.809173
 20
-70.329097
 30
0.0
 10
17.960035
 20
-71.348821
 30
0.0
  0
LWPOLYLINE
  5
10a
100
AcDbEntity
  8
area_engraving
 62
7
100
AcDbPolyline
 90
2
 70
0
 10
17.960026
 20
-87.796039
 30
0.0
 10
9.893214
 20
-79.572435
 30
0.0
  0
LWPOLYLINE
  5
10b
100
AcDbEntity
  8
area_engraving
 62
7
100
AcDbPolyline
 90
2
 70
0
 10
9.893220
 20
-76.282995
 30
0.0
 10
14.733312
 20
-71.348827
 30
0.0
  0
SPLINE
  5
10c
100
AcDbEntity
  8
area_engraving
 62
7
100
AcDbSpline
 70
8
 71
3
 72
8
 73
4
 74
0
 40
0
 40
0
 40
0
 40
0
 40
1
 40
1
 40
1
 40
1
 10
36.822264
 20
-68.567180
 30
0.0
 10
37.822557
 20
-69.586915
 30
0.0
 10
37.822561
 20
-70.683401
 30
0.0
 10
36.822277
 20
-71.856638
 30
0.0
  0
LWPOLYLINE
  5
10d
100
AcDbEntity
  8
area_engraving
 62
7
100
AcDbPolyline
 90
12
 70
0
 10
17.960035
 20
-71.348821
 30
0.0
 10
19.573393
 20
-72.993538
 30
0.0
 10
17.960029
 20
-74.638261
 30
0.0
 10
16.346671
 20
-72.993544
 30
0.0
 10
11.506579
 20
-77.927712
 30
0.0
 10
19.573390
 20
-86.151316
 30
0.0
 10
24.413482
 20
-81.217148
 30
0.0
 10
21.186765
 20
-77.927714
 30
0.0
 10
19.573401
 20
-79.572437
 30
0.0
 10
17.960042
 20
-77.927720
 30
0.0
 10
21.186771
 20
-74.638274
 30
0.0
 10
26.026846
 20
-79.572426
 30
0.0
  0
SPLINE
  5
10e
100
AcDbEntity
  8
area_engraving
 62
7
100
AcDbSpline
 70
8
 71
3
 72
8
 73
4
 74
0
 40
0
 40
0
 40
0
 40
0
 40
1
 40
1
 40
1
 40
1
 10
31.982185
 20
-76.790806
 30
0.0
 10
30.981898
 20
-77.810535
 30
0.0
 10
29.906318
 20
-77.810531
 30
0.0
 10
28.755443
 20
-76.790793
 30
0.0
  0
LWPOLYLINE
  5
10f
100
AcDbEntity
  8
area_engraving
 62
7
100
AcDbPolyline
 90
5
 70
1
 10
29.864391
 20
-78.949763
 30
0.0
 10
28.251027
 20
-80.594485
 30
0.0
 10
16.957481
 20
-69.081428
 30
0.0
 10
18.570845
 20
-67.436705
 30
0.0
 10
29.864391
 20
-78.949763
 30
0.0
  0
SPLINE
  5
110
100
AcDbEntity
  8
area_engraving
 62
7
100
AcDbSpline
 70
8
 71
3
 72
8
 73
4
 74
0
 40
0
 40
0
 40
0
 40
0
 40
1
 40
1
 40
1
 40
1
 10
27.142085
 20
-75.146076
 30
0.0
 10
26.141802
 20
-73.972845
 30
0.0
 10
26.141804
 20
-72.876365
 30
0.0
 10
27.142091
 20
-71.856636
 30
0.0
  0
LWPOLYLINE
  5
111
100
AcDbEntity
  8
area_engraving
 62
7
100
AcDbPolyline
 90
2
 70
0
 10
36.822277
 20
-71.856638
 30
0.0
 10
31.982185
 20
-76.790806
 30
0.0
  0
SPLINE
  5
112
100
AcDbEntity
  8
area_engraving
 62
7
100
AcDbSpline
 70
8
 71
3
 72
8
 73
4
 74
0
 40
0
 40
0
 40
0
 40
0
 40
1
 40
1
 40
1
 40
1
 10
28.755447
 20
-63.633015
 30
0.0
 10
29.906315
 20
-62.613289
 30
0.0
 10
30.981896
 20
-62.613293
 30
0.0
 10
31.982188
 20
-63.633028
 30
0.0
  0
LWPOLYLINE
  5
113
100
AcDbEntity
  8
area_engraving
 62
7
100
AcDbPolyline
 90
2
 70
0
 10
28.755443
 20
-76.790793
 30
0.0
 10
27.142085
 20
-75.146076
 30
0.0
  0
LWPOLYLINE
  5
114
100
AcDbEntity
  8
area_engraving
 62
7
100
AcDbPolyline
 90
6
 70
0
 10
27.142091
 20
-71.856636
 30
0.0
 10
31.982183
 20
-66.922468
 30
0.0
 10
30.368824
 20
-65.277751
 30
0.0
 10
25.528732
 20
-70.211919
 30
0.0
 10
23.915355
 20
-68.567183
 30
0.0
 10
28.755447
 20
-63.633015
 30
0.0
  0
SPLINE
  5
115
100
AcDbEntity
  8
area_engraving
 62
7
100
AcDbSpline
 70
8
 71
3
 72
8
 73
4
 74
0
 40
0
 40
0
 40
0
 40
0
 40
1
 40
1
 40
1
 40
1
 10
45.440929
 20
-59.780995
 30
0.0
 10
46.441222
 20
-60.800730
 30
0.0
 10
46.441226
 20
-61.897216
 30
0.0
 10
45.440942
 20
-63.070454
 30
0.0
  0
LWPOLYLINE
  5
116
100
AcDbEntity
  8
area_engraving
 62
7
100
AcDbPolyline
 90
2
 70
0
 10
31.982188
 20
-63.633028
 30
0.0
 10
36.822264
 20
-68.567180
 30
0.0
  0
SPLINE
  5
117
100
AcDbEntity
  8
area_engraving
 62
7
100
AcDbSpline
 70
8
 71
3
 72
8
 73
4
 74
0
 40
0
 40
0
 40
0
 40
0
 40
1
 40
1
 40
1
 40
1
 10
37.374112
 20
-64.715171
 30
0.0
 10
36.373827
 20
-65.734898
 30
0.0
 10
35.298253
 20
-65.734900
 30
0.0
 10
34.147390
 20
-64.715177
 30
0.0
  0
LWPOLYLINE
  5
118
100
AcDbEntity
  8
area_engraving
 62
7
100
AcDbPolyline
 90
5
 70
1
 10
35.208900
 20
-70.211902
 30
0.0
 10
33.595541
 20
-68.567185
 30
0.0
 10
28.755449
 20
-73.501353
 30
0.0
 10
30.368808
 20
-75.146070
 30
0.0
 10
35.208900
 20
-70.211902
 30
0.0
  0
SPLINE
  5
119
100
AcDbEntity
  8
area_engraving
 62
7
100
AcDbSpline
 70
8
 71
3
 72
8
 73
4
 74
0
 40
0
 40
0
 40
0
 40
0
 40
1
 40
1
 40
1
 40
1
 10
32.534031
 20
-63.070460
 30
0.0
 10
31.533739
 20
-62.050725
 30
0.0
 10
31.533734
 20
-60.954238
 30
0.0
 10
32.534018
 20
-59.781001
 30
0.0
  0
LWPOLYLINE
  5
11a
100
AcDbEntity
  8
area_engraving
 62
7
100
AcDbPolyline
 90
6
 70
0
 10
45.440942
 20
-63.070454
 30
0.0
 10
38.987484
 20
-69.649347
 30
0.0
 10
37.374107
 20
-68.004611
 30
0.0
 10
43.827565
 20
-61.425718
 30
0.0
 10
42.214206
 20
-59.781001
 30
0.0
 10
37.374112
 20
-64.715171
 30
0.0
  0
SPLINE
  5
11b
100
AcDbEntity
  8
area_engraving
 62
7
100
AcDbSpline
 70
8
 71
3
 72
8
 73
4
 74
0
 40
0
 40
0
 40
0
 40
0
 40
1
 40
1
 40
1
 40
1
 10
40.600848
 20
-58.136284
 30
0.0
 10
41.740957
 20
-57.105589
 30
0.0
 10
42.816531
 20
-57.105587
 30
0.0
 10
43.827571
 20
-58.136278
 30
0.0
  0
LWPOLYLINE
  5
11c
100
AcDbEntity
  8
area_engraving
 62
7
100
AcDbPolyline
 90
2
 70
0
 10
34.147390
 20
-64.715177
 30
0.0
 10
32.534031
 20
-63.070460
 30
0.0
  0
SPLINE
  5
11d
100
AcDbEntity
  8
area_engraving
 62
7
100
AcDbSpline
 70
8
 71
3
 72
8
 73
4
 74
0
 40
0
 40
0
 40
0
 40
0
 40
1
 40
1
 40
1
 40
1
 10
53.780241
 20
-51.279594
 30
0.0
 10
54.780534
 20
-52.299329
 30
0.0
 10
54.780538
 20
-53.395815
 30
0.0
 10
53.780254
 20
-54.569052
 30
0.0
  0
LWPOLYLINE
  5
11e
100
AcDbEntity
  8
area_engraving
 62
7
100
AcDbPolyline
 90
6
 70
0
 10
32.534018
 20
-59.781001
 30
0.0
 10
37.374112
 20
-54.846831
 30
0.0
 10
38.987489
 20
-56.491567
 30
0.0
 10
34.147395
 20
-61.425737
 30
0.0
 10
35.760754
 20
-63.070454
 30
0.0
 10
40.600848
 20
-58.136284
 30
0.0
  0
SPLINE
  5
11f
100
AcDbEntity
  8
area_engraving
 62
7
100
AcDbSpline
 70
8
 71
3
 72
8
 73
4
 74
0
 40
0
 40
0
 40
0
 40
0
 40
1
 40
1
 40
1
 40
1
 10
45.713426
 20
-56.213768
 30
0.0
 10
44.713140
 20
-57.233496
 30
0.0
 10
43.637566
 20
-57.233498
 30
0.0
 10
42.486704
 20
-56.213773
 30
0.0
  0
LWPOLYLINE
  5
120
100
AcDbEntity
  8
area_engraving
 62
7
100
AcDbPolyline
 90
2
 70
0
 10
43.827571
 20
-58.136278
 30
0.0
 10
45.440929
 20
-59.780995
 30
0.0
  0
SPLINE
  5
121
100
AcDbEntity
  8
area_engraving
 62
7
100
AcDbSpline
 70
8
 71
3
 72
8
 73
4
 74
0
 40
0
 40
0
 40
0
 40
0
 40
1
 40
1
 40
1
 40
1
 10
40.873345
 20
-54.569056
 30
0.0
 10
39.873052
 20
-53.549321
 30
0.0
 10
39.873048
 20
-52.452835
 30
0.0
 10
40.873332
 20
-51.279598
 30
0.0
  0
LWPOLYLINE
  5
122
100
AcDbEntity
  8
area_engraving
 62
7
100
AcDbPolyline
 90
6
 70
0
 10
53.780254
 20
-54.569052
 30
0.0
 10
47.326798
 20
-61.147943
 30
0.0
 10
45.713421
 20
-59.503207
 30
0.0
 10
52.166877
 20
-52.924317
 30
0.0
 10
50.553518
 20
-51.279599
 30
0.0
 10
45.713426
 20
-56.213768
 30
0.0
  0
SPLINE
  5
123
100
AcDbEntity
  8
area_engraving
 62
7
100
AcDbSpline
 70
8
 71
3
 72
8
 73
4
 74
0
 40
0
 40
0
 40
0
 40
0
 40
1
 40
1
 40
1
 40
1
 10
48.940160
 20
-49.634882
 30
0.0
 10
50.080269
 20
-48.604188
 30
0.0
 10
51.155843
 20
-48.604186
 30
0.0
 10
52.166883
 20
-49.634877
 30
0.0
  0
LWPOLYLINE
  5
124
100
AcDbEntity
  8
area_engraving
 62
7
100
AcDbPolyline
 90
2
 70
0
 10
42.486704
 20
-56.213773
 30
0.0
 10
40.873345
 20
-54.569056
 30
0.0
  0
LWPOLYLINE
  5
125
100
AcDbEntity
  8
area_engraving
 62
7
100
AcDbPolyline
 90
6
 70
0
 10
40.873332
 20
-51.279598
 30
0.0
 10
45.713424
 20
-46.345429
 30
0.0
 10
47.326801
 20
-47.990165
 30
0.0
 10
42.486709
 20
-52.924334
 30
0.0
 10
44.100068
 20
-54.569051
 30
0.0
 10
48.940160
 20
-49.634882
 30
0.0
  0
SPLINE
  5
126
100
AcDbEntity
  8
area_engraving
 62
7
100
AcDbSpline
 70
8
 71
3
 72
8
 73
4
 74
0
 40
0
 40
0
 40
0
 40
0
 40
1
 40
1
 40
1
 40
1
 10
58.621860
 20
-49.633341
 30
0.0
 10
57.546284
 20
-50.729823
 30
0.0
 10
56.470704
 20
-50.729818
 30
0.0
 10
55.395119
 20
-49.633328
 30
0.0
  0
LWPOLYLINE
  5
127
100
AcDbEntity
  8
area_engraving
 62
7
100
AcDbPolyline
 90
2
 70
0
 10
52.166883
 20
-49.634877
 30
0.0
 10
53.780241
 20
-51.279594
 30
0.0
  0
SPLINE
  5
128
100
AcDbEntity
  8
area_engraving
 62
7
100
AcDbSpline
 70
8
 71
3
 72
8
 73
4
 74
0
 40
0
 40
0
 40
0
 40
0
 40
1
 40
1
 40
1
 40
1
 10
47.328308
 20
-41.409724
 30
0.0
 10
46.252736
 20
-40.313246
 30
0.0
 10
46.252737
 20
-39.216766
 30
0.0
 10
47.328313
 20
-38.120284
 30
0.0
  0
LWPOLYLINE
  5
129
100
AcDbEntity
  8
area_engraving
 62
7
100
AcDbPolyline
 90
2
 70
0
 10
65.075318
 20
-43.054448
 30
0.0
 10
58.621860
 20
-49.633341
 30
0.0
  0
SPLINE
  5
12a
100
AcDbEntity
  8
area_engraving
 62
7
100
AcDbSpline
 70
8
 71
3
 72
8
 73
4
 74
0
 40
0
 40
0
 40
0
 40
0
 40
1
 40
1
 40
1
 40
1
 10
71.302400
 20
-33.416861
 30
0.0
 10
72.302695
 20
-34.590104
 30
0.0
 10
72.302699
 20
-35.686591
 30
0.0
 10
71.302413
 20
-36.706319
 30
0.0
  0
LWPOLYLINE
  5
12b
100
AcDbEntity
  8
area_engraving
 62
7
100
AcDbPolyline
 90
2
 70
0
 10
55.395119
 20
-49.633328
 30
0.0
 10
47.328308
 20
-41.409724
 30
0.0
  0
SPLINE
  5
12c
100
AcDbEntity
  8
area_engraving
 62
7
100
AcDbSpline
 70
8
 71
3
 72
8
 73
4
 74
0
 40
0
 40
0
 40
0
 40
0
 40
1
 40
1
 40
1
 40
1
 10
66.462321
 20
-41.640487
 30
0.0
 10
65.462034
 20
-42.660216
 30
0.0
 10
64.386454
 20
-42.660212
 30
0.0
 10
63.235579
 20
-41.640474
 30
0.0
  0
LWPOLYLINE
  5
12d
100
AcDbEntity
  8
area_engraving
 62
7
100
AcDbPolyline
 90
7
 70
0
 10
47.328313
 20
-38.120284
 30
0.0
 10
53.781772
 20
-31.541391
 30
0.0
 10
55.395130
 20
-33.186108
 30
0.0
 10
48.941672
 20
-39.765001
 30
0.0
 10
57.008483
 20
-47.988605
 30
0.0
 10
63.461941
 20
-41.409712
 30
0.0
 10
65.075318
 20
-43.054448
 30
0.0
  0
SPLINE
  5
12e
100
AcDbEntity
  8
area_engraving
 62
7
100
AcDbSpline
 70
8
 71
3
 72
8
 73
4
 74
0
 40
0
 40
0
 40
0
 40
0
 40
1
 40
1
 40
1
 40
1
 10
80.161030
 20
-24.386048
 30
0.0
 10
81.161323
 20
-25.559293
 30
0.0
 10
81.161328
 20
-26.655779
 30
0.0
 10
80.161043
 20
-27.675506
 30
0.0
  0
LWPOLYLINE
  5
12f
100
AcDbEntity
  8
area_engraving
 62
7
100
AcDbPolyline
 90
2
 70
0
 10
71.302413
 20
-36.706319
 30
0.0
 10
66.462321
 20
-41.640487
 30
0.0
  0
SPLINE
  5
130
100
AcDbEntity
  8
area_engraving
 62
7
100
AcDbSpline
 70
8
 71
3
 72
8
 73
4
 74
0
 40
0
 40
0
 40
0
 40
0
 40
1
 40
1
 40
1
 40
1
 10
72.094213
 20
-19.451883
 30
0.0
 10
73.094498
 20
-18.432156
 30
0.0
 10
74.170078
 20
-18.432160
 30
0.0
 10
75.320954
 20
-19.451896
 30
0.0
  0
LWPOLYLINE
  5
131
100
AcDbEntity
  8
area_engraving
 62
7
100
AcDbPolyline
 90
8
 70
0
 10
63.235579
 20
-41.640474
 30
0.0
 10
56.782127
 20
-35.061587
 30
0.0
 10
58.395491
 20
-33.416864
 30
0.0
 10
64.848944
 20
-39.995751
 30
0.0
 10
69.689036
 20
-35.061583
 30
0.0
 10
63.235583
 20
-28.482696
 30
0.0
 10
64.848947
 20
-26.837974
 30
0.0
 10
71.302400
 20
-33.416861
 30
0.0
  0
LWPOLYLINE
  5
132
100
AcDbEntity
  8
area_engraving
 62
7
100
AcDbPolyline
 90
6
 70
0
 10
80.161043
 20
-27.675506
 30
0.0
 10
73.707584
 20
-34.254399
 30
0.0
 10
62.414038
 20
-22.741342
 30
0.0
 10
64.027402
 20
-21.096619
 30
0.0
 10
67.254119
 20
-24.386053
 30
0.0
 10
72.094213
 20
-19.451883
 30
0.0
  0
LWPOLYLINE
  5
133
100
AcDbEntity
  8
area_engraving
 62
7
100
AcDbPolyline
 90
2
 70
0
 10
75.320954
 20
-19.451896
 30
0.0
 10
80.161030
 20
-24.386048
 30
0.0
  0
SPLINE
  5
134
100
AcDbEntity
  8
area_engraving
 62
7
100
AcDbSpline
 70
8
 71
3
 72
8
 73
4
 74
0
 40
0
 40
0
 40
0
 40
0
 40
1
 40
1
 40
1
 40
1
 10
84.127908
 20
-23.631538
 30
0.0
 10
82.977039
 20
-24.651265
 30
0.0
 10
81.901458
 20
-24.651261
 30
0.0
 10
80.901165
 20
-23.631526
 30
0.0
  0
LWPOLYLINE
  5
135
100
AcDbEntity
  8
area_engraving
 62
7
100
AcDbPolyline
 90
5
 70
1
 10
78.547666
 20
-26.030770
 30
0.0
 10
73.707590
 20
-21.096619
 30
0.0
 10
68.867496
 20
-26.030789
 30
0.0
 10
73.707571
 20
-30.964940
 30
0.0
 10
78.547666
 20
-26.030770
 30
0.0
  0
SPLINE
  5
136
100
AcDbEntity
  8
area_engraving
 62
7
100
AcDbSpline
 70
8
 71
3
 72
8
 73
4
 74
0
 40
0
 40
0
 40
0
 40
0
 40
1
 40
1
 40
1
 40
1
 10
76.061090
 20
-18.697375
 30
0.0
 10
75.060797
 20
-17.677640
 30
0.0
 10
75.060793
 20
-16.581153
 30
0.0
 10
76.061078
 20
-15.407915
 30
0.0
  0
LWPOLYLINE
  5
137
100
AcDbEntity
  8
area_engraving
 62
7
100
AcDbPolyline
 90
6
 70
0
 10
87.354629
 20
-13.763194
 30
0.0
 10
80.901173
 20
-20.342085
 30
0.0
 10
82.514531
 20
-21.986802
 30
0.0
 10
87.354623
 20
-17.052633
 30
0.0
 10
88.968001
 20
-18.697369
 30
0.0
 10
84.127908
 20
-23.631538
 30
0.0
  0
SPLINE
  5
138
100
AcDbEntity
  8
area_engraving
 62
7
100
AcDbSpline
 70
8
 71
3
 72
8
 73
4
 74
0
 40
0
 40
0
 40
0
 40
0
 40
1
 40
1
 40
1
 40
1
 10
80.901171
 20
-10.473746
 30
0.0
 10
81.901457
 20
-9.454018
 30
0.0
 10
82.977038
 20
-9.454022
 30
0.0
 10
84.127912
 20
-10.473760
 30
0.0
  0
LWPOLYLINE
  5
139
100
AcDbEntity
  8
area_engraving
 62
7
100
AcDbPolyline
 90
2
 70
0
 10
80.901165
 20
-23.631526
 30
0.0
 10
76.061090
 20
-18.697375
 30
0.0
  0
LWPOLYLINE
  5
13a
100
AcDbEntity
  8
area_engraving
 62
7
100
AcDbPolyline
 90
2
 70
0
 10
76.061078
 20
-15.407915
 30
0.0
 10
80.901171
 20
-10.473746
 30
0.0
  0
LWPOLYLINE
  5
13b
100
AcDbEntity
  8
area_engraving
 62
7
100
AcDbPolyline
 90
2
 70
0
 10
84.127912
 20
-10.473760
 30
0.0
 10
87.354629
 20
-13.763194
 30
0.0
  0
LWPOLYLINE
  5
13c
100
AcDbEntity
  8
area_engraving
 62
7
100
AcDbPolyline
 90
5
 70
1
 10
84.127906
 20
-13.763199
 30
0.0
 10
82.514548
 20
-12.118482
 30
0.0
 10
77.674456
 20
-17.052650
 30
0.0
 10
79.287814
 20
-18.697367
 30
0.0
 10
84.127906
 20
-13.763199
 30
0.0
  0
ENDSEC
  0
SECTION
  2
OBJECTS
  0
DICTIONARY
  5
C
330
0
100
AcDbDictionary
  3
ACAD_GROUP
350
D
  3
ACAD_MLINESTYLE
350
17
  0
DICTIONARY
  5
D
330
C
100
AcDbDictionary
  0
DICTIONARY
  5
1A
330
C
100
AcDbDictionary
  0
DICTIONARY
  5
17
330
C
100
AcDbDictionary
  3
STANDARD
350
18
  0
DICTIONARY
  5
19
330
C
100
AcDbDictionary
  0
ENDSEC
  0
EOF
