  0
SECTION
  2
HEADER
  9
$ACADVER
  1
AC1014
  9
$HANDSEED
  5
FFFF
  9
$MEASUREMENT
 70
     1
  0
ENDSEC
  0
SECTION
  2
TABLES
  0
TABLE
  2
VPORT
  5
8
330
0
100
AcDbSymbolTable
 70
     4
  0
VPORT
  5
2E
330
8
100
AcDbSymbolTableRecord
100
AcDbViewportTableRecord
  2
*ACTIVE
 70
     0
 10
0.0
 20
0.0
 11
1.0
 21
1.0
 12
210.0
 22
148.5
 13
0.0
 23
0.0
 14
10.0
 24
10.0
 15
10.0
 25
10.0
 16
0.0
 26
0.0
 36
1.0
 17
0.0
 27
0.0
 37
0.0
 40
341.0
 41
1.24
 42
50.0
 43
0.0
 44
0.0
 50
0.0
 51
0.0
 71
     0
 72
   100
 73
     1
 74
     3
 75
     0
 76
     0
 77
     0
 78
     0
  0
ENDTAB
  0
TABLE
  2
LTYPE
  5
5
330
0
100
AcDbSymbolTable
 70
     1
  0
LTYPE
  5
14
330
5
100
AcDbSymbolTableRecord
100
AcDbLinetypeTableRecord
  2
BYBLOCK
 70
     0
  3

 72
    65
 73
     0
 40
0.0
  0
LTYPE
  5
15
330
5
100
AcDbSymbolTableRecord
100
AcDbLinetypeTableRecord
  2
BYLAYER
 70
     0
  3

 72
    65
 73
     0
 40
0.0
  0
LTYPE
  5
16
330
5
100
AcDbSymbolTableRecord
100
AcDbLinetypeTableRecord
  2
CONTINUOUS
 70
     0
  3
Solid line
 72
    65
 73
     0
 40
0.0
  0
ENDTAB
  0
TABLE
  2
LAYER
  5
2
100
AcDbSymbolTable
 70
2
  0
LAYER
  5
50
100
AcDbSymbolTableRecord
100
AcDbLayerTableRecord
  2
0
 70
0
  6
CONTINUOUS
  0
LAYER
  5
51
100
AcDbSymbolTableRecord
100
AcDbLayerTableRecord
  2
WS2812B_4x4_32mil
 70
0
  6
CONTINUOUS
  0
ENDTAB
  0
TABLE
  2
STYLE
  5
3
330
0
100
AcDbSymbolTable
 70
     1
  0
STYLE
  5
11
330
3
100
AcDbSymbolTableRecord
100
AcDbTextStyleTableRecord
  2
STANDARD
 70
     0
 40
0.0
 41
1.0
 50
0.0
 71
     0
 42
2.5
  3
txt
  4

  0
ENDTAB
  0
TABLE
  2
VIEW
  5
6
330
0
100
AcDbSymbolTable
 70
     0
  0
ENDTAB
  0
TABLE
  2
UCS
  5
7
330
0
100
AcDbSymbolTable
 70
     0
  0
ENDTAB
  0
TABLE
  2
APPID
  5
9
330
0
100
AcDbSymbolTable
 70
     2
  0
APPID
  5
12
330
9
100
AcDbSymbolTableRecord
100
AcDbRegAppTableRecord
  2
ACAD
 70
     0
  0
ENDTAB
  0
TABLE
  2
DIMSTYLE
  5
A
330
0
100
AcDbSymbolTable
 70
     1
  0
DIMSTYLE
105
27
330
A
100
AcDbSymbolTableRecord
100
AcDbDimStyleTableRecord
  2
ISO-25
 70
     0
  3

  4

  5

  6

  7

 40
1.0
 41
2.5
 42
0.625
 43
3.75
 44
1.25
 45
0.0
 46
0.0
 47
0.0
 48
0.0
140
2.5
141
2.5
142
0.0
143
0.03937007874016
144
1.0
145
0.0
146
1.0
147
0.625
 71
     0
 72
     0
 73
     0
 74
     0
 75
     0
 76
     0
 77
     1
 78
     8
170
     0
171
     3
172
     1
173
     0
174
     0
175
     0
176
     0
177
     0
178
     0
270
     2
271
     2
272
     2
273
     2
274
     3
340
11
275
     0
280
     0
281
     0
282
     0
283
     0
284
     8
285
     0
286
     0
287
     3
288
     0
  0
ENDTAB
  0
TABLE
  2
BLOCK_RECORD
  5
1
330
0
100
AcDbSymbolTable
 70
     1
  0
BLOCK_RECORD
  5
1F
330
1
100
AcDbSymbolTableRecord
100
AcDbBlockTableRecord
  2
*MODEL_SPACE
  0
BLOCK_RECORD
  5
1B
330
1
100
AcDbSymbolTableRecord
100
AcDbBlockTableRecord
  2
*PAPER_SPACE
  0
ENDTAB
  0
ENDSEC
  0
SECTION
  2
BLOCKS
  0
BLOCK
  5
20
330
1F
100
AcDbEntity
  8
0
100
AcDbBlockBegin
  2
*MODEL_SPACE
 70
     0
 10
0.0
 20
0.0
 30
0.0
  3
*MODEL_SPACE
  1

  0
ENDBLK
  5
21
330
1F
100
AcDbEntity
  8
0
100
AcDbBlockEnd
  0
BLOCK
  5
1C
330
1B
100
AcDbEntity
 67
     1
  8
0
100
AcDbBlockBegin
  2
*PAPER_SPACE
  1

  0
ENDBLK
  5
1D
330
1B
100
AcDbEntity
 67
     1
  8
0
100
AcDbBlockEnd
  0
ENDSEC
  0
SECTION
  2
ENTITIES
  0
SPLINE
  5
100
100
AcDbEntity
  8
WS2812B_4x4_32mil
 62
7
100
AcDbSpline
 70
8
 71
3
 72
8
 73
4
 74
0
 40
0
 40
0
 40
0
 40
0
 40
1
 40
1
 40
1
 40
1
 10
54.940831
 20
199.023179
 30
0.0
 10
54.810933
 20
199.020891
 30
0.0
 10
54.686846
 20
198.968926
 30
0.0
 10
54.594081
 20
198.877968
 30
0.0
  0
SPLINE
  5
101
100
AcDbEntity
  8
WS2812B_4x4_32mil
 62
7
100
AcDbSpline
 70
8
 71
3
 72
8
 73
4
 74
0
 40
0
 40
0
 40
0
 40
0
 40
1
 40
1
 40
1
 40
1
 10
54.594081
 20
198.877968
 30
0.0
 10
54.588988
 20
198.873247
 30
0.0
 10
54.583991
 20
198.868423
 30
0.0
 10
54.579095
 20
198.863497
 30
0.0
  0
SPLINE
  5
102
100
AcDbEntity
  8
WS2812B_4x4_32mil
 62
7
100
AcDbSpline
 70
8
 71
3
 72
8
 73
4
 74
0
 40
0
 40
0
 40
0
 40
0
 40
1
 40
1
 40
1
 40
1
 10
54.579095
 20
198.863497
 30
0.0
 10
54.466524
 20
198.748428
 30
0.0
 10
54.415146
 20
198.586817
 30
0.0
 10
54.440604
 20
198.427866
 30
0.0
  0
SPLINE
  5
103
100
AcDbEntity
  8
WS2812B_4x4_32mil
 62
7
100
AcDbSpline
 70
8
 71
3
 72
8
 73
4
 74
0
 40
0
 40
0
 40
0
 40
0
 40
1
 40
1
 40
1
 40
1
 10
54.440604
 20
195.502461
 30
0.0
 10
54.437515
 20
195.318940
 30
0.0
 10
54.533654
 20
195.148021
 30
0.0
 10
54.692093
 20
195.055357
 30
0.0
  0
SPLINE
  5
104
100
AcDbEntity
  8
WS2812B_4x4_32mil
 62
7
100
AcDbSpline
 70
8
 71
3
 72
8
 73
4
 74
0
 40
0
 40
0
 40
0
 40
0
 40
1
 40
1
 40
1
 40
1
 10
54.692093
 20
195.055357
 30
0.0
 10
54.850533
 20
194.962693
 30
0.0
 10
55.046634
 20
194.962693
 30
0.0
 10
55.205073
 20
195.055357
 30
0.0
  0
SPLINE
  5
105
100
AcDbEntity
  8
WS2812B_4x4_32mil
 62
7
100
AcDbSpline
 70
8
 71
3
 72
8
 73
4
 74
0
 40
0
 40
0
 40
0
 40
0
 40
1
 40
1
 40
1
 40
1
 10
55.205073
 20
195.055357
 30
0.0
 10
55.363513
 20
195.148021
 30
0.0
 10
55.459651
 20
195.318940
 30
0.0
 10
55.456562
 20
195.502461
 30
0.0
  0
LWPOLYLINE
  5
106
100
AcDbEntity
  8
WS2812B_4x4_32mil
 62
7
100
AcDbPolyline
 90
2
 70
0
 10
54.440604
 20
198.427866
 30
0.0
 10
54.440604
 20
195.502461
 30
0.0
  0
SPLINE
  5
107
100
AcDbEntity
  8
WS2812B_4x4_32mil
 62
7
100
AcDbSpline
 70
8
 71
3
 72
8
 73
4
 74
0
 40
0
 40
0
 40
0
 40
0
 40
1
 40
1
 40
1
 40
1
 10
57.954083
 20
197.999985
 30
0.0
 10
58.137605
 20
197.996896
 30
0.0
 10
58.308523
 20
198.093034
 30
0.0
 10
58.401187
 20
198.251474
 30
0.0
  0
SPLINE
  5
108
100
AcDbEntity
  8
WS2812B_4x4_32mil
 62
7
100
AcDbSpline
 70
8
 71
3
 72
8
 73
4
 74
0
 40
0
 40
0
 40
0
 40
0
 40
1
 40
1
 40
1
 40
1
 10
58.401187
 20
198.251474
 30
0.0
 10
58.493851
 20
198.409913
 30
0.0
 10
58.493851
 20
198.606014
 30
0.0
 10
58.401187
 20
198.764454
 30
0.0
  0
SPLINE
  5
109
100
AcDbEntity
  8
WS2812B_4x4_32mil
 62
7
100
AcDbSpline
 70
8
 71
3
 72
8
 73
4
 74
0
 40
0
 40
0
 40
0
 40
0
 40
1
 40
1
 40
1
 40
1
 10
58.401187
 20
198.764454
 30
0.0
 10
58.308523
 20
198.922893
 30
0.0
 10
58.137605
 20
199.019032
 30
0.0
 10
57.954083
 20
199.015942
 30
0.0
  0
SPLINE
  5
10a
100
AcDbEntity
  8
WS2812B_4x4_32mil
 62
7
100
AcDbSpline
 70
8
 71
3
 72
8
 73
4
 74
0
 40
0
 40
0
 40
0
 40
0
 40
1
 40
1
 40
1
 40
1
 10
57.954083
 20
199.015942
 30
0.0
 10
57.954083
 20
199.015942
 30
0.0
 10
55.031266
 20
199.015942
 30
0.0
 10
55.031266
 20
199.015942
 30
0.0
  0
SPLINE
  5
10b
100
AcDbEntity
  8
WS2812B_4x4_32mil
 62
7
100
AcDbSpline
 70
8
 71
3
 72
8
 73
4
 74
0
 40
0
 40
0
 40
0
 40
0
 40
1
 40
1
 40
1
 40
1
 10
55.031266
 20
199.015942
 30
0.0
 10
55.001397
 20
199.021047
 30
0.0
 10
54.971131
 20
199.023468
 30
0.0
 10
54.940831
 20
199.023179
 30
0.0
  0
LWPOLYLINE
  5
10c
100
AcDbEntity
  8
WS2812B_4x4_32mil
 62
7
100
AcDbPolyline
 90
3
 70
0
 10
55.456562
 20
195.502461
 30
0.0
 10
55.456562
 20
197.999985
 30
0.0
 10
57.954083
 20
197.999985
 30
0.0
  0
SPLINE
  5
10d
100
AcDbEntity
  8
WS2812B_4x4_32mil
 62
7
100
AcDbSpline
 70
8
 71
3
 72
8
 73
4
 74
0
 40
0
 40
0
 40
0
 40
0
 40
1
 40
1
 40
1
 40
1
 10
154.889768
 20
199.023179
 30
0.0
 10
154.864473
 20
199.022649
 30
0.0
 10
154.839253
 20
199.020230
 30
0.0
 10
154.814319
 20
199.015942
 30
0.0
  0
LWPOLYLINE
  5
10e
100
AcDbEntity
  8
WS2812B_4x4_32mil
 62
7
100
AcDbPolyline
 90
1
 70
1
 10
54.940831
 20
199.023179
 30
0.0
  0
SPLINE
  5
10f
100
AcDbEntity
  8
WS2812B_4x4_32mil
 62
7
100
AcDbSpline
 70
8
 71
3
 72
8
 73
4
 74
0
 40
0
 40
0
 40
0
 40
0
 40
1
 40
1
 40
1
 40
1
 10
151.913205
 20
199.015942
 30
0.0
 10
151.729684
 20
199.019032
 30
0.0
 10
151.558766
 20
198.922893
 30
0.0
 10
151.466101
 20
198.764454
 30
0.0
  0
SPLINE
  5
110
100
AcDbEntity
  8
WS2812B_4x4_32mil
 62
7
100
AcDbSpline
 70
8
 71
3
 72
8
 73
4
 74
0
 40
0
 40
0
 40
0
 40
0
 40
1
 40
1
 40
1
 40
1
 10
151.466101
 20
198.764454
 30
0.0
 10
151.373437
 20
198.606014
 30
0.0
 10
151.373437
 20
198.409913
 30
0.0
 10
151.466101
 20
198.251474
 30
0.0
  0
SPLINE
  5
111
100
AcDbEntity
  8
WS2812B_4x4_32mil
 62
7
100
AcDbSpline
 70
8
 71
3
 72
8
 73
4
 74
0
 40
0
 40
0
 40
0
 40
0
 40
1
 40
1
 40
1
 40
1
 10
151.466101
 20
198.251474
 30
0.0
 10
151.558766
 20
198.093034
 30
0.0
 10
151.729684
 20
197.996896
 30
0.0
 10
151.913205
 20
197.999985
 30
0.0
  0
LWPOLYLINE
  5
112
100
AcDbEntity
  8
WS2812B_4x4_32mil
 62
7
100
AcDbPolyline
 90
2
 70
0
 10
154.814319
 20
199.015942
 30
0.0
 10
151.913205
 20
199.015942
 30
0.0
  0
SPLINE
  5
113
100
AcDbEntity
  8
WS2812B_4x4_32mil
 62
7
100
AcDbSpline
 70
8
 71
3
 72
8
 73
4
 74
0
 40
0
 40
0
 40
0
 40
0
 40
1
 40
1
 40
1
 40
1
 10
154.389538
 20
195.502461
 30
0.0
 10
154.386478
 20
195.318958
 30
0.0
 10
154.482624
 20
195.148069
 30
0.0
 10
154.641051
 20
195.055423
 30
0.0
  0
SPLINE
  5
114
100
AcDbEntity
  8
WS2812B_4x4_32mil
 62
7
100
AcDbSpline
 70
8
 71
3
 72
8
 73
4
 74
0
 40
0
 40
0
 40
0
 40
0
 40
1
 40
1
 40
1
 40
1
 10
154.641051
 20
195.055423
 30
0.0
 10
154.799479
 20
194.962777
 30
0.0
 10
154.995558
 20
194.962777
 30
0.0
 10
155.153986
 20
195.055423
 30
0.0
  0
SPLINE
  5
115
100
AcDbEntity
  8
WS2812B_4x4_32mil
 62
7
100
AcDbSpline
 70
8
 71
3
 72
8
 73
4
 74
0
 40
0
 40
0
 40
0
 40
0
 40
1
 40
1
 40
1
 40
1
 10
155.153986
 20
195.055423
 30
0.0
 10
155.312414
 20
195.148069
 30
0.0
 10
155.408559
 20
195.318958
 30
0.0
 10
155.405499
 20
195.502461
 30
0.0
  0
SPLINE
  5
116
100
AcDbEntity
  8
WS2812B_4x4_32mil
 62
7
100
AcDbSpline
 70
8
 71
3
 72
8
 73
4
 74
0
 40
0
 40
0
 40
0
 40
0
 40
1
 40
1
 40
1
 40
1
 10
155.405499
 20
195.502461
 30
0.0
 10
155.405499
 20
195.502461
 30
0.0
 10
155.405499
 20
198.422180
 30
0.0
 10
155.405499
 20
198.422180
 30
0.0
  0
SPLINE
  5
117
100
AcDbEntity
  8
WS2812B_4x4_32mil
 62
7
100
AcDbSpline
 70
8
 71
3
 72
8
 73
4
 74
0
 40
0
 40
0
 40
0
 40
0
 40
1
 40
1
 40
1
 40
1
 10
155.405499
 20
198.422180
 30
0.0
 10
155.432817
 20
198.582736
 30
0.0
 10
155.381508
 20
198.746657
 30
0.0
 10
155.267521
 20
198.862982
 30
0.0
  0
SPLINE
  5
118
100
AcDbEntity
  8
WS2812B_4x4_32mil
 62
7
100
AcDbSpline
 70
8
 71
3
 72
8
 73
4
 74
0
 40
0
 40
0
 40
0
 40
0
 40
1
 40
1
 40
1
 40
1
 10
155.267521
 20
198.862982
 30
0.0
 10
155.169726
 20
198.967115
 30
0.0
 10
155.032608
 20
199.025264
 30
0.0
 10
154.889768
 20
199.023179
 30
0.0
  0
LWPOLYLINE
  5
119
100
AcDbEntity
  8
WS2812B_4x4_32mil
 62
7
100
AcDbPolyline
 90
3
 70
0
 10
151.913205
 20
197.999985
 30
0.0
 10
154.389538
 20
197.999985
 30
0.0
 10
154.389538
 20
195.502461
 30
0.0
  0
SPLINE
  5
11a
100
AcDbEntity
  8
WS2812B_4x4_32mil
 62
7
100
AcDbSpline
 70
8
 71
3
 72
8
 73
4
 74
0
 40
0
 40
0
 40
0
 40
0
 40
1
 40
1
 40
1
 40
1
 10
114.820896
 20
187.537058
 30
0.0
 10
114.771921
 20
187.535441
 30
0.0
 10
114.723625
 20
187.525116
 30
0.0
 10
114.678269
 20
187.506568
 30
0.0
  0
SPLINE
  5
11b
100
AcDbEntity
  8
WS2812B_4x4_32mil
 62
7
100
AcDbSpline
 70
8
 71
3
 72
8
 73
4
 74
0
 40
0
 40
0
 40
0
 40
0
 40
1
 40
1
 40
1
 40
1
 10
114.678269
 20
187.506568
 30
0.0
 10
114.672887
 20
187.504612
 30
0.0
 10
114.667545
 20
187.502544
 30
0.0
 10
114.662249
 20
187.500366
 30
0.0
  0
SPLINE
  5
11c
100
AcDbEntity
  8
WS2812B_4x4_32mil
 62
7
100
AcDbSpline
 70
8
 71
3
 72
8
 73
4
 74
0
 40
0
 40
0
 40
0
 40
0
 40
1
 40
1
 40
1
 40
1
 10
114.662249
 20
187.500366
 30
0.0
 10
114.661387
 20
187.500025
 30
0.0
 10
114.660526
 20
187.499681
 30
0.0
 10
114.659666
 20
187.499334
 30
0.0
  0
SPLINE
  5
11d
100
AcDbEntity
  8
WS2812B_4x4_32mil
 62
7
100
AcDbSpline
 70
8
 71
3
 72
8
 73
4
 74
0
 40
0
 40
0
 40
0
 40
0
 40
1
 40
1
 40
1
 40
1
 10
114.659666
 20
187.499334
 30
0.0
 10
114.594465
 20
187.471013
 30
0.0
 10
114.537682
 20
187.426334
 30
0.0
 10
114.494818
 20
187.369625
 30
0.0
  0
LWPOLYLINE
  5
11e
100
AcDbEntity
  8
WS2812B_4x4_32mil
 62
7
100
AcDbPolyline
 90
1
 70
1
 10
154.889768
 20
199.023179
 30
0.0
  0
SPLINE
  5
11f
100
AcDbEntity
  8
WS2812B_4x4_32mil
 62
7
100
AcDbSpline
 70
8
 71
3
 72
8
 73
4
 74
0
 40
0
 40
0
 40
0
 40
0
 40
1
 40
1
 40
1
 40
1
 10
108.625926
 20
181.500733
 30
0.0
 10
108.625926
 20
181.500733
 30
0.0
 10
108.211996
 20
181.500733
 30
0.0
 10
108.211996
 20
181.500733
 30
0.0
  0
SPLINE
  5
120
100
AcDbEntity
  8
WS2812B_4x4_32mil
 62
7
100
AcDbSpline
 70
8
 71
3
 72
8
 73
4
 74
0
 40
0
 40
0
 40
0
 40
0
 40
1
 40
1
 40
1
 40
1
 10
108.211996
 20
181.500733
 30
0.0
 10
108.193849
 20
181.503326
 30
0.0
 10
108.175549
 20
181.504707
 30
0.0
 10
108.157219
 20
181.504868
 30
0.0
  0
SPLINE
  5
121
100
AcDbEntity
  8
WS2812B_4x4_32mil
 62
7
100
AcDbSpline
 70
8
 71
3
 72
8
 73
4
 74
0
 40
0
 40
0
 40
0
 40
0
 40
1
 40
1
 40
1
 40
1
 10
108.157219
 20
181.504868
 30
0.0
 10
108.139061
 20
181.504685
 30
0.0
 10
108.120934
 20
181.503303
 30
0.0
 10
108.102958
 20
181.500733
 30
0.0
  0
LWPOLYLINE
  5
122
100
AcDbEntity
  8
WS2812B_4x4_32mil
 62
7
100
AcDbPolyline
 90
2
 70
0
 10
114.494818
 20
187.369625
 30
0.0
 10
108.625926
 20
181.500733
 30
0.0
  0
SPLINE
  5
123
100
AcDbEntity
  8
WS2812B_4x4_32mil
 62
7
100
AcDbSpline
 70
8
 71
3
 72
8
 73
4
 74
0
 40
0
 40
0
 40
0
 40
0
 40
1
 40
1
 40
1
 40
1
 10
95.768830
 20
184.003940
 30
0.0
 10
95.776111
 20
184.070183
 30
0.0
 10
95.767245
 20
184.137204
 30
0.0
 10
95.742990
 20
184.199276
 30
0.0
  0
SPLINE
  5
124
100
AcDbEntity
  8
WS2812B_4x4_32mil
 62
7
100
AcDbSpline
 70
8
 71
3
 72
8
 73
4
 74
0
 40
0
 40
0
 40
0
 40
0
 40
1
 40
1
 40
1
 40
1
 10
95.742990
 20
184.199276
 30
0.0
 10
95.715695
 20
184.273185
 30
0.0
 10
95.667819
 20
184.337739
 30
0.0
 10
95.605016
 20
184.385313
 30
0.0
  0
LWPOLYLINE
  5
125
100
AcDbEntity
  8
WS2812B_4x4_32mil
 62
7
100
AcDbPolyline
 90
6
 70
0
 10
108.102958
 20
181.500733
 30
0.0
 10
97.028183
 20
181.500733
 30
0.0
 10
97.028183
 20
181.913628
 30
0.0
 10
96.287662
 20
181.913628
 30
0.0
 10
95.768830
 20
182.442279
 30
0.0
 10
95.768830
 20
184.003940
 30
0.0
  0
SPLINE
  5
126
100
AcDbEntity
  8
WS2812B_4x4_32mil
 62
7
100
AcDbSpline
 70
8
 71
3
 72
8
 73
4
 74
0
 40
0
 40
0
 40
0
 40
0
 40
1
 40
1
 40
1
 40
1
 10
93.105425
 20
186.864747
 30
0.0
 10
93.061507
 20
186.921310
 30
0.0
 10
93.003629
 20
186.965475
 30
0.0
 10
92.937478
 20
186.992903
 30
0.0
  0
SPLINE
  5
127
100
AcDbEntity
  8
WS2812B_4x4_32mil
 62
7
100
AcDbSpline
 70
8
 71
3
 72
8
 73
4
 74
0
 40
0
 40
0
 40
0
 40
0
 40
1
 40
1
 40
1
 40
1
 10
92.937478
 20
186.992903
 30
0.0
 10
92.884016
 20
187.016892
 30
0.0
 10
92.826060
 20
187.029223
 30
0.0
 10
92.767463
 20
187.029077
 30
0.0
  0
SPLINE
  5
128
100
AcDbEntity
  8
WS2812B_4x4_32mil
 62
7
100
AcDbSpline
 70
8
 71
3
 72
8
 73
4
 74
0
 40
0
 40
0
 40
0
 40
0
 40
1
 40
1
 40
1
 40
1
 10
92.767463
 20
187.029077
 30
0.0
 10
92.749132
 20
187.028917
 30
0.0
 10
92.730833
 20
187.027536
 30
0.0
 10
92.712686
 20
187.024944
 30
0.0
  0
LWPOLYLINE
  5
129
100
AcDbEntity
  8
WS2812B_4x4_32mil
 62
7
100
AcDbPolyline
 90
2
 70
0
 10
95.605016
 20
184.385313
 30
0.0
 10
93.105425
 20
186.864747
 30
0.0
  0
SPLINE
  5
12a
100
AcDbEntity
  8
WS2812B_4x4_32mil
 62
7
100
AcDbSpline
 70
8
 71
3
 72
8
 73
4
 74
0
 40
0
 40
0
 40
0
 40
0
 40
1
 40
1
 40
1
 40
1
 10
74.419228
 20
187.024944
 30
0.0
 10
74.396474
 20
187.028233
 30
0.0
 10
74.373484
 20
187.029616
 30
0.0
 10
74.350500
 20
187.029077
 30
0.0
  0
SPLINE
  5
12b
100
AcDbEntity
  8
WS2812B_4x4_32mil
 62
7
100
AcDbSpline
 70
8
 71
3
 72
8
 73
4
 74
0
 40
0
 40
0
 40
0
 40
0
 40
1
 40
1
 40
1
 40
1
 10
74.350500
 20
187.029077
 30
0.0
 10
74.301524
 20
187.027461
 30
0.0
 10
74.253227
 20
187.017137
 30
0.0
 10
74.207871
 20
186.998589
 30
0.0
  0
SPLINE
  5
12c
100
AcDbEntity
  8
WS2812B_4x4_32mil
 62
7
100
AcDbSpline
 70
8
 71
3
 72
8
 73
4
 74
0
 40
0
 40
0
 40
0
 40
0
 40
1
 40
1
 40
1
 40
1
 10
74.207871
 20
186.998589
 30
0.0
 10
74.202138
 20
186.996476
 30
0.0
 10
74.196452
 20
186.994236
 30
0.0
 10
74.190818
 20
186.991871
 30
0.0
  0
SPLINE
  5
12d
100
AcDbEntity
  8
WS2812B_4x4_32mil
 62
7
100
AcDbSpline
 70
8
 71
3
 72
8
 73
4
 74
0
 40
0
 40
0
 40
0
 40
0
 40
1
 40
1
 40
1
 40
1
 10
74.190818
 20
186.991871
 30
0.0
 10
74.190646
 20
186.991699
 30
0.0
 10
74.190474
 20
186.991527
 30
0.0
 10
74.190303
 20
186.991355
 30
0.0
  0
SPLINE
  5
12e
100
AcDbEntity
  8
WS2812B_4x4_32mil
 62
7
100
AcDbSpline
 70
8
 71
3
 72
8
 73
4
 74
0
 40
0
 40
0
 40
0
 40
0
 40
1
 40
1
 40
1
 40
1
 10
74.190303
 20
186.991355
 30
0.0
 10
74.124477
 20
186.963118
 30
0.0
 10
74.067132
 20
186.918240
 30
0.0
 10
74.023903
 20
186.861130
 30
0.0
  0
LWPOLYLINE
  5
12f
100
AcDbEntity
  8
WS2812B_4x4_32mil
 62
7
100
AcDbPolyline
 90
2
 70
0
 10
92.712686
 20
187.024944
 30
0.0
 10
74.419228
 20
187.024944
 30
0.0
  0
SPLINE
  5
130
100
AcDbEntity
  8
WS2812B_4x4_32mil
 62
7
100
AcDbSpline
 70
8
 71
3
 72
8
 73
4
 74
0
 40
0
 40
0
 40
0
 40
0
 40
1
 40
1
 40
1
 40
1
 10
71.081964
 20
183.919707
 30
0.0
 10
71.015421
 20
183.868987
 30
0.0
 10
70.965862
 20
183.799243
 30
0.0
 10
70.939854
 20
183.719719
 30
0.0
  0
SPLINE
  5
131
100
AcDbEntity
  8
WS2812B_4x4_32mil
 62
7
100
AcDbSpline
 70
8
 71
3
 72
8
 73
4
 74
0
 40
0
 40
0
 40
0
 40
0
 40
1
 40
1
 40
1
 40
1
 10
70.939854
 20
183.719719
 30
0.0
 10
70.918635
 20
183.660149
 30
0.0
 10
70.911386
 20
183.596501
 30
0.0
 10
70.918666
 20
183.533685
 30
0.0
  0
LWPOLYLINE
  5
132
100
AcDbEntity
  8
WS2812B_4x4_32mil
 62
7
100
AcDbPolyline
 90
2
 70
0
 10
74.023903
 20
186.861130
 30
0.0
 10
71.081964
 20
183.919707
 30
0.0
  0
SPLINE
  5
133
100
AcDbEntity
  8
WS2812B_4x4_32mil
 62
7
100
AcDbSpline
 70
8
 71
3
 72
8
 73
4
 74
0
 40
0
 40
0
 40
0
 40
0
 40
1
 40
1
 40
1
 40
1
 10
70.918666
 20
179.706011
 30
0.0
 10
70.909279
 20
179.633947
 30
0.0
 10
70.919083
 20
179.560682
 30
0.0
 10
70.947088
 20
179.493622
 30
0.0
  0
SPLINE
  5
134
100
AcDbEntity
  8
WS2812B_4x4_32mil
 62
7
100
AcDbSpline
 70
8
 71
3
 72
8
 73
4
 74
0
 40
0
 40
0
 40
0
 40
0
 40
1
 40
1
 40
1
 40
1
 10
70.947088
 20
179.493622
 30
0.0
 10
70.948577
 20
179.489636
 30
0.0
 10
70.950127
 20
179.485673
 30
0.0
 10
70.951739
 20
179.481734
 30
0.0
  0
SPLINE
  5
135
100
AcDbEntity
  8
WS2812B_4x4_32mil
 62
7
100
AcDbSpline
 70
8
 71
3
 72
8
 73
4
 74
0
 40
0
 40
0
 40
0
 40
0
 40
1
 40
1
 40
1
 40
1
 10
70.951739
 20
179.481734
 30
0.0
 10
70.952081
 20
179.480872
 30
0.0
 10
70.952426
 20
179.480012
 30
0.0
 10
70.952774
 20
179.479152
 30
0.0
  0
SPLINE
  5
136
100
AcDbEntity
  8
WS2812B_4x4_32mil
 62
7
100
AcDbSpline
 70
8
 71
3
 72
8
 73
4
 74
0
 40
0
 40
0
 40
0
 40
0
 40
1
 40
1
 40
1
 40
1
 10
70.952774
 20
179.479152
 30
0.0
 10
70.980740
 20
179.414750
 30
0.0
 10
71.024672
 20
179.358545
 30
0.0
 10
71.080414
 20
179.315854
 30
0.0
  0
LWPOLYLINE
  5
137
100
AcDbEntity
  8
WS2812B_4x4_32mil
 62
7
100
AcDbPolyline
 90
2
 70
0
 10
70.918666
 20
183.533685
 30
0.0
 10
70.918666
 20
179.706011
 30
0.0
  0
SPLINE
  5
138
100
AcDbEntity
  8
WS2812B_4x4_32mil
 62
7
100
AcDbSpline
 70
8
 71
3
 72
8
 73
4
 74
0
 40
0
 40
0
 40
0
 40
0
 40
1
 40
1
 40
1
 40
1
 10
69.792121
 20
172.977223
 30
0.0
 10
69.735810
 20
172.934724
 30
0.0
 10
69.691332
 20
172.878503
 30
0.0
 10
69.662930
 20
172.813925
 30
0.0
  0
SPLINE
  5
139
100
AcDbEntity
  8
WS2812B_4x4_32mil
 62
7
100
AcDbSpline
 70
8
 71
3
 72
8
 73
4
 74
0
 40
0
 40
0
 40
0
 40
0
 40
1
 40
1
 40
1
 40
1
 10
69.662930
 20
172.813925
 30
0.0
 10
69.628311
 20
172.740538
 30
0.0
 10
69.616089
 20
172.658576
 30
0.0
 10
69.627791
 20
172.578282
 30
0.0
  0
LWPOLYLINE
  5
13a
100
AcDbEntity
  8
WS2812B_4x4_32mil
 62
7
100
AcDbPolyline
 90
6
 70
0
 10
71.080414
 20
179.315854
 30
0.0
 10
72.929912
 20
177.466871
 30
0.0
 10
72.929912
 20
176.748570
 30
0.0
 10
72.834313
 20
176.748570
 30
0.0
 10
72.834313
 20
176.000294
 30
0.0
 10
69.792121
 20
172.977223
 30
0.0
  0
SPLINE
  5
13b
100
AcDbEntity
  8
WS2812B_4x4_32mil
 62
7
100
AcDbSpline
 70
8
 71
3
 72
8
 73
4
 74
0
 40
0
 40
0
 40
0
 40
0
 40
1
 40
1
 40
1
 40
1
 10
69.627791
 20
155.967410
 30
0.0
 10
69.623801
 20
155.934457
 30
0.0
 10
69.623801
 20
155.901144
 30
0.0
 10
69.627791
 20
155.868191
 30
0.0
  0
LWPOLYLINE
  5
13c
100
AcDbEntity
  8
WS2812B_4x4_32mil
 62
7
100
AcDbPolyline
 90
2
 70
0
 10
69.627791
 20
172.578282
 30
0.0
 10
69.627791
 20
155.967410
 30
0.0
  0
SPLINE
  5
13d
100
AcDbEntity
  8
WS2812B_4x4_32mil
 62
7
100
AcDbSpline
 70
8
 71
3
 72
8
 73
4
 74
0
 40
0
 40
0
 40
0
 40
0
 40
1
 40
1
 40
1
 40
1
 10
69.627791
 20
136.084385
 30
0.0
 10
69.622451
 20
136.046332
 30
0.0
 10
69.622451
 20
136.007719
 30
0.0
 10
69.627791
 20
135.969665
 30
0.0
  0
LWPOLYLINE
  5
13e
100
AcDbEntity
  8
WS2812B_4x4_32mil
 62
7
100
AcDbPolyline
 90
2
 70
0
 10
69.627791
 20
155.868191
 30
0.0
 10
69.627791
 20
136.084385
 30
0.0
  0
SPLINE
  5
13f
100
AcDbEntity
  8
WS2812B_4x4_32mil
 62
7
100
AcDbSpline
 70
8
 71
3
 72
8
 73
4
 74
0
 40
0
 40
0
 40
0
 40
0
 40
1
 40
1
 40
1
 40
1
 10
69.627791
 20
119.320550
 30
0.0
 10
69.616626
 20
119.239884
 30
0.0
 10
69.629571
 20
119.157717
 30
0.0
 10
69.664996
 20
119.084391
 30
0.0
  0
SPLINE
  5
140
100
AcDbEntity
  8
WS2812B_4x4_32mil
 62
7
100
AcDbSpline
 70
8
 71
3
 72
8
 73
4
 74
0
 40
0
 40
0
 40
0
 40
0
 40
1
 40
1
 40
1
 40
1
 10
69.664996
 20
119.084391
 30
0.0
 10
69.693118
 20
119.022098
 30
0.0
 10
69.736267
 20
118.967762
 30
0.0
 10
69.790570
 20
118.926260
 30
0.0
  0
LWPOLYLINE
  5
141
100
AcDbEntity
  8
WS2812B_4x4_32mil
 62
7
100
AcDbPolyline
 90
2
 70
0
 10
69.627791
 20
135.969665
 30
0.0
 10
69.627791
 20
119.320550
 30
0.0
  0
SPLINE
  5
142
100
AcDbEntity
  8
WS2812B_4x4_32mil
 62
7
100
AcDbSpline
 70
8
 71
3
 72
8
 73
4
 74
0
 40
0
 40
0
 40
0
 40
0
 40
1
 40
1
 40
1
 40
1
 10
63.878786
 20
107.078404
 30
0.0
 10
63.878786
 20
107.078404
 30
0.0
 10
60.279522
 20
107.078404
 30
0.0
 10
60.279522
 20
107.078404
 30
0.0
  0
SPLINE
  5
143
100
AcDbEntity
  8
WS2812B_4x4_32mil
 62
7
100
AcDbSpline
 70
8
 71
3
 72
8
 73
4
 74
0
 40
0
 40
0
 40
0
 40
0
 40
1
 40
1
 40
1
 40
1
 10
60.279522
 20
107.078404
 30
0.0
 10
60.256426
 20
107.081752
 30
0.0
 10
60.233089
 20
107.083135
 30
0.0
 10
60.209759
 20
107.082539
 30
0.0
  0
SPLINE
  5
144
100
AcDbEntity
  8
WS2812B_4x4_32mil
 62
7
100
AcDbSpline
 70
8
 71
3
 72
8
 73
4
 74
0
 40
0
 40
0
 40
0
 40
0
 40
1
 40
1
 40
1
 40
1
 10
60.209759
 20
107.082539
 30
0.0
 10
60.160197
 20
107.080778
 30
0.0
 10
60.111358
 20
107.070100
 30
0.0
 10
60.065582
 20
107.051017
 30
0.0
  0
SPLINE
  5
145
100
AcDbEntity
  8
WS2812B_4x4_32mil
 62
7
100
AcDbSpline
 70
8
 71
3
 72
8
 73
4
 74
0
 40
0
 40
0
 40
0
 40
0
 40
1
 40
1
 40
1
 40
1
 10
60.065582
 20
107.051017
 30
0.0
 10
60.060551
 20
107.049219
 30
0.0
 10
60.055555
 20
107.047323
 30
0.0
 10
60.050596
 20
107.045331
 30
0.0
  0
SPLINE
  5
146
100
AcDbEntity
  8
WS2812B_4x4_32mil
 62
7
100
AcDbSpline
 70
8
 71
3
 72
8
 73
4
 74
0
 40
0
 40
0
 40
0
 40
0
 40
1
 40
1
 40
1
 40
1
 10
60.050596
 20
107.045331
 30
0.0
 10
60.050424
 20
107.045159
 30
0.0
 10
60.050252
 20
107.044987
 30
0.0
 10
60.050081
 20
107.044815
 30
0.0
  0
SPLINE
  5
147
100
AcDbEntity
  8
WS2812B_4x4_32mil
 62
7
100
AcDbSpline
 70
8
 71
3
 72
8
 73
4
 74
0
 40
0
 40
0
 40
0
 40
0
 40
1
 40
1
 40
1
 40
1
 10
60.050081
 20
107.044815
 30
0.0
 10
60.049908
 20
107.044643
 30
0.0
 10
60.049735
 20
107.044471
 30
0.0
 10
60.049562
 20
107.044299
 30
0.0
  0
SPLINE
  5
148
100
AcDbEntity
  8
WS2812B_4x4_32mil
 62
7
100
AcDbSpline
 70
8
 71
3
 72
8
 73
4
 74
0
 40
0
 40
0
 40
0
 40
0
 40
1
 40
1
 40
1
 40
1
 10
60.049562
 20
107.044299
 30
0.0
 10
59.984173
 20
107.016054
 30
0.0
 10
59.927205
 20
106.971369
 30
0.0
 10
59.884197
 20
106.914590
 30
0.0
  0
LWPOLYLINE
  5
149
100
AcDbEntity
  8
WS2812B_4x4_32mil
 62
7
100
AcDbPolyline
 90
3
 70
0
 10
69.790570
 20
118.926260
 30
0.0
 10
72.758864
 20
115.957966
 30
0.0
 10
63.878786
 20
107.078404
 30
0.0
  0
SPLINE
  5
14a
100
AcDbEntity
  8
WS2812B_4x4_32mil
 62
7
100
AcDbSpline
 70
8
 71
3
 72
8
 73
4
 74
0
 40
0
 40
0
 40
0
 40
0
 40
1
 40
1
 40
1
 40
1
 10
60.390628
 20
106.253131
 30
0.0
 10
60.390628
 20
106.253131
 30
0.0
 10
63.999193
 20
106.253131
 30
0.0
 10
63.999193
 20
106.253131
 30
0.0
  0
SPLINE
  5
14b
100
AcDbEntity
  8
WS2812B_4x4_32mil
 62
7
100
AcDbSpline
 70
8
 71
3
 72
8
 73
4
 74
0
 40
0
 40
0
 40
0
 40
0
 40
1
 40
1
 40
1
 40
1
 10
63.999193
 20
106.253131
 30
0.0
 10
64.066414
 20
106.245174
 30
0.0
 10
64.134561
 20
106.253869
 30
0.0
 10
64.197631
 20
106.278452
 30
0.0
  0
SPLINE
  5
14c
100
AcDbEntity
  8
WS2812B_4x4_32mil
 62
7
100
AcDbSpline
 70
8
 71
3
 72
8
 73
4
 74
0
 40
0
 40
0
 40
0
 40
0
 40
1
 40
1
 40
1
 40
1
 10
64.197631
 20
106.278452
 30
0.0
 10
64.271664
 20
106.305521
 30
0.0
 10
64.336399
 20
106.353221
 30
0.0
 10
64.384183
 20
106.415914
 30
0.0
  0
LWPOLYLINE
  5
14d
100
AcDbEntity
  8
WS2812B_4x4_32mil
 62
7
100
AcDbPolyline
 90
8
 70
0
 10
59.884197
 20
106.914590
 30
0.0
 10
57.005822
 20
104.020194
 30
0.0
 10
56.832705
 20
104.189175
 30
0.0
 10
55.033332
 20
102.390318
 30
0.0
 10
55.943353
 20
101.500966
 30
0.0
 10
57.742726
 20
103.300342
 30
0.0
 10
57.596483
 20
103.443484
 30
0.0
 10
60.390628
 20
106.253131
 30
0.0
  0
SPLINE
  5
14e
100
AcDbEntity
  8
WS2812B_4x4_32mil
 62
7
100
AcDbSpline
 70
8
 71
3
 72
8
 73
4
 74
0
 40
0
 40
0
 40
0
 40
0
 40
1
 40
1
 40
1
 40
1
 10
73.755187
 20
176.748570
 30
0.0
 10
73.755187
 20
176.748570
 30
0.0
 10
73.755187
 20
177.586243
 30
0.0
 10
73.755187
 20
177.586243
 30
0.0
  0
SPLINE
  5
14f
100
AcDbEntity
  8
WS2812B_4x4_32mil
 62
7
100
AcDbSpline
 70
8
 71
3
 72
8
 73
4
 74
0
 40
0
 40
0
 40
0
 40
0
 40
1
 40
1
 40
1
 40
1
 10
73.755187
 20
177.586243
 30
0.0
 10
73.763137
 20
177.653083
 30
0.0
 10
73.754622
 20
177.720852
 30
0.0
 10
73.730383
 20
177.783646
 30
0.0
  0
SPLINE
  5
150
100
AcDbEntity
  8
WS2812B_4x4_32mil
 62
7
100
AcDbSpline
 70
8
 71
3
 72
8
 73
4
 74
0
 40
0
 40
0
 40
0
 40
0
 40
1
 40
1
 40
1
 40
1
 10
73.730383
 20
177.783646
 30
0.0
 10
73.703184
 20
177.858881
 30
0.0
 10
73.654709
 20
177.924590
 30
0.0
 10
73.590855
 20
177.972784
 30
0.0
  0
LWPOLYLINE
  5
151
100
AcDbEntity
  8
WS2812B_4x4_32mil
 62
7
100
AcDbPolyline
 90
27
 70
0
 10
64.384183
 20
106.415914
 30
0.0
 10
73.100963
 20
115.132693
 30
0.0
 10
73.850271
 20
115.132693
 30
0.0
 10
73.850271
 20
116.783754
 30
0.0
 10
73.100447
 20
116.783754
 30
0.0
 10
70.453063
 20
119.431138
 30
0.0
 10
70.453063
 20
135.526797
 30
0.0
 10
72.834313
 20
135.526797
 30
0.0
 10
72.834313
 20
135.113902
 30
0.0
 10
73.850271
 20
135.113902
 30
0.0
 10
73.850271
 20
136.764963
 30
0.0
 10
72.834313
 20
136.764963
 30
0.0
 10
72.834313
 20
136.352070
 30
0.0
 10
70.453063
 20
136.352070
 30
0.0
 10
70.453063
 20
155.529194
 30
0.0
 10
72.834313
 20
155.529194
 30
0.0
 10
72.834313
 20
155.116298
 30
0.0
 10
73.850271
 20
155.116298
 30
0.0
 10
73.850271
 20
156.767359
 30
0.0
 10
72.834313
 20
156.767359
 30
0.0
 10
72.834313
 20
156.354466
 30
0.0
 10
70.453063
 20
156.354466
 30
0.0
 10
70.453063
 20
172.470276
 30
0.0
 10
73.097346
 20
175.097507
 30
0.0
 10
73.850271
 20
175.097507
 30
0.0
 10
73.850271
 20
176.748570
 30
0.0
 10
73.755187
 20
176.748570
 30
0.0
  0
SPLINE
  5
152
100
AcDbEntity
  8
WS2812B_4x4_32mil
 62
7
100
AcDbSpline
 70
8
 71
3
 72
8
 73
4
 74
0
 40
0
 40
0
 40
0
 40
0
 40
1
 40
1
 40
1
 40
1
 10
94.943039
 20
183.878882
 30
0.0
 10
94.943039
 20
183.878882
 30
0.0
 10
94.943039
 20
182.330656
 30
0.0
 10
94.943039
 20
182.330656
 30
0.0
  0
SPLINE
  5
153
100
AcDbEntity
  8
WS2812B_4x4_32mil
 62
7
100
AcDbSpline
 70
8
 71
3
 72
8
 73
4
 74
0
 40
0
 40
0
 40
0
 40
0
 40
1
 40
1
 40
1
 40
1
 10
94.943039
 20
182.330656
 30
0.0
 10
94.933895
 20
182.260082
 30
0.0
 10
94.943153
 20
182.188342
 30
0.0
 10
94.969912
 20
182.122400
 30
0.0
  0
SPLINE
  5
154
100
AcDbEntity
  8
WS2812B_4x4_32mil
 62
7
100
AcDbSpline
 70
8
 71
3
 72
8
 73
4
 74
0
 40
0
 40
0
 40
0
 40
0
 40
1
 40
1
 40
1
 40
1
 10
94.969912
 20
182.122400
 30
0.0
 10
94.971072
 20
182.118940
 30
0.0
 10
94.972278
 20
182.115494
 30
0.0
 10
94.973529
 20
182.112066
 30
0.0
  0
SPLINE
  5
155
100
AcDbEntity
  8
WS2812B_4x4_32mil
 62
7
100
AcDbSpline
 70
8
 71
3
 72
8
 73
4
 74
0
 40
0
 40
0
 40
0
 40
0
 40
1
 40
1
 40
1
 40
1
 10
94.973529
 20
182.112066
 30
0.0
 10
94.974042
 20
182.111030
 30
0.0
 10
94.974559
 20
182.109996
 30
0.0
 10
94.975080
 20
182.108965
 30
0.0
  0
SPLINE
  5
156
100
AcDbEntity
  8
WS2812B_4x4_32mil
 62
7
100
AcDbSpline
 70
8
 71
3
 72
8
 73
4
 74
0
 40
0
 40
0
 40
0
 40
0
 40
1
 40
1
 40
1
 40
1
 10
94.975080
 20
182.108965
 30
0.0
 10
95.002440
 20
182.043060
 30
0.0
 10
95.046417
 20
181.985374
 30
0.0
 10
95.102720
 20
181.941534
 30
0.0
  0
LWPOLYLINE
  5
157
100
AcDbEntity
  8
WS2812B_4x4_32mil
 62
7
100
AcDbPolyline
 90
6
 70
0
 10
73.590855
 20
177.972784
 30
0.0
 10
71.744457
 20
179.819700
 30
0.0
 10
71.744457
 20
183.414829
 30
0.0
 10
74.529300
 20
186.199672
 30
0.0
 10
92.603648
 20
186.199672
 30
0.0
 10
94.943039
 20
183.878882
 30
0.0
  0
SPLINE
  5
158
100
AcDbEntity
  8
WS2812B_4x4_32mil
 62
7
100
AcDbSpline
 70
8
 71
3
 72
8
 73
4
 74
0
 40
0
 40
0
 40
0
 40
0
 40
1
 40
1
 40
1
 40
1
 10
98.438949
 20
160.672548
 30
0.0
 10
98.470539
 20
160.668885
 30
0.0
 10
98.502445
 20
160.668885
 30
0.0
 10
98.534035
 20
160.672548
 30
0.0
  0
LWPOLYLINE
  5
159
100
AcDbEntity
  8
WS2812B_4x4_32mil
 62
7
100
AcDbPolyline
 90
15
 70
0
 10
95.102720
 20
181.941534
 30
0.0
 10
96.012225
 20
181.016008
 30
0.0
 10
96.012225
 20
180.262565
 30
0.0
 10
97.028183
 20
180.262565
 30
0.0
 10
97.028183
 20
180.674944
 30
0.0
 10
107.990823
 20
180.674944
 30
0.0
 10
112.742469
 20
175.923295
 30
0.0
 10
98.317511
 20
161.498336
 30
0.0
 10
97.028183
 20
161.498336
 30
0.0
 10
97.028183
 20
161.910716
 30
0.0
 10
96.012225
 20
161.910716
 30
0.0
 10
96.012225
 20
160.259652
 30
0.0
 10
97.028183
 20
160.259652
 30
0.0
 10
97.028183
 20
160.672548
 30
0.0
 10
98.438949
 20
160.672548
 30
0.0
  0
SPLINE
  5
15a
100
AcDbEntity
  8
WS2812B_4x4_32mil
 62
7
100
AcDbSpline
 70
8
 71
3
 72
8
 73
4
 74
0
 40
0
 40
0
 40
0
 40
0
 40
1
 40
1
 40
1
 40
1
 10
98.436883
 20
140.691339
 30
0.0
 10
98.469154
 20
140.687515
 30
0.0
 10
98.501764
 20
140.687515
 30
0.0
 10
98.534035
 20
140.691339
 30
0.0
  0
LWPOLYLINE
  5
15b
100
AcDbEntity
  8
WS2812B_4x4_32mil
 62
7
100
AcDbPolyline
 90
11
 70
0
 10
98.534035
 20
160.672548
 30
0.0
 10
107.991338
 20
160.672548
 30
0.0
 10
112.741953
 20
155.941055
 30
0.0
 10
98.317511
 20
141.516612
 30
0.0
 10
97.028183
 20
141.516612
 30
0.0
 10
97.028183
 20
141.929507
 30
0.0
 10
96.012225
 20
141.929507
 30
0.0
 10
96.012225
 20
140.278444
 30
0.0
 10
97.028183
 20
140.278444
 30
0.0
 10
97.028183
 20
140.691339
 30
0.0
 10
98.436883
 20
140.691339
 30
0.0
  0
SPLINE
  5
15c
100
AcDbEntity
  8
WS2812B_4x4_32mil
 62
7
100
AcDbSpline
 70
8
 71
3
 72
8
 73
4
 74
0
 40
0
 40
0
 40
0
 40
0
 40
1
 40
1
 40
1
 40
1
 10
98.436883
 20
120.688943
 30
0.0
 10
98.471027
 20
120.684657
 30
0.0
 10
98.505574
 20
120.684657
 30
0.0
 10
98.539718
 20
120.688943
 30
0.0
  0
LWPOLYLINE
  5
15d
100
AcDbEntity
  8
WS2812B_4x4_32mil
 62
7
100
AcDbPolyline
 90
11
 70
0
 10
98.534035
 20
140.691339
 30
0.0
 10
107.990823
 20
140.691339
 30
0.0
 10
112.742469
 20
135.939690
 30
0.0
 10
98.317511
 20
121.514216
 30
0.0
 10
97.028183
 20
121.514216
 30
0.0
 10
97.028183
 20
121.927111
 30
0.0
 10
96.012225
 20
121.927111
 30
0.0
 10
96.012225
 20
120.276048
 30
0.0
 10
97.028183
 20
120.276048
 30
0.0
 10
97.028183
 20
120.688943
 30
0.0
 10
98.436883
 20
120.688943
 30
0.0
  0
SPLINE
  5
15e
100
AcDbEntity
  8
WS2812B_4x4_32mil
 62
7
100
AcDbSpline
 70
8
 71
3
 72
8
 73
4
 74
0
 40
0
 40
0
 40
0
 40
0
 40
1
 40
1
 40
1
 40
1
 10
113.081983
 20
116.783754
 30
0.0
 10
113.081983
 20
116.783754
 30
0.0
 10
108.494666
 20
121.351952
 30
0.0
 10
108.494666
 20
121.351952
 30
0.0
  0
SPLINE
  5
15f
100
AcDbEntity
  8
WS2812B_4x4_32mil
 62
7
100
AcDbSpline
 70
8
 71
3
 72
8
 73
4
 74
0
 40
0
 40
0
 40
0
 40
0
 40
1
 40
1
 40
1
 40
1
 10
108.494666
 20
121.351952
 30
0.0
 10
108.450943
 20
121.409084
 30
0.0
 10
108.393048
 20
121.453797
 30
0.0
 10
108.326719
 20
121.481659
 30
0.0
  0
SPLINE
  5
160
100
AcDbEntity
  8
WS2812B_4x4_32mil
 62
7
100
AcDbSpline
 70
8
 71
3
 72
8
 73
4
 74
0
 40
0
 40
0
 40
0
 40
0
 40
1
 40
1
 40
1
 40
1
 10
108.326719
 20
121.481659
 30
0.0
 10
108.273296
 20
121.505825
 30
0.0
 10
108.215338
 20
121.518332
 30
0.0
 10
108.156703
 20
121.518348
 30
0.0
  0
SPLINE
  5
161
100
AcDbEntity
  8
WS2812B_4x4_32mil
 62
7
100
AcDbSpline
 70
8
 71
3
 72
8
 73
4
 74
0
 40
0
 40
0
 40
0
 40
0
 40
1
 40
1
 40
1
 40
1
 10
108.156703
 20
121.518348
 30
0.0
 10
108.138373
 20
121.518189
 30
0.0
 10
108.120073
 20
121.516808
 30
0.0
 10
108.101926
 20
121.514216
 30
0.0
  0
LWPOLYLINE
  5
162
100
AcDbEntity
  8
WS2812B_4x4_32mil
 62
7
100
AcDbPolyline
 90
7
 70
0
 10
98.539718
 20
120.688943
 30
0.0
 10
107.991338
 20
120.688943
 30
0.0
 10
112.818434
 20
115.880967
 30
0.0
 10
112.818434
 20
115.132693
 30
0.0
 10
113.834391
 20
115.132693
 30
0.0
 10
113.834391
 20
116.783754
 30
0.0
 10
113.081983
 20
116.783754
 30
0.0
  0
SPLINE
  5
163
100
AcDbEntity
  8
WS2812B_4x4_32mil
 62
7
100
AcDbSpline
 70
8
 71
3
 72
8
 73
4
 74
0
 40
0
 40
0
 40
0
 40
0
 40
1
 40
1
 40
1
 40
1
 10
113.084567
 20
136.764963
 30
0.0
 10
113.084567
 20
136.764963
 30
0.0
 10
108.496735
 20
141.352279
 30
0.0
 10
108.496735
 20
141.352279
 30
0.0
  0
SPLINE
  5
164
100
AcDbEntity
  8
WS2812B_4x4_32mil
 62
7
100
AcDbSpline
 70
8
 71
3
 72
8
 73
4
 74
0
 40
0
 40
0
 40
0
 40
0
 40
1
 40
1
 40
1
 40
1
 10
108.496735
 20
141.352279
 30
0.0
 10
108.453649
 20
141.409318
 30
0.0
 10
108.396489
 20
141.454191
 30
0.0
 10
108.330852
 20
141.482504
 30
0.0
  0
SPLINE
  5
165
100
AcDbEntity
  8
WS2812B_4x4_32mil
 62
7
100
AcDbSpline
 70
8
 71
3
 72
8
 73
4
 74
0
 40
0
 40
0
 40
0
 40
0
 40
1
 40
1
 40
1
 40
1
 10
108.330852
 20
141.482504
 30
0.0
 10
108.276439
 20
141.507712
 30
0.0
 10
108.217187
 20
141.520761
 30
0.0
 10
108.157219
 20
141.520745
 30
0.0
  0
SPLINE
  5
166
100
AcDbEntity
  8
WS2812B_4x4_32mil
 62
7
100
AcDbSpline
 70
8
 71
3
 72
8
 73
4
 74
0
 40
0
 40
0
 40
0
 40
0
 40
1
 40
1
 40
1
 40
1
 10
108.157219
 20
141.520745
 30
0.0
 10
108.139061
 20
141.520562
 30
0.0
 10
108.120935
 20
141.519181
 30
0.0
 10
108.102958
 20
141.516612
 30
0.0
  0
LWPOLYLINE
  5
167
100
AcDbEntity
  8
WS2812B_4x4_32mil
 62
7
100
AcDbPolyline
 90
6
 70
0
 10
108.101926
 20
121.514216
 30
0.0
 10
99.484881
 20
121.514216
 30
0.0
 10
113.084567
 20
135.113902
 30
0.0
 10
113.834391
 20
135.113902
 30
0.0
 10
113.834391
 20
136.764963
 30
0.0
 10
113.084567
 20
136.764963
 30
0.0
  0
SPLINE
  5
168
100
AcDbEntity
  8
WS2812B_4x4_32mil
 62
7
100
AcDbSpline
 70
8
 71
3
 72
8
 73
4
 74
0
 40
0
 40
0
 40
0
 40
0
 40
1
 40
1
 40
1
 40
1
 10
113.082501
 20
156.767359
 30
0.0
 10
113.082501
 20
156.767359
 30
0.0
 10
108.494666
 20
161.336073
 30
0.0
 10
108.494666
 20
161.336073
 30
0.0
  0
SPLINE
  5
169
100
AcDbEntity
  8
WS2812B_4x4_32mil
 62
7
100
AcDbSpline
 70
8
 71
3
 72
8
 73
4
 74
0
 40
0
 40
0
 40
0
 40
0
 40
1
 40
1
 40
1
 40
1
 10
108.494666
 20
161.336073
 30
0.0
 10
108.448920
 20
161.396042
 30
0.0
 10
108.387618
 20
161.442332
 30
0.0
 10
108.317416
 20
161.469915
 30
0.0
  0
SPLINE
  5
16a
100
AcDbEntity
  8
WS2812B_4x4_32mil
 62
7
100
AcDbSpline
 70
8
 71
3
 72
8
 73
4
 74
0
 40
0
 40
0
 40
0
 40
0
 40
1
 40
1
 40
1
 40
1
 10
108.317416
 20
161.469915
 30
0.0
 10
108.315356
 20
161.470793
 30
0.0
 10
108.313289
 20
161.471655
 30
0.0
 10
108.311214
 20
161.472500
 30
0.0
  0
SPLINE
  5
16b
100
AcDbEntity
  8
WS2812B_4x4_32mil
 62
7
100
AcDbSpline
 70
8
 71
3
 72
8
 73
4
 74
0
 40
0
 40
0
 40
0
 40
0
 40
1
 40
1
 40
1
 40
1
 10
108.311214
 20
161.472500
 30
0.0
 10
108.309668
 20
161.473026
 30
0.0
 10
108.308118
 20
161.473543
 30
0.0
 10
108.306566
 20
161.474050
 30
0.0
  0
SPLINE
  5
16c
100
AcDbEntity
  8
WS2812B_4x4_32mil
 62
7
100
AcDbSpline
 70
8
 71
3
 72
8
 73
4
 74
0
 40
0
 40
0
 40
0
 40
0
 40
1
 40
1
 40
1
 40
1
 10
108.306566
 20
161.474050
 30
0.0
 10
108.258811
 20
161.492751
 30
0.0
 10
108.207989
 20
161.502390
 30
0.0
 10
108.156703
 20
161.502472
 30
0.0
  0
SPLINE
  5
16d
100
AcDbEntity
  8
WS2812B_4x4_32mil
 62
7
100
AcDbSpline
 70
8
 71
3
 72
8
 73
4
 74
0
 40
0
 40
0
 40
0
 40
0
 40
1
 40
1
 40
1
 40
1
 10
108.156703
 20
161.502472
 30
0.0
 10
108.138717
 20
161.502266
 30
0.0
 10
108.120764
 20
161.500884
 30
0.0
 10
108.102958
 20
161.498336
 30
0.0
  0
LWPOLYLINE
  5
16e
100
AcDbEntity
  8
WS2812B_4x4_32mil
 62
7
100
AcDbPolyline
 90
6
 70
0
 10
108.102958
 20
141.516612
 30
0.0
 10
99.484881
 20
141.516612
 30
0.0
 10
113.084567
 20
155.116298
 30
0.0
 10
113.834391
 20
155.116298
 30
0.0
 10
113.834391
 20
156.767359
 30
0.0
 10
113.082501
 20
156.767359
 30
0.0
  0
SPLINE
  5
16f
100
AcDbEntity
  8
WS2812B_4x4_32mil
 62
7
100
AcDbSpline
 70
8
 71
3
 72
8
 73
4
 74
0
 40
0
 40
0
 40
0
 40
0
 40
1
 40
1
 40
1
 40
1
 10
113.085083
 20
176.748570
 30
0.0
 10
113.085083
 20
176.748570
 30
0.0
 10
109.064658
 20
180.768996
 30
0.0
 10
109.064658
 20
180.768996
 30
0.0
  0
SPLINE
  5
170
100
AcDbEntity
  8
WS2812B_4x4_32mil
 62
7
100
AcDbSpline
 70
8
 71
3
 72
8
 73
4
 74
0
 40
0
 40
0
 40
0
 40
0
 40
1
 40
1
 40
1
 40
1
 10
109.064658
 20
180.768996
 30
0.0
 10
109.088896
 20
180.789171
 30
0.0
 10
109.110742
 20
180.812058
 30
0.0
 10
109.129769
 20
180.837208
 30
0.0
  0
LWPOLYLINE
  5
171
100
AcDbEntity
  8
WS2812B_4x4_32mil
 62
7
100
AcDbPolyline
 90
6
 70
0
 10
108.102958
 20
161.498336
 30
0.0
 10
99.485397
 20
161.498336
 30
0.0
 10
113.084567
 20
175.097507
 30
0.0
 10
113.834391
 20
175.097507
 30
0.0
 10
113.834391
 20
176.748570
 30
0.0
 10
113.085083
 20
176.748570
 30
0.0
  0
SPLINE
  5
172
100
AcDbEntity
  8
WS2812B_4x4_32mil
 62
7
100
AcDbSpline
 70
8
 71
3
 72
8
 73
4
 74
0
 40
0
 40
0
 40
0
 40
0
 40
1
 40
1
 40
1
 40
1
 10
134.905974
 20
182.334792
 30
0.0
 10
134.895676
 20
182.261421
 30
0.0
 10
134.905315
 20
182.186630
 30
0.0
 10
134.933880
 20
182.118267
 30
0.0
  0
SPLINE
  5
173
100
AcDbEntity
  8
WS2812B_4x4_32mil
 62
7
100
AcDbSpline
 70
8
 71
3
 72
8
 73
4
 74
0
 40
0
 40
0
 40
0
 40
0
 40
1
 40
1
 40
1
 40
1
 10
134.933880
 20
182.118267
 30
0.0
 10
134.935369
 20
182.114282
 30
0.0
 10
134.936920
 20
182.110320
 30
0.0
 10
134.938531
 20
182.106382
 30
0.0
  0
SPLINE
  5
174
100
AcDbEntity
  8
WS2812B_4x4_32mil
 62
7
100
AcDbSpline
 70
8
 71
3
 72
8
 73
4
 74
0
 40
0
 40
0
 40
0
 40
0
 40
1
 40
1
 40
1
 40
1
 10
134.938531
 20
182.106382
 30
0.0
 10
134.938872
 20
182.105520
 30
0.0
 10
134.939216
 20
182.104658
 30
0.0
 10
134.939563
 20
182.103797
 30
0.0
  0
SPLINE
  5
175
100
AcDbEntity
  8
WS2812B_4x4_32mil
 62
7
100
AcDbSpline
 70
8
 71
3
 72
8
 73
4
 74
0
 40
0
 40
0
 40
0
 40
0
 40
1
 40
1
 40
1
 40
1
 10
134.939563
 20
182.103797
 30
0.0
 10
134.967530
 20
182.039395
 30
0.0
 10
135.011461
 20
181.983191
 30
0.0
 10
135.067203
 20
181.940499
 30
0.0
  0
LWPOLYLINE
  5
176
100
AcDbEntity
  8
WS2812B_4x4_32mil
 62
7
100
AcDbPolyline
 90
5
 70
0
 10
109.129769
 20
180.837208
 30
0.0
 10
115.000212
 20
186.707650
 30
0.0
 10
131.972303
 20
186.707650
 30
0.0
 10
134.905974
 20
183.773980
 30
0.0
 10
134.905974
 20
182.334792
 30
0.0
  0
SPLINE
  5
177
100
AcDbEntity
  8
WS2812B_4x4_32mil
 62
7
100
AcDbSpline
 70
8
 71
3
 72
8
 73
4
 74
0
 40
0
 40
0
 40
0
 40
0
 40
1
 40
1
 40
1
 40
1
 10
136.090916
 20
119.531907
 30
0.0
 10
136.081063
 20
119.458997
 30
0.0
 10
136.090875
 20
119.384778
 30
0.0
 10
136.119337
 20
119.316933
 30
0.0
  0
SPLINE
  5
178
100
AcDbEntity
  8
WS2812B_4x4_32mil
 62
7
100
AcDbSpline
 70
8
 71
3
 72
8
 73
4
 74
0
 40
0
 40
0
 40
0
 40
0
 40
1
 40
1
 40
1
 40
1
 10
136.119337
 20
119.316933
 30
0.0
 10
136.121299
 20
119.311724
 30
0.0
 10
136.123366
 20
119.306556
 30
0.0
 10
136.125537
 20
119.301431
 30
0.0
  0
SPLINE
  5
179
100
AcDbEntity
  8
WS2812B_4x4_32mil
 62
7
100
AcDbSpline
 70
8
 71
3
 72
8
 73
4
 74
0
 40
0
 40
0
 40
0
 40
0
 40
1
 40
1
 40
1
 40
1
 10
136.125537
 20
119.301431
 30
0.0
 10
136.127048
 20
119.298311
 30
0.0
 10
136.128599
 20
119.295210
 30
0.0
 10
136.130188
 20
119.292128
 30
0.0
  0
SPLINE
  5
17a
100
AcDbEntity
  8
WS2812B_4x4_32mil
 62
7
100
AcDbSpline
 70
8
 71
3
 72
8
 73
4
 74
0
 40
0
 40
0
 40
0
 40
0
 40
1
 40
1
 40
1
 40
1
 10
136.130188
 20
119.292128
 30
0.0
 10
136.159547
 20
119.229126
 30
0.0
 10
136.204340
 20
119.174556
 30
0.0
 10
136.260413
 20
119.133482
 30
0.0
  0
LWPOLYLINE
  5
17b
100
AcDbEntity
  8
WS2812B_4x4_32mil
 62
7
100
AcDbPolyline
 90
27
 70
0
 10
135.067203
 20
181.940499
 30
0.0
 10
135.995830
 20
181.011875
 30
0.0
 10
135.995830
 20
180.262565
 30
0.0
 10
136.745138
 20
180.262565
 30
0.0
 10
140.387810
 20
176.619895
 30
0.0
 10
140.387810
 20
161.498336
 30
0.0
 10
137.011788
 20
161.498336
 30
0.0
 10
137.011788
 20
161.910716
 30
0.0
 10
135.995830
 20
161.910716
 30
0.0
 10
135.995830
 20
160.259652
 30
0.0
 10
137.011788
 20
160.259652
 30
0.0
 10
137.011788
 20
160.672548
 30
0.0
 10
140.387810
 20
160.672548
 30
0.0
 10
140.387810
 20
141.432379
 30
0.0
 10
137.011788
 20
141.432379
 30
0.0
 10
137.011788
 20
141.929507
 30
0.0
 10
135.995830
 20
141.929507
 30
0.0
 10
135.995830
 20
140.278444
 30
0.0
 10
137.011788
 20
140.278444
 30
0.0
 10
137.011788
 20
140.606591
 30
0.0
 10
140.387810
 20
140.606591
 30
0.0
 10
140.387810
 20
125.569265
 30
0.0
 10
136.745654
 20
121.927111
 30
0.0
 10
135.995830
 20
121.927111
 30
0.0
 10
135.995830
 20
120.276048
 30
0.0
 10
136.090916
 20
120.276048
 30
0.0
 10
136.090916
 20
119.531907
 30
0.0
  0
SPLINE
  5
17c
100
AcDbEntity
  8
WS2812B_4x4_32mil
 62
7
100
AcDbSpline
 70
8
 71
3
 72
8
 73
4
 74
0
 40
0
 40
0
 40
0
 40
0
 40
1
 40
1
 40
1
 40
1
 10
141.050819
 20
125.064903
 30
0.0
 10
141.110978
 20
125.110580
 30
0.0
 10
141.157452
 20
125.171889
 30
0.0
 10
141.185177
 20
125.242152
 30
0.0
  0
SPLINE
  5
17d
100
AcDbEntity
  8
WS2812B_4x4_32mil
 62
7
100
AcDbSpline
 70
8
 71
3
 72
8
 73
4
 74
0
 40
0
 40
0
 40
0
 40
0
 40
1
 40
1
 40
1
 40
1
 10
141.185177
 20
125.242152
 30
0.0
 10
141.186058
 20
125.244384
 30
0.0
 10
141.186920
 20
125.246623
 30
0.0
 10
141.187762
 20
125.248870
 30
0.0
  0
SPLINE
  5
17e
100
AcDbEntity
  8
WS2812B_4x4_32mil
 62
7
100
AcDbSpline
 70
8
 71
3
 72
8
 73
4
 74
0
 40
0
 40
0
 40
0
 40
0
 40
1
 40
1
 40
1
 40
1
 10
141.187762
 20
125.248870
 30
0.0
 10
141.188111
 20
125.250075
 30
0.0
 10
141.188455
 20
125.251282
 30
0.0
 10
141.188794
 20
125.252490
 30
0.0
  0
SPLINE
  5
17f
100
AcDbEntity
  8
WS2812B_4x4_32mil
 62
7
100
AcDbSpline
 70
8
 71
3
 72
8
 73
4
 74
0
 40
0
 40
0
 40
0
 40
0
 40
1
 40
1
 40
1
 40
1
 10
141.188794
 20
125.252490
 30
0.0
 10
141.214234
 20
125.317507
 30
0.0
 10
141.222769
 20
125.387914
 30
0.0
 10
141.213598
 20
125.457126
 30
0.0
  0
LWPOLYLINE
  5
180
100
AcDbEntity
  8
WS2812B_4x4_32mil
 62
7
100
AcDbPolyline
 90
12
 70
0
 10
136.260413
 20
119.133482
 30
0.0
 10
152.258402
 20
103.802635
 30
0.0
 10
152.092521
 20
103.632619
 30
0.0
 10
153.891378
 20
101.833764
 30
0.0
 10
154.780730
 20
102.743785
 30
0.0
 10
152.981357
 20
104.543158
 30
0.0
 10
152.834595
 20
104.393296
 30
0.0
 10
136.916704
 20
119.647662
 30
0.0
 10
136.916704
 20
120.276048
 30
0.0
 10
137.011788
 20
120.276048
 30
0.0
 10
137.011788
 20
121.025874
 30
0.0
 10
141.050819
 20
125.064903
 30
0.0
  0
SPLINE
  5
181
100
AcDbEntity
  8
WS2812B_4x4_32mil
 62
7
100
AcDbSpline
 70
8
 71
3
 72
8
 73
4
 74
0
 40
0
 40
0
 40
0
 40
0
 40
1
 40
1
 40
1
 40
1
 10
141.213598
 20
140.954888
 30
0.0
 10
141.220544
 20
140.998192
 30
0.0
 10
141.220544
 20
141.042326
 30
0.0
 10
141.213598
 20
141.085629
 30
0.0
  0
LWPOLYLINE
  5
182
100
AcDbEntity
  8
WS2812B_4x4_32mil
 62
7
100
AcDbPolyline
 90
2
 70
0
 10
141.213598
 20
125.457126
 30
0.0
 10
141.213598
 20
140.954888
 30
0.0
  0
SPLINE
  5
183
100
AcDbEntity
  8
WS2812B_4x4_32mil
 62
7
100
AcDbSpline
 70
8
 71
3
 72
8
 73
4
 74
0
 40
0
 40
0
 40
0
 40
0
 40
1
 40
1
 40
1
 40
1
 10
141.213598
 20
160.866850
 30
0.0
 10
141.217261
 20
160.898439
 30
0.0
 10
141.217261
 20
160.930346
 30
0.0
 10
141.213598
 20
160.961936
 30
0.0
  0
SPLINE
  5
184
100
AcDbEntity
  8
WS2812B_4x4_32mil
 62
7
100
AcDbSpline
 70
8
 71
3
 72
8
 73
4
 74
0
 40
0
 40
0
 40
0
 40
0
 40
1
 40
1
 40
1
 40
1
 10
141.213598
 20
160.961936
 30
0.0
 10
141.213598
 20
160.961936
 30
0.0
 10
141.213598
 20
176.741850
 30
0.0
 10
141.213598
 20
176.741850
 30
0.0
  0
SPLINE
  5
185
100
AcDbEntity
  8
WS2812B_4x4_32mil
 62
7
100
AcDbSpline
 70
8
 71
3
 72
8
 73
4
 74
0
 40
0
 40
0
 40
0
 40
0
 40
1
 40
1
 40
1
 40
1
 10
141.213598
 20
176.741850
 30
0.0
 10
141.220787
 20
176.806778
 30
0.0
 10
141.212464
 20
176.872485
 30
0.0
 10
141.189312
 20
176.933569
 30
0.0
  0
SPLINE
  5
186
100
AcDbEntity
  8
WS2812B_4x4_32mil
 62
7
100
AcDbSpline
 70
8
 71
3
 72
8
 73
4
 74
0
 40
0
 40
0
 40
0
 40
0
 40
1
 40
1
 40
1
 40
1
 10
141.189312
 20
176.933569
 30
0.0
 10
141.162800
 20
177.009175
 30
0.0
 10
141.114858
 20
177.075432
 30
0.0
 10
141.051335
 20
177.124257
 30
0.0
  0
LWPOLYLINE
  5
187
100
AcDbEntity
  8
WS2812B_4x4_32mil
 62
7
100
AcDbPolyline
 90
2
 70
0
 10
141.213598
 20
141.085629
 30
0.0
 10
141.213598
 20
160.866850
 30
0.0
  0
SPLINE
  5
188
100
AcDbEntity
  8
WS2812B_4x4_32mil
 62
7
100
AcDbSpline
 70
8
 71
3
 72
8
 73
4
 74
0
 40
0
 40
0
 40
0
 40
0
 40
1
 40
1
 40
1
 40
1
 10
135.731247
 20
182.444345
 30
0.0
 10
135.731247
 20
182.444345
 30
0.0
 10
135.731247
 20
183.893868
 30
0.0
 10
135.731247
 20
183.893868
 30
0.0
  0
SPLINE
  5
189
100
AcDbEntity
  8
WS2812B_4x4_32mil
 62
7
100
AcDbSpline
 70
8
 71
3
 72
8
 73
4
 74
0
 40
0
 40
0
 40
0
 40
0
 40
1
 40
1
 40
1
 40
1
 10
135.731247
 20
183.893868
 30
0.0
 10
135.739197
 20
183.960708
 30
0.0
 10
135.730681
 20
184.028478
 30
0.0
 10
135.706442
 20
184.091273
 30
0.0
  0
SPLINE
  5
18a
100
AcDbEntity
  8
WS2812B_4x4_32mil
 62
7
100
AcDbSpline
 70
8
 71
3
 72
8
 73
4
 74
0
 40
0
 40
0
 40
0
 40
0
 40
1
 40
1
 40
1
 40
1
 10
135.706442
 20
184.091273
 30
0.0
 10
135.679243
 20
184.166506
 30
0.0
 10
135.630770
 20
184.232215
 30
0.0
 10
135.566917
 20
184.280408
 30
0.0
  0
LWPOLYLINE
  5
18b
100
AcDbEntity
  8
WS2812B_4x4_32mil
 62
7
100
AcDbPolyline
 90
5
 70
0
 10
141.051335
 20
177.124257
 30
0.0
 10
137.011788
 20
181.163804
 30
0.0
 10
137.011788
 20
181.913628
 30
0.0
 10
136.261964
 20
181.913628
 30
0.0
 10
135.731247
 20
182.444345
 30
0.0
  0
SPLINE
  5
18c
100
AcDbEntity
  8
WS2812B_4x4_32mil
 62
7
100
AcDbSpline
 70
8
 71
3
 72
8
 73
4
 74
0
 40
0
 40
0
 40
0
 40
0
 40
1
 40
1
 40
1
 40
1
 10
132.478732
 20
187.368593
 30
0.0
 10
132.435646
 20
187.425631
 30
0.0
 10
132.378487
 20
187.470503
 30
0.0
 10
132.312851
 20
187.498815
 30
0.0
  0
SPLINE
  5
18d
100
AcDbEntity
  8
WS2812B_4x4_32mil
 62
7
100
AcDbSpline
 70
8
 71
3
 72
8
 73
4
 74
0
 40
0
 40
0
 40
0
 40
0
 40
1
 40
1
 40
1
 40
1
 10
132.312851
 20
187.498815
 30
0.0
 10
132.258439
 20
187.524024
 30
0.0
 10
132.199187
 20
187.537074
 30
0.0
 10
132.139218
 20
187.537058
 30
0.0
  0
SPLINE
  5
18e
100
AcDbEntity
  8
WS2812B_4x4_32mil
 62
7
100
AcDbSpline
 70
8
 71
3
 72
8
 73
4
 74
0
 40
0
 40
0
 40
0
 40
0
 40
1
 40
1
 40
1
 40
1
 10
132.139218
 20
187.537058
 30
0.0
 10
132.120370
 20
187.536967
 30
0.0
 10
132.101551
 20
187.535586
 30
0.0
 10
132.082891
 20
187.532923
 30
0.0
  0
LWPOLYLINE
  5
18f
100
AcDbEntity
  8
WS2812B_4x4_32mil
 62
7
100
AcDbPolyline
 90
2
 70
0
 10
135.566917
 20
184.280408
 30
0.0
 10
132.478732
 20
187.368593
 30
0.0
  0
SPLINE
  5
190
100
AcDbEntity
  8
WS2812B_4x4_32mil
 62
7
100
AcDbSpline
 70
8
 71
3
 72
8
 73
4
 74
0
 40
0
 40
0
 40
0
 40
0
 40
1
 40
1
 40
1
 40
1
 10
114.889626
 20
187.532923
 30
0.0
 10
114.866871
 20
187.536213
 30
0.0
 10
114.843881
 20
187.537596
 30
0.0
 10
114.820896
 20
187.537058
 30
0.0
  0
LWPOLYLINE
  5
191
100
AcDbEntity
  8
WS2812B_4x4_32mil
 62
7
100
AcDbPolyline
 90
2
 70
0
 10
132.082891
 20
187.532923
 30
0.0
 10
114.889626
 20
187.532923
 30
0.0
  0
SPLINE
  5
192
100
AcDbEntity
  8
WS2812B_4x4_32mil
 62
7
100
AcDbSpline
 70
8
 71
3
 72
8
 73
4
 74
0
 40
0
 40
0
 40
0
 40
0
 40
1
 40
1
 40
1
 40
1
 10
115.667872
 20
185.526328
 30
0.0
 10
115.619832
 20
185.524738
 30
0.0
 10
115.572438
 20
185.514770
 30
0.0
 10
115.527828
 20
185.496872
 30
0.0
  0
SPLINE
  5
193
100
AcDbEntity
  8
WS2812B_4x4_32mil
 62
7
100
AcDbSpline
 70
8
 71
3
 72
8
 73
4
 74
0
 40
0
 40
0
 40
0
 40
0
 40
1
 40
1
 40
1
 40
1
 10
115.527828
 20
185.496872
 30
0.0
 10
115.453161
 20
185.469411
 30
0.0
 10
115.388020
 20
185.420958
 30
0.0
 10
115.340244
 20
185.357344
 30
0.0
  0
SPLINE
  5
194
100
AcDbEntity
  8
WS2812B_4x4_32mil
 62
7
100
AcDbSpline
 70
8
 71
3
 72
8
 73
4
 74
0
 40
0
 40
0
 40
0
 40
0
 40
1
 40
1
 40
1
 40
1
 10
115.340244
 20
185.357344
 30
0.0
 10
115.340244
 20
185.357344
 30
0.0
 10
113.054595
 20
183.072215
 30
0.0
 10
113.054595
 20
183.072215
 30
0.0
  0
SPLINE
  5
195
100
AcDbEntity
  8
WS2812B_4x4_32mil
 62
7
100
AcDbSpline
 70
8
 71
3
 72
8
 73
4
 74
0
 40
0
 40
0
 40
0
 40
0
 40
1
 40
1
 40
1
 40
1
 10
113.054595
 20
183.072215
 30
0.0
 10
112.988520
 20
183.021482
 30
0.0
 10
112.939340
 20
182.951945
 30
0.0
 10
112.913520
 20
182.872743
 30
0.0
  0
SPLINE
  5
196
100
AcDbEntity
  8
WS2812B_4x4_32mil
 62
7
100
AcDbSpline
 70
8
 71
3
 72
8
 73
4
 74
0
 40
0
 40
0
 40
0
 40
0
 40
1
 40
1
 40
1
 40
1
 10
112.913520
 20
182.872743
 30
0.0
 10
112.892221
 20
182.813012
 30
0.0
 10
112.884971
 20
182.749176
 30
0.0
 10
112.892332
 20
182.686190
 30
0.0
  0
LWPOLYLINE
  5
197
100
AcDbEntity
  8
WS2812B_4x4_32mil
 62
7
100
AcDbPolyline
 90
1
 70
1
 10
114.820896
 20
187.537058
 30
0.0
  0
SPLINE
  5
198
100
AcDbEntity
  8
WS2812B_4x4_32mil
 62
7
100
AcDbSpline
 70
8
 71
3
 72
8
 73
4
 74
0
 40
0
 40
0
 40
0
 40
0
 40
1
 40
1
 40
1
 40
1
 10
133.720517
 20
183.037591
 30
0.0
 10
133.731057
 20
183.113055
 30
0.0
 10
133.720505
 20
183.189963
 30
0.0
 10
133.690029
 20
183.259799
 30
0.0
  0
SPLINE
  5
199
100
AcDbEntity
  8
WS2812B_4x4_32mil
 62
7
100
AcDbSpline
 70
8
 71
3
 72
8
 73
4
 74
0
 40
0
 40
0
 40
0
 40
0
 40
1
 40
1
 40
1
 40
1
 10
133.690029
 20
183.259799
 30
0.0
 10
133.689518
 20
183.261007
 30
0.0
 10
133.689001
 20
183.262213
 30
0.0
 10
133.688478
 20
183.263416
 30
0.0
  0
SPLINE
  5
19a
100
AcDbEntity
  8
WS2812B_4x4_32mil
 62
7
100
AcDbSpline
 70
8
 71
3
 72
8
 73
4
 74
0
 40
0
 40
0
 40
0
 40
0
 40
1
 40
1
 40
1
 40
1
 10
133.688478
 20
183.263416
 30
0.0
 10
133.687966
 20
183.264452
 30
0.0
 10
133.687449
 20
183.265485
 30
0.0
 10
133.686928
 20
183.266517
 30
0.0
  0
SPLINE
  5
19b
100
AcDbEntity
  8
WS2812B_4x4_32mil
 62
7
100
AcDbSpline
 70
8
 71
3
 72
8
 73
4
 74
0
 40
0
 40
0
 40
0
 40
0
 40
1
 40
1
 40
1
 40
1
 10
133.686928
 20
183.266517
 30
0.0
 10
133.659181
 20
183.331048
 30
0.0
 10
133.615426
 20
183.387432
 30
0.0
 10
133.559803
 20
183.430331
 30
0.0
  0
LWPOLYLINE
  5
19c
100
AcDbEntity
  8
WS2812B_4x4_32mil
 62
7
100
AcDbPolyline
 90
18
 70
0
 10
112.892332
 20
182.686190
 30
0.0
 10
112.892332
 20
181.913628
 30
0.0
 10
112.818434
 20
181.913628
 30
0.0
 10
112.818434
 20
180.262565
 30
0.0
 10
113.834391
 20
180.262565
 30
0.0
 10
113.834391
 20
181.913628
 30
0.0
 10
113.718120
 20
181.913628
 30
0.0
 10
113.718120
 20
182.567853
 30
0.0
 10
115.846672
 20
184.696920
 30
0.0
 10
131.145996
 20
184.696920
 30
0.0
 10
132.894728
 20
182.929070
 30
0.0
 10
132.894728
 20
181.913628
 30
0.0
 10
132.799642
 20
181.913628
 30
0.0
 10
132.799642
 20
180.262565
 30
0.0
 10
133.815602
 20
180.262565
 30
0.0
 10
133.815602
 20
181.913628
 30
0.0
 10
133.720517
 20
181.913628
 30
0.0
 10
133.720517
 20
183.037591
 30
0.0
  0
SPLINE
  5
19d
100
AcDbEntity
  8
WS2812B_4x4_32mil
 62
7
100
AcDbSpline
 70
8
 71
3
 72
8
 73
4
 74
0
 40
0
 40
0
 40
0
 40
0
 40
1
 40
1
 40
1
 40
1
 10
131.652943
 20
185.357863
 30
0.0
 10
131.610001
 20
185.414830
 30
0.0
 10
131.553027
 20
185.459697
 30
0.0
 10
131.487579
 20
185.488085
 30
0.0
  0
SPLINE
  5
19e
100
AcDbEntity
  8
WS2812B_4x4_32mil
 62
7
100
AcDbSpline
 70
8
 71
3
 72
8
 73
4
 74
0
 40
0
 40
0
 40
0
 40
0
 40
1
 40
1
 40
1
 40
1
 10
131.487579
 20
185.488085
 30
0.0
 10
131.433799
 20
185.513003
 30
0.0
 10
131.375284
 20
185.526046
 30
0.0
 10
131.316012
 20
185.526328
 30
0.0
  0
SPLINE
  5
19f
100
AcDbEntity
  8
WS2812B_4x4_32mil
 62
7
100
AcDbSpline
 70
8
 71
3
 72
8
 73
4
 74
0
 40
0
 40
0
 40
0
 40
0
 40
1
 40
1
 40
1
 40
1
 10
131.316012
 20
185.526328
 30
0.0
 10
131.296474
 20
185.526333
 30
0.0
 10
131.276961
 20
185.524951
 30
0.0
 10
131.257619
 20
185.522193
 30
0.0
  0
LWPOLYLINE
  5
1a0
100
AcDbEntity
  8
WS2812B_4x4_32mil
 62
7
100
AcDbPolyline
 90
2
 70
0
 10
133.559803
 20
183.430331
 30
0.0
 10
131.652943
 20
185.357863
 30
0.0
  0
SPLINE
  5
1a1
100
AcDbEntity
  8
WS2812B_4x4_32mil
 62
7
100
AcDbSpline
 70
8
 71
3
 72
8
 73
4
 74
0
 40
0
 40
0
 40
0
 40
0
 40
1
 40
1
 40
1
 40
1
 10
115.736603
 20
185.522193
 30
0.0
 10
115.713847
 20
185.525483
 30
0.0
 10
115.690857
 20
185.526866
 30
0.0
 10
115.667872
 20
185.526328
 30
0.0
  0
LWPOLYLINE
  5
1a2
100
AcDbEntity
  8
WS2812B_4x4_32mil
 62
7
100
AcDbPolyline
 90
2
 70
0
 10
131.257619
 20
185.522193
 30
0.0
 10
115.736603
 20
185.522193
 30
0.0
  0
SPLINE
  5
1a3
100
AcDbEntity
  8
WS2812B_4x4_32mil
 62
7
100
AcDbSpline
 70
8
 71
3
 72
8
 73
4
 74
0
 40
0
 40
0
 40
0
 40
0
 40
1
 40
1
 40
1
 40
1
 10
75.175772
 20
185.018347
 30
0.0
 10
75.126796
 20
185.016730
 30
0.0
 10
75.078500
 20
185.006407
 30
0.0
 10
75.033143
 20
184.987859
 30
0.0
  0
SPLINE
  5
1a4
100
AcDbEntity
  8
WS2812B_4x4_32mil
 62
7
100
AcDbSpline
 70
8
 71
3
 72
8
 73
4
 74
0
 40
0
 40
0
 40
0
 40
0
 40
1
 40
1
 40
1
 40
1
 10
75.033143
 20
184.987859
 30
0.0
 10
75.027762
 20
184.985903
 30
0.0
 10
75.022421
 20
184.983835
 30
0.0
 10
75.017125
 20
184.981657
 30
0.0
  0
SPLINE
  5
1a5
100
AcDbEntity
  8
WS2812B_4x4_32mil
 62
7
100
AcDbSpline
 70
8
 71
3
 72
8
 73
4
 74
0
 40
0
 40
0
 40
0
 40
0
 40
1
 40
1
 40
1
 40
1
 10
75.017125
 20
184.981657
 30
0.0
 10
75.016263
 20
184.981316
 30
0.0
 10
75.015401
 20
184.980972
 30
0.0
 10
75.014540
 20
184.980625
 30
0.0
  0
SPLINE
  5
1a6
100
AcDbEntity
  8
WS2812B_4x4_32mil
 62
7
100
AcDbSpline
 70
8
 71
3
 72
8
 73
4
 74
0
 40
0
 40
0
 40
0
 40
0
 40
1
 40
1
 40
1
 40
1
 10
75.014540
 20
184.980625
 30
0.0
 10
74.949339
 20
184.952304
 30
0.0
 10
74.892556
 20
184.907625
 30
0.0
 10
74.849692
 20
184.850916
 30
0.0
  0
LWPOLYLINE
  5
1a7
100
AcDbEntity
  8
WS2812B_4x4_32mil
 62
7
100
AcDbPolyline
 90
1
 70
1
 10
115.667872
 20
185.526328
 30
0.0
  0
SPLINE
  5
1a8
100
AcDbEntity
  8
WS2812B_4x4_32mil
 62
7
100
AcDbSpline
 70
8
 71
3
 72
8
 73
4
 74
0
 40
0
 40
0
 40
0
 40
0
 40
1
 40
1
 40
1
 40
1
 10
73.070991
 20
183.072215
 30
0.0
 10
73.012112
 20
183.027256
 30
0.0
 10
72.966417
 20
182.967282
 30
0.0
 10
72.938699
 20
182.898582
 30
0.0
  0
SPLINE
  5
1a9
100
AcDbEntity
  8
WS2812B_4x4_32mil
 62
7
100
AcDbSpline
 70
8
 71
3
 72
8
 73
4
 74
0
 40
0
 40
0
 40
0
 40
0
 40
1
 40
1
 40
1
 40
1
 10
72.938699
 20
182.898582
 30
0.0
 10
72.937639
 20
182.896008
 30
0.0
 10
72.936606
 20
182.893424
 30
0.0
 10
72.935598
 20
182.890830
 30
0.0
  0
SPLINE
  5
1aa
100
AcDbEntity
  8
WS2812B_4x4_32mil
 62
7
100
AcDbSpline
 70
8
 71
3
 72
8
 73
4
 74
0
 40
0
 40
0
 40
0
 40
0
 40
1
 40
1
 40
1
 40
1
 10
72.935598
 20
182.890830
 30
0.0
 10
72.934893
 20
182.888768
 30
0.0
 10
72.934204
 20
182.886700
 30
0.0
 10
72.933532
 20
182.884628
 30
0.0
  0
SPLINE
  5
1ab
100
AcDbEntity
  8
WS2812B_4x4_32mil
 62
7
100
AcDbSpline
 70
8
 71
3
 72
8
 73
4
 74
0
 40
0
 40
0
 40
0
 40
0
 40
1
 40
1
 40
1
 40
1
 10
72.933532
 20
182.884628
 30
0.0
 10
72.909124
 20
182.821515
 30
0.0
 10
72.900606
 20
182.753369
 30
0.0
 10
72.908727
 20
182.686190
 30
0.0
  0
LWPOLYLINE
  5
1ac
100
AcDbEntity
  8
WS2812B_4x4_32mil
 62
7
100
AcDbPolyline
 90
2
 70
0
 10
74.849692
 20
184.850916
 30
0.0
 10
73.070991
 20
183.072215
 30
0.0
  0
SPLINE
  5
1ad
100
AcDbEntity
  8
WS2812B_4x4_32mil
 62
7
100
AcDbSpline
 70
8
 71
3
 72
8
 73
4
 74
0
 40
0
 40
0
 40
0
 40
0
 40
1
 40
1
 40
1
 40
1
 10
93.736396
 20
181.913628
 30
0.0
 10
93.736396
 20
181.913628
 30
0.0
 10
93.736396
 20
183.150762
 30
0.0
 10
93.736396
 20
183.150762
 30
0.0
  0
SPLINE
  5
1ae
100
AcDbEntity
  8
WS2812B_4x4_32mil
 62
7
100
AcDbSpline
 70
8
 71
3
 72
8
 73
4
 74
0
 40
0
 40
0
 40
0
 40
0
 40
1
 40
1
 40
1
 40
1
 10
93.736396
 20
183.150762
 30
0.0
 10
93.744504
 20
183.217178
 30
0.0
 10
93.736345
 20
183.284570
 30
0.0
 10
93.712623
 20
183.347133
 30
0.0
  0
SPLINE
  5
1af
100
AcDbEntity
  8
WS2812B_4x4_32mil
 62
7
100
AcDbSpline
 70
8
 71
3
 72
8
 73
4
 74
0
 40
0
 40
0
 40
0
 40
0
 40
1
 40
1
 40
1
 40
1
 10
93.712623
 20
183.347133
 30
0.0
 10
93.685865
 20
183.423309
 30
0.0
 10
93.637355
 20
183.489966
 30
0.0
 10
93.573098
 20
183.538852
 30
0.0
  0
SPLINE
  5
1b0
100
AcDbEntity
  8
WS2812B_4x4_32mil
 62
7
100
AcDbSpline
 70
8
 71
3
 72
8
 73
4
 74
0
 40
0
 40
0
 40
0
 40
0
 40
1
 40
1
 40
1
 40
1
 10
93.573098
 20
183.538852
 30
0.0
 10
93.573098
 20
183.538852
 30
0.0
 10
92.261032
 20
184.851434
 30
0.0
 10
92.261032
 20
184.851434
 30
0.0
  0
SPLINE
  5
1b1
100
AcDbEntity
  8
WS2812B_4x4_32mil
 62
7
100
AcDbSpline
 70
8
 71
3
 72
8
 73
4
 74
0
 40
0
 40
0
 40
0
 40
0
 40
1
 40
1
 40
1
 40
1
 10
92.261032
 20
184.851434
 30
0.0
 10
92.214085
 20
184.913196
 30
0.0
 10
92.150684
 20
184.960477
 30
0.0
 10
92.078099
 20
184.987859
 30
0.0
  0
SPLINE
  5
1b2
100
AcDbEntity
  8
WS2812B_4x4_32mil
 62
7
100
AcDbSpline
 70
8
 71
3
 72
8
 73
4
 74
0
 40
0
 40
0
 40
0
 40
0
 40
1
 40
1
 40
1
 40
1
 10
92.078099
 20
184.987859
 30
0.0
 10
92.077582
 20
184.988032
 30
0.0
 10
92.077065
 20
184.988204
 30
0.0
 10
92.076548
 20
184.988375
 30
0.0
  0
SPLINE
  5
1b3
100
AcDbEntity
  8
WS2812B_4x4_32mil
 62
7
100
AcDbSpline
 70
8
 71
3
 72
8
 73
4
 74
0
 40
0
 40
0
 40
0
 40
0
 40
1
 40
1
 40
1
 40
1
 10
92.076548
 20
184.988375
 30
0.0
 10
92.076032
 20
184.988549
 30
0.0
 10
92.075515
 20
184.988722
 30
0.0
 10
92.074998
 20
184.988893
 30
0.0
  0
SPLINE
  5
1b4
100
AcDbEntity
  8
WS2812B_4x4_32mil
 62
7
100
AcDbSpline
 70
8
 71
3
 72
8
 73
4
 74
0
 40
0
 40
0
 40
0
 40
0
 40
1
 40
1
 40
1
 40
1
 10
92.074998
 20
184.988893
 30
0.0
 10
92.026503
 20
185.008265
 30
0.0
 10
91.974773
 20
185.018260
 30
0.0
 10
91.922553
 20
185.018347
 30
0.0
  0
SPLINE
  5
1b5
100
AcDbEntity
  8
WS2812B_4x4_32mil
 62
7
100
AcDbSpline
 70
8
 71
3
 72
8
 73
4
 74
0
 40
0
 40
0
 40
0
 40
0
 40
1
 40
1
 40
1
 40
1
 10
91.922553
 20
185.018347
 30
0.0
 10
91.904222
 20
185.018187
 30
0.0
 10
91.885923
 20
185.016806
 30
0.0
 10
91.867776
 20
185.014214
 30
0.0
  0
LWPOLYLINE
  5
1b6
100
AcDbEntity
  8
WS2812B_4x4_32mil
 62
7
100
AcDbPolyline
 90
17
 70
0
 10
72.908727
 20
182.686190
 30
0.0
 10
72.908727
 20
181.913628
 30
0.0
 10
72.834313
 20
181.913628
 30
0.0
 10
72.834313
 20
180.262565
 30
0.0
 10
73.850271
 20
180.262565
 30
0.0
 10
73.850271
 20
181.913628
 30
0.0
 10
73.733999
 20
181.913628
 30
0.0
 10
73.733999
 20
182.567853
 30
0.0
 10
75.355088
 20
184.188942
 30
0.0
 10
91.755638
 20
184.188942
 30
0.0
 10
92.911123
 20
183.033456
 30
0.0
 10
92.911123
 20
181.913628
 30
0.0
 10
92.816037
 20
181.913628
 30
0.0
 10
92.816037
 20
180.262565
 30
0.0
 10
93.831995
 20
180.262565
 30
0.0
 10
93.831995
 20
181.913628
 30
0.0
 10
93.736396
 20
181.913628
 30
0.0
  0
SPLINE
  5
1b7
100
AcDbEntity
  8
WS2812B_4x4_32mil
 62
7
100
AcDbSpline
 70
8
 71
3
 72
8
 73
4
 74
0
 40
0
 40
0
 40
0
 40
0
 40
1
 40
1
 40
1
 40
1
 10
75.244500
 20
185.014214
 30
0.0
 10
75.221746
 20
185.017503
 30
0.0
 10
75.198757
 20
185.018886
 30
0.0
 10
75.175772
 20
185.018347
 30
0.0
  0
LWPOLYLINE
  5
1b8
100
AcDbEntity
  8
WS2812B_4x4_32mil
 62
7
100
AcDbPolyline
 90
2
 70
0
 10
91.867776
 20
185.014214
 30
0.0
 10
75.244500
 20
185.014214
 30
0.0
  0
LWPOLYLINE
  5
1b9
100
AcDbEntity
  8
WS2812B_4x4_32mil
 62
7
100
AcDbPolyline
 90
1
 70
1
 10
75.175772
 20
185.018347
 30
0.0
  0
SPLINE
  5
1ba
100
AcDbEntity
  8
WS2812B_4x4_32mil
 62
7
100
AcDbSpline
 70
8
 71
3
 72
8
 73
4
 74
0
 40
0
 40
0
 40
0
 40
0
 40
1
 40
1
 40
1
 40
1
 10
78.436553
 20
160.672548
 30
0.0
 10
78.468142
 20
160.668885
 30
0.0
 10
78.500049
 20
160.668885
 30
0.0
 10
78.531639
 20
160.672548
 30
0.0
  0
LWPOLYLINE
  5
1bb
100
AcDbEntity
  8
WS2812B_4x4_32mil
 62
7
100
AcDbPolyline
 90
14
 70
0
 10
76.030501
 20
181.913628
 30
0.0
 10
76.030501
 20
180.262565
 30
0.0
 10
77.046458
 20
180.262565
 30
0.0
 10
77.046458
 20
180.674944
 30
0.0
 10
88.008580
 20
180.674944
 30
0.0
 10
92.740589
 20
175.923814
 30
0.0
 10
78.315114
 20
161.498336
 30
0.0
 10
77.046458
 20
161.498336
 30
0.0
 10
77.046458
 20
161.910716
 30
0.0
 10
76.030501
 20
161.910716
 30
0.0
 10
76.030501
 20
160.259652
 30
0.0
 10
77.046458
 20
160.259652
 30
0.0
 10
77.046458
 20
160.672548
 30
0.0
 10
78.436553
 20
160.672548
 30
0.0
  0
SPLINE
  5
1bc
100
AcDbEntity
  8
WS2812B_4x4_32mil
 62
7
100
AcDbSpline
 70
8
 71
3
 72
8
 73
4
 74
0
 40
0
 40
0
 40
0
 40
0
 40
1
 40
1
 40
1
 40
1
 10
78.434486
 20
140.691339
 30
0.0
 10
78.466758
 20
140.687515
 30
0.0
 10
78.499367
 20
140.687515
 30
0.0
 10
78.531639
 20
140.691339
 30
0.0
  0
LWPOLYLINE
  5
1bd
100
AcDbEntity
  8
WS2812B_4x4_32mil
 62
7
100
AcDbPolyline
 90
11
 70
0
 10
78.531639
 20
160.672548
 30
0.0
 10
88.009614
 20
160.672548
 30
0.0
 10
92.740589
 20
155.941571
 30
0.0
 10
78.315114
 20
141.516612
 30
0.0
 10
77.046458
 20
141.516612
 30
0.0
 10
77.046458
 20
141.929507
 30
0.0
 10
76.030501
 20
141.929507
 30
0.0
 10
76.030501
 20
140.278444
 30
0.0
 10
77.046458
 20
140.278444
 30
0.0
 10
77.046458
 20
140.691339
 30
0.0
 10
78.434486
 20
140.691339
 30
0.0
  0
SPLINE
  5
1be
100
AcDbEntity
  8
WS2812B_4x4_32mil
 62
7
100
AcDbSpline
 70
8
 71
3
 72
8
 73
4
 74
0
 40
0
 40
0
 40
0
 40
0
 40
1
 40
1
 40
1
 40
1
 10
65.699863
 20
102.252859
 30
0.0
 10
65.699863
 20
102.252859
 30
0.0
 10
61.081024
 20
102.252859
 30
0.0
 10
61.081024
 20
102.252859
 30
0.0
  0
SPLINE
  5
1bf
100
AcDbEntity
  8
WS2812B_4x4_32mil
 62
7
100
AcDbSpline
 70
8
 71
3
 72
8
 73
4
 74
0
 40
0
 40
0
 40
0
 40
0
 40
1
 40
1
 40
1
 40
1
 10
61.081024
 20
102.252859
 30
0.0
 10
61.059279
 20
102.255807
 30
0.0
 10
61.037334
 20
102.257016
 30
0.0
 10
61.015397
 20
102.256476
 30
0.0
  0
SPLINE
  5
1c0
100
AcDbEntity
  8
WS2812B_4x4_32mil
 62
7
100
AcDbSpline
 70
8
 71
3
 72
8
 73
4
 74
0
 40
0
 40
0
 40
0
 40
0
 40
1
 40
1
 40
1
 40
1
 10
61.015397
 20
102.256476
 30
0.0
 10
60.964929
 20
102.254862
 30
0.0
 10
60.915185
 20
102.244003
 30
0.0
 10
60.868635
 20
102.224437
 30
0.0
  0
SPLINE
  5
1c1
100
AcDbEntity
  8
WS2812B_4x4_32mil
 62
7
100
AcDbSpline
 70
8
 71
3
 72
8
 73
4
 74
0
 40
0
 40
0
 40
0
 40
0
 40
1
 40
1
 40
1
 40
1
 10
60.868635
 20
102.224437
 30
0.0
 10
60.864300
 20
102.222788
 30
0.0
 10
60.859993
 20
102.221065
 30
0.0
 10
60.855716
 20
102.219270
 30
0.0
  0
SPLINE
  5
1c2
100
AcDbEntity
  8
WS2812B_4x4_32mil
 62
7
100
AcDbSpline
 70
8
 71
3
 72
8
 73
4
 74
0
 40
0
 40
0
 40
0
 40
0
 40
1
 40
1
 40
1
 40
1
 10
60.855716
 20
102.219270
 30
0.0
 10
60.855543
 20
102.219098
 30
0.0
 10
60.855371
 20
102.218926
 30
0.0
 10
60.855200
 20
102.218754
 30
0.0
  0
SPLINE
  5
1c3
100
AcDbEntity
  8
WS2812B_4x4_32mil
 62
7
100
AcDbSpline
 70
8
 71
3
 72
8
 73
4
 74
0
 40
0
 40
0
 40
0
 40
0
 40
1
 40
1
 40
1
 40
1
 10
60.855200
 20
102.218754
 30
0.0
 10
60.790175
 20
102.190868
 30
0.0
 10
60.733409
 20
102.146736
 30
0.0
 10
60.690351
 20
102.090595
 30
0.0
  0
LWPOLYLINE
  5
1c4
100
AcDbEntity
  8
WS2812B_4x4_32mil
 62
7
100
AcDbPolyline
 90
13
 70
0
 10
78.531639
 20
140.691339
 30
0.0
 10
88.008580
 20
140.691339
 30
0.0
 10
92.741107
 20
135.940209
 30
0.0
 10
78.315114
 20
121.514216
 30
0.0
 10
77.046458
 20
121.514216
 30
0.0
 10
77.046458
 20
121.927111
 30
0.0
 10
76.030501
 20
121.927111
 30
0.0
 10
76.030501
 20
120.276048
 30
0.0
 10
77.046458
 20
120.276048
 30
0.0
 10
77.046458
 20
120.688943
 30
0.0
 10
78.073269
 20
120.688943
 30
0.0
 10
78.073269
 20
114.647450
 30
0.0
 10
65.699863
 20
102.252859
 30
0.0
  0
SPLINE
  5
1c5
100
AcDbEntity
  8
WS2812B_4x4_32mil
 62
7
100
AcDbSpline
 70
8
 71
3
 72
8
 73
4
 74
0
 40
0
 40
0
 40
0
 40
0
 40
1
 40
1
 40
1
 40
1
 10
65.819235
 20
101.427071
 30
0.0
 10
65.877631
 20
101.420152
 30
0.0
 10
65.936831
 20
101.425790
 30
0.0
 10
65.992871
 20
101.443607
 30
0.0
  0
SPLINE
  5
1c6
100
AcDbEntity
  8
WS2812B_4x4_32mil
 62
7
100
AcDbSpline
 70
8
 71
3
 72
8
 73
4
 74
0
 40
0
 40
0
 40
0
 40
0
 40
1
 40
1
 40
1
 40
1
 10
65.992871
 20
101.443607
 30
0.0
 10
65.995983
 20
101.444604
 30
0.0
 10
65.999083
 20
101.445638
 30
0.0
 10
66.002171
 20
101.446708
 30
0.0
  0
SPLINE
  5
1c7
100
AcDbEntity
  8
WS2812B_4x4_32mil
 62
7
100
AcDbSpline
 70
8
 71
3
 72
8
 73
4
 74
0
 40
0
 40
0
 40
0
 40
0
 40
1
 40
1
 40
1
 40
1
 10
66.002171
 20
101.446708
 30
0.0
 10
66.004765
 20
101.447715
 30
0.0
 10
66.007350
 20
101.448747
 30
0.0
 10
66.009923
 20
101.449806
 30
0.0
  0
SPLINE
  5
1c8
100
AcDbEntity
  8
WS2812B_4x4_32mil
 62
7
100
AcDbSpline
 70
8
 71
3
 72
8
 73
4
 74
0
 40
0
 40
0
 40
0
 40
0
 40
1
 40
1
 40
1
 40
1
 10
66.009923
 20
101.449806
 30
0.0
 10
66.086919
 20
101.476349
 30
0.0
 10
66.154343
 20
101.525074
 30
0.0
 10
66.203709
 20
101.589850
 30
0.0
  0
LWPOLYLINE
  5
1c9
100
AcDbEntity
  8
WS2812B_4x4_32mil
 62
7
100
AcDbPolyline
 90
9
 70
0
 10
60.690351
 20
102.090595
 30
0.0
 10
59.821671
 20
101.221397
 30
0.0
 10
59.668707
 20
101.374360
 30
0.0
 10
57.869850
 20
99.596175
 30
0.0
 10
58.758686
 20
98.686151
 30
0.0
 10
60.558059
 20
100.485008
 30
0.0
 10
60.405096
 20
100.637972
 30
0.0
 10
61.194197
 20
101.427071
 30
0.0
 10
65.819235
 20
101.427071
 30
0.0
  0
SPLINE
  5
1ca
100
AcDbEntity
  8
WS2812B_4x4_32mil
 62
7
100
AcDbSpline
 70
8
 71
3
 72
8
 73
4
 74
0
 40
0
 40
0
 40
0
 40
0
 40
1
 40
1
 40
1
 40
1
 10
78.735243
 20
114.142056
 30
0.0
 10
78.792898
 20
114.185934
 30
0.0
 10
78.837989
 20
114.244213
 30
0.0
 10
78.865985
 20
114.311038
 30
0.0
  0
SPLINE
  5
1cb
100
AcDbEntity
  8
WS2812B_4x4_32mil
 62
7
100
AcDbSpline
 70
8
 71
3
 72
8
 73
4
 74
0
 40
0
 40
0
 40
0
 40
0
 40
1
 40
1
 40
1
 40
1
 10
78.865985
 20
114.311038
 30
0.0
 10
78.897644
 20
114.381450
 30
0.0
 10
78.908924
 20
114.459329
 30
0.0
 10
78.898542
 20
114.535830
 30
0.0
  0
LWPOLYLINE
  5
1cc
100
AcDbEntity
  8
WS2812B_4x4_32mil
 62
7
100
AcDbPolyline
 90
2
 70
0
 10
66.203709
 20
101.589850
 30
0.0
 10
78.735243
 20
114.142056
 30
0.0
  0
SPLINE
  5
1cd
100
AcDbEntity
  8
WS2812B_4x4_32mil
 62
7
100
AcDbSpline
 70
8
 71
3
 72
8
 73
4
 74
0
 40
0
 40
0
 40
0
 40
0
 40
1
 40
1
 40
1
 40
1
 10
94.165309
 20
114.553401
 30
0.0
 10
94.165309
 20
114.553228
 30
0.0
 10
94.165309
 20
114.553056
 30
0.0
 10
94.165309
 20
114.552883
 30
0.0
  0
SPLINE
  5
1ce
100
AcDbEntity
  8
WS2812B_4x4_32mil
 62
7
100
AcDbSpline
 70
8
 71
3
 72
8
 73
4
 74
0
 40
0
 40
0
 40
0
 40
0
 40
1
 40
1
 40
1
 40
1
 10
94.165309
 20
114.552883
 30
0.0
 10
94.193668
 20
114.499627
 30
0.0
 10
94.233356
 20
114.453235
 30
0.0
 10
94.281580
 20
114.416974
 30
0.0
  0
LWPOLYLINE
  5
1cf
100
AcDbEntity
  8
WS2812B_4x4_32mil
 62
7
100
AcDbPolyline
 90
7
 70
0
 10
78.898542
 20
114.535830
 30
0.0
 10
78.898542
 20
120.688943
 30
0.0
 10
88.009614
 20
120.688943
 30
0.0
 10
92.816037
 20
115.882001
 30
0.0
 10
92.816037
 20
115.132693
 30
0.0
 10
93.575164
 20
115.132693
 30
0.0
 10
94.165309
 20
114.553401
 30
0.0
  0
SPLINE
  5
1d0
100
AcDbEntity
  8
WS2812B_4x4_32mil
 62
7
100
AcDbSpline
 70
8
 71
3
 72
8
 73
4
 74
0
 40
0
 40
0
 40
0
 40
0
 40
1
 40
1
 40
1
 40
1
 10
98.345932
 20
110.352106
 30
0.0
 10
98.390741
 20
110.293755
 30
0.0
 10
98.450330
 20
110.248439
 30
0.0
 10
98.518533
 20
110.220849
 30
0.0
  0
SPLINE
  5
1d1
100
AcDbEntity
  8
WS2812B_4x4_32mil
 62
7
100
AcDbSpline
 70
8
 71
3
 72
8
 73
4
 74
0
 40
0
 40
0
 40
0
 40
0
 40
1
 40
1
 40
1
 40
1
 10
98.518533
 20
110.220849
 30
0.0
 10
98.521276
 20
110.219613
 30
0.0
 10
98.524032
 20
110.218406
 30
0.0
 10
98.526801
 20
110.217230
 30
0.0
  0
SPLINE
  5
1d2
100
AcDbEntity
  8
WS2812B_4x4_32mil
 62
7
100
AcDbSpline
 70
8
 71
3
 72
8
 73
4
 74
0
 40
0
 40
0
 40
0
 40
0
 40
1
 40
1
 40
1
 40
1
 10
98.526801
 20
110.217230
 30
0.0
 10
98.529376
 20
110.216344
 30
0.0
 10
98.531959
 20
110.215483
 30
0.0
 10
98.534551
 20
110.214648
 30
0.0
  0
SPLINE
  5
1d3
100
AcDbEntity
  8
WS2812B_4x4_32mil
 62
7
100
AcDbSpline
 70
8
 71
3
 72
8
 73
4
 74
0
 40
0
 40
0
 40
0
 40
0
 40
1
 40
1
 40
1
 40
1
 10
98.534551
 20
110.214648
 30
0.0
 10
98.598026
 20
110.190244
 30
0.0
 10
98.666547
 20
110.181901
 30
0.0
 10
98.734023
 20
110.190359
 30
0.0
  0
SPLINE
  5
1d4
100
AcDbEntity
  8
WS2812B_4x4_32mil
 62
7
100
AcDbSpline
 70
8
 71
3
 72
8
 73
4
 74
0
 40
0
 40
0
 40
0
 40
0
 40
1
 40
1
 40
1
 40
1
 10
98.734023
 20
110.190359
 30
0.0
 10
98.734023
 20
110.190359
 30
0.0
 10
115.643067
 20
110.190359
 30
0.0
 10
115.643067
 20
110.190359
 30
0.0
  0
SPLINE
  5
1d5
100
AcDbEntity
  8
WS2812B_4x4_32mil
 62
7
100
AcDbSpline
 70
8
 71
3
 72
8
 73
4
 74
0
 40
0
 40
0
 40
0
 40
0
 40
1
 40
1
 40
1
 40
1
 10
115.643067
 20
110.190359
 30
0.0
 10
115.709483
 20
110.182250
 30
0.0
 10
115.776875
 20
110.190408
 30
0.0
 10
115.839438
 20
110.214129
 30
0.0
  0
SPLINE
  5
1d6
100
AcDbEntity
  8
WS2812B_4x4_32mil
 62
7
100
AcDbSpline
 70
8
 71
3
 72
8
 73
4
 74
0
 40
0
 40
0
 40
0
 40
0
 40
1
 40
1
 40
1
 40
1
 10
115.839438
 20
110.214129
 30
0.0
 10
115.915043
 20
110.240642
 30
0.0
 10
115.981299
 20
110.288583
 30
0.0
 10
116.030123
 20
110.352106
 30
0.0
  0
LWPOLYLINE
  5
1d7
100
AcDbEntity
  8
WS2812B_4x4_32mil
 62
7
100
AcDbPolyline
 90
2
 70
0
 10
94.281580
 20
114.416974
 30
0.0
 10
98.345932
 20
110.352106
 30
0.0
  0
SPLINE
  5
1d8
100
AcDbEntity
  8
WS2812B_4x4_32mil
 62
7
100
AcDbSpline
 70
8
 71
3
 72
8
 73
4
 74
0
 40
0
 40
0
 40
0
 40
0
 40
1
 40
1
 40
1
 40
1
 10
121.622031
 20
115.545070
 30
0.0
 10
121.653961
 20
115.541327
 30
0.0
 10
121.686219
 20
115.541327
 30
0.0
 10
121.718149
 20
115.545070
 30
0.0
  0
LWPOLYLINE
  5
1d9
100
AcDbEntity
  8
WS2812B_4x4_32mil
 62
7
100
AcDbPolyline
 90
3
 70
0
 10
116.030123
 20
110.352106
 30
0.0
 10
121.223090
 20
115.545070
 30
0.0
 10
121.622031
 20
115.545070
 30
0.0
  0
SPLINE
  5
1da
100
AcDbEntity
  8
WS2812B_4x4_32mil
 62
7
100
AcDbSpline
 70
8
 71
3
 72
8
 73
4
 74
0
 40
0
 40
0
 40
0
 40
0
 40
1
 40
1
 40
1
 40
1
 10
132.894728
 20
113.412386
 30
0.0
 10
132.885270
 20
113.340535
 30
0.0
 10
132.894895
 20
113.267461
 30
0.0
 10
132.922634
 20
113.200510
 30
0.0
  0
SPLINE
  5
1db
100
AcDbEntity
  8
WS2812B_4x4_32mil
 62
7
100
AcDbSpline
 70
8
 71
3
 72
8
 73
4
 74
0
 40
0
 40
0
 40
0
 40
0
 40
1
 40
1
 40
1
 40
1
 10
132.922634
 20
113.200510
 30
0.0
 10
132.924283
 20
113.196176
 30
0.0
 10
132.926006
 20
113.191869
 30
0.0
 10
132.927801
 20
113.187593
 30
0.0
  0
SPLINE
  5
1dc
100
AcDbEntity
  8
WS2812B_4x4_32mil
 62
7
100
AcDbSpline
 70
8
 71
3
 72
8
 73
4
 74
0
 40
0
 40
0
 40
0
 40
0
 40
1
 40
1
 40
1
 40
1
 10
132.927801
 20
113.187593
 30
0.0
 10
132.928143
 20
113.186902
 30
0.0
 10
132.928487
 20
113.186213
 30
0.0
 10
132.928833
 20
113.185524
 30
0.0
  0
SPLINE
  5
1dd
100
AcDbEntity
  8
WS2812B_4x4_32mil
 62
7
100
AcDbSpline
 70
8
 71
3
 72
8
 73
4
 74
0
 40
0
 40
0
 40
0
 40
0
 40
1
 40
1
 40
1
 40
1
 10
132.928833
 20
113.185524
 30
0.0
 10
132.956725
 20
113.120934
 30
0.0
 10
133.000662
 20
113.064545
 30
0.0
 10
133.056473
 20
113.021710
 30
0.0
  0
LWPOLYLINE
  5
1de
100
AcDbEntity
  8
WS2812B_4x4_32mil
 62
7
100
AcDbPolyline
 90
5
 70
0
 10
121.718149
 20
115.545070
 30
0.0
 10
132.799642
 20
115.545070
 30
0.0
 10
132.799642
 20
115.132693
 30
0.0
 10
132.894728
 20
115.132693
 30
0.0
 10
132.894728
 20
113.412386
 30
0.0
  0
SPLINE
  5
1df
100
AcDbEntity
  8
WS2812B_4x4_32mil
 62
7
100
AcDbSpline
 70
8
 71
3
 72
8
 73
4
 74
0
 40
0
 40
0
 40
0
 40
0
 40
1
 40
1
 40
1
 40
1
 10
133.059058
 20
113.019128
 30
0.0
 10
133.110188
 20
112.952329
 30
0.0
 10
133.180506
 20
112.902745
 30
0.0
 10
133.260597
 20
112.877017
 30
0.0
  0
SPLINE
  5
1e0
100
AcDbEntity
  8
WS2812B_4x4_32mil
 62
7
100
AcDbSpline
 70
8
 71
3
 72
8
 73
4
 74
0
 40
0
 40
0
 40
0
 40
0
 40
1
 40
1
 40
1
 40
1
 10
133.260597
 20
112.877017
 30
0.0
 10
133.320611
 20
112.856162
 30
0.0
 10
133.384629
 20
112.849442
 30
0.0
 10
133.447665
 20
112.857380
 30
0.0
  0
LWPOLYLINE
  5
1e1
100
AcDbEntity
  8
WS2812B_4x4_32mil
 62
7
100
AcDbPolyline
 90
2
 70
0
 10
133.056473
 20
113.021710
 30
0.0
 10
133.059058
 20
113.019128
 30
0.0
  0
SPLINE
  5
1e2
100
AcDbEntity
  8
WS2812B_4x4_32mil
 62
7
100
AcDbSpline
 70
8
 71
3
 72
8
 73
4
 74
0
 40
0
 40
0
 40
0
 40
0
 40
1
 40
1
 40
1
 40
1
 10
145.273299
 20
105.528628
 30
0.0
 10
145.267613
 20
105.534485
 30
0.0
 10
145.261754
 20
105.540171
 30
0.0
 10
145.255730
 20
105.545680
 30
0.0
  0
SPLINE
  5
1e3
100
AcDbEntity
  8
WS2812B_4x4_32mil
 62
7
100
AcDbSpline
 70
8
 71
3
 72
8
 73
4
 74
0
 40
0
 40
0
 40
0
 40
0
 40
1
 40
1
 40
1
 40
1
 10
145.255730
 20
105.545680
 30
0.0
 10
145.254873
 20
105.546546
 30
0.0
 10
145.254011
 20
105.547408
 30
0.0
 10
145.253145
 20
105.548265
 30
0.0
  0
LWPOLYLINE
  5
1e4
100
AcDbEntity
  8
WS2812B_4x4_32mil
 62
7
100
AcDbPolyline
 90
10
 70
0
 10
133.447665
 20
112.857380
 30
0.0
 10
136.276434
 20
112.857380
 30
0.0
 10
144.679021
 20
104.955535
 30
0.0
 10
148.964546
 20
100.669494
 30
0.0
 10
148.801766
 20
100.506196
 30
0.0
 10
150.600623
 20
98.707339
 30
0.0
 10
151.511160
 20
99.617360
 30
0.0
 10
149.711787
 20
101.416733
 30
0.0
 10
149.548492
 20
101.253438
 30
0.0
 10
145.273299
 20
105.528628
 30
0.0
  0
SPLINE
  5
1e5
100
AcDbEntity
  8
WS2812B_4x4_32mil
 62
7
100
AcDbSpline
 70
8
 71
3
 72
8
 73
4
 74
0
 40
0
 40
0
 40
0
 40
0
 40
1
 40
1
 40
1
 40
1
 10
136.766842
 20
113.529173
 30
0.0
 10
136.720073
 20
113.587204
 30
0.0
 10
136.658466
 20
113.631490
 30
0.0
 10
136.588557
 20
113.657332
 30
0.0
  0
SPLINE
  5
1e6
100
AcDbEntity
  8
WS2812B_4x4_32mil
 62
7
100
AcDbSpline
 70
8
 71
3
 72
8
 73
4
 74
0
 40
0
 40
0
 40
0
 40
0
 40
1
 40
1
 40
1
 40
1
 10
136.588557
 20
113.657332
 30
0.0
 10
136.536000
 20
113.678203
 30
0.0
 10
136.479715
 20
113.688052
 30
0.0
 10
136.423193
 20
113.686269
 30
0.0
  0
SPLINE
  5
1e7
100
AcDbEntity
  8
WS2812B_4x4_32mil
 62
7
100
AcDbSpline
 70
8
 71
3
 72
8
 73
4
 74
0
 40
0
 40
0
 40
0
 40
0
 40
1
 40
1
 40
1
 40
1
 10
136.423193
 20
113.686269
 30
0.0
 10
136.408325
 20
113.685865
 30
0.0
 10
136.393491
 20
113.684658
 30
0.0
 10
136.378753
 20
113.682652
 30
0.0
  0
LWPOLYLINE
  5
1e8
100
AcDbEntity
  8
WS2812B_4x4_32mil
 62
7
100
AcDbPolyline
 90
2
 70
0
 10
145.253145
 20
105.548265
 30
0.0
 10
136.766842
 20
113.529173
 30
0.0
  0
SPLINE
  5
1e9
100
AcDbEntity
  8
WS2812B_4x4_32mil
 62
7
100
AcDbSpline
 70
8
 71
3
 72
8
 73
4
 74
0
 40
0
 40
0
 40
0
 40
0
 40
1
 40
1
 40
1
 40
1
 10
131.420914
 20
136.352070
 30
0.0
 10
131.398160
 20
136.355359
 30
0.0
 10
131.375171
 20
136.356741
 30
0.0
 10
131.352186
 20
136.356202
 30
0.0
  0
SPLINE
  5
1ea
100
AcDbEntity
  8
WS2812B_4x4_32mil
 62
7
100
AcDbSpline
 70
8
 71
3
 72
8
 73
4
 74
0
 40
0
 40
0
 40
0
 40
0
 40
1
 40
1
 40
1
 40
1
 10
131.352186
 20
136.356202
 30
0.0
 10
131.337308
 20
136.355627
 30
0.0
 10
131.322473
 20
136.354248
 30
0.0
 10
131.307744
 20
136.352070
 30
0.0
  0
LWPOLYLINE
  5
1eb
100
AcDbEntity
  8
WS2812B_4x4_32mil
 62
7
100
AcDbPolyline
 90
17
 70
0
 10
136.378753
 20
113.682652
 30
0.0
 10
133.720517
 20
113.682652
 30
0.0
 10
133.720517
 20
115.132693
 30
0.0
 10
133.815602
 20
115.132693
 30
0.0
 10
133.815602
 20
116.783754
 30
0.0
 10
132.799642
 20
116.783754
 30
0.0
 10
132.799642
 20
116.370861
 30
0.0
 10
121.837005
 20
116.370861
 30
0.0
 10
117.106028
 20
121.101320
 30
0.0
 10
131.531502
 20
135.526797
 30
0.0
 10
132.799642
 20
135.526797
 30
0.0
 10
132.799642
 20
135.113902
 30
0.0
 10
133.815602
 20
135.113902
 30
0.0
 10
133.815602
 20
136.764963
 30
0.0
 10
132.799642
 20
136.764963
 30
0.0
 10
132.799642
 20
136.352070
 30
0.0
 10
131.420914
 20
136.352070
 30
0.0
  0
SPLINE
  5
1ec
100
AcDbEntity
  8
WS2812B_4x4_32mil
 62
7
100
AcDbSpline
 70
8
 71
3
 72
8
 73
4
 74
0
 40
0
 40
0
 40
0
 40
0
 40
1
 40
1
 40
1
 40
1
 10
131.420914
 20
156.354466
 30
0.0
 10
131.398160
 20
156.357755
 30
0.0
 10
131.375171
 20
156.359138
 30
0.0
 10
131.352186
 20
156.358599
 30
0.0
  0
SPLINE
  5
1ed
100
AcDbEntity
  8
WS2812B_4x4_32mil
 62
7
100
AcDbSpline
 70
8
 71
3
 72
8
 73
4
 74
0
 40
0
 40
0
 40
0
 40
0
 40
1
 40
1
 40
1
 40
1
 10
131.352186
 20
156.358599
 30
0.0
 10
131.336618
 20
156.358100
 30
0.0
 10
131.321090
 20
156.356720
 30
0.0
 10
131.305678
 20
156.354466
 30
0.0
  0
LWPOLYLINE
  5
1ee
100
AcDbEntity
  8
WS2812B_4x4_32mil
 62
7
100
AcDbPolyline
 90
11
 70
0
 10
131.307744
 20
136.352070
 30
0.0
 10
121.837521
 20
136.352070
 30
0.0
 10
117.105512
 20
141.103200
 30
0.0
 10
131.531502
 20
155.529194
 30
0.0
 10
132.799642
 20
155.529194
 30
0.0
 10
132.799642
 20
155.116298
 30
0.0
 10
133.815602
 20
155.116298
 30
0.0
 10
133.815602
 20
156.767359
 30
0.0
 10
132.799642
 20
156.767359
 30
0.0
 10
132.799642
 20
156.354466
 30
0.0
 10
131.420914
 20
156.354466
 30
0.0
  0
SPLINE
  5
1ef
100
AcDbEntity
  8
WS2812B_4x4_32mil
 62
7
100
AcDbSpline
 70
8
 71
3
 72
8
 73
4
 74
0
 40
0
 40
0
 40
0
 40
0
 40
1
 40
1
 40
1
 40
1
 10
131.417816
 20
176.336190
 30
0.0
 10
131.396070
 20
176.339139
 30
0.0
 10
131.374124
 20
176.340348
 30
0.0
 10
131.352186
 20
176.339807
 30
0.0
  0
SPLINE
  5
1f0
100
AcDbEntity
  8
WS2812B_4x4_32mil
 62
7
100
AcDbSpline
 70
8
 71
3
 72
8
 73
4
 74
0
 40
0
 40
0
 40
0
 40
0
 40
1
 40
1
 40
1
 40
1
 10
131.352186
 20
176.339807
 30
0.0
 10
131.337318
 20
176.339403
 30
0.0
 10
131.322482
 20
176.338196
 30
0.0
 10
131.307744
 20
176.336190
 30
0.0
  0
LWPOLYLINE
  5
1f1
100
AcDbEntity
  8
WS2812B_4x4_32mil
 62
7
100
AcDbPolyline
 90
11
 70
0
 10
131.305678
 20
156.354466
 30
0.0
 10
121.837005
 20
156.354466
 30
0.0
 10
117.106544
 20
161.085443
 30
0.0
 10
131.531502
 20
175.510402
 30
0.0
 10
132.799642
 20
175.510402
 30
0.0
 10
132.799642
 20
175.097507
 30
0.0
 10
133.815602
 20
175.097507
 30
0.0
 10
133.815602
 20
176.748570
 30
0.0
 10
132.799642
 20
176.748570
 30
0.0
 10
132.799642
 20
176.336190
 30
0.0
 10
131.417816
 20
176.336190
 30
0.0
  0
SPLINE
  5
1f2
100
AcDbEntity
  8
WS2812B_4x4_32mil
 62
7
100
AcDbSpline
 70
8
 71
3
 72
8
 73
4
 74
0
 40
0
 40
0
 40
0
 40
0
 40
1
 40
1
 40
1
 40
1
 10
121.332125
 20
175.673182
 30
0.0
 10
121.373998
 20
175.618487
 30
0.0
 10
121.428892
 20
175.575140
 30
0.0
 10
121.491806
 20
175.547092
 30
0.0
  0
SPLINE
  5
1f3
100
AcDbEntity
  8
WS2812B_4x4_32mil
 62
7
100
AcDbSpline
 70
8
 71
3
 72
8
 73
4
 74
0
 40
0
 40
0
 40
0
 40
0
 40
1
 40
1
 40
1
 40
1
 10
121.491806
 20
175.547092
 30
0.0
 10
121.565491
 20
175.511639
 30
0.0
 10
121.648046
 20
175.498869
 30
0.0
 10
121.729000
 20
175.510402
 30
0.0
  0
LWPOLYLINE
  5
1f4
100
AcDbEntity
  8
WS2812B_4x4_32mil
 62
7
100
AcDbPolyline
 90
8
 70
0
 10
131.307744
 20
176.336190
 30
0.0
 10
121.837005
 20
176.336190
 30
0.0
 10
117.030579
 20
181.162770
 30
0.0
 10
117.030579
 20
181.913628
 30
0.0
 10
116.014621
 20
181.913628
 30
0.0
 10
116.014621
 20
180.262565
 30
0.0
 10
116.761863
 20
180.262565
 30
0.0
 10
121.332125
 20
175.673182
 30
0.0
  0
SPLINE
  5
1f5
100
AcDbEntity
  8
WS2812B_4x4_32mil
 62
7
100
AcDbSpline
 70
8
 71
3
 72
8
 73
4
 74
0
 40
0
 40
0
 40
0
 40
0
 40
1
 40
1
 40
1
 40
1
 10
116.764445
 20
160.259652
 30
0.0
 10
116.764445
 20
160.259652
 30
0.0
 10
121.332643
 20
155.691457
 30
0.0
 10
121.332643
 20
155.691457
 30
0.0
  0
SPLINE
  5
1f6
100
AcDbEntity
  8
WS2812B_4x4_32mil
 62
7
100
AcDbSpline
 70
8
 71
3
 72
8
 73
4
 74
0
 40
0
 40
0
 40
0
 40
0
 40
1
 40
1
 40
1
 40
1
 10
121.332643
 20
155.691457
 30
0.0
 10
121.377601
 20
155.632579
 30
0.0
 10
121.437576
 20
155.586884
 30
0.0
 10
121.506276
 20
155.559166
 30
0.0
  0
SPLINE
  5
1f7
100
AcDbEntity
  8
WS2812B_4x4_32mil
 62
7
100
AcDbSpline
 70
8
 71
3
 72
8
 73
4
 74
0
 40
0
 40
0
 40
0
 40
0
 40
1
 40
1
 40
1
 40
1
 10
121.506276
 20
155.559166
 30
0.0
 10
121.508849
 20
155.558106
 30
0.0
 10
121.511432
 20
155.557072
 30
0.0
 10
121.514026
 20
155.556065
 30
0.0
  0
SPLINE
  5
1f8
100
AcDbEntity
  8
WS2812B_4x4_32mil
 62
7
100
AcDbSpline
 70
8
 71
3
 72
8
 73
4
 74
0
 40
0
 40
0
 40
0
 40
0
 40
1
 40
1
 40
1
 40
1
 10
121.514026
 20
155.556065
 30
0.0
 10
121.516087
 20
155.555360
 30
0.0
 10
121.518155
 20
155.554671
 30
0.0
 10
121.520227
 20
155.553998
 30
0.0
  0
SPLINE
  5
1f9
100
AcDbEntity
  8
WS2812B_4x4_32mil
 62
7
100
AcDbSpline
 70
8
 71
3
 72
8
 73
4
 74
0
 40
0
 40
0
 40
0
 40
0
 40
1
 40
1
 40
1
 40
1
 10
121.520227
 20
155.553998
 30
0.0
 10
121.583340
 20
155.529590
 30
0.0
 10
121.651486
 20
155.521072
 30
0.0
 10
121.718665
 20
155.529194
 30
0.0
  0
LWPOLYLINE
  5
1fa
100
AcDbEntity
  8
WS2812B_4x4_32mil
 62
7
100
AcDbPolyline
 90
6
 70
0
 10
121.729000
 20
175.510402
 30
0.0
 10
130.363616
 20
175.510402
 30
0.0
 10
116.763929
 20
161.910716
 30
0.0
 10
116.014621
 20
161.910716
 30
0.0
 10
116.014621
 20
160.259652
 30
0.0
 10
116.764445
 20
160.259652
 30
0.0
  0
SPLINE
  5
1fb
100
AcDbEntity
  8
WS2812B_4x4_32mil
 62
7
100
AcDbSpline
 70
8
 71
3
 72
8
 73
4
 74
0
 40
0
 40
0
 40
0
 40
0
 40
1
 40
1
 40
1
 40
1
 10
116.762379
 20
140.278444
 30
0.0
 10
116.762379
 20
140.278444
 30
0.0
 10
121.332125
 20
135.689577
 30
0.0
 10
121.332125
 20
135.689577
 30
0.0
  0
SPLINE
  5
1fc
100
AcDbEntity
  8
WS2812B_4x4_32mil
 62
7
100
AcDbSpline
 70
8
 71
3
 72
8
 73
4
 74
0
 40
0
 40
0
 40
0
 40
0
 40
1
 40
1
 40
1
 40
1
 10
121.332125
 20
135.689577
 30
0.0
 10
121.374975
 20
135.633316
 30
0.0
 10
121.431562
 20
135.589009
 30
0.0
 10
121.496457
 20
135.560902
 30
0.0
  0
SPLINE
  5
1fd
100
AcDbEntity
  8
WS2812B_4x4_32mil
 62
7
100
AcDbSpline
 70
8
 71
3
 72
8
 73
4
 74
0
 40
0
 40
0
 40
0
 40
0
 40
1
 40
1
 40
1
 40
1
 10
121.496457
 20
135.560902
 30
0.0
 10
121.569644
 20
135.526838
 30
0.0
 10
121.651212
 20
135.514981
 30
0.0
 10
121.731069
 20
135.526797
 30
0.0
  0
LWPOLYLINE
  5
1fe
100
AcDbEntity
  8
WS2812B_4x4_32mil
 62
7
100
AcDbPolyline
 90
6
 70
0
 10
121.718665
 20
155.529194
 30
0.0
 10
130.364131
 20
155.529194
 30
0.0
 10
116.764445
 20
141.929507
 30
0.0
 10
116.014621
 20
141.929507
 30
0.0
 10
116.014621
 20
140.278444
 30
0.0
 10
116.762379
 20
140.278444
 30
0.0
  0
SPLINE
  5
1ff
100
AcDbEntity
  8
WS2812B_4x4_32mil
 62
7
100
AcDbSpline
 70
8
 71
3
 72
8
 73
4
 74
0
 40
0
 40
0
 40
0
 40
0
 40
1
 40
1
 40
1
 40
1
 10
120.772986
 20
116.266991
 30
0.0
 10
120.752853
 20
116.249184
 30
0.0
 10
120.734507
 20
116.229453
 30
0.0
 10
120.718209
 20
116.208079
 30
0.0
  0
LWPOLYLINE
  5
200
100
AcDbEntity
  8
WS2812B_4x4_32mil
 62
7
100
AcDbPolyline
 90
7
 70
0
 10
121.731069
 20
135.526797
 30
0.0
 10
130.364131
 20
135.526797
 30
0.0
 10
116.764445
 20
121.927111
 30
0.0
 10
116.014621
 20
121.927111
 30
0.0
 10
116.014621
 20
120.276048
 30
0.0
 10
116.764445
 20
120.276048
 30
0.0
 10
120.772986
 20
116.266991
 30
0.0
  0
SPLINE
  5
201
100
AcDbEntity
  8
WS2812B_4x4_32mil
 62
7
100
AcDbSpline
 70
8
 71
3
 72
8
 73
4
 74
0
 40
0
 40
0
 40
0
 40
0
 40
1
 40
1
 40
1
 40
1
 10
94.897049
 20
114.968363
 30
0.0
 10
94.868069
 20
115.023725
 30
0.0
 10
94.826899
 20
115.071786
 30
0.0
 10
94.776642
 20
115.108920
 30
0.0
  0
LWPOLYLINE
  5
202
100
AcDbEntity
  8
WS2812B_4x4_32mil
 62
7
100
AcDbPolyline
 90
4
 70
0
 10
120.718209
 20
116.208079
 30
0.0
 10
115.526280
 20
111.015631
 30
0.0
 10
98.849778
 20
111.015631
 30
0.0
 10
94.897049
 20
114.968363
 30
0.0
  0
SPLINE
  5
203
100
AcDbEntity
  8
WS2812B_4x4_32mil
 62
7
100
AcDbSpline
 70
8
 71
3
 72
8
 73
4
 74
0
 40
0
 40
0
 40
0
 40
0
 40
1
 40
1
 40
1
 40
1
 10
88.514492
 20
121.351436
 30
0.0
 10
88.467545
 20
121.413198
 30
0.0
 10
88.404143
 20
121.460479
 30
0.0
 10
88.331556
 20
121.487860
 30
0.0
  0
SPLINE
  5
204
100
AcDbEntity
  8
WS2812B_4x4_32mil
 62
7
100
AcDbSpline
 70
8
 71
3
 72
8
 73
4
 74
0
 40
0
 40
0
 40
0
 40
0
 40
1
 40
1
 40
1
 40
1
 10
88.331556
 20
121.487860
 30
0.0
 10
88.331040
 20
121.488033
 30
0.0
 10
88.330523
 20
121.488205
 30
0.0
 10
88.330006
 20
121.488376
 30
0.0
  0
SPLINE
  5
205
100
AcDbEntity
  8
WS2812B_4x4_32mil
 62
7
100
AcDbSpline
 70
8
 71
3
 72
8
 73
4
 74
0
 40
0
 40
0
 40
0
 40
0
 40
1
 40
1
 40
1
 40
1
 10
88.330006
 20
121.488376
 30
0.0
 10
88.329489
 20
121.488550
 30
0.0
 10
88.328973
 20
121.488723
 30
0.0
 10
88.328455
 20
121.488895
 30
0.0
  0
SPLINE
  5
206
100
AcDbEntity
  8
WS2812B_4x4_32mil
 62
7
100
AcDbSpline
 70
8
 71
3
 72
8
 73
4
 74
0
 40
0
 40
0
 40
0
 40
0
 40
1
 40
1
 40
1
 40
1
 10
88.328455
 20
121.488895
 30
0.0
 10
88.279961
 20
121.508267
 30
0.0
 10
88.228231
 20
121.518262
 30
0.0
 10
88.176010
 20
121.518348
 30
0.0
  0
SPLINE
  5
207
100
AcDbEntity
  8
WS2812B_4x4_32mil
 62
7
100
AcDbSpline
 70
8
 71
3
 72
8
 73
4
 74
0
 40
0
 40
0
 40
0
 40
0
 40
1
 40
1
 40
1
 40
1
 10
88.176010
 20
121.518348
 30
0.0
 10
88.157680
 20
121.518189
 30
0.0
 10
88.139381
 20
121.516808
 30
0.0
 10
88.121234
 20
121.514216
 30
0.0
  0
LWPOLYLINE
  5
208
100
AcDbEntity
  8
WS2812B_4x4_32mil
 62
7
100
AcDbPolyline
 90
5
 70
0
 10
94.776642
 20
115.108920
 30
0.0
 10
93.831995
 20
116.037031
 30
0.0
 10
93.831995
 20
116.783754
 30
0.0
 10
93.081655
 20
116.783754
 30
0.0
 10
88.514492
 20
121.351436
 30
0.0
  0
SPLINE
  5
209
100
AcDbEntity
  8
WS2812B_4x4_32mil
 62
7
100
AcDbSpline
 70
8
 71
3
 72
8
 73
4
 74
0
 40
0
 40
0
 40
0
 40
0
 40
1
 40
1
 40
1
 40
1
 10
88.516042
 20
141.351247
 30
0.0
 10
88.472582
 20
141.409139
 30
0.0
 10
88.414662
 20
141.454584
 30
0.0
 10
88.348093
 20
141.483023
 30
0.0
  0
SPLINE
  5
20a
100
AcDbEntity
  8
WS2812B_4x4_32mil
 62
7
100
AcDbSpline
 70
8
 71
3
 72
8
 73
4
 74
0
 40
0
 40
0
 40
0
 40
0
 40
1
 40
1
 40
1
 40
1
 10
88.348093
 20
141.483023
 30
0.0
 10
88.294432
 20
141.507688
 30
0.0
 10
88.236103
 20
141.520552
 30
0.0
 10
88.177045
 20
141.520745
 30
0.0
  0
SPLINE
  5
20b
100
AcDbEntity
  8
WS2812B_4x4_32mil
 62
7
100
AcDbSpline
 70
8
 71
3
 72
8
 73
4
 74
0
 40
0
 40
0
 40
0
 40
0
 40
1
 40
1
 40
1
 40
1
 10
88.177045
 20
141.520745
 30
0.0
 10
88.157507
 20
141.520751
 30
0.0
 10
88.137994
 20
141.519370
 30
0.0
 10
88.118651
 20
141.516612
 30
0.0
  0
LWPOLYLINE
  5
20c
100
AcDbEntity
  8
WS2812B_4x4_32mil
 62
7
100
AcDbPolyline
 90
7
 70
0
 10
88.121234
 20
121.514216
 30
0.0
 10
79.481969
 20
121.514216
 30
0.0
 10
93.081655
 20
135.113902
 30
0.0
 10
93.831995
 20
135.113902
 30
0.0
 10
93.831995
 20
136.764963
 30
0.0
 10
93.084238
 20
136.764963
 30
0.0
 10
88.516042
 20
141.351247
 30
0.0
  0
SPLINE
  5
20d
100
AcDbEntity
  8
WS2812B_4x4_32mil
 62
7
100
AcDbSpline
 70
8
 71
3
 72
8
 73
4
 74
0
 40
0
 40
0
 40
0
 40
0
 40
1
 40
1
 40
1
 40
1
 10
88.514492
 20
161.335041
 30
0.0
 10
88.467685
 20
161.396725
 30
0.0
 10
88.404473
 20
161.444000
 30
0.0
 10
88.332075
 20
161.471465
 30
0.0
  0
SPLINE
  5
20e
100
AcDbEntity
  8
WS2812B_4x4_32mil
 62
7
100
AcDbSpline
 70
8
 71
3
 72
8
 73
4
 74
0
 40
0
 40
0
 40
0
 40
0
 40
1
 40
1
 40
1
 40
1
 10
88.332075
 20
161.471465
 30
0.0
 10
88.331386
 20
161.471812
 30
0.0
 10
88.330697
 20
161.472157
 30
0.0
 10
88.330006
 20
161.472500
 30
0.0
  0
SPLINE
  5
20f
100
AcDbEntity
  8
WS2812B_4x4_32mil
 62
7
100
AcDbSpline
 70
8
 71
3
 72
8
 73
4
 74
0
 40
0
 40
0
 40
0
 40
0
 40
1
 40
1
 40
1
 40
1
 10
88.330006
 20
161.472500
 30
0.0
 10
88.328802
 20
161.472849
 30
0.0
 10
88.327596
 20
161.473193
 30
0.0
 10
88.326389
 20
161.473532
 30
0.0
  0
SPLINE
  5
210
100
AcDbEntity
  8
WS2812B_4x4_32mil
 62
7
100
AcDbSpline
 70
8
 71
3
 72
8
 73
4
 74
0
 40
0
 40
0
 40
0
 40
0
 40
1
 40
1
 40
1
 40
1
 10
88.326389
 20
161.473532
 30
0.0
 10
88.278507
 20
161.492473
 30
0.0
 10
88.227503
 20
161.502289
 30
0.0
 10
88.176010
 20
161.502472
 30
0.0
  0
SPLINE
  5
211
100
AcDbEntity
  8
WS2812B_4x4_32mil
 62
7
100
AcDbSpline
 70
8
 71
3
 72
8
 73
4
 74
0
 40
0
 40
0
 40
0
 40
0
 40
1
 40
1
 40
1
 40
1
 10
88.176010
 20
161.502472
 30
0.0
 10
88.157680
 20
161.502311
 30
0.0
 10
88.139381
 20
161.500930
 30
0.0
 10
88.121234
 20
161.498336
 30
0.0
  0
LWPOLYLINE
  5
212
100
AcDbEntity
  8
WS2812B_4x4_32mil
 62
7
100
AcDbPolyline
 90
7
 70
0
 10
88.118651
 20
141.516612
 30
0.0
 10
79.481969
 20
141.516612
 30
0.0
 10
93.081655
 20
155.116298
 30
0.0
 10
93.831995
 20
155.116298
 30
0.0
 10
93.831995
 20
156.767359
 30
0.0
 10
93.081655
 20
156.767359
 30
0.0
 10
88.514492
 20
161.335041
 30
0.0
  0
SPLINE
  5
213
100
AcDbEntity
  8
WS2812B_4x4_32mil
 62
7
100
AcDbSpline
 70
8
 71
3
 72
8
 73
4
 74
0
 40
0
 40
0
 40
0
 40
0
 40
1
 40
1
 40
1
 40
1
 10
93.084238
 20
176.748570
 30
0.0
 10
93.084238
 20
176.748570
 30
0.0
 10
88.515008
 20
181.336918
 30
0.0
 10
88.515008
 20
181.336918
 30
0.0
  0
SPLINE
  5
214
100
AcDbEntity
  8
WS2812B_4x4_32mil
 62
7
100
AcDbSpline
 70
8
 71
3
 72
8
 73
4
 74
0
 40
0
 40
0
 40
0
 40
0
 40
1
 40
1
 40
1
 40
1
 10
88.515008
 20
181.336918
 30
0.0
 10
88.469399
 20
181.397269
 30
0.0
 10
88.408084
 20
181.443927
 30
0.0
 10
88.337758
 20
181.471795
 30
0.0
  0
SPLINE
  5
215
100
AcDbEntity
  8
WS2812B_4x4_32mil
 62
7
100
AcDbSpline
 70
8
 71
3
 72
8
 73
4
 74
0
 40
0
 40
0
 40
0
 40
0
 40
1
 40
1
 40
1
 40
1
 10
88.337758
 20
181.471795
 30
0.0
 10
88.335185
 20
181.472855
 30
0.0
 10
88.332600
 20
181.473889
 30
0.0
 10
88.330006
 20
181.474896
 30
0.0
  0
SPLINE
  5
216
100
AcDbEntity
  8
WS2812B_4x4_32mil
 62
7
100
AcDbSpline
 70
8
 71
3
 72
8
 73
4
 74
0
 40
0
 40
0
 40
0
 40
0
 40
1
 40
1
 40
1
 40
1
 10
88.330006
 20
181.474896
 30
0.0
 10
88.328802
 20
181.475246
 30
0.0
 10
88.327596
 20
181.475589
 30
0.0
 10
88.326389
 20
181.475928
 30
0.0
  0
SPLINE
  5
217
100
AcDbEntity
  8
WS2812B_4x4_32mil
 62
7
100
AcDbSpline
 70
8
 71
3
 72
8
 73
4
 74
0
 40
0
 40
0
 40
0
 40
0
 40
1
 40
1
 40
1
 40
1
 10
88.326389
 20
181.475928
 30
0.0
 10
88.278830
 20
181.494743
 30
0.0
 10
88.228189
 20
181.504557
 30
0.0
 10
88.177045
 20
181.504868
 30
0.0
  0
SPLINE
  5
218
100
AcDbEntity
  8
WS2812B_4x4_32mil
 62
7
100
AcDbSpline
 70
8
 71
3
 72
8
 73
4
 74
0
 40
0
 40
0
 40
0
 40
0
 40
1
 40
1
 40
1
 40
1
 10
88.177045
 20
181.504868
 30
0.0
 10
88.158715
 20
181.504707
 30
0.0
 10
88.140415
 20
181.503326
 30
0.0
 10
88.122268
 20
181.500733
 30
0.0
  0
LWPOLYLINE
  5
219
100
AcDbEntity
  8
WS2812B_4x4_32mil
 62
7
100
AcDbPolyline
 90
6
 70
0
 10
88.121234
 20
161.498336
 30
0.0
 10
79.482485
 20
161.498336
 30
0.0
 10
93.081655
 20
175.097507
 30
0.0
 10
93.831995
 20
175.097507
 30
0.0
 10
93.831995
 20
176.748570
 30
0.0
 10
93.084238
 20
176.748570
 30
0.0
  0
LWPOLYLINE
  5
21a
100
AcDbEntity
  8
WS2812B_4x4_32mil
 62
7
100
AcDbPolyline
 90
5
 70
0
 10
88.122268
 20
181.500733
 30
0.0
 10
77.046458
 20
181.500733
 30
0.0
 10
77.046458
 20
181.913628
 30
0.0
 10
76.030501
 20
181.913628
 30
0.0
 10
76.030501
 20
181.913628
 30
0.0
  0
SPLINE
  5
21b
100
AcDbEntity
  8
WS2812B_4x4_32mil
 62
7
100
AcDbSpline
 70
8
 71
3
 72
8
 73
4
 74
0
 40
0
 40
0
 40
0
 40
0
 40
1
 40
1
 40
1
 40
1
 10
73.091660
 20
171.388173
 30
0.0
 10
73.035848
 20
171.345337
 30
0.0
 10
72.991911
 20
171.288948
 30
0.0
 10
72.964020
 20
171.224359
 30
0.0
  0
SPLINE
  5
21c
100
AcDbEntity
  8
WS2812B_4x4_32mil
 62
7
100
AcDbSpline
 70
8
 71
3
 72
8
 73
4
 74
0
 40
0
 40
0
 40
0
 40
0
 40
1
 40
1
 40
1
 40
1
 10
72.964020
 20
171.224359
 30
0.0
 10
72.930257
 20
171.151633
 30
0.0
 10
72.918405
 20
171.070648
 30
0.0
 10
72.929912
 20
170.991298
 30
0.0
  0
LWPOLYLINE
  5
21d
100
AcDbEntity
  8
WS2812B_4x4_32mil
 62
7
100
AcDbPolyline
 90
5
 70
0
 10
76.030501
 20
176.748570
 30
0.0
 10
76.030501
 20
175.097507
 30
0.0
 10
76.104912
 20
175.097507
 30
0.0
 10
76.104912
 20
174.421062
 30
0.0
 10
73.091660
 20
171.388173
 30
0.0
  0
SPLINE
  5
21e
100
AcDbEntity
  8
WS2812B_4x4_32mil
 62
7
100
AcDbSpline
 70
8
 71
3
 72
8
 73
4
 74
0
 40
0
 40
0
 40
0
 40
0
 40
1
 40
1
 40
1
 40
1
 10
76.769471
 20
173.918767
 30
0.0
 10
76.829062
 20
173.964648
 30
0.0
 10
76.874985
 20
174.025938
 30
0.0
 10
76.902282
 20
174.096016
 30
0.0
  0
SPLINE
  5
21f
100
AcDbEntity
  8
WS2812B_4x4_32mil
 62
7
100
AcDbSpline
 70
8
 71
3
 72
8
 73
4
 74
0
 40
0
 40
0
 40
0
 40
0
 40
1
 40
1
 40
1
 40
1
 10
76.902282
 20
174.096016
 30
0.0
 10
76.902984
 20
174.097907
 30
0.0
 10
76.903673
 20
174.099802
 30
0.0
 10
76.904348
 20
174.101702
 30
0.0
  0
SPLINE
  5
220
100
AcDbEntity
  8
WS2812B_4x4_32mil
 62
7
100
AcDbSpline
 70
8
 71
3
 72
8
 73
4
 74
0
 40
0
 40
0
 40
0
 40
0
 40
1
 40
1
 40
1
 40
1
 10
76.904348
 20
174.101702
 30
0.0
 10
76.904348
 20
174.101874
 30
0.0
 10
76.904348
 20
174.102046
 30
0.0
 10
76.904348
 20
174.102218
 30
0.0
  0
SPLINE
  5
221
100
AcDbEntity
  8
WS2812B_4x4_32mil
 62
7
100
AcDbSpline
 70
8
 71
3
 72
8
 73
4
 74
0
 40
0
 40
0
 40
0
 40
0
 40
1
 40
1
 40
1
 40
1
 10
76.904348
 20
174.102218
 30
0.0
 10
76.930936
 20
174.168568
 30
0.0
 10
76.939840
 20
174.240685
 30
0.0
 10
76.930187
 20
174.311509
 30
0.0
  0
LWPOLYLINE
  5
222
100
AcDbEntity
  8
WS2812B_4x4_32mil
 62
7
100
AcDbPolyline
 90
9
 70
0
 10
72.929912
 20
170.991298
 30
0.0
 10
72.929912
 20
161.910716
 30
0.0
 10
72.834313
 20
161.910716
 30
0.0
 10
72.834313
 20
160.259652
 30
0.0
 10
73.850271
 20
160.259652
 30
0.0
 10
73.850271
 20
161.910716
 30
0.0
 10
73.755187
 20
161.910716
 30
0.0
 10
73.755187
 20
170.884845
 30
0.0
 10
76.769471
 20
173.918767
 30
0.0
  0
LWPOLYLINE
  5
223
100
AcDbEntity
  8
WS2812B_4x4_32mil
 62
7
100
AcDbPolyline
 90
6
 70
0
 10
76.930187
 20
174.311509
 30
0.0
 10
76.930187
 20
175.097507
 30
0.0
 10
77.046458
 20
175.097507
 30
0.0
 10
77.046458
 20
176.748570
 30
0.0
 10
76.030501
 20
176.748570
 30
0.0
 10
76.030501
 20
176.748570
 30
0.0
  0
SPLINE
  5
224
100
AcDbEntity
  8
WS2812B_4x4_32mil
 62
7
100
AcDbSpline
 70
8
 71
3
 72
8
 73
4
 74
0
 40
0
 40
0
 40
0
 40
0
 40
1
 40
1
 40
1
 40
1
 10
96.107308
 20
166.124412
 30
0.0
 10
96.107308
 20
166.124412
 30
0.0
 10
93.095091
 20
163.112191
 30
0.0
 10
93.095091
 20
163.112191
 30
0.0
  0
SPLINE
  5
225
100
AcDbEntity
  8
WS2812B_4x4_32mil
 62
7
100
AcDbSpline
 70
8
 71
3
 72
8
 73
4
 74
0
 40
0
 40
0
 40
0
 40
0
 40
1
 40
1
 40
1
 40
1
 10
93.095091
 20
163.112191
 30
0.0
 10
93.036022
 20
163.067300
 30
0.0
 10
92.990145
 20
163.007319
 30
0.0
 10
92.962283
 20
162.938559
 30
0.0
  0
SPLINE
  5
226
100
AcDbEntity
  8
WS2812B_4x4_32mil
 62
7
100
AcDbSpline
 70
8
 71
3
 72
8
 73
4
 74
0
 40
0
 40
0
 40
0
 40
0
 40
1
 40
1
 40
1
 40
1
 10
92.962283
 20
162.938559
 30
0.0
 10
92.961223
 20
162.935986
 30
0.0
 10
92.960190
 20
162.933403
 30
0.0
 10
92.959182
 20
162.930809
 30
0.0
  0
SPLINE
  5
227
100
AcDbEntity
  8
WS2812B_4x4_32mil
 62
7
100
AcDbSpline
 70
8
 71
3
 72
8
 73
4
 74
0
 40
0
 40
0
 40
0
 40
0
 40
1
 40
1
 40
1
 40
1
 10
92.959182
 20
162.930809
 30
0.0
 10
92.958476
 20
162.928747
 30
0.0
 10
92.957787
 20
162.926680
 30
0.0
 10
92.957113
 20
162.924607
 30
0.0
  0
SPLINE
  5
228
100
AcDbEntity
  8
WS2812B_4x4_32mil
 62
7
100
AcDbSpline
 70
8
 71
3
 72
8
 73
4
 74
0
 40
0
 40
0
 40
0
 40
0
 40
1
 40
1
 40
1
 40
1
 10
92.957113
 20
162.924607
 30
0.0
 10
92.932705
 20
162.861494
 30
0.0
 10
92.924187
 20
162.793349
 30
0.0
 10
92.932309
 20
162.726170
 30
0.0
  0
LWPOLYLINE
  5
229
100
AcDbEntity
  8
WS2812B_4x4_32mil
 62
7
100
AcDbPolyline
 90
4
 70
0
 10
96.012225
 20
176.748570
 30
0.0
 10
96.012225
 20
175.097507
 30
0.0
 10
96.107308
 20
175.097507
 30
0.0
 10
96.107308
 20
166.124412
 30
0.0
  0
SPLINE
  5
22a
100
AcDbEntity
  8
WS2812B_4x4_32mil
 62
7
100
AcDbSpline
 70
8
 71
3
 72
8
 73
4
 74
0
 40
0
 40
0
 40
0
 40
0
 40
1
 40
1
 40
1
 40
1
 10
93.757584
 20
162.607829
 30
0.0
 10
93.757584
 20
162.607829
 30
0.0
 10
96.768251
 20
165.618499
 30
0.0
 10
96.768251
 20
165.618499
 30
0.0
  0
SPLINE
  5
22b
100
AcDbEntity
  8
WS2812B_4x4_32mil
 62
7
100
AcDbSpline
 70
8
 71
3
 72
8
 73
4
 74
0
 40
0
 40
0
 40
0
 40
0
 40
1
 40
1
 40
1
 40
1
 10
96.768251
 20
165.618499
 30
0.0
 10
96.829208
 20
165.664393
 30
0.0
 10
96.876252
 20
165.726284
 30
0.0
 10
96.904159
 20
165.797299
 30
0.0
  0
SPLINE
  5
22c
100
AcDbEntity
  8
WS2812B_4x4_32mil
 62
7
100
AcDbSpline
 70
8
 71
3
 72
8
 73
4
 74
0
 40
0
 40
0
 40
0
 40
0
 40
1
 40
1
 40
1
 40
1
 10
96.904159
 20
165.797299
 30
0.0
 10
96.905041
 20
165.799531
 30
0.0
 10
96.905902
 20
165.801770
 30
0.0
 10
96.906744
 20
165.804017
 30
0.0
  0
SPLINE
  5
22d
100
AcDbEntity
  8
WS2812B_4x4_32mil
 62
7
100
AcDbSpline
 70
8
 71
3
 72
8
 73
4
 74
0
 40
0
 40
0
 40
0
 40
0
 40
1
 40
1
 40
1
 40
1
 10
96.906744
 20
165.804017
 30
0.0
 10
96.906917
 20
165.804534
 30
0.0
 10
96.907089
 20
165.805050
 30
0.0
 10
96.907260
 20
165.805568
 30
0.0
  0
SPLINE
  5
22e
100
AcDbEntity
  8
WS2812B_4x4_32mil
 62
7
100
AcDbSpline
 70
8
 71
3
 72
8
 73
4
 74
0
 40
0
 40
0
 40
0
 40
0
 40
1
 40
1
 40
1
 40
1
 10
96.907260
 20
165.805568
 30
0.0
 10
96.933317
 20
165.871331
 30
0.0
 10
96.942037
 20
165.942687
 30
0.0
 10
96.932584
 20
166.012789
 30
0.0
  0
LWPOLYLINE
  5
22f
100
AcDbEntity
  8
WS2812B_4x4_32mil
 62
7
100
AcDbPolyline
 90
8
 70
0
 10
92.932309
 20
162.726170
 30
0.0
 10
92.932309
 20
161.910716
 30
0.0
 10
92.816037
 20
161.910716
 30
0.0
 10
92.816037
 20
160.259652
 30
0.0
 10
93.831995
 20
160.259652
 30
0.0
 10
93.831995
 20
161.910716
 30
0.0
 10
93.757584
 20
161.910716
 30
0.0
 10
93.757584
 20
162.607829
 30
0.0
  0
LWPOLYLINE
  5
230
100
AcDbEntity
  8
WS2812B_4x4_32mil
 62
7
100
AcDbPolyline
 90
6
 70
0
 10
96.932584
 20
166.012789
 30
0.0
 10
96.932584
 20
175.097507
 30
0.0
 10
97.028183
 20
175.097507
 30
0.0
 10
97.028183
 20
176.748570
 30
0.0
 10
96.012225
 20
176.748570
 30
0.0
 10
96.012225
 20
176.748570
 30
0.0
  0
SPLINE
  5
231
100
AcDbEntity
  8
WS2812B_4x4_32mil
 62
7
100
AcDbSpline
 70
8
 71
3
 72
8
 73
4
 74
0
 40
0
 40
0
 40
0
 40
0
 40
1
 40
1
 40
1
 40
1
 10
113.075265
 20
171.388173
 30
0.0
 10
113.021339
 20
171.346546
 30
0.0
 10
112.978554
 20
171.292221
 30
0.0
 10
112.950725
 20
171.230042
 30
0.0
  0
SPLINE
  5
232
100
AcDbEntity
  8
WS2812B_4x4_32mil
 62
7
100
AcDbSpline
 70
8
 71
3
 72
8
 73
4
 74
0
 40
0
 40
0
 40
0
 40
0
 40
1
 40
1
 40
1
 40
1
 10
112.950725
 20
171.230042
 30
0.0
 10
112.914788
 20
171.155953
 30
0.0
 10
112.901831
 20
171.072809
 30
0.0
 10
112.913520
 20
170.991298
 30
0.0
  0
LWPOLYLINE
  5
233
100
AcDbEntity
  8
WS2812B_4x4_32mil
 62
7
100
AcDbPolyline
 90
5
 70
0
 10
116.014621
 20
176.748570
 30
0.0
 10
116.014621
 20
175.097507
 30
0.0
 10
116.088520
 20
175.097507
 30
0.0
 10
116.088520
 20
174.421062
 30
0.0
 10
113.075265
 20
171.388173
 30
0.0
  0
SPLINE
  5
234
100
AcDbEntity
  8
WS2812B_4x4_32mil
 62
7
100
AcDbSpline
 70
8
 71
3
 72
8
 73
4
 74
0
 40
0
 40
0
 40
0
 40
0
 40
1
 40
1
 40
1
 40
1
 10
113.739308
 20
170.885361
 30
0.0
 10
113.739308
 20
170.885361
 30
0.0
 10
116.751010
 20
173.917216
 30
0.0
 10
116.751010
 20
173.917216
 30
0.0
  0
SPLINE
  5
235
100
AcDbEntity
  8
WS2812B_4x4_32mil
 62
7
100
AcDbSpline
 70
8
 71
3
 72
8
 73
4
 74
0
 40
0
 40
0
 40
0
 40
0
 40
1
 40
1
 40
1
 40
1
 10
116.751010
 20
173.917216
 30
0.0
 10
116.809406
 20
173.961673
 30
0.0
 10
116.854893
 20
174.020896
 30
0.0
 10
116.882785
 20
174.088783
 30
0.0
  0
SPLINE
  5
236
100
AcDbEntity
  8
WS2812B_4x4_32mil
 62
7
100
AcDbSpline
 70
8
 71
3
 72
8
 73
4
 74
0
 40
0
 40
0
 40
0
 40
0
 40
1
 40
1
 40
1
 40
1
 10
116.882785
 20
174.088783
 30
0.0
 10
116.884753
 20
174.093056
 30
0.0
 10
116.886648
 20
174.097364
 30
0.0
 10
116.888469
 20
174.101702
 30
0.0
  0
SPLINE
  5
237
100
AcDbEntity
  8
WS2812B_4x4_32mil
 62
7
100
AcDbSpline
 70
8
 71
3
 72
8
 73
4
 74
0
 40
0
 40
0
 40
0
 40
0
 40
1
 40
1
 40
1
 40
1
 10
116.888469
 20
174.101702
 30
0.0
 10
116.888469
 20
174.101874
 30
0.0
 10
116.888469
 20
174.102046
 30
0.0
 10
116.888469
 20
174.102218
 30
0.0
  0
SPLINE
  5
238
100
AcDbEntity
  8
WS2812B_4x4_32mil
 62
7
100
AcDbSpline
 70
8
 71
3
 72
8
 73
4
 74
0
 40
0
 40
0
 40
0
 40
0
 40
1
 40
1
 40
1
 40
1
 10
116.888469
 20
174.102218
 30
0.0
 10
116.914524
 20
174.167620
 30
0.0
 10
116.923418
 20
174.238599
 30
0.0
 10
116.914308
 20
174.308408
 30
0.0
  0
LWPOLYLINE
  5
239
100
AcDbEntity
  8
WS2812B_4x4_32mil
 62
7
100
AcDbPolyline
 90
8
 70
0
 10
112.913520
 20
170.991298
 30
0.0
 10
112.913520
 20
161.910716
 30
0.0
 10
112.818434
 20
161.910716
 30
0.0
 10
112.818434
 20
160.259652
 30
0.0
 10
113.834391
 20
160.259652
 30
0.0
 10
113.834391
 20
161.910716
 30
0.0
 10
113.739308
 20
161.910716
 30
0.0
 10
113.739308
 20
170.885361
 30
0.0
  0
LWPOLYLINE
  5
23a
100
AcDbEntity
  8
WS2812B_4x4_32mil
 62
7
100
AcDbPolyline
 90
6
 70
0
 10
116.914308
 20
174.308408
 30
0.0
 10
116.914308
 20
175.097507
 30
0.0
 10
117.030579
 20
175.097507
 30
0.0
 10
117.030579
 20
176.748570
 30
0.0
 10
116.014621
 20
176.748570
 30
0.0
 10
116.014621
 20
176.748570
 30
0.0
  0
SPLINE
  5
23b
100
AcDbEntity
  8
WS2812B_4x4_32mil
 62
7
100
AcDbSpline
 70
8
 71
3
 72
8
 73
4
 74
0
 40
0
 40
0
 40
0
 40
0
 40
1
 40
1
 40
1
 40
1
 10
133.079212
 20
163.112191
 30
0.0
 10
133.012753
 20
163.061609
 30
0.0
 10
132.963202
 20
162.992057
 30
0.0
 10
132.937101
 20
162.912722
 30
0.0
  0
SPLINE
  5
23c
100
AcDbEntity
  8
WS2812B_4x4_32mil
 62
7
100
AcDbSpline
 70
8
 71
3
 72
8
 73
4
 74
0
 40
0
 40
0
 40
0
 40
0
 40
1
 40
1
 40
1
 40
1
 10
132.937101
 20
162.912722
 30
0.0
 10
132.915804
 20
162.852991
 30
0.0
 10
132.908554
 20
162.789156
 30
0.0
 10
132.915916
 20
162.726170
 30
0.0
  0
LWPOLYLINE
  5
23d
100
AcDbEntity
  8
WS2812B_4x4_32mil
 62
7
100
AcDbPolyline
 90
5
 70
0
 10
135.995830
 20
176.748570
 30
0.0
 10
135.995830
 20
175.097507
 30
0.0
 10
136.090916
 20
175.097507
 30
0.0
 10
136.090916
 20
166.124412
 30
0.0
 10
133.079212
 20
163.112191
 30
0.0
  0
SPLINE
  5
23e
100
AcDbEntity
  8
WS2812B_4x4_32mil
 62
7
100
AcDbSpline
 70
8
 71
3
 72
8
 73
4
 74
0
 40
0
 40
0
 40
0
 40
0
 40
1
 40
1
 40
1
 40
1
 10
136.753406
 20
165.619534
 30
0.0
 10
136.813832
 20
165.665283
 30
0.0
 10
136.860496
 20
165.726786
 30
0.0
 10
136.888283
 20
165.797299
 30
0.0
  0
SPLINE
  5
23f
100
AcDbEntity
  8
WS2812B_4x4_32mil
 62
7
100
AcDbSpline
 70
8
 71
3
 72
8
 73
4
 74
0
 40
0
 40
0
 40
0
 40
0
 40
1
 40
1
 40
1
 40
1
 10
136.888283
 20
165.797299
 30
0.0
 10
136.889163
 20
165.799531
 30
0.0
 10
136.890024
 20
165.801770
 30
0.0
 10
136.890865
 20
165.804017
 30
0.0
  0
SPLINE
  5
240
100
AcDbEntity
  8
WS2812B_4x4_32mil
 62
7
100
AcDbSpline
 70
8
 71
3
 72
8
 73
4
 74
0
 40
0
 40
0
 40
0
 40
0
 40
1
 40
1
 40
1
 40
1
 10
136.890865
 20
165.804017
 30
0.0
 10
136.891215
 20
165.805221
 30
0.0
 10
136.891560
 20
165.806427
 30
0.0
 10
136.891900
 20
165.807634
 30
0.0
  0
SPLINE
  5
241
100
AcDbEntity
  8
WS2812B_4x4_32mil
 62
7
100
AcDbSpline
 70
8
 71
3
 72
8
 73
4
 74
0
 40
0
 40
0
 40
0
 40
0
 40
1
 40
1
 40
1
 40
1
 10
136.891900
 20
165.807634
 30
0.0
 10
136.917428
 20
165.872810
 30
0.0
 10
136.925964
 20
165.943407
 30
0.0
 10
136.916704
 20
166.012789
 30
0.0
  0
LWPOLYLINE
  5
242
100
AcDbEntity
  8
WS2812B_4x4_32mil
 62
7
100
AcDbPolyline
 90
9
 70
0
 10
132.915916
 20
162.726170
 30
0.0
 10
132.915916
 20
161.910716
 30
0.0
 10
132.799642
 20
161.910716
 30
0.0
 10
132.799642
 20
160.259652
 30
0.0
 10
133.815602
 20
160.259652
 30
0.0
 10
133.815602
 20
161.910716
 30
0.0
 10
133.741704
 20
161.910716
 30
0.0
 10
133.741704
 20
162.607829
 30
0.0
 10
136.753406
 20
165.619534
 30
0.0
  0
LWPOLYLINE
  5
243
100
AcDbEntity
  8
WS2812B_4x4_32mil
 62
7
100
AcDbPolyline
 90
6
 70
0
 10
136.916704
 20
166.012789
 30
0.0
 10
136.916704
 20
175.097507
 30
0.0
 10
137.011788
 20
175.097507
 30
0.0
 10
137.011788
 20
176.748570
 30
0.0
 10
135.995830
 20
176.748570
 30
0.0
 10
135.995830
 20
176.748570
 30
0.0
  0
SPLINE
  5
244
100
AcDbEntity
  8
WS2812B_4x4_32mil
 62
7
100
AcDbSpline
 70
8
 71
3
 72
8
 73
4
 74
0
 40
0
 40
0
 40
0
 40
0
 40
1
 40
1
 40
1
 40
1
 10
73.095795
 20
151.410065
 30
0.0
 10
73.038377
 20
151.367110
 30
0.0
 10
72.993138
 20
151.309939
 30
0.0
 10
72.964536
 20
151.244182
 30
0.0
  0
SPLINE
  5
245
100
AcDbEntity
  8
WS2812B_4x4_32mil
 62
7
100
AcDbSpline
 70
8
 71
3
 72
8
 73
4
 74
0
 40
0
 40
0
 40
0
 40
0
 40
1
 40
1
 40
1
 40
1
 10
72.964536
 20
151.244182
 30
0.0
 10
72.930295
 20
151.171048
 30
0.0
 10
72.918257
 20
151.089478
 30
0.0
 10
72.929912
 20
151.009571
 30
0.0
  0
LWPOLYLINE
  5
246
100
AcDbEntity
  8
WS2812B_4x4_32mil
 62
7
100
AcDbPolyline
 90
5
 70
0
 10
76.030501
 20
156.767359
 30
0.0
 10
76.030501
 20
155.116298
 30
0.0
 10
76.147288
 20
155.116298
 30
0.0
 10
76.147288
 20
154.441920
 30
0.0
 10
73.095795
 20
151.410065
 30
0.0
  0
SPLINE
  5
247
100
AcDbEntity
  8
WS2812B_4x4_32mil
 62
7
100
AcDbSpline
 70
8
 71
3
 72
8
 73
4
 74
0
 40
0
 40
0
 40
0
 40
0
 40
1
 40
1
 40
1
 40
1
 10
76.808230
 20
153.934976
 30
0.0
 10
76.868771
 20
153.980516
 30
0.0
 10
76.915612
 20
154.041838
 30
0.0
 10
76.943623
 20
154.112226
 30
0.0
  0
SPLINE
  5
248
100
AcDbEntity
  8
WS2812B_4x4_32mil
 62
7
100
AcDbSpline
 70
8
 71
3
 72
8
 73
4
 74
0
 40
0
 40
0
 40
0
 40
0
 40
1
 40
1
 40
1
 40
1
 10
76.943623
 20
154.112226
 30
0.0
 10
76.944682
 20
154.114798
 30
0.0
 10
76.945716
 20
154.117382
 30
0.0
 10
76.946724
 20
154.119975
 30
0.0
  0
SPLINE
  5
249
100
AcDbEntity
  8
WS2812B_4x4_32mil
 62
7
100
AcDbSpline
 70
8
 71
3
 72
8
 73
4
 74
0
 40
0
 40
0
 40
0
 40
0
 40
1
 40
1
 40
1
 40
1
 10
76.946724
 20
154.119975
 30
0.0
 10
76.947073
 20
154.121180
 30
0.0
 10
76.947417
 20
154.122387
 30
0.0
 10
76.947756
 20
154.123595
 30
0.0
  0
SPLINE
  5
24a
100
AcDbEntity
  8
WS2812B_4x4_32mil
 62
7
100
AcDbSpline
 70
8
 71
3
 72
8
 73
4
 74
0
 40
0
 40
0
 40
0
 40
0
 40
1
 40
1
 40
1
 40
1
 10
76.947756
 20
154.123595
 30
0.0
 10
76.973284
 20
154.188771
 30
0.0
 10
76.981820
 20
154.259368
 30
0.0
 10
76.972560
 20
154.328750
 30
0.0
  0
LWPOLYLINE
  5
24b
100
AcDbEntity
  8
WS2812B_4x4_32mil
 62
7
100
AcDbPolyline
 90
9
 70
0
 10
72.929912
 20
151.009571
 30
0.0
 10
72.929912
 20
141.929507
 30
0.0
 10
72.834313
 20
141.929507
 30
0.0
 10
72.834313
 20
140.278444
 30
0.0
 10
73.850271
 20
140.278444
 30
0.0
 10
73.850271
 20
141.929507
 30
0.0
 10
73.755187
 20
141.929507
 30
0.0
 10
73.755187
 20
150.901568
 30
0.0
 10
76.808230
 20
153.934976
 30
0.0
  0
LWPOLYLINE
  5
24c
100
AcDbEntity
  8
WS2812B_4x4_32mil
 62
7
100
AcDbPolyline
 90
6
 70
0
 10
76.972560
 20
154.328750
 30
0.0
 10
76.972560
 20
155.116298
 30
0.0
 10
77.046458
 20
155.116298
 30
0.0
 10
77.046458
 20
156.767359
 30
0.0
 10
76.030501
 20
156.767359
 30
0.0
 10
76.030501
 20
156.767359
 30
0.0
  0
SPLINE
  5
24d
100
AcDbEntity
  8
WS2812B_4x4_32mil
 62
7
100
AcDbSpline
 70
8
 71
3
 72
8
 73
4
 74
0
 40
0
 40
0
 40
0
 40
0
 40
1
 40
1
 40
1
 40
1
 10
93.094056
 20
143.109279
 30
0.0
 10
93.038245
 20
143.066444
 30
0.0
 10
92.994308
 20
143.010055
 30
0.0
 10
92.966416
 20
142.945465
 30
0.0
  0
SPLINE
  5
24e
100
AcDbEntity
  8
WS2812B_4x4_32mil
 62
7
100
AcDbSpline
 70
8
 71
3
 72
8
 73
4
 74
0
 40
0
 40
0
 40
0
 40
0
 40
1
 40
1
 40
1
 40
1
 10
92.966416
 20
142.945465
 30
0.0
 10
92.932653
 20
142.872739
 30
0.0
 10
92.920801
 20
142.791755
 30
0.0
 10
92.932309
 20
142.712404
 30
0.0
  0
LWPOLYLINE
  5
24f
100
AcDbEntity
  8
WS2812B_4x4_32mil
 62
7
100
AcDbPolyline
 90
5
 70
0
 10
96.012225
 20
156.767359
 30
0.0
 10
96.012225
 20
155.116298
 30
0.0
 10
96.107308
 20
155.116298
 30
0.0
 10
96.107308
 20
146.142169
 30
0.0
 10
93.094056
 20
143.109279
 30
0.0
  0
SPLINE
  5
250
100
AcDbEntity
  8
WS2812B_4x4_32mil
 62
7
100
AcDbSpline
 70
8
 71
3
 72
8
 73
4
 74
0
 40
0
 40
0
 40
0
 40
0
 40
1
 40
1
 40
1
 40
1
 10
96.769801
 20
145.638323
 30
0.0
 10
96.830379
 20
145.684354
 30
0.0
 10
96.877056
 20
145.746232
 30
0.0
 10
96.904678
 20
145.817123
 30
0.0
  0
SPLINE
  5
251
100
AcDbEntity
  8
WS2812B_4x4_32mil
 62
7
100
AcDbSpline
 70
8
 71
3
 72
8
 73
4
 74
0
 40
0
 40
0
 40
0
 40
0
 40
1
 40
1
 40
1
 40
1
 10
96.904678
 20
145.817123
 30
0.0
 10
96.933058
 20
145.885172
 30
0.0
 10
96.942694
 20
145.959581
 30
0.0
 10
96.932584
 20
146.032615
 30
0.0
  0
LWPOLYLINE
  5
252
100
AcDbEntity
  8
WS2812B_4x4_32mil
 62
7
100
AcDbPolyline
 90
9
 70
0
 10
92.932309
 20
142.712404
 30
0.0
 10
92.932309
 20
141.929507
 30
0.0
 10
92.816037
 20
141.929507
 30
0.0
 10
92.816037
 20
140.278444
 30
0.0
 10
93.831995
 20
140.278444
 30
0.0
 10
93.831995
 20
141.929507
 30
0.0
 10
93.757584
 20
141.929507
 30
0.0
 10
93.757584
 20
142.606468
 30
0.0
 10
96.769801
 20
145.638323
 30
0.0
  0
LWPOLYLINE
  5
253
100
AcDbEntity
  8
WS2812B_4x4_32mil
 62
7
100
AcDbPolyline
 90
6
 70
0
 10
96.932584
 20
146.032615
 30
0.0
 10
96.932584
 20
155.116298
 30
0.0
 10
97.028183
 20
155.116298
 30
0.0
 10
97.028183
 20
156.767359
 30
0.0
 10
96.012225
 20
156.767359
 30
0.0
 10
96.012225
 20
156.767359
 30
0.0
  0
SPLINE
  5
254
100
AcDbEntity
  8
WS2812B_4x4_32mil
 62
7
100
AcDbSpline
 70
8
 71
3
 72
8
 73
4
 74
0
 40
0
 40
0
 40
0
 40
0
 40
1
 40
1
 40
1
 40
1
 10
116.088520
 20
154.419700
 30
0.0
 10
116.088520
 20
154.419700
 30
0.0
 10
113.075783
 20
151.406964
 30
0.0
 10
113.075783
 20
151.406964
 30
0.0
  0
SPLINE
  5
255
100
AcDbEntity
  8
WS2812B_4x4_32mil
 62
7
100
AcDbSpline
 70
8
 71
3
 72
8
 73
4
 74
0
 40
0
 40
0
 40
0
 40
0
 40
1
 40
1
 40
1
 40
1
 10
113.075783
 20
151.406964
 30
0.0
 10
113.009707
 20
151.356232
 30
0.0
 10
112.960526
 20
151.286695
 30
0.0
 10
112.934705
 20
151.207492
 30
0.0
  0
SPLINE
  5
256
100
AcDbEntity
  8
WS2812B_4x4_32mil
 62
7
100
AcDbSpline
 70
8
 71
3
 72
8
 73
4
 74
0
 40
0
 40
0
 40
0
 40
0
 40
1
 40
1
 40
1
 40
1
 10
112.934705
 20
151.207492
 30
0.0
 10
112.913407
 20
151.147761
 30
0.0
 10
112.906158
 20
151.083926
 30
0.0
 10
112.913520
 20
151.020940
 30
0.0
  0
LWPOLYLINE
  5
257
100
AcDbEntity
  8
WS2812B_4x4_32mil
 62
7
100
AcDbPolyline
 90
4
 70
0
 10
116.014621
 20
156.767359
 30
0.0
 10
116.014621
 20
155.116298
 30
0.0
 10
116.088520
 20
155.116298
 30
0.0
 10
116.088520
 20
154.419700
 30
0.0
  0
SPLINE
  5
258
100
AcDbEntity
  8
WS2812B_4x4_32mil
 62
7
100
AcDbSpline
 70
8
 71
3
 72
8
 73
4
 74
0
 40
0
 40
0
 40
0
 40
0
 40
1
 40
1
 40
1
 40
1
 10
116.751526
 20
153.914820
 30
0.0
 10
116.811687
 20
153.960498
 30
0.0
 10
116.858161
 20
154.021808
 30
0.0
 10
116.885886
 20
154.092072
 30
0.0
  0
SPLINE
  5
259
100
AcDbEntity
  8
WS2812B_4x4_32mil
 62
7
100
AcDbSpline
 70
8
 71
3
 72
8
 73
4
 74
0
 40
0
 40
0
 40
0
 40
0
 40
1
 40
1
 40
1
 40
1
 10
116.885886
 20
154.092072
 30
0.0
 10
116.886767
 20
154.094304
 30
0.0
 10
116.887628
 20
154.096543
 30
0.0
 10
116.888469
 20
154.098790
 30
0.0
  0
SPLINE
  5
25a
100
AcDbEntity
  8
WS2812B_4x4_32mil
 62
7
100
AcDbSpline
 70
8
 71
3
 72
8
 73
4
 74
0
 40
0
 40
0
 40
0
 40
0
 40
1
 40
1
 40
1
 40
1
 10
116.888469
 20
154.098790
 30
0.0
 10
116.888819
 20
154.099994
 30
0.0
 10
116.889164
 20
154.101200
 30
0.0
 10
116.889503
 20
154.102407
 30
0.0
  0
SPLINE
  5
25b
100
AcDbEntity
  8
WS2812B_4x4_32mil
 62
7
100
AcDbSpline
 70
8
 71
3
 72
8
 73
4
 74
0
 40
0
 40
0
 40
0
 40
0
 40
1
 40
1
 40
1
 40
1
 10
116.889503
 20
154.102407
 30
0.0
 10
116.915032
 20
154.167583
 30
0.0
 10
116.923568
 20
154.238180
 30
0.0
 10
116.914308
 20
154.307562
 30
0.0
  0
LWPOLYLINE
  5
25c
100
AcDbEntity
  8
WS2812B_4x4_32mil
 62
7
100
AcDbPolyline
 90
9
 70
0
 10
112.913520
 20
151.020940
 30
0.0
 10
112.913520
 20
141.929507
 30
0.0
 10
112.818434
 20
141.929507
 30
0.0
 10
112.818434
 20
140.278444
 30
0.0
 10
113.834391
 20
140.278444
 30
0.0
 10
113.834391
 20
141.929507
 30
0.0
 10
113.739308
 20
141.929507
 30
0.0
 10
113.739308
 20
150.902602
 30
0.0
 10
116.751526
 20
153.914820
 30
0.0
  0
LWPOLYLINE
  5
25d
100
AcDbEntity
  8
WS2812B_4x4_32mil
 62
7
100
AcDbPolyline
 90
6
 70
0
 10
116.914308
 20
154.307562
 30
0.0
 10
116.914308
 20
155.116298
 30
0.0
 10
117.030579
 20
155.116298
 30
0.0
 10
117.030579
 20
156.767359
 30
0.0
 10
116.014621
 20
156.767359
 30
0.0
 10
116.014621
 20
156.767359
 30
0.0
  0
SPLINE
  5
25e
100
AcDbEntity
  8
WS2812B_4x4_32mil
 62
7
100
AcDbSpline
 70
8
 71
3
 72
8
 73
4
 74
0
 40
0
 40
0
 40
0
 40
0
 40
1
 40
1
 40
1
 40
1
 10
133.077661
 20
143.109279
 30
0.0
 10
133.021451
 20
143.066077
 30
0.0
 10
132.977315
 20
143.009127
 30
0.0
 10
132.949505
 20
142.943915
 30
0.0
  0
SPLINE
  5
25f
100
AcDbEntity
  8
WS2812B_4x4_32mil
 62
7
100
AcDbSpline
 70
8
 71
3
 72
8
 73
4
 74
0
 40
0
 40
0
 40
0
 40
0
 40
1
 40
1
 40
1
 40
1
 10
132.949505
 20
142.943915
 30
0.0
 10
132.916219
 20
142.871598
 30
0.0
 10
132.904554
 20
142.791199
 30
0.0
 10
132.915916
 20
142.712404
 30
0.0
  0
LWPOLYLINE
  5
260
100
AcDbEntity
  8
WS2812B_4x4_32mil
 62
7
100
AcDbPolyline
 90
5
 70
0
 10
135.995830
 20
156.767359
 30
0.0
 10
135.995830
 20
155.116298
 30
0.0
 10
136.090916
 20
155.116298
 30
0.0
 10
136.090916
 20
146.142169
 30
0.0
 10
133.077661
 20
143.109279
 30
0.0
  0
SPLINE
  5
261
100
AcDbEntity
  8
WS2812B_4x4_32mil
 62
7
100
AcDbSpline
 70
8
 71
3
 72
8
 73
4
 74
0
 40
0
 40
0
 40
0
 40
0
 40
1
 40
1
 40
1
 40
1
 10
136.754957
 20
145.639357
 30
0.0
 10
136.812233
 20
145.683366
 30
0.0
 10
136.856958
 20
145.741633
 30
0.0
 10
136.884666
 20
145.808339
 30
0.0
  0
SPLINE
  5
262
100
AcDbEntity
  8
WS2812B_4x4_32mil
 62
7
100
AcDbSpline
 70
8
 71
3
 72
8
 73
4
 74
0
 40
0
 40
0
 40
0
 40
0
 40
1
 40
1
 40
1
 40
1
 10
136.884666
 20
145.808339
 30
0.0
 10
136.886824
 20
145.813122
 30
0.0
 10
136.888891
 20
145.817946
 30
0.0
 10
136.890865
 20
145.822809
 30
0.0
  0
SPLINE
  5
263
100
AcDbEntity
  8
WS2812B_4x4_32mil
 62
7
100
AcDbSpline
 70
8
 71
3
 72
8
 73
4
 74
0
 40
0
 40
0
 40
0
 40
0
 40
1
 40
1
 40
1
 40
1
 10
136.890865
 20
145.822809
 30
0.0
 10
136.890865
 20
145.822981
 30
0.0
 10
136.890865
 20
145.823153
 30
0.0
 10
136.890865
 20
145.823325
 30
0.0
  0
SPLINE
  5
264
100
AcDbEntity
  8
WS2812B_4x4_32mil
 62
7
100
AcDbSpline
 70
8
 71
3
 72
8
 73
4
 74
0
 40
0
 40
0
 40
0
 40
0
 40
1
 40
1
 40
1
 40
1
 10
136.890865
 20
145.823325
 30
0.0
 10
136.916920
 20
145.888727
 30
0.0
 10
136.925815
 20
145.959706
 30
0.0
 10
136.916704
 20
146.029514
 30
0.0
  0
LWPOLYLINE
  5
265
100
AcDbEntity
  8
WS2812B_4x4_32mil
 62
7
100
AcDbPolyline
 90
9
 70
0
 10
132.915916
 20
142.712404
 30
0.0
 10
132.915916
 20
141.929507
 30
0.0
 10
132.799642
 20
141.929507
 30
0.0
 10
132.799642
 20
140.278444
 30
0.0
 10
133.815602
 20
140.278444
 30
0.0
 10
133.815602
 20
141.929507
 30
0.0
 10
133.741704
 20
141.929507
 30
0.0
 10
133.741704
 20
142.606468
 30
0.0
 10
136.754957
 20
145.639357
 30
0.0
  0
LWPOLYLINE
  5
266
100
AcDbEntity
  8
WS2812B_4x4_32mil
 62
7
100
AcDbPolyline
 90
6
 70
0
 10
136.916704
 20
146.029514
 30
0.0
 10
136.916704
 20
155.116298
 30
0.0
 10
137.011788
 20
155.116298
 30
0.0
 10
137.011788
 20
156.767359
 30
0.0
 10
135.995830
 20
156.767359
 30
0.0
 10
135.995830
 20
156.767359
 30
0.0
  0
SPLINE
  5
267
100
AcDbEntity
  8
WS2812B_4x4_32mil
 62
7
100
AcDbSpline
 70
8
 71
3
 72
8
 73
4
 74
0
 40
0
 40
0
 40
0
 40
0
 40
1
 40
1
 40
1
 40
1
 10
76.147288
 20
134.459161
 30
0.0
 10
76.147288
 20
134.459161
 30
0.0
 10
73.093210
 20
131.404568
 30
0.0
 10
73.093210
 20
131.404568
 30
0.0
  0
SPLINE
  5
268
100
AcDbEntity
  8
WS2812B_4x4_32mil
 62
7
100
AcDbSpline
 70
8
 71
3
 72
8
 73
4
 74
0
 40
0
 40
0
 40
0
 40
0
 40
1
 40
1
 40
1
 40
1
 10
73.093210
 20
131.404568
 30
0.0
 10
73.033952
 20
131.359744
 30
0.0
 10
72.987891
 20
131.299757
 30
0.0
 10
72.959887
 20
131.230935
 30
0.0
  0
SPLINE
  5
269
100
AcDbEntity
  8
WS2812B_4x4_32mil
 62
7
100
AcDbSpline
 70
8
 71
3
 72
8
 73
4
 74
0
 40
0
 40
0
 40
0
 40
0
 40
1
 40
1
 40
1
 40
1
 10
72.959887
 20
131.230935
 30
0.0
 10
72.958827
 20
131.228361
 30
0.0
 10
72.957793
 20
131.225777
 30
0.0
 10
72.956786
 20
131.223183
 30
0.0
  0
SPLINE
  5
26a
100
AcDbEntity
  8
WS2812B_4x4_32mil
 62
7
100
AcDbSpline
 70
8
 71
3
 72
8
 73
4
 74
0
 40
0
 40
0
 40
0
 40
0
 40
1
 40
1
 40
1
 40
1
 10
72.956786
 20
131.223183
 30
0.0
 10
72.956081
 20
131.221121
 30
0.0
 10
72.955392
 20
131.219054
 30
0.0
 10
72.954720
 20
131.216981
 30
0.0
  0
SPLINE
  5
26b
100
AcDbEntity
  8
WS2812B_4x4_32mil
 62
7
100
AcDbSpline
 70
8
 71
3
 72
8
 73
4
 74
0
 40
0
 40
0
 40
0
 40
0
 40
1
 40
1
 40
1
 40
1
 10
72.954720
 20
131.216981
 30
0.0
 10
72.930311
 20
131.153868
 30
0.0
 10
72.921792
 20
131.085723
 30
0.0
 10
72.929912
 20
131.018543
 30
0.0
  0
LWPOLYLINE
  5
26c
100
AcDbEntity
  8
WS2812B_4x4_32mil
 62
7
100
AcDbPolyline
 90
4
 70
0
 10
76.030501
 20
136.764963
 30
0.0
 10
76.030501
 20
135.113902
 30
0.0
 10
76.147288
 20
135.113902
 30
0.0
 10
76.147288
 20
134.459161
 30
0.0
  0
SPLINE
  5
26d
100
AcDbEntity
  8
WS2812B_4x4_32mil
 62
7
100
AcDbSpline
 70
8
 71
3
 72
8
 73
4
 74
0
 40
0
 40
0
 40
0
 40
0
 40
1
 40
1
 40
1
 40
1
 10
76.809781
 20
133.954283
 30
0.0
 10
76.870016
 20
134.000102
 30
0.0
 10
76.916495
 20
134.061598
 30
0.0
 10
76.944139
 20
134.132049
 30
0.0
  0
SPLINE
  5
26e
100
AcDbEntity
  8
WS2812B_4x4_32mil
 62
7
100
AcDbSpline
 70
8
 71
3
 72
8
 73
4
 74
0
 40
0
 40
0
 40
0
 40
0
 40
1
 40
1
 40
1
 40
1
 10
76.944139
 20
134.132049
 30
0.0
 10
76.945020
 20
134.134281
 30
0.0
 10
76.945882
 20
134.136520
 30
0.0
 10
76.946724
 20
134.138767
 30
0.0
  0
SPLINE
  5
26f
100
AcDbEntity
  8
WS2812B_4x4_32mil
 62
7
100
AcDbSpline
 70
8
 71
3
 72
8
 73
4
 74
0
 40
0
 40
0
 40
0
 40
0
 40
1
 40
1
 40
1
 40
1
 10
76.946724
 20
134.138767
 30
0.0
 10
76.946897
 20
134.139283
 30
0.0
 10
76.947069
 20
134.139800
 30
0.0
 10
76.947240
 20
134.140317
 30
0.0
  0
SPLINE
  5
270
100
AcDbEntity
  8
WS2812B_4x4_32mil
 62
7
100
AcDbSpline
 70
8
 71
3
 72
8
 73
4
 74
0
 40
0
 40
0
 40
0
 40
0
 40
1
 40
1
 40
1
 40
1
 10
76.947240
 20
134.140317
 30
0.0
 10
76.973296
 20
134.206081
 30
0.0
 10
76.982015
 20
134.277438
 30
0.0
 10
76.972560
 20
134.347541
 30
0.0
  0
LWPOLYLINE
  5
271
100
AcDbEntity
  8
WS2812B_4x4_32mil
 62
7
100
AcDbPolyline
 90
9
 70
0
 10
72.929912
 20
131.018543
 30
0.0
 10
72.929912
 20
121.927111
 30
0.0
 10
72.834313
 20
121.927111
 30
0.0
 10
72.834313
 20
120.276048
 30
0.0
 10
73.850271
 20
120.276048
 30
0.0
 10
73.850271
 20
121.927111
 30
0.0
 10
73.755187
 20
121.927111
 30
0.0
 10
73.755187
 20
130.900206
 30
0.0
 10
76.809781
 20
133.954283
 30
0.0
  0
LWPOLYLINE
  5
272
100
AcDbEntity
  8
WS2812B_4x4_32mil
 62
7
100
AcDbPolyline
 90
6
 70
0
 10
76.972560
 20
134.347541
 30
0.0
 10
76.972560
 20
135.113902
 30
0.0
 10
77.046458
 20
135.113902
 30
0.0
 10
77.046458
 20
136.764963
 30
0.0
 10
76.030501
 20
136.764963
 30
0.0
 10
76.030501
 20
136.764963
 30
0.0
  0
SPLINE
  5
273
100
AcDbEntity
  8
WS2812B_4x4_32mil
 62
7
100
AcDbSpline
 70
8
 71
3
 72
8
 73
4
 74
0
 40
0
 40
0
 40
0
 40
0
 40
1
 40
1
 40
1
 40
1
 10
96.107308
 20
126.140807
 30
0.0
 10
96.107308
 20
126.140807
 30
0.0
 10
93.095091
 20
123.129103
 30
0.0
 10
93.095091
 20
123.129103
 30
0.0
  0
SPLINE
  5
274
100
AcDbEntity
  8
WS2812B_4x4_32mil
 62
7
100
AcDbSpline
 70
8
 71
3
 72
8
 73
4
 74
0
 40
0
 40
0
 40
0
 40
0
 40
1
 40
1
 40
1
 40
1
 10
93.095091
 20
123.129103
 30
0.0
 10
93.035121
 20
123.083357
 30
0.0
 10
92.988831
 20
123.022054
 30
0.0
 10
92.961249
 20
122.951853
 30
0.0
  0
SPLINE
  5
275
100
AcDbEntity
  8
WS2812B_4x4_32mil
 62
7
100
AcDbSpline
 70
8
 71
3
 72
8
 73
4
 74
0
 40
0
 40
0
 40
0
 40
0
 40
1
 40
1
 40
1
 40
1
 10
92.961249
 20
122.951853
 30
0.0
 10
92.960903
 20
122.951337
 30
0.0
 10
92.960558
 20
122.950820
 30
0.0
 10
92.960214
 20
122.950302
 30
0.0
  0
SPLINE
  5
276
100
AcDbEntity
  8
WS2812B_4x4_32mil
 62
7
100
AcDbSpline
 70
8
 71
3
 72
8
 73
4
 74
0
 40
0
 40
0
 40
0
 40
0
 40
1
 40
1
 40
1
 40
1
 10
92.960214
 20
122.950302
 30
0.0
 10
92.958587
 20
122.945851
 30
0.0
 10
92.957036
 20
122.941372
 30
0.0
 10
92.955563
 20
122.936867
 30
0.0
  0
SPLINE
  5
277
100
AcDbEntity
  8
WS2812B_4x4_32mil
 62
7
100
AcDbSpline
 70
8
 71
3
 72
8
 73
4
 74
0
 40
0
 40
0
 40
0
 40
0
 40
1
 40
1
 40
1
 40
1
 10
92.955563
 20
122.936867
 30
0.0
 10
92.932266
 20
122.874739
 30
0.0
 10
92.924290
 20
122.807912
 30
0.0
 10
92.932309
 20
122.742046
 30
0.0
  0
LWPOLYLINE
  5
278
100
AcDbEntity
  8
WS2812B_4x4_32mil
 62
7
100
AcDbPolyline
 90
4
 70
0
 10
96.012225
 20
136.764963
 30
0.0
 10
96.012225
 20
135.113902
 30
0.0
 10
96.107308
 20
135.113902
 30
0.0
 10
96.107308
 20
126.140807
 30
0.0
  0
SPLINE
  5
279
100
AcDbEntity
  8
WS2812B_4x4_32mil
 62
7
100
AcDbSpline
 70
8
 71
3
 72
8
 73
4
 74
0
 40
0
 40
0
 40
0
 40
0
 40
1
 40
1
 40
1
 40
1
 10
93.757584
 20
122.623709
 30
0.0
 10
93.757584
 20
122.623709
 30
0.0
 10
96.770836
 20
125.636961
 30
0.0
 10
96.770836
 20
125.636961
 30
0.0
  0
SPLINE
  5
27a
100
AcDbEntity
  8
WS2812B_4x4_32mil
 62
7
100
AcDbSpline
 70
8
 71
3
 72
8
 73
4
 74
0
 40
0
 40
0
 40
0
 40
0
 40
1
 40
1
 40
1
 40
1
 10
96.770836
 20
125.636961
 30
0.0
 10
96.828111
 20
125.680970
 30
0.0
 10
96.872836
 20
125.739237
 30
0.0
 10
96.900542
 20
125.805942
 30
0.0
  0
SPLINE
  5
27b
100
AcDbEntity
  8
WS2812B_4x4_32mil
 62
7
100
AcDbSpline
 70
8
 71
3
 72
8
 73
4
 74
0
 40
0
 40
0
 40
0
 40
0
 40
1
 40
1
 40
1
 40
1
 10
96.900542
 20
125.805942
 30
0.0
 10
96.931642
 20
125.875785
 30
0.0
 10
96.942735
 20
125.952892
 30
0.0
 10
96.932584
 20
126.028669
 30
0.0
  0
LWPOLYLINE
  5
27c
100
AcDbEntity
  8
WS2812B_4x4_32mil
 62
7
100
AcDbPolyline
 90
8
 70
0
 10
92.932309
 20
122.742046
 30
0.0
 10
92.932309
 20
121.927111
 30
0.0
 10
92.816037
 20
121.927111
 30
0.0
 10
92.816037
 20
120.276048
 30
0.0
 10
93.831995
 20
120.276048
 30
0.0
 10
93.831995
 20
121.927111
 30
0.0
 10
93.757584
 20
121.927111
 30
0.0
 10
93.757584
 20
122.623709
 30
0.0
  0
LWPOLYLINE
  5
27d
100
AcDbEntity
  8
WS2812B_4x4_32mil
 62
7
100
AcDbPolyline
 90
6
 70
0
 10
96.932584
 20
126.028669
 30
0.0
 10
96.932584
 20
135.113902
 30
0.0
 10
97.028183
 20
135.113902
 30
0.0
 10
97.028183
 20
136.764963
 30
0.0
 10
96.012225
 20
136.764963
 30
0.0
 10
96.012225
 20
136.764963
 30
0.0
  0
SPLINE
  5
27e
100
AcDbEntity
  8
WS2812B_4x4_32mil
 62
7
100
AcDbSpline
 70
8
 71
3
 72
8
 73
4
 74
0
 40
0
 40
0
 40
0
 40
0
 40
1
 40
1
 40
1
 40
1
 10
116.088520
 20
134.436942
 30
0.0
 10
116.088520
 20
134.436942
 30
0.0
 10
113.075265
 20
131.404052
 30
0.0
 10
113.075265
 20
131.404052
 30
0.0
  0
SPLINE
  5
27f
100
AcDbEntity
  8
WS2812B_4x4_32mil
 62
7
100
AcDbSpline
 70
8
 71
3
 72
8
 73
4
 74
0
 40
0
 40
0
 40
0
 40
0
 40
1
 40
1
 40
1
 40
1
 10
113.075265
 20
131.404052
 30
0.0
 10
113.020434
 20
131.361890
 30
0.0
 10
112.977076
 20
131.306626
 30
0.0
 10
112.949175
 20
131.243336
 30
0.0
  0
SPLINE
  5
280
100
AcDbEntity
  8
WS2812B_4x4_32mil
 62
7
100
AcDbSpline
 70
8
 71
3
 72
8
 73
4
 74
0
 40
0
 40
0
 40
0
 40
0
 40
1
 40
1
 40
1
 40
1
 10
112.949175
 20
131.243336
 30
0.0
 10
112.914279
 20
131.169850
 30
0.0
 10
112.901874
 20
131.087690
 30
0.0
 10
112.913520
 20
131.007177
 30
0.0
  0
LWPOLYLINE
  5
281
100
AcDbEntity
  8
WS2812B_4x4_32mil
 62
7
100
AcDbPolyline
 90
4
 70
0
 10
116.014621
 20
136.764963
 30
0.0
 10
116.014621
 20
135.113902
 30
0.0
 10
116.088520
 20
135.113902
 30
0.0
 10
116.088520
 20
134.436942
 30
0.0
  0
SPLINE
  5
282
100
AcDbEntity
  8
WS2812B_4x4_32mil
 62
7
100
AcDbSpline
 70
8
 71
3
 72
8
 73
4
 74
0
 40
0
 40
0
 40
0
 40
0
 40
1
 40
1
 40
1
 40
1
 10
113.739308
 20
130.901756
 30
0.0
 10
113.739308
 20
130.901756
 30
0.0
 10
116.750494
 20
133.932580
 30
0.0
 10
116.750494
 20
133.932580
 30
0.0
  0
SPLINE
  5
283
100
AcDbEntity
  8
WS2812B_4x4_32mil
 62
7
100
AcDbSpline
 70
8
 71
3
 72
8
 73
4
 74
0
 40
0
 40
0
 40
0
 40
0
 40
1
 40
1
 40
1
 40
1
 10
116.750494
 20
133.932580
 30
0.0
 10
116.808745
 20
133.976752
 30
0.0
 10
116.854220
 20
134.035602
 30
0.0
 10
116.882270
 20
134.103111
 30
0.0
  0
SPLINE
  5
284
100
AcDbEntity
  8
WS2812B_4x4_32mil
 62
7
100
AcDbSpline
 70
8
 71
3
 72
8
 73
4
 74
0
 40
0
 40
0
 40
0
 40
0
 40
1
 40
1
 40
1
 40
1
 10
116.882270
 20
134.103111
 30
0.0
 10
116.884428
 20
134.107895
 30
0.0
 10
116.886495
 20
134.112719
 30
0.0
 10
116.888469
 20
134.117581
 30
0.0
  0
SPLINE
  5
285
100
AcDbEntity
  8
WS2812B_4x4_32mil
 62
7
100
AcDbSpline
 70
8
 71
3
 72
8
 73
4
 74
0
 40
0
 40
0
 40
0
 40
0
 40
1
 40
1
 40
1
 40
1
 10
116.888469
 20
134.117581
 30
0.0
 10
116.888469
 20
134.117753
 30
0.0
 10
116.888469
 20
134.117925
 30
0.0
 10
116.888469
 20
134.118097
 30
0.0
  0
SPLINE
  5
286
100
AcDbEntity
  8
WS2812B_4x4_32mil
 62
7
100
AcDbSpline
 70
8
 71
3
 72
8
 73
4
 74
0
 40
0
 40
0
 40
0
 40
0
 40
1
 40
1
 40
1
 40
1
 10
116.888469
 20
134.118097
 30
0.0
 10
116.914523
 20
134.183499
 30
0.0
 10
116.923418
 20
134.254477
 30
0.0
 10
116.914308
 20
134.324285
 30
0.0
  0
LWPOLYLINE
  5
287
100
AcDbEntity
  8
WS2812B_4x4_32mil
 62
7
100
AcDbPolyline
 90
8
 70
0
 10
112.913520
 20
131.007177
 30
0.0
 10
112.913520
 20
121.927111
 30
0.0
 10
112.818434
 20
121.927111
 30
0.0
 10
112.818434
 20
120.276048
 30
0.0
 10
113.834391
 20
120.276048
 30
0.0
 10
113.834391
 20
121.927111
 30
0.0
 10
113.739308
 20
121.927111
 30
0.0
 10
113.739308
 20
130.901756
 30
0.0
  0
LWPOLYLINE
  5
288
100
AcDbEntity
  8
WS2812B_4x4_32mil
 62
7
100
AcDbPolyline
 90
6
 70
0
 10
116.914308
 20
134.324285
 30
0.0
 10
116.914308
 20
135.113902
 30
0.0
 10
117.030579
 20
135.113902
 30
0.0
 10
117.030579
 20
136.764963
 30
0.0
 10
116.014621
 20
136.764963
 30
0.0
 10
116.014621
 20
136.764963
 30
0.0
  0
SPLINE
  5
289
100
AcDbEntity
  8
WS2812B_4x4_32mil
 62
7
100
AcDbSpline
 70
8
 71
3
 72
8
 73
4
 74
0
 40
0
 40
0
 40
0
 40
0
 40
1
 40
1
 40
1
 40
1
 10
133.057508
 20
123.107399
 30
0.0
 10
132.990432
 20
123.056207
 30
0.0
 10
132.940655
 20
122.985690
 30
0.0
 10
132.914881
 20
122.905344
 30
0.0
  0
SPLINE
  5
28a
100
AcDbEntity
  8
WS2812B_4x4_32mil
 62
7
100
AcDbSpline
 70
8
 71
3
 72
8
 73
4
 74
0
 40
0
 40
0
 40
0
 40
0
 40
1
 40
1
 40
1
 40
1
 10
132.914881
 20
122.905344
 30
0.0
 10
132.894327
 20
122.846338
 30
0.0
 10
132.887436
 20
122.783434
 30
0.0
 10
132.894728
 20
122.721377
 30
0.0
  0
LWPOLYLINE
  5
28b
100
AcDbEntity
  8
WS2812B_4x4_32mil
 62
7
100
AcDbPolyline
 90
5
 70
0
 10
135.995830
 20
136.764963
 30
0.0
 10
135.995830
 20
135.113902
 30
0.0
 10
136.090916
 20
135.113902
 30
0.0
 10
136.090916
 20
126.140807
 30
0.0
 10
133.057508
 20
123.107399
 30
0.0
  0
SPLINE
  5
28c
100
AcDbEntity
  8
WS2812B_4x4_32mil
 62
7
100
AcDbSpline
 70
8
 71
3
 72
8
 73
4
 74
0
 40
0
 40
0
 40
0
 40
0
 40
1
 40
1
 40
1
 40
1
 10
136.755991
 20
125.637995
 30
0.0
 10
136.812153
 20
125.681548
 30
0.0
 10
136.856118
 20
125.738863
 30
0.0
 10
136.883631
 20
125.804392
 30
0.0
  0
SPLINE
  5
28d
100
AcDbEntity
  8
WS2812B_4x4_32mil
 62
7
100
AcDbSpline
 70
8
 71
3
 72
8
 73
4
 74
0
 40
0
 40
0
 40
0
 40
0
 40
1
 40
1
 40
1
 40
1
 10
136.883631
 20
125.804392
 30
0.0
 10
136.886156
 20
125.809680
 30
0.0
 10
136.888568
 20
125.815021
 30
0.0
 10
136.890865
 20
125.820412
 30
0.0
  0
SPLINE
  5
28e
100
AcDbEntity
  8
WS2812B_4x4_32mil
 62
7
100
AcDbSpline
 70
8
 71
3
 72
8
 73
4
 74
0
 40
0
 40
0
 40
0
 40
0
 40
1
 40
1
 40
1
 40
1
 10
136.890865
 20
125.820412
 30
0.0
 10
136.890865
 20
125.820584
 30
0.0
 10
136.890865
 20
125.820756
 30
0.0
 10
136.890865
 20
125.820928
 30
0.0
  0
SPLINE
  5
28f
100
AcDbEntity
  8
WS2812B_4x4_32mil
 62
7
100
AcDbSpline
 70
8
 71
3
 72
8
 73
4
 74
0
 40
0
 40
0
 40
0
 40
0
 40
1
 40
1
 40
1
 40
1
 10
136.890865
 20
125.820928
 30
0.0
 10
136.917185
 20
125.886804
 30
0.0
 10
136.926085
 20
125.958352
 30
0.0
 10
136.916704
 20
126.028669
 30
0.0
  0
LWPOLYLINE
  5
290
100
AcDbEntity
  8
WS2812B_4x4_32mil
 62
7
100
AcDbPolyline
 90
9
 70
0
 10
132.894728
 20
122.721377
 30
0.0
 10
132.894728
 20
121.927111
 30
0.0
 10
132.799642
 20
121.927111
 30
0.0
 10
132.799642
 20
120.276048
 30
0.0
 10
133.815602
 20
120.276048
 30
0.0
 10
133.815602
 20
121.927111
 30
0.0
 10
133.720517
 20
121.927111
 30
0.0
 10
133.720517
 20
122.602521
 30
0.0
 10
136.755991
 20
125.637995
 30
0.0
  0
LWPOLYLINE
  5
291
100
AcDbEntity
  8
WS2812B_4x4_32mil
 62
7
100
AcDbPolyline
 90
6
 70
0
 10
136.916704
 20
126.028669
 30
0.0
 10
136.916704
 20
135.113902
 30
0.0
 10
137.011788
 20
135.113902
 30
0.0
 10
137.011788
 20
136.764963
 30
0.0
 10
135.995830
 20
136.764963
 30
0.0
 10
135.995830
 20
136.764963
 30
0.0
  0
SPLINE
  5
292
100
AcDbEntity
  8
WS2812B_4x4_32mil
 62
7
100
AcDbSpline
 70
8
 71
3
 72
8
 73
4
 74
0
 40
0
 40
0
 40
0
 40
0
 40
1
 40
1
 40
1
 40
1
 10
60.847963
 20
104.792756
 30
0.0
 10
60.826218
 20
104.795704
 30
0.0
 10
60.804273
 20
104.796913
 30
0.0
 10
60.782336
 20
104.796373
 30
0.0
  0
SPLINE
  5
293
100
AcDbEntity
  8
WS2812B_4x4_32mil
 62
7
100
AcDbSpline
 70
8
 71
3
 72
8
 73
4
 74
0
 40
0
 40
0
 40
0
 40
0
 40
1
 40
1
 40
1
 40
1
 10
60.782336
 20
104.796373
 30
0.0
 10
60.732249
 20
104.794798
 30
0.0
 10
60.682867
 20
104.784116
 30
0.0
 10
60.636606
 20
104.764850
 30
0.0
  0
SPLINE
  5
294
100
AcDbEntity
  8
WS2812B_4x4_32mil
 62
7
100
AcDbSpline
 70
8
 71
3
 72
8
 73
4
 74
0
 40
0
 40
0
 40
0
 40
0
 40
1
 40
1
 40
1
 40
1
 10
60.636606
 20
104.764850
 30
0.0
 10
60.632272
 20
104.763200
 30
0.0
 10
60.627966
 20
104.761478
 30
0.0
 10
60.623689
 20
104.759683
 30
0.0
  0
SPLINE
  5
295
100
AcDbEntity
  8
WS2812B_4x4_32mil
 62
7
100
AcDbSpline
 70
8
 71
3
 72
8
 73
4
 74
0
 40
0
 40
0
 40
0
 40
0
 40
1
 40
1
 40
1
 40
1
 10
60.623689
 20
104.759683
 30
0.0
 10
60.622999
 20
104.759340
 30
0.0
 10
60.622309
 20
104.758995
 30
0.0
 10
60.621620
 20
104.758648
 30
0.0
  0
SPLINE
  5
296
100
AcDbEntity
  8
WS2812B_4x4_32mil
 62
7
100
AcDbSpline
 70
8
 71
3
 72
8
 73
4
 74
0
 40
0
 40
0
 40
0
 40
0
 40
1
 40
1
 40
1
 40
1
 10
60.621620
 20
104.758648
 30
0.0
 10
60.557030
 20
104.730757
 30
0.0
 10
60.500641
 20
104.686819
 30
0.0
 10
60.457806
 20
104.631008
 30
0.0
  0
LWPOLYLINE
  5
297
100
AcDbEntity
  8
WS2812B_4x4_32mil
 62
7
100
AcDbPolyline
 90
4
 70
0
 10
76.030501
 20
116.783754
 30
0.0
 10
76.030501
 20
116.033414
 30
0.0
 10
64.789326
 20
104.792756
 30
0.0
 10
60.847963
 20
104.792756
 30
0.0
  0
SPLINE
  5
298
100
AcDbEntity
  8
WS2812B_4x4_32mil
 62
7
100
AcDbSpline
 70
8
 71
3
 72
8
 73
4
 74
0
 40
0
 40
0
 40
0
 40
0
 40
1
 40
1
 40
1
 40
1
 10
60.961652
 20
103.966967
 30
0.0
 10
60.961652
 20
103.966967
 30
0.0
 10
64.911281
 20
103.966967
 30
0.0
 10
64.911281
 20
103.966967
 30
0.0
  0
SPLINE
  5
299
100
AcDbEntity
  8
WS2812B_4x4_32mil
 62
7
100
AcDbSpline
 70
8
 71
3
 72
8
 73
4
 74
0
 40
0
 40
0
 40
0
 40
0
 40
1
 40
1
 40
1
 40
1
 10
64.911281
 20
103.966967
 30
0.0
 10
64.976209
 20
103.959779
 30
0.0
 10
65.041916
 20
103.968102
 30
0.0
 10
65.103000
 20
103.991253
 30
0.0
  0
SPLINE
  5
29a
100
AcDbEntity
  8
WS2812B_4x4_32mil
 62
7
100
AcDbSpline
 70
8
 71
3
 72
8
 73
4
 74
0
 40
0
 40
0
 40
0
 40
0
 40
1
 40
1
 40
1
 40
1
 10
65.103000
 20
103.991253
 30
0.0
 10
65.178606
 20
104.017766
 30
0.0
 10
65.244863
 20
104.065708
 30
0.0
 10
65.293688
 20
104.129231
 30
0.0
  0
LWPOLYLINE
  5
29b
100
AcDbEntity
  8
WS2812B_4x4_32mil
 62
7
100
AcDbPolyline
 90
8
 70
0
 10
60.457806
 20
104.631008
 30
0.0
 10
57.038376
 20
101.211062
 30
0.0
 10
56.875081
 20
101.374360
 30
0.0
 10
55.075708
 20
99.574987
 30
0.0
 10
55.985729
 20
98.664964
 30
0.0
 10
57.785102
 20
100.463821
 30
0.0
 10
57.621804
 20
100.627119
 30
0.0
 10
60.961652
 20
103.966967
 30
0.0
  0
LWPOLYLINE
  5
29c
100
AcDbEntity
  8
WS2812B_4x4_32mil
 62
7
100
AcDbPolyline
 90
6
 70
0
 10
65.293688
 20
104.129231
 30
0.0
 10
76.297150
 20
115.132693
 30
0.0
 10
77.046458
 20
115.132693
 30
0.0
 10
77.046458
 20
116.783754
 30
0.0
 10
76.030501
 20
116.783754
 30
0.0
 10
76.030501
 20
116.783754
 30
0.0
  0
SPLINE
  5
29d
100
AcDbEntity
  8
WS2812B_4x4_32mil
 62
7
100
AcDbSpline
 70
8
 71
3
 72
8
 73
4
 74
0
 40
0
 40
0
 40
0
 40
0
 40
1
 40
1
 40
1
 40
1
 10
99.509686
 20
112.385056
 30
0.0
 10
99.554577
 20
112.325988
 30
0.0
 10
99.614558
 20
112.280110
 30
0.0
 10
99.683319
 20
112.252249
 30
0.0
  0
SPLINE
  5
29e
100
AcDbEntity
  8
WS2812B_4x4_32mil
 62
7
100
AcDbSpline
 70
8
 71
3
 72
8
 73
4
 74
0
 40
0
 40
0
 40
0
 40
0
 40
1
 40
1
 40
1
 40
1
 10
99.683319
 20
112.252249
 30
0.0
 10
99.685892
 20
112.251189
 30
0.0
 10
99.688477
 20
112.250155
 30
0.0
 10
99.691071
 20
112.249148
 30
0.0
  0
SPLINE
  5
29f
100
AcDbEntity
  8
WS2812B_4x4_32mil
 62
7
100
AcDbSpline
 70
8
 71
3
 72
8
 73
4
 74
0
 40
0
 40
0
 40
0
 40
0
 40
1
 40
1
 40
1
 40
1
 10
99.691071
 20
112.249148
 30
0.0
 10
99.693132
 20
112.248443
 30
0.0
 10
99.695198
 20
112.247754
 30
0.0
 10
99.697270
 20
112.247081
 30
0.0
  0
SPLINE
  5
2a0
100
AcDbEntity
  8
WS2812B_4x4_32mil
 62
7
100
AcDbSpline
 70
8
 71
3
 72
8
 73
4
 74
0
 40
0
 40
0
 40
0
 40
0
 40
1
 40
1
 40
1
 40
1
 10
99.697270
 20
112.247081
 30
0.0
 10
99.760383
 20
112.222673
 30
0.0
 10
99.828529
 20
112.214155
 30
0.0
 10
99.895708
 20
112.222277
 30
0.0
  0
SPLINE
  5
2a1
100
AcDbEntity
  8
WS2812B_4x4_32mil
 62
7
100
AcDbSpline
 70
8
 71
3
 72
8
 73
4
 74
0
 40
0
 40
0
 40
0
 40
0
 40
1
 40
1
 40
1
 40
1
 10
99.895708
 20
112.222277
 30
0.0
 10
99.895708
 20
112.222277
 30
0.0
 10
111.635042
 20
112.222277
 30
0.0
 10
111.635042
 20
112.222277
 30
0.0
  0
SPLINE
  5
2a2
100
AcDbEntity
  8
WS2812B_4x4_32mil
 62
7
100
AcDbSpline
 70
8
 71
3
 72
8
 73
4
 74
0
 40
0
 40
0
 40
0
 40
0
 40
1
 40
1
 40
1
 40
1
 10
111.635042
 20
112.222277
 30
0.0
 10
111.702599
 20
112.196807
 30
0.0
 10
111.775655
 20
112.189501
 30
0.0
 10
111.846918
 20
112.201089
 30
0.0
  0
SPLINE
  5
2a3
100
AcDbEntity
  8
WS2812B_4x4_32mil
 62
7
100
AcDbSpline
 70
8
 71
3
 72
8
 73
4
 74
0
 40
0
 40
0
 40
0
 40
0
 40
1
 40
1
 40
1
 40
1
 10
111.846918
 20
112.201089
 30
0.0
 10
111.846918
 20
112.201089
 30
0.0
 10
114.799192
 20
112.201089
 30
0.0
 10
114.799192
 20
112.201089
 30
0.0
  0
SPLINE
  5
2a4
100
AcDbEntity
  8
WS2812B_4x4_32mil
 62
7
100
AcDbSpline
 70
8
 71
3
 72
8
 73
4
 74
0
 40
0
 40
0
 40
0
 40
0
 40
1
 40
1
 40
1
 40
1
 10
114.799192
 20
112.201089
 30
0.0
 10
114.864377
 20
112.193406
 30
0.0
 10
114.930455
 20
112.201377
 30
0.0
 10
114.991943
 20
112.224343
 30
0.0
  0
SPLINE
  5
2a5
100
AcDbEntity
  8
WS2812B_4x4_32mil
 62
7
100
AcDbSpline
 70
8
 71
3
 72
8
 73
4
 74
0
 40
0
 40
0
 40
0
 40
0
 40
1
 40
1
 40
1
 40
1
 10
114.991943
 20
112.224343
 30
0.0
 10
115.068563
 20
112.251064
 30
0.0
 10
115.135608
 20
112.299775
 30
0.0
 10
115.184698
 20
112.364387
 30
0.0
  0
LWPOLYLINE
  5
2a6
100
AcDbEntity
  8
WS2812B_4x4_32mil
 62
7
100
AcDbPolyline
 90
4
 70
0
 10
96.012225
 20
116.783754
 30
0.0
 10
96.012225
 20
115.132693
 30
0.0
 10
96.761533
 20
115.132693
 30
0.0
 10
99.509686
 20
112.385056
 30
0.0
  0
SPLINE
  5
2a7
100
AcDbEntity
  8
WS2812B_4x4_32mil
 62
7
100
AcDbSpline
 70
8
 71
3
 72
8
 73
4
 74
0
 40
0
 40
0
 40
0
 40
0
 40
1
 40
1
 40
1
 40
1
 10
116.772198
 20
113.952403
 30
0.0
 10
116.832548
 20
113.998012
 30
0.0
 10
116.879206
 20
114.059327
 30
0.0
 10
116.907074
 20
114.129653
 30
0.0
  0
SPLINE
  5
2a8
100
AcDbEntity
  8
WS2812B_4x4_32mil
 62
7
100
AcDbSpline
 70
8
 71
3
 72
8
 73
4
 74
0
 40
0
 40
0
 40
0
 40
0
 40
1
 40
1
 40
1
 40
1
 10
116.907074
 20
114.129653
 30
0.0
 10
116.907955
 20
114.131884
 30
0.0
 10
116.908815
 20
114.134124
 30
0.0
 10
116.909657
 20
114.136370
 30
0.0
  0
SPLINE
  5
2a9
100
AcDbEntity
  8
WS2812B_4x4_32mil
 62
7
100
AcDbSpline
 70
8
 71
3
 72
8
 73
4
 74
0
 40
0
 40
0
 40
0
 40
0
 40
1
 40
1
 40
1
 40
1
 10
116.909657
 20
114.136370
 30
0.0
 10
116.910007
 20
114.137575
 30
0.0
 10
116.910352
 20
114.138782
 30
0.0
 10
116.910691
 20
114.139990
 30
0.0
  0
SPLINE
  5
2aa
100
AcDbEntity
  8
WS2812B_4x4_32mil
 62
7
100
AcDbSpline
 70
8
 71
3
 72
8
 73
4
 74
0
 40
0
 40
0
 40
0
 40
0
 40
1
 40
1
 40
1
 40
1
 10
116.910691
 20
114.139990
 30
0.0
 10
116.936132
 20
114.205007
 30
0.0
 10
116.944666
 20
114.275414
 30
0.0
 10
116.935496
 20
114.344627
 30
0.0
  0
LWPOLYLINE
  5
2ab
100
AcDbEntity
  8
WS2812B_4x4_32mil
 62
7
100
AcDbPolyline
 90
2
 70
0
 10
115.184698
 20
112.364387
 30
0.0
 10
116.772198
 20
113.952403
 30
0.0
  0
SPLINE
  5
2ac
100
AcDbEntity
  8
WS2812B_4x4_32mil
 62
7
100
AcDbSpline
 70
8
 71
3
 72
8
 73
4
 74
0
 40
0
 40
0
 40
0
 40
0
 40
1
 40
1
 40
1
 40
1
 10
111.927015
 20
113.026361
 30
0.0
 10
111.878511
 20
113.044787
 30
0.0
 10
111.826968
 20
113.053903
 30
0.0
 10
111.775086
 20
113.053232
 30
0.0
  0
SPLINE
  5
2ad
100
AcDbEntity
  8
WS2812B_4x4_32mil
 62
7
100
AcDbSpline
 70
8
 71
3
 72
8
 73
4
 74
0
 40
0
 40
0
 40
0
 40
0
 40
1
 40
1
 40
1
 40
1
 10
111.775086
 20
113.053232
 30
0.0
 10
111.754993
 20
113.052800
 30
0.0
 10
111.734959
 20
113.050900
 30
0.0
 10
111.715142
 20
113.047549
 30
0.0
  0
LWPOLYLINE
  5
2ae
100
AcDbEntity
  8
WS2812B_4x4_32mil
 62
7
100
AcDbPolyline
 90
10
 70
0
 10
116.935496
 20
114.344627
 30
0.0
 10
116.935496
 20
115.132693
 30
0.0
 10
117.030579
 20
115.132693
 30
0.0
 10
117.030579
 20
116.783754
 30
0.0
 10
116.014621
 20
116.783754
 30
0.0
 10
116.014621
 20
115.132693
 30
0.0
 10
116.109705
 20
115.132693
 30
0.0
 10
116.109705
 20
114.456765
 30
0.0
 10
114.679301
 20
113.026361
 30
0.0
 10
111.927015
 20
113.026361
 30
0.0
  0
LWPOLYLINE
  5
2af
100
AcDbEntity
  8
WS2812B_4x4_32mil
 62
7
100
AcDbPolyline
 90
6
 70
0
 10
111.715142
 20
113.047549
 30
0.0
 10
100.014048
 20
113.047549
 30
0.0
 10
97.028183
 20
116.033414
 30
0.0
 10
97.028183
 20
116.783754
 30
0.0
 10
96.012225
 20
116.783754
 30
0.0
 10
96.012225
 20
116.783754
 30
0.0
  0
LWPOLYLINE
  5
2b0
100
AcDbEntity
  8
WS2812B_4x4_32mil
 62
7
100
AcDbPolyline
 90
12
 70
1
 10
135.995830
 20
116.783754
 30
0.0
 10
135.995830
 20
115.132693
 30
0.0
 10
136.780796
 20
115.132693
 30
0.0
 10
152.174688
 20
100.706184
 30
0.0
 10
151.975732
 20
100.507228
 30
0.0
 10
153.774589
 20
98.708374
 30
0.0
 10
154.685128
 20
99.618395
 30
0.0
 10
152.885755
 20
101.417768
 30
0.0
 10
152.758631
 20
101.290643
 30
0.0
 10
137.011788
 20
116.047366
 30
0.0
 10
137.011788
 20
116.783754
 30
0.0
 10
135.995830
 20
116.783754
 30
0.0
  0
ENDSEC
  0
SECTION
  2
OBJECTS
  0
DICTIONARY
  5
C
330
0
100
AcDbDictionary
  3
ACAD_GROUP
350
D
  3
ACAD_MLINESTYLE
350
17
  0
DICTIONARY
  5
D
330
C
100
AcDbDictionary
  0
DICTIONARY
  5
1A
330
C
100
AcDbDictionary
  0
DICTIONARY
  5
17
330
C
100
AcDbDictionary
  3
STANDARD
350
18
  0
DICTIONARY
  5
19
330
C
100
AcDbDictionary
  0
ENDSEC
  0
EOF
