  0
SECTION
  2
HEADER
  9
$ACADVER
  1
AC1014
  9
$HANDSEED
  5
FFFF
  9
$MEASUREMENT
 70
     1
  0
ENDSEC
  0
SECTION
  2
TABLES
  0
TABLE
  2
VPORT
  5
8
330
0
100
AcDbSymbolTable
 70
     4
  0
VPORT
  5
2E
330
8
100
AcDbSymbolTableRecord
100
AcDbViewportTableRecord
  2
*ACTIVE
 70
     0
 10
0.0
 20
0.0
 11
1.0
 21
1.0
 12
210.0
 22
148.5
 13
0.0
 23
0.0
 14
10.0
 24
10.0
 15
10.0
 25
10.0
 16
0.0
 26
0.0
 36
1.0
 17
0.0
 27
0.0
 37
0.0
 40
341.0
 41
1.24
 42
50.0
 43
0.0
 44
0.0
 50
0.0
 51
0.0
 71
     0
 72
   100
 73
     1
 74
     3
 75
     0
 76
     0
 77
     0
 78
     0
  0
ENDTAB
  0
TABLE
  2
LTYPE
  5
5
330
0
100
AcDbSymbolTable
 70
     1
  0
LTYPE
  5
14
330
5
100
AcDbSymbolTableRecord
100
AcDbLinetypeTableRecord
  2
BYBLOCK
 70
     0
  3

 72
    65
 73
     0
 40
0.0
  0
LTYPE
  5
15
330
5
100
AcDbSymbolTableRecord
100
AcDbLinetypeTableRecord
  2
BYLAYER
 70
     0
  3

 72
    65
 73
     0
 40
0.0
  0
LTYPE
  5
16
330
5
100
AcDbSymbolTableRecord
100
AcDbLinetypeTableRecord
  2
CONTINUOUS
 70
     0
  3
Solid line
 72
    65
 73
     0
 40
0.0
  0
ENDTAB
  0
TABLE
  2
LAYER
  5
2
100
AcDbSymbolTable
 70
2
  0
LAYER
  5
50
100
AcDbSymbolTableRecord
100
AcDbLayerTableRecord
  2
0
 70
0
  6
CONTINUOUS
  0
LAYER
  5
51
100
AcDbSymbolTableRecord
100
AcDbLayerTableRecord
  2
WS2812B_4x4_40mil
 70
0
  6
CONTINUOUS
  0
ENDTAB
  0
TABLE
  2
STYLE
  5
3
330
0
100
AcDbSymbolTable
 70
     1
  0
STYLE
  5
11
330
3
100
AcDbSymbolTableRecord
100
AcDbTextStyleTableRecord
  2
STANDARD
 70
     0
 40
0.0
 41
1.0
 50
0.0
 71
     0
 42
2.5
  3
txt
  4

  0
ENDTAB
  0
TABLE
  2
VIEW
  5
6
330
0
100
AcDbSymbolTable
 70
     0
  0
ENDTAB
  0
TABLE
  2
UCS
  5
7
330
0
100
AcDbSymbolTable
 70
     0
  0
ENDTAB
  0
TABLE
  2
APPID
  5
9
330
0
100
AcDbSymbolTable
 70
     2
  0
APPID
  5
12
330
9
100
AcDbSymbolTableRecord
100
AcDbRegAppTableRecord
  2
ACAD
 70
     0
  0
ENDTAB
  0
TABLE
  2
DIMSTYLE
  5
A
330
0
100
AcDbSymbolTable
 70
     1
  0
DIMSTYLE
105
27
330
A
100
AcDbSymbolTableRecord
100
AcDbDimStyleTableRecord
  2
ISO-25
 70
     0
  3

  4

  5

  6

  7

 40
1.0
 41
2.5
 42
0.625
 43
3.75
 44
1.25
 45
0.0
 46
0.0
 47
0.0
 48
0.0
140
2.5
141
2.5
142
0.0
143
0.03937007874016
144
1.0
145
0.0
146
1.0
147
0.625
 71
     0
 72
     0
 73
     0
 74
     0
 75
     0
 76
     0
 77
     1
 78
     8
170
     0
171
     3
172
     1
173
     0
174
     0
175
     0
176
     0
177
     0
178
     0
270
     2
271
     2
272
     2
273
     2
274
     3
340
11
275
     0
280
     0
281
     0
282
     0
283
     0
284
     8
285
     0
286
     0
287
     3
288
     0
  0
ENDTAB
  0
TABLE
  2
BLOCK_RECORD
  5
1
330
0
100
AcDbSymbolTable
 70
     1
  0
BLOCK_RECORD
  5
1F
330
1
100
AcDbSymbolTableRecord
100
AcDbBlockTableRecord
  2
*MODEL_SPACE
  0
BLOCK_RECORD
  5
1B
330
1
100
AcDbSymbolTableRecord
100
AcDbBlockTableRecord
  2
*PAPER_SPACE
  0
ENDTAB
  0
ENDSEC
  0
SECTION
  2
BLOCKS
  0
BLOCK
  5
20
330
1F
100
AcDbEntity
  8
0
100
AcDbBlockBegin
  2
*MODEL_SPACE
 70
     0
 10
0.0
 20
0.0
 30
0.0
  3
*MODEL_SPACE
  1

  0
ENDBLK
  5
21
330
1F
100
AcDbEntity
  8
0
100
AcDbBlockEnd
  0
BLOCK
  5
1C
330
1B
100
AcDbEntity
 67
     1
  8
0
100
AcDbBlockBegin
  2
*PAPER_SPACE
  1

  0
ENDBLK
  5
1D
330
1B
100
AcDbEntity
 67
     1
  8
0
100
AcDbBlockEnd
  0
ENDSEC
  0
SECTION
  2
ENTITIES
  0
SPLINE
  5
100
100
AcDbEntity
  8
WS2812B_4x4_40mil
 62
7
100
AcDbSpline
 70
8
 71
3
 72
8
 73
4
 74
0
 40
0
 40
0
 40
0
 40
0
 40
1
 40
1
 40
1
 40
1
 10
54.940831
 20
199.023179
 30
0.0
 10
54.810933
 20
199.020891
 30
0.0
 10
54.686846
 20
198.968926
 30
0.0
 10
54.594081
 20
198.877968
 30
0.0
  0
SPLINE
  5
101
100
AcDbEntity
  8
WS2812B_4x4_40mil
 62
7
100
AcDbSpline
 70
8
 71
3
 72
8
 73
4
 74
0
 40
0
 40
0
 40
0
 40
0
 40
1
 40
1
 40
1
 40
1
 10
54.594081
 20
198.877968
 30
0.0
 10
54.471528
 20
198.762616
 30
0.0
 10
54.414053
 20
198.594060
 30
0.0
 10
54.440604
 20
198.427866
 30
0.0
  0
SPLINE
  5
102
100
AcDbEntity
  8
WS2812B_4x4_40mil
 62
7
100
AcDbSpline
 70
8
 71
3
 72
8
 73
4
 74
0
 40
0
 40
0
 40
0
 40
0
 40
1
 40
1
 40
1
 40
1
 10
54.440604
 20
195.502461
 30
0.0
 10
54.437515
 20
195.318940
 30
0.0
 10
54.533654
 20
195.148021
 30
0.0
 10
54.692093
 20
195.055357
 30
0.0
  0
SPLINE
  5
103
100
AcDbEntity
  8
WS2812B_4x4_40mil
 62
7
100
AcDbSpline
 70
8
 71
3
 72
8
 73
4
 74
0
 40
0
 40
0
 40
0
 40
0
 40
1
 40
1
 40
1
 40
1
 10
54.692093
 20
195.055357
 30
0.0
 10
54.850533
 20
194.962693
 30
0.0
 10
55.046634
 20
194.962693
 30
0.0
 10
55.205073
 20
195.055357
 30
0.0
  0
SPLINE
  5
104
100
AcDbEntity
  8
WS2812B_4x4_40mil
 62
7
100
AcDbSpline
 70
8
 71
3
 72
8
 73
4
 74
0
 40
0
 40
0
 40
0
 40
0
 40
1
 40
1
 40
1
 40
1
 10
55.205073
 20
195.055357
 30
0.0
 10
55.363513
 20
195.148021
 30
0.0
 10
55.459651
 20
195.318940
 30
0.0
 10
55.456562
 20
195.502461
 30
0.0
  0
LWPOLYLINE
  5
105
100
AcDbEntity
  8
WS2812B_4x4_40mil
 62
7
100
AcDbPolyline
 90
2
 70
0
 10
54.440604
 20
198.427866
 30
0.0
 10
54.440604
 20
195.502461
 30
0.0
  0
SPLINE
  5
106
100
AcDbEntity
  8
WS2812B_4x4_40mil
 62
7
100
AcDbSpline
 70
8
 71
3
 72
8
 73
4
 74
0
 40
0
 40
0
 40
0
 40
0
 40
1
 40
1
 40
1
 40
1
 10
57.954083
 20
197.999985
 30
0.0
 10
58.137605
 20
197.996896
 30
0.0
 10
58.308523
 20
198.093034
 30
0.0
 10
58.401187
 20
198.251474
 30
0.0
  0
SPLINE
  5
107
100
AcDbEntity
  8
WS2812B_4x4_40mil
 62
7
100
AcDbSpline
 70
8
 71
3
 72
8
 73
4
 74
0
 40
0
 40
0
 40
0
 40
0
 40
1
 40
1
 40
1
 40
1
 10
58.401187
 20
198.251474
 30
0.0
 10
58.493851
 20
198.409913
 30
0.0
 10
58.493851
 20
198.606014
 30
0.0
 10
58.401187
 20
198.764454
 30
0.0
  0
SPLINE
  5
108
100
AcDbEntity
  8
WS2812B_4x4_40mil
 62
7
100
AcDbSpline
 70
8
 71
3
 72
8
 73
4
 74
0
 40
0
 40
0
 40
0
 40
0
 40
1
 40
1
 40
1
 40
1
 10
58.401187
 20
198.764454
 30
0.0
 10
58.308523
 20
198.922893
 30
0.0
 10
58.137605
 20
199.019032
 30
0.0
 10
57.954083
 20
199.015942
 30
0.0
  0
SPLINE
  5
109
100
AcDbEntity
  8
WS2812B_4x4_40mil
 62
7
100
AcDbSpline
 70
8
 71
3
 72
8
 73
4
 74
0
 40
0
 40
0
 40
0
 40
0
 40
1
 40
1
 40
1
 40
1
 10
57.954083
 20
199.015942
 30
0.0
 10
57.954083
 20
199.015942
 30
0.0
 10
55.031266
 20
199.015942
 30
0.0
 10
55.031266
 20
199.015942
 30
0.0
  0
SPLINE
  5
10a
100
AcDbEntity
  8
WS2812B_4x4_40mil
 62
7
100
AcDbSpline
 70
8
 71
3
 72
8
 73
4
 74
0
 40
0
 40
0
 40
0
 40
0
 40
1
 40
1
 40
1
 40
1
 10
55.031266
 20
199.015942
 30
0.0
 10
55.001397
 20
199.021047
 30
0.0
 10
54.971131
 20
199.023468
 30
0.0
 10
54.940831
 20
199.023179
 30
0.0
  0
LWPOLYLINE
  5
10b
100
AcDbEntity
  8
WS2812B_4x4_40mil
 62
7
100
AcDbPolyline
 90
3
 70
0
 10
55.456562
 20
195.502461
 30
0.0
 10
55.456562
 20
197.999985
 30
0.0
 10
57.954083
 20
197.999985
 30
0.0
  0
SPLINE
  5
10c
100
AcDbEntity
  8
WS2812B_4x4_40mil
 62
7
100
AcDbSpline
 70
8
 71
3
 72
8
 73
4
 74
0
 40
0
 40
0
 40
0
 40
0
 40
1
 40
1
 40
1
 40
1
 10
154.889768
 20
199.023179
 30
0.0
 10
154.864473
 20
199.022649
 30
0.0
 10
154.839253
 20
199.020230
 30
0.0
 10
154.814319
 20
199.015942
 30
0.0
  0
LWPOLYLINE
  5
10d
100
AcDbEntity
  8
WS2812B_4x4_40mil
 62
7
100
AcDbPolyline
 90
1
 70
1
 10
54.940831
 20
199.023179
 30
0.0
  0
SPLINE
  5
10e
100
AcDbEntity
  8
WS2812B_4x4_40mil
 62
7
100
AcDbSpline
 70
8
 71
3
 72
8
 73
4
 74
0
 40
0
 40
0
 40
0
 40
0
 40
1
 40
1
 40
1
 40
1
 10
151.913205
 20
199.015942
 30
0.0
 10
151.729684
 20
199.019032
 30
0.0
 10
151.558766
 20
198.922893
 30
0.0
 10
151.466101
 20
198.764454
 30
0.0
  0
SPLINE
  5
10f
100
AcDbEntity
  8
WS2812B_4x4_40mil
 62
7
100
AcDbSpline
 70
8
 71
3
 72
8
 73
4
 74
0
 40
0
 40
0
 40
0
 40
0
 40
1
 40
1
 40
1
 40
1
 10
151.466101
 20
198.764454
 30
0.0
 10
151.373437
 20
198.606014
 30
0.0
 10
151.373437
 20
198.409913
 30
0.0
 10
151.466101
 20
198.251474
 30
0.0
  0
SPLINE
  5
110
100
AcDbEntity
  8
WS2812B_4x4_40mil
 62
7
100
AcDbSpline
 70
8
 71
3
 72
8
 73
4
 74
0
 40
0
 40
0
 40
0
 40
0
 40
1
 40
1
 40
1
 40
1
 10
151.466101
 20
198.251474
 30
0.0
 10
151.558766
 20
198.093034
 30
0.0
 10
151.729684
 20
197.996896
 30
0.0
 10
151.913205
 20
197.999985
 30
0.0
  0
LWPOLYLINE
  5
111
100
AcDbEntity
  8
WS2812B_4x4_40mil
 62
7
100
AcDbPolyline
 90
2
 70
0
 10
154.814319
 20
199.015942
 30
0.0
 10
151.913205
 20
199.015942
 30
0.0
  0
SPLINE
  5
112
100
AcDbEntity
  8
WS2812B_4x4_40mil
 62
7
100
AcDbSpline
 70
8
 71
3
 72
8
 73
4
 74
0
 40
0
 40
0
 40
0
 40
0
 40
1
 40
1
 40
1
 40
1
 10
154.389538
 20
195.502461
 30
0.0
 10
154.386478
 20
195.318958
 30
0.0
 10
154.482624
 20
195.148069
 30
0.0
 10
154.641051
 20
195.055423
 30
0.0
  0
SPLINE
  5
113
100
AcDbEntity
  8
WS2812B_4x4_40mil
 62
7
100
AcDbSpline
 70
8
 71
3
 72
8
 73
4
 74
0
 40
0
 40
0
 40
0
 40
0
 40
1
 40
1
 40
1
 40
1
 10
154.641051
 20
195.055423
 30
0.0
 10
154.799479
 20
194.962777
 30
0.0
 10
154.995558
 20
194.962777
 30
0.0
 10
155.153986
 20
195.055423
 30
0.0
  0
SPLINE
  5
114
100
AcDbEntity
  8
WS2812B_4x4_40mil
 62
7
100
AcDbSpline
 70
8
 71
3
 72
8
 73
4
 74
0
 40
0
 40
0
 40
0
 40
0
 40
1
 40
1
 40
1
 40
1
 10
155.153986
 20
195.055423
 30
0.0
 10
155.312414
 20
195.148069
 30
0.0
 10
155.408559
 20
195.318958
 30
0.0
 10
155.405499
 20
195.502461
 30
0.0
  0
SPLINE
  5
115
100
AcDbEntity
  8
WS2812B_4x4_40mil
 62
7
100
AcDbSpline
 70
8
 71
3
 72
8
 73
4
 74
0
 40
0
 40
0
 40
0
 40
0
 40
1
 40
1
 40
1
 40
1
 10
155.405499
 20
195.502461
 30
0.0
 10
155.405499
 20
195.502461
 30
0.0
 10
155.405499
 20
198.422180
 30
0.0
 10
155.405499
 20
198.422180
 30
0.0
  0
SPLINE
  5
116
100
AcDbEntity
  8
WS2812B_4x4_40mil
 62
7
100
AcDbSpline
 70
8
 71
3
 72
8
 73
4
 74
0
 40
0
 40
0
 40
0
 40
0
 40
1
 40
1
 40
1
 40
1
 10
155.405499
 20
198.422180
 30
0.0
 10
155.432817
 20
198.582736
 30
0.0
 10
155.381508
 20
198.746657
 30
0.0
 10
155.267521
 20
198.862982
 30
0.0
  0
SPLINE
  5
117
100
AcDbEntity
  8
WS2812B_4x4_40mil
 62
7
100
AcDbSpline
 70
8
 71
3
 72
8
 73
4
 74
0
 40
0
 40
0
 40
0
 40
0
 40
1
 40
1
 40
1
 40
1
 10
155.267521
 20
198.862982
 30
0.0
 10
155.169726
 20
198.967115
 30
0.0
 10
155.032608
 20
199.025264
 30
0.0
 10
154.889768
 20
199.023179
 30
0.0
  0
LWPOLYLINE
  5
118
100
AcDbEntity
  8
WS2812B_4x4_40mil
 62
7
100
AcDbPolyline
 90
3
 70
0
 10
151.913205
 20
197.999985
 30
0.0
 10
154.389538
 20
197.999985
 30
0.0
 10
154.389538
 20
195.502461
 30
0.0
  0
SPLINE
  5
119
100
AcDbEntity
  8
WS2812B_4x4_40mil
 62
7
100
AcDbSpline
 70
8
 71
3
 72
8
 73
4
 74
0
 40
0
 40
0
 40
0
 40
0
 40
1
 40
1
 40
1
 40
1
 10
132.138184
 20
187.633692
 30
0.0
 10
132.115702
 20
187.633458
 30
0.0
 10
132.093260
 20
187.631732
 30
0.0
 10
132.071006
 20
187.628525
 30
0.0
  0
LWPOLYLINE
  5
11a
100
AcDbEntity
  8
WS2812B_4x4_40mil
 62
7
100
AcDbPolyline
 90
1
 70
1
 10
154.889768
 20
199.023179
 30
0.0
  0
SPLINE
  5
11b
100
AcDbEntity
  8
WS2812B_4x4_40mil
 62
7
100
AcDbSpline
 70
8
 71
3
 72
8
 73
4
 74
0
 40
0
 40
0
 40
0
 40
0
 40
1
 40
1
 40
1
 40
1
 10
114.899442
 20
187.628525
 30
0.0
 10
114.872908
 20
187.632184
 30
0.0
 10
114.846125
 20
187.633740
 30
0.0
 10
114.819345
 20
187.633176
 30
0.0
  0
SPLINE
  5
11c
100
AcDbEntity
  8
WS2812B_4x4_40mil
 62
7
100
AcDbSpline
 70
8
 71
3
 72
8
 73
4
 74
0
 40
0
 40
0
 40
0
 40
0
 40
1
 40
1
 40
1
 40
1
 10
114.819345
 20
187.633176
 30
0.0
 10
114.759382
 20
187.631184
 30
0.0
 10
114.700247
 20
187.618587
 30
0.0
 10
114.644678
 20
187.595968
 30
0.0
  0
SPLINE
  5
11d
100
AcDbEntity
  8
WS2812B_4x4_40mil
 62
7
100
AcDbSpline
 70
8
 71
3
 72
8
 73
4
 74
0
 40
0
 40
0
 40
0
 40
0
 40
1
 40
1
 40
1
 40
1
 10
114.644678
 20
187.595968
 30
0.0
 10
114.554649
 20
187.562395
 30
0.0
 10
114.475986
 20
187.503980
 30
0.0
 10
114.417819
 20
187.427502
 30
0.0
  0
LWPOLYLINE
  5
11e
100
AcDbEntity
  8
WS2812B_4x4_40mil
 62
7
100
AcDbPolyline
 90
2
 70
0
 10
132.071006
 20
187.628525
 30
0.0
 10
114.899442
 20
187.628525
 30
0.0
  0
SPLINE
  5
11f
100
AcDbEntity
  8
WS2812B_4x4_40mil
 62
7
100
AcDbSpline
 70
8
 71
3
 72
8
 73
4
 74
0
 40
0
 40
0
 40
0
 40
0
 40
1
 40
1
 40
1
 40
1
 10
108.224915
 20
181.595819
 30
0.0
 10
108.202149
 20
181.599095
 30
0.0
 10
108.179187
 20
181.600821
 30
0.0
 10
108.156187
 20
181.600986
 30
0.0
  0
SPLINE
  5
120
100
AcDbEntity
  8
WS2812B_4x4_40mil
 62
7
100
AcDbSpline
 70
8
 71
3
 72
8
 73
4
 74
0
 40
0
 40
0
 40
0
 40
0
 40
1
 40
1
 40
1
 40
1
 10
108.156187
 20
181.600986
 30
0.0
 10
108.133704
 20
181.600752
 30
0.0
 10
108.111261
 20
181.599026
 30
0.0
 10
108.089007
 20
181.595819
 30
0.0
  0
LWPOLYLINE
  5
121
100
AcDbEntity
  8
WS2812B_4x4_40mil
 62
7
100
AcDbPolyline
 90
3
 70
0
 10
114.417819
 20
187.427502
 30
0.0
 10
108.586135
 20
181.595819
 30
0.0
 10
108.224915
 20
181.595819
 30
0.0
  0
SPLINE
  5
122
100
AcDbEntity
  8
WS2812B_4x4_40mil
 62
7
100
AcDbSpline
 70
8
 71
3
 72
8
 73
4
 74
0
 40
0
 40
0
 40
0
 40
0
 40
1
 40
1
 40
1
 40
1
 10
95.863913
 20
182.481035
 30
0.0
 10
95.863913
 20
182.481035
 30
0.0
 10
95.863913
 20
183.981720
 30
0.0
 10
95.863913
 20
183.981720
 30
0.0
  0
SPLINE
  5
123
100
AcDbEntity
  8
WS2812B_4x4_40mil
 62
7
100
AcDbSpline
 70
8
 71
3
 72
8
 73
4
 74
0
 40
0
 40
0
 40
0
 40
0
 40
1
 40
1
 40
1
 40
1
 10
95.863913
 20
183.981720
 30
0.0
 10
95.874660
 20
184.066202
 30
0.0
 10
95.863998
 20
184.152030
 30
0.0
 10
95.832906
 20
184.231315
 30
0.0
  0
SPLINE
  5
124
100
AcDbEntity
  8
WS2812B_4x4_40mil
 62
7
100
AcDbSpline
 70
8
 71
3
 72
8
 73
4
 74
0
 40
0
 40
0
 40
0
 40
0
 40
1
 40
1
 40
1
 40
1
 10
95.832906
 20
184.231315
 30
0.0
 10
95.799240
 20
184.324121
 30
0.0
 10
95.739263
 20
184.405108
 30
0.0
 10
95.660308
 20
184.464375
 30
0.0
  0
SPLINE
  5
125
100
AcDbEntity
  8
WS2812B_4x4_40mil
 62
7
100
AcDbSpline
 70
8
 71
3
 72
8
 73
4
 74
0
 40
0
 40
0
 40
0
 40
0
 40
1
 40
1
 40
1
 40
1
 10
95.660308
 20
184.464375
 30
0.0
 10
95.660308
 20
184.464375
 30
0.0
 10
93.182424
 20
186.922624
 30
0.0
 10
93.182424
 20
186.922624
 30
0.0
  0
SPLINE
  5
126
100
AcDbEntity
  8
WS2812B_4x4_40mil
 62
7
100
AcDbSpline
 70
8
 71
3
 72
8
 73
4
 74
0
 40
0
 40
0
 40
0
 40
0
 40
1
 40
1
 40
1
 40
1
 10
93.182424
 20
186.922624
 30
0.0
 10
93.128499
 20
186.992127
 30
0.0
 10
93.057451
 20
187.046436
 30
0.0
 10
92.976235
 20
187.080237
 30
0.0
  0
SPLINE
  5
127
100
AcDbEntity
  8
WS2812B_4x4_40mil
 62
7
100
AcDbSpline
 70
8
 71
3
 72
8
 73
4
 74
0
 40
0
 40
0
 40
0
 40
0
 40
1
 40
1
 40
1
 40
1
 10
92.976235
 20
187.080237
 30
0.0
 10
92.910178
 20
187.110239
 30
0.0
 10
92.838462
 20
187.125746
 30
0.0
 10
92.765912
 20
187.125713
 30
0.0
  0
SPLINE
  5
128
100
AcDbEntity
  8
WS2812B_4x4_40mil
 62
7
100
AcDbSpline
 70
8
 71
3
 72
8
 73
4
 74
0
 40
0
 40
0
 40
0
 40
0
 40
1
 40
1
 40
1
 40
1
 10
92.765912
 20
187.125713
 30
0.0
 10
92.744465
 20
187.125345
 30
0.0
 10
92.723062
 20
187.123619
 30
0.0
 10
92.701833
 20
187.120546
 30
0.0
  0
SPLINE
  5
129
100
AcDbEntity
  8
WS2812B_4x4_40mil
 62
7
100
AcDbSpline
 70
8
 71
3
 72
8
 73
4
 74
0
 40
0
 40
0
 40
0
 40
0
 40
1
 40
1
 40
1
 40
1
 10
92.701833
 20
187.120546
 30
0.0
 10
92.701833
 20
187.120546
 30
0.0
 10
74.428531
 20
187.120546
 30
0.0
 10
74.428531
 20
187.120546
 30
0.0
  0
SPLINE
  5
12a
100
AcDbEntity
  8
WS2812B_4x4_40mil
 62
7
100
AcDbSpline
 70
8
 71
3
 72
8
 73
4
 74
0
 40
0
 40
0
 40
0
 40
0
 40
1
 40
1
 40
1
 40
1
 10
74.428531
 20
187.120546
 30
0.0
 10
74.401995
 20
187.124205
 30
0.0
 10
74.375212
 20
187.125759
 30
0.0
 10
74.348431
 20
187.125195
 30
0.0
  0
SPLINE
  5
12b
100
AcDbEntity
  8
WS2812B_4x4_40mil
 62
7
100
AcDbSpline
 70
8
 71
3
 72
8
 73
4
 74
0
 40
0
 40
0
 40
0
 40
0
 40
1
 40
1
 40
1
 40
1
 10
74.348431
 20
187.125195
 30
0.0
 10
74.288294
 20
187.123264
 30
0.0
 10
74.228978
 20
187.110666
 30
0.0
 10
74.173247
 20
187.087989
 30
0.0
  0
SPLINE
  5
12c
100
AcDbEntity
  8
WS2812B_4x4_40mil
 62
7
100
AcDbSpline
 70
8
 71
3
 72
8
 73
4
 74
0
 40
0
 40
0
 40
0
 40
0
 40
1
 40
1
 40
1
 40
1
 10
74.173247
 20
187.087989
 30
0.0
 10
74.084099
 20
187.054362
 30
0.0
 10
74.006203
 20
186.996343
 30
0.0
 10
73.948455
 20
186.920558
 30
0.0
  0
LWPOLYLINE
  5
12d
100
AcDbEntity
  8
WS2812B_4x4_40mil
 62
7
100
AcDbPolyline
 90
5
 70
0
 10
108.089007
 20
181.595819
 30
0.0
 10
97.028183
 20
181.595819
 30
0.0
 10
97.028183
 20
181.913628
 30
0.0
 10
96.420985
 20
181.913628
 30
0.0
 10
95.863913
 20
182.481035
 30
0.0
  0
SPLINE
  5
12e
100
AcDbEntity
  8
WS2812B_4x4_40mil
 62
7
100
AcDbSpline
 70
8
 71
3
 72
8
 73
4
 74
0
 40
0
 40
0
 40
0
 40
0
 40
1
 40
1
 40
1
 40
1
 10
71.024603
 20
183.996706
 30
0.0
 10
70.952674
 20
183.941945
 30
0.0
 10
70.896659
 20
183.868983
 30
0.0
 10
70.862339
 20
183.785349
 30
0.0
  0
SPLINE
  5
12f
100
AcDbEntity
  8
WS2812B_4x4_40mil
 62
7
100
AcDbSpline
 70
8
 71
3
 72
8
 73
4
 74
0
 40
0
 40
0
 40
0
 40
0
 40
1
 40
1
 40
1
 40
1
 10
70.862339
 20
183.785349
 30
0.0
 10
70.860197
 20
183.780558
 30
0.0
 10
70.858130
 20
183.775734
 30
0.0
 10
70.856137
 20
183.770879
 30
0.0
  0
SPLINE
  5
130
100
AcDbEntity
  8
WS2812B_4x4_40mil
 62
7
100
AcDbSpline
 70
8
 71
3
 72
8
 73
4
 74
0
 40
0
 40
0
 40
0
 40
0
 40
1
 40
1
 40
1
 40
1
 10
70.856137
 20
183.770879
 30
0.0
 10
70.855792
 20
183.770191
 30
0.0
 10
70.855448
 20
183.769502
 30
0.0
 10
70.855105
 20
183.768812
 30
0.0
  0
SPLINE
  5
131
100
AcDbEntity
  8
WS2812B_4x4_40mil
 62
7
100
AcDbSpline
 70
8
 71
3
 72
8
 73
4
 74
0
 40
0
 40
0
 40
0
 40
0
 40
1
 40
1
 40
1
 40
1
 10
70.855105
 20
183.768812
 30
0.0
 10
70.823139
 20
183.688305
 30
0.0
 10
70.812288
 20
183.600961
 30
0.0
 10
70.823583
 20
183.515080
 30
0.0
  0
LWPOLYLINE
  5
132
100
AcDbEntity
  8
WS2812B_4x4_40mil
 62
7
100
AcDbPolyline
 90
2
 70
0
 10
73.948455
 20
186.920558
 30
0.0
 10
71.024603
 20
183.996706
 30
0.0
  0
SPLINE
  5
133
100
AcDbEntity
  8
WS2812B_4x4_40mil
 62
7
100
AcDbSpline
 70
8
 71
3
 72
8
 73
4
 74
0
 40
0
 40
0
 40
0
 40
0
 40
1
 40
1
 40
1
 40
1
 10
70.823583
 20
179.721513
 30
0.0
 10
70.811874
 20
179.633806
 30
0.0
 10
70.823274
 20
179.544562
 30
0.0
 10
70.856656
 20
179.462616
 30
0.0
  0
SPLINE
  5
134
100
AcDbEntity
  8
WS2812B_4x4_40mil
 62
7
100
AcDbSpline
 70
8
 71
3
 72
8
 73
4
 74
0
 40
0
 40
0
 40
0
 40
0
 40
1
 40
1
 40
1
 40
1
 10
70.856656
 20
179.462616
 30
0.0
 10
70.890340
 20
179.373215
 30
0.0
 10
70.948550
 20
179.295123
 30
0.0
 10
71.024603
 20
179.237304
 30
0.0
  0
LWPOLYLINE
  5
135
100
AcDbEntity
  8
WS2812B_4x4_40mil
 62
7
100
AcDbPolyline
 90
2
 70
0
 10
70.823583
 20
183.515080
 30
0.0
 10
70.823583
 20
179.721513
 30
0.0
  0
SPLINE
  5
136
100
AcDbEntity
  8
WS2812B_4x4_40mil
 62
7
100
AcDbSpline
 70
8
 71
3
 72
8
 73
4
 74
0
 40
0
 40
0
 40
0
 40
0
 40
1
 40
1
 40
1
 40
1
 10
69.736309
 20
173.055770
 30
0.0
 10
69.661517
 20
172.999848
 30
0.0
 10
69.603585
 20
172.924393
 30
0.0
 10
69.568878
 20
172.837695
 30
0.0
  0
SPLINE
  5
137
100
AcDbEntity
  8
WS2812B_4x4_40mil
 62
7
100
AcDbSpline
 70
8
 71
3
 72
8
 73
4
 74
0
 40
0
 40
0
 40
0
 40
0
 40
1
 40
1
 40
1
 40
1
 10
69.568878
 20
172.837695
 30
0.0
 10
69.568531
 20
172.836835
 30
0.0
 10
69.568186
 20
172.835974
 30
0.0
 10
69.567844
 20
172.835113
 30
0.0
  0
SPLINE
  5
138
100
AcDbEntity
  8
WS2812B_4x4_40mil
 62
7
100
AcDbSpline
 70
8
 71
3
 72
8
 73
4
 74
0
 40
0
 40
0
 40
0
 40
0
 40
1
 40
1
 40
1
 40
1
 10
69.567844
 20
172.835113
 30
0.0
 10
69.565298
 20
172.828617
 30
0.0
 10
69.562886
 20
172.822070
 30
0.0
 10
69.560610
 20
172.815475
 30
0.0
  0
SPLINE
  5
139
100
AcDbEntity
  8
WS2812B_4x4_40mil
 62
7
100
AcDbSpline
 70
8
 71
3
 72
8
 73
4
 74
0
 40
0
 40
0
 40
0
 40
0
 40
1
 40
1
 40
1
 40
1
 10
69.560610
 20
172.815475
 30
0.0
 10
69.531424
 20
172.737515
 30
0.0
 10
69.521841
 20
172.653578
 30
0.0
 10
69.532705
 20
172.571045
 30
0.0
  0
SPLINE
  5
13a
100
AcDbEntity
  8
WS2812B_4x4_40mil
 62
7
100
AcDbSpline
 70
8
 71
3
 72
8
 73
4
 74
0
 40
0
 40
0
 40
0
 40
0
 40
1
 40
1
 40
1
 40
1
 10
69.532705
 20
172.571045
 30
0.0
 10
69.532705
 20
172.571045
 30
0.0
 10
69.532705
 20
155.983946
 30
0.0
 10
69.532705
 20
155.983946
 30
0.0
  0
SPLINE
  5
13b
100
AcDbEntity
  8
WS2812B_4x4_40mil
 62
7
100
AcDbSpline
 70
8
 71
3
 72
8
 73
4
 74
0
 40
0
 40
0
 40
0
 40
0
 40
1
 40
1
 40
1
 40
1
 10
69.532705
 20
155.983946
 30
0.0
 10
69.526618
 20
155.938847
 30
0.0
 10
69.526618
 20
155.893134
 30
0.0
 10
69.532705
 20
155.848035
 30
0.0
  0
SPLINE
  5
13c
100
AcDbEntity
  8
WS2812B_4x4_40mil
 62
7
100
AcDbSpline
 70
8
 71
3
 72
8
 73
4
 74
0
 40
0
 40
0
 40
0
 40
0
 40
1
 40
1
 40
1
 40
1
 10
69.532705
 20
155.848035
 30
0.0
 10
69.532705
 20
155.848035
 30
0.0
 10
69.532705
 20
136.098337
 30
0.0
 10
69.532705
 20
136.098337
 30
0.0
  0
SPLINE
  5
13d
100
AcDbEntity
  8
WS2812B_4x4_40mil
 62
7
100
AcDbSpline
 70
8
 71
3
 72
8
 73
4
 74
0
 40
0
 40
0
 40
0
 40
0
 40
1
 40
1
 40
1
 40
1
 10
69.532705
 20
136.098337
 30
0.0
 10
69.526192
 20
136.051710
 30
0.0
 10
69.526192
 20
136.004404
 30
0.0
 10
69.532705
 20
135.957777
 30
0.0
  0
LWPOLYLINE
  5
13e
100
AcDbEntity
  8
WS2812B_4x4_40mil
 62
7
100
AcDbPolyline
 90
4
 70
0
 10
71.024603
 20
179.237304
 30
0.0
 10
72.834313
 20
177.427081
 30
0.0
 10
72.834313
 20
176.134136
 30
0.0
 10
69.736309
 20
173.055770
 30
0.0
  0
SPLINE
  5
13f
100
AcDbEntity
  8
WS2812B_4x4_40mil
 62
7
100
AcDbSpline
 70
8
 71
3
 72
8
 73
4
 74
0
 40
0
 40
0
 40
0
 40
0
 40
1
 40
1
 40
1
 40
1
 10
69.532705
 20
119.334504
 30
0.0
 10
69.520302
 20
119.244846
 30
0.0
 10
69.532077
 20
119.153502
 30
0.0
 10
69.566812
 20
119.069921
 30
0.0
  0
SPLINE
  5
140
100
AcDbEntity
  8
WS2812B_4x4_40mil
 62
7
100
AcDbSpline
 70
8
 71
3
 72
8
 73
4
 74
0
 40
0
 40
0
 40
0
 40
0
 40
1
 40
1
 40
1
 40
1
 10
69.566812
 20
119.069921
 30
0.0
 10
69.568642
 20
119.065415
 30
0.0
 10
69.570537
 20
119.060936
 30
0.0
 10
69.572495
 20
119.056485
 30
0.0
  0
SPLINE
  5
141
100
AcDbEntity
  8
WS2812B_4x4_40mil
 62
7
100
AcDbSpline
 70
8
 71
3
 72
8
 73
4
 74
0
 40
0
 40
0
 40
0
 40
0
 40
1
 40
1
 40
1
 40
1
 10
69.572495
 20
119.056485
 30
0.0
 10
69.573341
 20
119.054240
 30
0.0
 10
69.574203
 20
119.052001
 30
0.0
 10
69.575080
 20
119.049767
 30
0.0
  0
SPLINE
  5
142
100
AcDbEntity
  8
WS2812B_4x4_40mil
 62
7
100
AcDbSpline
 70
8
 71
3
 72
8
 73
4
 74
0
 40
0
 40
0
 40
0
 40
0
 40
1
 40
1
 40
1
 40
1
 10
69.575080
 20
119.049767
 30
0.0
 10
69.609930
 20
118.970313
 30
0.0
 10
69.664548
 20
118.901107
 30
0.0
 10
69.733727
 20
118.848745
 30
0.0
  0
LWPOLYLINE
  5
143
100
AcDbEntity
  8
WS2812B_4x4_40mil
 62
7
100
AcDbPolyline
 90
2
 70
0
 10
69.532705
 20
135.957777
 30
0.0
 10
69.532705
 20
119.334504
 30
0.0
  0
SPLINE
  5
144
100
AcDbEntity
  8
WS2812B_4x4_40mil
 62
7
100
AcDbSpline
 70
8
 71
3
 72
8
 73
4
 74
0
 40
0
 40
0
 40
0
 40
0
 40
1
 40
1
 40
1
 40
1
 10
63.840030
 20
107.174006
 30
0.0
 10
63.840030
 20
107.174006
 30
0.0
 10
60.290375
 20
107.174006
 30
0.0
 10
60.290375
 20
107.174006
 30
0.0
  0
SPLINE
  5
145
100
AcDbEntity
  8
WS2812B_4x4_40mil
 62
7
100
AcDbSpline
 70
8
 71
3
 72
8
 73
4
 74
0
 40
0
 40
0
 40
0
 40
0
 40
1
 40
1
 40
1
 40
1
 10
60.290375
 20
107.174006
 30
0.0
 10
60.262987
 20
107.177803
 30
0.0
 10
60.235334
 20
107.179359
 30
0.0
 10
60.207693
 20
107.178657
 30
0.0
  0
SPLINE
  5
146
100
AcDbEntity
  8
WS2812B_4x4_40mil
 62
7
100
AcDbSpline
 70
8
 71
3
 72
8
 73
4
 74
0
 40
0
 40
0
 40
0
 40
0
 40
1
 40
1
 40
1
 40
1
 10
60.207693
 20
107.178657
 30
0.0
 10
60.148254
 20
107.176483
 30
0.0
 10
60.089659
 20
107.163889
 30
0.0
 10
60.034576
 20
107.141449
 30
0.0
  0
SPLINE
  5
147
100
AcDbEntity
  8
WS2812B_4x4_40mil
 62
7
100
AcDbSpline
 70
8
 71
3
 72
8
 73
4
 74
0
 40
0
 40
0
 40
0
 40
0
 40
1
 40
1
 40
1
 40
1
 10
60.034576
 20
107.141449
 30
0.0
 10
59.944547
 20
107.107876
 30
0.0
 10
59.865885
 20
107.049461
 30
0.0
 10
59.807717
 20
106.972983
 30
0.0
  0
LWPOLYLINE
  5
148
100
AcDbEntity
  8
WS2812B_4x4_40mil
 62
7
100
AcDbPolyline
 90
3
 70
0
 10
69.733727
 20
118.848745
 30
0.0
 10
72.623990
 20
115.957966
 30
0.0
 10
63.840030
 20
107.174006
 30
0.0
  0
SPLINE
  5
149
100
AcDbEntity
  8
WS2812B_4x4_40mil
 62
7
100
AcDbSpline
 70
8
 71
3
 72
8
 73
4
 74
0
 40
0
 40
0
 40
0
 40
0
 40
1
 40
1
 40
1
 40
1
 10
63.978005
 20
106.158048
 30
0.0
 10
64.065329
 20
106.146357
 30
0.0
 10
64.154192
 20
106.157576
 30
0.0
 10
64.235871
 20
106.190602
 30
0.0
  0
SPLINE
  5
14a
100
AcDbEntity
  8
WS2812B_4x4_40mil
 62
7
100
AcDbSpline
 70
8
 71
3
 72
8
 73
4
 74
0
 40
0
 40
0
 40
0
 40
0
 40
1
 40
1
 40
1
 40
1
 10
64.235871
 20
106.190602
 30
0.0
 10
64.325523
 20
106.224345
 30
0.0
 10
64.403809
 20
106.282746
 30
0.0
 10
64.461698
 20
106.359068
 30
0.0
  0
LWPOLYLINE
  5
14b
100
AcDbEntity
  8
WS2812B_4x4_40mil
 62
7
100
AcDbPolyline
 90
9
 70
0
 10
59.807717
 20
106.972983
 30
0.0
 10
56.937610
 20
104.086855
 30
0.0
 10
56.832705
 20
104.189175
 30
0.0
 10
55.033332
 20
102.390318
 30
0.0
 10
55.943353
 20
101.500966
 30
0.0
 10
57.742726
 20
103.300342
 30
0.0
 10
57.664695
 20
103.376822
 30
0.0
 10
60.430419
 20
106.158048
 30
0.0
 10
63.978005
 20
106.158048
 30
0.0
  0
SPLINE
  5
14c
100
AcDbEntity
  8
WS2812B_4x4_40mil
 62
7
100
AcDbSpline
 70
8
 71
3
 72
8
 73
4
 74
0
 40
0
 40
0
 40
0
 40
0
 40
1
 40
1
 40
1
 40
1
 10
73.850271
 20
115.132693
 30
0.0
 10
73.850271
 20
115.132693
 30
0.0
 10
73.850271
 20
115.884068
 30
0.0
 10
73.850271
 20
115.884068
 30
0.0
  0
SPLINE
  5
14d
100
AcDbEntity
  8
WS2812B_4x4_40mil
 62
7
100
AcDbSpline
 70
8
 71
3
 72
8
 73
4
 74
0
 40
0
 40
0
 40
0
 40
0
 40
1
 40
1
 40
1
 40
1
 10
73.850271
 20
115.884068
 30
0.0
 10
73.854049
 20
115.910248
 30
0.0
 10
73.855776
 20
115.936684
 30
0.0
 10
73.855438
 20
115.963133
 30
0.0
  0
SPLINE
  5
14e
100
AcDbEntity
  8
WS2812B_4x4_40mil
 62
7
100
AcDbSpline
 70
8
 71
3
 72
8
 73
4
 74
0
 40
0
 40
0
 40
0
 40
0
 40
1
 40
1
 40
1
 40
1
 10
73.855438
 20
115.963133
 30
0.0
 10
73.855447
 20
115.964855
 30
0.0
 10
73.855447
 20
115.966578
 30
0.0
 10
73.855438
 20
115.968300
 30
0.0
  0
SPLINE
  5
14f
100
AcDbEntity
  8
WS2812B_4x4_40mil
 62
7
100
AcDbSpline
 70
8
 71
3
 72
8
 73
4
 74
0
 40
0
 40
0
 40
0
 40
0
 40
1
 40
1
 40
1
 40
1
 10
73.855438
 20
115.968300
 30
0.0
 10
73.855288
 20
115.971058
 30
0.0
 10
73.855116
 20
115.973814
 30
0.0
 10
73.854922
 20
115.976569
 30
0.0
  0
SPLINE
  5
150
100
AcDbEntity
  8
WS2812B_4x4_40mil
 62
7
100
AcDbSpline
 70
8
 71
3
 72
8
 73
4
 74
0
 40
0
 40
0
 40
0
 40
0
 40
1
 40
1
 40
1
 40
1
 10
73.854922
 20
115.976569
 30
0.0
 10
73.854399
 20
115.995244
 30
0.0
 10
73.852846
 20
116.013876
 30
0.0
 10
73.850271
 20
116.032380
 30
0.0
  0
LWPOLYLINE
  5
151
100
AcDbEntity
  8
WS2812B_4x4_40mil
 62
7
100
AcDbPolyline
 90
3
 70
0
 10
64.461698
 20
106.359068
 30
0.0
 10
73.235839
 20
115.132693
 30
0.0
 10
73.850271
 20
115.132693
 30
0.0
  0
SPLINE
  5
152
100
AcDbEntity
  8
WS2812B_4x4_40mil
 62
7
100
AcDbSpline
 70
8
 71
3
 72
8
 73
4
 74
0
 40
0
 40
0
 40
0
 40
0
 40
1
 40
1
 40
1
 40
1
 10
73.850271
 20
135.853910
 30
0.0
 10
73.859645
 20
135.909673
 30
0.0
 10
73.859645
 20
135.966609
 30
0.0
 10
73.850271
 20
136.022372
 30
0.0
  0
LWPOLYLINE
  5
153
100
AcDbEntity
  8
WS2812B_4x4_40mil
 62
7
100
AcDbPolyline
 90
9
 70
0
 10
73.850271
 20
116.032380
 30
0.0
 10
73.850271
 20
116.783754
 30
0.0
 10
73.235321
 20
116.783754
 30
0.0
 10
70.548662
 20
119.470413
 30
0.0
 10
70.548662
 20
135.431195
 30
0.0
 10
72.834313
 20
135.431195
 30
0.0
 10
72.834313
 20
135.113902
 30
0.0
 10
73.850271
 20
135.113902
 30
0.0
 10
73.850271
 20
135.853910
 30
0.0
  0
SPLINE
  5
154
100
AcDbEntity
  8
WS2812B_4x4_40mil
 62
7
100
AcDbSpline
 70
8
 71
3
 72
8
 73
4
 74
0
 40
0
 40
0
 40
0
 40
0
 40
1
 40
1
 40
1
 40
1
 10
73.850271
 20
155.856303
 30
0.0
 10
73.859704
 20
155.912236
 30
0.0
 10
73.859704
 20
155.969354
 30
0.0
 10
73.850271
 20
156.025287
 30
0.0
  0
LWPOLYLINE
  5
155
100
AcDbEntity
  8
WS2812B_4x4_40mil
 62
7
100
AcDbPolyline
 90
10
 70
0
 10
73.850271
 20
136.022372
 30
0.0
 10
73.850271
 20
136.764963
 30
0.0
 10
72.834313
 20
136.764963
 30
0.0
 10
72.834313
 20
136.447153
 30
0.0
 10
70.548662
 20
136.447153
 30
0.0
 10
70.548662
 20
155.434108
 30
0.0
 10
72.834313
 20
155.434108
 30
0.0
 10
72.834313
 20
155.116298
 30
0.0
 10
73.850271
 20
155.116298
 30
0.0
 10
73.850271
 20
155.856303
 30
0.0
  0
SPLINE
  5
156
100
AcDbEntity
  8
WS2812B_4x4_40mil
 62
7
100
AcDbSpline
 70
8
 71
3
 72
8
 73
4
 74
0
 40
0
 40
0
 40
0
 40
0
 40
1
 40
1
 40
1
 40
1
 10
73.850271
 20
175.859734
 30
0.0
 10
73.856545
 20
175.905512
 30
0.0
 10
73.856545
 20
175.951931
 30
0.0
 10
73.850271
 20
175.997709
 30
0.0
  0
LWPOLYLINE
  5
157
100
AcDbEntity
  8
WS2812B_4x4_40mil
 62
7
100
AcDbPolyline
 90
9
 70
0
 10
73.850271
 20
156.025287
 30
0.0
 10
73.850271
 20
156.767359
 30
0.0
 10
72.834313
 20
156.767359
 30
0.0
 10
72.834313
 20
156.450065
 30
0.0
 10
70.548662
 20
156.450065
 30
0.0
 10
70.548662
 20
172.431004
 30
0.0
 10
73.232738
 20
175.097507
 30
0.0
 10
73.850271
 20
175.097507
 30
0.0
 10
73.850271
 20
175.859734
 30
0.0
  0
SPLINE
  5
158
100
AcDbEntity
  8
WS2812B_4x4_40mil
 62
7
100
AcDbSpline
 70
8
 71
3
 72
8
 73
4
 74
0
 40
0
 40
0
 40
0
 40
0
 40
1
 40
1
 40
1
 40
1
 10
73.850271
 20
177.564024
 30
0.0
 10
73.862033
 20
177.651133
 30
0.0
 10
73.850994
 20
177.739804
 30
0.0
 10
73.818232
 20
177.821371
 30
0.0
  0
SPLINE
  5
159
100
AcDbEntity
  8
WS2812B_4x4_40mil
 62
7
100
AcDbSpline
 70
8
 71
3
 72
8
 73
4
 74
0
 40
0
 40
0
 40
0
 40
0
 40
1
 40
1
 40
1
 40
1
 10
73.818232
 20
177.821371
 30
0.0
 10
73.785058
 20
177.910771
 30
0.0
 10
73.727393
 20
177.989030
 30
0.0
 10
73.651833
 20
178.047198
 30
0.0
  0
LWPOLYLINE
  5
15a
100
AcDbEntity
  8
WS2812B_4x4_40mil
 62
7
100
AcDbPolyline
 90
2
 70
0
 10
73.850271
 20
175.997709
 30
0.0
 10
73.850271
 20
177.564024
 30
0.0
  0
SPLINE
  5
15b
100
AcDbEntity
  8
WS2812B_4x4_40mil
 62
7
100
AcDbSpline
 70
8
 71
3
 72
8
 73
4
 74
0
 40
0
 40
0
 40
0
 40
0
 40
1
 40
1
 40
1
 40
1
 10
94.847955
 20
183.839610
 30
0.0
 10
94.847955
 20
183.839610
 30
0.0
 10
94.847955
 20
182.345642
 30
0.0
 10
94.847955
 20
182.345642
 30
0.0
  0
SPLINE
  5
15c
100
AcDbEntity
  8
WS2812B_4x4_40mil
 62
7
100
AcDbSpline
 70
8
 71
3
 72
8
 73
4
 74
0
 40
0
 40
0
 40
0
 40
0
 40
1
 40
1
 40
1
 40
1
 10
94.847955
 20
182.345642
 30
0.0
 10
94.836112
 20
182.256999
 30
0.0
 10
94.847878
 20
182.166800
 30
0.0
 10
94.882063
 20
182.084160
 30
0.0
  0
SPLINE
  5
15d
100
AcDbEntity
  8
WS2812B_4x4_40mil
 62
7
100
AcDbSpline
 70
8
 71
3
 72
8
 73
4
 74
0
 40
0
 40
0
 40
0
 40
0
 40
1
 40
1
 40
1
 40
1
 10
94.882063
 20
182.084160
 30
0.0
 10
94.915053
 20
181.998202
 30
0.0
 10
94.970781
 20
181.922825
 30
0.0
 10
95.043292
 20
181.866085
 30
0.0
  0
LWPOLYLINE
  5
15e
100
AcDbEntity
  8
WS2812B_4x4_40mil
 62
7
100
AcDbPolyline
 90
6
 70
0
 10
73.651833
 20
178.047198
 30
0.0
 10
71.839541
 20
179.858972
 30
0.0
 10
71.839541
 20
183.375038
 30
0.0
 10
74.569091
 20
186.104586
 30
0.0
 10
92.563858
 20
186.104586
 30
0.0
 10
94.847955
 20
183.839610
 30
0.0
  0
SPLINE
  5
15f
100
AcDbEntity
  8
WS2812B_4x4_40mil
 62
7
100
AcDbSpline
 70
8
 71
3
 72
8
 73
4
 74
0
 40
0
 40
0
 40
0
 40
0
 40
1
 40
1
 40
1
 40
1
 10
96.012225
 20
161.171227
 30
0.0
 10
96.002734
 20
161.115125
 30
0.0
 10
96.002734
 20
161.057828
 30
0.0
 10
96.012225
 20
161.001727
 30
0.0
  0
LWPOLYLINE
  5
160
100
AcDbEntity
  8
WS2812B_4x4_40mil
 62
7
100
AcDbPolyline
 90
12
 70
0
 10
95.043292
 20
181.866085
 30
0.0
 10
96.012225
 20
180.879065
 30
0.0
 10
96.012225
 20
180.262565
 30
0.0
 10
97.028183
 20
180.262565
 30
0.0
 10
97.028183
 20
180.579858
 30
0.0
 10
107.951548
 20
180.579858
 30
0.0
 10
112.608111
 20
175.923295
 30
0.0
 10
98.278236
 20
161.593422
 30
0.0
 10
97.028183
 20
161.593422
 30
0.0
 10
97.028183
 20
161.910716
 30
0.0
 10
96.012225
 20
161.910716
 30
0.0
 10
96.012225
 20
161.171227
 30
0.0
  0
SPLINE
  5
161
100
AcDbEntity
  8
WS2812B_4x4_40mil
 62
7
100
AcDbSpline
 70
8
 71
3
 72
8
 73
4
 74
0
 40
0
 40
0
 40
0
 40
0
 40
1
 40
1
 40
1
 40
1
 10
97.028183
 20
160.577462
 30
0.0
 10
97.028183
 20
160.577462
 30
0.0
 10
98.416213
 20
160.577462
 30
0.0
 10
98.416213
 20
160.577462
 30
0.0
  0
SPLINE
  5
162
100
AcDbEntity
  8
WS2812B_4x4_40mil
 62
7
100
AcDbSpline
 70
8
 71
3
 72
8
 73
4
 74
0
 40
0
 40
0
 40
0
 40
0
 40
1
 40
1
 40
1
 40
1
 10
98.416213
 20
160.577462
 30
0.0
 10
98.461481
 20
160.571329
 30
0.0
 10
98.507370
 20
160.571329
 30
0.0
 10
98.552638
 20
160.577462
 30
0.0
  0
LWPOLYLINE
  5
163
100
AcDbEntity
  8
WS2812B_4x4_40mil
 62
7
100
AcDbPolyline
 90
4
 70
0
 10
96.012225
 20
161.001727
 30
0.0
 10
96.012225
 20
160.259652
 30
0.0
 10
97.028183
 20
160.259652
 30
0.0
 10
97.028183
 20
160.577462
 30
0.0
  0
SPLINE
  5
164
100
AcDbEntity
  8
WS2812B_4x4_40mil
 62
7
100
AcDbSpline
 70
8
 71
3
 72
8
 73
4
 74
0
 40
0
 40
0
 40
0
 40
0
 40
1
 40
1
 40
1
 40
1
 10
96.012225
 20
141.929507
 30
0.0
 10
96.012225
 20
141.929507
 30
0.0
 10
96.012225
 20
141.189500
 30
0.0
 10
96.012225
 20
141.189500
 30
0.0
  0
SPLINE
  5
165
100
AcDbEntity
  8
WS2812B_4x4_40mil
 62
7
100
AcDbSpline
 70
8
 71
3
 72
8
 73
4
 74
0
 40
0
 40
0
 40
0
 40
0
 40
1
 40
1
 40
1
 40
1
 10
96.012225
 20
141.189500
 30
0.0
 10
96.002792
 20
141.133567
 30
0.0
 10
96.002792
 20
141.076450
 30
0.0
 10
96.012225
 20
141.020518
 30
0.0
  0
LWPOLYLINE
  5
166
100
AcDbEntity
  8
WS2812B_4x4_40mil
 62
7
100
AcDbPolyline
 90
7
 70
0
 10
98.552638
 20
160.577462
 30
0.0
 10
107.951548
 20
160.577462
 30
0.0
 10
112.607077
 20
155.941055
 30
0.0
 10
98.278236
 20
141.612214
 30
0.0
 10
97.028183
 20
141.612214
 30
0.0
 10
97.028183
 20
141.929507
 30
0.0
 10
96.012225
 20
141.929507
 30
0.0
  0
SPLINE
  5
167
100
AcDbEntity
  8
WS2812B_4x4_40mil
 62
7
100
AcDbSpline
 70
8
 71
3
 72
8
 73
4
 74
0
 40
0
 40
0
 40
0
 40
0
 40
1
 40
1
 40
1
 40
1
 10
97.028183
 20
140.596253
 30
0.0
 10
97.028183
 20
140.596253
 30
0.0
 10
98.414663
 20
140.596253
 30
0.0
 10
98.414663
 20
140.596253
 30
0.0
  0
SPLINE
  5
168
100
AcDbEntity
  8
WS2812B_4x4_40mil
 62
7
100
AcDbSpline
 70
8
 71
3
 72
8
 73
4
 74
0
 40
0
 40
0
 40
0
 40
0
 40
1
 40
1
 40
1
 40
1
 10
98.414663
 20
140.596253
 30
0.0
 10
98.461290
 20
140.589741
 30
0.0
 10
98.508596
 20
140.589741
 30
0.0
 10
98.555223
 20
140.596253
 30
0.0
  0
LWPOLYLINE
  5
169
100
AcDbEntity
  8
WS2812B_4x4_40mil
 62
7
100
AcDbPolyline
 90
4
 70
0
 10
96.012225
 20
141.020518
 30
0.0
 10
96.012225
 20
140.278444
 30
0.0
 10
97.028183
 20
140.278444
 30
0.0
 10
97.028183
 20
140.596253
 30
0.0
  0
SPLINE
  5
16a
100
AcDbEntity
  8
WS2812B_4x4_40mil
 62
7
100
AcDbSpline
 70
8
 71
3
 72
8
 73
4
 74
0
 40
0
 40
0
 40
0
 40
0
 40
1
 40
1
 40
1
 40
1
 10
96.012225
 20
121.927111
 30
0.0
 10
96.012225
 20
121.927111
 30
0.0
 10
96.012225
 20
121.187103
 30
0.0
 10
96.012225
 20
121.187103
 30
0.0
  0
SPLINE
  5
16b
100
AcDbEntity
  8
WS2812B_4x4_40mil
 62
7
100
AcDbSpline
 70
8
 71
3
 72
8
 73
4
 74
0
 40
0
 40
0
 40
0
 40
0
 40
1
 40
1
 40
1
 40
1
 10
96.012225
 20
121.187103
 30
0.0
 10
96.002850
 20
121.131339
 30
0.0
 10
96.002850
 20
121.074402
 30
0.0
 10
96.012225
 20
121.018638
 30
0.0
  0
LWPOLYLINE
  5
16c
100
AcDbEntity
  8
WS2812B_4x4_40mil
 62
7
100
AcDbPolyline
 90
7
 70
0
 10
98.555223
 20
140.596253
 30
0.0
 10
107.951032
 20
140.596253
 30
0.0
 10
112.608111
 20
135.939690
 30
0.0
 10
98.277720
 20
121.609299
 30
0.0
 10
97.028183
 20
121.609299
 30
0.0
 10
97.028183
 20
121.927111
 30
0.0
 10
96.012225
 20
121.927111
 30
0.0
  0
SPLINE
  5
16d
100
AcDbEntity
  8
WS2812B_4x4_40mil
 62
7
100
AcDbSpline
 70
8
 71
3
 72
8
 73
4
 74
0
 40
0
 40
0
 40
0
 40
0
 40
1
 40
1
 40
1
 40
1
 10
98.418796
 20
120.593341
 30
0.0
 10
98.463045
 20
120.587485
 30
0.0
 10
98.507873
 20
120.587485
 30
0.0
 10
98.552122
 20
120.593341
 30
0.0
  0
LWPOLYLINE
  5
16e
100
AcDbEntity
  8
WS2812B_4x4_40mil
 62
7
100
AcDbPolyline
 90
5
 70
0
 10
96.012225
 20
121.018638
 30
0.0
 10
96.012225
 20
120.276048
 30
0.0
 10
97.028183
 20
120.276048
 30
0.0
 10
97.028183
 20
120.593341
 30
0.0
 10
98.418796
 20
120.593341
 30
0.0
  0
SPLINE
  5
16f
100
AcDbEntity
  8
WS2812B_4x4_40mil
 62
7
100
AcDbSpline
 70
8
 71
3
 72
8
 73
4
 74
0
 40
0
 40
0
 40
0
 40
0
 40
1
 40
1
 40
1
 40
1
 10
113.834391
 20
115.132693
 30
0.0
 10
113.834391
 20
115.132693
 30
0.0
 10
113.834391
 20
115.887169
 30
0.0
 10
113.834391
 20
115.887169
 30
0.0
  0
SPLINE
  5
170
100
AcDbEntity
  8
WS2812B_4x4_40mil
 62
7
100
AcDbSpline
 70
8
 71
3
 72
8
 73
4
 74
0
 40
0
 40
0
 40
0
 40
0
 40
1
 40
1
 40
1
 40
1
 10
113.834391
 20
115.887169
 30
0.0
 10
113.840478
 20
115.932267
 30
0.0
 10
113.840478
 20
115.977979
 30
0.0
 10
113.834391
 20
116.023077
 30
0.0
  0
LWPOLYLINE
  5
171
100
AcDbEntity
  8
WS2812B_4x4_40mil
 62
7
100
AcDbPolyline
 90
5
 70
0
 10
98.552122
 20
120.593341
 30
0.0
 10
107.952064
 20
120.593341
 30
0.0
 10
112.818434
 20
115.747125
 30
0.0
 10
112.818434
 20
115.132693
 30
0.0
 10
113.834391
 20
115.132693
 30
0.0
  0
SPLINE
  5
172
100
AcDbEntity
  8
WS2812B_4x4_40mil
 62
7
100
AcDbSpline
 70
8
 71
3
 72
8
 73
4
 74
0
 40
0
 40
0
 40
0
 40
0
 40
1
 40
1
 40
1
 40
1
 10
113.217375
 20
116.783754
 30
0.0
 10
113.217375
 20
116.783754
 30
0.0
 10
108.571665
 20
121.409830
 30
0.0
 10
108.571665
 20
121.409830
 30
0.0
  0
SPLINE
  5
173
100
AcDbEntity
  8
WS2812B_4x4_40mil
 62
7
100
AcDbSpline
 70
8
 71
3
 72
8
 73
4
 74
0
 40
0
 40
0
 40
0
 40
0
 40
1
 40
1
 40
1
 40
1
 10
108.571665
 20
121.409830
 30
0.0
 10
108.517636
 20
121.480494
 30
0.0
 10
108.446002
 20
121.535735
 30
0.0
 10
108.363925
 20
121.570027
 30
0.0
  0
SPLINE
  5
174
100
AcDbEntity
  8
WS2812B_4x4_40mil
 62
7
100
AcDbSpline
 70
8
 71
3
 72
8
 73
4
 74
0
 40
0
 40
0
 40
0
 40
0
 40
1
 40
1
 40
1
 40
1
 10
108.363925
 20
121.570027
 30
0.0
 10
108.298266
 20
121.599457
 30
0.0
 10
108.227105
 20
121.614606
 30
0.0
 10
108.155153
 20
121.614469
 30
0.0
  0
SPLINE
  5
175
100
AcDbEntity
  8
WS2812B_4x4_40mil
 62
7
100
AcDbSpline
 70
8
 71
3
 72
8
 73
4
 74
0
 40
0
 40
0
 40
0
 40
0
 40
1
 40
1
 40
1
 40
1
 10
108.155153
 20
121.614469
 30
0.0
 10
108.132669
 20
121.614234
 30
0.0
 10
108.110227
 20
121.612507
 30
0.0
 10
108.087972
 20
121.609299
 30
0.0
  0
LWPOLYLINE
  5
176
100
AcDbEntity
  8
WS2812B_4x4_40mil
 62
7
100
AcDbPolyline
 90
3
 70
0
 10
113.834391
 20
116.023077
 30
0.0
 10
113.834391
 20
116.783754
 30
0.0
 10
113.217375
 20
116.783754
 30
0.0
  0
SPLINE
  5
177
100
AcDbEntity
  8
WS2812B_4x4_40mil
 62
7
100
AcDbSpline
 70
8
 71
3
 72
8
 73
4
 74
0
 40
0
 40
0
 40
0
 40
0
 40
1
 40
1
 40
1
 40
1
 10
113.834391
 20
135.869412
 30
0.0
 10
113.836775
 20
135.887753
 30
0.0
 10
113.838156
 20
135.906212
 30
0.0
 10
113.838527
 20
135.924704
 30
0.0
  0
SPLINE
  5
178
100
AcDbEntity
  8
WS2812B_4x4_40mil
 62
7
100
AcDbSpline
 70
8
 71
3
 72
8
 73
4
 74
0
 40
0
 40
0
 40
0
 40
0
 40
1
 40
1
 40
1
 40
1
 10
113.838527
 20
135.924704
 30
0.0
 10
113.839660
 20
135.953880
 30
0.0
 10
113.838277
 20
135.983099
 30
0.0
 10
113.834391
 20
136.012038
 30
0.0
  0
LWPOLYLINE
  5
179
100
AcDbEntity
  8
WS2812B_4x4_40mil
 62
7
100
AcDbPolyline
 90
5
 70
0
 10
108.087972
 20
121.609299
 30
0.0
 10
99.714841
 20
121.609299
 30
0.0
 10
113.219444
 20
135.113902
 30
0.0
 10
113.834391
 20
135.113902
 30
0.0
 10
113.834391
 20
135.869412
 30
0.0
  0
SPLINE
  5
17a
100
AcDbEntity
  8
WS2812B_4x4_40mil
 62
7
100
AcDbSpline
 70
8
 71
3
 72
8
 73
4
 74
0
 40
0
 40
0
 40
0
 40
0
 40
1
 40
1
 40
1
 40
1
 10
113.219444
 20
136.764963
 30
0.0
 10
113.219444
 20
136.764963
 30
0.0
 10
108.570630
 20
141.413776
 30
0.0
 10
108.570630
 20
141.413776
 30
0.0
  0
SPLINE
  5
17b
100
AcDbEntity
  8
WS2812B_4x4_40mil
 62
7
100
AcDbSpline
 70
8
 71
3
 72
8
 73
4
 74
0
 40
0
 40
0
 40
0
 40
0
 40
1
 40
1
 40
1
 40
1
 10
108.570630
 20
141.413776
 30
0.0
 10
108.516692
 20
141.483729
 30
0.0
 10
108.445447
 20
141.538410
 30
0.0
 10
108.363925
 20
141.572423
 30
0.0
  0
SPLINE
  5
17c
100
AcDbEntity
  8
WS2812B_4x4_40mil
 62
7
100
AcDbSpline
 70
8
 71
3
 72
8
 73
4
 74
0
 40
0
 40
0
 40
0
 40
0
 40
1
 40
1
 40
1
 40
1
 10
108.363925
 20
141.572423
 30
0.0
 10
108.357946
 20
141.575123
 30
0.0
 10
108.351916
 20
141.577707
 30
0.0
 10
108.345838
 20
141.580173
 30
0.0
  0
SPLINE
  5
17d
100
AcDbEntity
  8
WS2812B_4x4_40mil
 62
7
100
AcDbSpline
 70
8
 71
3
 72
8
 73
4
 74
0
 40
0
 40
0
 40
0
 40
0
 40
1
 40
1
 40
1
 40
1
 10
108.345838
 20
141.580173
 30
0.0
 10
108.345494
 20
141.580346
 30
0.0
 10
108.345150
 20
141.580519
 30
0.0
 10
108.344806
 20
141.580691
 30
0.0
  0
SPLINE
  5
17e
100
AcDbEntity
  8
WS2812B_4x4_40mil
 62
7
100
AcDbSpline
 70
8
 71
3
 72
8
 73
4
 74
0
 40
0
 40
0
 40
0
 40
0
 40
1
 40
1
 40
1
 40
1
 10
108.344806
 20
141.580691
 30
0.0
 10
108.284839
 20
141.604808
 30
0.0
 10
108.220821
 20
141.617261
 30
0.0
 10
108.156187
 20
141.617381
 30
0.0
  0
SPLINE
  5
17f
100
AcDbEntity
  8
WS2812B_4x4_40mil
 62
7
100
AcDbSpline
 70
8
 71
3
 72
8
 73
4
 74
0
 40
0
 40
0
 40
0
 40
0
 40
1
 40
1
 40
1
 40
1
 10
108.156187
 20
141.617381
 30
0.0
 10
108.133704
 20
141.617147
 30
0.0
 10
108.111261
 20
141.615421
 30
0.0
 10
108.089007
 20
141.612214
 30
0.0
  0
LWPOLYLINE
  5
180
100
AcDbEntity
  8
WS2812B_4x4_40mil
 62
7
100
AcDbPolyline
 90
3
 70
0
 10
113.834391
 20
136.012038
 30
0.0
 10
113.834391
 20
136.764963
 30
0.0
 10
113.219444
 20
136.764963
 30
0.0
  0
SPLINE
  5
181
100
AcDbEntity
  8
WS2812B_4x4_40mil
 62
7
100
AcDbSpline
 70
8
 71
3
 72
8
 73
4
 74
0
 40
0
 40
0
 40
0
 40
0
 40
1
 40
1
 40
1
 40
1
 10
113.834391
 20
155.870773
 30
0.0
 10
113.836775
 20
155.889116
 30
0.0
 10
113.838156
 20
155.907575
 30
0.0
 10
113.838527
 20
155.926069
 30
0.0
  0
SPLINE
  5
182
100
AcDbEntity
  8
WS2812B_4x4_40mil
 62
7
100
AcDbSpline
 70
8
 71
3
 72
8
 73
4
 74
0
 40
0
 40
0
 40
0
 40
0
 40
1
 40
1
 40
1
 40
1
 10
113.838527
 20
155.926069
 30
0.0
 10
113.839720
 20
155.955588
 30
0.0
 10
113.838336
 20
155.985155
 30
0.0
 10
113.834391
 20
156.014434
 30
0.0
  0
LWPOLYLINE
  5
183
100
AcDbEntity
  8
WS2812B_4x4_40mil
 62
7
100
AcDbPolyline
 90
5
 70
0
 10
108.089007
 20
141.612214
 30
0.0
 10
99.714841
 20
141.612214
 30
0.0
 10
113.219444
 20
155.116298
 30
0.0
 10
113.834391
 20
155.116298
 30
0.0
 10
113.834391
 20
155.870773
 30
0.0
  0
SPLINE
  5
184
100
AcDbEntity
  8
WS2812B_4x4_40mil
 62
7
100
AcDbSpline
 70
8
 71
3
 72
8
 73
4
 74
0
 40
0
 40
0
 40
0
 40
0
 40
1
 40
1
 40
1
 40
1
 10
108.572699
 20
161.392918
 30
0.0
 10
108.518089
 20
161.464322
 30
0.0
 10
108.445512
 20
161.519958
 30
0.0
 10
108.362374
 20
161.554148
 30
0.0
  0
SPLINE
  5
185
100
AcDbEntity
  8
WS2812B_4x4_40mil
 62
7
100
AcDbSpline
 70
8
 71
3
 72
8
 73
4
 74
0
 40
0
 40
0
 40
0
 40
0
 40
1
 40
1
 40
1
 40
1
 10
108.362374
 20
161.554148
 30
0.0
 10
108.297193
 20
161.583364
 30
0.0
 10
108.226583
 20
161.598508
 30
0.0
 10
108.155153
 20
161.598590
 30
0.0
  0
SPLINE
  5
186
100
AcDbEntity
  8
WS2812B_4x4_40mil
 62
7
100
AcDbSpline
 70
8
 71
3
 72
8
 73
4
 74
0
 40
0
 40
0
 40
0
 40
0
 40
1
 40
1
 40
1
 40
1
 10
108.155153
 20
161.598590
 30
0.0
 10
108.132669
 20
161.598356
 30
0.0
 10
108.110227
 20
161.596629
 30
0.0
 10
108.087972
 20
161.593422
 30
0.0
  0
LWPOLYLINE
  5
187
100
AcDbEntity
  8
WS2812B_4x4_40mil
 62
7
100
AcDbPolyline
 90
4
 70
0
 10
113.834391
 20
156.014434
 30
0.0
 10
113.834391
 20
156.767359
 30
0.0
 10
113.217375
 20
156.767359
 30
0.0
 10
108.572699
 20
161.392918
 30
0.0
  0
SPLINE
  5
188
100
AcDbEntity
  8
WS2812B_4x4_40mil
 62
7
100
AcDbSpline
 70
8
 71
3
 72
8
 73
4
 74
0
 40
0
 40
0
 40
0
 40
0
 40
1
 40
1
 40
1
 40
1
 10
113.834391
 20
175.853532
 30
0.0
 10
113.836757
 20
175.871703
 30
0.0
 10
113.838137
 20
175.889989
 30
0.0
 10
113.838527
 20
175.908309
 30
0.0
  0
SPLINE
  5
189
100
AcDbEntity
  8
WS2812B_4x4_40mil
 62
7
100
AcDbSpline
 70
8
 71
3
 72
8
 73
4
 74
0
 40
0
 40
0
 40
0
 40
0
 40
1
 40
1
 40
1
 40
1
 10
113.838527
 20
175.908309
 30
0.0
 10
113.839660
 20
175.937485
 30
0.0
 10
113.838277
 20
175.966704
 30
0.0
 10
113.834391
 20
175.995643
 30
0.0
  0
LWPOLYLINE
  5
18a
100
AcDbEntity
  8
WS2812B_4x4_40mil
 62
7
100
AcDbPolyline
 90
5
 70
0
 10
108.087972
 20
161.593422
 30
0.0
 10
99.714841
 20
161.593422
 30
0.0
 10
113.218926
 20
175.097507
 30
0.0
 10
113.834391
 20
175.097507
 30
0.0
 10
113.834391
 20
175.853532
 30
0.0
  0
SPLINE
  5
18b
100
AcDbEntity
  8
WS2812B_4x4_40mil
 62
7
100
AcDbSpline
 70
8
 71
3
 72
8
 73
4
 74
0
 40
0
 40
0
 40
0
 40
0
 40
1
 40
1
 40
1
 40
1
 10
113.219444
 20
176.748570
 30
0.0
 10
113.219444
 20
176.748570
 30
0.0
 10
109.199016
 20
180.768996
 30
0.0
 10
109.199016
 20
180.768996
 30
0.0
  0
SPLINE
  5
18c
100
AcDbEntity
  8
WS2812B_4x4_40mil
 62
7
100
AcDbSpline
 70
8
 71
3
 72
8
 73
4
 74
0
 40
0
 40
0
 40
0
 40
0
 40
1
 40
1
 40
1
 40
1
 10
109.199016
 20
180.768996
 30
0.0
 10
109.201820
 20
180.772575
 30
0.0
 10
109.204577
 20
180.776193
 30
0.0
 10
109.207284
 20
180.779846
 30
0.0
  0
LWPOLYLINE
  5
18d
100
AcDbEntity
  8
WS2812B_4x4_40mil
 62
7
100
AcDbPolyline
 90
3
 70
0
 10
113.834391
 20
175.995643
 30
0.0
 10
113.834391
 20
176.748570
 30
0.0
 10
113.219444
 20
176.748570
 30
0.0
  0
SPLINE
  5
18e
100
AcDbEntity
  8
WS2812B_4x4_40mil
 62
7
100
AcDbSpline
 70
8
 71
3
 72
8
 73
4
 74
0
 40
0
 40
0
 40
0
 40
0
 40
1
 40
1
 40
1
 40
1
 10
134.810372
 20
182.343576
 30
0.0
 10
134.799118
 20
182.256715
 30
0.0
 10
134.810511
 20
182.168420
 30
0.0
 10
134.843445
 20
182.087261
 30
0.0
  0
SPLINE
  5
18f
100
AcDbEntity
  8
WS2812B_4x4_40mil
 62
7
100
AcDbSpline
 70
8
 71
3
 72
8
 73
4
 74
0
 40
0
 40
0
 40
0
 40
0
 40
1
 40
1
 40
1
 40
1
 10
134.843445
 20
182.087261
 30
0.0
 10
134.877131
 20
181.997861
 30
0.0
 10
134.935341
 20
181.919770
 30
0.0
 10
135.011395
 20
181.861952
 30
0.0
  0
LWPOLYLINE
  5
190
100
AcDbEntity
  8
WS2812B_4x4_40mil
 62
7
100
AcDbPolyline
 90
5
 70
0
 10
109.207284
 20
180.779846
 30
0.0
 10
115.039486
 20
186.612565
 30
0.0
 10
131.933029
 20
186.612565
 30
0.0
 10
134.810372
 20
183.735221
 30
0.0
 10
134.810372
 20
182.343576
 30
0.0
  0
SPLINE
  5
191
100
AcDbEntity
  8
WS2812B_4x4_40mil
 62
7
100
AcDbSpline
 70
8
 71
3
 72
8
 73
4
 74
0
 40
0
 40
0
 40
0
 40
0
 40
1
 40
1
 40
1
 40
1
 10
135.995830
 20
161.167091
 30
0.0
 10
135.986969
 20
161.112846
 30
0.0
 10
135.986969
 20
161.057522
 30
0.0
 10
135.995830
 20
161.003277
 30
0.0
  0
LWPOLYLINE
  5
192
100
AcDbEntity
  8
WS2812B_4x4_40mil
 62
7
100
AcDbPolyline
 90
10
 70
0
 10
135.011395
 20
181.861952
 30
0.0
 10
135.995830
 20
180.877515
 30
0.0
 10
135.995830
 20
180.262565
 30
0.0
 10
136.610780
 20
180.262565
 30
0.0
 10
140.292724
 20
176.580620
 30
0.0
 10
140.292724
 20
161.593422
 30
0.0
 10
137.011788
 20
161.593422
 30
0.0
 10
137.011788
 20
161.910716
 30
0.0
 10
135.995830
 20
161.910716
 30
0.0
 10
135.995830
 20
161.167091
 30
0.0
  0
SPLINE
  5
193
100
AcDbEntity
  8
WS2812B_4x4_40mil
 62
7
100
AcDbSpline
 70
8
 71
3
 72
8
 73
4
 74
0
 40
0
 40
0
 40
0
 40
0
 40
1
 40
1
 40
1
 40
1
 10
135.995830
 20
141.178649
 30
0.0
 10
135.989269
 20
141.131852
 30
0.0
 10
135.989269
 20
141.084368
 30
0.0
 10
135.995830
 20
141.037571
 30
0.0
  0
LWPOLYLINE
  5
194
100
AcDbEntity
  8
WS2812B_4x4_40mil
 62
7
100
AcDbPolyline
 90
10
 70
0
 10
135.995830
 20
161.003277
 30
0.0
 10
135.995830
 20
160.259652
 30
0.0
 10
137.011788
 20
160.259652
 30
0.0
 10
137.011788
 20
160.577462
 30
0.0
 10
140.292724
 20
160.577462
 30
0.0
 10
140.292724
 20
141.527462
 30
0.0
 10
137.011788
 20
141.527462
 30
0.0
 10
137.011788
 20
141.929507
 30
0.0
 10
135.995830
 20
141.929507
 30
0.0
 10
135.995830
 20
141.178649
 30
0.0
  0
SPLINE
  5
195
100
AcDbEntity
  8
WS2812B_4x4_40mil
 62
7
100
AcDbSpline
 70
8
 71
3
 72
8
 73
4
 74
0
 40
0
 40
0
 40
0
 40
0
 40
1
 40
1
 40
1
 40
1
 10
135.995830
 20
121.163333
 30
0.0
 10
135.989882
 20
121.118744
 30
0.0
 10
135.989882
 20
121.073562
 30
0.0
 10
135.995830
 20
121.028972
 30
0.0
  0
LWPOLYLINE
  5
196
100
AcDbEntity
  8
WS2812B_4x4_40mil
 62
7
100
AcDbPolyline
 90
9
 70
0
 10
135.995830
 20
141.037571
 30
0.0
 10
135.995830
 20
140.278444
 30
0.0
 10
137.011788
 20
140.278444
 30
0.0
 10
137.011788
 20
140.511505
 30
0.0
 10
140.292724
 20
140.511505
 30
0.0
 10
140.292724
 20
125.608539
 30
0.0
 10
136.610780
 20
121.927111
 30
0.0
 10
135.995830
 20
121.927111
 30
0.0
 10
135.995830
 20
121.163333
 30
0.0
  0
SPLINE
  5
197
100
AcDbEntity
  8
WS2812B_4x4_40mil
 62
7
100
AcDbSpline
 70
8
 71
3
 72
8
 73
4
 74
0
 40
0
 40
0
 40
0
 40
0
 40
1
 40
1
 40
1
 40
1
 10
135.995830
 20
119.546377
 30
0.0
 10
135.983428
 20
119.456719
 30
0.0
 10
135.995203
 20
119.365375
 30
0.0
 10
136.029937
 20
119.281794
 30
0.0
  0
SPLINE
  5
198
100
AcDbEntity
  8
WS2812B_4x4_40mil
 62
7
100
AcDbSpline
 70
8
 71
3
 72
8
 73
4
 74
0
 40
0
 40
0
 40
0
 40
0
 40
1
 40
1
 40
1
 40
1
 10
136.029937
 20
119.281794
 30
0.0
 10
136.065207
 20
119.190993
 30
0.0
 10
136.125836
 20
119.112246
 30
0.0
 10
136.204602
 20
119.054935
 30
0.0
  0
LWPOLYLINE
  5
199
100
AcDbEntity
  8
WS2812B_4x4_40mil
 62
7
100
AcDbPolyline
 90
3
 70
0
 10
135.995830
 20
121.028972
 30
0.0
 10
135.995830
 20
120.276048
 30
0.0
 10
135.995830
 20
119.546377
 30
0.0
  0
SPLINE
  5
19a
100
AcDbEntity
  8
WS2812B_4x4_40mil
 62
7
100
AcDbSpline
 70
8
 71
3
 72
8
 73
4
 74
0
 40
0
 40
0
 40
0
 40
0
 40
1
 40
1
 40
1
 40
1
 10
141.108180
 20
124.987388
 30
0.0
 10
141.179846
 20
125.042074
 30
0.0
 10
141.235671
 20
125.114843
 30
0.0
 10
141.269925
 20
125.198229
 30
0.0
  0
SPLINE
  5
19b
100
AcDbEntity
  8
WS2812B_4x4_40mil
 62
7
100
AcDbSpline
 70
8
 71
3
 72
8
 73
4
 74
0
 40
0
 40
0
 40
0
 40
0
 40
1
 40
1
 40
1
 40
1
 10
141.269925
 20
125.198229
 30
0.0
 10
141.272256
 20
125.203529
 30
0.0
 10
141.274495
 20
125.208870
 30
0.0
 10
141.276643
 20
125.214247
 30
0.0
  0
SPLINE
  5
19c
100
AcDbEntity
  8
WS2812B_4x4_40mil
 62
7
100
AcDbSpline
 70
8
 71
3
 72
8
 73
4
 74
0
 40
0
 40
0
 40
0
 40
0
 40
1
 40
1
 40
1
 40
1
 10
141.276643
 20
125.214247
 30
0.0
 10
141.276817
 20
125.214591
 30
0.0
 10
141.276989
 20
125.214936
 30
0.0
 10
141.277162
 20
125.215281
 30
0.0
  0
SPLINE
  5
19d
100
AcDbEntity
  8
WS2812B_4x4_40mil
 62
7
100
AcDbSpline
 70
8
 71
3
 72
8
 73
4
 74
0
 40
0
 40
0
 40
0
 40
0
 40
1
 40
1
 40
1
 40
1
 10
141.277162
 20
125.215281
 30
0.0
 10
141.309482
 20
125.296421
 30
0.0
 10
141.320339
 20
125.384522
 30
0.0
 10
141.308684
 20
125.471080
 30
0.0
  0
LWPOLYLINE
  5
19e
100
AcDbEntity
  8
WS2812B_4x4_40mil
 62
7
100
AcDbPolyline
 90
11
 70
0
 10
136.204602
 20
119.054935
 30
0.0
 10
152.132312
 20
103.810387
 30
0.0
 10
152.053247
 20
103.729255
 30
0.0
 10
153.852620
 20
101.929882
 30
0.0
 10
154.741455
 20
102.840419
 30
0.0
 10
152.942082
 20
104.639276
 30
0.0
 10
152.842864
 20
104.537475
 30
0.0
 10
137.011788
 20
119.689003
 30
0.0
 10
137.011788
 20
120.276048
 30
0.0
 10
137.011788
 20
120.890997
 30
0.0
 10
141.108180
 20
124.987388
 30
0.0
  0
SPLINE
  5
19f
100
AcDbEntity
  8
WS2812B_4x4_40mil
 62
7
100
AcDbSpline
 70
8
 71
3
 72
8
 73
4
 74
0
 40
0
 40
0
 40
0
 40
0
 40
1
 40
1
 40
1
 40
1
 10
141.308684
 20
140.937320
 30
0.0
 10
141.317378
 20
140.991059
 30
0.0
 10
141.317378
 20
141.045845
 30
0.0
 10
141.308684
 20
141.099584
 30
0.0
  0
LWPOLYLINE
  5
1a0
100
AcDbEntity
  8
WS2812B_4x4_40mil
 62
7
100
AcDbPolyline
 90
2
 70
0
 10
141.308684
 20
125.471080
 30
0.0
 10
141.308684
 20
140.937320
 30
0.0
  0
SPLINE
  5
1a1
100
AcDbEntity
  8
WS2812B_4x4_40mil
 62
7
100
AcDbSpline
 70
8
 71
3
 72
8
 73
4
 74
0
 40
0
 40
0
 40
0
 40
0
 40
1
 40
1
 40
1
 40
1
 10
141.308684
 20
160.846181
 30
0.0
 10
141.314587
 20
160.890600
 30
0.0
 10
141.314587
 20
160.935604
 30
0.0
 10
141.308684
 20
160.980023
 30
0.0
  0
SPLINE
  5
1a2
100
AcDbEntity
  8
WS2812B_4x4_40mil
 62
7
100
AcDbSpline
 70
8
 71
3
 72
8
 73
4
 74
0
 40
0
 40
0
 40
0
 40
0
 40
1
 40
1
 40
1
 40
1
 10
141.308684
 20
160.980023
 30
0.0
 10
141.308684
 20
160.980023
 30
0.0
 10
141.308684
 20
176.721180
 30
0.0
 10
141.308684
 20
176.721180
 30
0.0
  0
SPLINE
  5
1a3
100
AcDbEntity
  8
WS2812B_4x4_40mil
 62
7
100
AcDbSpline
 70
8
 71
3
 72
8
 73
4
 74
0
 40
0
 40
0
 40
0
 40
0
 40
1
 40
1
 40
1
 40
1
 10
141.308684
 20
176.721180
 30
0.0
 10
141.319921
 20
176.807658
 30
0.0
 10
141.308709
 20
176.895572
 30
0.0
 10
141.276127
 20
176.976461
 30
0.0
  0
SPLINE
  5
1a4
100
AcDbEntity
  8
WS2812B_4x4_40mil
 62
7
100
AcDbSpline
 70
8
 71
3
 72
8
 73
4
 74
0
 40
0
 40
0
 40
0
 40
0
 40
1
 40
1
 40
1
 40
1
 10
141.276127
 20
176.976461
 30
0.0
 10
141.242271
 20
177.066617
 30
0.0
 10
141.183488
 20
177.145293
 30
0.0
 10
141.106630
 20
177.203320
 30
0.0
  0
LWPOLYLINE
  5
1a5
100
AcDbEntity
  8
WS2812B_4x4_40mil
 62
7
100
AcDbPolyline
 90
2
 70
0
 10
141.308684
 20
141.099584
 30
0.0
 10
141.308684
 20
160.846181
 30
0.0
  0
SPLINE
  5
1a6
100
AcDbEntity
  8
WS2812B_4x4_40mil
 62
7
100
AcDbSpline
 70
8
 71
3
 72
8
 73
4
 74
0
 40
0
 40
0
 40
0
 40
0
 40
1
 40
1
 40
1
 40
1
 10
135.826333
 20
183.873198
 30
0.0
 10
135.837823
 20
183.959801
 30
0.0
 10
135.826787
 20
184.047904
 30
0.0
 10
135.794292
 20
184.128998
 30
0.0
  0
SPLINE
  5
1a7
100
AcDbEntity
  8
WS2812B_4x4_40mil
 62
7
100
AcDbSpline
 70
8
 71
3
 72
8
 73
4
 74
0
 40
0
 40
0
 40
0
 40
0
 40
1
 40
1
 40
1
 40
1
 10
135.794292
 20
184.128998
 30
0.0
 10
135.760861
 20
184.218963
 30
0.0
 10
135.702631
 20
184.297618
 30
0.0
 10
135.626345
 20
184.355857
 30
0.0
  0
SPLINE
  5
1a8
100
AcDbEntity
  8
WS2812B_4x4_40mil
 62
7
100
AcDbSpline
 70
8
 71
3
 72
8
 73
4
 74
0
 40
0
 40
0
 40
0
 40
0
 40
1
 40
1
 40
1
 40
1
 10
135.626345
 20
184.355857
 30
0.0
 10
135.626345
 20
184.355857
 30
0.0
 10
132.553662
 20
187.428537
 30
0.0
 10
132.553662
 20
187.428537
 30
0.0
  0
SPLINE
  5
1a9
100
AcDbEntity
  8
WS2812B_4x4_40mil
 62
7
100
AcDbSpline
 70
8
 71
3
 72
8
 73
4
 74
0
 40
0
 40
0
 40
0
 40
0
 40
1
 40
1
 40
1
 40
1
 10
132.553662
 20
187.428537
 30
0.0
 10
132.499853
 20
187.498868
 30
0.0
 10
132.428597
 20
187.553913
 30
0.0
 10
132.346956
 20
187.588216
 30
0.0
  0
SPLINE
  5
1aa
100
AcDbEntity
  8
WS2812B_4x4_40mil
 62
7
100
AcDbSpline
 70
8
 71
3
 72
8
 73
4
 74
0
 40
0
 40
0
 40
0
 40
0
 40
1
 40
1
 40
1
 40
1
 10
132.346956
 20
187.588216
 30
0.0
 10
132.340640
 20
187.591103
 30
0.0
 10
132.334266
 20
187.593860
 30
0.0
 10
132.327837
 20
187.596486
 30
0.0
  0
SPLINE
  5
1ab
100
AcDbEntity
  8
WS2812B_4x4_40mil
 62
7
100
AcDbSpline
 70
8
 71
3
 72
8
 73
4
 74
0
 40
0
 40
0
 40
0
 40
0
 40
1
 40
1
 40
1
 40
1
 10
132.327837
 20
187.596486
 30
0.0
 10
132.327493
 20
187.596659
 30
0.0
 10
132.327148
 20
187.596831
 30
0.0
 10
132.326803
 20
187.597002
 30
0.0
  0
SPLINE
  5
1ac
100
AcDbEntity
  8
WS2812B_4x4_40mil
 62
7
100
AcDbSpline
 70
8
 71
3
 72
8
 73
4
 74
0
 40
0
 40
0
 40
0
 40
0
 40
1
 40
1
 40
1
 40
1
 10
132.326803
 20
187.597002
 30
0.0
 10
132.266836
 20
187.621119
 30
0.0
 10
132.202818
 20
187.633572
 30
0.0
 10
132.138184
 20
187.633692
 30
0.0
  0
LWPOLYLINE
  5
1ad
100
AcDbEntity
  8
WS2812B_4x4_40mil
 62
7
100
AcDbPolyline
 90
6
 70
0
 10
141.106630
 20
177.203320
 30
0.0
 10
137.011788
 20
181.298162
 30
0.0
 10
137.011788
 20
181.913628
 30
0.0
 10
136.396322
 20
181.913628
 30
0.0
 10
135.826333
 20
182.483620
 30
0.0
 10
135.826333
 20
183.873198
 30
0.0
  0
SPLINE
  5
1ae
100
AcDbEntity
  8
WS2812B_4x4_40mil
 62
7
100
AcDbSpline
 70
8
 71
3
 72
8
 73
4
 74
0
 40
0
 40
0
 40
0
 40
0
 40
1
 40
1
 40
1
 40
1
 10
131.315496
 20
185.622962
 30
0.0
 10
131.292496
 20
185.622797
 30
0.0
 10
131.269532
 20
185.621071
 30
0.0
 10
131.246766
 20
185.617795
 30
0.0
  0
LWPOLYLINE
  5
1af
100
AcDbEntity
  8
WS2812B_4x4_40mil
 62
7
100
AcDbPolyline
 90
1
 70
1
 10
132.138184
 20
187.633692
 30
0.0
  0
SPLINE
  5
1b0
100
AcDbEntity
  8
WS2812B_4x4_40mil
 62
7
100
AcDbSpline
 70
8
 71
3
 72
8
 73
4
 74
0
 40
0
 40
0
 40
0
 40
0
 40
1
 40
1
 40
1
 40
1
 10
115.745903
 20
185.617795
 30
0.0
 10
115.719368
 20
185.621454
 30
0.0
 10
115.692585
 20
185.623010
 30
0.0
 10
115.665805
 20
185.622446
 30
0.0
  0
SPLINE
  5
1b1
100
AcDbEntity
  8
WS2812B_4x4_40mil
 62
7
100
AcDbSpline
 70
8
 71
3
 72
8
 73
4
 74
0
 40
0
 40
0
 40
0
 40
0
 40
1
 40
1
 40
1
 40
1
 10
115.665805
 20
185.622446
 30
0.0
 10
115.603969
 20
185.620414
 30
0.0
 10
115.543024
 20
185.607104
 30
0.0
 10
115.485971
 20
185.583171
 30
0.0
  0
SPLINE
  5
1b2
100
AcDbEntity
  8
WS2812B_4x4_40mil
 62
7
100
AcDbSpline
 70
8
 71
3
 72
8
 73
4
 74
0
 40
0
 40
0
 40
0
 40
0
 40
1
 40
1
 40
1
 40
1
 10
115.485971
 20
185.583171
 30
0.0
 10
115.399080
 20
185.549567
 30
0.0
 10
115.323102
 20
185.492718
 30
0.0
 10
115.266345
 20
185.418841
 30
0.0
  0
LWPOLYLINE
  5
1b3
100
AcDbEntity
  8
WS2812B_4x4_40mil
 62
7
100
AcDbPolyline
 90
2
 70
0
 10
131.246766
 20
185.617795
 30
0.0
 10
115.745903
 20
185.617795
 30
0.0
  0
SPLINE
  5
1b4
100
AcDbEntity
  8
WS2812B_4x4_40mil
 62
7
100
AcDbSpline
 70
8
 71
3
 72
8
 73
4
 74
0
 40
0
 40
0
 40
0
 40
0
 40
1
 40
1
 40
1
 40
1
 10
112.997750
 20
183.149727
 30
0.0
 10
112.918419
 20
183.089418
 30
0.0
 10
112.858575
 20
183.007111
 30
0.0
 10
112.825667
 20
182.913049
 30
0.0
  0
SPLINE
  5
1b5
100
AcDbEntity
  8
WS2812B_4x4_40mil
 62
7
100
AcDbSpline
 70
8
 71
3
 72
8
 73
4
 74
0
 40
0
 40
0
 40
0
 40
0
 40
1
 40
1
 40
1
 40
1
 10
112.825667
 20
182.913049
 30
0.0
 10
112.795881
 20
182.834337
 30
0.0
 10
112.786114
 20
182.749458
 30
0.0
 10
112.797246
 20
182.666037
 30
0.0
  0
LWPOLYLINE
  5
1b6
100
AcDbEntity
  8
WS2812B_4x4_40mil
 62
7
100
AcDbPolyline
 90
2
 70
0
 10
115.266345
 20
185.418841
 30
0.0
 10
112.997750
 20
183.149727
 30
0.0
  0
SPLINE
  5
1b7
100
AcDbEntity
  8
WS2812B_4x4_40mil
 62
7
100
AcDbSpline
 70
8
 71
3
 72
8
 73
4
 74
0
 40
0
 40
0
 40
0
 40
0
 40
1
 40
1
 40
1
 40
1
 10
112.797246
 20
181.170522
 30
0.0
 10
112.783366
 20
181.086859
 30
0.0
 10
112.790650
 20
181.001051
 30
0.0
 10
112.818434
 20
180.920925
 30
0.0
  0
LWPOLYLINE
  5
1b8
100
AcDbEntity
  8
WS2812B_4x4_40mil
 62
7
100
AcDbPolyline
 90
2
 70
0
 10
112.797246
 20
182.666037
 30
0.0
 10
112.797246
 20
181.170522
 30
0.0
  0
SPLINE
  5
1b9
100
AcDbEntity
  8
WS2812B_4x4_40mil
 62
7
100
AcDbSpline
 70
8
 71
3
 72
8
 73
4
 74
0
 40
0
 40
0
 40
0
 40
0
 40
1
 40
1
 40
1
 40
1
 10
113.834391
 20
180.262565
 30
0.0
 10
113.834391
 20
180.262565
 30
0.0
 10
113.834391
 20
181.006189
 30
0.0
 10
113.834391
 20
181.006189
 30
0.0
  0
SPLINE
  5
1ba
100
AcDbEntity
  8
WS2812B_4x4_40mil
 62
7
100
AcDbSpline
 70
8
 71
3
 72
8
 73
4
 74
0
 40
0
 40
0
 40
0
 40
0
 40
1
 40
1
 40
1
 40
1
 10
113.834391
 20
181.006189
 30
0.0
 10
113.843029
 20
181.059759
 30
0.0
 10
113.843029
 20
181.114367
 30
0.0
 10
113.834391
 20
181.167937
 30
0.0
  0
LWPOLYLINE
  5
1bb
100
AcDbEntity
  8
WS2812B_4x4_40mil
 62
7
100
AcDbPolyline
 90
3
 70
0
 10
112.818434
 20
180.920925
 30
0.0
 10
112.818434
 20
180.262565
 30
0.0
 10
113.834391
 20
180.262565
 30
0.0
  0
SPLINE
  5
1bc
100
AcDbEntity
  8
WS2812B_4x4_40mil
 62
7
100
AcDbSpline
 70
8
 71
3
 72
8
 73
4
 74
0
 40
0
 40
0
 40
0
 40
0
 40
1
 40
1
 40
1
 40
1
 10
133.815602
 20
181.913628
 30
0.0
 10
133.815602
 20
181.913628
 30
0.0
 10
133.815602
 20
183.031389
 30
0.0
 10
133.815602
 20
183.031389
 30
0.0
  0
SPLINE
  5
1bd
100
AcDbEntity
  8
WS2812B_4x4_40mil
 62
7
100
AcDbSpline
 70
8
 71
3
 72
8
 73
4
 74
0
 40
0
 40
0
 40
0
 40
0
 40
1
 40
1
 40
1
 40
1
 10
133.815602
 20
183.031389
 30
0.0
 10
133.826098
 20
183.115747
 30
0.0
 10
133.815258
 20
183.201389
 30
0.0
 10
133.784077
 20
183.280471
 30
0.0
  0
SPLINE
  5
1be
100
AcDbEntity
  8
WS2812B_4x4_40mil
 62
7
100
AcDbSpline
 70
8
 71
3
 72
8
 73
4
 74
0
 40
0
 40
0
 40
0
 40
0
 40
1
 40
1
 40
1
 40
1
 10
133.784077
 20
183.280471
 30
0.0
 10
133.751158
 20
183.370435
 30
0.0
 10
133.693474
 20
183.449258
 30
0.0
 10
133.617681
 20
183.507846
 30
0.0
  0
LWPOLYLINE
  5
1bf
100
AcDbEntity
  8
WS2812B_4x4_40mil
 62
7
100
AcDbPolyline
 90
11
 70
0
 10
113.834391
 20
181.167937
 30
0.0
 10
113.834391
 20
181.913628
 30
0.0
 10
113.813206
 20
181.913628
 30
0.0
 10
113.813206
 20
182.528578
 30
0.0
 10
115.886463
 20
184.601318
 30
0.0
 10
131.106206
 20
184.601318
 30
0.0
 10
132.799642
 20
182.889795
 30
0.0
 10
132.799642
 20
181.087840
 30
0.0
 10
132.799642
 20
180.262565
 30
0.0
 10
133.815602
 20
180.262565
 30
0.0
 10
133.815602
 20
181.913628
 30
0.0
  0
SPLINE
  5
1c0
100
AcDbEntity
  8
WS2812B_4x4_40mil
 62
7
100
AcDbSpline
 70
8
 71
3
 72
8
 73
4
 74
0
 40
0
 40
0
 40
0
 40
0
 40
1
 40
1
 40
1
 40
1
 10
131.730458
 20
185.415222
 30
0.0
 10
131.676924
 20
185.485862
 30
0.0
 10
131.605841
 20
185.541269
 30
0.0
 10
131.524269
 20
185.575938
 30
0.0
  0
SPLINE
  5
1c1
100
AcDbEntity
  8
WS2812B_4x4_40mil
 62
7
100
AcDbSpline
 70
8
 71
3
 72
8
 73
4
 74
0
 40
0
 40
0
 40
0
 40
0
 40
1
 40
1
 40
1
 40
1
 10
131.524269
 20
185.575938
 30
0.0
 10
131.516940
 20
185.579387
 30
0.0
 10
131.509531
 20
185.582661
 30
0.0
 10
131.502046
 20
185.585756
 30
0.0
  0
SPLINE
  5
1c2
100
AcDbEntity
  8
WS2812B_4x4_40mil
 62
7
100
AcDbSpline
 70
8
 71
3
 72
8
 73
4
 74
0
 40
0
 40
0
 40
0
 40
0
 40
1
 40
1
 40
1
 40
1
 10
131.502046
 20
185.585756
 30
0.0
 10
131.501186
 20
185.586103
 30
0.0
 10
131.500326
 20
185.586447
 30
0.0
 10
131.499464
 20
185.586788
 30
0.0
  0
SPLINE
  5
1c3
100
AcDbEntity
  8
WS2812B_4x4_40mil
 62
7
100
AcDbSpline
 70
8
 71
3
 72
8
 73
4
 74
0
 40
0
 40
0
 40
0
 40
0
 40
1
 40
1
 40
1
 40
1
 10
131.499464
 20
185.586788
 30
0.0
 10
131.440917
 20
185.610155
 30
0.0
 10
131.378532
 20
185.622422
 30
0.0
 10
131.315496
 20
185.622962
 30
0.0
  0
LWPOLYLINE
  5
1c4
100
AcDbEntity
  8
WS2812B_4x4_40mil
 62
7
100
AcDbPolyline
 90
2
 70
0
 10
133.617681
 20
183.507846
 30
0.0
 10
131.730458
 20
185.415222
 30
0.0
  0
SPLINE
  5
1c5
100
AcDbEntity
  8
WS2812B_4x4_40mil
 62
7
100
AcDbSpline
 70
8
 71
3
 72
8
 73
4
 74
0
 40
0
 40
0
 40
0
 40
0
 40
1
 40
1
 40
1
 40
1
 10
75.174222
 20
185.114467
 30
0.0
 10
75.112211
 20
185.112497
 30
0.0
 10
75.051086
 20
185.099186
 30
0.0
 10
74.993871
 20
185.075193
 30
0.0
  0
SPLINE
  5
1c6
100
AcDbEntity
  8
WS2812B_4x4_40mil
 62
7
100
AcDbSpline
 70
8
 71
3
 72
8
 73
4
 74
0
 40
0
 40
0
 40
0
 40
0
 40
1
 40
1
 40
1
 40
1
 10
74.993871
 20
185.075193
 30
0.0
 10
74.989365
 20
185.073362
 30
0.0
 10
74.984885
 20
185.071466
 30
0.0
 10
74.980433
 20
185.069507
 30
0.0
  0
SPLINE
  5
1c7
100
AcDbEntity
  8
WS2812B_4x4_40mil
 62
7
100
AcDbSpline
 70
8
 71
3
 72
8
 73
4
 74
0
 40
0
 40
0
 40
0
 40
0
 40
1
 40
1
 40
1
 40
1
 10
74.980433
 20
185.069507
 30
0.0
 10
74.978188
 20
185.068662
 30
0.0
 10
74.975948
 20
185.067801
 30
0.0
 10
74.973715
 20
185.066924
 30
0.0
  0
SPLINE
  5
1c8
100
AcDbEntity
  8
WS2812B_4x4_40mil
 62
7
100
AcDbSpline
 70
8
 71
3
 72
8
 73
4
 74
0
 40
0
 40
0
 40
0
 40
0
 40
1
 40
1
 40
1
 40
1
 10
74.973715
 20
185.066924
 30
0.0
 10
74.895059
 20
185.032430
 30
0.0
 10
74.826432
 20
184.978559
 30
0.0
 10
74.774246
 20
184.910344
 30
0.0
  0
LWPOLYLINE
  5
1c9
100
AcDbEntity
  8
WS2812B_4x4_40mil
 62
7
100
AcDbPolyline
 90
1
 70
1
 10
131.315496
 20
185.622962
 30
0.0
  0
SPLINE
  5
1ca
100
AcDbEntity
  8
WS2812B_4x4_40mil
 62
7
100
AcDbSpline
 70
8
 71
3
 72
8
 73
4
 74
0
 40
0
 40
0
 40
0
 40
0
 40
1
 40
1
 40
1
 40
1
 10
73.013113
 20
183.149211
 30
0.0
 10
72.941971
 20
183.094678
 30
0.0
 10
72.886524
 20
183.022293
 30
0.0
 10
72.852400
 20
182.939404
 30
0.0
  0
SPLINE
  5
1cb
100
AcDbEntity
  8
WS2812B_4x4_40mil
 62
7
100
AcDbSpline
 70
8
 71
3
 72
8
 73
4
 74
0
 40
0
 40
0
 40
0
 40
0
 40
1
 40
1
 40
1
 40
1
 10
72.852400
 20
182.939404
 30
0.0
 10
72.850070
 20
182.934104
 30
0.0
 10
72.847830
 20
182.928764
 30
0.0
 10
72.845682
 20
182.923387
 30
0.0
  0
SPLINE
  5
1cc
100
AcDbEntity
  8
WS2812B_4x4_40mil
 62
7
100
AcDbSpline
 70
8
 71
3
 72
8
 73
4
 74
0
 40
0
 40
0
 40
0
 40
0
 40
1
 40
1
 40
1
 40
1
 10
72.845682
 20
182.923387
 30
0.0
 10
72.845509
 20
182.923214
 30
0.0
 10
72.845336
 20
182.923041
 30
0.0
 10
72.845164
 20
182.922868
 30
0.0
  0
SPLINE
  5
1cd
100
AcDbEntity
  8
WS2812B_4x4_40mil
 62
7
100
AcDbSpline
 70
8
 71
3
 72
8
 73
4
 74
0
 40
0
 40
0
 40
0
 40
0
 40
1
 40
1
 40
1
 40
1
 10
72.845164
 20
182.922868
 30
0.0
 10
72.844991
 20
182.922524
 30
0.0
 10
72.844819
 20
182.922180
 30
0.0
 10
72.844648
 20
182.921836
 30
0.0
  0
SPLINE
  5
1ce
100
AcDbEntity
  8
WS2812B_4x4_40mil
 62
7
100
AcDbSpline
 70
8
 71
3
 72
8
 73
4
 74
0
 40
0
 40
0
 40
0
 40
0
 40
1
 40
1
 40
1
 40
1
 10
72.844648
 20
182.921836
 30
0.0
 10
72.812858
 20
182.841645
 30
0.0
 10
72.802009
 20
182.754681
 30
0.0
 10
72.813125
 20
182.669138
 30
0.0
  0
LWPOLYLINE
  5
1cf
100
AcDbEntity
  8
WS2812B_4x4_40mil
 62
7
100
AcDbPolyline
 90
2
 70
0
 10
74.774246
 20
184.910344
 30
0.0
 10
73.013113
 20
183.149211
 30
0.0
  0
SPLINE
  5
1d0
100
AcDbEntity
  8
WS2812B_4x4_40mil
 62
7
100
AcDbSpline
 70
8
 71
3
 72
8
 73
4
 74
0
 40
0
 40
0
 40
0
 40
0
 40
1
 40
1
 40
1
 40
1
 10
72.813125
 20
181.169488
 30
0.0
 10
72.799594
 20
181.086495
 30
0.0
 10
72.806875
 20
181.001442
 30
0.0
 10
72.834313
 20
180.921957
 30
0.0
  0
LWPOLYLINE
  5
1d1
100
AcDbEntity
  8
WS2812B_4x4_40mil
 62
7
100
AcDbPolyline
 90
2
 70
0
 10
72.813125
 20
182.669138
 30
0.0
 10
72.813125
 20
181.169488
 30
0.0
  0
SPLINE
  5
1d2
100
AcDbEntity
  8
WS2812B_4x4_40mil
 62
7
100
AcDbSpline
 70
8
 71
3
 72
8
 73
4
 74
0
 40
0
 40
0
 40
0
 40
0
 40
1
 40
1
 40
1
 40
1
 10
73.850271
 20
181.002057
 30
0.0
 10
73.859704
 20
181.057989
 30
0.0
 10
73.859704
 20
181.115106
 30
0.0
 10
73.850271
 20
181.171038
 30
0.0
  0
LWPOLYLINE
  5
1d3
100
AcDbEntity
  8
WS2812B_4x4_40mil
 62
7
100
AcDbPolyline
 90
4
 70
0
 10
72.834313
 20
180.921957
 30
0.0
 10
72.834313
 20
180.262565
 30
0.0
 10
73.850271
 20
180.262565
 30
0.0
 10
73.850271
 20
181.002057
 30
0.0
  0
SPLINE
  5
1d4
100
AcDbEntity
  8
WS2812B_4x4_40mil
 62
7
100
AcDbSpline
 70
8
 71
3
 72
8
 73
4
 74
0
 40
0
 40
0
 40
0
 40
0
 40
1
 40
1
 40
1
 40
1
 10
93.831995
 20
183.134741
 30
0.0
 10
93.843036
 20
183.220497
 30
0.0
 10
93.832009
 20
183.307652
 30
0.0
 10
93.799957
 20
183.387955
 30
0.0
  0
SPLINE
  5
1d5
100
AcDbEntity
  8
WS2812B_4x4_40mil
 62
7
100
AcDbSpline
 70
8
 71
3
 72
8
 73
4
 74
0
 40
0
 40
0
 40
0
 40
0
 40
1
 40
1
 40
1
 40
1
 10
93.799957
 20
183.387955
 30
0.0
 10
93.766469
 20
183.478173
 30
0.0
 10
93.708047
 20
183.557025
 30
0.0
 10
93.631491
 20
183.615333
 30
0.0
  0
LWPOLYLINE
  5
1d6
100
AcDbEntity
  8
WS2812B_4x4_40mil
 62
7
100
AcDbPolyline
 90
12
 70
0
 10
73.850271
 20
181.171038
 30
0.0
 10
73.850271
 20
181.913628
 30
0.0
 10
73.829083
 20
181.913628
 30
0.0
 10
73.829083
 20
182.528059
 30
0.0
 10
75.394363
 20
184.093340
 30
0.0
 10
91.716363
 20
184.093340
 30
0.0
 10
92.816037
 20
182.994181
 30
0.0
 10
92.816037
 20
181.087840
 30
0.0
 10
92.816037
 20
180.262565
 30
0.0
 10
93.831995
 20
180.262565
 30
0.0
 10
93.831995
 20
181.913628
 30
0.0
 10
93.831995
 20
183.134741
 30
0.0
  0
SPLINE
  5
1d7
100
AcDbEntity
  8
WS2812B_4x4_40mil
 62
7
100
AcDbSpline
 70
8
 71
3
 72
8
 73
4
 74
0
 40
0
 40
0
 40
0
 40
0
 40
1
 40
1
 40
1
 40
1
 10
92.336996
 20
184.909828
 30
0.0
 10
92.282748
 20
184.980825
 30
0.0
 10
92.210736
 20
185.036260
 30
0.0
 10
92.128224
 20
185.070541
 30
0.0
  0
SPLINE
  5
1d8
100
AcDbEntity
  8
WS2812B_4x4_40mil
 62
7
100
AcDbSpline
 70
8
 71
3
 72
8
 73
4
 74
0
 40
0
 40
0
 40
0
 40
0
 40
1
 40
1
 40
1
 40
1
 10
92.128224
 20
185.070541
 30
0.0
 10
92.122584
 20
185.073056
 30
0.0
 10
92.116899
 20
185.075467
 30
0.0
 10
92.111172
 20
185.077775
 30
0.0
  0
SPLINE
  5
1d9
100
AcDbEntity
  8
WS2812B_4x4_40mil
 62
7
100
AcDbSpline
 70
8
 71
3
 72
8
 73
4
 74
0
 40
0
 40
0
 40
0
 40
0
 40
1
 40
1
 40
1
 40
1
 10
92.111172
 20
185.077775
 30
0.0
 10
92.110827
 20
185.077948
 30
0.0
 10
92.110482
 20
185.078121
 30
0.0
 10
92.110137
 20
185.078293
 30
0.0
  0
SPLINE
  5
1da
100
AcDbEntity
  8
WS2812B_4x4_40mil
 62
7
100
AcDbSpline
 70
8
 71
3
 72
8
 73
4
 74
0
 40
0
 40
0
 40
0
 40
0
 40
1
 40
1
 40
1
 40
1
 10
92.110137
 20
185.078293
 30
0.0
 10
92.050136
 20
185.102234
 30
0.0
 10
91.986119
 20
185.114511
 30
0.0
 10
91.921518
 20
185.114467
 30
0.0
  0
SPLINE
  5
1db
100
AcDbEntity
  8
WS2812B_4x4_40mil
 62
7
100
AcDbSpline
 70
8
 71
3
 72
8
 73
4
 74
0
 40
0
 40
0
 40
0
 40
0
 40
1
 40
1
 40
1
 40
1
 10
91.921518
 20
185.114467
 30
0.0
 10
91.898518
 20
185.114302
 30
0.0
 10
91.875556
 20
185.112574
 30
0.0
 10
91.852790
 20
185.109297
 30
0.0
  0
SPLINE
  5
1dc
100
AcDbEntity
  8
WS2812B_4x4_40mil
 62
7
100
AcDbSpline
 70
8
 71
3
 72
8
 73
4
 74
0
 40
0
 40
0
 40
0
 40
0
 40
1
 40
1
 40
1
 40
1
 10
91.852790
 20
185.109297
 30
0.0
 10
91.852790
 20
185.109297
 30
0.0
 10
75.258455
 20
185.109297
 30
0.0
 10
75.258455
 20
185.109297
 30
0.0
  0
SPLINE
  5
1dd
100
AcDbEntity
  8
WS2812B_4x4_40mil
 62
7
100
AcDbSpline
 70
8
 71
3
 72
8
 73
4
 74
0
 40
0
 40
0
 40
0
 40
0
 40
1
 40
1
 40
1
 40
1
 10
75.258455
 20
185.109297
 30
0.0
 10
75.230569
 20
185.113354
 30
0.0
 10
75.202394
 20
185.115083
 30
0.0
 10
75.174222
 20
185.114467
 30
0.0
  0
LWPOLYLINE
  5
1de
100
AcDbEntity
  8
WS2812B_4x4_40mil
 62
7
100
AcDbPolyline
 90
2
 70
0
 10
93.631491
 20
183.615333
 30
0.0
 10
92.336996
 20
184.909828
 30
0.0
  0
LWPOLYLINE
  5
1df
100
AcDbEntity
  8
WS2812B_4x4_40mil
 62
7
100
AcDbPolyline
 90
1
 70
1
 10
75.174222
 20
185.114467
 30
0.0
  0
SPLINE
  5
1e0
100
AcDbEntity
  8
WS2812B_4x4_40mil
 62
7
100
AcDbSpline
 70
8
 71
3
 72
8
 73
4
 74
0
 40
0
 40
0
 40
0
 40
0
 40
1
 40
1
 40
1
 40
1
 10
76.030501
 20
181.169488
 30
0.0
 10
76.021863
 20
181.115918
 30
0.0
 10
76.021863
 20
181.061310
 30
0.0
 10
76.030501
 20
181.007740
 30
0.0
  0
LWPOLYLINE
  5
1e1
100
AcDbEntity
  8
WS2812B_4x4_40mil
 62
7
100
AcDbPolyline
 90
2
 70
0
 10
76.030501
 20
181.913628
 30
0.0
 10
76.030501
 20
181.169488
 30
0.0
  0
SPLINE
  5
1e2
100
AcDbEntity
  8
WS2812B_4x4_40mil
 62
7
100
AcDbSpline
 70
8
 71
3
 72
8
 73
4
 74
0
 40
0
 40
0
 40
0
 40
0
 40
1
 40
1
 40
1
 40
1
 10
76.030501
 20
161.167091
 30
0.0
 10
76.021863
 20
161.113521
 30
0.0
 10
76.021863
 20
161.058913
 30
0.0
 10
76.030501
 20
161.005343
 30
0.0
  0
LWPOLYLINE
  5
1e3
100
AcDbEntity
  8
WS2812B_4x4_40mil
 62
7
100
AcDbPolyline
 90
11
 70
0
 10
76.030501
 20
181.007740
 30
0.0
 10
76.030501
 20
180.262565
 30
0.0
 10
77.046458
 20
180.262565
 30
0.0
 10
77.046458
 20
180.579858
 30
0.0
 10
87.969305
 20
180.579858
 30
0.0
 10
92.606231
 20
175.923814
 30
0.0
 10
78.275840
 20
161.593422
 30
0.0
 10
77.046458
 20
161.593422
 30
0.0
 10
77.046458
 20
161.910716
 30
0.0
 10
76.030501
 20
161.910716
 30
0.0
 10
76.030501
 20
161.167091
 30
0.0
  0
SPLINE
  5
1e4
100
AcDbEntity
  8
WS2812B_4x4_40mil
 62
7
100
AcDbSpline
 70
8
 71
3
 72
8
 73
4
 74
0
 40
0
 40
0
 40
0
 40
0
 40
1
 40
1
 40
1
 40
1
 10
78.413817
 20
160.577462
 30
0.0
 10
78.459085
 20
160.571329
 30
0.0
 10
78.504974
 20
160.571329
 30
0.0
 10
78.550242
 20
160.577462
 30
0.0
  0
LWPOLYLINE
  5
1e5
100
AcDbEntity
  8
WS2812B_4x4_40mil
 62
7
100
AcDbPolyline
 90
5
 70
0
 10
76.030501
 20
161.005343
 30
0.0
 10
76.030501
 20
160.259652
 30
0.0
 10
77.046458
 20
160.259652
 30
0.0
 10
77.046458
 20
160.577462
 30
0.0
 10
78.413817
 20
160.577462
 30
0.0
  0
SPLINE
  5
1e6
100
AcDbEntity
  8
WS2812B_4x4_40mil
 62
7
100
AcDbSpline
 70
8
 71
3
 72
8
 73
4
 74
0
 40
0
 40
0
 40
0
 40
0
 40
1
 40
1
 40
1
 40
1
 10
76.030501
 20
141.185883
 30
0.0
 10
76.021863
 20
141.132313
 30
0.0
 10
76.021863
 20
141.077705
 30
0.0
 10
76.030501
 20
141.024135
 30
0.0
  0
LWPOLYLINE
  5
1e7
100
AcDbEntity
  8
WS2812B_4x4_40mil
 62
7
100
AcDbPolyline
 90
8
 70
0
 10
78.550242
 20
160.577462
 30
0.0
 10
87.969823
 20
160.577462
 30
0.0
 10
92.605199
 20
155.941571
 30
0.0
 10
78.275840
 20
141.612214
 30
0.0
 10
77.046458
 20
141.612214
 30
0.0
 10
77.046458
 20
141.929507
 30
0.0
 10
76.030501
 20
141.929507
 30
0.0
 10
76.030501
 20
141.185883
 30
0.0
  0
SPLINE
  5
1e8
100
AcDbEntity
  8
WS2812B_4x4_40mil
 62
7
100
AcDbSpline
 70
8
 71
3
 72
8
 73
4
 74
0
 40
0
 40
0
 40
0
 40
0
 40
1
 40
1
 40
1
 40
1
 10
78.412267
 20
140.596253
 30
0.0
 10
78.458894
 20
140.589741
 30
0.0
 10
78.506200
 20
140.589741
 30
0.0
 10
78.552826
 20
140.596253
 30
0.0
  0
LWPOLYLINE
  5
1e9
100
AcDbEntity
  8
WS2812B_4x4_40mil
 62
7
100
AcDbPolyline
 90
5
 70
0
 10
76.030501
 20
141.024135
 30
0.0
 10
76.030501
 20
140.278444
 30
0.0
 10
77.046458
 20
140.278444
 30
0.0
 10
77.046458
 20
140.596253
 30
0.0
 10
78.412267
 20
140.596253
 30
0.0
  0
SPLINE
  5
1ea
100
AcDbEntity
  8
WS2812B_4x4_40mil
 62
7
100
AcDbSpline
 70
8
 71
3
 72
8
 73
4
 74
0
 40
0
 40
0
 40
0
 40
0
 40
1
 40
1
 40
1
 40
1
 10
76.030501
 20
121.183486
 30
0.0
 10
76.021863
 20
121.129916
 30
0.0
 10
76.021863
 20
121.075309
 30
0.0
 10
76.030501
 20
121.021739
 30
0.0
  0
LWPOLYLINE
  5
1eb
100
AcDbEntity
  8
WS2812B_4x4_40mil
 62
7
100
AcDbPolyline
 90
8
 70
0
 10
78.552826
 20
140.596253
 30
0.0
 10
87.969305
 20
140.596253
 30
0.0
 10
92.606231
 20
135.940209
 30
0.0
 10
78.275324
 20
121.609299
 30
0.0
 10
77.046458
 20
121.609299
 30
0.0
 10
77.046458
 20
121.927111
 30
0.0
 10
76.030501
 20
121.927111
 30
0.0
 10
76.030501
 20
121.183486
 30
0.0
  0
SPLINE
  5
1ec
100
AcDbEntity
  8
WS2812B_4x4_40mil
 62
7
100
AcDbSpline
 70
8
 71
3
 72
8
 73
4
 74
0
 40
0
 40
0
 40
0
 40
0
 40
1
 40
1
 40
1
 40
1
 10
65.660591
 20
102.347945
 30
0.0
 10
65.660591
 20
102.347945
 30
0.0
 10
61.096529
 20
102.347945
 30
0.0
 10
61.096529
 20
102.347945
 30
0.0
  0
SPLINE
  5
1ed
100
AcDbEntity
  8
WS2812B_4x4_40mil
 62
7
100
AcDbSpline
 70
8
 71
3
 72
8
 73
4
 74
0
 40
0
 40
0
 40
0
 40
0
 40
1
 40
1
 40
1
 40
1
 10
61.096529
 20
102.347945
 30
0.0
 10
61.068969
 20
102.351770
 30
0.0
 10
61.041142
 20
102.353325
 30
0.0
 10
61.013328
 20
102.352594
 30
0.0
  0
SPLINE
  5
1ee
100
AcDbEntity
  8
WS2812B_4x4_40mil
 62
7
100
AcDbSpline
 70
8
 71
3
 72
8
 73
4
 74
0
 40
0
 40
0
 40
0
 40
0
 40
1
 40
1
 40
1
 40
1
 10
61.013328
 20
102.352594
 30
0.0
 10
60.952985
 20
102.350560
 30
0.0
 10
60.893488
 20
102.337786
 30
0.0
 10
60.837629
 20
102.314872
 30
0.0
  0
SPLINE
  5
1ef
100
AcDbEntity
  8
WS2812B_4x4_40mil
 62
7
100
AcDbSpline
 70
8
 71
3
 72
8
 73
4
 74
0
 40
0
 40
0
 40
0
 40
0
 40
1
 40
1
 40
1
 40
1
 10
60.837629
 20
102.314872
 30
0.0
 10
60.747724
 20
102.281072
 30
0.0
 10
60.669243
 20
102.222479
 30
0.0
 10
60.611286
 20
102.145888
 30
0.0
  0
LWPOLYLINE
  5
1f0
100
AcDbEntity
  8
WS2812B_4x4_40mil
 62
7
100
AcDbPolyline
 90
7
 70
0
 10
76.030501
 20
121.021739
 30
0.0
 10
76.030501
 20
120.276048
 30
0.0
 10
77.046458
 20
120.276048
 30
0.0
 10
77.046458
 20
120.593341
 30
0.0
 10
77.978183
 20
120.593341
 30
0.0
 10
77.978183
 20
114.687243
 30
0.0
 10
65.660591
 20
102.347945
 30
0.0
  0
SPLINE
  5
1f1
100
AcDbEntity
  8
WS2812B_4x4_40mil
 62
7
100
AcDbSpline
 70
8
 71
3
 72
8
 73
4
 74
0
 40
0
 40
0
 40
0
 40
0
 40
1
 40
1
 40
1
 40
1
 10
61.233988
 20
101.331985
 30
0.0
 10
61.233988
 20
101.331985
 30
0.0
 10
65.798566
 20
101.331985
 30
0.0
 10
65.798566
 20
101.331985
 30
0.0
  0
SPLINE
  5
1f2
100
AcDbEntity
  8
WS2812B_4x4_40mil
 62
7
100
AcDbSpline
 70
8
 71
3
 72
8
 73
4
 74
0
 40
0
 40
0
 40
0
 40
0
 40
1
 40
1
 40
1
 40
1
 10
65.798566
 20
101.331985
 30
0.0
 10
65.887041
 20
101.320234
 30
0.0
 10
65.977050
 20
101.331998
 30
0.0
 10
66.059533
 20
101.366092
 30
0.0
  0
SPLINE
  5
1f3
100
AcDbEntity
  8
WS2812B_4x4_40mil
 62
7
100
AcDbSpline
 70
8
 71
3
 72
8
 73
4
 74
0
 40
0
 40
0
 40
0
 40
0
 40
1
 40
1
 40
1
 40
1
 10
66.059533
 20
101.366092
 30
0.0
 10
66.065780
 20
101.368381
 30
0.0
 10
66.071982
 20
101.370793
 30
0.0
 10
66.078135
 20
101.373326
 30
0.0
  0
SPLINE
  5
1f4
100
AcDbEntity
  8
WS2812B_4x4_40mil
 62
7
100
AcDbSpline
 70
8
 71
3
 72
8
 73
4
 74
0
 40
0
 40
0
 40
0
 40
0
 40
1
 40
1
 40
1
 40
1
 10
66.078135
 20
101.373326
 30
0.0
 10
66.078652
 20
101.373498
 30
0.0
 10
66.079169
 20
101.373671
 30
0.0
 10
66.079686
 20
101.373844
 30
0.0
  0
SPLINE
  5
1f5
100
AcDbEntity
  8
WS2812B_4x4_40mil
 62
7
100
AcDbSpline
 70
8
 71
3
 72
8
 73
4
 74
0
 40
0
 40
0
 40
0
 40
0
 40
1
 40
1
 40
1
 40
1
 10
66.079686
 20
101.373844
 30
0.0
 10
66.159516
 20
101.408543
 30
0.0
 10
66.229091
 20
101.463171
 30
0.0
 10
66.281740
 20
101.532489
 30
0.0
  0
SPLINE
  5
1f6
100
AcDbEntity
  8
WS2812B_4x4_40mil
 62
7
100
AcDbSpline
 70
8
 71
3
 72
8
 73
4
 74
0
 40
0
 40
0
 40
0
 40
0
 40
1
 40
1
 40
1
 40
1
 10
66.281740
 20
101.532489
 30
0.0
 10
66.281740
 20
101.532489
 30
0.0
 10
78.794672
 20
114.066608
 30
0.0
 10
78.794672
 20
114.066608
 30
0.0
  0
SPLINE
  5
1f7
100
AcDbEntity
  8
WS2812B_4x4_40mil
 62
7
100
AcDbSpline
 70
8
 71
3
 72
8
 73
4
 74
0
 40
0
 40
0
 40
0
 40
0
 40
1
 40
1
 40
1
 40
1
 10
78.794672
 20
114.066608
 30
0.0
 10
78.863352
 20
114.119306
 30
0.0
 10
78.917428
 20
114.188680
 30
0.0
 10
78.951768
 20
114.268146
 30
0.0
  0
SPLINE
  5
1f8
100
AcDbEntity
  8
WS2812B_4x4_40mil
 62
7
100
AcDbSpline
 70
8
 71
3
 72
8
 73
4
 74
0
 40
0
 40
0
 40
0
 40
0
 40
1
 40
1
 40
1
 40
1
 10
78.951768
 20
114.268146
 30
0.0
 10
78.992358
 20
114.355911
 30
0.0
 10
79.007059
 20
114.453436
 30
0.0
 10
78.994144
 20
114.549266
 30
0.0
  0
LWPOLYLINE
  5
1f9
100
AcDbEntity
  8
WS2812B_4x4_40mil
 62
7
100
AcDbPolyline
 90
8
 70
0
 10
60.611286
 20
102.145888
 30
0.0
 10
59.754491
 20
101.288577
 30
0.0
 10
59.668707
 20
101.374360
 30
0.0
 10
57.869850
 20
99.596175
 30
0.0
 10
58.758686
 20
98.686151
 30
0.0
 10
60.558059
 20
100.485008
 30
0.0
 10
60.472792
 20
100.570276
 30
0.0
 10
61.233988
 20
101.331985
 30
0.0
  0
SPLINE
  5
1fa
100
AcDbEntity
  8
WS2812B_4x4_40mil
 62
7
100
AcDbSpline
 70
8
 71
3
 72
8
 73
4
 74
0
 40
0
 40
0
 40
0
 40
0
 40
1
 40
1
 40
1
 40
1
 10
93.439255
 20
115.132693
 30
0.0
 10
93.439255
 20
115.132693
 30
0.0
 10
94.088313
 20
114.494489
 30
0.0
 10
94.088313
 20
114.494489
 30
0.0
  0
SPLINE
  5
1fb
100
AcDbEntity
  8
WS2812B_4x4_40mil
 62
7
100
AcDbSpline
 70
8
 71
3
 72
8
 73
4
 74
0
 40
0
 40
0
 40
0
 40
0
 40
1
 40
1
 40
1
 40
1
 10
94.088313
 20
114.494489
 30
0.0
 10
94.122016
 20
114.435055
 30
0.0
 10
94.167362
 20
114.383030
 30
0.0
 10
94.221636
 20
114.341526
 30
0.0
  0
LWPOLYLINE
  5
1fc
100
AcDbEntity
  8
WS2812B_4x4_40mil
 62
7
100
AcDbPolyline
 90
6
 70
0
 10
78.994144
 20
114.549266
 30
0.0
 10
78.994144
 20
120.593341
 30
0.0
 10
87.969823
 20
120.593341
 30
0.0
 10
92.816037
 20
115.747643
 30
0.0
 10
92.816037
 20
115.132693
 30
0.0
 10
93.439255
 20
115.132693
 30
0.0
  0
SPLINE
  5
1fd
100
AcDbEntity
  8
WS2812B_4x4_40mil
 62
7
100
AcDbSpline
 70
8
 71
3
 72
8
 73
4
 74
0
 40
0
 40
0
 40
0
 40
0
 40
1
 40
1
 40
1
 40
1
 10
98.269968
 20
110.293194
 30
0.0
 10
98.323906
 20
110.223242
 30
0.0
 10
98.395151
 20
110.168561
 30
0.0
 10
98.476673
 20
110.134548
 30
0.0
  0
SPLINE
  5
1fe
100
AcDbEntity
  8
WS2812B_4x4_40mil
 62
7
100
AcDbSpline
 70
8
 71
3
 72
8
 73
4
 74
0
 40
0
 40
0
 40
0
 40
0
 40
1
 40
1
 40
1
 40
1
 10
98.476673
 20
110.134548
 30
0.0
 10
98.482485
 20
110.132027
 30
0.0
 10
98.488343
 20
110.129615
 30
0.0
 10
98.494244
 20
110.127314
 30
0.0
  0
SPLINE
  5
1ff
100
AcDbEntity
  8
WS2812B_4x4_40mil
 62
7
100
AcDbSpline
 70
8
 71
3
 72
8
 73
4
 74
0
 40
0
 40
0
 40
0
 40
0
 40
1
 40
1
 40
1
 40
1
 10
98.494244
 20
110.127314
 30
0.0
 10
98.494416
 20
110.127142
 30
0.0
 10
98.494588
 20
110.126970
 30
0.0
 10
98.494760
 20
110.126798
 30
0.0
  0
SPLINE
  5
200
100
AcDbEntity
  8
WS2812B_4x4_40mil
 62
7
100
AcDbSpline
 70
8
 71
3
 72
8
 73
4
 74
0
 40
0
 40
0
 40
0
 40
0
 40
1
 40
1
 40
1
 40
1
 10
98.494760
 20
110.126798
 30
0.0
 10
98.495105
 20
110.126625
 30
0.0
 10
98.495450
 20
110.126452
 30
0.0
 10
98.495795
 20
110.126279
 30
0.0
  0
SPLINE
  5
201
100
AcDbEntity
  8
WS2812B_4x4_40mil
 62
7
100
AcDbSpline
 70
8
 71
3
 72
8
 73
4
 74
0
 40
0
 40
0
 40
0
 40
0
 40
1
 40
1
 40
1
 40
1
 10
98.495795
 20
110.126279
 30
0.0
 10
98.575985
 20
110.094489
 30
0.0
 10
98.662950
 20
110.083641
 30
0.0
 10
98.748493
 20
110.094757
 30
0.0
  0
LWPOLYLINE
  5
202
100
AcDbEntity
  8
WS2812B_4x4_40mil
 62
7
100
AcDbPolyline
 90
2
 70
0
 10
94.221636
 20
114.341526
 30
0.0
 10
98.269968
 20
110.293194
 30
0.0
  0
SPLINE
  5
203
100
AcDbEntity
  8
WS2812B_4x4_40mil
 62
7
100
AcDbSpline
 70
8
 71
3
 72
8
 73
4
 74
0
 40
0
 40
0
 40
0
 40
0
 40
1
 40
1
 40
1
 40
1
 10
115.627047
 20
110.094757
 30
0.0
 10
115.713525
 20
110.083520
 30
0.0
 10
115.801440
 20
110.094732
 30
0.0
 10
115.882330
 20
110.127314
 30
0.0
  0
SPLINE
  5
204
100
AcDbEntity
  8
WS2812B_4x4_40mil
 62
7
100
AcDbSpline
 70
8
 71
3
 72
8
 73
4
 74
0
 40
0
 40
0
 40
0
 40
0
 40
1
 40
1
 40
1
 40
1
 10
115.882330
 20
110.127314
 30
0.0
 10
115.972486
 20
110.161170
 30
0.0
 10
116.051162
 20
110.219953
 30
0.0
 10
116.109189
 20
110.296811
 30
0.0
  0
LWPOLYLINE
  5
205
100
AcDbEntity
  8
WS2812B_4x4_40mil
 62
7
100
AcDbPolyline
 90
2
 70
0
 10
98.748493
 20
110.094757
 30
0.0
 10
115.627047
 20
110.094757
 30
0.0
  0
SPLINE
  5
206
100
AcDbEntity
  8
WS2812B_4x4_40mil
 62
7
100
AcDbSpline
 70
8
 71
3
 72
8
 73
4
 74
0
 40
0
 40
0
 40
0
 40
0
 40
1
 40
1
 40
1
 40
1
 10
121.603944
 20
115.449987
 30
0.0
 10
121.648023
 20
115.444176
 30
0.0
 10
121.692673
 20
115.444176
 30
0.0
 10
121.736752
 20
115.449987
 30
0.0
  0
LWPOLYLINE
  5
207
100
AcDbEntity
  8
WS2812B_4x4_40mil
 62
7
100
AcDbPolyline
 90
3
 70
0
 10
116.109189
 20
110.296811
 30
0.0
 10
121.262362
 20
115.449987
 30
0.0
 10
121.603944
 20
115.449987
 30
0.0
  0
SPLINE
  5
208
100
AcDbEntity
  8
WS2812B_4x4_40mil
 62
7
100
AcDbSpline
 70
8
 71
3
 72
8
 73
4
 74
0
 40
0
 40
0
 40
0
 40
0
 40
1
 40
1
 40
1
 40
1
 10
132.799642
 20
115.132693
 30
0.0
 10
132.799642
 20
115.132693
 30
0.0
 10
132.799642
 20
113.427372
 30
0.0
 10
132.799642
 20
113.427372
 30
0.0
  0
SPLINE
  5
209
100
AcDbEntity
  8
WS2812B_4x4_40mil
 62
7
100
AcDbSpline
 70
8
 71
3
 72
8
 73
4
 74
0
 40
0
 40
0
 40
0
 40
0
 40
1
 40
1
 40
1
 40
1
 10
132.799642
 20
113.427372
 30
0.0
 10
132.787683
 20
113.338175
 30
0.0
 10
132.799632
 20
113.247402
 30
0.0
 10
132.834266
 20
113.164339
 30
0.0
  0
SPLINE
  5
20a
100
AcDbEntity
  8
WS2812B_4x4_40mil
 62
7
100
AcDbSpline
 70
8
 71
3
 72
8
 73
4
 74
0
 40
0
 40
0
 40
0
 40
0
 40
1
 40
1
 40
1
 40
1
 10
132.834266
 20
113.164339
 30
0.0
 10
132.835758
 20
113.160012
 30
0.0
 10
132.837308
 20
113.155705
 30
0.0
 10
132.838917
 20
113.151419
 30
0.0
  0
SPLINE
  5
20b
100
AcDbEntity
  8
WS2812B_4x4_40mil
 62
7
100
AcDbSpline
 70
8
 71
3
 72
8
 73
4
 74
0
 40
0
 40
0
 40
0
 40
0
 40
1
 40
1
 40
1
 40
1
 10
132.838917
 20
113.151419
 30
0.0
 10
132.840267
 20
113.148477
 30
0.0
 10
132.841644
 20
113.145548
 30
0.0
 10
132.843050
 20
113.142632
 30
0.0
  0
SPLINE
  5
20c
100
AcDbEntity
  8
WS2812B_4x4_40mil
 62
7
100
AcDbSpline
 70
8
 71
3
 72
8
 73
4
 74
0
 40
0
 40
0
 40
0
 40
0
 40
1
 40
1
 40
1
 40
1
 10
132.843050
 20
113.142632
 30
0.0
 10
132.876077
 20
113.067564
 30
0.0
 10
132.926787
 20
113.001607
 30
0.0
 10
132.990846
 20
112.950397
 30
0.0
  0
SPLINE
  5
20d
100
AcDbEntity
  8
WS2812B_4x4_40mil
 62
7
100
AcDbSpline
 70
8
 71
3
 72
8
 73
4
 74
0
 40
0
 40
0
 40
0
 40
0
 40
1
 40
1
 40
1
 40
1
 10
132.990846
 20
112.950397
 30
0.0
 10
133.044342
 20
112.884622
 30
0.0
 10
133.113448
 20
112.833281
 30
0.0
 10
133.191866
 20
112.801053
 30
0.0
  0
SPLINE
  5
20e
100
AcDbEntity
  8
WS2812B_4x4_40mil
 62
7
100
AcDbSpline
 70
8
 71
3
 72
8
 73
4
 74
0
 40
0
 40
0
 40
0
 40
0
 40
1
 40
1
 40
1
 40
1
 10
133.191866
 20
112.801053
 30
0.0
 10
133.276993
 20
112.763350
 30
0.0
 10
133.370843
 20
112.749764
 30
0.0
 10
133.463167
 20
112.761778
 30
0.0
  0
LWPOLYLINE
  5
20f
100
AcDbEntity
  8
WS2812B_4x4_40mil
 62
7
100
AcDbPolyline
 90
3
 70
0
 10
121.736752
 20
115.449987
 30
0.0
 10
132.799642
 20
115.449987
 30
0.0
 10
132.799642
 20
115.132693
 30
0.0
  0
SPLINE
  5
210
100
AcDbEntity
  8
WS2812B_4x4_40mil
 62
7
100
AcDbSpline
 70
8
 71
3
 72
8
 73
4
 74
0
 40
0
 40
0
 40
0
 40
0
 40
1
 40
1
 40
1
 40
1
 10
145.329626
 20
105.607178
 30
0.0
 10
145.325889
 20
105.610680
 30
0.0
 10
145.322100
 20
105.614125
 30
0.0
 10
145.318259
 20
105.617512
 30
0.0
  0
LWPOLYLINE
  5
211
100
AcDbEntity
  8
WS2812B_4x4_40mil
 62
7
100
AcDbPolyline
 90
10
 70
0
 10
133.463167
 20
112.761778
 30
0.0
 10
136.239225
 20
112.761778
 30
0.0
 10
144.622694
 20
104.877504
 30
0.0
 10
148.897884
 20
100.602314
 30
0.0
 10
148.801766
 20
100.506196
 30
0.0
 10
150.600623
 20
98.707339
 30
0.0
 10
151.511160
 20
99.617360
 30
0.0
 10
149.711787
 20
101.416733
 30
0.0
 10
149.615669
 20
101.320615
 30
0.0
 10
145.329626
 20
105.607178
 30
0.0
  0
SPLINE
  5
212
100
AcDbEntity
  8
WS2812B_4x4_40mil
 62
7
100
AcDbSpline
 70
8
 71
3
 72
8
 73
4
 74
0
 40
0
 40
0
 40
0
 40
0
 40
1
 40
1
 40
1
 40
1
 10
136.840740
 20
113.590667
 30
0.0
 10
136.783337
 20
113.661281
 30
0.0
 10
136.708022
 20
113.715180
 30
0.0
 10
136.622665
 20
113.746732
 30
0.0
  0
SPLINE
  5
213
100
AcDbEntity
  8
WS2812B_4x4_40mil
 62
7
100
AcDbSpline
 70
8
 71
3
 72
8
 73
4
 74
0
 40
0
 40
0
 40
0
 40
0
 40
1
 40
1
 40
1
 40
1
 10
136.622665
 20
113.746732
 30
0.0
 10
136.557957
 20
113.772443
 30
0.0
 10
136.488655
 20
113.784580
 30
0.0
 10
136.419060
 20
113.782387
 30
0.0
  0
SPLINE
  5
214
100
AcDbEntity
  8
WS2812B_4x4_40mil
 62
7
100
AcDbSpline
 70
8
 71
3
 72
8
 73
4
 74
0
 40
0
 40
0
 40
0
 40
0
 40
1
 40
1
 40
1
 40
1
 10
136.419060
 20
113.782387
 30
0.0
 10
136.401075
 20
113.781790
 30
0.0
 10
136.383135
 20
113.780239
 30
0.0
 10
136.365315
 20
113.777738
 30
0.0
  0
LWPOLYLINE
  5
215
100
AcDbEntity
  8
WS2812B_4x4_40mil
 62
7
100
AcDbPolyline
 90
2
 70
0
 10
145.318259
 20
105.617512
 30
0.0
 10
136.840740
 20
113.590667
 30
0.0
  0
SPLINE
  5
216
100
AcDbEntity
  8
WS2812B_4x4_40mil
 62
7
100
AcDbSpline
 70
8
 71
3
 72
8
 73
4
 74
0
 40
0
 40
0
 40
0
 40
0
 40
1
 40
1
 40
1
 40
1
 10
133.815602
 20
115.875283
 30
0.0
 10
133.824577
 20
115.929867
 30
0.0
 10
133.824577
 20
115.985549
 30
0.0
 10
133.815602
 20
116.040132
 30
0.0
  0
LWPOLYLINE
  5
217
100
AcDbEntity
  8
WS2812B_4x4_40mil
 62
7
100
AcDbPolyline
 90
4
 70
0
 10
136.365315
 20
113.777738
 30
0.0
 10
133.815602
 20
113.777738
 30
0.0
 10
133.815602
 20
115.132693
 30
0.0
 10
133.815602
 20
115.875283
 30
0.0
  0
SPLINE
  5
218
100
AcDbEntity
  8
WS2812B_4x4_40mil
 62
7
100
AcDbSpline
 70
8
 71
3
 72
8
 73
4
 74
0
 40
0
 40
0
 40
0
 40
0
 40
1
 40
1
 40
1
 40
1
 10
133.815602
 20
135.857008
 30
0.0
 10
133.824520
 20
135.911422
 30
0.0
 10
133.824520
 20
135.966926
 30
0.0
 10
133.815602
 20
136.021341
 30
0.0
  0
LWPOLYLINE
  5
219
100
AcDbEntity
  8
WS2812B_4x4_40mil
 62
7
100
AcDbPolyline
 90
11
 70
0
 10
133.815602
 20
116.040132
 30
0.0
 10
133.815602
 20
116.783754
 30
0.0
 10
132.799642
 20
116.783754
 30
0.0
 10
132.799642
 20
116.465945
 30
0.0
 10
121.876280
 20
116.465945
 30
0.0
 10
117.240902
 20
121.101320
 30
0.0
 10
131.570777
 20
135.431195
 30
0.0
 10
132.799642
 20
135.431195
 30
0.0
 10
132.799642
 20
135.113902
 30
0.0
 10
133.815602
 20
135.113902
 30
0.0
 10
133.815602
 20
135.857008
 30
0.0
  0
SPLINE
  5
21a
100
AcDbEntity
  8
WS2812B_4x4_40mil
 62
7
100
AcDbSpline
 70
8
 71
3
 72
8
 73
4
 74
0
 40
0
 40
0
 40
0
 40
0
 40
1
 40
1
 40
1
 40
1
 10
132.799642
 20
136.447153
 30
0.0
 10
132.799642
 20
136.447153
 30
0.0
 10
131.434868
 20
136.447153
 30
0.0
 10
131.434868
 20
136.447153
 30
0.0
  0
SPLINE
  5
21b
100
AcDbEntity
  8
WS2812B_4x4_40mil
 62
7
100
AcDbSpline
 70
8
 71
3
 72
8
 73
4
 74
0
 40
0
 40
0
 40
0
 40
0
 40
1
 40
1
 40
1
 40
1
 10
131.434868
 20
136.447153
 30
0.0
 10
131.406813
 20
136.451237
 30
0.0
 10
131.378464
 20
136.452966
 30
0.0
 10
131.350120
 20
136.452320
 30
0.0
  0
SPLINE
  5
21c
100
AcDbEntity
  8
WS2812B_4x4_40mil
 62
7
100
AcDbSpline
 70
8
 71
3
 72
8
 73
4
 74
0
 40
0
 40
0
 40
0
 40
0
 40
1
 40
1
 40
1
 40
1
 10
131.350120
 20
136.452320
 30
0.0
 10
131.331263
 20
136.451645
 30
0.0
 10
131.312458
 20
136.449920
 30
0.0
 10
131.293793
 20
136.447153
 30
0.0
  0
LWPOLYLINE
  5
21d
100
AcDbEntity
  8
WS2812B_4x4_40mil
 62
7
100
AcDbPolyline
 90
4
 70
0
 10
133.815602
 20
136.021341
 30
0.0
 10
133.815602
 20
136.764963
 30
0.0
 10
132.799642
 20
136.764963
 30
0.0
 10
132.799642
 20
136.447153
 30
0.0
  0
SPLINE
  5
21e
100
AcDbEntity
  8
WS2812B_4x4_40mil
 62
7
100
AcDbSpline
 70
8
 71
3
 72
8
 73
4
 74
0
 40
0
 40
0
 40
0
 40
0
 40
1
 40
1
 40
1
 40
1
 10
133.815602
 20
155.859404
 30
0.0
 10
133.824520
 20
155.913819
 30
0.0
 10
133.824520
 20
155.969322
 30
0.0
 10
133.815602
 20
156.023737
 30
0.0
  0
LWPOLYLINE
  5
21f
100
AcDbEntity
  8
WS2812B_4x4_40mil
 62
7
100
AcDbPolyline
 90
8
 70
0
 10
131.293793
 20
136.447153
 30
0.0
 10
121.877312
 20
136.447153
 30
0.0
 10
117.239870
 20
141.103200
 30
0.0
 10
131.571293
 20
155.434108
 30
0.0
 10
132.799642
 20
155.434108
 30
0.0
 10
132.799642
 20
155.116298
 30
0.0
 10
133.815602
 20
155.116298
 30
0.0
 10
133.815602
 20
155.859404
 30
0.0
  0
SPLINE
  5
220
100
AcDbEntity
  8
WS2812B_4x4_40mil
 62
7
100
AcDbSpline
 70
8
 71
3
 72
8
 73
4
 74
0
 40
0
 40
0
 40
0
 40
0
 40
1
 40
1
 40
1
 40
1
 10
131.430733
 20
156.450065
 30
0.0
 10
131.404028
 20
156.453752
 30
0.0
 10
131.377072
 20
156.455307
 30
0.0
 10
131.350120
 20
156.454717
 30
0.0
  0
SPLINE
  5
221
100
AcDbEntity
  8
WS2812B_4x4_40mil
 62
7
100
AcDbSpline
 70
8
 71
3
 72
8
 73
4
 74
0
 40
0
 40
0
 40
0
 40
0
 40
1
 40
1
 40
1
 40
1
 10
131.350120
 20
156.454717
 30
0.0
 10
131.332135
 20
156.454119
 30
0.0
 10
131.314195
 20
156.452566
 30
0.0
 10
131.296375
 20
156.450065
 30
0.0
  0
LWPOLYLINE
  5
222
100
AcDbEntity
  8
WS2812B_4x4_40mil
 62
7
100
AcDbPolyline
 90
5
 70
0
 10
133.815602
 20
156.023737
 30
0.0
 10
133.815602
 20
156.767359
 30
0.0
 10
132.799642
 20
156.767359
 30
0.0
 10
132.799642
 20
156.450065
 30
0.0
 10
131.430733
 20
156.450065
 30
0.0
  0
SPLINE
  5
223
100
AcDbEntity
  8
WS2812B_4x4_40mil
 62
7
100
AcDbSpline
 70
8
 71
3
 72
8
 73
4
 74
0
 40
0
 40
0
 40
0
 40
0
 40
1
 40
1
 40
1
 40
1
 10
133.815602
 20
175.840613
 30
0.0
 10
133.824577
 20
175.895196
 30
0.0
 10
133.824577
 20
175.950878
 30
0.0
 10
133.815602
 20
176.005461
 30
0.0
  0
LWPOLYLINE
  5
224
100
AcDbEntity
  8
WS2812B_4x4_40mil
 62
7
100
AcDbPolyline
 90
8
 70
0
 10
131.296375
 20
156.450065
 30
0.0
 10
121.876280
 20
156.450065
 30
0.0
 10
117.240902
 20
161.085443
 30
0.0
 10
131.570777
 20
175.415316
 30
0.0
 10
132.799642
 20
175.415316
 30
0.0
 10
132.799642
 20
175.097507
 30
0.0
 10
133.815602
 20
175.097507
 30
0.0
 10
133.815602
 20
175.840613
 30
0.0
  0
SPLINE
  5
225
100
AcDbEntity
  8
WS2812B_4x4_40mil
 62
7
100
AcDbSpline
 70
8
 71
3
 72
8
 73
4
 74
0
 40
0
 40
0
 40
0
 40
0
 40
1
 40
1
 40
1
 40
1
 10
131.433318
 20
176.431276
 30
0.0
 10
131.405759
 20
176.435101
 30
0.0
 10
131.377933
 20
176.436656
 30
0.0
 10
131.350120
 20
176.435925
 30
0.0
  0
SPLINE
  5
226
100
AcDbEntity
  8
WS2812B_4x4_40mil
 62
7
100
AcDbSpline
 70
8
 71
3
 72
8
 73
4
 74
0
 40
0
 40
0
 40
0
 40
0
 40
1
 40
1
 40
1
 40
1
 10
131.350120
 20
176.435925
 30
0.0
 10
131.331272
 20
176.435422
 30
0.0
 10
131.312468
 20
176.433870
 30
0.0
 10
131.293793
 20
176.431276
 30
0.0
  0
LWPOLYLINE
  5
227
100
AcDbEntity
  8
WS2812B_4x4_40mil
 62
7
100
AcDbPolyline
 90
5
 70
0
 10
133.815602
 20
176.005461
 30
0.0
 10
133.815602
 20
176.748570
 30
0.0
 10
132.799642
 20
176.748570
 30
0.0
 10
132.799642
 20
176.431276
 30
0.0
 10
131.433318
 20
176.431276
 30
0.0
  0
SPLINE
  5
228
100
AcDbEntity
  8
WS2812B_4x4_40mil
 62
7
100
AcDbSpline
 70
8
 71
3
 72
8
 73
4
 74
0
 40
0
 40
0
 40
0
 40
0
 40
1
 40
1
 40
1
 40
1
 10
116.014621
 20
181.163286
 30
0.0
 10
116.008109
 20
181.116659
 30
0.0
 10
116.008109
 20
181.069353
 30
0.0
 10
116.014621
 20
181.022726
 30
0.0
  0
LWPOLYLINE
  5
229
100
AcDbEntity
  8
WS2812B_4x4_40mil
 62
7
100
AcDbPolyline
 90
6
 70
0
 10
131.293793
 20
176.431276
 30
0.0
 10
121.877312
 20
176.431276
 30
0.0
 10
117.030579
 20
181.297644
 30
0.0
 10
117.030579
 20
181.913628
 30
0.0
 10
116.014621
 20
181.913628
 30
0.0
 10
116.014621
 20
181.163286
 30
0.0
  0
SPLINE
  5
22a
100
AcDbEntity
  8
WS2812B_4x4_40mil
 62
7
100
AcDbSpline
 70
8
 71
3
 72
8
 73
4
 74
0
 40
0
 40
0
 40
0
 40
0
 40
1
 40
1
 40
1
 40
1
 10
116.626986
 20
180.262565
 30
0.0
 10
116.626986
 20
180.262565
 30
0.0
 10
121.254094
 20
175.616855
 30
0.0
 10
121.254094
 20
175.616855
 30
0.0
  0
SPLINE
  5
22b
100
AcDbEntity
  8
WS2812B_4x4_40mil
 62
7
100
AcDbSpline
 70
8
 71
3
 72
8
 73
4
 74
0
 40
0
 40
0
 40
0
 40
0
 40
1
 40
1
 40
1
 40
1
 10
121.254094
 20
175.616855
 30
0.0
 10
121.308863
 20
175.544473
 30
0.0
 10
121.382023
 20
175.488085
 30
0.0
 10
121.465967
 20
175.453556
 30
0.0
  0
SPLINE
  5
22c
100
AcDbEntity
  8
WS2812B_4x4_40mil
 62
7
100
AcDbSpline
 70
8
 71
3
 72
8
 73
4
 74
0
 40
0
 40
0
 40
0
 40
0
 40
1
 40
1
 40
1
 40
1
 10
121.465967
 20
175.453556
 30
0.0
 10
121.469907
 20
175.451783
 30
0.0
 10
121.473870
 20
175.450061
 30
0.0
 10
121.477854
 20
175.448389
 30
0.0
  0
SPLINE
  5
22d
100
AcDbEntity
  8
WS2812B_4x4_40mil
 62
7
100
AcDbSpline
 70
8
 71
3
 72
8
 73
4
 74
0
 40
0
 40
0
 40
0
 40
0
 40
1
 40
1
 40
1
 40
1
 10
121.477854
 20
175.448389
 30
0.0
 10
121.481286
 20
175.447146
 30
0.0
 10
121.484731
 20
175.445941
 30
0.0
 10
121.488189
 20
175.444772
 30
0.0
  0
SPLINE
  5
22e
100
AcDbEntity
  8
WS2812B_4x4_40mil
 62
7
100
AcDbSpline
 70
8
 71
3
 72
8
 73
4
 74
0
 40
0
 40
0
 40
0
 40
0
 40
1
 40
1
 40
1
 40
1
 10
121.488189
 20
175.444772
 30
0.0
 10
121.567608
 20
175.414205
 30
0.0
 10
121.653433
 20
175.404076
 30
0.0
 10
121.737786
 20
175.415316
 30
0.0
  0
LWPOLYLINE
  5
22f
100
AcDbEntity
  8
WS2812B_4x4_40mil
 62
7
100
AcDbPolyline
 90
3
 70
0
 10
116.014621
 20
181.022726
 30
0.0
 10
116.014621
 20
180.262565
 30
0.0
 10
116.626986
 20
180.262565
 30
0.0
  0
SPLINE
  5
230
100
AcDbEntity
  8
WS2812B_4x4_40mil
 62
7
100
AcDbSpline
 70
8
 71
3
 72
8
 73
4
 74
0
 40
0
 40
0
 40
0
 40
0
 40
1
 40
1
 40
1
 40
1
 10
116.014621
 20
161.910716
 30
0.0
 10
116.014621
 20
161.910716
 30
0.0
 10
116.014621
 20
161.159858
 30
0.0
 10
116.014621
 20
161.159858
 30
0.0
  0
SPLINE
  5
231
100
AcDbEntity
  8
WS2812B_4x4_40mil
 62
7
100
AcDbSpline
 70
8
 71
3
 72
8
 73
4
 74
0
 40
0
 40
0
 40
0
 40
0
 40
1
 40
1
 40
1
 40
1
 10
116.014621
 20
161.159858
 30
0.0
 10
116.010923
 20
161.134189
 30
0.0
 10
116.009196
 20
161.108275
 30
0.0
 10
116.009454
 20
161.082343
 30
0.0
  0
SPLINE
  5
232
100
AcDbEntity
  8
WS2812B_4x4_40mil
 62
7
100
AcDbSpline
 70
8
 71
3
 72
8
 73
4
 74
0
 40
0
 40
0
 40
0
 40
0
 40
1
 40
1
 40
1
 40
1
 10
116.009454
 20
161.082343
 30
0.0
 10
116.009450
 20
161.081137
 30
0.0
 10
116.009450
 20
161.079931
 30
0.0
 10
116.009454
 20
161.078726
 30
0.0
  0
SPLINE
  5
233
100
AcDbEntity
  8
WS2812B_4x4_40mil
 62
7
100
AcDbSpline
 70
8
 71
3
 72
8
 73
4
 74
0
 40
0
 40
0
 40
0
 40
0
 40
1
 40
1
 40
1
 40
1
 10
116.009454
 20
161.078726
 30
0.0
 10
116.009594
 20
161.075451
 30
0.0
 10
116.009766
 20
161.072178
 30
0.0
 10
116.009970
 20
161.068907
 30
0.0
  0
SPLINE
  5
234
100
AcDbEntity
  8
WS2812B_4x4_40mil
 62
7
100
AcDbSpline
 70
8
 71
3
 72
8
 73
4
 74
0
 40
0
 40
0
 40
0
 40
0
 40
1
 40
1
 40
1
 40
1
 10
116.009970
 20
161.068907
 30
0.0
 10
116.010474
 20
161.050060
 30
0.0
 10
116.012027
 20
161.031255
 30
0.0
 10
116.014621
 20
161.012580
 30
0.0
  0
LWPOLYLINE
  5
235
100
AcDbEntity
  8
WS2812B_4x4_40mil
 62
7
100
AcDbPolyline
 90
4
 70
0
 10
121.737786
 20
175.415316
 30
0.0
 10
130.134172
 20
175.415316
 30
0.0
 10
116.629571
 20
161.910716
 30
0.0
 10
116.014621
 20
161.910716
 30
0.0
  0
SPLINE
  5
236
100
AcDbEntity
  8
WS2812B_4x4_40mil
 62
7
100
AcDbSpline
 70
8
 71
3
 72
8
 73
4
 74
0
 40
0
 40
0
 40
0
 40
0
 40
1
 40
1
 40
1
 40
1
 10
116.630087
 20
160.259652
 30
0.0
 10
116.630087
 20
160.259652
 30
0.0
 10
121.255644
 20
155.633580
 30
0.0
 10
121.255644
 20
155.633580
 30
0.0
  0
SPLINE
  5
237
100
AcDbEntity
  8
WS2812B_4x4_40mil
 62
7
100
AcDbSpline
 70
8
 71
3
 72
8
 73
4
 74
0
 40
0
 40
0
 40
0
 40
0
 40
1
 40
1
 40
1
 40
1
 10
121.255644
 20
155.633580
 30
0.0
 10
121.310177
 20
155.562438
 30
0.0
 10
121.382562
 20
155.506991
 30
0.0
 10
121.465451
 20
155.472866
 30
0.0
  0
SPLINE
  5
238
100
AcDbEntity
  8
WS2812B_4x4_40mil
 62
7
100
AcDbSpline
 70
8
 71
3
 72
8
 73
4
 74
0
 40
0
 40
0
 40
0
 40
0
 40
1
 40
1
 40
1
 40
1
 10
121.465451
 20
155.472866
 30
0.0
 10
121.470242
 20
155.470725
 30
0.0
 10
121.475066
 20
155.468657
 30
0.0
 10
121.479921
 20
155.466665
 30
0.0
  0
SPLINE
  5
239
100
AcDbEntity
  8
WS2812B_4x4_40mil
 62
7
100
AcDbSpline
 70
8
 71
3
 72
8
 73
4
 74
0
 40
0
 40
0
 40
0
 40
0
 40
1
 40
1
 40
1
 40
1
 10
121.479921
 20
155.466665
 30
0.0
 10
121.481811
 20
155.465965
 30
0.0
 10
121.483706
 20
155.465276
 30
0.0
 10
121.485604
 20
155.464598
 30
0.0
  0
SPLINE
  5
23a
100
AcDbEntity
  8
WS2812B_4x4_40mil
 62
7
100
AcDbSpline
 70
8
 71
3
 72
8
 73
4
 74
0
 40
0
 40
0
 40
0
 40
0
 40
1
 40
1
 40
1
 40
1
 10
121.485604
 20
155.464598
 30
0.0
 10
121.566043
 20
155.433070
 30
0.0
 10
121.653194
 20
155.422575
 30
0.0
 10
121.738818
 20
155.434108
 30
0.0
  0
LWPOLYLINE
  5
23b
100
AcDbEntity
  8
WS2812B_4x4_40mil
 62
7
100
AcDbPolyline
 90
3
 70
0
 10
116.014621
 20
161.012580
 30
0.0
 10
116.014621
 20
160.259652
 30
0.0
 10
116.630087
 20
160.259652
 30
0.0
  0
SPLINE
  5
23c
100
AcDbEntity
  8
WS2812B_4x4_40mil
 62
7
100
AcDbSpline
 70
8
 71
3
 72
8
 73
4
 74
0
 40
0
 40
0
 40
0
 40
0
 40
1
 40
1
 40
1
 40
1
 10
116.014621
 20
141.179681
 30
0.0
 10
116.010870
 20
141.153672
 30
0.0
 10
116.009143
 20
141.127411
 30
0.0
 10
116.009454
 20
141.101134
 30
0.0
  0
SPLINE
  5
23d
100
AcDbEntity
  8
WS2812B_4x4_40mil
 62
7
100
AcDbSpline
 70
8
 71
3
 72
8
 73
4
 74
0
 40
0
 40
0
 40
0
 40
0
 40
1
 40
1
 40
1
 40
1
 10
116.009454
 20
141.101134
 30
0.0
 10
116.009450
 20
141.099928
 30
0.0
 10
116.009450
 20
141.098721
 30
0.0
 10
116.009454
 20
141.097515
 30
0.0
  0
SPLINE
  5
23e
100
AcDbEntity
  8
WS2812B_4x4_40mil
 62
7
100
AcDbSpline
 70
8
 71
3
 72
8
 73
4
 74
0
 40
0
 40
0
 40
0
 40
0
 40
1
 40
1
 40
1
 40
1
 10
116.009454
 20
141.097515
 30
0.0
 10
116.009601
 20
141.094585
 30
0.0
 10
116.009773
 20
141.091657
 30
0.0
 10
116.009970
 20
141.088730
 30
0.0
  0
SPLINE
  5
23f
100
AcDbEntity
  8
WS2812B_4x4_40mil
 62
7
100
AcDbSpline
 70
8
 71
3
 72
8
 73
4
 74
0
 40
0
 40
0
 40
0
 40
0
 40
1
 40
1
 40
1
 40
1
 10
116.009970
 20
141.088730
 30
0.0
 10
116.010435
 20
141.069537
 30
0.0
 10
116.011988
 20
141.050386
 30
0.0
 10
116.014621
 20
141.031369
 30
0.0
  0
LWPOLYLINE
  5
240
100
AcDbEntity
  8
WS2812B_4x4_40mil
 62
7
100
AcDbPolyline
 90
5
 70
0
 10
121.738818
 20
155.434108
 30
0.0
 10
130.134172
 20
155.434108
 30
0.0
 10
116.629571
 20
141.929507
 30
0.0
 10
116.014621
 20
141.929507
 30
0.0
 10
116.014621
 20
141.179681
 30
0.0
  0
SPLINE
  5
241
100
AcDbEntity
  8
WS2812B_4x4_40mil
 62
7
100
AcDbSpline
 70
8
 71
3
 72
8
 73
4
 74
0
 40
0
 40
0
 40
0
 40
0
 40
1
 40
1
 40
1
 40
1
 10
116.627505
 20
140.278444
 30
0.0
 10
116.627505
 20
140.278444
 30
0.0
 10
121.252543
 20
135.634800
 30
0.0
 10
121.252543
 20
135.634800
 30
0.0
  0
SPLINE
  5
242
100
AcDbEntity
  8
WS2812B_4x4_40mil
 62
7
100
AcDbSpline
 70
8
 71
3
 72
8
 73
4
 74
0
 40
0
 40
0
 40
0
 40
0
 40
1
 40
1
 40
1
 40
1
 10
121.252543
 20
135.634800
 30
0.0
 10
121.307535
 20
135.561628
 30
0.0
 10
121.381274
 20
135.504672
 30
0.0
 10
121.465967
 20
135.469952
 30
0.0
  0
SPLINE
  5
243
100
AcDbEntity
  8
WS2812B_4x4_40mil
 62
7
100
AcDbSpline
 70
8
 71
3
 72
8
 73
4
 74
0
 40
0
 40
0
 40
0
 40
0
 40
1
 40
1
 40
1
 40
1
 10
121.465967
 20
135.469952
 30
0.0
 10
121.470249
 20
135.468170
 30
0.0
 10
121.474556
 20
135.466448
 30
0.0
 10
121.478886
 20
135.464784
 30
0.0
  0
SPLINE
  5
244
100
AcDbEntity
  8
WS2812B_4x4_40mil
 62
7
100
AcDbSpline
 70
8
 71
3
 72
8
 73
4
 74
0
 40
0
 40
0
 40
0
 40
0
 40
1
 40
1
 40
1
 40
1
 10
121.478886
 20
135.464784
 30
0.0
 10
121.481119
 20
135.463908
 30
0.0
 10
121.483359
 20
135.463047
 30
0.0
 10
121.485604
 20
135.462202
 30
0.0
  0
SPLINE
  5
245
100
AcDbEntity
  8
WS2812B_4x4_40mil
 62
7
100
AcDbSpline
 70
8
 71
3
 72
8
 73
4
 74
0
 40
0
 40
0
 40
0
 40
0
 40
1
 40
1
 40
1
 40
1
 10
121.485604
 20
135.462202
 30
0.0
 10
121.565048
 20
135.431023
 30
0.0
 10
121.651067
 20
135.420359
 30
0.0
 10
121.735720
 20
135.431195
 30
0.0
  0
LWPOLYLINE
  5
246
100
AcDbEntity
  8
WS2812B_4x4_40mil
 62
7
100
AcDbPolyline
 90
3
 70
0
 10
116.014621
 20
141.031369
 30
0.0
 10
116.014621
 20
140.278444
 30
0.0
 10
116.627505
 20
140.278444
 30
0.0
  0
SPLINE
  5
247
100
AcDbEntity
  8
WS2812B_4x4_40mil
 62
7
100
AcDbSpline
 70
8
 71
3
 72
8
 73
4
 74
0
 40
0
 40
0
 40
0
 40
0
 40
1
 40
1
 40
1
 40
1
 10
116.014621
 20
121.175734
 30
0.0
 10
116.010975
 20
121.150407
 30
0.0
 10
116.009248
 20
121.124841
 30
0.0
 10
116.009454
 20
121.099254
 30
0.0
  0
SPLINE
  5
248
100
AcDbEntity
  8
WS2812B_4x4_40mil
 62
7
100
AcDbSpline
 70
8
 71
3
 72
8
 73
4
 74
0
 40
0
 40
0
 40
0
 40
0
 40
1
 40
1
 40
1
 40
1
 10
116.009454
 20
121.099254
 30
0.0
 10
116.009447
 20
121.097703
 30
0.0
 10
116.009447
 20
121.096153
 30
0.0
 10
116.009454
 20
121.094602
 30
0.0
  0
SPLINE
  5
249
100
AcDbEntity
  8
WS2812B_4x4_40mil
 62
7
100
AcDbSpline
 70
8
 71
3
 72
8
 73
4
 74
0
 40
0
 40
0
 40
0
 40
0
 40
1
 40
1
 40
1
 40
1
 10
116.009454
 20
121.094602
 30
0.0
 10
116.009587
 20
121.090984
 30
0.0
 10
116.009759
 20
121.087367
 30
0.0
 10
116.009970
 20
121.083752
 30
0.0
  0
SPLINE
  5
24a
100
AcDbEntity
  8
WS2812B_4x4_40mil
 62
7
100
AcDbSpline
 70
8
 71
3
 72
8
 73
4
 74
0
 40
0
 40
0
 40
0
 40
0
 40
1
 40
1
 40
1
 40
1
 10
116.009970
 20
121.083752
 30
0.0
 10
116.010531
 20
121.065421
 30
0.0
 10
116.012083
 20
121.047135
 30
0.0
 10
116.014621
 20
121.028972
 30
0.0
  0
LWPOLYLINE
  5
24b
100
AcDbEntity
  8
WS2812B_4x4_40mil
 62
7
100
AcDbPolyline
 90
5
 70
0
 10
121.735720
 20
135.431195
 30
0.0
 10
130.133656
 20
135.431195
 30
0.0
 10
116.629571
 20
121.927111
 30
0.0
 10
116.014621
 20
121.927111
 30
0.0
 10
116.014621
 20
121.175734
 30
0.0
  0
SPLINE
  5
24c
100
AcDbEntity
  8
WS2812B_4x4_40mil
 62
7
100
AcDbSpline
 70
8
 71
3
 72
8
 73
4
 74
0
 40
0
 40
0
 40
0
 40
0
 40
1
 40
1
 40
1
 40
1
 10
98.889569
 20
111.110717
 30
0.0
 10
98.889569
 20
111.110717
 30
0.0
 10
94.974561
 20
115.025722
 30
0.0
 10
94.974561
 20
115.025722
 30
0.0
  0
SPLINE
  5
24d
100
AcDbEntity
  8
WS2812B_4x4_40mil
 62
7
100
AcDbSpline
 70
8
 71
3
 72
8
 73
4
 74
0
 40
0
 40
0
 40
0
 40
0
 40
1
 40
1
 40
1
 40
1
 10
94.974561
 20
115.025722
 30
0.0
 10
94.939711
 20
115.088408
 30
0.0
 10
94.891984
 20
115.143004
 30
0.0
 10
94.834520
 20
115.185920
 30
0.0
  0
LWPOLYLINE
  5
24e
100
AcDbEntity
  8
WS2812B_4x4_40mil
 62
7
100
AcDbPolyline
 90
6
 70
0
 10
116.014621
 20
121.028972
 30
0.0
 10
116.014621
 20
120.276048
 30
0.0
 10
116.629571
 20
120.276048
 30
0.0
 10
120.640694
 20
116.264925
 30
0.0
 10
115.486489
 20
111.110717
 30
0.0
 10
98.889569
 20
111.110717
 30
0.0
  0
SPLINE
  5
24f
100
AcDbEntity
  8
WS2812B_4x4_40mil
 62
7
100
AcDbSpline
 70
8
 71
3
 72
8
 73
4
 74
0
 40
0
 40
0
 40
0
 40
0
 40
1
 40
1
 40
1
 40
1
 10
93.216529
 20
116.783754
 30
0.0
 10
93.216529
 20
116.783754
 30
0.0
 10
88.591488
 20
121.408795
 30
0.0
 10
88.591488
 20
121.408795
 30
0.0
  0
SPLINE
  5
250
100
AcDbEntity
  8
WS2812B_4x4_40mil
 62
7
100
AcDbSpline
 70
8
 71
3
 72
8
 73
4
 74
0
 40
0
 40
0
 40
0
 40
0
 40
1
 40
1
 40
1
 40
1
 10
88.591488
 20
121.408795
 30
0.0
 10
88.537088
 20
121.480316
 30
0.0
 10
88.464693
 20
121.536130
 30
0.0
 10
88.381684
 20
121.570543
 30
0.0
  0
SPLINE
  5
251
100
AcDbEntity
  8
WS2812B_4x4_40mil
 62
7
100
AcDbSpline
 70
8
 71
3
 72
8
 73
4
 74
0
 40
0
 40
0
 40
0
 40
0
 40
1
 40
1
 40
1
 40
1
 10
88.381684
 20
121.570543
 30
0.0
 10
88.376044
 20
121.573057
 30
0.0
 10
88.370358
 20
121.575469
 30
0.0
 10
88.364629
 20
121.577776
 30
0.0
  0
SPLINE
  5
252
100
AcDbEntity
  8
WS2812B_4x4_40mil
 62
7
100
AcDbSpline
 70
8
 71
3
 72
8
 73
4
 74
0
 40
0
 40
0
 40
0
 40
0
 40
1
 40
1
 40
1
 40
1
 10
88.364629
 20
121.577776
 30
0.0
 10
88.364286
 20
121.577950
 30
0.0
 10
88.363942
 20
121.578123
 30
0.0
 10
88.363597
 20
121.578295
 30
0.0
  0
SPLINE
  5
253
100
AcDbEntity
  8
WS2812B_4x4_40mil
 62
7
100
AcDbSpline
 70
8
 71
3
 72
8
 73
4
 74
0
 40
0
 40
0
 40
0
 40
0
 40
1
 40
1
 40
1
 40
1
 10
88.363597
 20
121.578295
 30
0.0
 10
88.303596
 20
121.602235
 30
0.0
 10
88.239580
 20
121.614512
 30
0.0
 10
88.174979
 20
121.614469
 30
0.0
  0
SPLINE
  5
254
100
AcDbEntity
  8
WS2812B_4x4_40mil
 62
7
100
AcDbSpline
 70
8
 71
3
 72
8
 73
4
 74
0
 40
0
 40
0
 40
0
 40
0
 40
1
 40
1
 40
1
 40
1
 10
88.174979
 20
121.614469
 30
0.0
 10
88.151978
 20
121.614303
 30
0.0
 10
88.129015
 20
121.612576
 30
0.0
 10
88.106248
 20
121.609299
 30
0.0
  0
LWPOLYLINE
  5
255
100
AcDbEntity
  8
WS2812B_4x4_40mil
 62
7
100
AcDbPolyline
 90
4
 70
0
 10
94.834520
 20
115.185920
 30
0.0
 10
93.831995
 20
116.170873
 30
0.0
 10
93.831995
 20
116.783754
 30
0.0
 10
93.216529
 20
116.783754
 30
0.0
  0
SPLINE
  5
256
100
AcDbEntity
  8
WS2812B_4x4_40mil
 62
7
100
AcDbSpline
 70
8
 71
3
 72
8
 73
4
 74
0
 40
0
 40
0
 40
0
 40
0
 40
1
 40
1
 40
1
 40
1
 10
93.831995
 20
135.868896
 30
0.0
 10
93.834417
 20
135.887580
 30
0.0
 10
93.835797
 20
135.906385
 30
0.0
 10
93.836130
 20
135.925223
 30
0.0
  0
SPLINE
  5
257
100
AcDbEntity
  8
WS2812B_4x4_40mil
 62
7
100
AcDbSpline
 70
8
 71
3
 72
8
 73
4
 74
0
 40
0
 40
0
 40
0
 40
0
 40
1
 40
1
 40
1
 40
1
 10
93.836130
 20
135.925223
 30
0.0
 10
93.837234
 20
135.954226
 30
0.0
 10
93.835851
 20
135.983271
 30
0.0
 10
93.831995
 20
136.012038
 30
0.0
  0
LWPOLYLINE
  5
258
100
AcDbEntity
  8
WS2812B_4x4_40mil
 62
7
100
AcDbPolyline
 90
5
 70
0
 10
88.106248
 20
121.609299
 30
0.0
 10
79.712445
 20
121.609299
 30
0.0
 10
93.217048
 20
135.113902
 30
0.0
 10
93.831995
 20
135.113902
 30
0.0
 10
93.831995
 20
135.868896
 30
0.0
  0
SPLINE
  5
259
100
AcDbEntity
  8
WS2812B_4x4_40mil
 62
7
100
AcDbSpline
 70
8
 71
3
 72
8
 73
4
 74
0
 40
0
 40
0
 40
0
 40
0
 40
1
 40
1
 40
1
 40
1
 10
93.218080
 20
136.764963
 30
0.0
 10
93.218080
 20
136.764963
 30
0.0
 10
88.592007
 20
141.410159
 30
0.0
 10
88.592007
 20
141.410159
 30
0.0
  0
SPLINE
  5
25a
100
AcDbEntity
  8
WS2812B_4x4_40mil
 62
7
100
AcDbSpline
 70
8
 71
3
 72
8
 73
4
 74
0
 40
0
 40
0
 40
0
 40
0
 40
1
 40
1
 40
1
 40
1
 10
88.592007
 20
141.410159
 30
0.0
 10
88.537891
 20
141.481536
 30
0.0
 10
88.465867
 20
141.537336
 30
0.0
 10
88.383235
 20
141.571905
 30
0.0
  0
SPLINE
  5
25b
100
AcDbEntity
  8
WS2812B_4x4_40mil
 62
7
100
AcDbSpline
 70
8
 71
3
 72
8
 73
4
 74
0
 40
0
 40
0
 40
0
 40
0
 40
1
 40
1
 40
1
 40
1
 10
88.383235
 20
141.571905
 30
0.0
 10
88.377089
 20
141.574785
 30
0.0
 10
88.370886
 20
141.577541
 30
0.0
 10
88.364629
 20
141.580173
 30
0.0
  0
SPLINE
  5
25c
100
AcDbEntity
  8
WS2812B_4x4_40mil
 62
7
100
AcDbSpline
 70
8
 71
3
 72
8
 73
4
 74
0
 40
0
 40
0
 40
0
 40
0
 40
1
 40
1
 40
1
 40
1
 10
88.364629
 20
141.580173
 30
0.0
 10
88.363425
 20
141.580522
 30
0.0
 10
88.362219
 20
141.580867
 30
0.0
 10
88.361012
 20
141.581207
 30
0.0
  0
SPLINE
  5
25d
100
AcDbEntity
  8
WS2812B_4x4_40mil
 62
7
100
AcDbSpline
 70
8
 71
3
 72
8
 73
4
 74
0
 40
0
 40
0
 40
0
 40
0
 40
1
 40
1
 40
1
 40
1
 10
88.361012
 20
141.581207
 30
0.0
 10
88.302142
 20
141.604700
 30
0.0
 10
88.239394
 20
141.616969
 30
0.0
 10
88.176010
 20
141.617381
 30
0.0
  0
SPLINE
  5
25e
100
AcDbEntity
  8
WS2812B_4x4_40mil
 62
7
100
AcDbSpline
 70
8
 71
3
 72
8
 73
4
 74
0
 40
0
 40
0
 40
0
 40
0
 40
1
 40
1
 40
1
 40
1
 10
88.176010
 20
141.617381
 30
0.0
 10
88.153528
 20
141.617147
 30
0.0
 10
88.131086
 20
141.615421
 30
0.0
 10
88.108833
 20
141.612214
 30
0.0
  0
LWPOLYLINE
  5
25f
100
AcDbEntity
  8
WS2812B_4x4_40mil
 62
7
100
AcDbPolyline
 90
3
 70
0
 10
93.831995
 20
136.012038
 30
0.0
 10
93.831995
 20
136.764963
 30
0.0
 10
93.218080
 20
136.764963
 30
0.0
  0
SPLINE
  5
260
100
AcDbEntity
  8
WS2812B_4x4_40mil
 62
7
100
AcDbSpline
 70
8
 71
3
 72
8
 73
4
 74
0
 40
0
 40
0
 40
0
 40
0
 40
1
 40
1
 40
1
 40
1
 10
93.831995
 20
155.872324
 30
0.0
 10
93.834360
 20
155.890495
 30
0.0
 10
93.835741
 20
155.908780
 30
0.0
 10
93.836130
 20
155.927100
 30
0.0
  0
SPLINE
  5
261
100
AcDbEntity
  8
WS2812B_4x4_40mil
 62
7
100
AcDbSpline
 70
8
 71
3
 72
8
 73
4
 74
0
 40
0
 40
0
 40
0
 40
0
 40
1
 40
1
 40
1
 40
1
 10
93.836130
 20
155.927100
 30
0.0
 10
93.837264
 20
155.956276
 30
0.0
 10
93.835881
 20
155.985496
 30
0.0
 10
93.831995
 20
156.014434
 30
0.0
  0
LWPOLYLINE
  5
262
100
AcDbEntity
  8
WS2812B_4x4_40mil
 62
7
100
AcDbPolyline
 90
5
 70
0
 10
88.108833
 20
141.612214
 30
0.0
 10
79.712445
 20
141.612214
 30
0.0
 10
93.217048
 20
155.116298
 30
0.0
 10
93.831995
 20
155.116298
 30
0.0
 10
93.831995
 20
155.872324
 30
0.0
  0
SPLINE
  5
263
100
AcDbEntity
  8
WS2812B_4x4_40mil
 62
7
100
AcDbSpline
 70
8
 71
3
 72
8
 73
4
 74
0
 40
0
 40
0
 40
0
 40
0
 40
1
 40
1
 40
1
 40
1
 10
88.592007
 20
161.391884
 30
0.0
 10
88.537171
 20
161.464075
 30
0.0
 10
88.464016
 20
161.520279
 30
0.0
 10
88.380134
 20
161.554663
 30
0.0
  0
SPLINE
  5
264
100
AcDbEntity
  8
WS2812B_4x4_40mil
 62
7
100
AcDbSpline
 70
8
 71
3
 72
8
 73
4
 74
0
 40
0
 40
0
 40
0
 40
0
 40
1
 40
1
 40
1
 40
1
 10
88.380134
 20
161.554663
 30
0.0
 10
88.375003
 20
161.556989
 30
0.0
 10
88.369834
 20
161.559228
 30
0.0
 10
88.364629
 20
161.561381
 30
0.0
  0
SPLINE
  5
265
100
AcDbEntity
  8
WS2812B_4x4_40mil
 62
7
100
AcDbSpline
 70
8
 71
3
 72
8
 73
4
 74
0
 40
0
 40
0
 40
0
 40
0
 40
1
 40
1
 40
1
 40
1
 10
88.364629
 20
161.561381
 30
0.0
 10
88.364286
 20
161.561554
 30
0.0
 10
88.363942
 20
161.561727
 30
0.0
 10
88.363597
 20
161.561900
 30
0.0
  0
SPLINE
  5
266
100
AcDbEntity
  8
WS2812B_4x4_40mil
 62
7
100
AcDbSpline
 70
8
 71
3
 72
8
 73
4
 74
0
 40
0
 40
0
 40
0
 40
0
 40
1
 40
1
 40
1
 40
1
 10
88.363597
 20
161.561900
 30
0.0
 10
88.303631
 20
161.586016
 30
0.0
 10
88.239613
 20
161.598469
 30
0.0
 10
88.174979
 20
161.598590
 30
0.0
  0
SPLINE
  5
267
100
AcDbEntity
  8
WS2812B_4x4_40mil
 62
7
100
AcDbSpline
 70
8
 71
3
 72
8
 73
4
 74
0
 40
0
 40
0
 40
0
 40
0
 40
1
 40
1
 40
1
 40
1
 10
88.174979
 20
161.598590
 30
0.0
 10
88.152495
 20
161.598356
 30
0.0
 10
88.130053
 20
161.596629
 30
0.0
 10
88.107798
 20
161.593422
 30
0.0
  0
LWPOLYLINE
  5
268
100
AcDbEntity
  8
WS2812B_4x4_40mil
 62
7
100
AcDbPolyline
 90
4
 70
0
 10
93.831995
 20
156.014434
 30
0.0
 10
93.831995
 20
156.767359
 30
0.0
 10
93.217048
 20
156.767359
 30
0.0
 10
88.592007
 20
161.391884
 30
0.0
  0
SPLINE
  5
269
100
AcDbEntity
  8
WS2812B_4x4_40mil
 62
7
100
AcDbSpline
 70
8
 71
3
 72
8
 73
4
 74
0
 40
0
 40
0
 40
0
 40
0
 40
1
 40
1
 40
1
 40
1
 10
93.831995
 20
175.852500
 30
0.0
 10
93.834417
 20
175.871185
 30
0.0
 10
93.835797
 20
175.889990
 30
0.0
 10
93.836130
 20
175.908828
 30
0.0
  0
SPLINE
  5
26a
100
AcDbEntity
  8
WS2812B_4x4_40mil
 62
7
100
AcDbSpline
 70
8
 71
3
 72
8
 73
4
 74
0
 40
0
 40
0
 40
0
 40
0
 40
1
 40
1
 40
1
 40
1
 10
93.836130
 20
175.908828
 30
0.0
 10
93.837234
 20
175.937831
 30
0.0
 10
93.835851
 20
175.966875
 30
0.0
 10
93.831995
 20
175.995643
 30
0.0
  0
LWPOLYLINE
  5
26b
100
AcDbEntity
  8
WS2812B_4x4_40mil
 62
7
100
AcDbPolyline
 90
5
 70
0
 10
88.107798
 20
161.593422
 30
0.0
 10
79.712445
 20
161.593422
 30
0.0
 10
93.216529
 20
175.097507
 30
0.0
 10
93.831995
 20
175.097507
 30
0.0
 10
93.831995
 20
175.852500
 30
0.0
  0
SPLINE
  5
26c
100
AcDbEntity
  8
WS2812B_4x4_40mil
 62
7
100
AcDbSpline
 70
8
 71
3
 72
8
 73
4
 74
0
 40
0
 40
0
 40
0
 40
0
 40
1
 40
1
 40
1
 40
1
 10
93.219114
 20
176.748570
 30
0.0
 10
93.219114
 20
176.748570
 30
0.0
 10
88.590972
 20
181.395831
 30
0.0
 10
88.590972
 20
181.395831
 30
0.0
  0
SPLINE
  5
26d
100
AcDbEntity
  8
WS2812B_4x4_40mil
 62
7
100
AcDbSpline
 70
8
 71
3
 72
8
 73
4
 74
0
 40
0
 40
0
 40
0
 40
0
 40
1
 40
1
 40
1
 40
1
 10
88.590972
 20
181.395831
 30
0.0
 10
88.536505
 20
181.467162
 30
0.0
 10
88.464114
 20
181.522792
 30
0.0
 10
88.381166
 20
181.557060
 30
0.0
  0
SPLINE
  5
26e
100
AcDbEntity
  8
WS2812B_4x4_40mil
 62
7
100
AcDbSpline
 70
8
 71
3
 72
8
 73
4
 74
0
 40
0
 40
0
 40
0
 40
0
 40
1
 40
1
 40
1
 40
1
 10
88.381166
 20
181.557060
 30
0.0
 10
88.375697
 20
181.559570
 30
0.0
 10
88.370184
 20
181.561982
 30
0.0
 10
88.364629
 20
181.564296
 30
0.0
  0
SPLINE
  5
26f
100
AcDbEntity
  8
WS2812B_4x4_40mil
 62
7
100
AcDbSpline
 70
8
 71
3
 72
8
 73
4
 74
0
 40
0
 40
0
 40
0
 40
0
 40
1
 40
1
 40
1
 40
1
 10
88.364629
 20
181.564296
 30
0.0
 10
88.363597
 20
181.564643
 30
0.0
 10
88.362563
 20
181.564987
 30
0.0
 10
88.361528
 20
181.565328
 30
0.0
  0
SPLINE
  5
270
100
AcDbEntity
  8
WS2812B_4x4_40mil
 62
7
100
AcDbSpline
 70
8
 71
3
 72
8
 73
4
 74
0
 40
0
 40
0
 40
0
 40
0
 40
1
 40
1
 40
1
 40
1
 10
88.361528
 20
181.565328
 30
0.0
 10
88.302462
 20
181.588708
 30
0.0
 10
88.239535
 20
181.600803
 30
0.0
 10
88.176010
 20
181.600986
 30
0.0
  0
SPLINE
  5
271
100
AcDbEntity
  8
WS2812B_4x4_40mil
 62
7
100
AcDbSpline
 70
8
 71
3
 72
8
 73
4
 74
0
 40
0
 40
0
 40
0
 40
0
 40
1
 40
1
 40
1
 40
1
 10
88.176010
 20
181.600986
 30
0.0
 10
88.153011
 20
181.600821
 30
0.0
 10
88.130048
 20
181.599095
 30
0.0
 10
88.107282
 20
181.595819
 30
0.0
  0
LWPOLYLINE
  5
272
100
AcDbEntity
  8
WS2812B_4x4_40mil
 62
7
100
AcDbPolyline
 90
3
 70
0
 10
93.831995
 20
175.995643
 30
0.0
 10
93.831995
 20
176.748570
 30
0.0
 10
93.219114
 20
176.748570
 30
0.0
  0
LWPOLYLINE
  5
273
100
AcDbEntity
  8
WS2812B_4x4_40mil
 62
7
100
AcDbPolyline
 90
5
 70
0
 10
88.107282
 20
181.595819
 30
0.0
 10
77.046458
 20
181.595819
 30
0.0
 10
77.046458
 20
181.913628
 30
0.0
 10
76.030501
 20
181.913628
 30
0.0
 10
76.030501
 20
181.913628
 30
0.0
  0
SPLINE
  5
274
100
AcDbEntity
  8
WS2812B_4x4_40mil
 62
7
100
AcDbSpline
 70
8
 71
3
 72
8
 73
4
 74
0
 40
0
 40
0
 40
0
 40
0
 40
1
 40
1
 40
1
 40
1
 10
76.030501
 20
176.088660
 30
0.0
 10
76.003406
 20
176.009817
 30
0.0
 10
75.996129
 20
175.925517
 30
0.0
 10
76.009313
 20
175.843198
 30
0.0
  0
LWPOLYLINE
  5
275
100
AcDbEntity
  8
WS2812B_4x4_40mil
 62
7
100
AcDbPolyline
 90
2
 70
0
 10
76.030501
 20
176.748570
 30
0.0
 10
76.030501
 20
176.088660
 30
0.0
  0
SPLINE
  5
276
100
AcDbEntity
  8
WS2812B_4x4_40mil
 62
7
100
AcDbSpline
 70
8
 71
3
 72
8
 73
4
 74
0
 40
0
 40
0
 40
0
 40
0
 40
1
 40
1
 40
1
 40
1
 10
73.032750
 20
171.464137
 30
0.0
 10
72.961318
 20
171.409035
 30
0.0
 10
72.905847
 20
171.335905
 30
0.0
 10
72.872037
 20
171.252264
 30
0.0
  0
SPLINE
  5
277
100
AcDbEntity
  8
WS2812B_4x4_40mil
 62
7
100
AcDbSpline
 70
8
 71
3
 72
8
 73
4
 74
0
 40
0
 40
0
 40
0
 40
0
 40
1
 40
1
 40
1
 40
1
 10
72.872037
 20
171.252264
 30
0.0
 10
72.870445
 20
171.248665
 30
0.0
 10
72.868894
 20
171.245047
 30
0.0
 10
72.867386
 20
171.241411
 30
0.0
  0
SPLINE
  5
278
100
AcDbEntity
  8
WS2812B_4x4_40mil
 62
7
100
AcDbSpline
 70
8
 71
3
 72
8
 73
4
 74
0
 40
0
 40
0
 40
0
 40
0
 40
1
 40
1
 40
1
 40
1
 10
72.867386
 20
171.241411
 30
0.0
 10
72.866506
 20
171.239006
 30
0.0
 10
72.865644
 20
171.236595
 30
0.0
 10
72.864801
 20
171.234177
 30
0.0
  0
SPLINE
  5
279
100
AcDbEntity
  8
WS2812B_4x4_40mil
 62
7
100
AcDbSpline
 70
8
 71
3
 72
8
 73
4
 74
0
 40
0
 40
0
 40
0
 40
0
 40
1
 40
1
 40
1
 40
1
 10
72.864801
 20
171.234177
 30
0.0
 10
72.834315
 20
171.155640
 30
0.0
 10
72.823838
 20
171.070755
 30
0.0
 10
72.834313
 20
170.987162
 30
0.0
  0
LWPOLYLINE
  5
27a
100
AcDbEntity
  8
WS2812B_4x4_40mil
 62
7
100
AcDbPolyline
 90
3
 70
0
 10
76.009313
 20
175.843198
 30
0.0
 10
76.009313
 20
174.460337
 30
0.0
 10
73.032750
 20
171.464137
 30
0.0
  0
SPLINE
  5
27b
100
AcDbEntity
  8
WS2812B_4x4_40mil
 62
7
100
AcDbSpline
 70
8
 71
3
 72
8
 73
4
 74
0
 40
0
 40
0
 40
0
 40
0
 40
1
 40
1
 40
1
 40
1
 10
76.827349
 20
173.841770
 30
0.0
 10
76.897373
 20
173.895852
 30
0.0
 10
76.952059
 20
173.967282
 30
0.0
 10
76.985996
 20
174.048992
 30
0.0
  0
SPLINE
  5
27c
100
AcDbEntity
  8
WS2812B_4x4_40mil
 62
7
100
AcDbSpline
 70
8
 71
3
 72
8
 73
4
 74
0
 40
0
 40
0
 40
0
 40
0
 40
1
 40
1
 40
1
 40
1
 10
76.985996
 20
174.048992
 30
0.0
 10
77.024654
 20
174.135671
 30
0.0
 10
77.038259
 20
174.231445
 30
0.0
 10
77.025271
 20
174.325460
 30
0.0
  0
LWPOLYLINE
  5
27d
100
AcDbEntity
  8
WS2812B_4x4_40mil
 62
7
100
AcDbPolyline
 90
7
 70
0
 10
72.834313
 20
170.987162
 30
0.0
 10
72.834313
 20
161.085443
 30
0.0
 10
72.834313
 20
160.259652
 30
0.0
 10
73.850271
 20
160.259652
 30
0.0
 10
73.850271
 20
161.910716
 30
0.0
 10
73.850271
 20
170.845055
 30
0.0
 10
76.827349
 20
173.841770
 30
0.0
  0
SPLINE
  5
27e
100
AcDbEntity
  8
WS2812B_4x4_40mil
 62
7
100
AcDbSpline
 70
8
 71
3
 72
8
 73
4
 74
0
 40
0
 40
0
 40
0
 40
0
 40
1
 40
1
 40
1
 40
1
 10
77.046458
 20
175.097507
 30
0.0
 10
77.046458
 20
175.097507
 30
0.0
 10
77.046458
 20
175.837514
 30
0.0
 10
77.046458
 20
175.837514
 30
0.0
  0
SPLINE
  5
27f
100
AcDbEntity
  8
WS2812B_4x4_40mil
 62
7
100
AcDbSpline
 70
8
 71
3
 72
8
 73
4
 74
0
 40
0
 40
0
 40
0
 40
0
 40
1
 40
1
 40
1
 40
1
 10
77.046458
 20
175.837514
 30
0.0
 10
77.055891
 20
175.893447
 30
0.0
 10
77.055891
 20
175.950564
 30
0.0
 10
77.046458
 20
176.006496
 30
0.0
  0
LWPOLYLINE
  5
280
100
AcDbEntity
  8
WS2812B_4x4_40mil
 62
7
100
AcDbPolyline
 90
3
 70
0
 10
77.025271
 20
174.325460
 30
0.0
 10
77.025271
 20
175.097507
 30
0.0
 10
77.046458
 20
175.097507
 30
0.0
  0
LWPOLYLINE
  5
281
100
AcDbEntity
  8
WS2812B_4x4_40mil
 62
7
100
AcDbPolyline
 90
4
 70
0
 10
77.046458
 20
176.006496
 30
0.0
 10
77.046458
 20
176.748570
 30
0.0
 10
76.030501
 20
176.748570
 30
0.0
 10
76.030501
 20
176.748570
 30
0.0
  0
SPLINE
  5
282
100
AcDbEntity
  8
WS2812B_4x4_40mil
 62
7
100
AcDbSpline
 70
8
 71
3
 72
8
 73
4
 74
0
 40
0
 40
0
 40
0
 40
0
 40
1
 40
1
 40
1
 40
1
 10
93.036697
 20
163.189190
 30
0.0
 10
92.965961
 20
163.135019
 30
0.0
 10
92.910715
 20
163.063199
 30
0.0
 10
92.876500
 20
162.980934
 30
0.0
  0
SPLINE
  5
283
100
AcDbEntity
  8
WS2812B_4x4_40mil
 62
7
100
AcDbSpline
 70
8
 71
3
 72
8
 73
4
 74
0
 40
0
 40
0
 40
0
 40
0
 40
1
 40
1
 40
1
 40
1
 10
92.876500
 20
162.980934
 30
0.0
 10
92.874164
 20
162.975462
 30
0.0
 10
92.871924
 20
162.969949
 30
0.0
 10
92.869782
 20
162.964398
 30
0.0
  0
SPLINE
  5
284
100
AcDbEntity
  8
WS2812B_4x4_40mil
 62
7
100
AcDbSpline
 70
8
 71
3
 72
8
 73
4
 74
0
 40
0
 40
0
 40
0
 40
0
 40
1
 40
1
 40
1
 40
1
 10
92.869782
 20
162.964398
 30
0.0
 10
92.869083
 20
162.962679
 30
0.0
 10
92.868393
 20
162.960957
 30
0.0
 10
92.867713
 20
162.959230
 30
0.0
  0
SPLINE
  5
285
100
AcDbEntity
  8
WS2812B_4x4_40mil
 62
7
100
AcDbSpline
 70
8
 71
3
 72
8
 73
4
 74
0
 40
0
 40
0
 40
0
 40
0
 40
1
 40
1
 40
1
 40
1
 10
92.867713
 20
162.959230
 30
0.0
 10
92.836185
 20
162.878791
 30
0.0
 10
92.825692
 20
162.791640
 30
0.0
 10
92.837225
 20
162.706016
 30
0.0
  0
LWPOLYLINE
  5
286
100
AcDbEntity
  8
WS2812B_4x4_40mil
 62
7
100
AcDbPolyline
 90
4
 70
0
 10
96.012225
 20
176.748570
 30
0.0
 10
96.012225
 20
175.097507
 30
0.0
 10
96.012225
 20
166.164718
 30
0.0
 10
93.036697
 20
163.189190
 30
0.0
  0
SPLINE
  5
287
100
AcDbEntity
  8
WS2812B_4x4_40mil
 62
7
100
AcDbSpline
 70
8
 71
3
 72
8
 73
4
 74
0
 40
0
 40
0
 40
0
 40
0
 40
1
 40
1
 40
1
 40
1
 10
92.816037
 20
161.910716
 30
0.0
 10
92.816037
 20
161.910716
 30
0.0
 10
92.816037
 20
161.149004
 30
0.0
 10
92.816037
 20
161.149004
 30
0.0
  0
SPLINE
  5
288
100
AcDbEntity
  8
WS2812B_4x4_40mil
 62
7
100
AcDbSpline
 70
8
 71
3
 72
8
 73
4
 74
0
 40
0
 40
0
 40
0
 40
0
 40
1
 40
1
 40
1
 40
1
 10
92.816037
 20
161.149004
 30
0.0
 10
92.809904
 20
161.103736
 30
0.0
 10
92.809904
 20
161.057848
 30
0.0
 10
92.816037
 20
161.012580
 30
0.0
  0
LWPOLYLINE
  5
289
100
AcDbEntity
  8
WS2812B_4x4_40mil
 62
7
100
AcDbPolyline
 90
3
 70
0
 10
92.837225
 20
162.706016
 30
0.0
 10
92.837225
 20
161.910716
 30
0.0
 10
92.816037
 20
161.910716
 30
0.0
  0
SPLINE
  5
28a
100
AcDbEntity
  8
WS2812B_4x4_40mil
 62
7
100
AcDbSpline
 70
8
 71
3
 72
8
 73
4
 74
0
 40
0
 40
0
 40
0
 40
0
 40
1
 40
1
 40
1
 40
1
 10
93.831995
 20
160.259652
 30
0.0
 10
93.831995
 20
160.259652
 30
0.0
 10
93.831995
 20
160.952117
 30
0.0
 10
93.831995
 20
160.952117
 30
0.0
  0
SPLINE
  5
28b
100
AcDbEntity
  8
WS2812B_4x4_40mil
 62
7
100
AcDbSpline
 70
8
 71
3
 72
8
 73
4
 74
0
 40
0
 40
0
 40
0
 40
0
 40
1
 40
1
 40
1
 40
1
 10
93.831995
 20
160.952117
 30
0.0
 10
93.856142
 20
161.025158
 30
0.0
 10
93.863387
 20
161.102728
 30
0.0
 10
93.853183
 20
161.178976
 30
0.0
  0
LWPOLYLINE
  5
28c
100
AcDbEntity
  8
WS2812B_4x4_40mil
 62
7
100
AcDbPolyline
 90
3
 70
0
 10
92.816037
 20
161.012580
 30
0.0
 10
92.816037
 20
160.259652
 30
0.0
 10
93.831995
 20
160.259652
 30
0.0
  0
SPLINE
  5
28d
100
AcDbEntity
  8
WS2812B_4x4_40mil
 62
7
100
AcDbSpline
 70
8
 71
3
 72
8
 73
4
 74
0
 40
0
 40
0
 40
0
 40
0
 40
1
 40
1
 40
1
 40
1
 10
96.827163
 20
165.542535
 30
0.0
 10
96.898685
 20
165.596935
 30
0.0
 10
96.954498
 20
165.669332
 30
0.0
 10
96.988911
 20
165.752341
 30
0.0
  0
SPLINE
  5
28e
100
AcDbEntity
  8
WS2812B_4x4_40mil
 62
7
100
AcDbSpline
 70
8
 71
3
 72
8
 73
4
 74
0
 40
0
 40
0
 40
0
 40
0
 40
1
 40
1
 40
1
 40
1
 10
96.988911
 20
165.752341
 30
0.0
 10
96.991425
 20
165.757981
 30
0.0
 10
96.993837
 20
165.763666
 30
0.0
 10
96.996144
 20
165.769394
 30
0.0
  0
SPLINE
  5
28f
100
AcDbEntity
  8
WS2812B_4x4_40mil
 62
7
100
AcDbSpline
 70
8
 71
3
 72
8
 73
4
 74
0
 40
0
 40
0
 40
0
 40
0
 40
1
 40
1
 40
1
 40
1
 10
96.996144
 20
165.769394
 30
0.0
 10
96.996317
 20
165.769738
 30
0.0
 10
96.996489
 20
165.770083
 30
0.0
 10
96.996660
 20
165.770428
 30
0.0
  0
SPLINE
  5
290
100
AcDbEntity
  8
WS2812B_4x4_40mil
 62
7
100
AcDbSpline
 70
8
 71
3
 72
8
 73
4
 74
0
 40
0
 40
0
 40
0
 40
0
 40
1
 40
1
 40
1
 40
1
 10
96.996660
 20
165.770428
 30
0.0
 10
97.028980
 20
165.851567
 30
0.0
 10
97.039837
 20
165.939667
 30
0.0
 10
97.028183
 20
166.026225
 30
0.0
  0
LWPOLYLINE
  5
291
100
AcDbEntity
  8
WS2812B_4x4_40mil
 62
7
100
AcDbPolyline
 90
3
 70
0
 10
93.853183
 20
161.178976
 30
0.0
 10
93.853183
 20
162.568555
 30
0.0
 10
96.827163
 20
165.542535
 30
0.0
  0
SPLINE
  5
292
100
AcDbEntity
  8
WS2812B_4x4_40mil
 62
7
100
AcDbSpline
 70
8
 71
3
 72
8
 73
4
 74
0
 40
0
 40
0
 40
0
 40
0
 40
1
 40
1
 40
1
 40
1
 10
116.014621
 20
176.748570
 30
0.0
 10
116.014621
 20
176.748570
 30
0.0
 10
116.014621
 20
176.089178
 30
0.0
 10
116.014621
 20
176.089178
 30
0.0
  0
SPLINE
  5
293
100
AcDbEntity
  8
WS2812B_4x4_40mil
 62
7
100
AcDbSpline
 70
8
 71
3
 72
8
 73
4
 74
0
 40
0
 40
0
 40
0
 40
0
 40
1
 40
1
 40
1
 40
1
 10
116.014621
 20
176.089178
 30
0.0
 10
115.986924
 20
176.009211
 30
0.0
 10
115.979641
 20
175.923593
 30
0.0
 10
115.993434
 20
175.840097
 30
0.0
  0
LWPOLYLINE
  5
294
100
AcDbEntity
  8
WS2812B_4x4_40mil
 62
7
100
AcDbPolyline
 90
5
 70
0
 10
97.028183
 20
166.026225
 30
0.0
 10
97.028183
 20
175.923295
 30
0.0
 10
97.028183
 20
176.748570
 30
0.0
 10
96.012225
 20
176.748570
 30
0.0
 10
96.012225
 20
176.748570
 30
0.0
  0
SPLINE
  5
295
100
AcDbEntity
  8
WS2812B_4x4_40mil
 62
7
100
AcDbSpline
 70
8
 71
3
 72
8
 73
4
 74
0
 40
0
 40
0
 40
0
 40
0
 40
1
 40
1
 40
1
 40
1
 10
113.015321
 20
171.463103
 30
0.0
 10
112.944005
 20
171.407792
 30
0.0
 10
112.888710
 20
171.334482
 30
0.0
 10
112.855123
 20
171.250714
 30
0.0
  0
SPLINE
  5
296
100
AcDbEntity
  8
WS2812B_4x4_40mil
 62
7
100
AcDbSpline
 70
8
 71
3
 72
8
 73
4
 74
0
 40
0
 40
0
 40
0
 40
0
 40
1
 40
1
 40
1
 40
1
 10
112.855123
 20
171.250714
 30
0.0
 10
112.853715
 20
171.247627
 30
0.0
 10
112.852337
 20
171.244526
 30
0.0
 10
112.850991
 20
171.241411
 30
0.0
  0
SPLINE
  5
297
100
AcDbEntity
  8
WS2812B_4x4_40mil
 62
7
100
AcDbSpline
 70
8
 71
3
 72
8
 73
4
 74
0
 40
0
 40
0
 40
0
 40
0
 40
1
 40
1
 40
1
 40
1
 10
112.850991
 20
171.241411
 30
0.0
 10
112.850288
 20
171.239348
 30
0.0
 10
112.849598
 20
171.237281
 30
0.0
 10
112.848922
 20
171.235209
 30
0.0
  0
SPLINE
  5
298
100
AcDbEntity
  8
WS2812B_4x4_40mil
 62
7
100
AcDbSpline
 70
8
 71
3
 72
8
 73
4
 74
0
 40
0
 40
0
 40
0
 40
0
 40
1
 40
1
 40
1
 40
1
 10
112.848922
 20
171.235209
 30
0.0
 10
112.817657
 20
171.155245
 30
0.0
 10
112.807168
 20
171.068662
 30
0.0
 10
112.818434
 20
170.983545
 30
0.0
  0
LWPOLYLINE
  5
299
100
AcDbEntity
  8
WS2812B_4x4_40mil
 62
7
100
AcDbPolyline
 90
3
 70
0
 10
115.993434
 20
175.840097
 30
0.0
 10
115.993434
 20
174.460853
 30
0.0
 10
113.015321
 20
171.463103
 30
0.0
  0
SPLINE
  5
29a
100
AcDbEntity
  8
WS2812B_4x4_40mil
 62
7
100
AcDbSpline
 70
8
 71
3
 72
8
 73
4
 74
0
 40
0
 40
0
 40
0
 40
0
 40
1
 40
1
 40
1
 40
1
 10
116.810954
 20
173.841770
 30
0.0
 10
116.880244
 20
173.895265
 30
0.0
 10
116.934537
 20
173.965755
 30
0.0
 10
116.968569
 20
174.046407
 30
0.0
  0
SPLINE
  5
29b
100
AcDbEntity
  8
WS2812B_4x4_40mil
 62
7
100
AcDbSpline
 70
8
 71
3
 72
8
 73
4
 74
0
 40
0
 40
0
 40
0
 40
0
 40
1
 40
1
 40
1
 40
1
 10
116.968569
 20
174.046407
 30
0.0
 10
117.008044
 20
174.133400
 30
0.0
 10
117.022193
 20
174.229760
 30
0.0
 10
117.009391
 20
174.324428
 30
0.0
  0
LWPOLYLINE
  5
29c
100
AcDbEntity
  8
WS2812B_4x4_40mil
 62
7
100
AcDbPolyline
 90
7
 70
0
 10
112.818434
 20
170.983545
 30
0.0
 10
112.818434
 20
161.085443
 30
0.0
 10
112.818434
 20
160.259652
 30
0.0
 10
113.834391
 20
160.259652
 30
0.0
 10
113.834391
 20
161.910716
 30
0.0
 10
113.834391
 20
170.845570
 30
0.0
 10
116.810954
 20
173.841770
 30
0.0
  0
SPLINE
  5
29d
100
AcDbEntity
  8
WS2812B_4x4_40mil
 62
7
100
AcDbSpline
 70
8
 71
3
 72
8
 73
4
 74
0
 40
0
 40
0
 40
0
 40
0
 40
1
 40
1
 40
1
 40
1
 10
117.030579
 20
175.097507
 30
0.0
 10
117.030579
 20
175.097507
 30
0.0
 10
117.030579
 20
175.841131
 30
0.0
 10
117.030579
 20
175.841131
 30
0.0
  0
SPLINE
  5
29e
100
AcDbEntity
  8
WS2812B_4x4_40mil
 62
7
100
AcDbSpline
 70
8
 71
3
 72
8
 73
4
 74
0
 40
0
 40
0
 40
0
 40
0
 40
1
 40
1
 40
1
 40
1
 10
117.030579
 20
175.841131
 30
0.0
 10
117.039272
 20
175.894870
 30
0.0
 10
117.039272
 20
175.949656
 30
0.0
 10
117.030579
 20
176.003395
 30
0.0
  0
LWPOLYLINE
  5
29f
100
AcDbEntity
  8
WS2812B_4x4_40mil
 62
7
100
AcDbPolyline
 90
3
 70
0
 10
117.009391
 20
174.324428
 30
0.0
 10
117.009391
 20
175.097507
 30
0.0
 10
117.030579
 20
175.097507
 30
0.0
  0
LWPOLYLINE
  5
2a0
100
AcDbEntity
  8
WS2812B_4x4_40mil
 62
7
100
AcDbPolyline
 90
4
 70
0
 10
117.030579
 20
176.003395
 30
0.0
 10
117.030579
 20
176.748570
 30
0.0
 10
116.014621
 20
176.748570
 30
0.0
 10
116.014621
 20
176.748570
 30
0.0
  0
SPLINE
  5
2a1
100
AcDbEntity
  8
WS2812B_4x4_40mil
 62
7
100
AcDbSpline
 70
8
 71
3
 72
8
 73
4
 74
0
 40
0
 40
0
 40
0
 40
0
 40
1
 40
1
 40
1
 40
1
 10
135.995830
 20
166.164202
 30
0.0
 10
135.995830
 20
166.164202
 30
0.0
 10
133.021334
 20
163.189706
 30
0.0
 10
133.021334
 20
163.189706
 30
0.0
  0
SPLINE
  5
2a2
100
AcDbEntity
  8
WS2812B_4x4_40mil
 62
7
100
AcDbSpline
 70
8
 71
3
 72
8
 73
4
 74
0
 40
0
 40
0
 40
0
 40
0
 40
1
 40
1
 40
1
 40
1
 10
133.021334
 20
163.189706
 30
0.0
 10
132.942276
 20
163.129463
 30
0.0
 10
132.882625
 20
163.047353
 30
0.0
 10
132.849770
 20
162.953545
 30
0.0
  0
SPLINE
  5
2a3
100
AcDbEntity
  8
WS2812B_4x4_40mil
 62
7
100
AcDbSpline
 70
8
 71
3
 72
8
 73
4
 74
0
 40
0
 40
0
 40
0
 40
0
 40
1
 40
1
 40
1
 40
1
 10
132.849770
 20
162.953545
 30
0.0
 10
132.819723
 20
162.874717
 30
0.0
 10
132.809777
 20
162.789649
 30
0.0
 10
132.820830
 20
162.706016
 30
0.0
  0
LWPOLYLINE
  5
2a4
100
AcDbEntity
  8
WS2812B_4x4_40mil
 62
7
100
AcDbPolyline
 90
3
 70
0
 10
135.995830
 20
176.748570
 30
0.0
 10
135.995830
 20
175.097507
 30
0.0
 10
135.995830
 20
166.164202
 30
0.0
  0
SPLINE
  5
2a5
100
AcDbEntity
  8
WS2812B_4x4_40mil
 62
7
100
AcDbSpline
 70
8
 71
3
 72
8
 73
4
 74
0
 40
0
 40
0
 40
0
 40
0
 40
1
 40
1
 40
1
 40
1
 10
132.799642
 20
161.147454
 30
0.0
 10
132.793831
 20
161.103375
 30
0.0
 10
132.793831
 20
161.058725
 30
0.0
 10
132.799642
 20
161.014646
 30
0.0
  0
LWPOLYLINE
  5
2a6
100
AcDbEntity
  8
WS2812B_4x4_40mil
 62
7
100
AcDbPolyline
 90
4
 70
0
 10
132.820830
 20
162.706016
 30
0.0
 10
132.820830
 20
161.910716
 30
0.0
 10
132.799642
 20
161.910716
 30
0.0
 10
132.799642
 20
161.147454
 30
0.0
  0
SPLINE
  5
2a7
100
AcDbEntity
  8
WS2812B_4x4_40mil
 62
7
100
AcDbSpline
 70
8
 71
3
 72
8
 73
4
 74
0
 40
0
 40
0
 40
0
 40
0
 40
1
 40
1
 40
1
 40
1
 10
133.815602
 20
160.259652
 30
0.0
 10
133.815602
 20
160.259652
 30
0.0
 10
133.815602
 20
160.951601
 30
0.0
 10
133.815602
 20
160.951601
 30
0.0
  0
SPLINE
  5
2a8
100
AcDbEntity
  8
WS2812B_4x4_40mil
 62
7
100
AcDbSpline
 70
8
 71
3
 72
8
 73
4
 74
0
 40
0
 40
0
 40
0
 40
0
 40
1
 40
1
 40
1
 40
1
 10
133.815602
 20
160.951601
 30
0.0
 10
133.839827
 20
161.024803
 30
0.0
 10
133.847072
 20
161.102559
 30
0.0
 10
133.836788
 20
161.178976
 30
0.0
  0
LWPOLYLINE
  5
2a9
100
AcDbEntity
  8
WS2812B_4x4_40mil
 62
7
100
AcDbPolyline
 90
3
 70
0
 10
132.799642
 20
161.014646
 30
0.0
 10
132.799642
 20
160.259652
 30
0.0
 10
133.815602
 20
160.259652
 30
0.0
  0
SPLINE
  5
2aa
100
AcDbEntity
  8
WS2812B_4x4_40mil
 62
7
100
AcDbSpline
 70
8
 71
3
 72
8
 73
4
 74
0
 40
0
 40
0
 40
0
 40
0
 40
1
 40
1
 40
1
 40
1
 10
136.810249
 20
165.542019
 30
0.0
 10
136.882223
 20
165.596428
 30
0.0
 10
136.938409
 20
165.669023
 30
0.0
 10
136.973031
 20
165.752341
 30
0.0
  0
SPLINE
  5
2ab
100
AcDbEntity
  8
WS2812B_4x4_40mil
 62
7
100
AcDbSpline
 70
8
 71
3
 72
8
 73
4
 74
0
 40
0
 40
0
 40
0
 40
0
 40
1
 40
1
 40
1
 40
1
 10
136.973031
 20
165.752341
 30
0.0
 10
136.975546
 20
165.757981
 30
0.0
 10
136.977958
 20
165.763666
 30
0.0
 10
136.980265
 20
165.769394
 30
0.0
  0
SPLINE
  5
2ac
100
AcDbEntity
  8
WS2812B_4x4_40mil
 62
7
100
AcDbSpline
 70
8
 71
3
 72
8
 73
4
 74
0
 40
0
 40
0
 40
0
 40
0
 40
1
 40
1
 40
1
 40
1
 10
136.980265
 20
165.769394
 30
0.0
 10
136.980612
 20
165.770255
 30
0.0
 10
136.980957
 20
165.771116
 30
0.0
 10
136.981300
 20
165.771979
 30
0.0
  0
SPLINE
  5
2ad
100
AcDbEntity
  8
WS2812B_4x4_40mil
 62
7
100
AcDbSpline
 70
8
 71
3
 72
8
 73
4
 74
0
 40
0
 40
0
 40
0
 40
0
 40
1
 40
1
 40
1
 40
1
 10
136.981300
 20
165.771979
 30
0.0
 10
137.013003
 20
165.852734
 30
0.0
 10
137.023499
 20
165.940263
 30
0.0
 10
137.011788
 20
166.026225
 30
0.0
  0
LWPOLYLINE
  5
2ae
100
AcDbEntity
  8
WS2812B_4x4_40mil
 62
7
100
AcDbPolyline
 90
3
 70
0
 10
133.836788
 20
161.178976
 30
0.0
 10
133.836788
 20
162.568555
 30
0.0
 10
136.810249
 20
165.542019
 30
0.0
  0
LWPOLYLINE
  5
2af
100
AcDbEntity
  8
WS2812B_4x4_40mil
 62
7
100
AcDbPolyline
 90
5
 70
0
 10
137.011788
 20
166.026225
 30
0.0
 10
137.011788
 20
175.923295
 30
0.0
 10
137.011788
 20
176.748570
 30
0.0
 10
135.995830
 20
176.748570
 30
0.0
 10
135.995830
 20
176.748570
 30
0.0
  0
SPLINE
  5
2b0
100
AcDbEntity
  8
WS2812B_4x4_40mil
 62
7
100
AcDbSpline
 70
8
 71
3
 72
8
 73
4
 74
0
 40
0
 40
0
 40
0
 40
0
 40
1
 40
1
 40
1
 40
1
 10
76.027400
 20
154.266737
 30
0.0
 10
76.027400
 20
154.266737
 30
0.0
 10
73.054454
 20
151.498947
 30
0.0
 10
73.054454
 20
151.498947
 30
0.0
  0
SPLINE
  5
2b1
100
AcDbEntity
  8
WS2812B_4x4_40mil
 62
7
100
AcDbSpline
 70
8
 71
3
 72
8
 73
4
 74
0
 40
0
 40
0
 40
0
 40
0
 40
1
 40
1
 40
1
 40
1
 10
73.054454
 20
151.498947
 30
0.0
 10
72.978444
 20
151.446328
 30
0.0
 10
72.918231
 20
151.373966
 30
0.0
 10
72.880303
 20
151.289659
 30
0.0
  0
SPLINE
  5
2b2
100
AcDbEntity
  8
WS2812B_4x4_40mil
 62
7
100
AcDbSpline
 70
8
 71
3
 72
8
 73
4
 74
0
 40
0
 40
0
 40
0
 40
0
 40
1
 40
1
 40
1
 40
1
 10
72.880303
 20
151.289659
 30
0.0
 10
72.875492
 20
151.279645
 30
0.0
 10
72.871011
 20
151.269476
 30
0.0
 10
72.866867
 20
151.259168
 30
0.0
  0
SPLINE
  5
2b3
100
AcDbEntity
  8
WS2812B_4x4_40mil
 62
7
100
AcDbSpline
 70
8
 71
3
 72
8
 73
4
 74
0
 40
0
 40
0
 40
0
 40
0
 40
1
 40
1
 40
1
 40
1
 10
72.866867
 20
151.259168
 30
0.0
 10
72.866694
 20
151.258479
 30
0.0
 10
72.866522
 20
151.257791
 30
0.0
 10
72.866351
 20
151.257102
 30
0.0
  0
SPLINE
  5
2b4
100
AcDbEntity
  8
WS2812B_4x4_40mil
 62
7
100
AcDbSpline
 70
8
 71
3
 72
8
 73
4
 74
0
 40
0
 40
0
 40
0
 40
0
 40
1
 40
1
 40
1
 40
1
 10
72.866351
 20
151.257102
 30
0.0
 10
72.834211
 20
151.176640
 30
0.0
 10
72.823182
 20
151.089296
 30
0.0
 10
72.834313
 20
151.003371
 30
0.0
  0
LWPOLYLINE
  5
2b5
100
AcDbEntity
  8
WS2812B_4x4_40mil
 62
7
100
AcDbPolyline
 90
3
 70
0
 10
76.030501
 20
156.767359
 30
0.0
 10
76.030501
 20
155.943121
 30
0.0
 10
76.027400
 20
154.266737
 30
0.0
  0
SPLINE
  5
2b6
100
AcDbEntity
  8
WS2812B_4x4_40mil
 62
7
100
AcDbSpline
 70
8
 71
3
 72
8
 73
4
 74
0
 40
0
 40
0
 40
0
 40
0
 40
1
 40
1
 40
1
 40
1
 10
73.850271
 20
150.851958
 30
0.0
 10
73.850271
 20
150.851958
 30
0.0
 10
76.825283
 20
153.621299
 30
0.0
 10
76.825283
 20
153.621299
 30
0.0
  0
SPLINE
  5
2b7
100
AcDbEntity
  8
WS2812B_4x4_40mil
 62
7
100
AcDbSpline
 70
8
 71
3
 72
8
 73
4
 74
0
 40
0
 40
0
 40
0
 40
0
 40
1
 40
1
 40
1
 40
1
 10
76.825283
 20
153.621299
 30
0.0
 10
76.899910
 20
153.673419
 30
0.0
 10
76.959164
 20
153.744630
 30
0.0
 10
76.996849
 20
153.827489
 30
0.0
  0
SPLINE
  5
2b8
100
AcDbEntity
  8
WS2812B_4x4_40mil
 62
7
100
AcDbSpline
 70
8
 71
3
 72
8
 73
4
 74
0
 40
0
 40
0
 40
0
 40
0
 40
1
 40
1
 40
1
 40
1
 10
76.996849
 20
153.827489
 30
0.0
 10
77.040573
 20
153.917798
 30
0.0
 10
77.056576
 20
154.019032
 30
0.0
 10
77.042842
 20
154.118425
 30
0.0
  0
LWPOLYLINE
  5
2b9
100
AcDbEntity
  8
WS2812B_4x4_40mil
 62
7
100
AcDbPolyline
 90
6
 70
0
 10
72.834313
 20
151.003371
 30
0.0
 10
72.834313
 20
141.104232
 30
0.0
 10
72.834313
 20
140.278444
 30
0.0
 10
73.850271
 20
140.278444
 30
0.0
 10
73.850271
 20
141.929507
 30
0.0
 10
73.850271
 20
150.851958
 30
0.0
  0
LWPOLYLINE
  5
2ba
100
AcDbEntity
  8
WS2812B_4x4_40mil
 62
7
100
AcDbPolyline
 90
6
 70
0
 10
77.042842
 20
154.118425
 30
0.0
 10
77.044908
 20
155.116298
 30
0.0
 10
77.046458
 20
155.116298
 30
0.0
 10
77.046458
 20
156.767359
 30
0.0
 10
76.030501
 20
156.767359
 30
0.0
 10
76.030501
 20
156.767359
 30
0.0
  0
SPLINE
  5
2bb
100
AcDbEntity
  8
WS2812B_4x4_40mil
 62
7
100
AcDbSpline
 70
8
 71
3
 72
8
 73
4
 74
0
 40
0
 40
0
 40
0
 40
0
 40
1
 40
1
 40
1
 40
1
 10
93.036179
 20
143.185760
 30
0.0
 10
92.964965
 20
143.131084
 30
0.0
 10
92.909511
 20
143.058514
 30
0.0
 10
92.875465
 20
142.975437
 30
0.0
  0
SPLINE
  5
2bc
100
AcDbEntity
  8
WS2812B_4x4_40mil
 62
7
100
AcDbSpline
 70
8
 71
3
 72
8
 73
4
 74
0
 40
0
 40
0
 40
0
 40
0
 40
1
 40
1
 40
1
 40
1
 10
92.875465
 20
142.975437
 30
0.0
 10
92.873516
 20
142.971329
 30
0.0
 10
92.871621
 20
142.967195
 30
0.0
 10
92.869782
 20
142.963036
 30
0.0
  0
SPLINE
  5
2bd
100
AcDbEntity
  8
WS2812B_4x4_40mil
 62
7
100
AcDbSpline
 70
8
 71
3
 72
8
 73
4
 74
0
 40
0
 40
0
 40
0
 40
0
 40
1
 40
1
 40
1
 40
1
 10
92.869782
 20
142.963036
 30
0.0
 10
92.868897
 20
142.960287
 30
0.0
 10
92.868035
 20
142.957531
 30
0.0
 10
92.867197
 20
142.954768
 30
0.0
  0
SPLINE
  5
2be
100
AcDbEntity
  8
WS2812B_4x4_40mil
 62
7
100
AcDbSpline
 70
8
 71
3
 72
8
 73
4
 74
0
 40
0
 40
0
 40
0
 40
0
 40
1
 40
1
 40
1
 40
1
 10
92.867197
 20
142.954768
 30
0.0
 10
92.836368
 20
142.875234
 30
0.0
 10
92.826061
 20
142.789218
 30
0.0
 10
92.837225
 20
142.704652
 30
0.0
  0
LWPOLYLINE
  5
2bf
100
AcDbEntity
  8
WS2812B_4x4_40mil
 62
7
100
AcDbPolyline
 90
4
 70
0
 10
96.012225
 20
156.767359
 30
0.0
 10
96.012225
 20
155.116298
 30
0.0
 10
96.012225
 20
146.181959
 30
0.0
 10
93.036179
 20
143.185760
 30
0.0
  0
SPLINE
  5
2c0
100
AcDbEntity
  8
WS2812B_4x4_40mil
 62
7
100
AcDbSpline
 70
8
 71
3
 72
8
 73
4
 74
0
 40
0
 40
0
 40
0
 40
0
 40
1
 40
1
 40
1
 40
1
 10
92.816037
 20
141.929507
 30
0.0
 10
92.816037
 20
141.929507
 30
0.0
 10
92.816037
 20
141.189500
 30
0.0
 10
92.816037
 20
141.189500
 30
0.0
  0
SPLINE
  5
2c1
100
AcDbEntity
  8
WS2812B_4x4_40mil
 62
7
100
AcDbSpline
 70
8
 71
3
 72
8
 73
4
 74
0
 40
0
 40
0
 40
0
 40
0
 40
1
 40
1
 40
1
 40
1
 10
92.816037
 20
141.189500
 30
0.0
 10
92.806604
 20
141.133567
 30
0.0
 10
92.806604
 20
141.076450
 30
0.0
 10
92.816037
 20
141.020518
 30
0.0
  0
LWPOLYLINE
  5
2c2
100
AcDbEntity
  8
WS2812B_4x4_40mil
 62
7
100
AcDbPolyline
 90
3
 70
0
 10
92.837225
 20
142.704652
 30
0.0
 10
92.837225
 20
141.929507
 30
0.0
 10
92.816037
 20
141.929507
 30
0.0
  0
SPLINE
  5
2c3
100
AcDbEntity
  8
WS2812B_4x4_40mil
 62
7
100
AcDbSpline
 70
8
 71
3
 72
8
 73
4
 74
0
 40
0
 40
0
 40
0
 40
0
 40
1
 40
1
 40
1
 40
1
 10
93.831995
 20
140.938352
 30
0.0
 10
93.859176
 20
141.017356
 30
0.0
 10
93.866453
 20
141.101844
 30
0.0
 10
93.853183
 20
141.184332
 30
0.0
  0
LWPOLYLINE
  5
2c4
100
AcDbEntity
  8
WS2812B_4x4_40mil
 62
7
100
AcDbPolyline
 90
4
 70
0
 10
92.816037
 20
141.020518
 30
0.0
 10
92.816037
 20
140.278444
 30
0.0
 10
93.831995
 20
140.278444
 30
0.0
 10
93.831995
 20
140.938352
 30
0.0
  0
SPLINE
  5
2c5
100
AcDbEntity
  8
WS2812B_4x4_40mil
 62
7
100
AcDbSpline
 70
8
 71
3
 72
8
 73
4
 74
0
 40
0
 40
0
 40
0
 40
0
 40
1
 40
1
 40
1
 40
1
 10
93.853183
 20
142.567193
 30
0.0
 10
93.853183
 20
142.567193
 30
0.0
 10
96.828713
 20
145.562877
 30
0.0
 10
96.828713
 20
145.562877
 30
0.0
  0
SPLINE
  5
2c6
100
AcDbEntity
  8
WS2812B_4x4_40mil
 62
7
100
AcDbSpline
 70
8
 71
3
 72
8
 73
4
 74
0
 40
0
 40
0
 40
0
 40
0
 40
1
 40
1
 40
1
 40
1
 10
96.828713
 20
145.562877
 30
0.0
 10
96.902629
 20
145.619283
 30
0.0
 10
96.959648
 20
145.694892
 30
0.0
 10
96.993559
 20
145.781468
 30
0.0
  0
SPLINE
  5
2c7
100
AcDbEntity
  8
WS2812B_4x4_40mil
 62
7
100
AcDbSpline
 70
8
 71
3
 72
8
 73
4
 74
0
 40
0
 40
0
 40
0
 40
0
 40
1
 40
1
 40
1
 40
1
 10
96.993559
 20
145.781468
 30
0.0
 10
96.994437
 20
145.783701
 30
0.0
 10
96.995299
 20
145.785940
 30
0.0
 10
96.996144
 20
145.788185
 30
0.0
  0
SPLINE
  5
2c8
100
AcDbEntity
  8
WS2812B_4x4_40mil
 62
7
100
AcDbSpline
 70
8
 71
3
 72
8
 73
4
 74
0
 40
0
 40
0
 40
0
 40
0
 40
1
 40
1
 40
1
 40
1
 10
96.996144
 20
145.788185
 30
0.0
 10
96.996318
 20
145.788874
 30
0.0
 10
96.996490
 20
145.789563
 30
0.0
 10
96.996660
 20
145.790252
 30
0.0
  0
SPLINE
  5
2c9
100
AcDbEntity
  8
WS2812B_4x4_40mil
 62
7
100
AcDbSpline
 70
8
 71
3
 72
8
 73
4
 74
0
 40
0
 40
0
 40
0
 40
0
 40
1
 40
1
 40
1
 40
1
 10
96.996660
 20
145.790252
 30
0.0
 10
97.028538
 20
145.870600
 30
0.0
 10
97.039388
 20
145.957754
 30
0.0
 10
97.028183
 20
146.043466
 30
0.0
  0
LWPOLYLINE
  5
2ca
100
AcDbEntity
  8
WS2812B_4x4_40mil
 62
7
100
AcDbPolyline
 90
2
 70
0
 10
93.853183
 20
141.184332
 30
0.0
 10
93.853183
 20
142.567193
 30
0.0
  0
LWPOLYLINE
  5
2cb
100
AcDbEntity
  8
WS2812B_4x4_40mil
 62
7
100
AcDbPolyline
 90
5
 70
0
 10
97.028183
 20
146.043466
 30
0.0
 10
97.028183
 20
155.942086
 30
0.0
 10
97.028183
 20
156.767359
 30
0.0
 10
96.012225
 20
156.767359
 30
0.0
 10
96.012225
 20
156.767359
 30
0.0
  0
SPLINE
  5
2cc
100
AcDbEntity
  8
WS2812B_4x4_40mil
 62
7
100
AcDbSpline
 70
8
 71
3
 72
8
 73
4
 74
0
 40
0
 40
0
 40
0
 40
0
 40
1
 40
1
 40
1
 40
1
 10
113.031341
 20
151.494298
 30
0.0
 10
112.958519
 20
151.442200
 30
0.0
 10
112.900758
 20
151.371781
 30
0.0
 10
112.863910
 20
151.290174
 30
0.0
  0
SPLINE
  5
2cd
100
AcDbEntity
  8
WS2812B_4x4_40mil
 62
7
100
AcDbSpline
 70
8
 71
3
 72
8
 73
4
 74
0
 40
0
 40
0
 40
0
 40
0
 40
1
 40
1
 40
1
 40
1
 10
112.863910
 20
151.290174
 30
0.0
 10
112.819022
 20
151.197831
 30
0.0
 10
112.803166
 20
151.094053
 30
0.0
 10
112.818434
 20
150.992518
 30
0.0
  0
LWPOLYLINE
  5
2ce
100
AcDbEntity
  8
WS2812B_4x4_40mil
 62
7
100
AcDbPolyline
 90
5
 70
0
 10
116.014621
 20
156.767359
 30
0.0
 10
116.014621
 20
155.116298
 30
0.0
 10
116.021339
 20
155.116298
 30
0.0
 10
116.028057
 20
154.346837
 30
0.0
 10
113.031341
 20
151.494298
 30
0.0
  0
SPLINE
  5
2cf
100
AcDbEntity
  8
WS2812B_4x4_40mil
 62
7
100
AcDbSpline
 70
8
 71
3
 72
8
 73
4
 74
0
 40
0
 40
0
 40
0
 40
0
 40
1
 40
1
 40
1
 40
1
 10
116.830075
 20
153.707598
 30
0.0
 10
116.905952
 20
153.761274
 30
0.0
 10
116.965651
 20
153.834736
 30
0.0
 10
117.002673
 20
153.919987
 30
0.0
  0
SPLINE
  5
2d0
100
AcDbEntity
  8
WS2812B_4x4_40mil
 62
7
100
AcDbSpline
 70
8
 71
3
 72
8
 73
4
 74
0
 40
0
 40
0
 40
0
 40
0
 40
1
 40
1
 40
1
 40
1
 10
117.002673
 20
153.919987
 30
0.0
 10
117.044833
 20
154.009852
 30
0.0
 10
117.059744
 20
154.110098
 30
0.0
 10
117.045565
 20
154.208343
 30
0.0
  0
LWPOLYLINE
  5
2d1
100
AcDbEntity
  8
WS2812B_4x4_40mil
 62
7
100
AcDbPolyline
 90
7
 70
0
 10
112.818434
 20
150.992518
 30
0.0
 10
112.818434
 20
141.104232
 30
0.0
 10
112.818434
 20
140.278444
 30
0.0
 10
113.834391
 20
140.278444
 30
0.0
 10
113.834391
 20
141.929507
 30
0.0
 10
113.834391
 20
150.855575
 30
0.0
 10
116.830075
 20
153.707598
 30
0.0
  0
LWPOLYLINE
  5
2d2
100
AcDbEntity
  8
WS2812B_4x4_40mil
 62
7
100
AcDbPolyline
 90
5
 70
0
 10
117.045565
 20
154.208343
 30
0.0
 10
117.030579
 20
155.946222
 30
0.0
 10
117.030579
 20
156.767359
 30
0.0
 10
116.014621
 20
156.767359
 30
0.0
 10
116.014621
 20
156.767359
 30
0.0
  0
SPLINE
  5
2d3
100
AcDbEntity
  8
WS2812B_4x4_40mil
 62
7
100
AcDbSpline
 70
8
 71
3
 72
8
 73
4
 74
0
 40
0
 40
0
 40
0
 40
0
 40
1
 40
1
 40
1
 40
1
 10
135.995830
 20
146.181443
 30
0.0
 10
135.995830
 20
146.181443
 30
0.0
 10
133.020818
 20
143.186794
 30
0.0
 10
133.020818
 20
143.186794
 30
0.0
  0
SPLINE
  5
2d4
100
AcDbEntity
  8
WS2812B_4x4_40mil
 62
7
100
AcDbSpline
 70
8
 71
3
 72
8
 73
4
 74
0
 40
0
 40
0
 40
0
 40
0
 40
1
 40
1
 40
1
 40
1
 10
133.020818
 20
143.186794
 30
0.0
 10
132.941323
 20
143.126209
 30
0.0
 10
132.881465
 20
143.043521
 30
0.0
 10
132.848736
 20
142.949082
 30
0.0
  0
SPLINE
  5
2d5
100
AcDbEntity
  8
WS2812B_4x4_40mil
 62
7
100
AcDbSpline
 70
8
 71
3
 72
8
 73
4
 74
0
 40
0
 40
0
 40
0
 40
0
 40
1
 40
1
 40
1
 40
1
 10
132.848736
 20
142.949082
 30
0.0
 10
132.819549
 20
142.871122
 30
0.0
 10
132.809966
 20
142.787184
 30
0.0
 10
132.820830
 20
142.704652
 30
0.0
  0
LWPOLYLINE
  5
2d6
100
AcDbEntity
  8
WS2812B_4x4_40mil
 62
7
100
AcDbPolyline
 90
3
 70
0
 10
135.995830
 20
156.767359
 30
0.0
 10
135.995830
 20
155.116298
 30
0.0
 10
135.995830
 20
146.181443
 30
0.0
  0
SPLINE
  5
2d7
100
AcDbEntity
  8
WS2812B_4x4_40mil
 62
7
100
AcDbSpline
 70
8
 71
3
 72
8
 73
4
 74
0
 40
0
 40
0
 40
0
 40
0
 40
1
 40
1
 40
1
 40
1
 10
132.799642
 20
141.185883
 30
0.0
 10
132.791005
 20
141.132313
 30
0.0
 10
132.791005
 20
141.077705
 30
0.0
 10
132.799642
 20
141.024135
 30
0.0
  0
LWPOLYLINE
  5
2d8
100
AcDbEntity
  8
WS2812B_4x4_40mil
 62
7
100
AcDbPolyline
 90
4
 70
0
 10
132.820830
 20
142.704652
 30
0.0
 10
132.820830
 20
141.929507
 30
0.0
 10
132.799642
 20
141.929507
 30
0.0
 10
132.799642
 20
141.185883
 30
0.0
  0
SPLINE
  5
2d9
100
AcDbEntity
  8
WS2812B_4x4_40mil
 62
7
100
AcDbSpline
 70
8
 71
3
 72
8
 73
4
 74
0
 40
0
 40
0
 40
0
 40
0
 40
1
 40
1
 40
1
 40
1
 10
133.815602
 20
140.278444
 30
0.0
 10
133.815602
 20
140.278444
 30
0.0
 10
133.815602
 20
140.938352
 30
0.0
 10
133.815602
 20
140.938352
 30
0.0
  0
SPLINE
  5
2da
100
AcDbEntity
  8
WS2812B_4x4_40mil
 62
7
100
AcDbSpline
 70
8
 71
3
 72
8
 73
4
 74
0
 40
0
 40
0
 40
0
 40
0
 40
1
 40
1
 40
1
 40
1
 10
133.815602
 20
140.938352
 30
0.0
 10
133.843040
 20
141.017838
 30
0.0
 10
133.850319
 20
141.102891
 30
0.0
 10
133.836788
 20
141.185883
 30
0.0
  0
LWPOLYLINE
  5
2db
100
AcDbEntity
  8
WS2812B_4x4_40mil
 62
7
100
AcDbPolyline
 90
3
 70
0
 10
132.799642
 20
141.024135
 30
0.0
 10
132.799642
 20
140.278444
 30
0.0
 10
133.815602
 20
140.278444
 30
0.0
  0
SPLINE
  5
2dc
100
AcDbEntity
  8
WS2812B_4x4_40mil
 62
7
100
AcDbSpline
 70
8
 71
3
 72
8
 73
4
 74
0
 40
0
 40
0
 40
0
 40
0
 40
1
 40
1
 40
1
 40
1
 10
133.836788
 20
142.567193
 30
0.0
 10
133.836788
 20
142.567193
 30
0.0
 10
136.811800
 20
145.561842
 30
0.0
 10
136.811800
 20
145.561842
 30
0.0
  0
SPLINE
  5
2dd
100
AcDbEntity
  8
WS2812B_4x4_40mil
 62
7
100
AcDbSpline
 70
8
 71
3
 72
8
 73
4
 74
0
 40
0
 40
0
 40
0
 40
0
 40
1
 40
1
 40
1
 40
1
 10
136.811800
 20
145.561842
 30
0.0
 10
136.886248
 20
145.618393
 30
0.0
 10
136.943649
 20
145.694391
 30
0.0
 10
136.977683
 20
145.781468
 30
0.0
  0
SPLINE
  5
2de
100
AcDbEntity
  8
WS2812B_4x4_40mil
 62
7
100
AcDbSpline
 70
8
 71
3
 72
8
 73
4
 74
0
 40
0
 40
0
 40
0
 40
0
 40
1
 40
1
 40
1
 40
1
 10
136.977683
 20
145.781468
 30
0.0
 10
136.978559
 20
145.783701
 30
0.0
 10
136.979420
 20
145.785940
 30
0.0
 10
136.980265
 20
145.788185
 30
0.0
  0
SPLINE
  5
2df
100
AcDbEntity
  8
WS2812B_4x4_40mil
 62
7
100
AcDbSpline
 70
8
 71
3
 72
8
 73
4
 74
0
 40
0
 40
0
 40
0
 40
0
 40
1
 40
1
 40
1
 40
1
 10
136.980265
 20
145.788185
 30
0.0
 10
136.980614
 20
145.789390
 30
0.0
 10
136.980959
 20
145.790595
 30
0.0
 10
136.981300
 20
145.791802
 30
0.0
  0
SPLINE
  5
2e0
100
AcDbEntity
  8
WS2812B_4x4_40mil
 62
7
100
AcDbSpline
 70
8
 71
3
 72
8
 73
4
 74
0
 40
0
 40
0
 40
0
 40
0
 40
1
 40
1
 40
1
 40
1
 10
136.981300
 20
145.791802
 30
0.0
 10
137.013092
 20
145.872717
 30
0.0
 10
137.023590
 20
145.960435
 30
0.0
 10
137.011788
 20
146.046567
 30
0.0
  0
LWPOLYLINE
  5
2e1
100
AcDbEntity
  8
WS2812B_4x4_40mil
 62
7
100
AcDbPolyline
 90
2
 70
0
 10
133.836788
 20
141.185883
 30
0.0
 10
133.836788
 20
142.567193
 30
0.0
  0
LWPOLYLINE
  5
2e2
100
AcDbEntity
  8
WS2812B_4x4_40mil
 62
7
100
AcDbPolyline
 90
5
 70
0
 10
137.011788
 20
146.046567
 30
0.0
 10
137.011788
 20
155.942086
 30
0.0
 10
137.011788
 20
156.767359
 30
0.0
 10
135.995830
 20
156.767359
 30
0.0
 10
135.995830
 20
156.767359
 30
0.0
  0
SPLINE
  5
2e3
100
AcDbEntity
  8
WS2812B_4x4_40mil
 62
7
100
AcDbSpline
 70
8
 71
3
 72
8
 73
4
 74
0
 40
0
 40
0
 40
0
 40
0
 40
1
 40
1
 40
1
 40
1
 10
76.030501
 20
136.021341
 30
0.0
 10
76.021863
 20
135.967771
 30
0.0
 10
76.021863
 20
135.913163
 30
0.0
 10
76.030501
 20
135.859593
 30
0.0
  0
LWPOLYLINE
  5
2e4
100
AcDbEntity
  8
WS2812B_4x4_40mil
 62
7
100
AcDbPolyline
 90
2
 70
0
 10
76.030501
 20
136.764963
 30
0.0
 10
76.030501
 20
136.021341
 30
0.0
  0
SPLINE
  5
2e5
100
AcDbEntity
  8
WS2812B_4x4_40mil
 62
7
100
AcDbSpline
 70
8
 71
3
 72
8
 73
4
 74
0
 40
0
 40
0
 40
0
 40
0
 40
1
 40
1
 40
1
 40
1
 10
76.051686
 20
134.498952
 30
0.0
 10
76.051686
 20
134.498952
 30
0.0
 10
73.034301
 20
131.481564
 30
0.0
 10
73.034301
 20
131.481564
 30
0.0
  0
SPLINE
  5
2e6
100
AcDbEntity
  8
WS2812B_4x4_40mil
 62
7
100
AcDbSpline
 70
8
 71
3
 72
8
 73
4
 74
0
 40
0
 40
0
 40
0
 40
0
 40
1
 40
1
 40
1
 40
1
 10
73.034301
 20
131.481564
 30
0.0
 10
72.963565
 20
131.427394
 30
0.0
 10
72.908319
 20
131.355574
 30
0.0
 10
72.874104
 20
131.273311
 30
0.0
  0
SPLINE
  5
2e7
100
AcDbEntity
  8
WS2812B_4x4_40mil
 62
7
100
AcDbSpline
 70
8
 71
3
 72
8
 73
4
 74
0
 40
0
 40
0
 40
0
 40
0
 40
1
 40
1
 40
1
 40
1
 10
72.874104
 20
131.273311
 30
0.0
 10
72.871582
 20
131.267499
 30
0.0
 10
72.869170
 20
131.261641
 30
0.0
 10
72.866867
 20
131.255740
 30
0.0
  0
SPLINE
  5
2e8
100
AcDbEntity
  8
WS2812B_4x4_40mil
 62
7
100
AcDbSpline
 70
8
 71
3
 72
8
 73
4
 74
0
 40
0
 40
0
 40
0
 40
0
 40
1
 40
1
 40
1
 40
1
 10
72.866867
 20
131.255740
 30
0.0
 10
72.866695
 20
131.255568
 30
0.0
 10
72.866523
 20
131.255396
 30
0.0
 10
72.866351
 20
131.255224
 30
0.0
  0
SPLINE
  5
2e9
100
AcDbEntity
  8
WS2812B_4x4_40mil
 62
7
100
AcDbSpline
 70
8
 71
3
 72
8
 73
4
 74
0
 40
0
 40
0
 40
0
 40
0
 40
1
 40
1
 40
1
 40
1
 10
72.866351
 20
131.255224
 30
0.0
 10
72.866179
 20
131.254879
 30
0.0
 10
72.866007
 20
131.254534
 30
0.0
 10
72.865835
 20
131.254189
 30
0.0
  0
SPLINE
  5
2ea
100
AcDbEntity
  8
WS2812B_4x4_40mil
 62
7
100
AcDbSpline
 70
8
 71
3
 72
8
 73
4
 74
0
 40
0
 40
0
 40
0
 40
0
 40
1
 40
1
 40
1
 40
1
 10
72.865835
 20
131.254189
 30
0.0
 10
72.834045
 20
131.173999
 30
0.0
 10
72.823197
 20
131.087034
 30
0.0
 10
72.834313
 20
131.001491
 30
0.0
  0
LWPOLYLINE
  5
2eb
100
AcDbEntity
  8
WS2812B_4x4_40mil
 62
7
100
AcDbPolyline
 90
4
 70
0
 10
76.030501
 20
135.859593
 30
0.0
 10
76.030501
 20
135.113902
 30
0.0
 10
76.051686
 20
135.113902
 30
0.0
 10
76.051686
 20
134.498952
 30
0.0
  0
SPLINE
  5
2ec
100
AcDbEntity
  8
WS2812B_4x4_40mil
 62
7
100
AcDbSpline
 70
8
 71
3
 72
8
 73
4
 74
0
 40
0
 40
0
 40
0
 40
0
 40
1
 40
1
 40
1
 40
1
 10
73.850271
 20
130.859899
 30
0.0
 10
73.850271
 20
130.859899
 30
0.0
 10
76.867140
 20
133.877284
 30
0.0
 10
76.867140
 20
133.877284
 30
0.0
  0
SPLINE
  5
2ed
100
AcDbEntity
  8
WS2812B_4x4_40mil
 62
7
100
AcDbSpline
 70
8
 71
3
 72
8
 73
4
 74
0
 40
0
 40
0
 40
0
 40
0
 40
1
 40
1
 40
1
 40
1
 10
76.867140
 20
133.877284
 30
0.0
 10
76.938327
 20
133.931466
 30
0.0
 10
76.993946
 20
134.003484
 30
0.0
 10
77.028371
 20
134.086056
 30
0.0
  0
SPLINE
  5
2ee
100
AcDbEntity
  8
WS2812B_4x4_40mil
 62
7
100
AcDbSpline
 70
8
 71
3
 72
8
 73
4
 74
0
 40
0
 40
0
 40
0
 40
0
 40
1
 40
1
 40
1
 40
1
 10
77.028371
 20
134.086056
 30
0.0
 10
77.031072
 20
134.092035
 30
0.0
 10
77.033657
 20
134.098065
 30
0.0
 10
77.036124
 20
134.104143
 30
0.0
  0
SPLINE
  5
2ef
100
AcDbEntity
  8
WS2812B_4x4_40mil
 62
7
100
AcDbSpline
 70
8
 71
3
 72
8
 73
4
 74
0
 40
0
 40
0
 40
0
 40
0
 40
1
 40
1
 40
1
 40
1
 10
77.036124
 20
134.104143
 30
0.0
 10
77.036124
 20
134.104316
 30
0.0
 10
77.036124
 20
134.104489
 30
0.0
 10
77.036124
 20
134.104662
 30
0.0
  0
SPLINE
  5
2f0
100
AcDbEntity
  8
WS2812B_4x4_40mil
 62
7
100
AcDbSpline
 70
8
 71
3
 72
8
 73
4
 74
0
 40
0
 40
0
 40
0
 40
0
 40
1
 40
1
 40
1
 40
1
 10
77.036124
 20
134.104662
 30
0.0
 10
77.068801
 20
134.186433
 30
0.0
 10
77.079664
 20
134.275293
 30
0.0
 10
77.067646
 20
134.362527
 30
0.0
  0
LWPOLYLINE
  5
2f1
100
AcDbEntity
  8
WS2812B_4x4_40mil
 62
7
100
AcDbPolyline
 90
6
 70
0
 10
72.834313
 20
131.001491
 30
0.0
 10
72.834313
 20
121.101320
 30
0.0
 10
72.834313
 20
120.276048
 30
0.0
 10
73.850271
 20
120.276048
 30
0.0
 10
73.850271
 20
121.927111
 30
0.0
 10
73.850271
 20
130.859899
 30
0.0
  0
SPLINE
  5
2f2
100
AcDbEntity
  8
WS2812B_4x4_40mil
 62
7
100
AcDbSpline
 70
8
 71
3
 72
8
 73
4
 74
0
 40
0
 40
0
 40
0
 40
0
 40
1
 40
1
 40
1
 40
1
 10
77.067646
 20
135.853910
 30
0.0
 10
77.081968
 20
135.938411
 30
0.0
 10
77.074679
 20
136.025162
 30
0.0
 10
77.046458
 20
136.106089
 30
0.0
  0
LWPOLYLINE
  5
2f3
100
AcDbEntity
  8
WS2812B_4x4_40mil
 62
7
100
AcDbPolyline
 90
2
 70
0
 10
77.067646
 20
134.362527
 30
0.0
 10
77.067646
 20
135.853910
 30
0.0
  0
LWPOLYLINE
  5
2f4
100
AcDbEntity
  8
WS2812B_4x4_40mil
 62
7
100
AcDbPolyline
 90
4
 70
0
 10
77.046458
 20
136.106089
 30
0.0
 10
77.046458
 20
136.764963
 30
0.0
 10
76.030501
 20
136.764963
 30
0.0
 10
76.030501
 20
136.764963
 30
0.0
  0
SPLINE
  5
2f5
100
AcDbEntity
  8
WS2812B_4x4_40mil
 62
7
100
AcDbSpline
 70
8
 71
3
 72
8
 73
4
 74
0
 40
0
 40
0
 40
0
 40
0
 40
1
 40
1
 40
1
 40
1
 10
96.012225
 20
126.180598
 30
0.0
 10
96.012225
 20
126.180598
 30
0.0
 10
93.037729
 20
123.206102
 30
0.0
 10
93.037729
 20
123.206102
 30
0.0
  0
SPLINE
  5
2f6
100
AcDbEntity
  8
WS2812B_4x4_40mil
 62
7
100
AcDbSpline
 70
8
 71
3
 72
8
 73
4
 74
0
 40
0
 40
0
 40
0
 40
0
 40
1
 40
1
 40
1
 40
1
 10
93.037729
 20
123.206102
 30
0.0
 10
92.966208
 20
123.151701
 30
0.0
 10
92.910394
 20
123.079304
 30
0.0
 10
92.875981
 20
122.996295
 30
0.0
  0
SPLINE
  5
2f7
100
AcDbEntity
  8
WS2812B_4x4_40mil
 62
7
100
AcDbSpline
 70
8
 71
3
 72
8
 73
4
 74
0
 40
0
 40
0
 40
0
 40
0
 40
1
 40
1
 40
1
 40
1
 10
92.875981
 20
122.996295
 30
0.0
 10
92.873835
 20
122.991333
 30
0.0
 10
92.871769
 20
122.986337
 30
0.0
 10
92.869782
 20
122.981309
 30
0.0
  0
SPLINE
  5
2f8
100
AcDbEntity
  8
WS2812B_4x4_40mil
 62
7
100
AcDbSpline
 70
8
 71
3
 72
8
 73
4
 74
0
 40
0
 40
0
 40
0
 40
0
 40
1
 40
1
 40
1
 40
1
 10
92.869782
 20
122.981309
 30
0.0
 10
92.868905
 20
122.979076
 30
0.0
 10
92.868043
 20
122.976837
 30
0.0
 10
92.867197
 20
122.974591
 30
0.0
  0
SPLINE
  5
2f9
100
AcDbEntity
  8
WS2812B_4x4_40mil
 62
7
100
AcDbSpline
 70
8
 71
3
 72
8
 73
4
 74
0
 40
0
 40
0
 40
0
 40
0
 40
1
 40
1
 40
1
 40
1
 10
92.867197
 20
122.974591
 30
0.0
 10
92.836020
 20
122.894424
 30
0.0
 10
92.825707
 20
122.807653
 30
0.0
 10
92.837225
 20
122.722412
 30
0.0
  0
LWPOLYLINE
  5
2fa
100
AcDbEntity
  8
WS2812B_4x4_40mil
 62
7
100
AcDbPolyline
 90
3
 70
0
 10
96.012225
 20
136.764963
 30
0.0
 10
96.012225
 20
135.113902
 30
0.0
 10
96.012225
 20
126.180598
 30
0.0
  0
SPLINE
  5
2fb
100
AcDbEntity
  8
WS2812B_4x4_40mil
 62
7
100
AcDbSpline
 70
8
 71
3
 72
8
 73
4
 74
0
 40
0
 40
0
 40
0
 40
0
 40
1
 40
1
 40
1
 40
1
 10
92.816037
 20
121.927111
 30
0.0
 10
92.816037
 20
121.927111
 30
0.0
 10
92.816037
 20
121.164884
 30
0.0
 10
92.816037
 20
121.164884
 30
0.0
  0
SPLINE
  5
2fc
100
AcDbEntity
  8
WS2812B_4x4_40mil
 62
7
100
AcDbSpline
 70
8
 71
3
 72
8
 73
4
 74
0
 40
0
 40
0
 40
0
 40
0
 40
1
 40
1
 40
1
 40
1
 10
92.816037
 20
121.164884
 30
0.0
 10
92.809950
 20
121.119784
 30
0.0
 10
92.809950
 20
121.074072
 30
0.0
 10
92.816037
 20
121.028972
 30
0.0
  0
LWPOLYLINE
  5
2fd
100
AcDbEntity
  8
WS2812B_4x4_40mil
 62
7
100
AcDbPolyline
 90
3
 70
0
 10
92.837225
 20
122.722412
 30
0.0
 10
92.837225
 20
121.927111
 30
0.0
 10
92.816037
 20
121.927111
 30
0.0
  0
SPLINE
  5
2fe
100
AcDbEntity
  8
WS2812B_4x4_40mil
 62
7
100
AcDbSpline
 70
8
 71
3
 72
8
 73
4
 74
0
 40
0
 40
0
 40
0
 40
0
 40
1
 40
1
 40
1
 40
1
 10
93.831995
 20
120.276048
 30
0.0
 10
93.831995
 20
120.276048
 30
0.0
 10
93.831995
 20
120.967997
 30
0.0
 10
93.831995
 20
120.967997
 30
0.0
  0
SPLINE
  5
2ff
100
AcDbEntity
  8
WS2812B_4x4_40mil
 62
7
100
AcDbSpline
 70
8
 71
3
 72
8
 73
4
 74
0
 40
0
 40
0
 40
0
 40
0
 40
1
 40
1
 40
1
 40
1
 10
93.831995
 20
120.967997
 30
0.0
 10
93.856220
 20
121.041198
 30
0.0
 10
93.863466
 20
121.118954
 30
0.0
 10
93.853183
 20
121.195372
 30
0.0
  0
LWPOLYLINE
  5
300
100
AcDbEntity
  8
WS2812B_4x4_40mil
 62
7
100
AcDbPolyline
 90
3
 70
0
 10
92.816037
 20
121.028972
 30
0.0
 10
92.816037
 20
120.276048
 30
0.0
 10
93.831995
 20
120.276048
 30
0.0
  0
SPLINE
  5
301
100
AcDbEntity
  8
WS2812B_4x4_40mil
 62
7
100
AcDbSpline
 70
8
 71
3
 72
8
 73
4
 74
0
 40
0
 40
0
 40
0
 40
0
 40
1
 40
1
 40
1
 40
1
 10
96.828195
 20
125.559446
 30
0.0
 10
96.898931
 20
125.613617
 30
0.0
 10
96.954178
 20
125.685438
 30
0.0
 10
96.988392
 20
125.767702
 30
0.0
  0
SPLINE
  5
302
100
AcDbEntity
  8
WS2812B_4x4_40mil
 62
7
100
AcDbSpline
 70
8
 71
3
 72
8
 73
4
 74
0
 40
0
 40
0
 40
0
 40
0
 40
1
 40
1
 40
1
 40
1
 10
96.988392
 20
125.767702
 30
0.0
 10
96.991093
 20
125.773680
 30
0.0
 10
96.993677
 20
125.779711
 30
0.0
 10
96.996144
 20
125.785789
 30
0.0
  0
SPLINE
  5
303
100
AcDbEntity
  8
WS2812B_4x4_40mil
 62
7
100
AcDbSpline
 70
8
 71
3
 72
8
 73
4
 74
0
 40
0
 40
0
 40
0
 40
0
 40
1
 40
1
 40
1
 40
1
 10
96.996144
 20
125.785789
 30
0.0
 10
96.996317
 20
125.786134
 30
0.0
 10
96.996489
 20
125.786479
 30
0.0
 10
96.996660
 20
125.786824
 30
0.0
  0
SPLINE
  5
304
100
AcDbEntity
  8
WS2812B_4x4_40mil
 62
7
100
AcDbSpline
 70
8
 71
3
 72
8
 73
4
 74
0
 40
0
 40
0
 40
0
 40
0
 40
1
 40
1
 40
1
 40
1
 10
96.996660
 20
125.786824
 30
0.0
 10
97.028980
 20
125.867962
 30
0.0
 10
97.039837
 20
125.956062
 30
0.0
 10
97.028183
 20
126.042620
 30
0.0
  0
LWPOLYLINE
  5
305
100
AcDbEntity
  8
WS2812B_4x4_40mil
 62
7
100
AcDbPolyline
 90
3
 70
0
 10
93.853183
 20
121.195372
 30
0.0
 10
93.853183
 20
122.584434
 30
0.0
 10
96.828195
 20
125.559446
 30
0.0
  0
SPLINE
  5
306
100
AcDbEntity
  8
WS2812B_4x4_40mil
 62
7
100
AcDbSpline
 70
8
 71
3
 72
8
 73
4
 74
0
 40
0
 40
0
 40
0
 40
0
 40
1
 40
1
 40
1
 40
1
 10
116.014621
 20
136.764963
 30
0.0
 10
116.014621
 20
136.764963
 30
0.0
 10
116.014621
 20
136.105573
 30
0.0
 10
116.014621
 20
136.105573
 30
0.0
  0
SPLINE
  5
307
100
AcDbEntity
  8
WS2812B_4x4_40mil
 62
7
100
AcDbSpline
 70
8
 71
3
 72
8
 73
4
 74
0
 40
0
 40
0
 40
0
 40
0
 40
1
 40
1
 40
1
 40
1
 10
116.014621
 20
136.105573
 30
0.0
 10
115.986837
 20
136.025447
 30
0.0
 10
115.979553
 20
135.939639
 30
0.0
 10
115.993434
 20
135.855976
 30
0.0
  0
LWPOLYLINE
  5
308
100
AcDbEntity
  8
WS2812B_4x4_40mil
 62
7
100
AcDbPolyline
 90
5
 70
0
 10
97.028183
 20
126.042620
 30
0.0
 10
97.028183
 20
135.939174
 30
0.0
 10
97.028183
 20
136.764963
 30
0.0
 10
96.012225
 20
136.764963
 30
0.0
 10
96.012225
 20
136.764963
 30
0.0
  0
SPLINE
  5
309
100
AcDbEntity
  8
WS2812B_4x4_40mil
 62
7
100
AcDbSpline
 70
8
 71
3
 72
8
 73
4
 74
0
 40
0
 40
0
 40
0
 40
0
 40
1
 40
1
 40
1
 40
1
 10
115.993434
 20
134.476732
 30
0.0
 10
115.993434
 20
134.476732
 30
0.0
 10
113.017387
 20
131.481048
 30
0.0
 10
113.017387
 20
131.481048
 30
0.0
  0
SPLINE
  5
30a
100
AcDbEntity
  8
WS2812B_4x4_40mil
 62
7
100
AcDbSpline
 70
8
 71
3
 72
8
 73
4
 74
0
 40
0
 40
0
 40
0
 40
0
 40
1
 40
1
 40
1
 40
1
 10
113.017387
 20
131.481048
 30
0.0
 10
112.945503
 20
131.425936
 30
0.0
 10
112.889660
 20
131.352608
 30
0.0
 10
112.855642
 20
131.268659
 30
0.0
  0
SPLINE
  5
30b
100
AcDbEntity
  8
WS2812B_4x4_40mil
 62
7
100
AcDbSpline
 70
8
 71
3
 72
8
 73
4
 74
0
 40
0
 40
0
 40
0
 40
0
 40
1
 40
1
 40
1
 40
1
 10
112.855642
 20
131.268659
 30
0.0
 10
112.854050
 20
131.265060
 30
0.0
 10
112.852499
 20
131.261442
 30
0.0
 10
112.850991
 20
131.257806
 30
0.0
  0
SPLINE
  5
30c
100
AcDbEntity
  8
WS2812B_4x4_40mil
 62
7
100
AcDbSpline
 70
8
 71
3
 72
8
 73
4
 74
0
 40
0
 40
0
 40
0
 40
0
 40
1
 40
1
 40
1
 40
1
 10
112.850991
 20
131.257806
 30
0.0
 10
112.850113
 20
131.255573
 30
0.0
 10
112.849251
 20
131.253334
 30
0.0
 10
112.848406
 20
131.251088
 30
0.0
  0
SPLINE
  5
30d
100
AcDbEntity
  8
WS2812B_4x4_40mil
 62
7
100
AcDbSpline
 70
8
 71
3
 72
8
 73
4
 74
0
 40
0
 40
0
 40
0
 40
0
 40
1
 40
1
 40
1
 40
1
 10
112.848406
 20
131.251088
 30
0.0
 10
112.817403
 20
131.171238
 30
0.0
 10
112.807093
 20
131.084845
 30
0.0
 10
112.818434
 20
130.999941
 30
0.0
  0
LWPOLYLINE
  5
30e
100
AcDbEntity
  8
WS2812B_4x4_40mil
 62
7
100
AcDbPolyline
 90
2
 70
0
 10
115.993434
 20
135.855976
 30
0.0
 10
115.993434
 20
134.476732
 30
0.0
  0
SPLINE
  5
30f
100
AcDbEntity
  8
WS2812B_4x4_40mil
 62
7
100
AcDbSpline
 70
8
 71
3
 72
8
 73
4
 74
0
 40
0
 40
0
 40
0
 40
0
 40
1
 40
1
 40
1
 40
1
 10
116.809922
 20
133.857647
 30
0.0
 10
116.879993
 20
133.911378
 30
0.0
 10
116.934850
 20
133.982443
 30
0.0
 10
116.969085
 20
134.063837
 30
0.0
  0
SPLINE
  5
310
100
AcDbEntity
  8
WS2812B_4x4_40mil
 62
7
100
AcDbSpline
 70
8
 71
3
 72
8
 73
4
 74
0
 40
0
 40
0
 40
0
 40
0
 40
1
 40
1
 40
1
 40
1
 10
116.969085
 20
134.063837
 30
0.0
 10
117.008094
 20
134.150415
 30
0.0
 10
117.022057
 20
134.246193
 30
0.0
 10
117.009391
 20
134.340305
 30
0.0
  0
LWPOLYLINE
  5
311
100
AcDbEntity
  8
WS2812B_4x4_40mil
 62
7
100
AcDbPolyline
 90
7
 70
0
 10
112.818434
 20
130.999941
 30
0.0
 10
112.818434
 20
121.101320
 30
0.0
 10
112.818434
 20
120.276048
 30
0.0
 10
113.834391
 20
120.276048
 30
0.0
 10
113.834391
 20
121.927111
 30
0.0
 10
113.834391
 20
130.861966
 30
0.0
 10
116.809922
 20
133.857647
 30
0.0
  0
SPLINE
  5
312
100
AcDbEntity
  8
WS2812B_4x4_40mil
 62
7
100
AcDbSpline
 70
8
 71
3
 72
8
 73
4
 74
0
 40
0
 40
0
 40
0
 40
0
 40
1
 40
1
 40
1
 40
1
 10
117.030579
 20
135.857526
 30
0.0
 10
117.039217
 20
135.911096
 30
0.0
 10
117.039217
 20
135.965704
 30
0.0
 10
117.030579
 20
136.019274
 30
0.0
  0
LWPOLYLINE
  5
313
100
AcDbEntity
  8
WS2812B_4x4_40mil
 62
7
100
AcDbPolyline
 90
4
 70
0
 10
117.009391
 20
134.340305
 30
0.0
 10
117.009391
 20
135.113902
 30
0.0
 10
117.030579
 20
135.113902
 30
0.0
 10
117.030579
 20
135.857526
 30
0.0
  0
LWPOLYLINE
  5
314
100
AcDbEntity
  8
WS2812B_4x4_40mil
 62
7
100
AcDbPolyline
 90
4
 70
0
 10
117.030579
 20
136.019274
 30
0.0
 10
117.030579
 20
136.764963
 30
0.0
 10
116.014621
 20
136.764963
 30
0.0
 10
116.014621
 20
136.764963
 30
0.0
  0
SPLINE
  5
315
100
AcDbEntity
  8
WS2812B_4x4_40mil
 62
7
100
AcDbSpline
 70
8
 71
3
 72
8
 73
4
 74
0
 40
0
 40
0
 40
0
 40
0
 40
1
 40
1
 40
1
 40
1
 10
133.001181
 20
123.185432
 30
0.0
 10
132.921303
 20
123.124993
 30
0.0
 10
132.861074
 20
123.042291
 30
0.0
 10
132.828064
 20
122.947720
 30
0.0
  0
SPLINE
  5
316
100
AcDbEntity
  8
WS2812B_4x4_40mil
 62
7
100
AcDbSpline
 70
8
 71
3
 72
8
 73
4
 74
0
 40
0
 40
0
 40
0
 40
0
 40
1
 40
1
 40
1
 40
1
 10
132.828064
 20
122.947720
 30
0.0
 10
132.798703
 20
122.869803
 30
0.0
 10
132.788943
 20
122.785865
 30
0.0
 10
132.799642
 20
122.703290
 30
0.0
  0
LWPOLYLINE
  5
317
100
AcDbEntity
  8
WS2812B_4x4_40mil
 62
7
100
AcDbPolyline
 90
4
 70
0
 10
135.995830
 20
136.764963
 30
0.0
 10
135.995830
 20
135.113902
 30
0.0
 10
135.995830
 20
126.180082
 30
0.0
 10
133.001181
 20
123.185432
 30
0.0
  0
SPLINE
  5
318
100
AcDbEntity
  8
WS2812B_4x4_40mil
 62
7
100
AcDbSpline
 70
8
 71
3
 72
8
 73
4
 74
0
 40
0
 40
0
 40
0
 40
0
 40
1
 40
1
 40
1
 40
1
 10
136.811284
 20
125.558930
 30
0.0
 10
136.882471
 20
125.613112
 30
0.0
 10
136.938090
 20
125.685130
 30
0.0
 10
136.972515
 20
125.767702
 30
0.0
  0
SPLINE
  5
319
100
AcDbEntity
  8
WS2812B_4x4_40mil
 62
7
100
AcDbSpline
 70
8
 71
3
 72
8
 73
4
 74
0
 40
0
 40
0
 40
0
 40
0
 40
1
 40
1
 40
1
 40
1
 10
136.972515
 20
125.767702
 30
0.0
 10
136.975215
 20
125.773680
 30
0.0
 10
136.977799
 20
125.779711
 30
0.0
 10
136.980265
 20
125.785789
 30
0.0
  0
SPLINE
  5
31a
100
AcDbEntity
  8
WS2812B_4x4_40mil
 62
7
100
AcDbSpline
 70
8
 71
3
 72
8
 73
4
 74
0
 40
0
 40
0
 40
0
 40
0
 40
1
 40
1
 40
1
 40
1
 10
136.980265
 20
125.785789
 30
0.0
 10
136.980612
 20
125.786650
 30
0.0
 10
136.980957
 20
125.787511
 30
0.0
 10
136.981300
 20
125.788374
 30
0.0
  0
SPLINE
  5
31b
100
AcDbEntity
  8
WS2812B_4x4_40mil
 62
7
100
AcDbSpline
 70
8
 71
3
 72
8
 73
4
 74
0
 40
0
 40
0
 40
0
 40
0
 40
1
 40
1
 40
1
 40
1
 10
136.981300
 20
125.788374
 30
0.0
 10
137.013003
 20
125.869130
 30
0.0
 10
137.023499
 20
125.956658
 30
0.0
 10
137.011788
 20
126.042620
 30
0.0
  0
LWPOLYLINE
  5
31c
100
AcDbEntity
  8
WS2812B_4x4_40mil
 62
7
100
AcDbPolyline
 90
8
 70
0
 10
132.799642
 20
122.703290
 30
0.0
 10
132.799642
 20
121.122508
 30
0.0
 10
132.799642
 20
121.101320
 30
0.0
 10
132.799642
 20
120.276048
 30
0.0
 10
133.815602
 20
120.276048
 30
0.0
 10
133.815602
 20
121.927111
 30
0.0
 10
133.815602
 20
122.563246
 30
0.0
 10
136.811284
 20
125.558930
 30
0.0
  0
LWPOLYLINE
  5
31d
100
AcDbEntity
  8
WS2812B_4x4_40mil
 62
7
100
AcDbPolyline
 90
5
 70
0
 10
137.011788
 20
126.042620
 30
0.0
 10
137.011788
 20
135.939174
 30
0.0
 10
137.011788
 20
136.764963
 30
0.0
 10
135.995830
 20
136.764963
 30
0.0
 10
135.995830
 20
136.764963
 30
0.0
  0
SPLINE
  5
31e
100
AcDbEntity
  8
WS2812B_4x4_40mil
 62
7
100
AcDbSpline
 70
8
 71
3
 72
8
 73
4
 74
0
 40
0
 40
0
 40
0
 40
0
 40
1
 40
1
 40
1
 40
1
 10
64.750051
 20
104.887842
 30
0.0
 10
64.750051
 20
104.887842
 30
0.0
 10
60.865018
 20
104.887842
 30
0.0
 10
60.865018
 20
104.887842
 30
0.0
  0
SPLINE
  5
31f
100
AcDbEntity
  8
WS2812B_4x4_40mil
 62
7
100
AcDbSpline
 70
8
 71
3
 72
8
 73
4
 74
0
 40
0
 40
0
 40
0
 40
0
 40
1
 40
1
 40
1
 40
1
 10
60.865018
 20
104.887842
 30
0.0
 10
60.837133
 20
104.891897
 30
0.0
 10
60.808958
 20
104.893625
 30
0.0
 10
60.780786
 20
104.893009
 30
0.0
  0
SPLINE
  5
320
100
AcDbEntity
  8
WS2812B_4x4_40mil
 62
7
100
AcDbSpline
 70
8
 71
3
 72
8
 73
4
 74
0
 40
0
 40
0
 40
0
 40
0
 40
1
 40
1
 40
1
 40
1
 10
60.780786
 20
104.893009
 30
0.0
 10
60.718743
 20
104.890875
 30
0.0
 10
60.657616
 20
104.877389
 30
0.0
 10
60.600435
 20
104.853218
 30
0.0
  0
SPLINE
  5
321
100
AcDbEntity
  8
WS2812B_4x4_40mil
 62
7
100
AcDbSpline
 70
8
 71
3
 72
8
 73
4
 74
0
 40
0
 40
0
 40
0
 40
0
 40
1
 40
1
 40
1
 40
1
 10
60.600435
 20
104.853218
 30
0.0
 10
60.596108
 20
104.851726
 30
0.0
 10
60.591801
 20
104.850175
 30
0.0
 10
60.587515
 20
104.848567
 30
0.0
  0
SPLINE
  5
322
100
AcDbEntity
  8
WS2812B_4x4_40mil
 62
7
100
AcDbSpline
 70
8
 71
3
 72
8
 73
4
 74
0
 40
0
 40
0
 40
0
 40
0
 40
1
 40
1
 40
1
 40
1
 10
60.587515
 20
104.848567
 30
0.0
 10
60.584573
 20
104.847216
 30
0.0
 10
60.581644
 20
104.845838
 30
0.0
 10
60.578729
 20
104.844431
 30
0.0
  0
SPLINE
  5
323
100
AcDbEntity
  8
WS2812B_4x4_40mil
 62
7
100
AcDbSpline
 70
8
 71
3
 72
8
 73
4
 74
0
 40
0
 40
0
 40
0
 40
0
 40
1
 40
1
 40
1
 40
1
 10
60.578729
 20
104.844431
 30
0.0
 10
60.500448
 20
104.809790
 30
0.0
 10
60.432189
 20
104.755930
 30
0.0
 10
60.380291
 20
104.687854
 30
0.0
  0
LWPOLYLINE
  5
324
100
AcDbEntity
  8
WS2812B_4x4_40mil
 62
7
100
AcDbPolyline
 90
3
 70
0
 10
76.030501
 20
116.783754
 30
0.0
 10
76.030501
 20
116.168288
 30
0.0
 10
64.750051
 20
104.887842
 30
0.0
  0
SPLINE
  5
325
100
AcDbEntity
  8
WS2812B_4x4_40mil
 62
7
100
AcDbSpline
 70
8
 71
3
 72
8
 73
4
 74
0
 40
0
 40
0
 40
0
 40
0
 40
1
 40
1
 40
1
 40
1
 10
61.000927
 20
103.871881
 30
0.0
 10
61.000927
 20
103.871881
 30
0.0
 10
64.890611
 20
103.871881
 30
0.0
 10
64.890611
 20
103.871881
 30
0.0
  0
SPLINE
  5
326
100
AcDbEntity
  8
WS2812B_4x4_40mil
 62
7
100
AcDbSpline
 70
8
 71
3
 72
8
 73
4
 74
0
 40
0
 40
0
 40
0
 40
0
 40
1
 40
1
 40
1
 40
1
 10
64.890611
 20
103.871881
 30
0.0
 10
64.977089
 20
103.860645
 30
0.0
 10
65.065003
 20
103.871857
 30
0.0
 10
65.145892
 20
103.904438
 30
0.0
  0
SPLINE
  5
327
100
AcDbEntity
  8
WS2812B_4x4_40mil
 62
7
100
AcDbSpline
 70
8
 71
3
 72
8
 73
4
 74
0
 40
0
 40
0
 40
0
 40
0
 40
1
 40
1
 40
1
 40
1
 10
65.145892
 20
103.904438
 30
0.0
 10
65.236048
 20
103.938295
 30
0.0
 10
65.314724
 20
103.997077
 30
0.0
 10
65.372751
 20
104.073936
 30
0.0
  0
LWPOLYLINE
  5
328
100
AcDbEntity
  8
WS2812B_4x4_40mil
 62
7
100
AcDbPolyline
 90
8
 70
0
 10
60.380291
 20
104.687854
 30
0.0
 10
56.970683
 20
101.278242
 30
0.0
 10
56.875081
 20
101.374360
 30
0.0
 10
55.075708
 20
99.574987
 30
0.0
 10
55.985729
 20
98.664964
 30
0.0
 10
57.785102
 20
100.463821
 30
0.0
 10
57.688984
 20
100.559938
 30
0.0
 10
61.000927
 20
103.871881
 30
0.0
  0
SPLINE
  5
329
100
AcDbEntity
  8
WS2812B_4x4_40mil
 62
7
100
AcDbSpline
 70
8
 71
3
 72
8
 73
4
 74
0
 40
0
 40
0
 40
0
 40
0
 40
1
 40
1
 40
1
 40
1
 10
77.046458
 20
115.132693
 30
0.0
 10
77.046458
 20
115.132693
 30
0.0
 10
77.046458
 20
115.894405
 30
0.0
 10
77.046458
 20
115.894405
 30
0.0
  0
SPLINE
  5
32a
100
AcDbEntity
  8
WS2812B_4x4_40mil
 62
7
100
AcDbSpline
 70
8
 71
3
 72
8
 73
4
 74
0
 40
0
 40
0
 40
0
 40
0
 40
1
 40
1
 40
1
 40
1
 10
77.046458
 20
115.894405
 30
0.0
 10
77.052733
 20
115.940183
 30
0.0
 10
77.052733
 20
115.986602
 30
0.0
 10
77.046458
 20
116.032380
 30
0.0
  0
LWPOLYLINE
  5
32b
100
AcDbEntity
  8
WS2812B_4x4_40mil
 62
7
100
AcDbPolyline
 90
3
 70
0
 10
65.372751
 20
104.073936
 30
0.0
 10
76.431509
 20
115.132693
 30
0.0
 10
77.046458
 20
115.132693
 30
0.0
  0
LWPOLYLINE
  5
32c
100
AcDbEntity
  8
WS2812B_4x4_40mil
 62
7
100
AcDbPolyline
 90
4
 70
0
 10
77.046458
 20
116.032380
 30
0.0
 10
77.046458
 20
116.783754
 30
0.0
 10
76.030501
 20
116.783754
 30
0.0
 10
76.030501
 20
116.783754
 30
0.0
  0
SPLINE
  5
32d
100
AcDbEntity
  8
WS2812B_4x4_40mil
 62
7
100
AcDbSpline
 70
8
 71
3
 72
8
 73
4
 74
0
 40
0
 40
0
 40
0
 40
0
 40
1
 40
1
 40
1
 40
1
 10
96.012225
 20
116.032380
 30
0.0
 10
96.005712
 20
115.985753
 30
0.0
 10
96.005712
 20
115.938447
 30
0.0
 10
96.012225
 20
115.891820
 30
0.0
  0
LWPOLYLINE
  5
32e
100
AcDbEntity
  8
WS2812B_4x4_40mil
 62
7
100
AcDbPolyline
 90
2
 70
0
 10
96.012225
 20
116.783754
 30
0.0
 10
96.012225
 20
116.032380
 30
0.0
  0
SPLINE
  5
32f
100
AcDbEntity
  8
WS2812B_4x4_40mil
 62
7
100
AcDbSpline
 70
8
 71
3
 72
8
 73
4
 74
0
 40
0
 40
0
 40
0
 40
0
 40
1
 40
1
 40
1
 40
1
 10
96.626656
 20
115.132693
 30
0.0
 10
96.626656
 20
115.132693
 30
0.0
 10
99.432687
 20
112.326663
 30
0.0
 10
99.432687
 20
112.326663
 30
0.0
  0
SPLINE
  5
330
100
AcDbEntity
  8
WS2812B_4x4_40mil
 62
7
100
AcDbSpline
 70
8
 71
3
 72
8
 73
4
 74
0
 40
0
 40
0
 40
0
 40
0
 40
1
 40
1
 40
1
 40
1
 10
99.432687
 20
112.326663
 30
0.0
 10
99.486858
 20
112.255927
 30
0.0
 10
99.558679
 20
112.200680
 30
0.0
 10
99.640943
 20
112.166465
 30
0.0
  0
SPLINE
  5
331
100
AcDbEntity
  8
WS2812B_4x4_40mil
 62
7
100
AcDbSpline
 70
8
 71
3
 72
8
 73
4
 74
0
 40
0
 40
0
 40
0
 40
0
 40
1
 40
1
 40
1
 40
1
 10
99.640943
 20
112.166465
 30
0.0
 10
99.646416
 20
112.164130
 30
0.0
 10
99.651929
 20
112.161890
 30
0.0
 10
99.657480
 20
112.159748
 30
0.0
  0
SPLINE
  5
332
100
AcDbEntity
  8
WS2812B_4x4_40mil
 62
7
100
AcDbSpline
 70
8
 71
3
 72
8
 73
4
 74
0
 40
0
 40
0
 40
0
 40
0
 40
1
 40
1
 40
1
 40
1
 10
99.657480
 20
112.159748
 30
0.0
 10
99.659198
 20
112.159049
 30
0.0
 10
99.660921
 20
112.158361
 30
0.0
 10
99.662647
 20
112.157681
 30
0.0
  0
SPLINE
  5
333
100
AcDbEntity
  8
WS2812B_4x4_40mil
 62
7
100
AcDbSpline
 70
8
 71
3
 72
8
 73
4
 74
0
 40
0
 40
0
 40
0
 40
0
 40
1
 40
1
 40
1
 40
1
 10
99.662647
 20
112.157681
 30
0.0
 10
99.742091
 20
112.126502
 30
0.0
 10
99.828110
 20
112.115839
 30
0.0
 10
99.912763
 20
112.126675
 30
0.0
  0
LWPOLYLINE
  5
334
100
AcDbEntity
  8
WS2812B_4x4_40mil
 62
7
100
AcDbPolyline
 90
3
 70
0
 10
96.012225
 20
115.891820
 30
0.0
 10
96.012225
 20
115.132693
 30
0.0
 10
96.626656
 20
115.132693
 30
0.0
  0
SPLINE
  5
335
100
AcDbEntity
  8
WS2812B_4x4_40mil
 62
7
100
AcDbSpline
 70
8
 71
3
 72
8
 73
4
 74
0
 40
0
 40
0
 40
0
 40
0
 40
1
 40
1
 40
1
 40
1
 10
111.615924
 20
112.126675
 30
0.0
 10
111.694767
 20
112.099580
 30
0.0
 10
111.779066
 20
112.092303
 30
0.0
 10
111.861386
 20
112.105487
 30
0.0
  0
SPLINE
  5
336
100
AcDbEntity
  8
WS2812B_4x4_40mil
 62
7
100
AcDbSpline
 70
8
 71
3
 72
8
 73
4
 74
0
 40
0
 40
0
 40
0
 40
0
 40
1
 40
1
 40
1
 40
1
 10
111.861386
 20
112.105487
 30
0.0
 10
111.861386
 20
112.105487
 30
0.0
 10
114.780589
 20
112.105487
 30
0.0
 10
114.780589
 20
112.105487
 30
0.0
  0
SPLINE
  5
337
100
AcDbEntity
  8
WS2812B_4x4_40mil
 62
7
100
AcDbSpline
 70
8
 71
3
 72
8
 73
4
 74
0
 40
0
 40
0
 40
0
 40
0
 40
1
 40
1
 40
1
 40
1
 10
114.780589
 20
112.105487
 30
0.0
 10
114.867111
 20
112.094414
 30
0.0
 10
114.955026
 20
112.105804
 30
0.0
 10
115.035870
 20
112.138560
 30
0.0
  0
SPLINE
  5
338
100
AcDbEntity
  8
WS2812B_4x4_40mil
 62
7
100
AcDbSpline
 70
8
 71
3
 72
8
 73
4
 74
0
 40
0
 40
0
 40
0
 40
0
 40
1
 40
1
 40
1
 40
1
 10
115.035870
 20
112.138560
 30
0.0
 10
115.124704
 20
112.171987
 30
0.0
 10
115.202399
 20
112.229632
 30
0.0
 10
115.260146
 20
112.304959
 30
0.0
  0
LWPOLYLINE
  5
339
100
AcDbEntity
  8
WS2812B_4x4_40mil
 62
7
100
AcDbPolyline
 90
2
 70
0
 10
99.912763
 20
112.126675
 30
0.0
 10
111.615924
 20
112.126675
 30
0.0
  0
SPLINE
  5
33a
100
AcDbEntity
  8
WS2812B_4x4_40mil
 62
7
100
AcDbSpline
 70
8
 71
3
 72
8
 73
4
 74
0
 40
0
 40
0
 40
0
 40
0
 40
1
 40
1
 40
1
 40
1
 10
116.830591
 20
113.875407
 30
0.0
 10
116.901996
 20
113.930016
 30
0.0
 10
116.957632
 20
114.002592
 30
0.0
 10
116.991823
 20
114.085729
 30
0.0
  0
SPLINE
  5
33b
100
AcDbEntity
  8
WS2812B_4x4_40mil
 62
7
100
AcDbSpline
 70
8
 71
3
 72
8
 73
4
 74
0
 40
0
 40
0
 40
0
 40
0
 40
1
 40
1
 40
1
 40
1
 10
116.991823
 20
114.085729
 30
0.0
 10
116.994153
 20
114.091030
 30
0.0
 10
116.996393
 20
114.096370
 30
0.0
 10
116.998541
 20
114.101747
 30
0.0
  0
SPLINE
  5
33c
100
AcDbEntity
  8
WS2812B_4x4_40mil
 62
7
100
AcDbSpline
 70
8
 71
3
 72
8
 73
4
 74
0
 40
0
 40
0
 40
0
 40
0
 40
1
 40
1
 40
1
 40
1
 10
116.998541
 20
114.101747
 30
0.0
 10
116.998713
 20
114.102092
 30
0.0
 10
116.998885
 20
114.102436
 30
0.0
 10
116.999057
 20
114.102782
 30
0.0
  0
SPLINE
  5
33d
100
AcDbEntity
  8
WS2812B_4x4_40mil
 62
7
100
AcDbSpline
 70
8
 71
3
 72
8
 73
4
 74
0
 40
0
 40
0
 40
0
 40
0
 40
1
 40
1
 40
1
 40
1
 10
116.999057
 20
114.102782
 30
0.0
 10
117.031377
 20
114.183921
 30
0.0
 10
117.042234
 20
114.272022
 30
0.0
 10
117.030579
 20
114.358581
 30
0.0
  0
LWPOLYLINE
  5
33e
100
AcDbEntity
  8
WS2812B_4x4_40mil
 62
7
100
AcDbPolyline
 90
2
 70
0
 10
115.260146
 20
112.304959
 30
0.0
 10
116.830591
 20
113.875407
 30
0.0
  0
SPLINE
  5
33f
100
AcDbEntity
  8
WS2812B_4x4_40mil
 62
7
100
AcDbSpline
 70
8
 71
3
 72
8
 73
4
 74
0
 40
0
 40
0
 40
0
 40
0
 40
1
 40
1
 40
1
 40
1
 10
114.640029
 20
113.121963
 30
0.0
 10
114.640029
 20
113.121963
 30
0.0
 10
111.946653
 20
113.121963
 30
0.0
 10
111.946653
 20
113.121963
 30
0.0
  0
SPLINE
  5
340
100
AcDbEntity
  8
WS2812B_4x4_40mil
 62
7
100
AcDbSpline
 70
8
 71
3
 72
8
 73
4
 74
0
 40
0
 40
0
 40
0
 40
0
 40
1
 40
1
 40
1
 40
1
 10
111.946653
 20
113.121963
 30
0.0
 10
111.891001
 20
113.141228
 30
0.0
 10
111.832423
 20
113.150671
 30
0.0
 10
111.773536
 20
113.149869
 30
0.0
  0
SPLINE
  5
341
100
AcDbEntity
  8
WS2812B_4x4_40mil
 62
7
100
AcDbSpline
 70
8
 71
3
 72
8
 73
4
 74
0
 40
0
 40
0
 40
0
 40
0
 40
1
 40
1
 40
1
 40
1
 10
111.773536
 20
113.149869
 30
0.0
 10
111.748069
 20
113.149364
 30
0.0
 10
111.722676
 20
113.146945
 30
0.0
 10
111.697571
 20
113.142632
 30
0.0
  0
LWPOLYLINE
  5
342
100
AcDbEntity
  8
WS2812B_4x4_40mil
 62
7
100
AcDbPolyline
 90
7
 70
0
 10
117.030579
 20
114.358581
 30
0.0
 10
117.030579
 20
115.957966
 30
0.0
 10
117.030579
 20
116.783754
 30
0.0
 10
116.014621
 20
116.783754
 30
0.0
 10
116.014621
 20
115.132693
 30
0.0
 10
116.014621
 20
114.496040
 30
0.0
 10
114.640029
 20
113.121963
 30
0.0
  0
LWPOLYLINE
  5
343
100
AcDbEntity
  8
WS2812B_4x4_40mil
 62
7
100
AcDbPolyline
 90
6
 70
0
 10
111.697571
 20
113.142632
 30
0.0
 10
100.053839
 20
113.142632
 30
0.0
 10
97.028183
 20
116.168288
 30
0.0
 10
97.028183
 20
116.783754
 30
0.0
 10
96.012225
 20
116.783754
 30
0.0
 10
96.012225
 20
116.783754
 30
0.0
  0
SPLINE
  5
344
100
AcDbEntity
  8
WS2812B_4x4_40mil
 62
7
100
AcDbSpline
 70
8
 71
3
 72
8
 73
4
 74
0
 40
0
 40
0
 40
0
 40
0
 40
1
 40
1
 40
1
 40
1
 10
135.995830
 20
116.034962
 30
0.0
 10
135.989318
 20
115.988336
 30
0.0
 10
135.989318
 20
115.941031
 30
0.0
 10
135.995830
 20
115.894405
 30
0.0
  0
LWPOLYLINE
  5
345
100
AcDbEntity
  8
WS2812B_4x4_40mil
 62
7
100
AcDbPolyline
 90
2
 70
0
 10
135.995830
 20
116.783754
 30
0.0
 10
135.995830
 20
116.034962
 30
0.0
  0
LWPOLYLINE
  5
346
100
AcDbEntity
  8
WS2812B_4x4_40mil
 62
7
100
AcDbPolyline
 90
13
 70
0
 10
135.995830
 20
115.894405
 30
0.0
 10
135.995830
 20
115.132693
 30
0.0
 10
136.642302
 20
115.132693
 30
0.0
 10
152.143681
 20
100.617300
 30
0.0
 10
152.050146
 20
100.523765
 30
0.0
 10
153.849521
 20
98.724392
 30
0.0
 10
154.759542
 20
99.634415
 30
0.0
 10
152.960685
 20
101.433788
 30
0.0
 10
152.863017
 20
101.336120
 30
0.0
 10
137.011788
 20
116.178623
 30
0.0
 10
137.011788
 20
116.783754
 30
0.0
 10
135.995830
 20
116.783754
 30
0.0
 10
135.995830
 20
116.783754
 30
0.0
  0
ENDSEC
  0
SECTION
  2
OBJECTS
  0
DICTIONARY
  5
C
330
0
100
AcDbDictionary
  3
ACAD_GROUP
350
D
  3
ACAD_MLINESTYLE
350
17
  0
DICTIONARY
  5
D
330
C
100
AcDbDictionary
  0
DICTIONARY
  5
1A
330
C
100
AcDbDictionary
  0
DICTIONARY
  5
17
330
C
100
AcDbDictionary
  3
STANDARD
350
18
  0
DICTIONARY
  5
19
330
C
100
AcDbDictionary
  0
ENDSEC
  0
EOF
